<?xml version="1.0"?>
<VTKFile type="UnstructuredGrid" version="0.1" byte_order="LittleEndian">
   <UnstructuredGrid>
      <Piece NumberOfPoints="81" NumberOfCells="0" > 
         <Points> 
            <DataArray type="Float64" Name="Position" NumberOfComponents="3" format="ascii"> 
               0  0  15  
               0.375  0  15  
               0.75  0  15  
               1.125  0  15  
               1.5  0  15  
               1.875  0  15  
               2.25  0  15  
               2.625  0  15  
               3  0  15  
               0  0.375  15  
               0.375  0.375  15  
               0.75  0.375  15  
               1.125  0.375  15  
               1.5  0.375  15  
               1.875  0.375  15  
               2.25  0.375  15  
               2.625  0.375  15  
               3  0.375  15  
               0  0.75  15  
               0.375  0.75  15  
               0.75  0.75  15  
               1.125  0.75  15  
               1.5  0.75  15  
               1.875  0.75  15  
               2.25  0.75  15  
               2.625  0.75  15  
               3  0.75  15  
               0  1.125  15  
               0.375  1.125  15  
               0.75  1.125  15  
               1.125  1.125  15  
               1.5  1.125  15  
               1.875  1.125  15  
               2.25  1.125  15  
               2.625  1.125  15  
               3  1.125  15  
               0  1.5  15  
               0.375  1.5  15  
               0.75  1.5  15  
               1.125  1.5  15  
               1.5  1.5  15  
               1.875  1.5  15  
               2.25  1.5  15  
               2.625  1.5  15  
               3  1.5  15  
               0  1.875  15  
               0.375  1.875  15  
               0.75  1.875  15  
               1.125  1.875  15  
               1.5  1.875  15  
               1.875  1.875  15  
               2.25  1.875  15  
               2.625  1.875  15  
               3  1.875  15  
               0  2.25  15  
               0.375  2.25  15  
               0.75  2.25  15  
               1.125  2.25  15  
               1.5  2.25  15  
               1.875  2.25  15  
               2.25  2.25  15  
               2.625  2.25  15  
               3  2.25  15  
               0  2.625  15  
               0.375  2.625  15  
               0.75  2.625  15  
               1.125  2.625  15  
               1.5  2.625  15  
               1.875  2.625  15  
               2.25  2.625  15  
               2.625  2.625  15  
               3  2.625  15  
               0  3  15  
               0.375  3  15  
               0.75  3  15  
               1.125  3  15  
               1.5  3  15  
               1.875  3  15  
               2.25  3  15  
               2.625  3  15  
               3  3  15  
            </DataArray>
         </Points> 

         <Cells>
            <DataArray type="Int32" Name="connectivity" NumberOfComponents="1" format="ascii">
               
            </DataArray> 
            <DataArray type="Int32" Name="offsets" NumberOfComponents="1" format="ascii">
               
            </DataArray>
            <DataArray type="UInt8"  Name="types" NumberOfComponents="1" format="ascii">
               
            </DataArray>
         </Cells>
         <PointData Scalars="Rank " Vectors="Displacement Velocity Traction ">
            <DataArray type="UInt32" Name="Rank" NumberOfComponents="1" format="ascii">
               0 0 0 0 0 0 0 0 0 0 0 0 0 0 0 0 0 0 0 0 0 0 0 0 0 0 0 0 0 0 0 0 0 0 0 0 0 0 0 0 0 0 0 0 0 0 0 0 0 0 0 0 0 0 0 0 0 0 0 0 0 0 0 0 0 0 0 0 0 0 0 0 0 0 0 0 0 0 0 0 0 
            </DataArray>
            <DataArray type="Float64" Name="Displacement" NumberOfComponents="3" format="ascii">
               0 0 0  0 0 0  0 0 0  0 0 0  0 0 0  0 0 0  0 0 0  0 0 0  0 0 0  0 0 0  0 0 0  0 0 0  0 0 0  0 0 0  0 0 0  0 0 0  0 0 0  0 0 0  0 0 0  0 0 0  0 0 0  0 0 0  0 0 0  0 0 0  0 0 0  0 0 0  0 0 0  0 0 0  0 0 0  0 0 0  0 0 0  0 0 0  0 0 0  0 0 0  0 0 0  0 0 0  0 0 0  0 0 0  0 0 0  0 0 0  0 0 0  0 0 0  0 0 0  0 0 0  0 0 0  0 0 0  0 0 0  0 0 0  0 0 0  0 0 0  0 0 0  0 0 0  0 0 0  0 0 0  0 0 0  0 0 0  0 0 0  0 0 0  0 0 0  0 0 0  0 0 0  0 0 0  0 0 0  0 0 0  0 0 0  0 0 0  0 0 0  0 0 0  0 0 0  0 0 0  0 0 0  0 0 0  0 0 0  0 0 0  0 0 0  0 0 0  0 0 0  0 0 0  0 0 0  0 0 0  0 0 0  
            </DataArray>
            <DataArray type="Float64" Name="Velocity" NumberOfComponents="3" format="ascii">
               0 0 0  0 0 0  0 0 0  0 0 0  0 0 0  0 0 0  0 0 0  0 0 0  0 0 0  0 0 0  0 0 0  0 0 0  0 0 0  0 0 0  0 0 0  0 0 0  0 0 0  0 0 0  0 0 0  0 0 0  0 0 0  0 0 0  0 0 0  0 0 0  0 0 0  0 0 0  0 0 0  0 0 0  0 0 0  0 0 0  0 0 0  0 0 0  0 0 0  0 0 0  0 0 0  0 0 0  0 0 0  0 0 0  0 0 0  0 0 0  0 0 0  0 0 0  0 0 0  0 0 0  0 0 0  0 0 0  0 0 0  0 0 0  0 0 0  0 0 0  0 0 0  0 0 0  0 0 0  0 0 0  0 0 0  0 0 0  0 0 0  0 0 0  0 0 0  0 0 0  0 0 0  0 0 0  0 0 0  0 0 0  0 0 0  0 0 0  0 0 0  0 0 0  0 0 0  0 0 0  0 0 0  0 0 0  0 0 0  0 0 0  0 0 0  0 0 0  0 0 0  0 0 0  0 0 0  0 0 0  0 0 0  
            </DataArray>
            <DataArray type="Float64" Name="Traction" NumberOfComponents="3" format="ascii">
               1.63041e-05 2.09295e-05 -3.02363e-05  3.97425e-06 1.35469e-05 -3.02363e-05  -3.50562e-06 1.68279e-06 -3.02363e-05  3.45966e-06 1.26213e-05 -3.02363e-05  1.65603e-06 2.98576e-05 -3.02363e-05  -3.89941e-06 3.16138e-05 -3.02363e-05  -3.33948e-06 2.69277e-05 -3.02363e-05  -1.2209e-05 5.14828e-05 -3.02363e-05  -8.34881e-05 8.01945e-05 -3.02363e-05  1.38081e-05 1.20525e-05 -3.02363e-05  8.65778e-06 1.4097e-05 -3.02363e-05  2.76298e-06 8.41736e-06 -3.02363e-05  2.25957e-06 2.58621e-06 -3.02363e-05  1.28393e-06 -1.52107e-06 -3.02363e-05  8.14313e-07 7.03686e-06 -3.02363e-05  -2.47228e-06 1.24585e-05 -3.02363e-05  -1.36361e-05 1.74531e-05 -3.02363e-05  -5.9858e-05 1.46467e-05 -3.02363e-05  5.39669e-06 3.84955e-06 -3.02363e-05  5.92831e-06 7.80599e-06 -3.02363e-05  4.09463e-06 5.13537e-06 -3.02363e-05  3.90712e-06 3.7525e-06 -3.02363e-05  3.68405e-06 1.28413e-06 -3.02363e-05  4.18805e-06 3.91805e-06 -3.02363e-05  4.33046e-08 3.39177e-06 -3.02363e-05  -7.37291e-06 5.86127e-06 -3.02363e-05  -4.17677e-05 5.6173e-06 -3.02363e-05  -2.03498e-06 6.23117e-06 -3.02363e-05  1.69436e-06 5.45371e-06 -3.02363e-05  2.54873e-06 4.66321e-06 -3.02363e-05  3.1262e-06 6.11446e-06 -3.02363e-05  1.12298e-06 5.40557e-06 -3.02363e-05  -4.4371e-07 3.19869e-06 -3.02363e-05  -4.14908e-06 -2.36665e-06 -3.02363e-05  -9.9846e-06 -1.80017e-07 -3.02363e-05  -2.94004e-05 2.97853e-07 -3.02363e-05  2.68466e-06 6.84923e-06 -3.02363e-05  3.17702e-06 3.86317e-06 -3.02363e-05  4.21409e-06 4.4545e-06 -3.02363e-05  4.70549e-06 6.32396e-06 -3.02363e-05  3.1208e-07 5.85732e-06 -3.02363e-05  -3.50928e-06 5.75338e-06 -3.02363e-05  -5.29408e-06 3.10467e-06 -3.02363e-05  -9.53746e-06 3.24378e-06 -3.02363e-05  -1.38144e-05 7.15883e-06 -3.02363e-05  -1.377e-06 -2.71692e-06 -3.02363e-05  5.98074e-06 -1.21176e-06 -3.02363e-05  5.50922e-06 -1.29691e-06 -3.02363e-05  4.59211e-06 2.3691e-07 -3.02363e-05  6.33868e-07 -2.24415e-07 -3.02363e-05  -2.46928e-06 2.62367e-06 -3.02363e-05  -6.6681e-06 4.06683e-06 -3.02363e-05  -1.22666e-05 3.76632e-06 -3.02363e-05  -2.10277e-05 8.60035e-06 -3.02363e-05  -1.1194e-05 -4.27781e-06 -3.02363e-05  5.77851e-06 -2.2959e-06 -3.02363e-05  5.92532e-06 -4.53411e-06 -3.02363e-05  4.7237e-06 -5.28068e-06 -3.02363e-05  1.66689e-06 -6.23138e-06 -3.02363e-05  -1.46408e-07 -4.399e-06 -3.02363e-05  -5.44957e-06 -3.08543e-06 -3.02363e-05  -1.18528e-05 -1.62066e-06 -3.02363e-05  -2.49822e-05 2.3695e-06 -3.02363e-05  -9.59888e-06 3.34535e-06 -3.02363e-05  -1.39948e-06 5.71703e-07 -3.02363e-05  3.3111e-06 -7.28081e-06 -3.02363e-05  3.48391e-06 -1.10197e-05 -3.02363e-05  7.86451e-07 -1.27374e-05 -3.02363e-05  -9.74885e-07 -1.20525e-05 -3.02363e-05  -4.7544e-06 -1.10154e-05 -3.02363e-05  -9.97961e-06 -8.22401e-06 -3.02363e-05  -3.01818e-05 -1.36356e-07 -3.02363e-05  -8.25839e-06 4.7698e-06 -3.02363e-05  -3.74467e-06 1.88883e-06 -3.02363e-05  5.98559e-06 -4.64137e-06 -3.02363e-05  5.16336e-06 -1.3444e-05 -3.02363e-05  1.70773e-06 -1.81998e-05 -3.02363e-05  -1.1544e-07 -2.14864e-05 -3.02363e-05  -3.0137e-06 -2.28163e-05 -3.02363e-05  -3.15037e-06 -2.8343e-05 -3.02363e-05  -3.51453e-05 -3.30346e-05 -3.02363e-05  
            </DataArray>
         </PointData> 
      </Piece>
   </UnstructuredGrid> 
</VTKFile>
