<?xml version="1.0"?>
<VTKFile type="UnstructuredGrid" version="0.1" byte_order="LittleEndian">
   <UnstructuredGrid>
      <Piece NumberOfPoints="81" NumberOfCells="0" > 
         <Points> 
            <DataArray type="Float64" Name="Position" NumberOfComponents="3" format="ascii"> 
               0  0  15  
               0.375  0  15  
               0.75  0  15  
               1.125  0  15  
               1.5  0  15  
               1.875  0  15  
               2.25  0  15  
               2.625  0  15  
               3  0  15  
               0  0.375  15  
               0.375  0.375  15  
               0.75  0.375  15  
               1.125  0.375  15  
               1.5  0.375  15  
               1.875  0.375  15  
               2.25  0.375  15  
               2.625  0.375  15  
               3  0.375  15  
               0  0.75  15  
               0.375  0.75  15  
               0.75  0.75  15  
               1.125  0.75  15  
               1.5  0.75  15  
               1.875  0.75  15  
               2.25  0.75  15  
               2.625  0.75  15  
               3  0.75  15  
               0  1.125  15  
               0.375  1.125  15  
               0.75  1.125  15  
               1.125  1.125  15  
               1.5  1.125  15  
               1.875  1.125  15  
               2.25  1.125  15  
               2.625  1.125  15  
               3  1.125  15  
               0  1.5  15  
               0.375  1.5  15  
               0.75  1.5  15  
               1.125  1.5  15  
               1.5  1.5  15  
               1.875  1.5  15  
               2.25  1.5  15  
               2.625  1.5  15  
               3  1.5  15  
               0  1.875  15  
               0.375  1.875  15  
               0.75  1.875  15  
               1.125  1.875  15  
               1.5  1.875  15  
               1.875  1.875  15  
               2.25  1.875  15  
               2.625  1.875  15  
               3  1.875  15  
               0  2.25  15  
               0.375  2.25  15  
               0.75  2.25  15  
               1.125  2.25  15  
               1.5  2.25  15  
               1.875  2.25  15  
               2.25  2.25  15  
               2.625  2.25  15  
               3  2.25  15  
               0  2.625  15  
               0.375  2.625  15  
               0.75  2.625  15  
               1.125  2.625  15  
               1.5  2.625  15  
               1.875  2.625  15  
               2.25  2.625  15  
               2.625  2.625  15  
               3  2.625  15  
               0  3  15  
               0.375  3  15  
               0.75  3  15  
               1.125  3  15  
               1.5  3  15  
               1.875  3  15  
               2.25  3  15  
               2.625  3  15  
               3  3  15  
            </DataArray>
         </Points> 

         <Cells>
            <DataArray type="Int32" Name="connectivity" NumberOfComponents="1" format="ascii">
               
            </DataArray> 
            <DataArray type="Int32" Name="offsets" NumberOfComponents="1" format="ascii">
               
            </DataArray>
            <DataArray type="UInt8"  Name="types" NumberOfComponents="1" format="ascii">
               
            </DataArray>
         </Cells>
         <PointData Scalars="Rank " Vectors="Displacement Velocity Traction ">
            <DataArray type="UInt32" Name="Rank" NumberOfComponents="1" format="ascii">
               0 0 0 0 0 0 0 0 0 0 0 0 0 0 0 0 0 0 0 0 0 0 0 0 0 0 0 0 0 0 0 0 0 0 0 0 0 0 0 0 0 0 0 0 0 0 0 0 0 0 0 0 0 0 0 0 0 0 0 0 0 0 0 0 0 0 0 0 0 0 0 0 0 0 0 0 0 0 0 0 0 
            </DataArray>
            <DataArray type="Float64" Name="Displacement" NumberOfComponents="3" format="ascii">
               0 0 0  0 0 0  0 0 0  0 0 0  0 0 0  0 0 0  0 0 0  0 0 0  0 0 0  0 0 0  0 0 0  0 0 0  0 0 0  0 0 0  0 0 0  0 0 0  0 0 0  0 0 0  0 0 0  0 0 0  0 0 0  0 0 0  0 0 0  0 0 0  0 0 0  0 0 0  0 0 0  0 0 0  0 0 0  0 0 0  0 0 0  0 0 0  0 0 0  0 0 0  0 0 0  0 0 0  0 0 0  0 0 0  0 0 0  0 0 0  0 0 0  0 0 0  0 0 0  0 0 0  0 0 0  0 0 0  0 0 0  0 0 0  0 0 0  0 0 0  0 0 0  0 0 0  0 0 0  0 0 0  0 0 0  0 0 0  0 0 0  0 0 0  0 0 0  0 0 0  0 0 0  0 0 0  0 0 0  0 0 0  0 0 0  0 0 0  0 0 0  0 0 0  0 0 0  0 0 0  0 0 0  0 0 0  0 0 0  0 0 0  0 0 0  0 0 0  0 0 0  0 0 0  0 0 0  0 0 0  0 0 0  
            </DataArray>
            <DataArray type="Float64" Name="Velocity" NumberOfComponents="3" format="ascii">
               0 0 0  0 0 0  0 0 0  0 0 0  0 0 0  0 0 0  0 0 0  0 0 0  0 0 0  0 0 0  0 0 0  0 0 0  0 0 0  0 0 0  0 0 0  0 0 0  0 0 0  0 0 0  0 0 0  0 0 0  0 0 0  0 0 0  0 0 0  0 0 0  0 0 0  0 0 0  0 0 0  0 0 0  0 0 0  0 0 0  0 0 0  0 0 0  0 0 0  0 0 0  0 0 0  0 0 0  0 0 0  0 0 0  0 0 0  0 0 0  0 0 0  0 0 0  0 0 0  0 0 0  0 0 0  0 0 0  0 0 0  0 0 0  0 0 0  0 0 0  0 0 0  0 0 0  0 0 0  0 0 0  0 0 0  0 0 0  0 0 0  0 0 0  0 0 0  0 0 0  0 0 0  0 0 0  0 0 0  0 0 0  0 0 0  0 0 0  0 0 0  0 0 0  0 0 0  0 0 0  0 0 0  0 0 0  0 0 0  0 0 0  0 0 0  0 0 0  0 0 0  0 0 0  0 0 0  0 0 0  0 0 0  
            </DataArray>
            <DataArray type="Float64" Name="Traction" NumberOfComponents="3" format="ascii">
               0.0125611 0.0124092 -0.0266292  0.00665914 0.0147496 -0.0266292  0.00283952 0.01577 -0.0266292  0.000857301 0.0164431 -0.0266292  -0.00111078 0.0165759 -0.0266292  -0.00258218 0.0168345 -0.0266292  -0.00431457 0.0164716 -0.0266292  -0.0094917 0.016155 -0.0266292  -0.0173089 0.0172284 -0.0266292  0.0148947 0.00644375 -0.0266292  0.00821543 0.00807704 -0.0266292  0.00441989 0.00820351 -0.0266292  0.00209013 0.00845801 -0.0266292  -4.06066e-05 0.00834137 -0.0266292  -0.00157401 0.00853789 -0.0266292  -0.00296772 0.00824437 -0.0266292  -0.00803715 0.00815015 -0.0266292  -0.016186 0.00963346 -0.0266292  0.0159011 0.00245121 -0.0266292  0.00824756 0.00418264 -0.0266292  0.00445213 0.00431314 -0.0266292  0.00220906 0.00435602 -0.0266292  0.000109183 0.0041912 -0.0266292  -0.00165818 0.00434713 -0.0266292  -0.00321357 0.00418239 -0.0266292  -0.00820972 0.00394962 -0.0266292  -0.016507 0.00510626 -0.0266292  0.0163719 0.000351317 -0.0266292  0.00834627 0.00176911 -0.0266292  0.00439071 0.00198553 -0.0266292  0.00214261 0.00198094 -0.0266292  0.000109766 0.00185764 -0.0266292  -0.00170367 0.00190333 -0.0266292  -0.00342896 0.00181546 -0.0266292  -0.00844896 0.00176081 -0.0266292  -0.0168443 0.00281332 -0.0266292  0.0163374 -0.00145548 -0.0266292  0.00805188 -0.000281595 -0.0266292  0.00410488 -3.45697e-05 -0.0266292  0.00196598 -6.34612e-05 -0.0266292  -1.09077e-05 -0.000230443 -0.0266292  -0.00169071 -0.000200325 -0.0266292  -0.00332203 -0.000192277 -0.0266292  -0.00831757 -9.12434e-05 -0.0266292  -0.0167269 0.000947802 -0.0266292  0.0166446 -0.00270743 -0.0266292  0.00807967 -0.00156319 -0.0266292  0.00410181 -0.0015679 -0.0266292  0.00187241 -0.00174046 -0.0266292  -2.66913e-05 -0.0018693 -0.0266292  -0.00165643 -0.00188463 -0.0266292  -0.00329177 -0.00184132 -0.0266292  -0.00829435 -0.00171075 -0.0266292  -0.0167772 -0.000534668 -0.0266292  0.0159976 -0.00411935 -0.0266292  0.00747977 -0.00262934 -0.0266292  0.00372395 -0.00285331 -0.0266292  0.00165835 -0.00328715 -0.0266292  -4.37117e-05 -0.00334135 -0.0266292  -0.00154686 -0.00342658 -0.0266292  -0.00310789 -0.00334543 -0.0266292  -0.00789011 -0.00341819 -0.0266292  -0.0161869 -0.0019455 -0.0266292  0.0160502 -0.00862113 -0.0266292  0.00732477 -0.00729501 -0.0266292  0.00353338 -0.00755009 -0.0266292  0.00169632 -0.00810964 -0.0266292  0.000153164 -0.00815561 -0.0266292  -0.00132906 -0.00829859 -0.0266292  -0.00309922 -0.00804162 -0.0266292  -0.00766509 -0.00788552 -0.0266292  -0.0154145 -0.00607582 -0.0266292  0.017604 -0.0177566 -0.0266292  0.00869281 -0.0161353 -0.0266292  0.00483941 -0.0161023 -0.0266292  0.00286175 -0.0166367 -0.0266292  0.00129163 -0.0164058 -0.0266292  4.56119e-05 -0.0167175 -0.0266292  -0.00149019 -0.0164029 -0.0266292  -0.00580294 -0.015624 -0.0266292  -0.0132439 -0.0134591 -0.0266292  
            </DataArray>
         </PointData> 
      </Piece>
   </UnstructuredGrid> 
</VTKFile>
