<?xml version="1.0"?>
<VTKFile type="UnstructuredGrid" version="0.1" byte_order="LittleEndian">
   <UnstructuredGrid>
      <Piece NumberOfPoints="81" NumberOfCells="0" > 
         <Points> 
            <DataArray type="Float64" Name="Position" NumberOfComponents="3" format="ascii"> 
               0  0  15  
               0.375  0  15  
               0.75  0  15  
               1.125  0  15  
               1.5  0  15  
               1.875  0  15  
               2.25  0  15  
               2.625  0  15  
               3  0  15  
               0  0.375  15  
               0.375  0.375  15  
               0.75  0.375  15  
               1.125  0.375  15  
               1.5  0.375  15  
               1.875  0.375  15  
               2.25  0.375  15  
               2.625  0.375  15  
               3  0.375  15  
               0  0.75  15  
               0.375  0.75  15  
               0.75  0.75  15  
               1.125  0.75  15  
               1.5  0.75  15  
               1.875  0.75  15  
               2.25  0.75  15  
               2.625  0.75  15  
               3  0.75  15  
               0  1.125  15  
               0.375  1.125  15  
               0.75  1.125  15  
               1.125  1.125  15  
               1.5  1.125  15  
               1.875  1.125  15  
               2.25  1.125  15  
               2.625  1.125  15  
               3  1.125  15  
               0  1.5  15  
               0.375  1.5  15  
               0.75  1.5  15  
               1.125  1.5  15  
               1.5  1.5  15  
               1.875  1.5  15  
               2.25  1.5  15  
               2.625  1.5  15  
               3  1.5  15  
               0  1.875  15  
               0.375  1.875  15  
               0.75  1.875  15  
               1.125  1.875  15  
               1.5  1.875  15  
               1.875  1.875  15  
               2.25  1.875  15  
               2.625  1.875  15  
               3  1.875  15  
               0  2.25  15  
               0.375  2.25  15  
               0.75  2.25  15  
               1.125  2.25  15  
               1.5  2.25  15  
               1.875  2.25  15  
               2.25  2.25  15  
               2.625  2.25  15  
               3  2.25  15  
               0  2.625  15  
               0.375  2.625  15  
               0.75  2.625  15  
               1.125  2.625  15  
               1.5  2.625  15  
               1.875  2.625  15  
               2.25  2.625  15  
               2.625  2.625  15  
               3  2.625  15  
               0  3  15  
               0.375  3  15  
               0.75  3  15  
               1.125  3  15  
               1.5  3  15  
               1.875  3  15  
               2.25  3  15  
               2.625  3  15  
               3  3  15  
            </DataArray>
         </Points> 

         <Cells>
            <DataArray type="Int32" Name="connectivity" NumberOfComponents="1" format="ascii">
               
            </DataArray> 
            <DataArray type="Int32" Name="offsets" NumberOfComponents="1" format="ascii">
               
            </DataArray>
            <DataArray type="UInt8"  Name="types" NumberOfComponents="1" format="ascii">
               
            </DataArray>
         </Cells>
         <PointData Scalars="Rank " Vectors="Displacement Velocity Traction ">
            <DataArray type="UInt32" Name="Rank" NumberOfComponents="1" format="ascii">
               0 0 0 0 0 0 0 0 0 0 0 0 0 0 0 0 0 0 0 0 0 0 0 0 0 0 0 0 0 0 0 0 0 0 0 0 0 0 0 0 0 0 0 0 0 0 0 0 0 0 0 0 0 0 0 0 0 0 0 0 0 0 0 0 0 0 0 0 0 0 0 0 0 0 0 0 0 0 0 0 0 
            </DataArray>
            <DataArray type="Float64" Name="Displacement" NumberOfComponents="3" format="ascii">
               0.000186265 0.000110771 -0.000146585  0.00018002 3.46139e-05 -0.000152664  0.000154672 1.59759e-05 -0.000143949  0.000118908 3.61992e-06 -0.000140428  8.62274e-05 1.17772e-05 -0.000140065  5.79619e-05 2.55668e-06 -0.000136757  3.70395e-05 1.22266e-05 -0.000142596  2.2759e-05 1.76537e-05 -0.000151527  1.76038e-05 -1.39679e-05 -0.000134293  0.000107916 0.000103972 -0.000152755  0.000110281 3.52839e-05 -0.000152653  9.63484e-05 2.4854e-05 -0.00014069  7.31574e-05 1.31197e-05 -0.000137587  4.77087e-05 2.0199e-05 -0.000137353  2.18224e-05 9.89208e-06 -0.000135072  -3.33021e-06 1.68861e-05 -0.000141326  -1.8465e-05 1.72211e-05 -0.000157192  -1.8143e-05 -2.01986e-05 -0.000148612  8.59287e-05 7.63868e-05 -0.000144055  9.76373e-05 1.75601e-05 -0.000140694  8.72932e-05 1.00277e-05 -0.000121371  6.52056e-05 2.42833e-06 -0.000115699  4.07915e-05 7.26351e-06 -0.000115817  1.59643e-05 4.08894e-07 -0.000115013  -7.44996e-06 4.81316e-06 -0.000121534  -1.87005e-05 1.25433e-06 -0.000141673  -1.28798e-05 -3.72722e-05 -0.000141484  6.94346e-05 3.68064e-05 -0.00014051  8.27953e-05 -1.13893e-05 -0.000137576  7.68374e-05 -1.70674e-05 -0.000115683  5.88889e-05 -1.99466e-05 -0.000107674  3.73537e-05 -1.76169e-05 -0.000107687  1.46981e-05 -2.06553e-05 -0.000107806  -5.65714e-06 -1.9876e-05 -0.000115461  -1.45516e-05 -2.53169e-05 -0.000135891  -6.14507e-06 -6.14546e-05 -0.000136742  7.89516e-05 -1.05339e-06 -0.000140145  9.19433e-05 -4.4416e-05 -0.00013734  8.43058e-05 -4.7026e-05 -0.0001158  6.36039e-05 -4.61566e-05 -0.000107691  3.89197e-05 -4.43737e-05 -0.000108222  1.26644e-05 -4.43575e-05 -0.00010766  -1.16982e-05 -4.63011e-05 -0.000115656  -2.37733e-05 -5.3461e-05 -0.000136975  -1.39812e-05 -9.27297e-05 -0.000138711  8.03843e-05 -3.61404e-05 -0.000136854  9.22419e-05 -7.79804e-05 -0.000135068  8.51215e-05 -7.58098e-05 -0.000115005  6.41266e-05 -7.14329e-05 -0.000107817  3.88266e-05 -6.94999e-05 -0.000107671  1.24077e-05 -6.71192e-05 -0.000107405  -1.03915e-05 -7.24309e-05 -0.00011534  -2.11501e-05 -8.17723e-05 -0.000136836  -1.00645e-05 -0.000129419 -0.000138547  9.71567e-05 -6.49675e-05 -0.000142694  0.00010588 -0.000109476 -0.000141311  9.53943e-05 -0.000100571 -0.000121513  7.02666e-05 -9.26526e-05 -0.00011545  4.08284e-05 -9.05173e-05 -0.000115649  1.00626e-05 -8.63813e-05 -0.000115324  -1.78448e-05 -9.61429e-05 -0.000121326  -3.30414e-05 -0.000107972 -0.000140829  -2.22459e-05 -0.000170864 -0.000142957  0.000123049 -8.59016e-05 -0.000151623  0.000123624 -0.000128052 -0.00015716  0.000104743 -0.000110783 -0.000141659  7.26447e-05 -9.97737e-05 -0.000135885  3.77046e-05 -9.78142e-05 -0.000136973  2.6772e-06 -9.29693e-05 -0.000136826  -2.85164e-05 -0.000107391 -0.000140831  -4.7844e-05 -0.000124032 -0.000153099  -4.65746e-05 -0.000200904 -0.000152068  9.35501e-05 -9.35503e-05 -0.000134588  8.50578e-05 -0.000126885 -0.00014875  6.18929e-05 -0.000101027 -0.000141618  3.04742e-05 -8.69597e-05 -0.000136878  -6.88348e-06 -8.35261e-05 -0.000138849  -4.80418e-05 -7.80619e-05 -0.000138678  -9.26651e-05 -9.37531e-05 -0.000143113  -0.000124515 -0.000121156 -0.00015221  -0.000132687 -0.000208608 -0.000145434  
            </DataArray>
            <DataArray type="Float64" Name="Velocity" NumberOfComponents="3" format="ascii">
               0.000187346 0.000149987 -0.000180918  0.000180065 7.87036e-05 -0.000190122  0.000153036 4.57927e-05 -0.000180581  0.000114818 2.62595e-05 -0.000176861  7.69316e-05 2.62136e-05 -0.000176411  4.17996e-05 2.15746e-05 -0.0001722  1.37357e-05 3.42438e-05 -0.000179344  -5.88235e-06 5.53833e-05 -0.000188948  -1.27877e-05 2.77268e-05 -0.000164301  0.000115803 0.000142886 -0.000190036  0.000117038 8.0612e-05 -0.000192884  9.90522e-05 5.76676e-05 -0.000179521  6.95032e-05 3.97279e-05 -0.000176235  3.59605e-05 4.02596e-05 -0.000175988  1.87619e-06 3.41082e-05 -0.000173077  -2.93598e-05 4.30777e-05 -0.000180524  -4.72374e-05 5.61497e-05 -0.000198602  -4.60683e-05 1.96961e-05 -0.000185284  8.09864e-05 0.000116166 -0.000180596  9.18015e-05 6.37563e-05 -0.000179584  7.99359e-05 4.71383e-05 -0.00015809  5.47581e-05 3.36806e-05 -0.000151831  2.62269e-05 3.35878e-05 -0.000151993  -1.63251e-06 2.83166e-05 -0.000151056  -2.5556e-05 3.35277e-05 -0.000158447  -3.5051e-05 3.83328e-05 -0.000180951  -2.57083e-05 -2.10916e-06 -0.000178213  6.04602e-05 7.92071e-05 -0.000176801  7.20289e-05 3.62993e-05 -0.000176258  6.45904e-05 2.32239e-05 -0.000151782  4.49294e-05 1.46912e-05 -0.000142775  2.0769e-05 1.33357e-05 -0.000142786  -2.98248e-06 8.4353e-06 -0.000143093  -2.27061e-05 9.46941e-06 -0.000151659  -2.87203e-05 7.40839e-06 -0.00017412  -1.63886e-05 -3.17927e-05 -0.000172418  5.99562e-05 4.37422e-05 -0.000176341  7.12634e-05 6.64436e-06 -0.000176013  6.21196e-05 -3.37749e-06 -0.000151944  4.07235e-05 -8.20592e-06 -0.000142798  1.67214e-05 -1.08213e-05 -0.000143382  -6.42184e-06 -1.57719e-05 -0.00014279  -2.58288e-05 -1.85232e-05 -0.000151758  -3.20159e-05 -2.62929e-05 -0.00017549  -1.82663e-05 -6.69254e-05 -0.000174884  4.98177e-05 1.25314e-05 -0.000172167  5.92767e-05 -2.28087e-05 -0.000173133  5.29217e-05 -2.99713e-05 -0.000151018  3.47339e-05 -3.16223e-05 -0.000143111  1.31191e-05 -3.59906e-05 -0.000142806  -8.21862e-06 -4.06446e-05 -0.000142433  -2.63351e-05 -4.72466e-05 -0.000151317  -3.22808e-05 -5.97402e-05 -0.000175131  -1.83474e-05 -0.000105547 -0.000174531  6.21254e-05 -1.02521e-05 -0.000179291  6.80493e-05 -4.96821e-05 -0.000180523  5.8148e-05 -5.41005e-05 -0.000158363  3.56603e-05 -5.16121e-05 -0.000151626  1.08475e-05 -5.84477e-05 -0.000151718  -1.40769e-05 -6.13628e-05 -0.000151271  -3.6697e-05 -7.26935e-05 -0.000158062  -4.71605e-05 -8.92011e-05 -0.000179603  -3.44716e-05 -0.000147126 -0.000179275  6.896e-05 -2.53888e-05 -0.000188996  6.92928e-05 -6.52095e-05 -0.000198662  5.48549e-05 -6.51804e-05 -0.00018095  2.97659e-05 -5.95259e-05 -0.000174193  2.42995e-06 -6.83926e-05 -0.000175539  -2.53713e-05 -7.00434e-05 -0.000175166  -5.12576e-05 -8.55559e-05 -0.000179679  -6.71876e-05 -0.000107148 -0.000193448  -6.46503e-05 -0.000177051 -0.000189376  4.05886e-05 -3.06534e-05 -0.000164458  3.46402e-05 -6.49753e-05 -0.000185367  1.84152e-05 -5.93697e-05 -0.000178164  -4.61983e-06 -5.0907e-05 -0.000172417  -3.43301e-05 -5.7998e-05 -0.000174853  -6.91273e-05 -5.8581e-05 -0.000174511  -0.000108284 -7.42968e-05 -0.00017936  -0.000137192 -0.000105469 -0.000189335  -0.000144927 -0.000185023 -0.000179417  
            </DataArray>
            <DataArray type="Float64" Name="Traction" NumberOfComponents="3" format="ascii">
               0.00430727 0.00432645 -0.0107216  0.00201965 0.00525853 -0.0107216  0.000811211 0.00571879 -0.0107216  0.000180721 0.00602638 -0.0107216  -0.000247127 0.00601828 -0.0107216  -0.000623805 0.00629013 -0.0107216  -0.00127448 0.00606171 -0.0107216  -0.00271076 0.00597954 -0.0107216  -0.00646105 0.00655407 -0.0107216  0.00517319 0.00203706 -0.0107216  0.00260752 0.00267547 -0.0107216  0.00132957 0.00279857 -0.0107216  0.000601511 0.002953 -0.0107216  9.14175e-05 0.00287307 -0.0107216  -0.000258148 0.00288282 -0.0107216  -0.000747941 0.00259708 -0.0107216  -0.00233116 0.00242656 -0.0107216  -0.00595922 0.00286618 -0.0107216  0.00560755 0.000857795 -0.0107216  0.00272905 0.00138767 -0.0107216  0.00140458 0.0014555 -0.0107216  0.000660592 0.00151791 -0.0107216  0.000137389 0.00142582 -0.0107216  -0.000286773 0.00138888 -0.0107216  -0.000881926 0.00117938 -0.0107216  -0.00256471 0.00107536 -0.0107216  -0.00610758 0.00160952 -0.0107216  0.00607029 0.000258665 -0.0107216  0.00296969 0.000627362 -0.0107216  0.0015274 0.000664228 -0.0107216  0.000709422 0.000678051 -0.0107216  0.000102972 0.00061862 -0.0107216  -0.000430658 0.000544621 -0.0107216  -0.00113633 0.000411121 -0.0107216  -0.00289605 0.000413896 -0.0107216  -0.00639373 0.000851464 -0.0107216  0.00621217 -0.000384406 -0.0107216  0.00302414 -5.1886e-05 -0.0107216  0.0015467 -5.33239e-05 -0.0107216  0.000696723 -2.53145e-05 -0.0107216  3.18011e-05 -3.57401e-05 -0.0107216  -0.000541848 -6.28426e-05 -0.0107216  -0.00124037 -8.9405e-05 -0.0107216  -0.00298332 -2.9807e-05 -0.0107216  -0.00624124 0.000376051 -0.0107216  0.00623527 -0.000960758 -0.0107216  0.00320802 -0.000661744 -0.0107216  0.00170169 -0.000740263 -0.0107216  0.00079728 -0.000697623 -0.0107216  6.59314e-05 -0.000633918 -0.0107216  -0.000578276 -0.000623322 -0.0107216  -0.00133141 -0.000571159 -0.0107216  -0.00310506 -0.000501699 -0.0107216  -0.00639281 2.43072e-06 -0.0107216  0.00611695 -0.00172345 -0.0107216  0.00326831 -0.00135689 -0.0107216  0.00176404 -0.00148856 -0.0107216  0.000848896 -0.00146621 -0.0107216  0.00010241 -0.00137505 -0.0107216  -0.000560573 -0.00135325 -0.0107216  -0.0012974 -0.00125937 -0.0107216  -0.00301559 -0.00122351 -0.0107216  -0.0062603 -0.000645724 -0.0107216  0.0057741 -0.00355927 -0.0107216  0.00319906 -0.00311379 -0.0107216  0.00166544 -0.00325362 -0.0107216  0.000804079 -0.00323326 -0.0107216  0.000111259 -0.00314179 -0.0107216  -0.000519294 -0.00312605 -0.0107216  -0.00127289 -0.00294935 -0.0107216  -0.00289284 -0.00282356 -0.0107216  -0.00583504 -0.00214418 -0.0107216  0.00598059 -0.0058842 -0.0107216  0.003708 -0.00572349 -0.0107216  0.00204396 -0.00612097 -0.0107216  0.00117644 -0.0062879 -0.0107216  0.00051213 -0.00638704 -0.0107216  -6.65729e-05 -0.0064036 -0.0107216  -0.000685302 -0.0061176 -0.0107216  -0.00215277 -0.0057228 -0.0107216  -0.00485627 -0.00484662 -0.0107216  
            </DataArray>
         </PointData> 
      </Piece>
   </UnstructuredGrid> 
</VTKFile>
