<?xml version="1.0"?>
<VTKFile type="UnstructuredGrid" version="0.1" byte_order="LittleEndian">
   <UnstructuredGrid>
      <Piece NumberOfPoints="81" NumberOfCells="0" > 
         <Points> 
            <DataArray type="Float64" Name="Position" NumberOfComponents="3" format="ascii"> 
               0  0  15  
               0.375  0  15  
               0.75  0  15  
               1.125  0  15  
               1.5  0  15  
               1.875  0  15  
               2.25  0  15  
               2.625  0  15  
               3  0  15  
               0  0.375  15  
               0.375  0.375  15  
               0.75  0.375  15  
               1.125  0.375  15  
               1.5  0.375  15  
               1.875  0.375  15  
               2.25  0.375  15  
               2.625  0.375  15  
               3  0.375  15  
               0  0.75  15  
               0.375  0.75  15  
               0.75  0.75  15  
               1.125  0.75  15  
               1.5  0.75  15  
               1.875  0.75  15  
               2.25  0.75  15  
               2.625  0.75  15  
               3  0.75  15  
               0  1.125  15  
               0.375  1.125  15  
               0.75  1.125  15  
               1.125  1.125  15  
               1.5  1.125  15  
               1.875  1.125  15  
               2.25  1.125  15  
               2.625  1.125  15  
               3  1.125  15  
               0  1.5  15  
               0.375  1.5  15  
               0.75  1.5  15  
               1.125  1.5  15  
               1.5  1.5  15  
               1.875  1.5  15  
               2.25  1.5  15  
               2.625  1.5  15  
               3  1.5  15  
               0  1.875  15  
               0.375  1.875  15  
               0.75  1.875  15  
               1.125  1.875  15  
               1.5  1.875  15  
               1.875  1.875  15  
               2.25  1.875  15  
               2.625  1.875  15  
               3  1.875  15  
               0  2.25  15  
               0.375  2.25  15  
               0.75  2.25  15  
               1.125  2.25  15  
               1.5  2.25  15  
               1.875  2.25  15  
               2.25  2.25  15  
               2.625  2.25  15  
               3  2.25  15  
               0  2.625  15  
               0.375  2.625  15  
               0.75  2.625  15  
               1.125  2.625  15  
               1.5  2.625  15  
               1.875  2.625  15  
               2.25  2.625  15  
               2.625  2.625  15  
               3  2.625  15  
               0  3  15  
               0.375  3  15  
               0.75  3  15  
               1.125  3  15  
               1.5  3  15  
               1.875  3  15  
               2.25  3  15  
               2.625  3  15  
               3  3  15  
            </DataArray>
         </Points> 

         <Cells>
            <DataArray type="Int32" Name="connectivity" NumberOfComponents="1" format="ascii">
               
            </DataArray> 
            <DataArray type="Int32" Name="offsets" NumberOfComponents="1" format="ascii">
               
            </DataArray>
            <DataArray type="UInt8"  Name="types" NumberOfComponents="1" format="ascii">
               
            </DataArray>
         </Cells>
         <PointData Scalars="Rank " Vectors="Displacement Velocity Traction ">
            <DataArray type="UInt32" Name="Rank" NumberOfComponents="1" format="ascii">
               0 0 0 0 0 0 0 0 0 0 0 0 0 0 0 0 0 0 0 0 0 0 0 0 0 0 0 0 0 0 0 0 0 0 0 0 0 0 0 0 0 0 0 0 0 0 0 0 0 0 0 0 0 0 0 0 0 0 0 0 0 0 0 0 0 0 0 0 0 0 0 0 0 0 0 0 0 0 0 0 0 
            </DataArray>
            <DataArray type="Float64" Name="Displacement" NumberOfComponents="3" format="ascii">
               0 0 0  0 0 0  0 0 0  0 0 0  0 0 0  0 0 0  0 0 0  0 0 0  0 0 0  0 0 0  0 0 0  0 0 0  0 0 0  0 0 0  0 0 0  0 0 0  0 0 0  0 0 0  0 0 0  0 0 0  0 0 0  0 0 0  0 0 0  0 0 0  0 0 0  0 0 0  0 0 0  0 0 0  0 0 0  0 0 0  0 0 0  0 0 0  0 0 0  0 0 0  0 0 0  0 0 0  0 0 0  0 0 0  0 0 0  0 0 0  0 0 0  0 0 0  0 0 0  0 0 0  0 0 0  0 0 0  0 0 0  0 0 0  0 0 0  0 0 0  0 0 0  0 0 0  0 0 0  0 0 0  0 0 0  0 0 0  0 0 0  0 0 0  0 0 0  0 0 0  0 0 0  0 0 0  0 0 0  0 0 0  0 0 0  0 0 0  0 0 0  0 0 0  0 0 0  0 0 0  0 0 0  0 0 0  0 0 0  0 0 0  0 0 0  0 0 0  0 0 0  0 0 0  0 0 0  0 0 0  0 0 0  
            </DataArray>
            <DataArray type="Float64" Name="Velocity" NumberOfComponents="3" format="ascii">
               0 0 0  0 0 0  0 0 0  0 0 0  0 0 0  0 0 0  0 0 0  0 0 0  0 0 0  0 0 0  0 0 0  0 0 0  0 0 0  0 0 0  0 0 0  0 0 0  0 0 0  0 0 0  0 0 0  0 0 0  0 0 0  0 0 0  0 0 0  0 0 0  0 0 0  0 0 0  0 0 0  0 0 0  0 0 0  0 0 0  0 0 0  0 0 0  0 0 0  0 0 0  0 0 0  0 0 0  0 0 0  0 0 0  0 0 0  0 0 0  0 0 0  0 0 0  0 0 0  0 0 0  0 0 0  0 0 0  0 0 0  0 0 0  0 0 0  0 0 0  0 0 0  0 0 0  0 0 0  0 0 0  0 0 0  0 0 0  0 0 0  0 0 0  0 0 0  0 0 0  0 0 0  0 0 0  0 0 0  0 0 0  0 0 0  0 0 0  0 0 0  0 0 0  0 0 0  0 0 0  0 0 0  0 0 0  0 0 0  0 0 0  0 0 0  0 0 0  0 0 0  0 0 0  0 0 0  0 0 0  0 0 0  
            </DataArray>
            <DataArray type="Float64" Name="Traction" NumberOfComponents="3" format="ascii">
               -9.94566e-07 1.15946e-06 -7.52265e-06  -4.1827e-06 -2.6866e-06 -7.52265e-06  -1.15715e-06 -5.39073e-06 -7.52265e-06  2.77266e-06 6.34537e-06 -7.52265e-06  -9.74325e-07 1.59402e-05 -7.52265e-06  -3.8372e-06 7.48839e-06 -7.52265e-06  -8.37287e-07 -9.32835e-08 -7.52265e-06  -2.41861e-06 8.18209e-06 -7.52265e-06  -1.70691e-05 1.66785e-05 -7.52265e-06  -1.92664e-06 -1.06354e-06 -7.52265e-06  -2.15085e-06 3.15689e-07 -7.52265e-06  -1.87817e-06 1.7418e-06 -7.52265e-06  -3.79388e-07 1.97586e-06 -7.52265e-06  -4.50034e-07 1.53556e-06 -7.52265e-06  -8.01888e-07 2.17333e-06 -7.52265e-06  -1.10965e-06 3.58711e-06 -7.52265e-06  -4.27333e-06 5.17826e-06 -7.52265e-06  -1.30712e-05 3.84572e-06 -7.52265e-06  -3.07923e-06 1.0569e-06 -7.52265e-06  -3.39439e-07 4.84491e-07 -7.52265e-06  -7.19841e-07 9.42823e-07 -7.52265e-06  5.05576e-08 1.27722e-06 -7.52265e-06  -2.97533e-08 1.46044e-06 -7.52265e-06  -3.24357e-07 1.65551e-06 -7.52265e-06  -8.23975e-07 1.90289e-06 -7.52265e-06  -2.52471e-06 2.23836e-06 -7.52265e-06  -8.45089e-06 1.44868e-06 -7.52265e-06  1.70845e-06 2.31986e-06 -7.52265e-06  1.26734e-06 9.38453e-07 -7.52265e-06  3.23657e-07 1.48617e-06 -7.52265e-06  4.41228e-07 2.17519e-06 -7.52265e-06  7.63853e-08 2.65224e-06 -7.52265e-06  -5.9521e-07 2.12326e-06 -7.52265e-06  -1.20914e-06 1.08515e-06 -7.52265e-06  -2.71378e-06 8.23182e-07 -7.52265e-06  -6.75303e-06 8.95811e-07 -7.52265e-06  4.77341e-06 -1.12481e-07 -7.52265e-06  1.92294e-06 6.82534e-07 -7.52265e-06  1.35511e-06 1.64201e-06 -7.52265e-06  1.31645e-06 2.3626e-06 -7.52265e-06  1.15991e-07 2.59755e-06 -7.52265e-06  -1.5104e-06 2.64819e-06 -7.52265e-06  -2.15557e-06 2.10389e-06 -7.52265e-06  -3.51332e-06 1.19819e-06 -7.52265e-06  -5.91112e-06 1.21015e-06 -7.52265e-06  1.31102e-06 -1.56866e-06 -7.52265e-06  2.51016e-06 -5.90185e-07 -7.52265e-06  2.01441e-06 7.62543e-08 -7.52265e-06  1.33107e-06 3.18673e-07 -7.52265e-06  3.67153e-07 2.04041e-08 -7.52265e-06  -9.62748e-07 8.65119e-07 -7.52265e-06  -2.64777e-06 1.4184e-06 -7.52265e-06  -4.42224e-06 6.2632e-07 -7.52265e-06  -7.11406e-06 4.5947e-07 -7.52265e-06  -6.77513e-07 -1.01944e-06 -7.52265e-06  3.31634e-06 -1.71582e-06 -7.52265e-06  2.23715e-06 -1.54022e-06 -7.52265e-06  9.00076e-07 -1.70132e-06 -7.52265e-06  4.46149e-07 -2.03911e-06 -7.52265e-06  -2.16711e-07 -1.85022e-06 -7.52265e-06  -2.56813e-06 -1.37135e-06 -7.52265e-06  -4.72029e-06 -1.46074e-06 -7.52265e-06  -7.79428e-06 -1.45425e-06 -7.52265e-06  4.06197e-06 -1.71035e-06 -7.52265e-06  3.07937e-06 -2.90841e-06 -7.52265e-06  2.17195e-06 -3.40362e-06 -7.52265e-06  8.24162e-07 -3.97342e-06 -7.52265e-06  -6.1059e-08 -4.46548e-06 -7.52265e-06  -9.74024e-07 -4.82722e-06 -7.52265e-06  -2.89599e-06 -4.21776e-06 -7.52265e-06  -5.10254e-06 -4.03922e-06 -7.52265e-06  -1.10971e-05 -3.20605e-06 -7.52265e-06  7.39613e-06 -8.83287e-06 -7.52265e-06  1.84848e-06 -6.00468e-06 -7.52265e-06  2.51578e-06 -4.3864e-06 -7.52265e-06  1.75735e-06 -6.39567e-06 -7.52265e-06  2.27581e-07 -8.42219e-06 -7.52265e-06  -2.11615e-06 -9.02439e-06 -7.52265e-06  -3.91856e-06 -7.65639e-06 -7.52265e-06  -4.42501e-06 -1.01613e-05 -7.52265e-06  -1.49875e-05 -1.43751e-05 -7.52265e-06  
            </DataArray>
         </PointData> 
      </Piece>
   </UnstructuredGrid> 
</VTKFile>
