<?xml version="1.0"?>
<VTKFile type="UnstructuredGrid" version="0.1" byte_order="LittleEndian">
   <UnstructuredGrid>
      <Piece NumberOfPoints="81" NumberOfCells="0" > 
         <Points> 
            <DataArray type="Float64" Name="Position" NumberOfComponents="3" format="ascii"> 
               0  0  20  
               0.375  0  20  
               0.75  0  20  
               1.125  0  20  
               1.5  0  20  
               1.875  0  20  
               2.25  0  20  
               2.625  0  20  
               3  0  20  
               0  0.375  20  
               0.375  0.375  20  
               0.75  0.375  20  
               1.125  0.375  20  
               1.5  0.375  20  
               1.875  0.375  20  
               2.25  0.375  20  
               2.625  0.375  20  
               3  0.375  20  
               0  0.75  20  
               0.375  0.75  20  
               0.75  0.75  20  
               1.125  0.75  20  
               1.5  0.75  20  
               1.875  0.75  20  
               2.25  0.75  20  
               2.625  0.75  20  
               3  0.75  20  
               0  1.125  20  
               0.375  1.125  20  
               0.75  1.125  20  
               1.125  1.125  20  
               1.5  1.125  20  
               1.875  1.125  20  
               2.25  1.125  20  
               2.625  1.125  20  
               3  1.125  20  
               0  1.5  20  
               0.375  1.5  20  
               0.75  1.5  20  
               1.125  1.5  20  
               1.5  1.5  20  
               1.875  1.5  20  
               2.25  1.5  20  
               2.625  1.5  20  
               3  1.5  20  
               0  1.875  20  
               0.375  1.875  20  
               0.75  1.875  20  
               1.125  1.875  20  
               1.5  1.875  20  
               1.875  1.875  20  
               2.25  1.875  20  
               2.625  1.875  20  
               3  1.875  20  
               0  2.25  20  
               0.375  2.25  20  
               0.75  2.25  20  
               1.125  2.25  20  
               1.5  2.25  20  
               1.875  2.25  20  
               2.25  2.25  20  
               2.625  2.25  20  
               3  2.25  20  
               0  2.625  20  
               0.375  2.625  20  
               0.75  2.625  20  
               1.125  2.625  20  
               1.5  2.625  20  
               1.875  2.625  20  
               2.25  2.625  20  
               2.625  2.625  20  
               3  2.625  20  
               0  3  20  
               0.375  3  20  
               0.75  3  20  
               1.125  3  20  
               1.5  3  20  
               1.875  3  20  
               2.25  3  20  
               2.625  3  20  
               3  3  20  
            </DataArray>
         </Points> 

         <Cells>
            <DataArray type="Int32" Name="connectivity" NumberOfComponents="1" format="ascii">
               
            </DataArray> 
            <DataArray type="Int32" Name="offsets" NumberOfComponents="1" format="ascii">
               
            </DataArray>
            <DataArray type="UInt8"  Name="types" NumberOfComponents="1" format="ascii">
               
            </DataArray>
         </Cells>
         <PointData Scalars="Rank " Vectors="Displacement Velocity Traction ">
            <DataArray type="UInt32" Name="Rank" NumberOfComponents="1" format="ascii">
               0 0 0 0 0 0 0 0 0 0 0 0 0 0 0 0 0 0 0 0 0 0 0 0 0 0 0 0 0 0 0 0 0 0 0 0 0 0 0 0 0 0 0 0 0 0 0 0 0 0 0 0 0 0 0 0 0 0 0 0 0 0 0 0 0 0 0 0 0 0 0 0 0 0 0 0 0 0 0 0 0 
            </DataArray>
            <DataArray type="Float64" Name="Displacement" NumberOfComponents="3" format="ascii">
               4.27784e-08 4.27107e-08 -1.31529e-07  4.75095e-09 6.42205e-08 -1.23353e-07  3.5341e-11 8.22533e-08 -1.10732e-07  -2.68378e-09 8.49374e-08 -1.08981e-07  -3.22704e-09 8.01057e-08 -1.11708e-07  -1.47804e-09 8.52748e-08 -1.08672e-07  -1.19469e-08 8.31445e-08 -1.10197e-07  -1.54117e-08 5.76238e-08 -1.21383e-07  -4.60686e-08 5.05928e-08 -1.3085e-07  6.42515e-08 4.69796e-09 -1.23368e-07  1.81334e-08 1.80959e-08 -1.00865e-07  7.21933e-09 2.49805e-08 -7.75968e-08  4.5241e-11 2.75188e-08 -7.45522e-08  -1.35594e-10 2.65442e-08 -7.74166e-08  5.01117e-10 2.7234e-08 -7.4386e-08  -8.81159e-09 2.90811e-08 -7.72359e-08  -1.67197e-08 1.65976e-08 -1.0119e-07  -5.76318e-08 1.8556e-08 -1.21326e-07  8.22837e-08 -1.24535e-11 -1.10744e-07  2.50066e-08 7.15168e-09 -7.75973e-08  1.17869e-08 1.17325e-08 -4.19363e-08  -1.97737e-09 1.40707e-08 -3.70791e-08  -1.41494e-09 1.29276e-08 -4.032e-08  3.86906e-10 1.36625e-08 -3.70866e-08  -1.42537e-08 1.50055e-08 -4.1378e-08  -2.71595e-08 8.80652e-09 -7.75223e-08  -8.15315e-08 1.0935e-08 -1.09968e-07  8.4996e-08 -2.71305e-09 -1.09002e-07  2.75575e-08 1.67428e-12 -7.45517e-08  1.41308e-08 -2.01085e-09 -3.70843e-08  5.52184e-10 5.13192e-10 -3.1024e-08  1.20975e-10 -1.22339e-09 -3.40066e-08  -3.42587e-10 4.99542e-10 -3.09689e-08  -1.35392e-08 -1.48887e-09 -3.69279e-08  -2.69477e-08 -5.29044e-11 -7.43607e-08  -8.49363e-08 -2.3993e-09 -1.08709e-07  8.01725e-08 -3.27158e-09 -1.11733e-07  2.6571e-08 -1.71376e-10 -7.74093e-08  1.29748e-08 -1.45066e-09 -4.03195e-08  -1.18431e-09 7.90494e-11 -3.40069e-08  1.44982e-10 9.40953e-11 -3.67496e-08  1.34898e-09 5.79384e-11 -3.39042e-08  -1.20777e-08 1.10045e-09 -4.032e-08  -2.4786e-08 2.53468e-10 -7.71157e-08  -7.8363e-08 4.03483e-09 -1.11539e-07  8.53244e-08 -1.50086e-09 -1.08706e-07  2.7268e-08 4.54104e-10 -7.43901e-08  1.37142e-08 3.25286e-10 -3.70943e-08  5.35544e-10 -3.81813e-10 -3.0968e-08  1.10125e-10 1.3156e-09 -3.3902e-08  -5.1184e-10 -5.49014e-10 -3.08296e-08  -1.4037e-08 3.09884e-09 -3.6933e-08  -2.71512e-08 -5.22296e-10 -7.44429e-08  -8.46934e-08 6.3317e-09 -1.08778e-07  8.32386e-08 -1.19554e-08 -1.10248e-07  2.91567e-08 -8.84488e-09 -7.72465e-08  1.5069e-08 -1.4309e-08 -4.13987e-08  -1.42951e-09 -1.35936e-08 -3.69319e-08  1.1405e-09 -1.21202e-08 -4.0315e-08  3.12792e-09 -1.40893e-08 -3.69316e-08  -1.06876e-08 -1.07294e-08 -4.16283e-08  -2.43453e-08 -7.26138e-09 -7.76763e-08  -8.18032e-08 3.40416e-10 -1.10684e-07  5.77834e-08 -1.55215e-08 -1.21438e-07  1.67162e-08 -1.68299e-08 -1.01176e-07  8.85902e-09 -2.72107e-08 -7.75331e-08  -1.02713e-11 -2.69676e-08 -7.43698e-08  2.87632e-10 -2.47974e-08 -7.7113e-08  -4.90818e-10 -2.71774e-08 -7.44431e-08  -7.22591e-09 -2.43807e-08 -7.7672e-08  -1.77316e-08 -1.77623e-08 -1.00996e-07  -6.38293e-08 -5.18755e-09 -1.233e-07  5.07524e-08 -4.62193e-08 -1.30966e-07  1.86494e-08 -5.78072e-08 -1.21382e-07  1.09341e-08 -8.16014e-08 -1.10011e-07  -2.37778e-09 -8.49428e-08 -1.08712e-07  4.08019e-09 -7.83869e-08 -1.11531e-07  6.37549e-09 -8.47126e-08 -1.08776e-07  3.89411e-10 -8.18342e-08 -1.10691e-07  -5.15739e-09 -6.38602e-08 -1.23317e-07  -4.28698e-08 -4.28955e-08 -1.31211e-07  
            </DataArray>
            <DataArray type="Float64" Name="Velocity" NumberOfComponents="3" format="ascii">
               1.06215e-07 1.06232e-07 -3.60151e-07  -5.0586e-09 1.72757e-07 -3.45771e-07  -1.46728e-08 2.07125e-07 -3.11678e-07  -7.38853e-09 2.1785e-07 -3.05594e-07  -1.35986e-08 2.06369e-07 -3.08415e-07  -1.04454e-08 2.19545e-07 -3.0399e-07  -3.9868e-08 2.11301e-07 -3.08562e-07  -4.40897e-08 1.43439e-07 -3.36189e-07  -1.15706e-07 1.39312e-07 -3.57606e-07  1.72742e-07 -4.81618e-09 -3.45838e-07  4.8173e-08 4.84263e-08 -2.85577e-07  1.57064e-08 5.77274e-08 -2.26205e-07  1.13267e-09 6.95159e-08 -2.17843e-07  -9.36162e-10 6.60015e-08 -2.20447e-07  -8.28957e-10 6.87997e-08 -2.16997e-07  -2.49193e-08 7.57286e-08 -2.24646e-07  -4.36996e-08 4.34408e-08 -2.87884e-07  -1.43789e-07 5.87787e-08 -3.35617e-07  2.06888e-07 -1.44763e-08 -3.11743e-07  5.7458e-08 1.58506e-08 -2.26217e-07  2.4783e-08 2.49941e-08 -1.34548e-07  -4.56756e-09 3.54654e-08 -1.21724e-07  -5.3196e-09 3.0679e-08 -1.23739e-07  -6.78357e-10 3.38095e-08 -1.2174e-07  -3.60572e-08 4.07502e-08 -1.31895e-07  -6.73117e-08 2.45484e-08 -2.25919e-07  -2.04018e-07 3.70861e-08 -3.07263e-07  2.17532e-07 -7.12915e-09 -3.05661e-07  6.92555e-08 1.30209e-09 -2.17849e-07  3.52344e-08 -4.35682e-09 -1.21738e-07  4.01277e-09 4.14487e-09 -1.05199e-07  1.51965e-10 -1.58189e-09 -1.06234e-07  -3.84681e-09 4.19819e-09 -1.05053e-07  -3.34498e-08 -1.1894e-09 -1.21117e-07  -6.71533e-08 1.83385e-09 -2.16996e-07  -2.17548e-07 -2.93462e-09 -3.04015e-07  2.06175e-07 -1.34043e-08 -3.08441e-07  6.57762e-08 -7.92926e-10 -2.20416e-07  3.04854e-08 -5.16007e-09 -1.23743e-07  -1.67851e-09 3.54375e-10 -1.06241e-07  1.32598e-09 1.45078e-09 -1.08534e-07  4.26216e-09 5.11719e-10 -1.05874e-07  -2.58143e-08 5.7299e-09 -1.23977e-07  -5.80556e-08 1.46002e-09 -2.19198e-07  -1.96868e-07 1.77963e-08 -3.07581e-07  2.1933e-07 -1.02535e-08 -3.0409e-07  6.8682e-08 -7.20452e-10 -2.17017e-07  3.3681e-08 -6.47459e-10 -1.21758e-07  4.09732e-09 -3.86414e-09 -1.05061e-07  4.2332e-10 4.29696e-09 -1.05871e-07  -4.14505e-09 -4.11208e-09 -1.04387e-07  -3.51978e-08 1.02251e-08 -1.21291e-07  -6.78061e-08 -3.1696e-09 -2.17359e-07  -2.16326e-07 2.27424e-08 -3.0449e-07  2.11295e-07 -3.96597e-08 -3.08754e-07  7.56444e-08 -2.48157e-08 -2.24671e-07  4.06544e-08 -3.59647e-08 -1.31959e-07  -1.25685e-09 -3.33831e-08 -1.21138e-07  5.67327e-09 -2.57365e-08 -1.23974e-07  1.01471e-08 -3.521e-08 -1.21293e-07  -2.00094e-08 -2.0013e-08 -1.33545e-07  -5.49947e-08 -1.66282e-08 -2.26801e-07  -2.0569e-07 1.56522e-08 -3.11463e-07  1.43672e-07 -4.42629e-08 -3.36398e-07  4.34437e-08 -4.37501e-08 -2.87819e-07  2.44581e-08 -6.72878e-08 -2.25939e-07  1.67898e-09 -6.72286e-08 -2.17022e-07  1.40287e-09 -5.80239e-08 -2.19189e-07  -3.30549e-09 -6.78175e-08 -2.17358e-07  -1.66653e-08 -5.49799e-08 -2.26794e-07  -4.73178e-08 -4.7228e-08 -2.86298e-07  -1.72155e-07 2.39423e-09 -3.4572e-07  1.39546e-07 -1.15964e-07 -3.58123e-07  5.87967e-08 -1.44018e-07 -3.35818e-07  3.69121e-08 -2.04038e-07 -3.07399e-07  -3.07614e-09 -2.17553e-07 -3.04053e-07  1.78009e-08 -1.9684e-07 -3.07551e-07  2.26936e-08 -2.16314e-07 -3.04492e-07  1.56377e-08 -2.05673e-07 -3.1149e-07  2.32936e-09 -1.72037e-07 -3.45763e-07  -1.0817e-07 -1.08044e-07 -3.5925e-07  
            </DataArray>
            <DataArray type="Float64" Name="Traction" NumberOfComponents="3" format="ascii">
               -5.2999e-07 -5.26548e-07 3.32232e-06  -1.46633e-07 -9.22355e-07 3.32232e-06  -3.53849e-08 -1.21652e-06 3.32232e-06  3.36738e-08 -1.24823e-06 3.32232e-06  -2.68152e-08 -1.19768e-06 3.32232e-06  -9.80091e-09 -1.24995e-06 3.32232e-06  2.27676e-07 -1.21841e-06 3.32232e-06  2.4161e-07 -8.061e-07 3.32232e-06  5.70178e-07 -6.15479e-07 3.32232e-06  -9.27589e-07 -1.43434e-07 3.32232e-06  -4.15224e-07 -4.09995e-07 3.32232e-06  -1.30943e-07 -5.96177e-07 3.32232e-06  1.38778e-09 -6.31156e-07 3.32232e-06  -6.51493e-08 -6.21049e-07 3.32232e-06  -2.24268e-08 -6.25668e-07 3.32232e-06  3.37756e-07 -6.3749e-07 3.32232e-06  3.80695e-07 -3.78079e-07 3.32232e-06  8.05289e-07 -2.74855e-07 3.32232e-06  -1.22265e-06 -3.26121e-08 3.32232e-06  -6.01614e-07 -1.2534e-07 3.32232e-06  -2.07745e-07 -2.01623e-07 3.32232e-06  1.82146e-08 -2.37152e-07 3.32232e-06  -6.13387e-08 -2.2844e-07 3.32232e-06  -1.62883e-08 -2.33046e-07 3.32232e-06  5.18888e-07 -2.28777e-07 3.32232e-06  6.16025e-07 -1.39328e-07 3.32232e-06  1.1948e-06 -1.28947e-07 3.32232e-06  -1.25573e-06 3.59635e-08 3.32232e-06  -6.37997e-07 6.40833e-09 3.32232e-06  -2.4359e-07 2.39548e-08 3.32232e-06  -1.19694e-08 -7.40664e-09 3.32232e-06  -8.02264e-08 1.00963e-08 3.32232e-06  2.8568e-09 -6.98405e-09 3.32232e-06  5.18693e-07 2.59711e-08 3.32232e-06  6.26324e-07 1.13617e-08 3.32232e-06  1.25145e-06 4.9502e-08 3.32232e-06  -1.20108e-06 -2.43417e-08 3.32232e-06  -6.23805e-07 -5.98561e-08 3.32232e-06  -2.32445e-07 -5.59467e-08 3.32232e-06  5.54696e-09 -7.67466e-08 3.32232e-06  -7.8954e-08 -7.47895e-08 3.32232e-06  -1.09788e-08 -7.68368e-08 3.32232e-06  4.95696e-07 -8.31799e-08 3.32232e-06  6.04528e-07 -5.78988e-08 3.32232e-06  1.18683e-06 -9.24458e-08 3.32232e-06  -1.2564e-06 -7.15592e-09 3.32232e-06  -6.31268e-07 -1.73041e-08 3.32232e-06  -2.37867e-07 -1.16959e-08 3.32232e-06  -1.11274e-08 5.47326e-09 3.32232e-06  -8.03318e-08 -8.28932e-09 3.32232e-06  6.08427e-09 8.41709e-09 3.32232e-06  5.26039e-07 -3.55234e-08 3.32232e-06  6.30075e-07 -1.42353e-09 3.32232e-06  1.24856e-06 -8.01957e-08 3.32232e-06  -1.22253e-06 2.30971e-07 3.32232e-06  -6.40293e-07 3.40104e-07 3.32232e-06  -2.31251e-07 5.2028e-07 3.32232e-06  2.23778e-08 5.20967e-07 3.32232e-06  -8.65585e-08 4.96524e-07 3.32232e-06  -3.81612e-08 5.28535e-07 3.32232e-06  4.80592e-07 4.82747e-07 3.32232e-06  5.92442e-07 3.02906e-07 3.32232e-06  1.21079e-06 1.35248e-07 3.32232e-06  -8.11584e-07 2.472e-07 3.32232e-06  -3.81918e-07 3.83692e-07 3.32232e-06  -1.43266e-07 6.16735e-07 3.32232e-06  6.20978e-09 6.28309e-07 3.32232e-06  -6.23584e-08 6.03495e-07 3.32232e-06  -4.80209e-09 6.31814e-07 3.32232e-06  3.00335e-07 5.93851e-07 3.32232e-06  3.98951e-07 4.01276e-07 3.32232e-06  9.08769e-07 1.43203e-07 3.32232e-06  -6.23832e-07 5.76783e-07 3.32232e-06  -2.8178e-07 8.10211e-07 3.32232e-06  -1.34248e-07 1.19631e-06 3.32232e-06  4.57944e-08 1.25294e-06 3.32232e-06  -9.53523e-08 1.1856e-06 3.32232e-06  -8.28255e-08 1.24971e-06 3.32232e-06  1.32675e-07 1.21209e-06 3.32232e-06  1.40129e-07 9.11188e-07 3.32232e-06  5.16567e-07 5.19833e-07 3.32232e-06  
            </DataArray>
         </PointData> 
      </Piece>
   </UnstructuredGrid> 
</VTKFile>
