<?xml version="1.0"?>
<VTKFile type="UnstructuredGrid" version="0.1" byte_order="LittleEndian">
   <UnstructuredGrid>
      <Piece NumberOfPoints="81" NumberOfCells="0" > 
         <Points> 
            <DataArray type="Float64" Name="Position" NumberOfComponents="3" format="ascii"> 
               0  0  15  
               0.375  0  15  
               0.75  0  15  
               1.125  0  15  
               1.5  0  15  
               1.875  0  15  
               2.25  0  15  
               2.625  0  15  
               3  0  15  
               0  0.375  15  
               0.375  0.375  15  
               0.75  0.375  15  
               1.125  0.375  15  
               1.5  0.375  15  
               1.875  0.375  15  
               2.25  0.375  15  
               2.625  0.375  15  
               3  0.375  15  
               0  0.75  15  
               0.375  0.75  15  
               0.75  0.75  15  
               1.125  0.75  15  
               1.5  0.75  15  
               1.875  0.75  15  
               2.25  0.75  15  
               2.625  0.75  15  
               3  0.75  15  
               0  1.125  15  
               0.375  1.125  15  
               0.75  1.125  15  
               1.125  1.125  15  
               1.5  1.125  15  
               1.875  1.125  15  
               2.25  1.125  15  
               2.625  1.125  15  
               3  1.125  15  
               0  1.5  15  
               0.375  1.5  15  
               0.75  1.5  15  
               1.125  1.5  15  
               1.5  1.5  15  
               1.875  1.5  15  
               2.25  1.5  15  
               2.625  1.5  15  
               3  1.5  15  
               0  1.875  15  
               0.375  1.875  15  
               0.75  1.875  15  
               1.125  1.875  15  
               1.5  1.875  15  
               1.875  1.875  15  
               2.25  1.875  15  
               2.625  1.875  15  
               3  1.875  15  
               0  2.25  15  
               0.375  2.25  15  
               0.75  2.25  15  
               1.125  2.25  15  
               1.5  2.25  15  
               1.875  2.25  15  
               2.25  2.25  15  
               2.625  2.25  15  
               3  2.25  15  
               0  2.625  15  
               0.375  2.625  15  
               0.75  2.625  15  
               1.125  2.625  15  
               1.5  2.625  15  
               1.875  2.625  15  
               2.25  2.625  15  
               2.625  2.625  15  
               3  2.625  15  
               0  3  15  
               0.375  3  15  
               0.75  3  15  
               1.125  3  15  
               1.5  3  15  
               1.875  3  15  
               2.25  3  15  
               2.625  3  15  
               3  3  15  
            </DataArray>
         </Points> 

         <Cells>
            <DataArray type="Int32" Name="connectivity" NumberOfComponents="1" format="ascii">
               
            </DataArray> 
            <DataArray type="Int32" Name="offsets" NumberOfComponents="1" format="ascii">
               
            </DataArray>
            <DataArray type="UInt8"  Name="types" NumberOfComponents="1" format="ascii">
               
            </DataArray>
         </Cells>
         <PointData Scalars="Rank " Vectors="Displacement Velocity Traction ">
            <DataArray type="UInt32" Name="Rank" NumberOfComponents="1" format="ascii">
               0 0 0 0 0 0 0 0 0 0 0 0 0 0 0 0 0 0 0 0 0 0 0 0 0 0 0 0 0 0 0 0 0 0 0 0 0 0 0 0 0 0 0 0 0 0 0 0 0 0 0 0 0 0 0 0 0 0 0 0 0 0 0 0 0 0 0 0 0 0 0 0 0 0 0 0 0 0 0 0 0 
            </DataArray>
            <DataArray type="Float64" Name="Displacement" NumberOfComponents="3" format="ascii">
               0.000917304 0.000784861 -0.0018504  0.000882652 0.000438694 -0.00194207  0.000752315 0.000288481 -0.00184886  0.000565635 0.000187746 -0.00181982  0.000380949 0.000178643 -0.00182008  0.000214945 0.000148653 -0.00177597  9.19968e-05 0.000216251 -0.00184095  1.46163e-05 0.000290041 -0.00192793  -1.0679e-05 0.000144418 -0.00167707  0.000564725 0.000750762 -0.00194275  0.000571514 0.00044869 -0.00196865  0.000487726 0.000346389 -0.00183592  0.000346216 0.000256229 -0.0018066  0.000183806 0.000248921 -0.00180909  1.89398e-05 0.000208427 -0.00177656  -0.000130893 0.000254779 -0.0018471  -0.000211605 0.000293514 -0.00202507  -0.000203504 0.000107939 -0.00189126  0.000401037 0.000622722 -0.00184941  0.000453205 0.000370583 -0.0018358  0.00039567 0.000295744 -0.00162516  0.000272482 0.000230372 -0.00156722  0.000133917 0.000218524 -0.00157477  -2.37805e-06 0.000183888 -0.00156121  -0.000121229 0.000209393 -0.00162842  -0.000166784 0.000213105 -0.00185135  -0.000122806 9.47968e-06 -0.00182802  0.000292625 0.000442314 -0.00182025  0.00035269 0.0002384 -0.00180635  0.000320278 0.000179165 -0.00156708  0.000224542 0.000138285 -0.00148395  0.00010532 0.000120361 -0.0014896  -1.2718e-05 8.8545e-05 -0.00148862  -0.000107979 8.97472e-05 -0.0015673  -0.000133207 6.49948e-05 -0.00178735  -7.38386e-05 -0.000126918 -0.00177698  0.000274197 0.000267988 -0.0018205  0.000333942 9.05586e-05 -0.00180885  0.000295695 4.86361e-05 -0.00157468  0.000194886 2.38028e-05 -0.00148966  7.96726e-05 4.01606e-06 -0.00149943  -3.29094e-05 -3.05706e-05 -0.00148948  -0.000127592 -4.68186e-05 -0.001572  -0.000154329 -9.89728e-05 -0.00180413  -8.67162e-05 -0.000288484 -0.00180426  0.000225158 0.000117086 -0.00177643  0.000274269 -5.81348e-05 -0.00177642  0.00024874 -8.23728e-05 -0.00156121  0.00016028 -9.25925e-05 -0.00148879  5.07125e-05 -0.000115214 -0.0014896  -5.80629e-05 -0.000152042 -0.00148051  -0.000146391 -0.000185946 -0.00156137  -0.000170683 -0.000262262 -0.00179523  -0.000100694 -0.000470487 -0.00179537  0.000289489 1.33062e-05 -0.00184137  0.000318216 -0.000192894 -0.00184695  0.000273461 -0.000200431 -0.0016283  0.000161732 -0.00018805 -0.00156731  3.78245e-05 -0.000219549 -0.00157199  -8.6019e-05 -0.000251051 -0.00156126  -0.00019713 -0.000310164 -0.00162441  -0.000246726 -0.000403908 -0.0018367  -0.000184699 -0.00067117 -0.00183425  0.000328355 -4.8023e-05 -0.00192813  0.000330389 -0.000264976 -0.00202491  0.000262402 -0.000250256 -0.00185121  0.000135387 -0.00021917 -0.00178724  -5.75635e-06 -0.000258835 -0.00180402  -0.000147801 -0.000286715 -0.00179502  -0.000274191 -0.000371226 -0.0018366  -0.000348116 -0.000487577 -0.00197383  -0.000335041 -0.000814893 -0.00193246  0.000188837 -6.73978e-05 -0.0016781  0.000159115 -0.000259401 -0.00189191  7.94569e-05 -0.000217782 -0.00182888  -3.35376e-05 -0.000172353 -0.00177792  -0.000174714 -0.000203509 -0.00180528  -0.000340873 -0.00022683 -0.00179633  -0.000530095 -0.000316393 -0.00183531  -0.000667941 -0.000478949 -0.0019336  -0.000704615 -0.000853023 -0.00183194  
            </DataArray>
            <DataArray type="Float64" Name="Velocity" NumberOfComponents="3" format="ascii">
               0.000417092 0.000398552 -0.00220289  0.000401125 0.000262537 -0.00228764  0.000345586 0.000178874 -0.0021688  0.000264744 0.00012072 -0.00213759  0.000179922 0.000107532 -0.00214152  0.000105442 9.21195e-05 -0.00209143  6.00166e-05 0.000142104 -0.00216078  4.23848e-05 0.000164396 -0.00226931  3.95989e-05 9.41513e-05 -0.0020188  0.000277441 0.000383156 -0.00228884  0.000280286 0.000267454 -0.00227968  0.000242694 0.000206472 -0.00210236  0.00017505 0.000157107 -0.00206811  9.46381e-05 0.000146779 -0.0020748  1.20043e-05 0.000124141 -0.00203574  -6.0899e-05 0.000158882 -0.00211441  -9.25774e-05 0.000166675 -0.00234098  -8.40086e-05 7.75009e-05 -0.00223069  0.000186522 0.000329302 -0.00217062  0.000210725 0.000233522 -0.0021027  0.000187869 0.000187881 -0.00182151  0.00013012 0.000154565 -0.00175407  6.53646e-05 0.000141899 -0.00176755  1.42735e-06 0.000123009 -0.00174799  -5.45051e-05 0.000142622 -0.00182432  -7.04056e-05 0.000135065 -0.00211895  -4.67803e-05 3.49374e-05 -0.00214754  0.000125063 0.000252187 -0.00213853  0.000156697 0.000171393 -0.00206787  0.000150076 0.000134269 -0.00175352  0.00010854 0.000115799 -0.00165847  5.24164e-05 0.000102164 -0.00166896  -2.63555e-06 8.28274e-05 -0.00166386  -4.23052e-05 8.50193e-05 -0.00175419  -4.34281e-05 6.41587e-05 -0.00204703  -1.1853e-05 -2.42446e-05 -0.0020934  0.000106819 0.000173349 -0.00214249  0.000140105 9.92546e-05 -0.00207463  0.000130468 7.46078e-05 -0.00176709  8.8423e-05 6.32677e-05 -0.00166911  3.9681e-05 5.41208e-05 -0.00168314  -6.94894e-06 2.71396e-05 -0.00166884  -4.47757e-05 2.15104e-05 -0.00176428  -4.63194e-05 -1.78146e-05 -0.00206922  -1.06658e-05 -8.96616e-05 -0.00212496  8.32041e-05 0.000107232 -0.00209286  0.000109354 2.57166e-05 -0.00203592  0.000106879 1.46275e-05 -0.00174769  6.90819e-05 1.04248e-05 -0.00166412  1.69877e-05 5.54367e-06 -0.00166903  -3.45031e-05 -2.93164e-05 -0.00165457  -7.20908e-05 -4.19082e-05 -0.00174737  -7.38333e-05 -9.87939e-05 -0.00205542  -3.73063e-05 -0.00016616 -0.00211115  0.000131063 7.20783e-05 -0.00216183  0.000142426 -3.88211e-05 -0.00211411  0.000125829 -3.95873e-05 -0.00182353  7.15544e-05 -2.80278e-05 -0.00175389  1.34981e-05 -3.57983e-05 -0.0017639  -4.34131e-05 -7.07585e-05 -0.00174685  -9.47899e-05 -9.87822e-05 -0.00182022  -0.000113822 -0.000165271 -0.00210293  -8.3938e-05 -0.000255215 -0.00215302  0.000136582 6.31294e-05 -0.00227099  0.000137742 -6.5418e-05 -0.00234103  0.000111732 -5.66635e-05 -0.00211868  5.0721e-05 -3.1043e-05 -0.0020473  -2.04182e-05 -4.26499e-05 -0.00206926  -9.13754e-05 -7.70655e-05 -0.00205528  -0.000150723 -0.000122991 -0.00210335  -0.000181963 -0.000201436 -0.0022852  -0.000175142 -0.000319423 -0.0022774  6.96989e-05 6.35803e-05 -0.00202353  5.61919e-05 -5.76788e-05 -0.00223284  2.24766e-05 -3.82911e-05 -0.00214889  -2.56079e-05 -5.22964e-06 -0.0020952  -8.12263e-05 -1.28175e-05 -0.00212655  -0.000149961 -4.52188e-05 -0.00211274  -0.000233335 -9.66501e-05 -0.0021556  -0.00029437 -0.000197182 -0.00227916  -0.000311395 -0.000337618 -0.00218293  
            </DataArray>
            <DataArray type="Float64" Name="Traction" NumberOfComponents="3" format="ascii">
               0.0212861 0.0207989 -0.0360501  0.0110945 0.0237607 -0.0360501  0.00492223 0.0246565 -0.0360501  0.00178313 0.02584 -0.0360501  -0.00229047 0.0261653 -0.0360501  -0.00473963 0.0262395 -0.0360501  -0.00673121 0.025679 -0.0360501  -0.0165801 0.0260301 -0.0360501  -0.0290158 0.0280963 -0.0360501  0.024347 0.0104723 -0.0360501  0.013441 0.012894 -0.0360501  0.00749306 0.0127056 -0.0360501  0.00374997 0.0131599 -0.0360501  -0.000433986 0.0131204 -0.0360501  -0.00300698 0.0134927 -0.0360501  -0.00419439 0.0130728 -0.0360501  -0.0135226 0.0134758 -0.0360501  -0.0264255 0.0162976 -0.0360501  0.0252399 0.00394955 -0.0360501  0.0130757 0.00679737 -0.0360501  0.00730096 0.00678385 -0.0360501  0.00392112 0.00678233 -0.0360501  -9.30369e-05 0.0066158 -0.0360501  -0.00314823 0.0070234 -0.0360501  -0.00439216 0.00686659 -0.0360501  -0.0131369 0.00654685 -0.0360501  -0.0258657 0.00830112 -0.0360501  0.0258726 0.000624499 -0.0360501  0.0131439 0.00297412 -0.0360501  0.00705142 0.00332325 -0.0360501  0.00374346 0.00328096 -0.0360501  -1.32968e-05 0.00315641 -0.0360501  -0.00307976 0.0033376 -0.0360501  -0.00466699 0.00329679 -0.0360501  -0.0133282 0.00320009 -0.0360501  -0.0262015 0.00491004 -0.0360501  0.0257364 -0.00294721 -0.0360501  0.0126608 -0.000902385 -0.0360501  0.00657692 -0.000372491 -0.0360501  0.00349316 -0.00039078 -0.0360501  -0.000223083 -0.000733523 -0.0360501  -0.00300558 -0.000608986 -0.0360501  -0.00439054 -0.000571098 -0.0360501  -0.013044 -0.000318964 -0.0360501  -0.0262678 0.00134286 -0.0360501  0.026035 -0.00482958 -0.0360501  0.0126002 -0.00283218 -0.0360501  0.00655014 -0.00281788 -0.0360501  0.00329626 -0.00311012 -0.0360501  -0.000222897 -0.00342133 -0.0360501  -0.00286049 -0.00340544 -0.0360501  -0.00418306 -0.00343389 -0.0360501  -0.0128207 -0.00315917 -0.0360501  -0.0260501 -0.00139958 -0.0360501  0.0249116 -0.00617203 -0.0360501  0.0114047 -0.00328074 -0.0360501  0.00581716 -0.00344432 -0.0360501  0.00289565 -0.00430652 -0.0360501  -0.000271983 -0.00447185 -0.0360501  -0.00273506 -0.00456968 -0.0360501  -0.00397439 -0.00461697 -0.0360501  -0.012166 -0.00510974 -0.0360501  -0.0249862 -0.0029124 -0.0360501  0.0260264 -0.0146067 -0.0360501  0.011618 -0.0117568 -0.0360501  0.00554201 -0.0115613 -0.0360501  0.00296257 -0.0125593 -0.0360501  0.000164116 -0.0127321 -0.0360501  -0.00229089 -0.0129344 -0.0360501  -0.00429421 -0.0126514 -0.0360501  -0.0121178 -0.0127767 -0.0360501  -0.0242997 -0.0101527 -0.0360501  0.0290974 -0.0301536 -0.0360501  0.014205 -0.026498 -0.0360501  0.0076354 -0.0251753 -0.0360501  0.00490081 -0.0259423 -0.0360501  0.00201349 -0.0256897 -0.0360501  -0.000121407 -0.0260712 -0.0360501  -0.00181973 -0.0256615 -0.0360501  -0.00939451 -0.0249789 -0.0360501  -0.021462 -0.0221087 -0.0360501  
            </DataArray>
         </PointData> 
      </Piece>
   </UnstructuredGrid> 
</VTKFile>
