<?xml version="1.0"?>
<VTKFile type="UnstructuredGrid" version="0.1" byte_order="LittleEndian">
   <UnstructuredGrid>
      <Piece NumberOfPoints="81" NumberOfCells="0" > 
         <Points> 
            <DataArray type="Float64" Name="Position" NumberOfComponents="3" format="ascii"> 
               0  0  20  
               0.375  0  20  
               0.75  0  20  
               1.125  0  20  
               1.5  0  20  
               1.875  0  20  
               2.25  0  20  
               2.625  0  20  
               3  0  20  
               0  0.375  20  
               0.375  0.375  20  
               0.75  0.375  20  
               1.125  0.375  20  
               1.5  0.375  20  
               1.875  0.375  20  
               2.25  0.375  20  
               2.625  0.375  20  
               3  0.375  20  
               0  0.75  20  
               0.375  0.75  20  
               0.75  0.75  20  
               1.125  0.75  20  
               1.5  0.75  20  
               1.875  0.75  20  
               2.25  0.75  20  
               2.625  0.75  20  
               3  0.75  20  
               0  1.125  20  
               0.375  1.125  20  
               0.75  1.125  20  
               1.125  1.125  20  
               1.5  1.125  20  
               1.875  1.125  20  
               2.25  1.125  20  
               2.625  1.125  20  
               3  1.125  20  
               0  1.5  20  
               0.375  1.5  20  
               0.75  1.5  20  
               1.125  1.5  20  
               1.5  1.5  20  
               1.875  1.5  20  
               2.25  1.5  20  
               2.625  1.5  20  
               3  1.5  20  
               0  1.875  20  
               0.375  1.875  20  
               0.75  1.875  20  
               1.125  1.875  20  
               1.5  1.875  20  
               1.875  1.875  20  
               2.25  1.875  20  
               2.625  1.875  20  
               3  1.875  20  
               0  2.25  20  
               0.375  2.25  20  
               0.75  2.25  20  
               1.125  2.25  20  
               1.5  2.25  20  
               1.875  2.25  20  
               2.25  2.25  20  
               2.625  2.25  20  
               3  2.25  20  
               0  2.625  20  
               0.375  2.625  20  
               0.75  2.625  20  
               1.125  2.625  20  
               1.5  2.625  20  
               1.875  2.625  20  
               2.25  2.625  20  
               2.625  2.625  20  
               3  2.625  20  
               0  3  20  
               0.375  3  20  
               0.75  3  20  
               1.125  3  20  
               1.5  3  20  
               1.875  3  20  
               2.25  3  20  
               2.625  3  20  
               3  3  20  
            </DataArray>
         </Points> 

         <Cells>
            <DataArray type="Int32" Name="connectivity" NumberOfComponents="1" format="ascii">
               
            </DataArray> 
            <DataArray type="Int32" Name="offsets" NumberOfComponents="1" format="ascii">
               
            </DataArray>
            <DataArray type="UInt8"  Name="types" NumberOfComponents="1" format="ascii">
               
            </DataArray>
         </Cells>
         <PointData Scalars="Rank " Vectors="Displacement Velocity Traction ">
            <DataArray type="UInt32" Name="Rank" NumberOfComponents="1" format="ascii">
               0 0 0 0 0 0 0 0 0 0 0 0 0 0 0 0 0 0 0 0 0 0 0 0 0 0 0 0 0 0 0 0 0 0 0 0 0 0 0 0 0 0 0 0 0 0 0 0 0 0 0 0 0 0 0 0 0 0 0 0 0 0 0 0 0 0 0 0 0 0 0 0 0 0 0 0 0 0 0 0 0 
            </DataArray>
            <DataArray type="Float64" Name="Displacement" NumberOfComponents="3" format="ascii">
               3.35881e-06 3.37822e-06 -1.18984e-05  1.11407e-06 4.55272e-06 -1.21279e-05  2.64081e-07 5.511e-06 -1.12581e-05  -7.26174e-08 5.59291e-06 -1.09144e-05  -3.53175e-07 5.59237e-06 -1.08846e-05  -8.65522e-07 5.77756e-06 -1.06628e-05  -1.70098e-06 5.37387e-06 -1.10984e-05  -1.40579e-06 3.73893e-06 -1.19972e-05  -2.52529e-06 3.88718e-06 -1.11987e-05  4.53695e-06 1.1303e-06 -1.21206e-05  1.97125e-06 1.98621e-06 -1.16061e-05  7.80689e-07 2.58684e-06 -1.03662e-05  2.18403e-07 2.71141e-06 -1.00601e-05  3.52767e-08 2.85844e-06 -1.00321e-05  -3.18501e-07 2.74352e-06 -9.88235e-06  -1.39753e-06 2.8362e-06 -1.03862e-05  -1.97026e-06 2.03875e-06 -1.19331e-05  -3.61837e-06 2.27877e-06 -1.18021e-05  5.49516e-06 2.77135e-07 -1.12551e-05  2.57422e-06 7.95527e-07 -1.0369e-05  1.20236e-06 1.21626e-06 -8.35918e-06  1.24624e-07 1.4879e-06 -7.83459e-06  -3.43758e-08 1.53131e-06 -7.83312e-06  -2.35034e-07 1.52525e-06 -7.77782e-06  -1.58713e-06 1.64951e-06 -8.3519e-06  -2.68768e-06 1.30859e-06 -1.04106e-05  -5.19904e-06 1.68563e-06 -1.10173e-05  5.57433e-06 -5.92866e-08 -1.09083e-05  2.69585e-06 2.32654e-07 -1.00614e-05  1.47321e-06 1.39983e-07 -7.83324e-06  3.86059e-07 4.01199e-07 -7.1158e-06  -5.32426e-09 3.35644e-07 -7.09857e-06  -3.69625e-07 4.50514e-07 -7.11042e-06  -1.45527e-06 3.67772e-07 -7.80236e-06  -2.6282e-06 4.03458e-07 -9.93411e-06  -5.60574e-06 5.63029e-07 -1.06486e-05  5.57521e-06 -3.40774e-07 -1.08782e-05  2.84292e-06 4.7182e-08 -1.0033e-05  1.51597e-06 -2.12621e-08 -7.83134e-06  3.19641e-07 8.01229e-09 -7.09828e-06  8.21488e-08 9.5766e-08 -7.12084e-06  -1.55562e-07 8.45722e-08 -7.09423e-06  -1.33902e-06 1.94918e-07 -7.82117e-06  -2.56047e-06 1.00815e-07 -1.00088e-05  -5.21372e-06 5.59338e-07 -1.07795e-05  5.75861e-06 -8.50388e-07 -1.0658e-05  2.72709e-06 -3.04639e-07 -9.88456e-06  1.50925e-06 -2.20181e-07 -7.77675e-06  4.34356e-07 -3.55087e-07 -7.11063e-06  7.13619e-08 -1.4093e-07 -7.09474e-06  -3.20853e-07 -3.07503e-07 -7.09323e-06  -1.43245e-06 5.65821e-08 -7.81064e-06  -2.60035e-06 -1.87164e-07 -1.00162e-05  -5.48354e-06 5.49106e-07 -1.07812e-05  5.35746e-06 -1.68529e-06 -1.10918e-05  2.82034e-06 -1.38199e-06 -1.03863e-05  1.63313e-06 -1.57099e-06 -8.3492e-06  3.52297e-07 -1.44145e-06 -7.80082e-06  1.8248e-07 -1.3257e-06 -7.81984e-06  4.37222e-08 -1.41966e-06 -7.80918e-06  -1.09714e-06 -1.08546e-06 -8.35431e-06  -2.47182e-06 -7.84667e-07 -1.03807e-05  -5.39884e-06 -2.22839e-07 -1.11936e-05  3.72469e-06 -1.3954e-06 -1.19938e-05  2.02381e-06 -1.95809e-06 -1.1935e-05  1.29289e-06 -2.6737e-06 -1.04108e-05  3.89659e-07 -2.61605e-06 -9.93621e-06  8.99221e-08 -2.54961e-06 -1.00105e-05  -1.98483e-07 -2.58931e-06 -1.00174e-05  -7.96601e-07 -2.46287e-06 -1.03834e-05  -1.90351e-06 -1.89354e-06 -1.16452e-05  -4.4347e-06 -1.1602e-06 -1.2096e-05  3.87277e-06 -2.51674e-06 -1.11954e-05  2.26521e-06 -3.60877e-06 -1.18016e-05  1.67052e-06 -5.18666e-06 -1.10132e-05  5.49269e-07 -5.59199e-06 -1.06467e-05  5.49168e-07 -5.20275e-06 -1.07779e-05  5.37498e-07 -5.47317e-06 -1.078e-05  -2.35186e-07 -5.38947e-06 -1.1195e-05  -1.17388e-06 -4.42633e-06 -1.20936e-05  -3.37955e-06 -3.36434e-06 -1.18282e-05  
            </DataArray>
            <DataArray type="Float64" Name="Velocity" NumberOfComponents="3" format="ascii">
               5.36159e-06 5.39245e-06 -1.92916e-05  1.94209e-06 7.20423e-06 -1.98234e-05  5.75306e-07 8.70517e-06 -1.85233e-05  -7.46549e-08 8.81033e-06 -1.79953e-05  -5.02283e-07 8.87601e-06 -1.79088e-05  -1.35161e-06 9.1302e-06 -1.75857e-05  -2.72407e-06 8.47752e-06 -1.82987e-05  -2.16881e-06 5.87655e-06 -1.96402e-05  -3.80036e-06 6.04037e-06 -1.80563e-05  7.15358e-06 1.96386e-06 -1.97885e-05  3.20404e-06 3.24064e-06 -1.91933e-05  1.39347e-06 4.17214e-06 -1.7326e-05  4.0037e-07 4.35664e-06 -1.68326e-05  8.27728e-08 4.61173e-06 -1.67452e-05  -4.96963e-07 4.40355e-06 -1.65401e-05  -2.34966e-06 4.58388e-06 -1.73701e-05  -3.1752e-06 3.33548e-06 -1.97607e-05  -5.62618e-06 3.65368e-06 -1.92912e-05  8.65951e-06 5.99962e-07 -1.84973e-05  4.14458e-06 1.42338e-06 -1.73291e-05  2.06839e-06 2.09441e-06 -1.42526e-05  2.74012e-07 2.49951e-06 -1.34147e-05  -2.85225e-08 2.56796e-06 -1.34027e-05  -3.71484e-07 2.5421e-06 -1.33335e-05  -2.667e-06 2.80293e-06 -1.42398e-05  -4.34851e-06 2.23559e-06 -1.73998e-05  -8.19846e-06 2.80219e-06 -1.81514e-05  8.76151e-06 -4.04489e-08 -1.79679e-05  4.32415e-06 4.33661e-07 -1.68352e-05  2.47419e-06 3.10505e-07 -1.34143e-05  6.74475e-07 7.07688e-07 -1.22788e-05  -4.04295e-09 6.32224e-07 -1.22366e-05  -6.00098e-07 7.82942e-07 -1.22985e-05  -2.39897e-06 7.08174e-07 -1.33857e-05  -4.21503e-06 7.19903e-07 -1.66422e-05  -8.86929e-06 1.01641e-06 -1.75776e-05  8.82876e-06 -4.71445e-07 -1.78785e-05  4.57973e-06 1.14367e-07 -1.67471e-05  2.54025e-06 6.35565e-09 -1.3401e-05  5.93853e-07 2.77381e-08 -1.2236e-05  1.51612e-07 1.89057e-07 -1.22341e-05  -2.78217e-07 1.49242e-07 -1.2235e-05  -2.23565e-06 3.62488e-07 -1.3374e-05  -4.12653e-06 2.13327e-07 -1.673e-05  -8.28217e-06 9.05603e-07 -1.77442e-05  9.07471e-06 -1.3156e-06 -1.75546e-05  4.36509e-06 -4.62944e-07 -1.65433e-05  2.51152e-06 -3.31996e-07 -1.33325e-05  7.42866e-07 -5.63994e-07 -1.22983e-05  1.11895e-07 -2.34007e-07 -1.22357e-05  -5.47378e-07 -5.05401e-07 -1.22609e-05  -2.39343e-06 7.02648e-08 -1.33761e-05  -4.1703e-06 -2.95931e-07 -1.6766e-05  -8.62639e-06 8.3404e-07 -1.77658e-05  8.43398e-06 -2.68442e-06 -1.8268e-05  4.55009e-06 -2.32317e-06 -1.73709e-05  2.77372e-06 -2.63583e-06 -1.42379e-05  6.68704e-07 -2.37069e-06 -1.33839e-05  3.23643e-07 -2.20208e-06 -1.33723e-05  2.56945e-08 -2.35617e-06 -1.33746e-05  -1.88621e-06 -1.85022e-06 -1.42494e-05  -3.97656e-06 -1.36738e-06 -1.73473e-05  -8.49797e-06 -5.07997e-07 -1.83988e-05  5.82843e-06 -2.12337e-06 -1.9615e-05  3.29984e-06 -3.14534e-06 -1.97653e-05  2.20589e-06 -4.31264e-06 -1.74023e-05  6.81988e-07 -4.17973e-06 -1.66476e-05  1.76785e-07 -4.09244e-06 -1.67364e-05  -3.35549e-07 -4.12903e-06 -1.67709e-05  -1.40604e-06 -3.94248e-06 -1.73531e-05  -3.09029e-06 -3.04984e-06 -1.92635e-05  -6.973e-06 -2.00341e-06 -1.97513e-05  5.98924e-06 -3.74066e-06 -1.79976e-05  3.6108e-06 -5.58666e-06 -1.92673e-05  2.76089e-06 -8.15267e-06 -1.81201e-05  9.75949e-07 -8.8134e-06 -1.75464e-05  8.65749e-07 -8.23201e-06 -1.77159e-05  7.86616e-07 -8.57002e-06 -1.77367e-05  -5.4198e-07 -8.44544e-06 -1.83767e-05  -2.03197e-06 -6.92356e-06 -1.9721e-05  -5.36492e-06 -5.32434e-06 -1.91207e-05  
            </DataArray>
            <DataArray type="Float64" Name="Traction" NumberOfComponents="3" format="ascii">
               -2.78261e-05 -2.78612e-05 -0.000249887  -1.38606e-05 -5.02973e-05 -0.000249887  -6.84019e-06 -6.27303e-05 -0.000249887  -7.96662e-07 -6.16213e-05 -0.000249887  -2.24174e-06 -6.1607e-05 -0.000249887  9.17531e-06 -6.29134e-05 -0.000249887  3.42606e-05 -5.76786e-05 -0.000249887  1.34532e-05 -3.1761e-05 -0.000249887  8.92627e-06 -2.59758e-05 -0.000249887  -5.02917e-05 -1.37612e-05 -0.000249887  -2.8774e-05 -2.86833e-05 -0.000249887  -1.17464e-05 -4.09599e-05 -0.000249887  -3.52681e-06 -4.29124e-05 -0.000249887  -5.49629e-06 -4.4267e-05 -0.000249887  4.09722e-06 -4.20159e-05 -0.000249887  3.75077e-05 -4.24086e-05 -0.000249887  2.65276e-05 -2.74087e-05 -0.000249887  2.82218e-05 -2.21294e-05 -0.000249887  -6.27537e-05 -6.76244e-06 -0.000249887  -4.1091e-05 -1.16772e-05 -0.000249887  -1.96927e-05 -1.95995e-05 -0.000249887  -3.23841e-06 -2.51671e-05 -0.000249887  -3.47324e-06 -2.59246e-05 -0.000249887  4.13203e-06 -2.45289e-05 -0.000249887  4.37131e-05 -2.43056e-05 -0.000249887  4.08835e-05 -1.94452e-05 -0.000249887  5.46874e-05 -2.1594e-05 -0.000249887  -6.15943e-05 -7.18112e-07 -0.000249887  -4.30103e-05 -3.46006e-06 -0.000249887  -2.52553e-05 -3.176e-06 -0.000249887  -6.96954e-06 -6.90351e-06 -0.000249887  -3.21203e-06 -5.86109e-06 -0.000249887  6.66913e-06 -6.8938e-06 -0.000249887  4.28385e-05 -5.0891e-06 -0.000249887  4.11474e-05 -4.63727e-06 -0.000249887  6.05361e-05 -4.98832e-06 -0.000249887  -6.15846e-05 -2.12609e-06 -0.000249887  -4.43547e-05 -5.37026e-06 -0.000249887  -2.60104e-05 -3.37198e-06 -0.000249887  -5.94843e-06 -3.10923e-06 -0.000249887  -4.77616e-06 -4.64491e-06 -0.000249887  4.45215e-06 -4.01203e-06 -0.000249887  4.23405e-05 -4.34692e-06 -0.000249887  4.12473e-05 -1.91985e-06 -0.000249887  5.70027e-05 -6.82351e-06 -0.000249887  -6.29135e-05 9.21373e-06 -0.000249887  -4.21502e-05 4.16442e-06 -0.000249887  -2.46453e-05 4.17045e-06 -0.000249887  -6.99149e-06 6.72524e-06 -0.000249887  -4.14522e-06 4.52781e-06 -0.000249887  6.43831e-06 6.52588e-06 -0.000249887  4.36953e-05 1.77517e-06 -0.000249887  4.17234e-05 3.91128e-06 -0.000249887  5.98099e-05 -3.6099e-06 -0.000249887  -5.76433e-05 3.43512e-05 -0.000249887  -4.24815e-05 3.75968e-05 -0.000249887  -2.43688e-05 4.37706e-05 -0.000249887  -5.1728e-06 4.29776e-05 -0.000249887  -4.47068e-06 4.24709e-05 -0.000249887  1.68751e-06 4.38421e-05 -0.000249887  3.72872e-05 3.74332e-05 -0.000249887  3.99348e-05 2.45799e-05 -0.000249887  6.08044e-05 1.68931e-05 -0.000249887  -3.18364e-05 1.35821e-05 -0.000249887  -2.75448e-05 2.66111e-05 -0.000249887  -1.95385e-05 4.08668e-05 -0.000249887  -4.74806e-06 4.12223e-05 -0.000249887  -2.05825e-06 4.1322e-05 -0.000249887  3.81554e-06 4.18327e-05 -0.000249887  2.44416e-05 4.00643e-05 -0.000249887  2.80598e-05 2.8168e-05 -0.000249887  4.83438e-05 1.48572e-05 -0.000249887  -2.60742e-05 9.03206e-06 -0.000249887  -2.22994e-05 2.82817e-05 -0.000249887  -2.16822e-05 5.45933e-05 -0.000249887  -5.07687e-06 6.0499e-05 -0.000249887  -6.96363e-06 5.70112e-05 -0.000249887  -3.70736e-06 5.98692e-05 -0.000249887  1.67234e-05 6.08896e-05 -0.000249887  1.47611e-05 4.84206e-05 -0.000249887  2.75903e-05 2.76067e-05 -0.000249887  
            </DataArray>
         </PointData> 
      </Piece>
   </UnstructuredGrid> 
</VTKFile>
