<?xml version="1.0"?>
<VTKFile type="UnstructuredGrid" version="0.1" byte_order="LittleEndian">
   <UnstructuredGrid>
      <Piece NumberOfPoints="81" NumberOfCells="0" > 
         <Points> 
            <DataArray type="Float64" Name="Position" NumberOfComponents="3" format="ascii"> 
               0  0  15  
               0.375  0  15  
               0.75  0  15  
               1.125  0  15  
               1.5  0  15  
               1.875  0  15  
               2.25  0  15  
               2.625  0  15  
               3  0  15  
               0  0.375  15  
               0.375  0.375  15  
               0.75  0.375  15  
               1.125  0.375  15  
               1.5  0.375  15  
               1.875  0.375  15  
               2.25  0.375  15  
               2.625  0.375  15  
               3  0.375  15  
               0  0.75  15  
               0.375  0.75  15  
               0.75  0.75  15  
               1.125  0.75  15  
               1.5  0.75  15  
               1.875  0.75  15  
               2.25  0.75  15  
               2.625  0.75  15  
               3  0.75  15  
               0  1.125  15  
               0.375  1.125  15  
               0.75  1.125  15  
               1.125  1.125  15  
               1.5  1.125  15  
               1.875  1.125  15  
               2.25  1.125  15  
               2.625  1.125  15  
               3  1.125  15  
               0  1.5  15  
               0.375  1.5  15  
               0.75  1.5  15  
               1.125  1.5  15  
               1.5  1.5  15  
               1.875  1.5  15  
               2.25  1.5  15  
               2.625  1.5  15  
               3  1.5  15  
               0  1.875  15  
               0.375  1.875  15  
               0.75  1.875  15  
               1.125  1.875  15  
               1.5  1.875  15  
               1.875  1.875  15  
               2.25  1.875  15  
               2.625  1.875  15  
               3  1.875  15  
               0  2.25  15  
               0.375  2.25  15  
               0.75  2.25  15  
               1.125  2.25  15  
               1.5  2.25  15  
               1.875  2.25  15  
               2.25  2.25  15  
               2.625  2.25  15  
               3  2.25  15  
               0  2.625  15  
               0.375  2.625  15  
               0.75  2.625  15  
               1.125  2.625  15  
               1.5  2.625  15  
               1.875  2.625  15  
               2.25  2.625  15  
               2.625  2.625  15  
               3  2.625  15  
               0  3  15  
               0.375  3  15  
               0.75  3  15  
               1.125  3  15  
               1.5  3  15  
               1.875  3  15  
               2.25  3  15  
               2.625  3  15  
               3  3  15  
            </DataArray>
         </Points> 

         <Cells>
            <DataArray type="Int32" Name="connectivity" NumberOfComponents="1" format="ascii">
               
            </DataArray> 
            <DataArray type="Int32" Name="offsets" NumberOfComponents="1" format="ascii">
               
            </DataArray>
            <DataArray type="UInt8"  Name="types" NumberOfComponents="1" format="ascii">
               
            </DataArray>
         </Cells>
         <PointData Scalars="Rank " Vectors="Displacement Velocity Traction ">
            <DataArray type="UInt32" Name="Rank" NumberOfComponents="1" format="ascii">
               0 0 0 0 0 0 0 0 0 0 0 0 0 0 0 0 0 0 0 0 0 0 0 0 0 0 0 0 0 0 0 0 0 0 0 0 0 0 0 0 0 0 0 0 0 0 0 0 0 0 0 0 0 0 0 0 0 0 0 0 0 0 0 0 0 0 0 0 0 0 0 0 0 0 0 0 0 0 0 0 0 
            </DataArray>
            <DataArray type="Float64" Name="Displacement" NumberOfComponents="3" format="ascii">
               0.000295043 0.00020251 -0.000264839  0.000284504 8.49668e-05 -0.000277212  0.000243339 4.64495e-05 -0.000262319  0.000185225 2.20913e-05 -0.000256561  0.000130327 2.9437e-05 -0.00025601  8.14676e-05 1.77036e-05 -0.000249879  4.41308e-05 3.4903e-05 -0.000260277  1.84588e-05 5.26853e-05 -0.000275224  9.32433e-06 4.94099e-06 -0.000241434  0.000175357 0.00019158 -0.000277178  0.000178391 8.68714e-05 -0.000279406  0.000153875 6.24159e-05 -0.000259027  0.000113269 3.96775e-05 -0.000253793  6.7991e-05 4.63333e-05 -0.00025353  2.1989e-05 3.25229e-05 -0.000249255  -2.14826e-05 4.48195e-05 -0.000260351  -4.69996e-05 5.27514e-05 -0.000287718  -4.59393e-05 -5.95854e-06 -0.000269902  0.000132535 0.000148555 -0.000262326  0.000150431 5.95769e-05 -0.000259052  0.00013309 4.17953e-05 -0.000226282  9.62579e-05 2.58176e-05 -0.000216526  5.51311e-05 2.99411e-05 -0.000216936  1.40433e-05 1.98995e-05 -0.000215387  -2.32381e-05 2.73422e-05 -0.00022663  -3.98593e-05 2.64473e-05 -0.000260982  -2.84767e-05 -3.57243e-05 -0.000258362  0.00010392 8.76572e-05 -0.000256527  0.000123892 1.49766e-05 -0.000253805  0.0001135 1.19687e-06 -0.00021651  8.40253e-05 -7.27192e-06 -0.000202672  4.83432e-05 -6.35161e-06 -0.000202885  1.18642e-05 -1.25871e-05 -0.00020307  -1.98563e-05 -1.12504e-05 -0.000216228  -3.20522e-05 -1.81712e-05 -0.000250772  -1.63768e-05 -7.71535e-05 -0.000249973  0.000111853 2.93977e-05 -0.000255967  0.000131299 -3.48897e-05 -0.000253539  0.000118351 -4.37845e-05 -0.000216914  8.5329e-05 -4.64862e-05 -0.000202885  4.69038e-05 -4.68661e-05 -0.000203956  7.52079e-06 -5.03097e-05 -0.000202866  -2.77145e-05 -5.39203e-05 -0.000216597  -4.29434e-05 -6.59963e-05 -0.000252853  -2.50341e-05 -0.000128626 -0.000253669  0.000106532 -2.33961e-05 -0.000249863  0.000123662 -8.51131e-05 -0.000249279  0.000112937 -8.76592e-05 -0.000215368  8.16625e-05 -8.51724e-05 -0.000203067  4.4159e-05 -8.6484e-05 -0.000202869  5.79543e-06 -8.7562e-05 -0.000202191  -2.70613e-05 -9.67694e-05 -0.000215786  -4.08328e-05 -0.000113827 -0.000252322  -2.15309e-05 -0.000187444 -0.000253128  0.000129592 -6.47791e-05 -0.000260261  0.000141501 -0.000131711 -0.000260352  0.000125437 -0.000126181 -0.000226599  8.76421e-05 -0.000117842 -0.000216213  4.43176e-05 -0.000120488 -0.000216583  -3.17283e-07 -0.000118897 -0.000215773  -4.07752e-05 -0.00013527 -0.00022619  -6.16199e-05 -0.000157089 -0.000259228  -4.34099e-05 -0.000252733 -0.00026042  0.000158049 -9.3788e-05 -0.000275261  0.000158802 -0.000158909 -0.00028773  0.000131983 -0.00014275 -0.000260981  8.59595e-05 -0.000129572 -0.000250806  3.58256e-05 -0.000133598 -0.000252882  -1.46897e-05 -0.000130598 -0.000252346  -6.02795e-05 -0.000154063 -0.000259264  -8.83786e-05 -0.000183489 -0.000280247  -8.55403e-05 -0.000299915 -0.000276071  0.000112432 -0.000104189 -0.000241613  0.00010072 -0.00015761 -0.00027  6.87426e-05 -0.000129877 -0.000258389  2.46648e-05 -0.000112085 -0.000250018  -2.91607e-05 -0.000113585 -0.000253697  -8.97982e-05 -0.000109306 -0.000253163  -0.000156509 -0.000134169 -0.000260497  -0.000204687 -0.000179729 -0.000276089  -0.00021724 -0.000312185 -0.000262498  
            </DataArray>
            <DataArray type="Float64" Name="Velocity" NumberOfComponents="3" format="ascii">
               0.000256034 0.000223601 -0.000308945  0.000245879 0.000126282 -0.000326238  0.000208476 7.89369e-05 -0.000310359  0.000155494 4.96775e-05 -0.000304739  0.000102716 4.64656e-05 -0.000304412  5.39084e-05 4.06114e-05 -0.000296899  1.51918e-05 5.86596e-05 -0.000308696  -1.14413e-05 8.74296e-05 -0.000323755  -2.06775e-05 4.91676e-05 -0.000279344  0.000158696 0.000213894 -0.000325835  0.000160186 0.000129402 -0.000332788  0.000135109 9.59515e-05 -0.000311503  9.37636e-05 6.92102e-05 -0.000305997  4.65937e-05 6.69319e-05 -0.000306038  -1.18407e-06 5.85366e-05 -0.000300781  -4.45063e-05 7.118e-05 -0.000313328  -6.88681e-05 8.87178e-05 -0.000342782  -6.70316e-05 3.8231e-05 -0.000317376  0.000109055 0.000177787 -0.000309928  0.000123378 0.000107378 -0.000311501  0.000106649 8.28838e-05 -0.000277761  7.16913e-05 6.238e-05 -0.000267162  3.21036e-05 5.9451e-05 -0.000268037  -6.34932e-06 5.15804e-05 -0.000266073  -3.90496e-05 5.87318e-05 -0.000278082  -5.15539e-05 6.45572e-05 -0.000314164  -3.83234e-05 8.42052e-06 -0.000306374  7.99666e-05 0.000127903 -0.000304339  9.53224e-05 7.11945e-05 -0.000306061  8.46882e-05 5.17908e-05 -0.000267229  5.7387e-05 3.77322e-05 -0.000252119  2.39052e-05 3.31574e-05 -0.000252763  -8.7068e-06 2.50083e-05 -0.000252942  -3.5316e-05 2.6147e-05 -0.000267072  -4.27397e-05 2.20443e-05 -0.000302649  -2.5461e-05 -3.21174e-05 -0.000297114  7.38641e-05 8.02586e-05 -0.000303994  8.88312e-05 3.22847e-05 -0.000306092  7.63505e-05 1.71177e-05 -0.000268081  4.75695e-05 7.59284e-06 -0.000252731  1.55651e-05 1.21449e-06 -0.000254289  -1.48616e-05 -7.86074e-06 -0.000252793  -3.98497e-05 -1.20572e-05 -0.000267552  -4.6555e-05 -2.44132e-05 -0.000305244  -2.72146e-05 -7.9313e-05 -0.000301817  5.6247e-05 3.93781e-05 -0.000296475  6.82918e-05 -6.16799e-06 -0.000300816  6.00816e-05 -1.79394e-05 -0.000266085  3.64701e-05 -2.3708e-05 -0.000252862  8.35879e-06 -3.27035e-05 -0.000252742  -1.9009e-05 -4.20089e-05 -0.000251577  -4.18518e-05 -5.14986e-05 -0.000266117  -4.81141e-05 -7.0514e-05 -0.000304136  -2.85086e-05 -0.000130952 -0.000300598  6.97577e-05 1.10918e-05 -0.000308291  7.68121e-05 -4.09034e-05 -0.000313392  6.40451e-05 -5.00717e-05 -0.000278162  3.48956e-05 -5.03991e-05 -0.000267099  3.04606e-06 -6.31925e-05 -0.000267585  -2.85957e-05 -7.04879e-05 -0.000266191  -5.71296e-05 -8.64077e-05 -0.000277504  -6.96813e-05 -0.000110585 -0.000311693  -5.21517e-05 -0.000186617 -0.000307862  7.37701e-05 -6.57117e-06 -0.000323432  7.41812e-05 -6.05205e-05 -0.00034288  5.63381e-05 -6.49961e-05 -0.000314226  2.46491e-05 -6.1199e-05 -0.000302711  -1.00155e-05 -7.69098e-05 -0.000305308  -4.53619e-05 -8.2634e-05 -0.000304228  -7.80656e-05 -0.000104387 -0.000311727  -9.77837e-05 -0.000134741 -0.000333846  -9.39142e-05 -0.000226548 -0.000324635  3.64629e-05 -1.24745e-05 -0.000278634  2.92811e-05 -6.01897e-05 -0.000317104  9.56805e-06 -5.81151e-05 -0.00030602  -1.89918e-05 -5.07231e-05 -0.00029675  -5.63722e-05 -6.39538e-05 -0.000301436  -0.000100929 -6.80877e-05 -0.000300251  -0.00015172 -9.02397e-05 -0.000307438  -0.000189251 -0.000132834 -0.0003242  -0.00019933 -0.000237155 -0.000305559  
            </DataArray>
            <DataArray type="Float64" Name="Traction" NumberOfComponents="3" format="ascii">
               0.00675283 0.0067293 -0.0158403  0.00344178 0.00815367 -0.0158403  0.00140048 0.00882163 -0.0158403  0.000366407 0.00920897 -0.0158403  -0.000468921 0.00924681 -0.0158403  -0.00117825 0.00953272 -0.0158403  -0.00219988 0.00926601 -0.0158403  -0.00471917 0.0090667 -0.0158403  -0.00969757 0.00974914 -0.0158403  0.00809207 0.00340929 -0.0158403  0.00431634 0.00436165 -0.0158403  0.00225692 0.00449056 -0.0158403  0.00104142 0.00464318 -0.0158403  7.61394e-05 0.00453331 -0.0158403  -0.000629527 0.00460919 -0.0158403  -0.00144621 0.00433292 -0.0158403  -0.00403501 0.00415891 -0.0158403  -0.00903081 0.00488377 -0.0158403  0.00873656 0.00134866 -0.0158403  0.00441564 0.00225697 -0.0158403  0.00232833 0.00235021 -0.0158403  0.00112019 0.00239002 -0.0158403  0.00014424 0.0022622 -0.0158403  -0.000679107 0.00228712 -0.0158403  -0.00161918 0.0020972 -0.0158403  -0.00427536 0.00194687 -0.0158403  -0.00928619 0.00267108 -0.0158403  0.00919515 0.00029525 -0.0158403  0.00460321 0.000983195 -0.0158403  0.00239479 0.00107469 -0.0158403  0.00113026 0.00107139 -0.0158403  0.000112995 0.000981666 -0.0158403  -0.000795775 0.000948245 -0.0158403  -0.00185815 0.000832236 -0.0158403  -0.00458266 0.000812024 -0.0158403  -0.00960528 0.00143297 -0.0158403  0.00930593 -0.000649857 -0.0158403  0.00455071 -8.52139e-05 -0.0158403  0.00231669 -1.91809e-05 -0.0158403  0.00105876 -1.92102e-05 -0.0158403  2.56206e-05 -7.96404e-05 -0.0158403  -0.00086852 -8.96532e-05 -0.0158403  -0.00190159 -0.000101859 -0.0158403  -0.00460773 -3.4045e-05 -0.0158403  -0.00946176 0.000564221 -0.0158403  0.00945264 -0.00144545 -0.0158403  0.00470768 -0.000904018 -0.0158403  0.00243015 -0.000960239 -0.0158403  0.00110335 -0.000987724 -0.0158403  4.41649e-05 -0.000984009 -0.0158403  -0.000889116 -0.000985133 -0.0158403  -0.00197046 -0.000929948 -0.0158403  -0.00470734 -0.000841815 -0.0158403  -0.0096037 -0.000116112 -0.0158403  0.00918071 -0.0024655 -0.0158403  0.00458352 -0.00177671 -0.0158403  0.00236576 -0.00194049 -0.0158403  0.00107508 -0.00205152 -0.0158403  6.42778e-05 -0.00200492 -0.0158403  -0.000845446 -0.00202031 -0.0158403  -0.00190104 -0.00192503 -0.0158403  -0.00454794 -0.00190547 -0.0158403  -0.00936632 -0.00103223 -0.0158403  0.00891179 -0.00505357 -0.0158403  0.00446313 -0.00437234 -0.0158403  0.00223766 -0.0045791 -0.0158403  0.00105613 -0.00473437 -0.0158403  0.000126798 -0.00467777 -0.0158403  -0.000753543 -0.00471269 -0.0158403  -0.0018693 -0.00451493 -0.0158403  -0.00438628 -0.00436868 -0.0158403  -0.00880712 -0.00333709 -0.0158403  0.00950145 -0.00944733 -0.0158403  0.00520639 -0.00886834 -0.0158403  0.00290781 -0.00919676 -0.0158403  0.00166628 -0.0094842 -0.0158403  0.000744359 -0.0094598 -0.0158403  -1.05178e-05 -0.00956938 -0.0158403  -0.000951483 -0.00928912 -0.0158403  -0.00328447 -0.0087482 -0.0158403  -0.00741555 -0.00745589 -0.0158403  
            </DataArray>
         </PointData> 
      </Piece>
   </UnstructuredGrid> 
</VTKFile>
