<?xml version="1.0"?>
<VTKFile type="UnstructuredGrid" version="0.1" byte_order="LittleEndian">
   <UnstructuredGrid>
      <Piece NumberOfPoints="81" NumberOfCells="0" > 
         <Points> 
            <DataArray type="Float64" Name="Position" NumberOfComponents="3" format="ascii"> 
               0  0  15  
               0.375  0  15  
               0.75  0  15  
               1.125  0  15  
               1.5  0  15  
               1.875  0  15  
               2.25  0  15  
               2.625  0  15  
               3  0  15  
               0  0.375  15  
               0.375  0.375  15  
               0.75  0.375  15  
               1.125  0.375  15  
               1.5  0.375  15  
               1.875  0.375  15  
               2.25  0.375  15  
               2.625  0.375  15  
               3  0.375  15  
               0  0.75  15  
               0.375  0.75  15  
               0.75  0.75  15  
               1.125  0.75  15  
               1.5  0.75  15  
               1.875  0.75  15  
               2.25  0.75  15  
               2.625  0.75  15  
               3  0.75  15  
               0  1.125  15  
               0.375  1.125  15  
               0.75  1.125  15  
               1.125  1.125  15  
               1.5  1.125  15  
               1.875  1.125  15  
               2.25  1.125  15  
               2.625  1.125  15  
               3  1.125  15  
               0  1.5  15  
               0.375  1.5  15  
               0.75  1.5  15  
               1.125  1.5  15  
               1.5  1.5  15  
               1.875  1.5  15  
               2.25  1.5  15  
               2.625  1.5  15  
               3  1.5  15  
               0  1.875  15  
               0.375  1.875  15  
               0.75  1.875  15  
               1.125  1.875  15  
               1.5  1.875  15  
               1.875  1.875  15  
               2.25  1.875  15  
               2.625  1.875  15  
               3  1.875  15  
               0  2.25  15  
               0.375  2.25  15  
               0.75  2.25  15  
               1.125  2.25  15  
               1.5  2.25  15  
               1.875  2.25  15  
               2.25  2.25  15  
               2.625  2.25  15  
               3  2.25  15  
               0  2.625  15  
               0.375  2.625  15  
               0.75  2.625  15  
               1.125  2.625  15  
               1.5  2.625  15  
               1.875  2.625  15  
               2.25  2.625  15  
               2.625  2.625  15  
               3  2.625  15  
               0  3  15  
               0.375  3  15  
               0.75  3  15  
               1.125  3  15  
               1.5  3  15  
               1.875  3  15  
               2.25  3  15  
               2.625  3  15  
               3  3  15  
            </DataArray>
         </Points> 

         <Cells>
            <DataArray type="Int32" Name="connectivity" NumberOfComponents="1" format="ascii">
               
            </DataArray> 
            <DataArray type="Int32" Name="offsets" NumberOfComponents="1" format="ascii">
               
            </DataArray>
            <DataArray type="UInt8"  Name="types" NumberOfComponents="1" format="ascii">
               
            </DataArray>
         </Cells>
         <PointData Scalars="Rank " Vectors="Displacement Velocity Traction ">
            <DataArray type="UInt32" Name="Rank" NumberOfComponents="1" format="ascii">
               0 0 0 0 0 0 0 0 0 0 0 0 0 0 0 0 0 0 0 0 0 0 0 0 0 0 0 0 0 0 0 0 0 0 0 0 0 0 0 0 0 0 0 0 0 0 0 0 0 0 0 0 0 0 0 0 0 0 0 0 0 0 0 0 0 0 0 0 0 0 0 0 0 0 0 0 0 0 0 0 0 
            </DataArray>
            <DataArray type="Float64" Name="Displacement" NumberOfComponents="3" format="ascii">
               0.000260503 0.000172597 -0.00022444  0.000251335 6.81873e-05 -0.000234583  0.000215212 3.60609e-05 -0.000221786  0.000164231 1.56206e-05 -0.000216766  0.000116433 2.33539e-05 -0.00021626  7.41461e-05 1.24061e-05 -0.000211108  4.20327e-05 2.71799e-05 -0.000219962  1.99645e-05 4.10599e-05 -0.000232911  1.20824e-05 -1.54004e-06 -0.000204879  0.000153937 0.000162978 -0.0002346  0.000156767 6.96775e-05 -0.000235948  0.000135631 4.97422e-05 -0.000218379  0.000100592 3.05894e-05 -0.00021387  6.16631e-05 3.75064e-05 -0.0002136  2.20946e-05 2.48165e-05 -0.000210016  -1.55367e-05 3.54102e-05 -0.000219465  -3.77623e-05 4.09566e-05 -0.000242959  -3.69465e-05 -1.09605e-05 -0.000228418  0.000117807 0.000124835 -0.000221845  0.000133761 4.53737e-05 -0.000218401  0.000118665 3.09035e-05 -0.000190095  8.65387e-05 1.76719e-05 -0.000181733  5.07436e-05 2.21435e-05 -0.000182023  1.48352e-05 1.31469e-05 -0.000180738  -1.80407e-05 1.96224e-05 -0.000190396  -3.29741e-05 1.7922e-05 -0.000219991  -2.33747e-05 -3.66989e-05 -0.000218343  9.30917e-05 7.0678e-05 -0.000216782  0.000110985 5.67966e-06 -0.000213874  0.000102021 -5.47716e-06 -0.00018171  7.62222e-05 -1.2074e-05 -0.000169857  4.50498e-05 -1.05845e-05 -0.00016998  1.29654e-05 -1.57425e-05 -0.000170152  -1.5162e-05 -1.45696e-05 -0.000181448  -2.63448e-05 -2.09594e-05 -0.00021129  -1.29949e-05 -7.26559e-05 -0.000211172  0.000101762 1.88582e-05 -0.00021627  0.000119182 -3.89129e-05 -0.000213601  0.000107919 -4.57602e-05 -0.000181997  7.87872e-05 -4.72093e-05 -0.000169983  4.46896e-05 -4.67768e-05 -0.000170847  9.42363e-06 -4.90259e-05 -0.000169957  -2.24238e-05 -5.20856e-05 -0.000181747  -3.6726e-05 -6.25209e-05 -0.000213025  -2.14173e-05 -0.000117752 -0.000214256  9.87568e-05 -2.83937e-05 -0.000211145  0.00011425 -8.39254e-05 -0.000210033  0.000104645 -8.48952e-05 -0.00018072  7.65762e-05 -8.16676e-05 -0.000170158  4.28839e-05 -8.18142e-05 -0.000169967  8.2347e-06 -8.16728e-05 -0.000169446  -2.15133e-05 -8.96183e-05 -0.000181129  -3.44116e-05 -0.000104138 -0.000212643  -1.77444e-05 -0.000169593 -0.00021387  0.000119954 -6.59171e-05 -0.000219996  0.000130897 -0.000125813 -0.000219457  0.000116569 -0.00011908 -0.000190358  8.27273e-05 -0.000110728 -0.000181431  4.37232e-05 -0.000111703 -0.000181731  3.38744e-06 -0.000109168 -0.000181108  -3.31887e-05 -0.000123416 -0.000190031  -5.23155e-05 -0.000141992 -0.000218555  -3.64678e-05 -0.00022736 -0.000220209  0.000147815 -9.24964e-05 -0.000232985  0.000148514 -0.000150342 -0.000242957  0.000124131 -0.000133636 -0.000219983  8.24166e-05 -0.000120998 -0.000211315  3.6992e-05 -0.000122963 -0.000213044  -8.71999e-06 -0.000119235 -0.000212654  -4.98577e-05 -0.000139793 -0.000218585  -7.52644e-05 -0.000165127 -0.000236651  -7.29424e-05 -0.000269139 -0.000233643  0.00010725 -0.000102081 -0.000205138  9.65197e-05 -0.000149085 -0.000228547  6.72355e-05 -0.000121707 -0.000218416  2.70506e-05 -0.00010494 -0.000211262  -2.16879e-05 -0.000104714 -0.000214333  -7.62728e-05 -9.99211e-05 -0.00021395  -0.000136091 -0.000121829 -0.000220336  -0.000179172 -0.00016163 -0.000233717  -0.000190356 -0.000279973 -0.000222537  
            </DataArray>
            <DataArray type="Float64" Name="Velocity" NumberOfComponents="3" format="ascii">
               0.000235977 0.00020222 -0.000266109  0.000226616 0.000112455 -0.000280525  0.000192208 6.88329e-05 -0.000266599  0.000143593 4.23345e-05 -0.000261703  9.52442e-05 4.00557e-05 -0.000261368  5.04447e-05 3.47082e-05 -0.000254946  1.47648e-05 5.11883e-05 -0.000265144  -9.93342e-06 7.80004e-05 -0.000278517  -1.85366e-05 4.29728e-05 -0.000240973  0.000146408 0.000193254 -0.000280199  0.000147829 0.000115227 -0.000285745  0.00012478 8.43527e-05 -0.000267031  8.68307e-05 6.00697e-05 -0.000262225  4.35802e-05 5.86563e-05 -0.000262263  -2.70874e-07 5.10849e-05 -0.000257699  -4.01301e-05 6.26776e-05 -0.000268597  -6.26516e-05 7.91213e-05 -0.000294275  -6.10107e-05 3.28432e-05 -0.000273095  0.000100788 0.000159814 -0.000266305  0.000114144 9.46346e-05 -0.000267062  9.88861e-05 7.2014e-05 -0.000237235  6.68142e-05 5.3449e-05 -0.000228016  3.04606e-05 5.14503e-05 -0.000228817  -4.866e-06 4.44369e-05 -0.000227036  -3.49288e-05 5.10535e-05 -0.000237597  -4.64807e-05 5.67116e-05 -0.000269245  -3.43225e-05 5.29206e-06 -0.000263266  7.43338e-05 0.000113668 -0.000261392  8.85993e-05 6.09074e-05 -0.000262282  7.89076e-05 4.29972e-05 -0.000228038  5.38356e-05 3.04386e-05 -0.000214921  2.30781e-05 2.69397e-05 -0.000215522  -6.91829e-06 1.97565e-05 -0.000215559  -3.15059e-05 2.09462e-05 -0.000227917  -3.85288e-05 1.7506e-05 -0.000259284  -2.2687e-05 -3.21205e-05 -0.000255169  7.00004e-05 6.95666e-05 -0.000261042  8.3912e-05 2.46598e-05 -0.000262316  7.23954e-05 1.07102e-05 -0.000228824  4.57484e-05 2.44519e-06 -0.000215507  1.60869e-05 -2.71058e-06 -0.000216862  -1.21634e-05 -1.06187e-05 -0.000215544  -3.54665e-05 -1.42737e-05 -0.000228401  -4.19935e-05 -2.52575e-05 -0.000261603  -2.42955e-05 -7.57725e-05 -0.000259155  5.4705e-05 3.14727e-05 -0.000254635  6.59843e-05 -1.1157e-05 -0.000257754  5.82406e-05 -2.17796e-05 -0.000227023  3.61564e-05 -2.65044e-05 -0.000215509  9.9445e-06 -3.40541e-05 -0.000215512  -1.56395e-05 -4.20757e-05 -0.000214451  -3.71177e-05 -5.05666e-05 -0.000227129  -4.33289e-05 -6.76672e-05 -0.000260612  -2.54109e-05 -0.000123555 -0.000258187  6.77677e-05 4.73037e-06 -0.000264833  7.44968e-05 -4.35658e-05 -0.000268641  6.25237e-05 -5.14591e-05 -0.000237608  3.53329e-05 -5.12282e-05 -0.000227921  5.59176e-06 -6.21858e-05 -0.000228402  -2.40584e-05 -6.82912e-05 -0.000227157  -5.08644e-05 -8.26597e-05 -0.000237093  -6.28122e-05 -0.000104644 -0.000267181  -4.66919e-05 -0.000175075 -0.00026452  7.23579e-05 -1.22659e-05 -0.000278322  7.27335e-05 -6.19934e-05 -0.000294375  5.58383e-05 -6.51984e-05 -0.000269286  2.60899e-05 -6.12328e-05 -0.000259367  -6.38494e-06 -7.48171e-05 -0.000261672  -3.95139e-05 -7.94292e-05 -0.000260695  -7.02785e-05 -9.90885e-05 -0.000267244  -8.89506e-05 -0.000127003 -0.000286653  -8.5474e-05 -0.000212101 -0.000279255  3.76657e-05 -1.80119e-05 -0.000240563  3.08462e-05 -6.17097e-05 -0.000272941  1.21576e-05 -5.86188e-05 -0.000262979  -1.47902e-05 -5.13326e-05 -0.000254904  -4.99353e-05 -6.26238e-05 -0.000258851  -9.16559e-05 -6.57724e-05 -0.000257918  -0.000139104 -8.57249e-05 -0.000264251  -0.000174195 -0.000125149 -0.000278913  -0.000183619 -0.000221963 -0.000263288  
            </DataArray>
            <DataArray type="Float64" Name="Traction" NumberOfComponents="3" format="ascii">
               0.00597264 0.00596516 -0.0142516  0.00299268 0.00723992 -0.0142516  0.00121186 0.00784428 -0.0142516  0.000306731 0.00820572 -0.0142516  -0.000394697 0.00822989 -0.0142516  -0.000998136 0.00851192 -0.0142516  -0.00190467 0.00825628 -0.0142516  -0.00407771 0.00809088 -0.0142516  -0.00867195 0.00873689 -0.0142516  0.00716543 0.00297933 -0.0142516  0.00377579 0.00383283 -0.0142516  0.00196243 0.00395921 -0.0142516  0.000901639 0.00410999 -0.0142516  8.39221e-05 0.00400764 -0.0142516  -0.000508044 0.00406278 -0.0142516  -0.00122428 0.00378355 -0.0142516  -0.00349133 0.00360815 -0.0142516  -0.00805789 0.00424041 -0.0142516  0.00774612 0.0011957 -0.0142516  0.00388197 0.00198486 -0.0142516  0.00203567 0.00207036 -0.0142516  0.000974173 0.00211545 -0.0142516  0.000143942 0.00199727 -0.0142516  -0.000551786 0.00200252 -0.0142516  -0.00138549 0.00180639 -0.0142516  -0.00373146 0.0016698 -0.0142516  -0.00828256 0.00233398 -0.0142516  0.00820925 0.000287899 -0.0142516  0.00408717 0.000873916 -0.0142516  0.00212072 0.000947709 -0.0142516  0.000996419 0.000947916 -0.0142516  0.000111035 0.000866207 -0.0142516  -0.000677946 0.000820429 -0.0142516  -0.00162966 0.000699486 -0.0142516  -0.00404793 0.000685886 -0.0142516  -0.00859513 0.00124889 -0.0142516  0.00833433 -0.000557924 -0.0142516  0.00406959 -6.94263e-05 -0.0142516  0.0020739 -2.62556e-05 -0.0142516  0.000942913 -1.88399e-05 -0.0142516  2.85347e-05 -6.36747e-05 -0.0142516  -0.000763429 -7.90275e-05 -0.0142516  -0.00169358 -9.5024e-05 -0.0142516  -0.00409428 -3.01734e-05 -0.0142516  -0.00845028 0.000508207 -0.0142516  0.00844521 -0.00128712 -0.0142516  0.004239 -0.000824637 -0.0142516  0.00220271 -0.000888848 -0.0142516  0.00100677 -0.000894425 -0.0142516  5.2238e-05 -0.000871364 -0.0142516  -0.000790062 -0.00086916 -0.0142516  -0.00177242 -0.000814132 -0.0142516  -0.00420498 -0.000731432 -0.0142516  -0.00859787 -7.24546e-05 -0.0142516  0.00822365 -0.00223313 -0.0142516  0.00417681 -0.0016487 -0.0142516  0.00218021 -0.00180311 -0.0142516  0.00100473 -0.00186996 -0.0142516  7.77168e-05 -0.00180823 -0.0142516  -0.00075538 -0.00181304 -0.0142516  -0.00171626 -0.00171797 -0.0142516  -0.00407162 -0.00169138 -0.0142516  -0.00839782 -0.000908864 -0.0142516  0.00792605 -0.0045838 -0.0142516  0.00407024 -0.00397897 -0.0142516  0.00206038 -0.00416721 -0.0142516  0.000976882 -0.00426477 -0.0142516  0.000122493 -0.00419479 -0.0142516  -0.000679687 -0.00421488 -0.0142516  -0.00168569 -0.00402455 -0.0142516  -0.00392195 -0.00388348 -0.0142516  -0.00787849 -0.00296203 -0.0142516  0.0083916 -0.00832135 -0.0142516  0.0047379 -0.00787677 -0.0142516  0.00263807 -0.00823315 -0.0142516  0.00151067 -0.0084831 -0.0142516  0.000671214 -0.00849629 -0.0142516  -2.64071e-05 -0.00857613 -0.0142516  -0.000870596 -0.00829445 -0.0142516  -0.00293194 -0.00779642 -0.0142516  -0.0066099 -0.00663202 -0.0142516  
            </DataArray>
         </PointData> 
      </Piece>
   </UnstructuredGrid> 
</VTKFile>
