<?xml version="1.0"?>
<VTKFile type="UnstructuredGrid" version="0.1" byte_order="LittleEndian">
   <UnstructuredGrid>
      <Piece NumberOfPoints="81" NumberOfCells="0" > 
         <Points> 
            <DataArray type="Float64" Name="Position" NumberOfComponents="3" format="ascii"> 
               0  0  15  
               0.375  0  15  
               0.75  0  15  
               1.125  0  15  
               1.5  0  15  
               1.875  0  15  
               2.25  0  15  
               2.625  0  15  
               3  0  15  
               0  0.375  15  
               0.375  0.375  15  
               0.75  0.375  15  
               1.125  0.375  15  
               1.5  0.375  15  
               1.875  0.375  15  
               2.25  0.375  15  
               2.625  0.375  15  
               3  0.375  15  
               0  0.75  15  
               0.375  0.75  15  
               0.75  0.75  15  
               1.125  0.75  15  
               1.5  0.75  15  
               1.875  0.75  15  
               2.25  0.75  15  
               2.625  0.75  15  
               3  0.75  15  
               0  1.125  15  
               0.375  1.125  15  
               0.75  1.125  15  
               1.125  1.125  15  
               1.5  1.125  15  
               1.875  1.125  15  
               2.25  1.125  15  
               2.625  1.125  15  
               3  1.125  15  
               0  1.5  15  
               0.375  1.5  15  
               0.75  1.5  15  
               1.125  1.5  15  
               1.5  1.5  15  
               1.875  1.5  15  
               2.25  1.5  15  
               2.625  1.5  15  
               3  1.5  15  
               0  1.875  15  
               0.375  1.875  15  
               0.75  1.875  15  
               1.125  1.875  15  
               1.5  1.875  15  
               1.875  1.875  15  
               2.25  1.875  15  
               2.625  1.875  15  
               3  1.875  15  
               0  2.25  15  
               0.375  2.25  15  
               0.75  2.25  15  
               1.125  2.25  15  
               1.5  2.25  15  
               1.875  2.25  15  
               2.25  2.25  15  
               2.625  2.25  15  
               3  2.25  15  
               0  2.625  15  
               0.375  2.625  15  
               0.75  2.625  15  
               1.125  2.625  15  
               1.5  2.625  15  
               1.875  2.625  15  
               2.25  2.625  15  
               2.625  2.625  15  
               3  2.625  15  
               0  3  15  
               0.375  3  15  
               0.75  3  15  
               1.125  3  15  
               1.5  3  15  
               1.875  3  15  
               2.25  3  15  
               2.625  3  15  
               3  3  15  
            </DataArray>
         </Points> 

         <Cells>
            <DataArray type="Int32" Name="connectivity" NumberOfComponents="1" format="ascii">
               
            </DataArray> 
            <DataArray type="Int32" Name="offsets" NumberOfComponents="1" format="ascii">
               
            </DataArray>
            <DataArray type="UInt8"  Name="types" NumberOfComponents="1" format="ascii">
               
            </DataArray>
         </Cells>
         <PointData Scalars="Rank " Vectors="Displacement Velocity Traction ">
            <DataArray type="UInt32" Name="Rank" NumberOfComponents="1" format="ascii">
               0 0 0 0 0 0 0 0 0 0 0 0 0 0 0 0 0 0 0 0 0 0 0 0 0 0 0 0 0 0 0 0 0 0 0 0 0 0 0 0 0 0 0 0 0 0 0 0 0 0 0 0 0 0 0 0 0 0 0 0 0 0 0 0 0 0 0 0 0 0 0 0 0 0 0 0 0 0 0 0 0 
            </DataArray>
            <DataArray type="Float64" Name="Displacement" NumberOfComponents="3" format="ascii">
               0 0 0  0 0 0  0 0 0  0 0 0  0 0 0  0 0 0  0 0 0  0 0 0  0 0 0  0 0 0  0 0 0  0 0 0  0 0 0  0 0 0  0 0 0  0 0 0  0 0 0  0 0 0  0 0 0  0 0 0  0 0 0  0 0 0  0 0 0  0 0 0  0 0 0  0 0 0  0 0 0  0 0 0  0 0 0  0 0 0  0 0 0  0 0 0  0 0 0  0 0 0  0 0 0  0 0 0  0 0 0  0 0 0  0 0 0  0 0 0  0 0 0  0 0 0  0 0 0  0 0 0  0 0 0  0 0 0  0 0 0  0 0 0  0 0 0  0 0 0  0 0 0  0 0 0  0 0 0  0 0 0  0 0 0  0 0 0  0 0 0  0 0 0  0 0 0  0 0 0  0 0 0  0 0 0  0 0 0  0 0 0  0 0 0  0 0 0  0 0 0  0 0 0  0 0 0  0 0 0  0 0 0  0 0 0  0 0 0  0 0 0  0 0 0  0 0 0  0 0 0  0 0 0  0 0 0  0 0 0  0 0 0  
            </DataArray>
            <DataArray type="Float64" Name="Velocity" NumberOfComponents="3" format="ascii">
               0 0 0  0 0 0  0 0 0  0 0 0  0 0 0  0 0 0  0 0 0  0 0 0  0 0 0  0 0 0  0 0 0  0 0 0  0 0 0  0 0 0  0 0 0  0 0 0  0 0 0  0 0 0  0 0 0  0 0 0  0 0 0  0 0 0  0 0 0  0 0 0  0 0 0  0 0 0  0 0 0  0 0 0  0 0 0  0 0 0  0 0 0  0 0 0  0 0 0  0 0 0  0 0 0  0 0 0  0 0 0  0 0 0  0 0 0  0 0 0  0 0 0  0 0 0  0 0 0  0 0 0  0 0 0  0 0 0  0 0 0  0 0 0  0 0 0  0 0 0  0 0 0  0 0 0  0 0 0  0 0 0  0 0 0  0 0 0  0 0 0  0 0 0  0 0 0  0 0 0  0 0 0  0 0 0  0 0 0  0 0 0  0 0 0  0 0 0  0 0 0  0 0 0  0 0 0  0 0 0  0 0 0  0 0 0  0 0 0  0 0 0  0 0 0  0 0 0  0 0 0  0 0 0  0 0 0  0 0 0  0 0 0  
            </DataArray>
            <DataArray type="Float64" Name="Traction" NumberOfComponents="3" format="ascii">
               1.94991e-06 2.85773e-06 -2.22268e-06  -3.05838e-06 -6.04007e-07 -2.22268e-06  -2.56389e-07 -3.57111e-06 -2.22268e-06  1.7208e-06 1.86499e-06 -2.22268e-06  -2.12626e-07 5.72934e-06 -2.22268e-06  -1.8795e-06 1.54982e-06 -2.22268e-06  -1.44124e-07 -3.10047e-06 -2.22268e-06  1.14306e-06 3.43679e-07 -2.22268e-06  -3.6949e-06 4.05562e-06 -2.22268e-06  -4.13687e-08 -1.71317e-06 -2.22268e-06  -1.27561e-06 -3.90589e-07 -2.22268e-06  -5.01041e-07 7.8258e-07 -2.22268e-06  3.40698e-07 5.0728e-07 -2.22268e-06  1.30993e-08 -2.09014e-07 -2.22268e-06  -4.06495e-07 2.98432e-07 -2.22268e-06  8.00343e-08 6.8199e-07 -2.22268e-06  6.67913e-08 5.13195e-07 -2.22268e-06  -2.4196e-06 -2.05852e-07 -2.22268e-06  -1.70376e-06 4.70823e-07 -2.22268e-06  1.87813e-07 1.14388e-07 -2.22268e-06  -1.13285e-07 3.12325e-07 -2.22268e-06  2.55381e-07 3.84008e-07 -2.22268e-06  1.10014e-07 3.9594e-07 -2.22268e-06  -1.75704e-07 4.33777e-07 -2.22268e-06  3.69483e-08 3.65054e-07 -2.22268e-06  -2.92972e-08 2.94084e-07 -2.22268e-06  -9.19858e-07 2.97587e-07 -2.22268e-06  8.78049e-07 9.18073e-07 -2.22268e-06  7.89413e-07 3.98949e-07 -2.22268e-06  1.78537e-07 4.75722e-07 -2.22268e-06  3.56773e-07 7.89682e-07 -2.22268e-06  2.01094e-07 1.11104e-06 -2.22268e-06  -2.54678e-07 8.36437e-07 -2.22268e-06  -2.36902e-07 3.99273e-07 -2.22268e-06  -4.75865e-07 2.40487e-07 -2.22268e-06  -1.54668e-06 4.39298e-07 -2.22268e-06  1.68084e-06 -2.541e-07 -2.22268e-06  6.92151e-07 1.6652e-07 -2.22268e-06  4.71865e-07 4.0021e-07 -2.22268e-06  7.57467e-07 6.33332e-07 -2.22268e-06  2.35427e-07 7.16077e-07 -2.22268e-06  -6.54029e-07 7.53351e-07 -2.22268e-06  -6.19626e-07 6.05105e-07 -2.22268e-06  -7.02243e-07 2.80182e-07 -2.22268e-06  -1.61582e-06 1.3248e-07 -2.22268e-06  3.40256e-07 -5.44944e-07 -2.22268e-06  9.55788e-07 -1.73072e-07 -2.22268e-06  6.22639e-07 4.21536e-08 -2.22268e-06  5.77534e-07 -8.9504e-08 -2.22268e-06  3.08933e-07 -4.07565e-07 -2.22268e-06  -3.07946e-07 3.40221e-09 -2.22268e-06  -7.80804e-07 3.52054e-07 -2.22268e-06  -1.14127e-06 6.37808e-08 -2.22268e-06  -1.98563e-06 1.51133e-09 -2.22268e-06  -6.38489e-07 -3.54376e-07 -2.22268e-06  1.24999e-06 -3.69993e-07 -2.22268e-06  6.23723e-07 -2.43769e-07 -2.22268e-06  2.12504e-07 -3.31891e-07 -2.22268e-06  2.91811e-07 -5.71311e-07 -2.22268e-06  9.79091e-08 -5.84607e-07 -2.22268e-06  -7.13931e-07 -4.28409e-07 -2.22268e-06  -1.37187e-06 -4.10521e-07 -2.22268e-06  -2.24579e-06 -3.27048e-07 -2.22268e-06  7.35968e-07 -7.49113e-07 -2.22268e-06  1.20473e-06 -1.00377e-06 -2.22268e-06  5.22927e-07 -8.48762e-07 -2.22268e-06  1.59866e-07 -8.68832e-07 -2.22268e-06  6.11608e-08 -1.06925e-06 -2.22268e-06  -2.17739e-07 -1.446e-06 -2.22268e-06  -7.68193e-07 -1.28411e-06 -2.22268e-06  -1.34831e-06 -9.72447e-07 -2.22268e-06  -3.49623e-06 -5.6534e-07 -2.22268e-06  2.20911e-06 -2.4264e-06 -2.22268e-06  8.31441e-07 -1.64934e-06 -2.22268e-06  5.31821e-07 -1.14175e-06 -2.22268e-06  6.29644e-07 -1.96668e-06 -2.22268e-06  3.36766e-07 -3.22171e-06 -2.22268e-06  -7.5882e-07 -3.44761e-06 -2.22268e-06  -1.31102e-06 -2.42831e-06 -2.22268e-06  -1.04058e-06 -3.03208e-06 -2.22268e-06  -4.89069e-06 -4.65667e-06 -2.22268e-06  
            </DataArray>
         </PointData> 
      </Piece>
   </UnstructuredGrid> 
</VTKFile>
