<?xml version="1.0"?>
<VTKFile type="UnstructuredGrid" version="0.1" byte_order="LittleEndian">
   <UnstructuredGrid>
      <Piece NumberOfPoints="81" NumberOfCells="0" > 
         <Points> 
            <DataArray type="Float64" Name="Position" NumberOfComponents="3" format="ascii"> 
               0  0  15  
               0.375  0  15  
               0.75  0  15  
               1.125  0  15  
               1.5  0  15  
               1.875  0  15  
               2.25  0  15  
               2.625  0  15  
               3  0  15  
               0  0.375  15  
               0.375  0.375  15  
               0.75  0.375  15  
               1.125  0.375  15  
               1.5  0.375  15  
               1.875  0.375  15  
               2.25  0.375  15  
               2.625  0.375  15  
               3  0.375  15  
               0  0.75  15  
               0.375  0.75  15  
               0.75  0.75  15  
               1.125  0.75  15  
               1.5  0.75  15  
               1.875  0.75  15  
               2.25  0.75  15  
               2.625  0.75  15  
               3  0.75  15  
               0  1.125  15  
               0.375  1.125  15  
               0.75  1.125  15  
               1.125  1.125  15  
               1.5  1.125  15  
               1.875  1.125  15  
               2.25  1.125  15  
               2.625  1.125  15  
               3  1.125  15  
               0  1.5  15  
               0.375  1.5  15  
               0.75  1.5  15  
               1.125  1.5  15  
               1.5  1.5  15  
               1.875  1.5  15  
               2.25  1.5  15  
               2.625  1.5  15  
               3  1.5  15  
               0  1.875  15  
               0.375  1.875  15  
               0.75  1.875  15  
               1.125  1.875  15  
               1.5  1.875  15  
               1.875  1.875  15  
               2.25  1.875  15  
               2.625  1.875  15  
               3  1.875  15  
               0  2.25  15  
               0.375  2.25  15  
               0.75  2.25  15  
               1.125  2.25  15  
               1.5  2.25  15  
               1.875  2.25  15  
               2.25  2.25  15  
               2.625  2.25  15  
               3  2.25  15  
               0  2.625  15  
               0.375  2.625  15  
               0.75  2.625  15  
               1.125  2.625  15  
               1.5  2.625  15  
               1.875  2.625  15  
               2.25  2.625  15  
               2.625  2.625  15  
               3  2.625  15  
               0  3  15  
               0.375  3  15  
               0.75  3  15  
               1.125  3  15  
               1.5  3  15  
               1.875  3  15  
               2.25  3  15  
               2.625  3  15  
               3  3  15  
            </DataArray>
         </Points> 

         <Cells>
            <DataArray type="Int32" Name="connectivity" NumberOfComponents="1" format="ascii">
               
            </DataArray> 
            <DataArray type="Int32" Name="offsets" NumberOfComponents="1" format="ascii">
               
            </DataArray>
            <DataArray type="UInt8"  Name="types" NumberOfComponents="1" format="ascii">
               
            </DataArray>
         </Cells>
         <PointData Scalars="Rank " Vectors="Displacement Velocity Traction ">
            <DataArray type="UInt32" Name="Rank" NumberOfComponents="1" format="ascii">
               0 0 0 0 0 0 0 0 0 0 0 0 0 0 0 0 0 0 0 0 0 0 0 0 0 0 0 0 0 0 0 0 0 0 0 0 0 0 0 0 0 0 0 0 0 0 0 0 0 0 0 0 0 0 0 0 0 0 0 0 0 0 0 0 0 0 0 0 0 0 0 0 0 0 0 0 0 0 0 0 0 
            </DataArray>
            <DataArray type="Float64" Name="Displacement" NumberOfComponents="3" format="ascii">
               0 0 0  0 0 0  0 0 0  0 0 0  0 0 0  0 0 0  0 0 0  0 0 0  0 0 0  0 0 0  0 0 0  0 0 0  0 0 0  0 0 0  0 0 0  0 0 0  0 0 0  0 0 0  0 0 0  0 0 0  0 0 0  0 0 0  0 0 0  0 0 0  0 0 0  0 0 0  0 0 0  0 0 0  0 0 0  0 0 0  0 0 0  0 0 0  0 0 0  0 0 0  0 0 0  0 0 0  0 0 0  0 0 0  0 0 0  0 0 0  0 0 0  0 0 0  0 0 0  0 0 0  0 0 0  0 0 0  0 0 0  0 0 0  0 0 0  0 0 0  0 0 0  0 0 0  0 0 0  0 0 0  0 0 0  0 0 0  0 0 0  0 0 0  0 0 0  0 0 0  0 0 0  0 0 0  0 0 0  0 0 0  0 0 0  0 0 0  0 0 0  0 0 0  0 0 0  0 0 0  0 0 0  0 0 0  0 0 0  0 0 0  0 0 0  0 0 0  0 0 0  0 0 0  0 0 0  0 0 0  0 0 0  
            </DataArray>
            <DataArray type="Float64" Name="Velocity" NumberOfComponents="3" format="ascii">
               0 0 0  0 0 0  0 0 0  0 0 0  0 0 0  0 0 0  0 0 0  0 0 0  0 0 0  0 0 0  0 0 0  0 0 0  0 0 0  0 0 0  0 0 0  0 0 0  0 0 0  0 0 0  0 0 0  0 0 0  0 0 0  0 0 0  0 0 0  0 0 0  0 0 0  0 0 0  0 0 0  0 0 0  0 0 0  0 0 0  0 0 0  0 0 0  0 0 0  0 0 0  0 0 0  0 0 0  0 0 0  0 0 0  0 0 0  0 0 0  0 0 0  0 0 0  0 0 0  0 0 0  0 0 0  0 0 0  0 0 0  0 0 0  0 0 0  0 0 0  0 0 0  0 0 0  0 0 0  0 0 0  0 0 0  0 0 0  0 0 0  0 0 0  0 0 0  0 0 0  0 0 0  0 0 0  0 0 0  0 0 0  0 0 0  0 0 0  0 0 0  0 0 0  0 0 0  0 0 0  0 0 0  0 0 0  0 0 0  0 0 0  0 0 0  0 0 0  0 0 0  0 0 0  0 0 0  0 0 0  0 0 0  
            </DataArray>
            <DataArray type="Float64" Name="Traction" NumberOfComponents="3" format="ascii">
               0.0184906 0.0181399 -0.0347256  0.00971822 0.0210516 -0.0347256  0.00428459 0.0221281 -0.0347256  0.00145991 0.0231633 -0.0347256  -0.0018738 0.0234151 -0.0347256  -0.00404056 0.0235547 -0.0347256  -0.00611646 0.0230569 -0.0347256  -0.0142976 0.0229985 -0.0347256  -0.0251778 0.0246385 -0.0347256  0.0214923 0.00924718 -0.0347256  0.0118799 0.0114729 -0.0347256  0.00653608 0.0114713 -0.0347256  0.00319486 0.0118803 -0.0347256  -0.000263176 0.0118129 -0.0347256  -0.00254353 0.0121127 -0.0347256  -0.00403905 0.0117401 -0.0347256  -0.0118648 0.0118846 -0.0347256  -0.0232357 0.0142152 -0.0347256  0.0225639 0.00350735 -0.0347256  0.0117274 0.00600132 -0.0347256  0.00645545 0.00607885 -0.0347256  0.0033461 0.00611701 -0.0347256  -1.85324e-06 0.00595275 -0.0347256  -0.00266895 0.00626063 -0.0347256  -0.00430209 0.00610049 -0.0347256  -0.0117709 0.00579033 -0.0347256  -0.0231822 0.00735685 -0.0347256  0.0231417 0.000515127 -0.0347256  0.0118085 0.00258241 -0.0347256  0.00628236 0.00289335 -0.0347256  0.00321329 0.00287702 -0.0347256  4.66791e-05 0.00275126 -0.0347256  -0.00264221 0.00288299 -0.0347256  -0.00454505 0.0028255 -0.0347256  -0.011974 0.00273649 -0.0347256  -0.0235306 0.00423209 -0.0347256  0.023013 -0.00240761 -0.0347256  0.0113642 -0.000629937 -0.0347256  0.00585736 -0.000200547 -0.0347256  0.00297969 -0.000231746 -0.0347256  -0.000123479 -0.000510125 -0.0347256  -0.00257634 -0.000422988 -0.0347256  -0.00431631 -0.000389372 -0.0347256  -0.0117281 -0.000208964 -0.0347256  -0.0235118 0.00126221 -0.0347256  0.0233425 -0.00410324 -0.0347256  0.0113031 -0.00237251 -0.0347256  0.00580604 -0.00235912 -0.0347256  0.00279839 -0.00263112 -0.0347256  -0.000138772 -0.00288361 -0.0347256  -0.00247174 -0.0028874 -0.0347256  -0.00417201 -0.00287572 -0.0347256  -0.0115714 -0.00266372 -0.0347256  -0.023407 -0.00107677 -0.0347256  0.0223559 -0.00562323 -0.0347256  0.0102762 -0.003244 -0.0347256  0.00516474 -0.00347488 -0.0347256  0.00244306 -0.00420818 -0.0347256  -0.000175193 -0.00434432 -0.0347256  -0.0023283 -0.00445612 -0.0347256  -0.00393232 -0.00443281 -0.0347256  -0.0109647 -0.00471084 -0.0347256  -0.0224715 -0.00271127 -0.0347256  0.022973 -0.0125837 -0.0347256  0.0102649 -0.0103443 -0.0347256  0.00489927 -0.0104123 -0.0347256  0.00250166 -0.0112956 -0.0347256  0.000169068 -0.0114315 -0.0347256  -0.0019653 -0.0116353 -0.0347256  -0.00406161 -0.011342 -0.0347256  -0.0107796 -0.0112944 -0.0347256  -0.0216518 -0.00884696 -0.0347256  0.0255003 -0.0261656 -0.0347256  0.0123874 -0.0232898 -0.0347256  0.00675707 -0.0225647 -0.0347256  0.00419699 -0.023281 -0.0347256  0.00180484 -0.0229877 -0.0347256  -2.54135e-05 -0.0233924 -0.0347256  -0.00182835 -0.0230088 -0.0347256  -0.00826362 -0.0221821 -0.0347256  -0.0189063 -0.0193895 -0.0347256  
            </DataArray>
         </PointData> 
      </Piece>
   </UnstructuredGrid> 
</VTKFile>
