<?xml version="1.0"?>
<VTKFile type="UnstructuredGrid" version="0.1" byte_order="LittleEndian">
   <UnstructuredGrid>
      <Piece NumberOfPoints="81" NumberOfCells="0" > 
         <Points> 
            <DataArray type="Float64" Name="Position" NumberOfComponents="3" format="ascii"> 
               0  0  15  
               0.375  0  15  
               0.75  0  15  
               1.125  0  15  
               1.5  0  15  
               1.875  0  15  
               2.25  0  15  
               2.625  0  15  
               3  0  15  
               0  0.375  15  
               0.375  0.375  15  
               0.75  0.375  15  
               1.125  0.375  15  
               1.5  0.375  15  
               1.875  0.375  15  
               2.25  0.375  15  
               2.625  0.375  15  
               3  0.375  15  
               0  0.75  15  
               0.375  0.75  15  
               0.75  0.75  15  
               1.125  0.75  15  
               1.5  0.75  15  
               1.875  0.75  15  
               2.25  0.75  15  
               2.625  0.75  15  
               3  0.75  15  
               0  1.125  15  
               0.375  1.125  15  
               0.75  1.125  15  
               1.125  1.125  15  
               1.5  1.125  15  
               1.875  1.125  15  
               2.25  1.125  15  
               2.625  1.125  15  
               3  1.125  15  
               0  1.5  15  
               0.375  1.5  15  
               0.75  1.5  15  
               1.125  1.5  15  
               1.5  1.5  15  
               1.875  1.5  15  
               2.25  1.5  15  
               2.625  1.5  15  
               3  1.5  15  
               0  1.875  15  
               0.375  1.875  15  
               0.75  1.875  15  
               1.125  1.875  15  
               1.5  1.875  15  
               1.875  1.875  15  
               2.25  1.875  15  
               2.625  1.875  15  
               3  1.875  15  
               0  2.25  15  
               0.375  2.25  15  
               0.75  2.25  15  
               1.125  2.25  15  
               1.5  2.25  15  
               1.875  2.25  15  
               2.25  2.25  15  
               2.625  2.25  15  
               3  2.25  15  
               0  2.625  15  
               0.375  2.625  15  
               0.75  2.625  15  
               1.125  2.625  15  
               1.5  2.625  15  
               1.875  2.625  15  
               2.25  2.625  15  
               2.625  2.625  15  
               3  2.625  15  
               0  3  15  
               0.375  3  15  
               0.75  3  15  
               1.125  3  15  
               1.5  3  15  
               1.875  3  15  
               2.25  3  15  
               2.625  3  15  
               3  3  15  
            </DataArray>
         </Points> 

         <Cells>
            <DataArray type="Int32" Name="connectivity" NumberOfComponents="1" format="ascii">
               
            </DataArray> 
            <DataArray type="Int32" Name="offsets" NumberOfComponents="1" format="ascii">
               
            </DataArray>
            <DataArray type="UInt8"  Name="types" NumberOfComponents="1" format="ascii">
               
            </DataArray>
         </Cells>
         <PointData Scalars="Rank " Vectors="Displacement Velocity Traction ">
            <DataArray type="UInt32" Name="Rank" NumberOfComponents="1" format="ascii">
               0 0 0 0 0 0 0 0 0 0 0 0 0 0 0 0 0 0 0 0 0 0 0 0 0 0 0 0 0 0 0 0 0 0 0 0 0 0 0 0 0 0 0 0 0 0 0 0 0 0 0 0 0 0 0 0 0 0 0 0 0 0 0 0 0 0 0 0 0 0 0 0 0 0 0 0 0 0 0 0 0 
            </DataArray>
            <DataArray type="Float64" Name="Displacement" NumberOfComponents="3" format="ascii">
               0.00112416 0.000968146 -0.00551746  0.00108075 0.000616401 -0.00565258  0.000933998 0.000389649 -0.00531524  0.000721894 0.000245042 -0.00523093  0.000496662 0.000220689 -0.00524924  0.000297102 0.000182932 -0.00512889  0.00017014 0.000321858 -0.00529033  0.000112992 0.000383839 -0.00560546  0.00010041 0.00020375 -0.00512749  0.000763794 0.000925159 -0.00565297  0.000769991 0.00062619 -0.00549912  0.000666613 0.000460174 -0.00497409  0.000484819 0.000337778 -0.00488252  0.000271017 0.000320944 -0.00490839  5.18085e-05 0.000265256 -0.00480893  -0.000143522 0.000367181 -0.00499772  -0.000233148 0.000389961 -0.00563783  -0.000212324 0.000156665 -0.00551797  0.000518736 0.000780613 -0.00531608  0.00058263 0.000529288 -0.00497435  0.000520436 0.000406196 -0.00414097  0.000364782 0.000324699 -0.0039661  0.000191463 0.00029965 -0.00400982  2.10152e-05 0.000255574 -0.003952  -0.000128845 0.000318049 -0.00414404  -0.000174139 0.000300461 -0.0050099  -0.000110695 3.57119e-05 -0.00525853  0.000364587 0.000575494 -0.00523108  0.000447253 0.000358506 -0.00488246  0.000426357 0.000258456 -0.0039658  0.000313781 0.000216318 -0.00372352  0.000163289 0.000187097 -0.00375928  1.45508e-05 0.000144354 -0.00373394  -9.58863e-05 0.000160655 -0.00396404  -0.000105344 0.000108118 -0.00483398  -2.31219e-05 -0.000128745 -0.00513174  0.000327947 0.000362408 -0.00524932  0.000415195 0.000162715 -0.00490828  0.000384478 9.52485e-05 -0.00400946  0.000269129 7.17803e-05 -0.00375926  0.000137453 5.43798e-05 -0.00380202  1.02955e-05 -6.21989e-06 -0.00375829  -9.60791e-05 -9.55456e-06 -0.00400305  -0.000107343 -0.000111449 -0.00489519  -1.47261e-05 -0.000307492 -0.00521015  0.000270002 0.000181239 -0.00512937  0.000338924 -3.58891e-05 -0.00480914  0.00032782 -6.77406e-05 -0.00395175  0.000225046 -7.41011e-05 -0.00373393  8.56802e-05 -7.97708e-05 -0.00375835  -5.31106e-05 -0.000159394 -0.00371436  -0.000156885 -0.000180676 -0.00395202  -0.000166883 -0.000329144 -0.0048558  -7.12324e-05 -0.000515807 -0.0051719  0.00040518 7.84626e-05 -0.0052906  0.00043787 -0.000211374 -0.00499762  0.000389512 -0.000215004 -0.00414358  0.000242318 -0.000183272 -0.00396383  8.72612e-05 -0.000196213 -0.00400287  -6.61654e-05 -0.00027457 -0.00395179  -0.000207141 -0.000336457 -0.00413691  -0.000263693 -0.000509528 -0.00497685  -0.000185736 -0.000757107 -0.00528172  0.000426688 4.2198e-05 -0.00560648  0.000430662 -0.000288951 -0.00563805  0.000356534 -0.000264256 -0.00500986  0.000190504 -0.000198583 -0.00483436  -1.17605e-06 -0.000221255 -0.00489544  -0.000193503 -0.000296839 -0.00485598  -0.000356305 -0.000405847 -0.00497734  -0.000446149 -0.000610418 -0.00551287  -0.000430654 -0.000932426 -0.00563105  0.000257207 3.74626e-05 -0.0051311  0.000218342 -0.000270608 -0.00551987  0.000120374 -0.000214519 -0.00525957  -1.57721e-05 -0.000131135 -0.00513315  -0.000170475 -0.0001429 -0.0052114  -0.000360444 -0.000212597 -0.0051732  -0.000588705 -0.000335886 -0.00528353  -0.000757486 -0.000600036 -0.00563207  -0.000806354 -0.000983106 -0.00547386  
            </DataArray>
            <DataArray type="Float64" Name="Velocity" NumberOfComponents="3" format="ascii">
               -9.73084e-05 -0.000150803 -0.0103519  -9.99846e-05 0.000161154 -0.0102475  -3.96563e-05 1.8192e-05 -0.00945813  4.35776e-05 -2.63546e-05 -0.00931526  6.37514e-05 -6.87815e-05 -0.00939544  8.62493e-05 -6.05686e-05 -0.00919485  0.000164071 0.00011936 -0.00941401  0.000280416 2.75581e-05 -0.0101593  0.000336954 6.36782e-05 -0.00993696  0.000211687 -0.000154793 -0.0102451  0.000199674 0.000147727 -0.00936344  0.000197123 7.70286e-06 -0.00801635  0.000176706 -7.71351e-06 -0.00784641  0.000139112 -3.10689e-05 -0.00794632  9.44716e-05 -3.83843e-05 -0.00774638  6.61781e-05 0.000112629 -0.00803941  9.62899e-05 3.45183e-05 -0.00954523  0.000129702 5.28501e-05 -0.0100474  6.37647e-05 -9.61246e-05 -0.00945601  5.43308e-05 0.000143437 -0.0080167  8.62254e-05 3.89706e-05 -0.00587828  8.08232e-05 5.10371e-05 -0.00556103  8.18453e-05 1.7258e-05 -0.00570395  8.44416e-05 2.34084e-05 -0.0055428  8.33854e-05 0.000131691 -0.00587375  0.00011961 6.63169e-05 -0.00805975  0.000149511 4.55027e-05 -0.00936967  1.8168e-05 -1.42141e-05 -0.00931316  3.70631e-05 0.000122062 -0.00784719  9.62904e-05 3.30026e-05 -0.00556144  0.000117477 7.11073e-05 -0.00513635  0.000110308 4.92268e-05 -0.0052566  0.000103558 4.72863e-05 -0.00514465  0.000128304 0.000103717 -0.00555203  0.000193385 4.0084e-05 -0.00777643  0.000216771 5.45473e-05 -0.00919603  -2.79323e-05 4.63407e-06 -0.00939309  9.33963e-06 8.54145e-05 -0.00794685  5.82365e-05 3.46264e-05 -0.00570397  9.20704e-05 6.38655e-05 -0.00525617  0.00013486 9.17169e-05 -0.00537622  0.000182516 3.92296e-05 -0.00525284  0.000221425 0.000109346 -0.00569526  0.000289154 -1.07242e-05 -0.00792656  0.000313262 0.000129677 -0.00933953  -1.50425e-05 2.73467e-05 -0.00919265  5.78535e-06 4.34547e-05 -0.0077469  6.78526e-05 3.91568e-05 -0.00554266  9.36053e-05 5.82195e-05 -0.00514382  8.64367e-05 0.000140441 -0.00525248  7.79155e-05 3.08599e-05 -0.00512172  9.92894e-05 0.000121326 -0.00554372  0.000162267 -5.91169e-05 -0.00781515  0.000186961 0.000191864 -0.00923803  0.000165505 0.000108519 -0.00941199  0.000156567 1.96095e-05 -0.00803999  0.000176404 4.13295e-05 -0.0058741  0.000151336 8.59727e-05 -0.00555195  0.000158086 0.000181926 -0.00569547  0.000170029 5.40773e-05 -0.00554427  0.000165499 0.000117648 -0.00586939  0.000180346 -7.43734e-05 -0.00802403  0.000178381 0.000224936 -0.00942025  7.58343e-05 0.000229611 -0.0101587  8.19004e-05 5.41998e-05 -0.00954612  0.000115869 7.98314e-05 -0.00806042  9.36567e-05 0.000153379 -0.00777725  4.5614e-05 0.000251964 -0.00792746  -1.75738e-06 0.000119295 -0.00781634  -1.80629e-05 0.000133995 -0.00802486  -1.51821e-05 -6.98249e-05 -0.00938578  -2.15034e-05 0.000237673 -0.0102245  0.00012068 0.000288396 -0.00993629  0.000110501 8.88543e-05 -0.0100475  0.000105607 0.000109092 -0.00936846  0.00011688 0.000176414 -0.00919488  0.000191808 0.000276511 -0.00933821  0.000252731 0.000144972 -0.00923694  0.000284147 0.000133285 -0.00941855  0.000295298 -7.52433e-05 -0.010222  0.000280723 0.00022341 -0.0102969  
            </DataArray>
            <DataArray type="Float64" Name="Traction" NumberOfComponents="3" format="ascii">
               0.0238467 0.0229054 0.0245428  0.0126758 0.0218687 0.0245428  0.00557872 0.0191289 0.0245428  0.00312661 0.0204239 0.0245428  -0.00396855 0.0214045 0.0245428  -0.00645353 0.0208819 0.0245428  -0.00460239 0.0203831 0.0245428  -0.0204905 0.0262548 0.0245428  -0.0348921 0.0319794 0.0245428  0.0228662 0.0115816 0.0245428  0.0132188 0.0122481 0.0245428  0.00851548 0.00942722 0.0245428  0.00535883 0.00954577 0.0245428  -0.00181738 0.00964892 0.0245428  -0.00423605 0.0102931 0.0245428  0.000692763 0.00975296 0.0245428  -0.0138714 0.0135395 0.0245428  -0.027509 0.0191746 0.0245428  0.0201696 0.00401563 0.0245428  0.0101741 0.00727489 0.0245428  0.00716641 0.00613638 0.0245428  0.00569315 0.00550224 0.0245428  -0.00104296 0.00529566 0.0245428  -0.00433099 0.00612185 0.0245428  0.00247418 0.00603786 0.0245428  -0.0101664 0.00649921 0.0245428  -0.0212239 0.00878757 0.0245428  0.0207495 0.00127214 0.0245428  0.00982626 0.00396251 0.0245428  0.00621873 0.00448717 0.0245428  0.00507322 0.00404309 0.0245428  -0.000884181 0.00389762 0.0245428  -0.00399147 0.00425366 0.0245428  0.00207831 0.00429596 0.0245428  -0.0101177 0.00434366 0.0245428  -0.0209632 0.00654069 0.0245428  0.0210768 -0.00521327 0.0245428  0.00938987 -0.00283088 0.0245428  0.00564762 -0.00186479 0.0245428  0.00478737 -0.00182097 0.0245428  -0.001368 -0.0024761 0.0245428  -0.00405636 -0.00217109 0.0245428  0.00225806 -0.00228233 0.0245428  -0.00997279 -0.00132513 0.0245428  -0.0219203 0.000471716 0.0245428  0.0206792 -0.00694874 0.0245428  0.0094551 -0.00443177 0.0245428  0.00591805 -0.00437502 0.0245428  0.0046715 -0.00447308 0.0245428  -0.0012309 -0.00502028 0.0245428  -0.0037 -0.00480166 0.0245428  0.00295254 -0.00542547 0.0245428  -0.0093089 -0.00467034 0.0245428  -0.0206919 -0.00307553 0.0245428  0.01945 -0.00419122 0.0245428  0.00796986 0.00149482 0.0245428  0.00513609 0.00331447 0.0245428  0.00428033 0.00220661 0.0245428  -0.00144505 0.00182009 0.0245428  -0.00413377 0.00214792 0.0245428  0.00235996 0.00123066 0.0245428  -0.00906555 -0.00200399 0.0245428  -0.0196502 -0.000718684 0.0245428  0.0261386 -0.0183172 0.0245428  0.0115358 -0.0119124 0.0245428  0.00564395 -0.00841647 0.0245428  0.00449092 -0.00935158 0.0245428  -0.000300715 -0.00980971 0.0245428  -0.00320249 -0.00967527 0.0245428  -0.000672236 -0.0099014 0.0245428  -0.0114507 -0.0125242 0.0245428  -0.0222367 -0.0117796 0.0245428  0.0328731 -0.0359287 0.0245428  0.0168962 -0.0274246 0.0245428  0.00830889 -0.0203225 0.0245428  0.00694561 -0.0206482 0.0245428  0.00172745 -0.0213593 0.0245428  -0.00110621 -0.0209191 0.0245428  0.000960321 -0.0207175 0.0245428  -0.0105093 -0.0233101 0.0245428  -0.0230804 -0.0242261 0.0245428  
            </DataArray>
         </PointData> 
      </Piece>
   </UnstructuredGrid> 
</VTKFile>
