<?xml version="1.0"?>
<VTKFile type="UnstructuredGrid" version="0.1" byte_order="LittleEndian">
   <UnstructuredGrid>
      <Piece NumberOfPoints="81" NumberOfCells="0" > 
         <Points> 
            <DataArray type="Float64" Name="Position" NumberOfComponents="3" format="ascii"> 
               0  0  20  
               0.375  0  20  
               0.75  0  20  
               1.125  0  20  
               1.5  0  20  
               1.875  0  20  
               2.25  0  20  
               2.625  0  20  
               3  0  20  
               0  0.375  20  
               0.375  0.375  20  
               0.75  0.375  20  
               1.125  0.375  20  
               1.5  0.375  20  
               1.875  0.375  20  
               2.25  0.375  20  
               2.625  0.375  20  
               3  0.375  20  
               0  0.75  20  
               0.375  0.75  20  
               0.75  0.75  20  
               1.125  0.75  20  
               1.5  0.75  20  
               1.875  0.75  20  
               2.25  0.75  20  
               2.625  0.75  20  
               3  0.75  20  
               0  1.125  20  
               0.375  1.125  20  
               0.75  1.125  20  
               1.125  1.125  20  
               1.5  1.125  20  
               1.875  1.125  20  
               2.25  1.125  20  
               2.625  1.125  20  
               3  1.125  20  
               0  1.5  20  
               0.375  1.5  20  
               0.75  1.5  20  
               1.125  1.5  20  
               1.5  1.5  20  
               1.875  1.5  20  
               2.25  1.5  20  
               2.625  1.5  20  
               3  1.5  20  
               0  1.875  20  
               0.375  1.875  20  
               0.75  1.875  20  
               1.125  1.875  20  
               1.5  1.875  20  
               1.875  1.875  20  
               2.25  1.875  20  
               2.625  1.875  20  
               3  1.875  20  
               0  2.25  20  
               0.375  2.25  20  
               0.75  2.25  20  
               1.125  2.25  20  
               1.5  2.25  20  
               1.875  2.25  20  
               2.25  2.25  20  
               2.625  2.25  20  
               3  2.25  20  
               0  2.625  20  
               0.375  2.625  20  
               0.75  2.625  20  
               1.125  2.625  20  
               1.5  2.625  20  
               1.875  2.625  20  
               2.25  2.625  20  
               2.625  2.625  20  
               3  2.625  20  
               0  3  20  
               0.375  3  20  
               0.75  3  20  
               1.125  3  20  
               1.5  3  20  
               1.875  3  20  
               2.25  3  20  
               2.625  3  20  
               3  3  20  
            </DataArray>
         </Points> 

         <Cells>
            <DataArray type="Int32" Name="connectivity" NumberOfComponents="1" format="ascii">
               
            </DataArray> 
            <DataArray type="Int32" Name="offsets" NumberOfComponents="1" format="ascii">
               
            </DataArray>
            <DataArray type="UInt8"  Name="types" NumberOfComponents="1" format="ascii">
               
            </DataArray>
         </Cells>
         <PointData Scalars="Rank " Vectors="Displacement Velocity Traction ">
            <DataArray type="UInt32" Name="Rank" NumberOfComponents="1" format="ascii">
               0 0 0 0 0 0 0 0 0 0 0 0 0 0 0 0 0 0 0 0 0 0 0 0 0 0 0 0 0 0 0 0 0 0 0 0 0 0 0 0 0 0 0 0 0 0 0 0 0 0 0 0 0 0 0 0 0 0 0 0 0 0 0 0 0 0 0 0 0 0 0 0 0 0 0 0 0 0 0 0 0 
            </DataArray>
            <DataArray type="Float64" Name="Displacement" NumberOfComponents="3" format="ascii">
               0.00533586 0.0053369 -0.0185837  0.000850998 0.00778191 -0.0181658  0.000370261 0.00990645 -0.0167273  -0.000199123 0.0099509 -0.0166183  -0.000362458 0.00956193 -0.0167969  -0.000614415 0.0101498 -0.0164827  -0.00188991 0.00990472 -0.0167677  -0.0013724 0.00687298 -0.018108  -0.00468091 0.00604352 -0.0181577  0.0077802 0.000852048 -0.0181648  0.00229548 0.00229727 -0.016152  0.00130328 0.00310391 -0.0133692  0.000104513 0.0032857 -0.013188  5.17924e-05 0.00331385 -0.0134099  -0.000112497 0.00329612 -0.0130229  -0.0018328 0.00352544 -0.0134357  -0.00218207 0.00223764 -0.0163737  -0.00675984 0.00225711 -0.0179489  0.00990432 0.000371246 -0.0167265  0.00310251 0.0013049 -0.0133694  0.00191479 0.00191611 -0.00895388  -0.000116475 0.00218832 -0.00854968  -6.3863e-05 0.00211393 -0.00887293  4.4559e-05 0.00218408 -0.0085303  -0.0022817 0.00242041 -0.00898991  -0.00329669 0.00177453 -0.0134634  -0.00966107 0.0018787 -0.0167006  0.00994775 -0.000197708 -0.0166172  0.00328358 0.0001059 -0.0131884  0.002187 -0.000114826 -0.00854974  0.000191458 0.000192843 -0.00797422  1.42824e-05 7.12492e-05 -0.00823531  -0.000140919 0.000235084 -0.00798126  -0.00210245 6.40385e-05 -0.00854406  -0.0031828 0.000222835 -0.013067  -0.00999943 0.000258996 -0.0164843  0.00955924 -0.000361308 -0.0167956  0.00331174 5.27545e-05 -0.0134101  0.00211246 -6.27358e-05 -0.00887277  6.97768e-05 1.53402e-05 -0.0082351  0.000102738 0.000103809 -0.00847544  0.000132721 7.48126e-05 -0.0082293  -0.00188097 0.000218671 -0.0088577  -0.00297002 8.32568e-05 -0.0133787  -0.00916711 0.000634633 -0.0167111  0.0101469 -0.00061348 -0.0164817  0.00329392 -0.000111814 -0.0130233  0.00218248 4.5013e-05 -0.00853015  0.000233551 -0.000140417 -0.00798086  7.36674e-05 0.000133213 -0.00822918  -0.000108547 -0.000108128 -0.00795193  -0.0021227 0.000361294 -0.0085233  -0.00317406 -8.4644e-05 -0.013142  -0.00985085 0.000801083 -0.0165051  0.00990228 -0.00188912 -0.0167667  0.00352341 -0.00183172 -0.013436  0.00241875 -0.00228094 -0.00898991  6.26099e-05 -0.00210282 -0.00854396  0.000217644 -0.00188114 -0.00885778  0.00036057 -0.00212298 -0.00852351  -0.00172773 -0.00172765 -0.0089427  -0.00295509 -0.00129911 -0.0133818  -0.00977274 -0.000318673 -0.0166699  0.00687136 -0.0013732 -0.0181081  0.00223608 -0.00218206 -0.0163743  0.00177298 -0.00329599 -0.0134638  0.000221336 -0.00318326 -0.0130676  8.21965e-05 -0.00297042 -0.0133793  -8.56157e-05 -0.00317459 -0.0131427  -0.00129954 -0.00295511 -0.0133825  -0.00220205 -0.0022015 -0.0161864  -0.00765926 -0.000909521 -0.0181313  0.00604205 -0.00468266 -0.0181593  0.00225547 -0.00676116 -0.0179503  0.00187711 -0.00966099 -0.0167008  0.000257771 -0.00999937 -0.0164847  0.000633601 -0.00916744 -0.0167114  0.000799597 -0.0098513 -0.0165055  -0.00031971 -0.00977225 -0.0166701  -0.000910178 -0.0076579 -0.0181306  -0.00534714 -0.00534586 -0.0185036  
            </DataArray>
            <DataArray type="Float64" Name="Velocity" NumberOfComponents="3" format="ascii">
               0.0265243 0.0265188 -0.0863473  0.00056703 0.0410213 -0.0812796  0.00110396 0.0537795 -0.073877  -0.00137357 0.0536202 -0.0746204  -0.00122498 0.0509352 -0.0757724  -0.000566296 0.0541872 -0.0749323  -0.00660628 0.0543206 -0.0751696  -0.00437696 0.0381856 -0.0820877  -0.026645 0.030275 -0.088506  0.041017 0.000563343 -0.0812762  0.00827026 0.00827425 -0.0667201  0.00625753 0.0121578 -0.0496683  -0.000667371 0.0129612 -0.0498446  0.000107233 0.012702 -0.0512098  0.000833484 0.0129045 -0.0492971  -0.00760089 0.0138492 -0.0501289  -0.00767119 0.00769308 -0.0665553  -0.0380571 0.00669748 -0.0818539  0.0537739 0.00110472 -0.0738721  0.0121537 0.00626026 -0.0496679  0.00949537 0.00949819 -0.0226463  -0.0018082 0.0103514 -0.0221468  -0.000366971 0.0097279 -0.0242034  0.00162517 0.0102406 -0.0221975  -0.01046 0.0111746 -0.0231958  -0.0128019 0.00751907 -0.0501784  -0.0532632 0.00654546 -0.0750378  0.053613 -0.00136778 -0.074617  0.0129563 -0.000663139 -0.0498457  0.0103482 -0.00180364 -0.0221481  -0.000702917 -0.000698583 -0.0210833  8.62192e-05 -0.0012151 -0.0226327  0.00090037 -0.000650313 -0.0210054  -0.0100562 -0.00148468 -0.0221907  -0.0126343 -0.000532612 -0.0493638  -0.0538591 -0.000580008 -0.0749319  0.0509296 -0.00121942 -0.0757688  0.0126983 0.000112662 -0.0512105  0.00972533 -0.000361609 -0.0242043  -0.00121953 9.09886e-05 -0.0226323  0.00034367 0.000348429 -0.0238828  0.00192174 0.000134497 -0.0226033  -0.00889391 0.000753787 -0.0241513  -0.0115331 0.000118295 -0.0511316  -0.0497357 0.00218868 -0.0755801  0.0541809 -0.000563307 -0.0749277  0.0128992 0.000837483 -0.0492973  0.0102371 0.00162865 -0.0221983  -0.000654773 0.000903709 -0.0210046  0.000129387 0.00192478 -0.0226029  0.000883025 0.000886464 -0.021022  -0.0102145 0.00282301 -0.0220953  -0.0126861 0.000595922 -0.0497794  -0.0533491 0.00348716 -0.074423  0.0543133 -0.00660327 -0.075166  0.0138448 -0.0075973 -0.0501301  0.0111721 -0.0104569 -0.0231976  -0.00148938 -0.0100549 -0.0221913  0.000748868 -0.00889235 -0.0241525  0.0028194 -0.0102124 -0.0220967  -0.00868497 -0.00868204 -0.02264  -0.0117146 -0.00623415 -0.0497253  -0.0534601 -0.000952334 -0.0738011  0.0381772 -0.00437189 -0.0820839  0.00768862 -0.00766663 -0.0665563  0.00751681 -0.0127972 -0.0501797  -0.00053775 -0.012632 -0.0493643  0.000112688 -0.0115306 -0.0511326  0.00059154 -0.0126835 -0.0497806  -0.00623583 -0.011709 -0.0497253  -0.00800787 -0.00800328 -0.0668236  -0.0407604 -0.000835137 -0.0812464  0.0302647 -0.0266389 -0.0884971  0.00668904 -0.0380518 -0.0818513  0.00654131 -0.0532576 -0.0750356  -0.000583824 -0.0538547 -0.074929  0.00218265 -0.0497319 -0.0755777  0.00348064 -0.0533456 -0.0744209  -0.000955585 -0.0534524 -0.0737962  -0.000836526 -0.040751 -0.0812418  -0.0266174 -0.0266136 -0.0862162  
            </DataArray>
            <DataArray type="Float64" Name="Traction" NumberOfComponents="3" format="ascii">
               0 0 0  0 0 0  0 0 0  0 0 0  0 0 0  0 0 0  0 0 0  0 0 0  0 0 0  0 0 0  0 0 0  0 0 0  0 0 0  0 0 0  0 0 0  0 0 0  0 0 0  0 0 0  0 0 0  0 0 0  0 0 0  0 0 0  0 0 0  0 0 0  0 0 0  0 0 0  0 0 0  0 0 0  0 0 0  0 0 0  0 0 0  0 0 0  0 0 0  0 0 0  0 0 0  0 0 0  0 0 0  0 0 0  0 0 0  0 0 0  0 0 0  0 0 0  0 0 0  0 0 0  0 0 0  0 0 0  0 0 0  0 0 0  0 0 0  0 0 0  0 0 0  0 0 0  0 0 0  0 0 0  0 0 0  0 0 0  0 0 0  0 0 0  0 0 0  0 0 0  0 0 0  0 0 0  0 0 0  0 0 0  0 0 0  0 0 0  0 0 0  0 0 0  0 0 0  0 0 0  0 0 0  0 0 0  0 0 0  0 0 0  0 0 0  0 0 0  0 0 0  0 0 0  0 0 0  0 0 0  0 0 0  
            </DataArray>
         </PointData> 
      </Piece>
   </UnstructuredGrid> 
</VTKFile>
