<?xml version="1.0"?>
<VTKFile type="UnstructuredGrid" version="0.1" byte_order="LittleEndian">
   <UnstructuredGrid>
      <Piece NumberOfPoints="81" NumberOfCells="0" > 
         <Points> 
            <DataArray type="Float64" Name="Position" NumberOfComponents="3" format="ascii"> 
               0  0  20  
               0.375  0  20  
               0.75  0  20  
               1.125  0  20  
               1.5  0  20  
               1.875  0  20  
               2.25  0  20  
               2.625  0  20  
               3  0  20  
               0  0.375  20  
               0.375  0.375  20  
               0.75  0.375  20  
               1.125  0.375  20  
               1.5  0.375  20  
               1.875  0.375  20  
               2.25  0.375  20  
               2.625  0.375  20  
               3  0.375  20  
               0  0.75  20  
               0.375  0.75  20  
               0.75  0.75  20  
               1.125  0.75  20  
               1.5  0.75  20  
               1.875  0.75  20  
               2.25  0.75  20  
               2.625  0.75  20  
               3  0.75  20  
               0  1.125  20  
               0.375  1.125  20  
               0.75  1.125  20  
               1.125  1.125  20  
               1.5  1.125  20  
               1.875  1.125  20  
               2.25  1.125  20  
               2.625  1.125  20  
               3  1.125  20  
               0  1.5  20  
               0.375  1.5  20  
               0.75  1.5  20  
               1.125  1.5  20  
               1.5  1.5  20  
               1.875  1.5  20  
               2.25  1.5  20  
               2.625  1.5  20  
               3  1.5  20  
               0  1.875  20  
               0.375  1.875  20  
               0.75  1.875  20  
               1.125  1.875  20  
               1.5  1.875  20  
               1.875  1.875  20  
               2.25  1.875  20  
               2.625  1.875  20  
               3  1.875  20  
               0  2.25  20  
               0.375  2.25  20  
               0.75  2.25  20  
               1.125  2.25  20  
               1.5  2.25  20  
               1.875  2.25  20  
               2.25  2.25  20  
               2.625  2.25  20  
               3  2.25  20  
               0  2.625  20  
               0.375  2.625  20  
               0.75  2.625  20  
               1.125  2.625  20  
               1.5  2.625  20  
               1.875  2.625  20  
               2.25  2.625  20  
               2.625  2.625  20  
               3  2.625  20  
               0  3  20  
               0.375  3  20  
               0.75  3  20  
               1.125  3  20  
               1.5  3  20  
               1.875  3  20  
               2.25  3  20  
               2.625  3  20  
               3  3  20  
            </DataArray>
         </Points> 

         <Cells>
            <DataArray type="Int32" Name="connectivity" NumberOfComponents="1" format="ascii">
               
            </DataArray> 
            <DataArray type="Int32" Name="offsets" NumberOfComponents="1" format="ascii">
               
            </DataArray>
            <DataArray type="UInt8"  Name="types" NumberOfComponents="1" format="ascii">
               
            </DataArray>
         </Cells>
         <PointData Scalars="Rank " Vectors="Displacement Velocity Traction ">
            <DataArray type="UInt32" Name="Rank" NumberOfComponents="1" format="ascii">
               0 0 0 0 0 0 0 0 0 0 0 0 0 0 0 0 0 0 0 0 0 0 0 0 0 0 0 0 0 0 0 0 0 0 0 0 0 0 0 0 0 0 0 0 0 0 0 0 0 0 0 0 0 0 0 0 0 0 0 0 0 0 0 0 0 0 0 0 0 0 0 0 0 0 0 0 0 0 0 0 0 
            </DataArray>
            <DataArray type="Float64" Name="Displacement" NumberOfComponents="3" format="ascii">
               0.00139238 0.00139349 -0.00542691  0.000538313 0.0018574 -0.00556665  0.000229386 0.00229608 -0.00523642  -9.83224e-06 0.00230967 -0.005154  -0.000128086 0.00226874 -0.00517154  -0.000358445 0.00239638 -0.00505306  -0.000714843 0.0022497 -0.005211  -0.000484966 0.00152628 -0.00551737  -0.000925803 0.00151368 -0.00503648  0.00185779 0.000539313 -0.00556696  0.000823132 0.000823201 -0.00541826  0.000419069 0.00104265 -0.00490304  0.000118469 0.00108763 -0.00481379  2.84842e-05 0.0011319 -0.00483903  -0.000136436 0.00109796 -0.00474083  -0.0006527 0.00116708 -0.00492651  -0.000797372 0.000833256 -0.00555623  -0.00145775 0.000871834 -0.00543067  0.00229629 0.000229544 -0.00523721  0.00104288 0.000419442 -0.00490331  0.000566397 0.000566544 -0.00408506  6.2663e-05 0.000663476 -0.00391391  -6.52599e-06 0.000667849 -0.00395671  -8.95756e-05 0.000671988 -0.0039  -0.000725633 0.00075207 -0.00408817  -0.00111463 0.000618959 -0.00493852  -0.0021859 0.000716958 -0.00517928  0.00230927 -1.04736e-05 -0.00515411  0.00108733 0.00011823 -0.00481372  0.000663284 6.2576e-05 -0.0039136  0.000170034 0.000169861 -0.00367582  1.57906e-06 0.000139494 -0.00371075  -0.000153758 0.000194649 -0.00368617  -0.000633309 0.00015354 -0.00391194  -0.0010472 0.000183706 -0.00476562  -0.00232667 0.000228011 -0.00505554  0.00226839 -0.000128907 -0.00517162  0.00113143 2.75881e-05 -0.00483894  0.000667459 -7.27988e-06 -0.00395636  0.000139607 8.79524e-07 -0.00371075  3.8583e-05 3.79126e-05 -0.00375299  -6.63805e-05 3.83548e-05 -0.00370977  -0.000587227 7.82255e-05 -0.00394984  -0.001008 4.4433e-05 -0.00482567  -0.00211546 0.000226215 -0.00513223  0.00239602 -0.000358706 -0.00505356  0.00109768 -0.000137236 -0.00474102  0.000671664 -9.04074e-05 -0.00389974  0.00019477 -0.00015451 -0.00368617  3.90506e-05 -6.70971e-05 -0.00370983  -0.000129566 -0.000130403 -0.00366671  -0.0006309 7.8126e-06 -0.00389987  -0.00103804 -9.76044e-05 -0.00478718  -0.00226757 0.000222072 -0.00509533  0.00224999 -0.000715311 -0.0052113  0.00116704 -0.00065288 -0.00492638  0.000751768 -0.000725927 -0.00408768  0.000153804 -0.000634162 -0.00391172  7.90364e-05 -0.000587939 -0.00394965  8.55032e-06 -0.000631831 -0.00389964  -0.000514133 -0.000514999 -0.00408077  -0.00098062 -0.000418705 -0.00490558  -0.00223107 -0.000208487 -0.00520266  0.00152726 -0.000487443 -0.00551838  0.000833508 -0.000798719 -0.00555636  0.000618772 -0.00111551 -0.00493844  0.000184112 -0.00104857 -0.004766  4.54093e-05 -0.00100925 -0.00482592  -9.69024e-05 -0.00103951 -0.00478735  -0.000418306 -0.000982296 -0.00490605  -0.000782562 -0.000783669 -0.00543167  -0.00179666 -0.000552644 -0.00554494  0.00151499 -0.000929385 -0.0050401  0.000872656 -0.00146053 -0.00543253  0.000717024 -0.0021877 -0.0051803  0.000228274 -0.00232824 -0.00505692  0.000227328 -0.00211714 -0.00513342  0.000223086 -0.00226947 -0.00509654  -0.000208359 -0.00223307 -0.00520437  -0.00055316 -0.00179834 -0.00554585  -0.00139089 -0.00139023 -0.00538367  
            </DataArray>
            <DataArray type="Float64" Name="Velocity" NumberOfComponents="3" format="ascii">
               0.00283116 0.00283335 -0.0101127  0.000602065 0.00402331 -0.0100249  0.000181529 0.00501986 -0.00926647  -9.42746e-05 0.00507684 -0.00912779  -0.000225755 0.00491205 -0.00920453  -0.000441323 0.0052038 -0.00901044  -0.00113207 0.00499615 -0.00922274  -0.00088726 0.00344319 -0.00993219  -0.00235318 0.00322722 -0.00969851  0.0040194 0.000603872 -0.0100225  0.00137747 0.00138069 -0.00915969  0.000662263 0.00181868 -0.00785124  0.000108498 0.00192489 -0.00768649  3.07978e-05 0.00195675 -0.00778363  -0.000125764 0.00193723 -0.00758789  -0.00100907 0.00206782 -0.00787507  -0.00132111 0.0013626 -0.00933985  -0.00336562 0.00145445 -0.0098225  0.00501591 0.000183589 -0.00926449  0.00181614 0.000664897 -0.00785163  0.000979732 0.000981904 -0.00577106  -1.99048e-06 0.00115645 -0.00546249  -3.53086e-05 0.00112854 -0.00560139  -4.91416e-05 0.00115822 -0.00544474  -0.00121785 0.0012939 -0.00576736  -0.00193617 0.000970508 -0.0078947  -0.00485509 0.00112399 -0.00917807  0.00507203 -9.10297e-05 -0.00912577  0.00192181 0.000111404 -0.0076873  0.00115455 1.1465e-06 -0.00546289  0.00018246 0.000185076 -0.00504802  6.51276e-06 0.000114289 -0.00516487  -0.000153971 0.000213972 -0.00505636  -0.00110417 0.000123556 -0.00545384  -0.00186164 0.000195405 -0.00761748  -0.00510189 0.000220503 -0.00901059  0.00490784 -0.000222718 -0.00920228  0.00195363 3.35887e-05 -0.00778424  0.00112643 -3.23274e-05 -0.00560144  0.000111594 9.40228e-06 -0.00516448  6.16869e-05 6.45616e-05 -0.00528183  9.45298e-06 5.15817e-05 -0.00516123  -0.00098811 0.000134474 -0.0055925  -0.00174638 6.02096e-05 -0.00776332  -0.00466232 0.000388384 -0.00914719  0.00519936 -0.000438972 -0.00900839  0.00193399 -0.000123259 -0.00758851  0.00115595 -4.69786e-05 -0.00544463  0.000211093 -0.000151783 -0.00505558  4.85807e-05 1.16747e-05 -0.00516087  -0.000129467 -0.000127348 -0.0050336  -0.00111301 0.000144506 -0.0054453  -0.00185181 -9.03404e-05 -0.0076554  -0.00501193 0.000457727 -0.00905125  0.00499177 -0.00112963 -0.0092209  0.00206411 -0.00100663 -0.00787574  0.00129097 -0.00121577 -0.00576774  0.000120705 -0.00110327 -0.00545381  0.000131446 -0.000987055 -0.00559269  0.000141778 -0.00111205 -0.00544585  -0.000874535 -0.000872981 -0.00576168  -0.00172771 -0.000659448 -0.00785839  -0.00493632 -0.000148567 -0.00922784  0.00343988 -0.000885297 -0.00993172  0.00135954 -0.00131924 -0.00934084  0.000967417 -0.00193341 -0.0078954  0.000192134 -0.00186012 -0.00761834  5.69679e-05 -0.00174491 -0.0077642  -9.33535e-05 -0.00185033 -0.00765656  -0.000661393 -0.00172554 -0.00785919  -0.00132098 -0.00131811 -0.00918132  -0.00394363 -0.000635057 -0.0100015  0.00322442 -0.00235158 -0.00969805  0.00145136 -0.00336444 -0.00982271  0.00112082 -0.00485218 -0.00917684  0.000217733 -0.00509904 -0.00900938  0.000384957 -0.00466003 -0.00914577  0.000453329 -0.00500936 -0.00905008  -0.000151001 -0.00493256 -0.00922609  -0.000635964 -0.00393901 -0.00999887  -0.0028366 -0.00283495 -0.0100592  
            </DataArray>
            <DataArray type="Float64" Name="Traction" NumberOfComponents="3" format="ascii">
               -0.0109407 -0.0109398 -0.13444  -0.00612694 -0.0196246 -0.13444  -0.00333212 -0.0257946 -0.13444  -2.43763e-06 -0.0255226 -0.13444  -0.00131074 -0.024983 -0.13444  0.00368916 -0.0262023 -0.13444  0.0141852 -0.0239981 -0.13444  0.00353954 -0.0121261 -0.13444  0.000546211 -0.00804767 -0.13444  -0.0196486 -0.00612137 -0.13444  -0.0116551 -0.0116352 -0.13444  -0.00551728 -0.0164565 -0.13444  -0.00133903 -0.0172947 -0.13444  -0.00279441 -0.0176108 -0.13444  0.00153547 -0.0168075 -0.13444  0.0166566 -0.0173659 -0.13444  0.0104778 -0.0109527 -0.13444  0.0103252 -0.00743262 -0.13444  -0.0258259 -0.00333247 -0.13444  -0.0164857 -0.00551153 -0.13444  -0.00841422 -0.00840242 -0.13444  -0.000963012 -0.010351 -0.13444  -0.00174922 -0.010489 -0.13444  0.00122196 -0.00985702 -0.13444  0.0189161 -0.0102165 -0.13444  0.0168932 -0.00880791 -0.13444  0.0228909 -0.00900259 -0.13444  -0.0255421 9.74123e-06 -0.13444  -0.0173165 -0.0013278 -0.13444  -0.0103627 -0.000952118 -0.13444  -0.00244776 -0.00243534 -0.13444  -0.00145947 -0.00200912 -0.13444  0.00237654 -0.00248188 -0.13444  0.0177588 -0.00170285 -0.13444  0.0165014 -0.00189725 -0.13444  0.0253432 -0.00185728 -0.13444  -0.0250023 -0.00128895 -0.13444  -0.0176302 -0.00277269 -0.13444  -0.0104975 -0.00173239 -0.13444  -0.00202033 -0.00144501 -0.13444  -0.00211656 -0.00210151 -0.13444  0.00150881 -0.00201837 -0.13444  0.0176593 -0.00222409 -0.13444  0.0164509 -0.00132707 -0.13444  0.0232976 -0.00310066 -0.13444  -0.0262247 0.00369486 -0.13444  -0.0168322 0.00154509 -0.13444  -0.00986888 0.0012302 -0.13444  -0.00249409 0.0023827 -0.13444  -0.00203403 0.00151473 -0.13444  0.00220767 0.00221508 -0.13444  0.0183051 0.000469003 -0.13444  0.0168208 0.00144546 -0.13444  0.0249476 -0.00202825 -0.13444  -0.02403 0.0141877 -0.13444  -0.0173935 0.01665 -0.13444  -0.0102285 0.0189128 -0.13444  -0.00171708 0.0177643 -0.13444  -0.0022414 0.0176616 -0.13444  0.000461623 0.0183083 -0.13444  0.0162081 0.0162118 -0.13444  0.0158922 0.01163 -0.13444  0.0247724 0.00803272 -0.13444  -0.012166 0.00358413 -0.13444  -0.0109793 0.0104966 -0.13444  -0.00881464 0.0168983 -0.13444  -0.00191222 0.0165115 -0.13444  -0.00134827 0.0164594 -0.13444  0.00143576 0.0168311 -0.13444  0.0116248 0.015907 -0.13444  0.0113235 0.0113373 -0.13444  0.0186281 0.00651153 -0.13444  -0.00809584 0.000624914 -0.13444  -0.00746771 0.0103767 -0.13444  -0.00900937 0.0229139 -0.13444  -0.00186981 0.0253599 -0.13444  -0.00312415 0.0233167 -0.13444  -0.00204397 0.0249693 -0.13444  0.00801891 0.0247988 -0.13444  0.00650498 0.0186539 -0.13444  0.0107754 0.0107836 -0.13444  
            </DataArray>
         </PointData> 
      </Piece>
   </UnstructuredGrid> 
</VTKFile>
