<?xml version="1.0"?>
<VTKFile type="UnstructuredGrid" version="0.1" byte_order="LittleEndian">
   <UnstructuredGrid>
      <Piece NumberOfPoints="81" NumberOfCells="0" > 
         <Points> 
            <DataArray type="Float64" Name="Position" NumberOfComponents="3" format="ascii"> 
               0  0  20  
               0.375  0  20  
               0.75  0  20  
               1.125  0  20  
               1.5  0  20  
               1.875  0  20  
               2.25  0  20  
               2.625  0  20  
               3  0  20  
               0  0.375  20  
               0.375  0.375  20  
               0.75  0.375  20  
               1.125  0.375  20  
               1.5  0.375  20  
               1.875  0.375  20  
               2.25  0.375  20  
               2.625  0.375  20  
               3  0.375  20  
               0  0.75  20  
               0.375  0.75  20  
               0.75  0.75  20  
               1.125  0.75  20  
               1.5  0.75  20  
               1.875  0.75  20  
               2.25  0.75  20  
               2.625  0.75  20  
               3  0.75  20  
               0  1.125  20  
               0.375  1.125  20  
               0.75  1.125  20  
               1.125  1.125  20  
               1.5  1.125  20  
               1.875  1.125  20  
               2.25  1.125  20  
               2.625  1.125  20  
               3  1.125  20  
               0  1.5  20  
               0.375  1.5  20  
               0.75  1.5  20  
               1.125  1.5  20  
               1.5  1.5  20  
               1.875  1.5  20  
               2.25  1.5  20  
               2.625  1.5  20  
               3  1.5  20  
               0  1.875  20  
               0.375  1.875  20  
               0.75  1.875  20  
               1.125  1.875  20  
               1.5  1.875  20  
               1.875  1.875  20  
               2.25  1.875  20  
               2.625  1.875  20  
               3  1.875  20  
               0  2.25  20  
               0.375  2.25  20  
               0.75  2.25  20  
               1.125  2.25  20  
               1.5  2.25  20  
               1.875  2.25  20  
               2.25  2.25  20  
               2.625  2.25  20  
               3  2.25  20  
               0  2.625  20  
               0.375  2.625  20  
               0.75  2.625  20  
               1.125  2.625  20  
               1.5  2.625  20  
               1.875  2.625  20  
               2.25  2.625  20  
               2.625  2.625  20  
               3  2.625  20  
               0  3  20  
               0.375  3  20  
               0.75  3  20  
               1.125  3  20  
               1.5  3  20  
               1.875  3  20  
               2.25  3  20  
               2.625  3  20  
               3  3  20  
            </DataArray>
         </Points> 

         <Cells>
            <DataArray type="Int32" Name="connectivity" NumberOfComponents="1" format="ascii">
               
            </DataArray> 
            <DataArray type="Int32" Name="offsets" NumberOfComponents="1" format="ascii">
               
            </DataArray>
            <DataArray type="UInt8"  Name="types" NumberOfComponents="1" format="ascii">
               
            </DataArray>
         </Cells>
         <PointData Scalars="Rank " Vectors="Displacement Velocity Traction ">
            <DataArray type="UInt32" Name="Rank" NumberOfComponents="1" format="ascii">
               0 0 0 0 0 0 0 0 0 0 0 0 0 0 0 0 0 0 0 0 0 0 0 0 0 0 0 0 0 0 0 0 0 0 0 0 0 0 0 0 0 0 0 0 0 0 0 0 0 0 0 0 0 0 0 0 0 0 0 0 0 0 0 0 0 0 0 0 0 0 0 0 0 0 0 0 0 0 0 0 0 
            </DataArray>
            <DataArray type="Float64" Name="Displacement" NumberOfComponents="3" format="ascii">
               0.000481436 0.000481074 -0.00198963  0.000255758 0.000607862 -0.00208829  0.000124174 0.000748699 -0.00198653  7.4911e-06 0.000747324 -0.00195568  -4.83594e-05 0.000743848 -0.00195614  -0.000163341 0.000783391 -0.00190867  -0.000290799 0.000721876 -0.00197754  -0.000175848 0.000483436 -0.00207194  -0.000253214 0.000499572 -0.00180268  0.000608951 0.000255502 -0.00208895  0.000323248 0.000322496 -0.00211428  0.000175493 0.000399518 -0.00196913  5.91552e-05 0.000412411 -0.00193792  1.39974e-05 0.000436211 -0.00194085  -6.75562e-05 0.000416809 -0.0019057  -0.000272637 0.000440988 -0.00198094  -0.000314504 0.00033114 -0.00217497  -0.000450957 0.000339287 -0.0020326  0.000749586 0.000123613 -0.00198713  0.000400085 0.000174882 -0.00196904  0.000224182 0.000223683 -0.00173893  3.90544e-05 0.000259735 -0.00167702  1.51482e-06 0.000266566 -0.00168548  -4.78832e-05 0.000264889 -0.0016706  -0.000289556 0.00029536 -0.00174224  -0.000426676 0.00025664 -0.00198552  -0.000701308 0.000293576 -0.00196372  0.000748169 6.45366e-06 -0.0019561  0.000412913 5.82382e-05 -0.00193766  0.000260113 3.81576e-05 -0.00167684  8.06761e-05 7.9906e-05 -0.00158794  4.13376e-07 7.09262e-05 -0.00159428  -7.40027e-05 9.13335e-05 -0.00159295  -0.000248239 7.79543e-05 -0.00167709  -0.000395395 8.72976e-05 -0.00191723  -0.000753315 0.000113033 -0.00190975  0.00074459 -4.94772e-05 -0.00195657  0.000436685 1.28669e-05 -0.0019406  0.000266946 3.63522e-07 -0.00168535  7.16972e-05 -7.08381e-07 -0.00159435  1.59082e-05 1.47821e-05 -0.00160518  -4.20588e-05 1.67683e-05 -0.00159415  -0.000235535 3.01013e-05 -0.00168243  -0.00038793 1.89567e-05 -0.00193546  -0.000682611 8.73919e-05 -0.00193913  0.00078417 -0.000164299 -0.00190919  0.000417349 -6.87541e-05 -0.00190554  0.000265304 -4.90497e-05 -0.00167056  9.21536e-05 -7.51485e-05 -0.00159313  1.79107e-05 -4.32501e-05 -0.00159427  -6.22845e-05 -6.34447e-05 -0.00158422  -0.00024528 -1.47129e-05 -0.00167069  -0.000391324 -4.86299e-05 -0.00192567  -0.000729534 7.44275e-05 -0.00192943  0.000722848 -0.00029192 -0.001978  0.000441815 -0.000273636 -0.00198072  0.000296049 -0.000290566 -0.00174204  7.88301e-05 -0.000249201 -0.00167705  3.13187e-05 -0.000236514 -0.00168239  -1.33937e-05 -0.00024626 -0.00167053  -0.000205761 -0.000206847 -0.00173799  -0.000373144 -0.000175638 -0.00196989  -0.000719185 -0.000115733 -0.00197074  0.000484374 -0.000177675 -0.0020722  0.000331934 -0.000315833 -0.00217473  0.000257485 -0.000428135 -0.00198534  8.83562e-05 -0.000396798 -0.00191713  2.02552e-05 -0.000389311 -0.00193536  -4.73209e-05 -0.000392759 -0.00192547  -0.000174556 -0.000374642 -0.00196982  -0.000305239 -0.000306793 -0.00211974  -0.000580742 -0.000260095 -0.00207789  0.000500348 -0.000255449 -0.00180396  0.000340131 -0.000452686 -0.00203333  0.000294533 -0.000703222 -0.00196463  0.000114019 -0.000755237 -0.00191076  8.88487e-05 -0.000684453 -0.0019402  7.61955e-05 -0.000731577 -0.00193042  -0.000114721 -0.000721327 -0.00197189  -0.000259548 -0.000582846 -0.00207903  -0.000478636 -0.000479378 -0.00196977  
            </DataArray>
            <DataArray type="Float64" Name="Velocity" NumberOfComponents="3" format="ascii">
               0.000593254 0.000594357 -0.00241173  0.000266818 0.00077358 -0.00250028  0.000120621 0.000954301 -0.00236679  2.03282e-06 0.000957546 -0.00233236  -5.6267e-05 0.000945547 -0.00233745  -0.000173545 0.000999371 -0.00228281  -0.000328813 0.000930654 -0.00235716  -0.000211796 0.000625267 -0.00247857  -0.000357254 0.000632421 -0.00221329  0.000775063 0.000267865 -0.00250132  0.000373481 0.00037279 -0.00248114  0.000194358 0.000465882 -0.00228067  6.0872e-05 0.000483893 -0.00224285  1.41887e-05 0.000506812 -0.00225104  -7.00576e-05 0.00048907 -0.00220793  -0.000304542 0.000521381 -0.00229328  -0.000362528 0.000379775 -0.00254761  -0.000591445 0.000394098 -0.00243701  0.000955697 0.000120488 -0.00236854  0.000466918 0.00019437 -0.00228106  0.00025513 0.000254894 -0.00196312  3.6826e-05 0.000297224 -0.0018889  -8.86519e-07 0.000301733 -0.00190472  -4.77229e-05 0.000301789 -0.0018824  -0.000330715 0.00034018 -0.00196567  -0.000501724 0.000287175 -0.00229838  -0.000905258 0.000331036 -0.00234264  0.000958387 4.94215e-07 -0.00233317  0.000484358 6.00699e-05 -0.00224267  0.000297338 3.61459e-05 -0.00188835  8.45674e-05 8.39051e-05 -0.00178408  2.69832e-08 7.22366e-05 -0.00179654  -7.79078e-05 9.65056e-05 -0.00178985  -0.000283915 7.98794e-05 -0.00188888  -0.00046612 9.19787e-05 -0.00222003  -0.00096784 0.00011474 -0.00228487  0.000946273 -5.79062e-05 -0.00233831  0.000507072 1.26034e-05 -0.00225091  0.000301643 -2.29391e-06 -0.00190424  7.28375e-05 -1.26169e-06 -0.00179667  1.79617e-05 1.67397e-05 -0.00181297  -3.90802e-05 1.77846e-05 -0.00179638  -0.000265498 3.50701e-05 -0.00190112  -0.000450988 2.11676e-05 -0.00224488  -0.000876272 0.000101501 -0.00231946  0.00100013 -0.00017401 -0.00228419  0.000489611 -7.12211e-05 -0.00220817  0.000301842 -4.87672e-05 -0.00188207  9.71645e-05 -7.88431e-05 -0.00179006  1.91114e-05 -3.99123e-05 -0.00179655  -6.52806e-05 -6.63266e-05 -0.00177984  -0.000281963 -6.92367e-06 -0.0018817  -0.000461087 -5.03688e-05 -0.00222926  -0.000938726 9.39836e-05 -0.00230386  0.000932303 -0.000329448 -0.00235815  0.000522261 -0.000304807 -0.00229299  0.000340329 -0.000330945 -0.00196485  8.07073e-05 -0.000284548 -0.00188855  3.65345e-05 -0.000265951 -0.00190073  -5.8866e-06 -0.00028274 -0.00188118  -0.000232693 -0.000233585 -0.0019614  -0.000436518 -0.000194635 -0.00228127  -0.000922488 -0.000110999 -0.00234969  0.00062756 -0.000214784 -0.0024803  0.000380875 -0.000364098 -0.00254766  0.000287463 -0.000502785 -0.00229812  9.30951e-05 -0.000467436 -0.00222037  2.29588e-05 -0.00045211 -0.00224498  -4.92017e-05 -0.000462529 -0.0022292  -0.000194294 -0.000438614 -0.00228177  -0.0003537 -0.000355159 -0.00248707  -0.000744173 -0.000272436 -0.00248921  0.000635229 -0.00036146 -0.00221823  0.000396109 -0.000594645 -0.00243922  0.000331629 -0.00090741 -0.00234392  0.00011543 -0.000969523 -0.00228662  0.000103442 -0.000878001 -0.00232095  9.58855e-05 -0.000940743 -0.00230535  -0.00011078 -0.000925211 -0.00235219  -0.000273607 -0.00074685 -0.00249077  -0.00059299 -0.000591713 -0.00239029  
            </DataArray>
            <DataArray type="Float64" Name="Traction" NumberOfComponents="3" format="ascii">
               0 0 0  0 0 0  0 0 0  0 0 0  0 0 0  0 0 0  0 0 0  0 0 0  0 0 0  0 0 0  0 0 0  0 0 0  0 0 0  0 0 0  0 0 0  0 0 0  0 0 0  0 0 0  0 0 0  0 0 0  0 0 0  0 0 0  0 0 0  0 0 0  0 0 0  0 0 0  0 0 0  0 0 0  0 0 0  0 0 0  0 0 0  0 0 0  0 0 0  0 0 0  0 0 0  0 0 0  0 0 0  0 0 0  0 0 0  0 0 0  0 0 0  0 0 0  0 0 0  0 0 0  0 0 0  0 0 0  0 0 0  0 0 0  0 0 0  0 0 0  0 0 0  0 0 0  0 0 0  0 0 0  0 0 0  0 0 0  0 0 0  0 0 0  0 0 0  0 0 0  0 0 0  0 0 0  0 0 0  0 0 0  0 0 0  0 0 0  0 0 0  0 0 0  0 0 0  0 0 0  0 0 0  0 0 0  0 0 0  0 0 0  0 0 0  0 0 0  0 0 0  0 0 0  0 0 0  0 0 0  0 0 0  
            </DataArray>
         </PointData> 
      </Piece>
   </UnstructuredGrid> 
</VTKFile>
