<?xml version="1.0"?>
<VTKFile type="UnstructuredGrid" version="0.1" byte_order="LittleEndian">
   <UnstructuredGrid>
      <Piece NumberOfPoints="81" NumberOfCells="0" > 
         <Points> 
            <DataArray type="Float64" Name="Position" NumberOfComponents="3" format="ascii"> 
               0  0  15  
               0.375  0  15  
               0.75  0  15  
               1.125  0  15  
               1.5  0  15  
               1.875  0  15  
               2.25  0  15  
               2.625  0  15  
               3  0  15  
               0  0.375  15  
               0.375  0.375  15  
               0.75  0.375  15  
               1.125  0.375  15  
               1.5  0.375  15  
               1.875  0.375  15  
               2.25  0.375  15  
               2.625  0.375  15  
               3  0.375  15  
               0  0.75  15  
               0.375  0.75  15  
               0.75  0.75  15  
               1.125  0.75  15  
               1.5  0.75  15  
               1.875  0.75  15  
               2.25  0.75  15  
               2.625  0.75  15  
               3  0.75  15  
               0  1.125  15  
               0.375  1.125  15  
               0.75  1.125  15  
               1.125  1.125  15  
               1.5  1.125  15  
               1.875  1.125  15  
               2.25  1.125  15  
               2.625  1.125  15  
               3  1.125  15  
               0  1.5  15  
               0.375  1.5  15  
               0.75  1.5  15  
               1.125  1.5  15  
               1.5  1.5  15  
               1.875  1.5  15  
               2.25  1.5  15  
               2.625  1.5  15  
               3  1.5  15  
               0  1.875  15  
               0.375  1.875  15  
               0.75  1.875  15  
               1.125  1.875  15  
               1.5  1.875  15  
               1.875  1.875  15  
               2.25  1.875  15  
               2.625  1.875  15  
               3  1.875  15  
               0  2.25  15  
               0.375  2.25  15  
               0.75  2.25  15  
               1.125  2.25  15  
               1.5  2.25  15  
               1.875  2.25  15  
               2.25  2.25  15  
               2.625  2.25  15  
               3  2.25  15  
               0  2.625  15  
               0.375  2.625  15  
               0.75  2.625  15  
               1.125  2.625  15  
               1.5  2.625  15  
               1.875  2.625  15  
               2.25  2.625  15  
               2.625  2.625  15  
               3  2.625  15  
               0  3  15  
               0.375  3  15  
               0.75  3  15  
               1.125  3  15  
               1.5  3  15  
               1.875  3  15  
               2.25  3  15  
               2.625  3  15  
               3  3  15  
            </DataArray>
         </Points> 

         <Cells>
            <DataArray type="Int32" Name="connectivity" NumberOfComponents="1" format="ascii">
               
            </DataArray> 
            <DataArray type="Int32" Name="offsets" NumberOfComponents="1" format="ascii">
               
            </DataArray>
            <DataArray type="UInt8"  Name="types" NumberOfComponents="1" format="ascii">
               
            </DataArray>
         </Cells>
         <PointData Scalars="Rank " Vectors="Displacement Velocity Traction ">
            <DataArray type="UInt32" Name="Rank" NumberOfComponents="1" format="ascii">
               0 0 0 0 0 0 0 0 0 0 0 0 0 0 0 0 0 0 0 0 0 0 0 0 0 0 0 0 0 0 0 0 0 0 0 0 0 0 0 0 0 0 0 0 0 0 0 0 0 0 0 0 0 0 0 0 0 0 0 0 0 0 0 0 0 0 0 0 0 0 0 0 0 0 0 0 0 0 0 0 0 
            </DataArray>
            <DataArray type="Float64" Name="Displacement" NumberOfComponents="3" format="ascii">
               0 0 0  0 0 0  0 0 0  0 0 0  0 0 0  0 0 0  0 0 0  0 0 0  0 0 0  0 0 0  0 0 0  0 0 0  0 0 0  0 0 0  0 0 0  0 0 0  0 0 0  0 0 0  0 0 0  0 0 0  0 0 0  0 0 0  0 0 0  0 0 0  0 0 0  0 0 0  0 0 0  0 0 0  0 0 0  0 0 0  0 0 0  0 0 0  0 0 0  0 0 0  0 0 0  0 0 0  0 0 0  0 0 0  0 0 0  0 0 0  0 0 0  0 0 0  0 0 0  0 0 0  0 0 0  0 0 0  0 0 0  0 0 0  0 0 0  0 0 0  0 0 0  0 0 0  0 0 0  0 0 0  0 0 0  0 0 0  0 0 0  0 0 0  0 0 0  0 0 0  0 0 0  0 0 0  0 0 0  0 0 0  0 0 0  0 0 0  0 0 0  0 0 0  0 0 0  0 0 0  0 0 0  0 0 0  0 0 0  0 0 0  0 0 0  0 0 0  0 0 0  0 0 0  0 0 0  0 0 0  0 0 0  
            </DataArray>
            <DataArray type="Float64" Name="Velocity" NumberOfComponents="3" format="ascii">
               0 0 0  0 0 0  0 0 0  0 0 0  0 0 0  0 0 0  0 0 0  0 0 0  0 0 0  0 0 0  0 0 0  0 0 0  0 0 0  0 0 0  0 0 0  0 0 0  0 0 0  0 0 0  0 0 0  0 0 0  0 0 0  0 0 0  0 0 0  0 0 0  0 0 0  0 0 0  0 0 0  0 0 0  0 0 0  0 0 0  0 0 0  0 0 0  0 0 0  0 0 0  0 0 0  0 0 0  0 0 0  0 0 0  0 0 0  0 0 0  0 0 0  0 0 0  0 0 0  0 0 0  0 0 0  0 0 0  0 0 0  0 0 0  0 0 0  0 0 0  0 0 0  0 0 0  0 0 0  0 0 0  0 0 0  0 0 0  0 0 0  0 0 0  0 0 0  0 0 0  0 0 0  0 0 0  0 0 0  0 0 0  0 0 0  0 0 0  0 0 0  0 0 0  0 0 0  0 0 0  0 0 0  0 0 0  0 0 0  0 0 0  0 0 0  0 0 0  0 0 0  0 0 0  0 0 0  0 0 0  0 0 0  
            </DataArray>
            <DataArray type="Float64" Name="Traction" NumberOfComponents="3" format="ascii">
               3.30668e-06 3.65007e-06 -6.71343e-07  -1.21287e-06 8.87489e-07 -6.71343e-07  9.00021e-08 -2.09462e-06 -6.71343e-07  1.13698e-06 -7.8078e-08 -6.71343e-07  7.099e-08 1.9649e-06 -6.71343e-07  -9.70664e-07 2.37906e-07 -6.71343e-07  -2.90642e-08 -1.76261e-06 -6.71343e-07  1.09008e-06 1.20696e-07 -6.71343e-07  -1.40447e-06 1.68532e-06 -6.71343e-07  1.27882e-06 -8.33445e-07 -6.71343e-07  -7.47643e-08 1.15797e-07 -6.71343e-07  1.61368e-07 3.40129e-07 -6.71343e-07  3.43314e-07 5.39732e-08 -6.71343e-07  4.40655e-08 -2.36139e-07 -6.71343e-07  -2.53905e-07 1.83819e-08 -6.71343e-07  -1.2828e-08 1.90421e-07 -6.71343e-07  4.14122e-07 -1.08791e-07 -6.71343e-07  -6.77918e-07 -6.47867e-07 -6.71343e-07  -1.20094e-06 -2.02358e-08 -6.71343e-07  1.6832e-07 1.9727e-07 -6.71343e-07  2.81889e-08 1.17366e-07 -6.71343e-07  1.4225e-07 1.7388e-07 -6.71343e-07  8.32804e-08 1.93267e-07 -6.71343e-07  -8.3501e-08 1.92169e-07 -6.71343e-07  -1.83786e-08 1.2298e-07 -6.71343e-07  1.30533e-07 4.98825e-08 -6.71343e-07  2.41087e-07 -1.32399e-08 -6.71343e-07  -5.66024e-07 4.99755e-07 -6.71343e-07  1.83635e-07 2.02597e-07 -6.71343e-07  1.05575e-07 1.45653e-07 -6.71343e-07  1.68749e-07 2.70084e-07 -6.71343e-07  8.14751e-08 4.02083e-07 -6.71343e-07  -1.22119e-07 2.70457e-07 -6.71343e-07  -1.46176e-07 1.06496e-07 -6.71343e-07  -6.6677e-08 5.41822e-08 -6.71343e-07  -2.22188e-07 1.95022e-07 -6.71343e-07  1.04852e-07 1.17474e-07 -6.71343e-07  1.67472e-07 7.76229e-08 -6.71343e-07  1.70455e-07 1.07559e-07 -6.71343e-07  3.13897e-07 1.19631e-07 -6.71343e-07  6.74356e-08 1.0069e-07 -6.71343e-07  -2.80142e-07 1.02109e-07 -6.71343e-07  -2.41706e-07 8.31132e-08 -6.71343e-07  -1.05839e-07 2.81158e-08 -6.71343e-07  -4.51266e-07 -3.62857e-09 -6.71343e-07  -2.42834e-07 -2.05096e-07 -6.71343e-07  2.62582e-07 -3.62576e-08 -6.71343e-07  1.37504e-07 1.95511e-08 -6.71343e-07  1.43679e-07 -1.44127e-07 -6.71343e-07  6.45901e-08 -3.31537e-07 -6.71343e-07  -9.82418e-08 -1.44065e-07 -6.71343e-07  -2.15635e-07 5.15065e-08 -6.71343e-07  -2.06414e-07 8.15752e-09 -6.71343e-07  -3.79165e-07 -7.61045e-08 -6.71343e-07  -7.10077e-07 -1.01376e-07 -6.71343e-07  3.02809e-07 -3.06896e-08 -6.71343e-07  9.45288e-08 -6.29664e-08 -6.71343e-07  -4.81739e-08 -1.1761e-07 -6.71343e-07  6.32509e-08 -1.81945e-07 -6.71343e-07  1.00241e-07 -1.58735e-07 -6.71343e-07  -1.40207e-07 -1.03423e-07 -6.71343e-07  -2.56677e-07 -8.42993e-08 -6.71343e-07  -2.3148e-07 -2.48482e-08 -6.71343e-07  -7.69329e-07 -4.16089e-08 -6.71343e-07  1.60782e-07 -1.05504e-07 -6.71343e-07  7.8218e-08 -1.85238e-07 -6.71343e-07  1.93684e-08 -5.89202e-08 -6.71343e-07  -2.85866e-09 1.40547e-08 -6.71343e-07  -3.05344e-08 -1.99198e-07 -6.71343e-07  -1.3269e-07 -2.79364e-07 -6.71343e-07  -1.83405e-07 -1.54125e-07 -6.71343e-07  -7.92925e-07 7.69916e-08 -6.71343e-07  -6.38934e-07 7.39275e-07 -6.71343e-07  1.87617e-07 2.54179e-07 -6.71343e-07  1.10796e-07 -1.47747e-07 -6.71343e-07  1.94786e-07 -3.31824e-07 -6.71343e-07  1.02004e-07 -7.61409e-07 -6.71343e-07  -2.14996e-07 -8.30067e-07 -6.71343e-07  -2.30234e-07 -5.06047e-07 -6.71343e-07  -1.53007e-08 -7.93984e-07 -6.71343e-07  -1.31407e-06 -1.28539e-06 -6.71343e-07  
            </DataArray>
         </PointData> 
      </Piece>
   </UnstructuredGrid> 
</VTKFile>
