<?xml version="1.0"?>
<VTKFile type="UnstructuredGrid" version="0.1" byte_order="LittleEndian">
   <UnstructuredGrid>
      <Piece NumberOfPoints="81" NumberOfCells="0" > 
         <Points> 
            <DataArray type="Float64" Name="Position" NumberOfComponents="3" format="ascii"> 
               0  0  15  
               0.375  0  15  
               0.75  0  15  
               1.125  0  15  
               1.5  0  15  
               1.875  0  15  
               2.25  0  15  
               2.625  0  15  
               3  0  15  
               0  0.375  15  
               0.375  0.375  15  
               0.75  0.375  15  
               1.125  0.375  15  
               1.5  0.375  15  
               1.875  0.375  15  
               2.25  0.375  15  
               2.625  0.375  15  
               3  0.375  15  
               0  0.75  15  
               0.375  0.75  15  
               0.75  0.75  15  
               1.125  0.75  15  
               1.5  0.75  15  
               1.875  0.75  15  
               2.25  0.75  15  
               2.625  0.75  15  
               3  0.75  15  
               0  1.125  15  
               0.375  1.125  15  
               0.75  1.125  15  
               1.125  1.125  15  
               1.5  1.125  15  
               1.875  1.125  15  
               2.25  1.125  15  
               2.625  1.125  15  
               3  1.125  15  
               0  1.5  15  
               0.375  1.5  15  
               0.75  1.5  15  
               1.125  1.5  15  
               1.5  1.5  15  
               1.875  1.5  15  
               2.25  1.5  15  
               2.625  1.5  15  
               3  1.5  15  
               0  1.875  15  
               0.375  1.875  15  
               0.75  1.875  15  
               1.125  1.875  15  
               1.5  1.875  15  
               1.875  1.875  15  
               2.25  1.875  15  
               2.625  1.875  15  
               3  1.875  15  
               0  2.25  15  
               0.375  2.25  15  
               0.75  2.25  15  
               1.125  2.25  15  
               1.5  2.25  15  
               1.875  2.25  15  
               2.25  2.25  15  
               2.625  2.25  15  
               3  2.25  15  
               0  2.625  15  
               0.375  2.625  15  
               0.75  2.625  15  
               1.125  2.625  15  
               1.5  2.625  15  
               1.875  2.625  15  
               2.25  2.625  15  
               2.625  2.625  15  
               3  2.625  15  
               0  3  15  
               0.375  3  15  
               0.75  3  15  
               1.125  3  15  
               1.5  3  15  
               1.875  3  15  
               2.25  3  15  
               2.625  3  15  
               3  3  15  
            </DataArray>
         </Points> 

         <Cells>
            <DataArray type="Int32" Name="connectivity" NumberOfComponents="1" format="ascii">
               
            </DataArray> 
            <DataArray type="Int32" Name="offsets" NumberOfComponents="1" format="ascii">
               
            </DataArray>
            <DataArray type="UInt8"  Name="types" NumberOfComponents="1" format="ascii">
               
            </DataArray>
         </Cells>
         <PointData Scalars="Rank " Vectors="Displacement Velocity Traction ">
            <DataArray type="UInt32" Name="Rank" NumberOfComponents="1" format="ascii">
               0 0 0 0 0 0 0 0 0 0 0 0 0 0 0 0 0 0 0 0 0 0 0 0 0 0 0 0 0 0 0 0 0 0 0 0 0 0 0 0 0 0 0 0 0 0 0 0 0 0 0 0 0 0 0 0 0 0 0 0 0 0 0 0 0 0 0 0 0 0 0 0 0 0 0 0 0 0 0 0 0 
            </DataArray>
            <DataArray type="Float64" Name="Displacement" NumberOfComponents="3" format="ascii">
               0 0 0  0 0 0  0 0 0  0 0 0  0 0 0  0 0 0  0 0 0  0 0 0  0 0 0  0 0 0  0 0 0  0 0 0  0 0 0  0 0 0  0 0 0  0 0 0  0 0 0  0 0 0  0 0 0  0 0 0  0 0 0  0 0 0  0 0 0  0 0 0  0 0 0  0 0 0  0 0 0  0 0 0  0 0 0  0 0 0  0 0 0  0 0 0  0 0 0  0 0 0  0 0 0  0 0 0  0 0 0  0 0 0  0 0 0  0 0 0  0 0 0  0 0 0  0 0 0  0 0 0  0 0 0  0 0 0  0 0 0  0 0 0  0 0 0  0 0 0  0 0 0  0 0 0  0 0 0  0 0 0  0 0 0  0 0 0  0 0 0  0 0 0  0 0 0  0 0 0  0 0 0  0 0 0  0 0 0  0 0 0  0 0 0  0 0 0  0 0 0  0 0 0  0 0 0  0 0 0  0 0 0  0 0 0  0 0 0  0 0 0  0 0 0  0 0 0  0 0 0  0 0 0  0 0 0  0 0 0  0 0 0  
            </DataArray>
            <DataArray type="Float64" Name="Velocity" NumberOfComponents="3" format="ascii">
               0 0 0  0 0 0  0 0 0  0 0 0  0 0 0  0 0 0  0 0 0  0 0 0  0 0 0  0 0 0  0 0 0  0 0 0  0 0 0  0 0 0  0 0 0  0 0 0  0 0 0  0 0 0  0 0 0  0 0 0  0 0 0  0 0 0  0 0 0  0 0 0  0 0 0  0 0 0  0 0 0  0 0 0  0 0 0  0 0 0  0 0 0  0 0 0  0 0 0  0 0 0  0 0 0  0 0 0  0 0 0  0 0 0  0 0 0  0 0 0  0 0 0  0 0 0  0 0 0  0 0 0  0 0 0  0 0 0  0 0 0  0 0 0  0 0 0  0 0 0  0 0 0  0 0 0  0 0 0  0 0 0  0 0 0  0 0 0  0 0 0  0 0 0  0 0 0  0 0 0  0 0 0  0 0 0  0 0 0  0 0 0  0 0 0  0 0 0  0 0 0  0 0 0  0 0 0  0 0 0  0 0 0  0 0 0  0 0 0  0 0 0  0 0 0  0 0 0  0 0 0  0 0 0  0 0 0  0 0 0  0 0 0  
            </DataArray>
            <DataArray type="Float64" Name="Traction" NumberOfComponents="3" format="ascii">
               0.00047231 0.000516657 -0.0010822  -6.46609e-05 0.000526141 -0.0010822  -3.86467e-05 0.000509874 -0.0010822  -6.02547e-05 0.000561032 -0.0010822  7.07982e-06 0.000508413 -0.0010822  5.36663e-05 0.000646527 -0.0010822  2.52095e-05 0.00055969 -0.0010822  0.000117026 0.000671819 -0.0010822  -0.00092626 0.000927028 -0.0010822  0.000490178 -1.8748e-06 -0.0010822  6.8119e-05 8.42628e-05 -0.0010822  1.12248e-05 0.000129117 -0.0010822  -1.39048e-05 0.000194166 -0.0010822  2.96818e-05 0.000183131 -0.0010822  0.000105262 0.000154728 -0.0010822  0.000130598 6.10124e-06 -0.0010822  8.87928e-05 -7.81287e-05 -0.0010822  -0.000691664 -9.64008e-05 -0.0010822  0.000517171 6.79802e-05 -0.0010822  0.000172426 3.66876e-05 -0.0010822  6.74642e-05 3.85991e-05 -0.0010822  8.39042e-06 8.89602e-05 -0.0010822  4.65733e-05 8.45276e-05 -0.0010822  0.000115458 3.44361e-05 -0.0010822  9.72002e-05 -8.50217e-05 -0.0010822  -7.66926e-06 -0.000106329 -0.0010822  -0.000611426 1.39414e-05 -0.0010822  0.000669667 4.06639e-05 -0.0010822  0.000317989 7.74585e-06 -0.0010822  0.000165436 -2.13519e-05 -0.0010822  6.94905e-05 1.87383e-05 -0.0010822  3.41723e-05 3.23755e-05 -0.0010822  2.60953e-05 -2.9991e-05 -0.0010822  -3.79368e-05 -0.000118531 -0.0010822  -0.000186502 -9.74127e-05 -0.0010822  -0.000682807 -3.71298e-05 -0.0010822  0.000668712 -8.15822e-05 -0.0010822  0.000409978 -5.42016e-05 -0.0010822  0.000247417 -0.000100672 -0.0010822  0.000124138 -5.30406e-05 -0.0010822  2.40979e-05 -2.03307e-05 -0.0010822  -4.58643e-05 -3.5945e-05 -0.0010822  -0.000108709 -6.09814e-05 -0.0010822  -0.000243455 -3.57783e-05 -0.0010822  -0.000514191 -9.52517e-06 -0.0010822  0.000508085 -0.00017383 -0.0010822  0.000438048 -0.000170173 -0.0010822  0.000300594 -0.000226104 -0.0010822  0.000186756 -0.000161265 -0.0010822  5.19152e-05 -0.000105231 -0.0010822  -5.10102e-05 -7.3751e-05 -0.0010822  -0.000133187 -3.92956e-05 -0.0010822  -0.000271661 -1.56492e-05 -0.0010822  -0.000570301 4.65574e-05 -0.0010822  0.000490464 -0.000276616 -0.0010822  0.000523491 -0.000286355 -0.0010822  0.000376236 -0.000329111 -0.0010822  0.000251866 -0.000256523 -0.0010822  8.91812e-05 -0.000215591 -0.0010822  -3.3382e-05 -0.000163885 -0.0010822  -0.000109229 -0.000106224 -0.0010822  -0.000238689 -7.1884e-05 -0.0010822  -0.000575633 -2.4807e-05 -0.0010822  0.000272484 -0.000535422 -0.0010822  0.000487631 -0.000464612 -0.0010822  0.000323402 -0.000485745 -0.0010822  0.000194611 -0.000406423 -0.0010822  4.98548e-05 -0.000391568 -0.0010822  -4.94407e-05 -0.000334571 -0.0010822  -0.00010393 -0.000244489 -0.0010822  -0.000202147 -0.00018074 -0.0010822  -0.0005164 -0.00010592 -0.0010822  5.56492e-05 -6.52755e-05 -0.0010822  0.000537326 -0.000270842 -0.0010822  0.000303616 -0.000487621 -0.0010822  0.000209666 -0.000523244 -0.0010822  8.52873e-05 -0.000699029 -0.0010822  -6.24329e-05 -0.000665815 -0.0010822  -0.000107421 -0.000529565 -0.0010822  -0.000135145 -0.000466586 -0.0010822  -0.00042132 -0.00040257 -0.0010822  
            </DataArray>
         </PointData> 
      </Piece>
   </UnstructuredGrid> 
</VTKFile>
