<?xml version="1.0"?>
<VTKFile type="UnstructuredGrid" version="0.1" byte_order="LittleEndian">
   <UnstructuredGrid>
      <Piece NumberOfPoints="81" NumberOfCells="0" > 
         <Points> 
            <DataArray type="Float64" Name="Position" NumberOfComponents="3" format="ascii"> 
               0  0  15  
               0.375  0  15  
               0.75  0  15  
               1.125  0  15  
               1.5  0  15  
               1.875  0  15  
               2.25  0  15  
               2.625  0  15  
               3  0  15  
               0  0.375  15  
               0.375  0.375  15  
               0.75  0.375  15  
               1.125  0.375  15  
               1.5  0.375  15  
               1.875  0.375  15  
               2.25  0.375  15  
               2.625  0.375  15  
               3  0.375  15  
               0  0.75  15  
               0.375  0.75  15  
               0.75  0.75  15  
               1.125  0.75  15  
               1.5  0.75  15  
               1.875  0.75  15  
               2.25  0.75  15  
               2.625  0.75  15  
               3  0.75  15  
               0  1.125  15  
               0.375  1.125  15  
               0.75  1.125  15  
               1.125  1.125  15  
               1.5  1.125  15  
               1.875  1.125  15  
               2.25  1.125  15  
               2.625  1.125  15  
               3  1.125  15  
               0  1.5  15  
               0.375  1.5  15  
               0.75  1.5  15  
               1.125  1.5  15  
               1.5  1.5  15  
               1.875  1.5  15  
               2.25  1.5  15  
               2.625  1.5  15  
               3  1.5  15  
               0  1.875  15  
               0.375  1.875  15  
               0.75  1.875  15  
               1.125  1.875  15  
               1.5  1.875  15  
               1.875  1.875  15  
               2.25  1.875  15  
               2.625  1.875  15  
               3  1.875  15  
               0  2.25  15  
               0.375  2.25  15  
               0.75  2.25  15  
               1.125  2.25  15  
               1.5  2.25  15  
               1.875  2.25  15  
               2.25  2.25  15  
               2.625  2.25  15  
               3  2.25  15  
               0  2.625  15  
               0.375  2.625  15  
               0.75  2.625  15  
               1.125  2.625  15  
               1.5  2.625  15  
               1.875  2.625  15  
               2.25  2.625  15  
               2.625  2.625  15  
               3  2.625  15  
               0  3  15  
               0.375  3  15  
               0.75  3  15  
               1.125  3  15  
               1.5  3  15  
               1.875  3  15  
               2.25  3  15  
               2.625  3  15  
               3  3  15  
            </DataArray>
         </Points> 

         <Cells>
            <DataArray type="Int32" Name="connectivity" NumberOfComponents="1" format="ascii">
               
            </DataArray> 
            <DataArray type="Int32" Name="offsets" NumberOfComponents="1" format="ascii">
               
            </DataArray>
            <DataArray type="UInt8"  Name="types" NumberOfComponents="1" format="ascii">
               
            </DataArray>
         </Cells>
         <PointData Scalars="Rank " Vectors="Displacement Velocity Traction ">
            <DataArray type="UInt32" Name="Rank" NumberOfComponents="1" format="ascii">
               0 0 0 0 0 0 0 0 0 0 0 0 0 0 0 0 0 0 0 0 0 0 0 0 0 0 0 0 0 0 0 0 0 0 0 0 0 0 0 0 0 0 0 0 0 0 0 0 0 0 0 0 0 0 0 0 0 0 0 0 0 0 0 0 0 0 0 0 0 0 0 0 0 0 0 0 0 0 0 0 0 
            </DataArray>
            <DataArray type="Float64" Name="Displacement" NumberOfComponents="3" format="ascii">
               0 0 0  0 0 0  0 0 0  0 0 0  0 0 0  0 0 0  0 0 0  0 0 0  0 0 0  0 0 0  0 0 0  0 0 0  0 0 0  0 0 0  0 0 0  0 0 0  0 0 0  0 0 0  0 0 0  0 0 0  0 0 0  0 0 0  0 0 0  0 0 0  0 0 0  0 0 0  0 0 0  0 0 0  0 0 0  0 0 0  0 0 0  0 0 0  0 0 0  0 0 0  0 0 0  0 0 0  0 0 0  0 0 0  0 0 0  0 0 0  0 0 0  0 0 0  0 0 0  0 0 0  0 0 0  0 0 0  0 0 0  0 0 0  0 0 0  0 0 0  0 0 0  0 0 0  0 0 0  0 0 0  0 0 0  0 0 0  0 0 0  0 0 0  0 0 0  0 0 0  0 0 0  0 0 0  0 0 0  0 0 0  0 0 0  0 0 0  0 0 0  0 0 0  0 0 0  0 0 0  0 0 0  0 0 0  0 0 0  0 0 0  0 0 0  0 0 0  0 0 0  0 0 0  0 0 0  0 0 0  0 0 0  
            </DataArray>
            <DataArray type="Float64" Name="Velocity" NumberOfComponents="3" format="ascii">
               0 0 0  0 0 0  0 0 0  0 0 0  0 0 0  0 0 0  0 0 0  0 0 0  0 0 0  0 0 0  0 0 0  0 0 0  0 0 0  0 0 0  0 0 0  0 0 0  0 0 0  0 0 0  0 0 0  0 0 0  0 0 0  0 0 0  0 0 0  0 0 0  0 0 0  0 0 0  0 0 0  0 0 0  0 0 0  0 0 0  0 0 0  0 0 0  0 0 0  0 0 0  0 0 0  0 0 0  0 0 0  0 0 0  0 0 0  0 0 0  0 0 0  0 0 0  0 0 0  0 0 0  0 0 0  0 0 0  0 0 0  0 0 0  0 0 0  0 0 0  0 0 0  0 0 0  0 0 0  0 0 0  0 0 0  0 0 0  0 0 0  0 0 0  0 0 0  0 0 0  0 0 0  0 0 0  0 0 0  0 0 0  0 0 0  0 0 0  0 0 0  0 0 0  0 0 0  0 0 0  0 0 0  0 0 0  0 0 0  0 0 0  0 0 0  0 0 0  0 0 0  0 0 0  0 0 0  0 0 0  0 0 0  
            </DataArray>
            <DataArray type="Float64" Name="Traction" NumberOfComponents="3" format="ascii">
               0.0205975 0.0201471 -0.035991  0.0107587 0.02312 -0.035991  0.00476818 0.024081 -0.035991  0.00169886 0.0252305 -0.035991  -0.00218033 0.0255355 -0.035991  -0.00456431 0.0256269 -0.035991  -0.00660198 0.0250808 -0.035991  -0.0160124 0.0252999 -0.035991  -0.0280557 0.0272427 -0.035991  0.0236698 0.0101763 -0.035991  0.0130711 0.0125598 -0.035991  0.0072599 0.0124315 -0.035991  0.0036087 0.0128782 -0.035991  -0.000384236 0.0128315 -0.035991  -0.00289077 0.0131836 -0.035991  -0.00419134 0.0127759 -0.035991  -0.0131264 0.0130976 -0.035991  -0.0256508 0.0157863 -0.035991  0.0246273 0.00384552 -0.035991  0.0127723 0.00660623 -0.035991  0.00710193 0.00662206 -0.035991  0.00377433 0.00663453 -0.035991  -6.55009e-05 0.00646929 -0.035991  -0.00302884 0.00684958 -0.035991  -0.00441458 0.00669149 -0.035991  -0.0128306 0.00636988 -0.035991  -0.0252492 0.00807713 -0.035991  0.0252473 0.000595076 -0.035991  0.0128458 0.00287627 -0.035991  0.0068749 0.00321593 -0.035991  0.00360975 0.00318226 -0.035991  5.72805e-06 0.00305757 -0.035991  -0.0029719 0.00322579 -0.035991  -0.00468031 0.00318068 -0.035991  -0.0130256 0.00308447 -0.035991  -0.025592 0.00474029 -0.035991  0.0251102 -0.00280293 -0.035991  0.0123706 -0.000823453 -0.035991  0.00641225 -0.000320122 -0.035991  0.00336319 -0.000342713 -0.035991  -0.000192515 -0.000668046 -0.035991  -0.00289822 -0.000553757 -0.035991  -0.00441449 -0.000515873 -0.035991  -0.0127495 -0.000285487 -0.035991  -0.025633 0.00133053 -0.035991  0.0254201 -0.00464268 -0.035991  0.0123069 -0.00271135 -0.035991  0.0063756 -0.0026972 -0.035991  0.00316837 -0.0029868 -0.035991  -0.000197268 -0.00328294 -0.035991  -0.002764 -0.00327342 -0.035991  -0.00422458 -0.00328861 -0.035991  -0.012544 -0.00303178 -0.035991  -0.025448 -0.001312 -0.035991  0.0243287 -0.00605434 -0.035991  0.0111512 -0.00330067 -0.035991  0.00566293 -0.00348997 -0.035991  0.00277758 -0.00432103 -0.035991  -0.000242446 -0.00447908 -0.035991  -0.00263031 -0.00458329 -0.035991  -0.00400219 -0.00460776 -0.035991  -0.0118968 -0.00503384 -0.035991  -0.0244127 -0.00287983 -0.035991  0.0252928 -0.0140956 -0.035991  0.011291 -0.0114143 -0.035991  0.00538605 -0.0113021 -0.035991  0.00284165 -0.012275 -0.035991  0.000167625 -0.0124383 -0.035991  -0.00220796 -0.0126436 -0.035991  -0.00426081 -0.0123546 -0.035991  -0.0118016 -0.0124241 -0.035991  -0.0236762 -0.00983075 -0.035991  0.0282163 -0.029164 -0.035991  0.0137507 -0.0257219 -0.035991  0.00742166 -0.0245762 -0.035991  0.00471937 -0.0253351 -0.035991  0.00196587 -0.0250657 -0.035991  -9.15683e-05 -0.0254589 -0.035991  -0.00184005 -0.0250541 -0.035991  -0.00911777 -0.0243186 -0.035991  -0.0208407 -0.0214443 -0.035991  
            </DataArray>
         </PointData> 
      </Piece>
   </UnstructuredGrid> 
</VTKFile>
