<?xml version="1.0"?>
<VTKFile type="UnstructuredGrid" version="0.1" byte_order="LittleEndian">
   <UnstructuredGrid>
      <Piece NumberOfPoints="81" NumberOfCells="0" > 
         <Points> 
            <DataArray type="Float64" Name="Position" NumberOfComponents="3" format="ascii"> 
               0  0  15  
               0.375  0  15  
               0.75  0  15  
               1.125  0  15  
               1.5  0  15  
               1.875  0  15  
               2.25  0  15  
               2.625  0  15  
               3  0  15  
               0  0.375  15  
               0.375  0.375  15  
               0.75  0.375  15  
               1.125  0.375  15  
               1.5  0.375  15  
               1.875  0.375  15  
               2.25  0.375  15  
               2.625  0.375  15  
               3  0.375  15  
               0  0.75  15  
               0.375  0.75  15  
               0.75  0.75  15  
               1.125  0.75  15  
               1.5  0.75  15  
               1.875  0.75  15  
               2.25  0.75  15  
               2.625  0.75  15  
               3  0.75  15  
               0  1.125  15  
               0.375  1.125  15  
               0.75  1.125  15  
               1.125  1.125  15  
               1.5  1.125  15  
               1.875  1.125  15  
               2.25  1.125  15  
               2.625  1.125  15  
               3  1.125  15  
               0  1.5  15  
               0.375  1.5  15  
               0.75  1.5  15  
               1.125  1.5  15  
               1.5  1.5  15  
               1.875  1.5  15  
               2.25  1.5  15  
               2.625  1.5  15  
               3  1.5  15  
               0  1.875  15  
               0.375  1.875  15  
               0.75  1.875  15  
               1.125  1.875  15  
               1.5  1.875  15  
               1.875  1.875  15  
               2.25  1.875  15  
               2.625  1.875  15  
               3  1.875  15  
               0  2.25  15  
               0.375  2.25  15  
               0.75  2.25  15  
               1.125  2.25  15  
               1.5  2.25  15  
               1.875  2.25  15  
               2.25  2.25  15  
               2.625  2.25  15  
               3  2.25  15  
               0  2.625  15  
               0.375  2.625  15  
               0.75  2.625  15  
               1.125  2.625  15  
               1.5  2.625  15  
               1.875  2.625  15  
               2.25  2.625  15  
               2.625  2.625  15  
               3  2.625  15  
               0  3  15  
               0.375  3  15  
               0.75  3  15  
               1.125  3  15  
               1.5  3  15  
               1.875  3  15  
               2.25  3  15  
               2.625  3  15  
               3  3  15  
            </DataArray>
         </Points> 

         <Cells>
            <DataArray type="Int32" Name="connectivity" NumberOfComponents="1" format="ascii">
               
            </DataArray> 
            <DataArray type="Int32" Name="offsets" NumberOfComponents="1" format="ascii">
               
            </DataArray>
            <DataArray type="UInt8"  Name="types" NumberOfComponents="1" format="ascii">
               
            </DataArray>
         </Cells>
         <PointData Scalars="Rank " Vectors="Displacement Velocity Traction ">
            <DataArray type="UInt32" Name="Rank" NumberOfComponents="1" format="ascii">
               0 0 0 0 0 0 0 0 0 0 0 0 0 0 0 0 0 0 0 0 0 0 0 0 0 0 0 0 0 0 0 0 0 0 0 0 0 0 0 0 0 0 0 0 0 0 0 0 0 0 0 0 0 0 0 0 0 0 0 0 0 0 0 0 0 0 0 0 0 0 0 0 0 0 0 0 0 0 0 0 0 
            </DataArray>
            <DataArray type="Float64" Name="Displacement" NumberOfComponents="3" format="ascii">
               0 0 0  0 0 0  0 0 0  0 0 0  0 0 0  0 0 0  0 0 0  0 0 0  0 0 0  0 0 0  0 0 0  0 0 0  0 0 0  0 0 0  0 0 0  0 0 0  0 0 0  0 0 0  0 0 0  0 0 0  0 0 0  0 0 0  0 0 0  0 0 0  0 0 0  0 0 0  0 0 0  0 0 0  0 0 0  0 0 0  0 0 0  0 0 0  0 0 0  0 0 0  0 0 0  0 0 0  0 0 0  0 0 0  0 0 0  0 0 0  0 0 0  0 0 0  0 0 0  0 0 0  0 0 0  0 0 0  0 0 0  0 0 0  0 0 0  0 0 0  0 0 0  0 0 0  0 0 0  0 0 0  0 0 0  0 0 0  0 0 0  0 0 0  0 0 0  0 0 0  0 0 0  0 0 0  0 0 0  0 0 0  0 0 0  0 0 0  0 0 0  0 0 0  0 0 0  0 0 0  0 0 0  0 0 0  0 0 0  0 0 0  0 0 0  0 0 0  0 0 0  0 0 0  0 0 0  0 0 0  0 0 0  
            </DataArray>
            <DataArray type="Float64" Name="Velocity" NumberOfComponents="3" format="ascii">
               0 0 0  0 0 0  0 0 0  0 0 0  0 0 0  0 0 0  0 0 0  0 0 0  0 0 0  0 0 0  0 0 0  0 0 0  0 0 0  0 0 0  0 0 0  0 0 0  0 0 0  0 0 0  0 0 0  0 0 0  0 0 0  0 0 0  0 0 0  0 0 0  0 0 0  0 0 0  0 0 0  0 0 0  0 0 0  0 0 0  0 0 0  0 0 0  0 0 0  0 0 0  0 0 0  0 0 0  0 0 0  0 0 0  0 0 0  0 0 0  0 0 0  0 0 0  0 0 0  0 0 0  0 0 0  0 0 0  0 0 0  0 0 0  0 0 0  0 0 0  0 0 0  0 0 0  0 0 0  0 0 0  0 0 0  0 0 0  0 0 0  0 0 0  0 0 0  0 0 0  0 0 0  0 0 0  0 0 0  0 0 0  0 0 0  0 0 0  0 0 0  0 0 0  0 0 0  0 0 0  0 0 0  0 0 0  0 0 0  0 0 0  0 0 0  0 0 0  0 0 0  0 0 0  0 0 0  0 0 0  0 0 0  
            </DataArray>
            <DataArray type="Float64" Name="Traction" NumberOfComponents="3" format="ascii">
               0.0224776 0.0214936 0.0523403  0.0122713 0.0189537 0.0523403  0.00539586 0.0149941 0.0523403  0.00339319 0.0162484 0.0523403  -0.00422584 0.0174455 0.0523403  -0.00659653 0.0167094 0.0523403  -0.00352563 0.0162518 0.0523403  -0.0201863 0.023784 0.0523403  -0.0338081 0.0305325 0.0523403  0.0199972 0.0111319 0.0523403  0.0119801 0.010963 0.0523403  0.0081846 0.00730987 0.0523403  0.00555225 0.00730226 0.0523403  -0.00216742 0.0074524 0.0523403  -0.0043826 0.00810873 0.0523403  0.00246653 0.00755264 0.0523403  -0.0127545 0.0123815 0.0523403  -0.0251857 0.0186764 0.0523403  0.0160929 0.00377105 0.0523403  0.0081037 0.00688075 0.0523403  0.00651955 0.00542463 0.0523403  0.00594847 0.00462301 0.0523403  -0.00133101 0.00441416 0.0523403  -0.00447591 0.00529462 0.0523403  0.0050014 0.00522453 0.0523403  -0.00807017 0.00598373 0.0523403  -0.0172683 0.00835754 0.0523403  0.0166161 0.00145789 0.0523403  0.00762437 0.00407789 0.0523403  0.00539871 0.00466088 0.0523403  0.00520257 0.00409534 0.0523403  -0.00117093 0.0039387 0.0523403  -0.00406969 0.00432421 0.0523403  0.00459841 0.00438867 0.0523403  -0.00794693 0.0044684 0.0523403  -0.016838 0.00667115 0.0523403  0.0171379 -0.00555255 0.0523403  0.0072289 -0.00326042 0.0523403  0.00482337 -0.00223661 0.0523403  0.00490595 -0.00218927 0.0523403  -0.0017074 -0.0028983 0.0523403  -0.00417923 -0.00255992 0.0523403  0.00469831 -0.00273144 0.0523403  -0.00789169 -0.00157982 0.0523403  -0.0180827 0.000141119 0.0523403  0.0164997 -0.00716047 0.0523403  0.00729402 -0.00464817 0.0523403  0.00514097 -0.00459344 0.0523403  0.00481612 -0.00462495 0.0523403  -0.00153976 -0.00522008 0.0523403  -0.00377341 -0.00494974 0.0523403  0.00554335 -0.00575116 0.0523403  -0.00710139 -0.00485505 0.0523403  -0.0165589 -0.00343803 0.0523403  0.0152935 -0.00315668 0.0523403  0.00578648 0.00322253 0.0523403  0.00436978 0.00579865 0.0523403  0.00444703 0.0046802 0.0523403  -0.00181231 0.00420701 0.0523403  -0.00438114 0.00468364 0.0523403  0.00472598 0.00353561 0.0523403  -0.00700914 -0.000559496 0.0523403  -0.0155924 0.000150649 0.0523403  0.0236367 -0.018033 0.0523403  0.0103999 -0.0108135 0.0523403  0.00517737 -0.00633007 0.0523403  0.00468605 -0.00719783 0.0523403  -0.000478353 -0.00775843 0.0523403  -0.00331356 -0.00750442 0.0523403  0.000831237 -0.00788897 0.0523403  -0.0101875 -0.0113058 0.0523403  -0.0193292 -0.011403 0.0523403  0.0313697 -0.0347907 0.0523403  0.0164171 -0.0250667 0.0523403  0.00792161 -0.0163351 0.0523403  0.00714429 -0.0165081 0.0523403  0.00147626 -0.0175336 0.0523403  -0.00139212 -0.0168182 0.0523403  0.00189001 -0.0167077 0.0523403  -0.0100837 -0.0204449 0.0523403  -0.0216209 -0.0228126 0.0523403  
            </DataArray>
         </PointData> 
      </Piece>
   </UnstructuredGrid> 
</VTKFile>
