<?xml version="1.0"?>
<VTKFile type="UnstructuredGrid" version="0.1" byte_order="LittleEndian">
   <UnstructuredGrid>
      <Piece NumberOfPoints="81" NumberOfCells="0" > 
         <Points> 
            <DataArray type="Float64" Name="Position" NumberOfComponents="3" format="ascii"> 
               0  0  15  
               0.375  0  15  
               0.75  0  15  
               1.125  0  15  
               1.5  0  15  
               1.875  0  15  
               2.25  0  15  
               2.625  0  15  
               3  0  15  
               0  0.375  15  
               0.375  0.375  15  
               0.75  0.375  15  
               1.125  0.375  15  
               1.5  0.375  15  
               1.875  0.375  15  
               2.25  0.375  15  
               2.625  0.375  15  
               3  0.375  15  
               0  0.75  15  
               0.375  0.75  15  
               0.75  0.75  15  
               1.125  0.75  15  
               1.5  0.75  15  
               1.875  0.75  15  
               2.25  0.75  15  
               2.625  0.75  15  
               3  0.75  15  
               0  1.125  15  
               0.375  1.125  15  
               0.75  1.125  15  
               1.125  1.125  15  
               1.5  1.125  15  
               1.875  1.125  15  
               2.25  1.125  15  
               2.625  1.125  15  
               3  1.125  15  
               0  1.5  15  
               0.375  1.5  15  
               0.75  1.5  15  
               1.125  1.5  15  
               1.5  1.5  15  
               1.875  1.5  15  
               2.25  1.5  15  
               2.625  1.5  15  
               3  1.5  15  
               0  1.875  15  
               0.375  1.875  15  
               0.75  1.875  15  
               1.125  1.875  15  
               1.5  1.875  15  
               1.875  1.875  15  
               2.25  1.875  15  
               2.625  1.875  15  
               3  1.875  15  
               0  2.25  15  
               0.375  2.25  15  
               0.75  2.25  15  
               1.125  2.25  15  
               1.5  2.25  15  
               1.875  2.25  15  
               2.25  2.25  15  
               2.625  2.25  15  
               3  2.25  15  
               0  2.625  15  
               0.375  2.625  15  
               0.75  2.625  15  
               1.125  2.625  15  
               1.5  2.625  15  
               1.875  2.625  15  
               2.25  2.625  15  
               2.625  2.625  15  
               3  2.625  15  
               0  3  15  
               0.375  3  15  
               0.75  3  15  
               1.125  3  15  
               1.5  3  15  
               1.875  3  15  
               2.25  3  15  
               2.625  3  15  
               3  3  15  
            </DataArray>
         </Points> 

         <Cells>
            <DataArray type="Int32" Name="connectivity" NumberOfComponents="1" format="ascii">
               
            </DataArray> 
            <DataArray type="Int32" Name="offsets" NumberOfComponents="1" format="ascii">
               
            </DataArray>
            <DataArray type="UInt8"  Name="types" NumberOfComponents="1" format="ascii">
               
            </DataArray>
         </Cells>
         <PointData Scalars="Rank " Vectors="Displacement Velocity Traction ">
            <DataArray type="UInt32" Name="Rank" NumberOfComponents="1" format="ascii">
               0 0 0 0 0 0 0 0 0 0 0 0 0 0 0 0 0 0 0 0 0 0 0 0 0 0 0 0 0 0 0 0 0 0 0 0 0 0 0 0 0 0 0 0 0 0 0 0 0 0 0 0 0 0 0 0 0 0 0 0 0 0 0 0 0 0 0 0 0 0 0 0 0 0 0 0 0 0 0 0 0 
            </DataArray>
            <DataArray type="Float64" Name="Displacement" NumberOfComponents="3" format="ascii">
               0 0 0  0 0 0  0 0 0  0 0 0  0 0 0  0 0 0  0 0 0  0 0 0  0 0 0  0 0 0  0 0 0  0 0 0  0 0 0  0 0 0  0 0 0  0 0 0  0 0 0  0 0 0  0 0 0  0 0 0  0 0 0  0 0 0  0 0 0  0 0 0  0 0 0  0 0 0  0 0 0  0 0 0  0 0 0  0 0 0  0 0 0  0 0 0  0 0 0  0 0 0  0 0 0  0 0 0  0 0 0  0 0 0  0 0 0  0 0 0  0 0 0  0 0 0  0 0 0  0 0 0  0 0 0  0 0 0  0 0 0  0 0 0  0 0 0  0 0 0  0 0 0  0 0 0  0 0 0  0 0 0  0 0 0  0 0 0  0 0 0  0 0 0  0 0 0  0 0 0  0 0 0  0 0 0  0 0 0  0 0 0  0 0 0  0 0 0  0 0 0  0 0 0  0 0 0  0 0 0  0 0 0  0 0 0  0 0 0  0 0 0  0 0 0  0 0 0  0 0 0  0 0 0  0 0 0  0 0 0  0 0 0  
            </DataArray>
            <DataArray type="Float64" Name="Velocity" NumberOfComponents="3" format="ascii">
               0 0 0  0 0 0  0 0 0  0 0 0  0 0 0  0 0 0  0 0 0  0 0 0  0 0 0  0 0 0  0 0 0  0 0 0  0 0 0  0 0 0  0 0 0  0 0 0  0 0 0  0 0 0  0 0 0  0 0 0  0 0 0  0 0 0  0 0 0  0 0 0  0 0 0  0 0 0  0 0 0  0 0 0  0 0 0  0 0 0  0 0 0  0 0 0  0 0 0  0 0 0  0 0 0  0 0 0  0 0 0  0 0 0  0 0 0  0 0 0  0 0 0  0 0 0  0 0 0  0 0 0  0 0 0  0 0 0  0 0 0  0 0 0  0 0 0  0 0 0  0 0 0  0 0 0  0 0 0  0 0 0  0 0 0  0 0 0  0 0 0  0 0 0  0 0 0  0 0 0  0 0 0  0 0 0  0 0 0  0 0 0  0 0 0  0 0 0  0 0 0  0 0 0  0 0 0  0 0 0  0 0 0  0 0 0  0 0 0  0 0 0  0 0 0  0 0 0  0 0 0  0 0 0  0 0 0  0 0 0  0 0 0  
            </DataArray>
            <DataArray type="Float64" Name="Traction" NumberOfComponents="3" format="ascii">
               6.38863e-08 6.58369e-08 -3.82815e-08  -3.45186e-08 1.58143e-08 -3.82815e-08  2.05426e-09 -4.55984e-08 -3.82815e-08  2.24004e-08 -1.3685e-09 -3.82815e-08  1.5855e-09 5.40884e-08 -3.82815e-08  -1.77822e-08 1.79012e-08 -3.82815e-08  -6.1606e-09 -3.0545e-08 -3.82815e-08  2.32556e-08 2.84674e-08 -3.82815e-08  -6.95149e-08 7.4768e-08 -3.82815e-08  1.83207e-08 -3.1392e-08 -3.82815e-08  -7.14449e-09 -4.85304e-09 -3.82815e-08  1.04249e-10 1.05576e-08 -3.82815e-08  3.70729e-09 -7.77472e-10 -3.82815e-08  6.60931e-10 -1.3105e-08 -3.82815e-08  -3.60066e-09 -4.16787e-09 -3.82815e-08  -3.19669e-09 4.18878e-09 -3.82815e-08  6.99385e-09 -2.70504e-09 -3.82815e-08  -4.17466e-08 -1.70493e-08 -3.82815e-08  -3.5267e-08 -2.94477e-09 -3.82815e-08  8.38521e-09 -3.85865e-10 -3.82815e-08  -3.58783e-09 -1.91914e-09 -3.82815e-08  -3.22191e-09 2.11586e-09 -3.82815e-08  9.18115e-11 4.04328e-09 -3.82815e-08  2.65538e-10 7.98816e-10 -3.82815e-08  9.30693e-10 -2.22141e-09 -3.82815e-08  1.52493e-09 2.25608e-09 -3.82815e-08  -1.26127e-08 4.007e-09 -3.82815e-08  -2.3273e-08 6.31631e-09 -3.82815e-08  6.69252e-09 6.29678e-10 -3.82815e-08  -1.34226e-12 -1.82303e-09 -3.82815e-08  -1.33675e-09 2.68202e-09 -3.82815e-08  -1.74962e-09 6.21048e-09 -3.82815e-08  -8.09975e-10 2.86384e-09 -3.82815e-08  1.18823e-11 5.1048e-10 -3.82815e-08  2.29567e-09 1.40773e-09 -3.82815e-08  -1.27002e-08 5.30624e-09 -3.82815e-08  -1.36725e-08 6.95775e-10 -3.82815e-08  2.08372e-09 5.95692e-10 -3.82815e-08  1.39493e-09 -5.02595e-10 -3.82815e-08  3.73401e-09 -1.32615e-10 -3.82815e-08  -1.68509e-09 1.25725e-09 -3.82815e-08  -4.32434e-09 1.23065e-09 -3.82815e-08  -1.26769e-09 7.85423e-10 -3.82815e-08  4.81765e-09 5.71236e-10 -3.82815e-08  -2.28408e-08 8.61864e-10 -3.82815e-08  -1.86571e-08 -2.81237e-09 -3.82815e-08  5.79494e-09 1.2131e-09 -3.82815e-08  -1.06868e-10 4.89635e-09 -3.82815e-08  -1.42082e-09 -8.65069e-10 -3.82815e-08  -9.14962e-10 -6.18718e-09 -3.82815e-08  -3.03205e-10 -1.54766e-09 -3.82815e-08  -7.464e-10 1.98403e-09 -3.82815e-08  1.79143e-09 -8.49019e-12 -3.82815e-08  -1.94467e-08 -3.96493e-09 -3.82815e-08  -2.04211e-08 1.46437e-09 -3.82815e-08  1.01409e-08 4.92678e-10 -3.82815e-08  -1.31191e-10 4.52348e-10 -3.82815e-08  -7.12955e-09 -1.32388e-09 -3.82815e-08  -1.06477e-09 -2.89587e-09 -3.82815e-08  4.20703e-09 -8.75611e-10 -3.82815e-08  1.52714e-10 -1.48153e-10 -3.82815e-08  -1.12367e-09 -2.04689e-09 -3.82815e-08  2.72336e-10 -2.22492e-09 -3.82815e-08  -2.08424e-08 -5.16808e-11 -3.82815e-08  6.41204e-09 -2.90842e-09 -3.82815e-08  -1.81184e-10 -5.92554e-09 -3.82815e-08  -2.61681e-09 -1.21511e-10 -3.82815e-08  1.79941e-10 5.94919e-09 -3.82815e-08  1.86458e-09 2.91369e-09 -3.82815e-08  -2.02503e-09 7.07727e-11 -3.82815e-08  1.06763e-09 2.09058e-09 -3.82815e-08  -1.1619e-08 6.56788e-09 -3.82815e-08  -2.16821e-08 2.43988e-08 -3.82815e-08  4.35682e-09 1.41365e-08 -3.82815e-08  1.2488e-09 7.91935e-09 -3.82815e-08  4.17736e-09 -1.28191e-08 -3.82815e-08  1.4232e-09 -2.44184e-08 -3.82815e-08  -1.78859e-09 -1.10474e-08 -3.82815e-08  -1.71728e-09 -4.27196e-09 -3.82815e-08  5.11929e-09 -1.11854e-08 -3.82815e-08  -2.41394e-08 -2.2297e-08 -3.82815e-08  
            </DataArray>
         </PointData> 
      </Piece>
   </UnstructuredGrid> 
</VTKFile>
