<?xml version="1.0"?>
<VTKFile type="UnstructuredGrid" version="0.1" byte_order="LittleEndian">
   <UnstructuredGrid>
      <Piece NumberOfPoints="81" NumberOfCells="0" > 
         <Points> 
            <DataArray type="Float64" Name="Position" NumberOfComponents="3" format="ascii"> 
               0  0  15  
               0.375  0  15  
               0.75  0  15  
               1.125  0  15  
               1.5  0  15  
               1.875  0  15  
               2.25  0  15  
               2.625  0  15  
               3  0  15  
               0  0.375  15  
               0.375  0.375  15  
               0.75  0.375  15  
               1.125  0.375  15  
               1.5  0.375  15  
               1.875  0.375  15  
               2.25  0.375  15  
               2.625  0.375  15  
               3  0.375  15  
               0  0.75  15  
               0.375  0.75  15  
               0.75  0.75  15  
               1.125  0.75  15  
               1.5  0.75  15  
               1.875  0.75  15  
               2.25  0.75  15  
               2.625  0.75  15  
               3  0.75  15  
               0  1.125  15  
               0.375  1.125  15  
               0.75  1.125  15  
               1.125  1.125  15  
               1.5  1.125  15  
               1.875  1.125  15  
               2.25  1.125  15  
               2.625  1.125  15  
               3  1.125  15  
               0  1.5  15  
               0.375  1.5  15  
               0.75  1.5  15  
               1.125  1.5  15  
               1.5  1.5  15  
               1.875  1.5  15  
               2.25  1.5  15  
               2.625  1.5  15  
               3  1.5  15  
               0  1.875  15  
               0.375  1.875  15  
               0.75  1.875  15  
               1.125  1.875  15  
               1.5  1.875  15  
               1.875  1.875  15  
               2.25  1.875  15  
               2.625  1.875  15  
               3  1.875  15  
               0  2.25  15  
               0.375  2.25  15  
               0.75  2.25  15  
               1.125  2.25  15  
               1.5  2.25  15  
               1.875  2.25  15  
               2.25  2.25  15  
               2.625  2.25  15  
               3  2.25  15  
               0  2.625  15  
               0.375  2.625  15  
               0.75  2.625  15  
               1.125  2.625  15  
               1.5  2.625  15  
               1.875  2.625  15  
               2.25  2.625  15  
               2.625  2.625  15  
               3  2.625  15  
               0  3  15  
               0.375  3  15  
               0.75  3  15  
               1.125  3  15  
               1.5  3  15  
               1.875  3  15  
               2.25  3  15  
               2.625  3  15  
               3  3  15  
            </DataArray>
         </Points> 

         <Cells>
            <DataArray type="Int32" Name="connectivity" NumberOfComponents="1" format="ascii">
               
            </DataArray> 
            <DataArray type="Int32" Name="offsets" NumberOfComponents="1" format="ascii">
               
            </DataArray>
            <DataArray type="UInt8"  Name="types" NumberOfComponents="1" format="ascii">
               
            </DataArray>
         </Cells>
         <PointData Scalars="Rank " Vectors="Displacement Velocity Traction ">
            <DataArray type="UInt32" Name="Rank" NumberOfComponents="1" format="ascii">
               0 0 0 0 0 0 0 0 0 0 0 0 0 0 0 0 0 0 0 0 0 0 0 0 0 0 0 0 0 0 0 0 0 0 0 0 0 0 0 0 0 0 0 0 0 0 0 0 0 0 0 0 0 0 0 0 0 0 0 0 0 0 0 0 0 0 0 0 0 0 0 0 0 0 0 0 0 0 0 0 0 
            </DataArray>
            <DataArray type="Float64" Name="Displacement" NumberOfComponents="3" format="ascii">
               0 0 0  0 0 0  0 0 0  0 0 0  0 0 0  0 0 0  0 0 0  0 0 0  0 0 0  0 0 0  0 0 0  0 0 0  0 0 0  0 0 0  0 0 0  0 0 0  0 0 0  0 0 0  0 0 0  0 0 0  0 0 0  0 0 0  0 0 0  0 0 0  0 0 0  0 0 0  0 0 0  0 0 0  0 0 0  0 0 0  0 0 0  0 0 0  0 0 0  0 0 0  0 0 0  0 0 0  0 0 0  0 0 0  0 0 0  0 0 0  0 0 0  0 0 0  0 0 0  0 0 0  0 0 0  0 0 0  0 0 0  0 0 0  0 0 0  0 0 0  0 0 0  0 0 0  0 0 0  0 0 0  0 0 0  0 0 0  0 0 0  0 0 0  0 0 0  0 0 0  0 0 0  0 0 0  0 0 0  0 0 0  0 0 0  0 0 0  0 0 0  0 0 0  0 0 0  0 0 0  0 0 0  0 0 0  0 0 0  0 0 0  0 0 0  0 0 0  0 0 0  0 0 0  0 0 0  0 0 0  0 0 0  
            </DataArray>
            <DataArray type="Float64" Name="Velocity" NumberOfComponents="3" format="ascii">
               0 0 0  0 0 0  0 0 0  0 0 0  0 0 0  0 0 0  0 0 0  0 0 0  0 0 0  0 0 0  0 0 0  0 0 0  0 0 0  0 0 0  0 0 0  0 0 0  0 0 0  0 0 0  0 0 0  0 0 0  0 0 0  0 0 0  0 0 0  0 0 0  0 0 0  0 0 0  0 0 0  0 0 0  0 0 0  0 0 0  0 0 0  0 0 0  0 0 0  0 0 0  0 0 0  0 0 0  0 0 0  0 0 0  0 0 0  0 0 0  0 0 0  0 0 0  0 0 0  0 0 0  0 0 0  0 0 0  0 0 0  0 0 0  0 0 0  0 0 0  0 0 0  0 0 0  0 0 0  0 0 0  0 0 0  0 0 0  0 0 0  0 0 0  0 0 0  0 0 0  0 0 0  0 0 0  0 0 0  0 0 0  0 0 0  0 0 0  0 0 0  0 0 0  0 0 0  0 0 0  0 0 0  0 0 0  0 0 0  0 0 0  0 0 0  0 0 0  0 0 0  0 0 0  0 0 0  0 0 0  0 0 0  
            </DataArray>
            <DataArray type="Float64" Name="Traction" NumberOfComponents="3" format="ascii">
               4.85057e-08 4.99886e-08 -2.94457e-08  -2.75243e-08 1.26135e-08 -2.94457e-08  1.83882e-09 -3.61868e-08 -2.94457e-08  1.76108e-08 -1.56924e-09 -2.94457e-08  1.0816e-09 4.25757e-08 -2.94457e-08  -1.38909e-08 1.38953e-08 -2.94457e-08  -5.11304e-09 -2.47128e-08 -2.94457e-08  1.83951e-08 2.20238e-08 -2.94457e-08  -5.42045e-08 5.82565e-08 -2.94457e-08  1.42762e-08 -2.50939e-08 -2.94457e-08  -5.93887e-09 -4.13514e-09 -2.94457e-08  1.35717e-10 8.6373e-09 -2.94457e-08  2.9393e-09 -8.02822e-10 -2.94457e-08  5.3316e-10 -1.10582e-08 -2.94457e-08  -2.82416e-09 -3.61604e-09 -2.94457e-08  -2.57274e-09 3.41158e-09 -2.94457e-08  5.81773e-09 -2.34155e-09 -2.94457e-08  -3.23507e-08 -1.37113e-08 -2.94457e-08  -2.82283e-08 -2.15731e-09 -2.94457e-08  6.8871e-09 -2.68957e-10 -2.94457e-08  -3.10878e-09 -1.8168e-09 -2.94457e-08  -2.72965e-09 1.47927e-09 -2.94457e-08  5.80132e-11 3.2426e-09 -2.94457e-08  4.15103e-10 5.74621e-10 -2.94457e-08  7.919e-10 -1.97279e-09 -2.94457e-08  1.30731e-09 1.77382e-09 -2.94457e-08  -9.71786e-09 3.48475e-09 -2.94457e-08  -1.89693e-08 4.90438e-09 -2.94457e-08  5.34914e-09 4.27221e-10 -2.94457e-08  -2.67786e-10 -1.56957e-09 -2.94457e-08  -1.15272e-09 2.03547e-09 -2.94457e-08  -1.38012e-09 4.83474e-09 -2.94457e-08  -4.93456e-10 2.15687e-09 -2.94457e-08  9.75541e-11 3.08419e-10 -2.94457e-08  2.04778e-09 1.06958e-09 -2.94457e-08  -9.54181e-09 4.23566e-09 -2.94457e-08  -1.15407e-08 5.71218e-10 -2.94457e-08  1.57438e-09 4.84692e-10 -2.94457e-08  8.48148e-10 -4.41228e-10 -2.94457e-08  2.91761e-09 -1.25006e-10 -2.94457e-08  -1.35429e-09 1.02631e-09 -2.94457e-08  -3.32429e-09 9.44333e-10 -2.94457e-08  -9.32057e-10 5.2314e-10 -2.94457e-08  4.23863e-09 4.64165e-10 -2.94457e-08  -1.7796e-08 6.24821e-10 -2.94457e-08  -1.54973e-08 -2.2513e-09 -2.94457e-08  4.62848e-09 9.93869e-10 -2.94457e-08  -3.35622e-10 4.02684e-09 -2.94457e-08  -1.19395e-09 -5.58614e-10 -2.94457e-08  -7.39131e-10 -4.79534e-09 -2.94457e-08  -1.70451e-10 -1.1315e-09 -2.94457e-08  -5.24998e-10 1.65828e-09 -2.94457e-08  1.7717e-09 -1.66029e-12 -2.94457e-08  -1.52866e-08 -3.1024e-09 -2.94457e-08  -1.6773e-08 1.29841e-09 -2.94457e-08  8.13888e-09 5.35432e-10 -2.94457e-08  -3.3564e-10 5.23491e-10 -2.94457e-08  -5.7485e-09 -9.3281e-10 -2.94457e-08  -8.41251e-10 -2.19786e-09 -2.94457e-08  3.39954e-09 -5.88382e-10 -2.94457e-08  2.4988e-10 1.65274e-11 -2.94457e-08  -7.36531e-10 -1.59197e-09 -2.94457e-08  5.55315e-10 -1.75449e-09 -2.94457e-08  -1.68468e-08 -4.82276e-11 -2.94457e-08  5.18045e-09 -2.33498e-09 -2.94457e-08  -3.1193e-10 -4.70387e-09 -2.94457e-08  -2.05844e-09 7.56003e-11 -2.94457e-08  1.10897e-10 5.01802e-09 -2.94457e-08  1.5145e-09 2.534e-09 -2.94457e-08  -1.55925e-09 2.53167e-10 -2.94457e-08  1.02467e-09 1.85166e-09 -2.94457e-08  -9.13082e-09 5.34595e-09 -2.94457e-08  -1.7175e-08 1.92454e-08 -2.94457e-08  3.4568e-09 1.14078e-08 -2.94457e-08  7.69438e-10 7.12088e-09 -2.94457e-08  3.23043e-09 -9.513e-09 -2.94457e-08  1.16421e-09 -1.8925e-08 -2.94457e-08  -1.26338e-09 -8.4584e-09 -2.94457e-08  -1.38689e-09 -3.26574e-09 -2.94457e-08  4.22988e-09 -8.56645e-09 -2.94457e-08  -1.94585e-08 -1.79775e-08 -2.94457e-08  
            </DataArray>
         </PointData> 
      </Piece>
   </UnstructuredGrid> 
</VTKFile>
