<?xml version="1.0"?>
<VTKFile type="UnstructuredGrid" version="0.1" byte_order="LittleEndian">
   <UnstructuredGrid>
      <Piece NumberOfPoints="81" NumberOfCells="0" > 
         <Points> 
            <DataArray type="Float64" Name="Position" NumberOfComponents="3" format="ascii"> 
               0  0  20  
               0.375  0  20  
               0.75  0  20  
               1.125  0  20  
               1.5  0  20  
               1.875  0  20  
               2.25  0  20  
               2.625  0  20  
               3  0  20  
               0  0.375  20  
               0.375  0.375  20  
               0.75  0.375  20  
               1.125  0.375  20  
               1.5  0.375  20  
               1.875  0.375  20  
               2.25  0.375  20  
               2.625  0.375  20  
               3  0.375  20  
               0  0.75  20  
               0.375  0.75  20  
               0.75  0.75  20  
               1.125  0.75  20  
               1.5  0.75  20  
               1.875  0.75  20  
               2.25  0.75  20  
               2.625  0.75  20  
               3  0.75  20  
               0  1.125  20  
               0.375  1.125  20  
               0.75  1.125  20  
               1.125  1.125  20  
               1.5  1.125  20  
               1.875  1.125  20  
               2.25  1.125  20  
               2.625  1.125  20  
               3  1.125  20  
               0  1.5  20  
               0.375  1.5  20  
               0.75  1.5  20  
               1.125  1.5  20  
               1.5  1.5  20  
               1.875  1.5  20  
               2.25  1.5  20  
               2.625  1.5  20  
               3  1.5  20  
               0  1.875  20  
               0.375  1.875  20  
               0.75  1.875  20  
               1.125  1.875  20  
               1.5  1.875  20  
               1.875  1.875  20  
               2.25  1.875  20  
               2.625  1.875  20  
               3  1.875  20  
               0  2.25  20  
               0.375  2.25  20  
               0.75  2.25  20  
               1.125  2.25  20  
               1.5  2.25  20  
               1.875  2.25  20  
               2.25  2.25  20  
               2.625  2.25  20  
               3  2.25  20  
               0  2.625  20  
               0.375  2.625  20  
               0.75  2.625  20  
               1.125  2.625  20  
               1.5  2.625  20  
               1.875  2.625  20  
               2.25  2.625  20  
               2.625  2.625  20  
               3  2.625  20  
               0  3  20  
               0.375  3  20  
               0.75  3  20  
               1.125  3  20  
               1.5  3  20  
               1.875  3  20  
               2.25  3  20  
               2.625  3  20  
               3  3  20  
            </DataArray>
         </Points> 

         <Cells>
            <DataArray type="Int32" Name="connectivity" NumberOfComponents="1" format="ascii">
               
            </DataArray> 
            <DataArray type="Int32" Name="offsets" NumberOfComponents="1" format="ascii">
               
            </DataArray>
            <DataArray type="UInt8"  Name="types" NumberOfComponents="1" format="ascii">
               
            </DataArray>
         </Cells>
         <PointData Scalars="Rank " Vectors="Displacement Velocity Traction ">
            <DataArray type="UInt32" Name="Rank" NumberOfComponents="1" format="ascii">
               0 0 0 0 0 0 0 0 0 0 0 0 0 0 0 0 0 0 0 0 0 0 0 0 0 0 0 0 0 0 0 0 0 0 0 0 0 0 0 0 0 0 0 0 0 0 0 0 0 0 0 0 0 0 0 0 0 0 0 0 0 0 0 0 0 0 0 0 0 0 0 0 0 0 0 0 0 0 0 0 0 
            </DataArray>
            <DataArray type="Float64" Name="Displacement" NumberOfComponents="3" format="ascii">
               5.45824e-07 5.43213e-07 -1.82457e-06  1.40519e-07 7.50293e-07 -1.82603e-06  1.22523e-08 9.02304e-07 -1.68687e-06  -1.46803e-08 9.17706e-07 -1.62161e-06  -4.68858e-08 9.2569e-07 -1.60924e-06  -1.0681e-07 9.47864e-07 -1.58659e-06  -2.38775e-07 8.81642e-07 -1.6568e-06  -2.21081e-07 6.2722e-07 -1.81374e-06  -4.44929e-07 6.45615e-07 -1.74519e-06  7.52211e-07 1.38109e-07 -1.82644e-06  2.98647e-07 2.96537e-07 -1.70177e-06  1.06133e-07 3.99072e-07 -1.49655e-06  2.49288e-08 4.20526e-07 -1.44243e-06  7.48706e-09 4.43547e-07 -1.43004e-06  -3.09151e-08 4.25839e-07 -1.41473e-06  -1.9093e-07 4.30195e-07 -1.49517e-06  -2.93922e-07 3.06437e-07 -1.7517e-06  -6.08083e-07 3.50332e-07 -1.78096e-06  9.04349e-07 9.91171e-09 -1.68709e-06  4.01164e-07 1.03596e-07 -1.49632e-06  1.84213e-07 1.81744e-07 -1.14772e-06  1.47884e-08 2.28181e-07 -1.0582e-06  -1.48948e-09 2.32791e-07 -1.05321e-06  -2.16056e-08 2.33035e-07 -1.04865e-06  -2.28819e-07 2.4424e-07 -1.14584e-06  -4.01895e-07 1.82744e-07 -1.49816e-06  -8.47303e-07 2.45334e-07 -1.64157e-06  9.19758e-07 -1.68688e-08 -1.62187e-06  4.22536e-07 2.2537e-08 -1.44228e-06  2.3071e-07 1.26206e-08 -1.05842e-06  5.4889e-08 5.26068e-08 -9.38258e-07  4.9867e-09 4.15444e-08 -9.31666e-07  -4.07583e-08 5.75816e-08 -9.35851e-07  -2.20349e-07 4.81065e-08 -1.05195e-06  -4.06741e-07 4.83347e-08 -1.4227e-06  -9.18218e-07 7.96548e-08 -1.5822e-06  9.27623e-07 -4.92746e-08 -1.60937e-06  4.45403e-07 5.12531e-09 -1.42985e-06  2.35096e-07 -3.70752e-09 -1.05331e-06  4.36279e-08 2.84308e-09 -9.31584e-07  1.71067e-08 1.50653e-08 -9.30193e-07  -7.32612e-09 1.04233e-08 -9.30888e-07  -2.00067e-07 3.28009e-08 -1.05203e-06  -3.98697e-07 1.40751e-08 -1.42806e-06  -8.70254e-07 8.24647e-08 -1.59229e-06  9.49428e-07 -1.09004e-07 -1.58678e-06  4.27582e-07 -3.32255e-08 -1.41462e-06  2.35185e-07 -2.39614e-08 -1.04874e-06  5.9428e-08 -4.2973e-08 -9.35726e-07  1.22916e-08 -9.44695e-09 -9.30814e-07  -3.80875e-08 -4.00891e-08 -9.36415e-07  -2.18965e-07 2.24079e-08 -1.05713e-06  -4.0261e-07 -1.85791e-08 -1.4393e-06  -8.97784e-07 7.81312e-08 -1.60243e-06  8.83546e-07 -2.40855e-07 -1.65713e-06  4.31836e-07 -1.93127e-07 -1.49508e-06  2.4615e-07 -2.31078e-07 -1.1461e-06  5.00348e-08 -2.22817e-07 -1.05198e-06  3.47207e-08 -2.02356e-07 -1.05209e-06  2.43906e-08 -2.21173e-07 -1.05729e-06  -1.59081e-07 -1.61275e-07 -1.14776e-06  -3.84915e-07 -1.03013e-07 -1.49977e-06  -8.8924e-07 -8.29415e-09 -1.67919e-06  6.29605e-07 -2.23654e-07 -1.8139e-06  3.0829e-07 -2.96317e-07 -1.75119e-06  1.84567e-07 -4.03969e-07 -1.49813e-06  5.01981e-08 -4.08944e-07 -1.42265e-06  1.6013e-08 -4.00794e-07 -1.428e-06  -1.65247e-08 -4.04533e-07 -1.43923e-06  -1.00863e-07 -3.86989e-07 -1.4996e-06  -2.84475e-07 -2.86583e-07 -1.70764e-06  -7.34413e-07 -1.46572e-07 -1.82189e-06  6.47903e-07 -4.47825e-07 -1.74643e-06  3.52147e-07 -6.11206e-07 -1.7814e-06  2.46895e-07 -8.49735e-07 -1.64208e-06  8.15323e-08 -9.20172e-07 -1.58245e-06  8.45146e-08 -8.72391e-07 -1.59245e-06  8.01518e-08 -8.99757e-07 -1.60259e-06  -6.11185e-09 -8.91252e-07 -1.67942e-06  -1.44406e-07 -7.36355e-07 -1.82237e-06  -5.40813e-07 -5.42849e-07 -1.81173e-06  
            </DataArray>
            <DataArray type="Float64" Name="Velocity" NumberOfComponents="3" format="ascii">
               9.90154e-07 9.81692e-07 -3.37292e-06  3.22755e-07 1.31988e-06 -3.42006e-06  1.2942e-07 1.60231e-06 -3.14856e-06  -6.41946e-09 1.6309e-06 -3.07673e-06  -9.06017e-08 1.59926e-06 -3.08069e-06  -2.4439e-07 1.66027e-06 -2.99121e-06  -4.79614e-07 1.54004e-06 -3.11833e-06  -3.48307e-07 1.11468e-06 -3.40128e-06  -7.54261e-07 1.13867e-06 -3.19735e-06  1.32918e-06 3.16515e-07 -3.42511e-06  5.67554e-07 5.60148e-07 -3.26596e-06  2.80676e-07 7.11708e-07 -2.8914e-06  8.30916e-08 7.65008e-07 -2.81874e-06  3.01614e-08 8.05115e-07 -2.84667e-06  -7.85699e-08 7.61504e-07 -2.75922e-06  -4.30411e-07 7.61066e-07 -2.90087e-06  -5.47807e-07 5.67984e-07 -3.35653e-06  -1.06888e-06 6.00585e-07 -3.33871e-06  1.60992e-06 1.23317e-07 -3.15231e-06  7.17521e-07 2.73016e-07 -2.89032e-06  3.91738e-07 3.84657e-07 -2.27963e-06  2.84383e-08 4.90806e-07 -2.13303e-06  -5.95807e-09 4.91691e-07 -2.18516e-06  -5.4742e-08 4.95275e-07 -2.11149e-06  -4.77253e-07 5.00213e-07 -2.27794e-06  -7.10864e-07 4.10223e-07 -2.90847e-06  -1.47515e-06 4.93198e-07 -3.08654e-06  1.63893e-06 -1.42984e-08 -3.081e-06  7.71492e-07 7.40364e-08 -2.81808e-06  4.98154e-07 1.99616e-08 -2.1337e-06  1.34446e-07 1.26025e-07 -1.93161e-06  1.34851e-08 8.55879e-08 -1.98912e-06  -9.89966e-08 1.36172e-07 -1.92567e-06  -4.70937e-07 9.40622e-08 -2.12222e-06  -7.30726e-07 1.17692e-07 -2.77535e-06  -1.61406e-06 1.88319e-07 -2.98984e-06  1.60757e-06 -9.9003e-08 -3.08475e-06  8.11918e-07 2.19272e-08 -2.84587e-06  4.99788e-07 -1.42649e-08 -2.18568e-06  9.43286e-08 4.80559e-09 -1.98918e-06  3.4087e-08 2.52243e-08 -2.0605e-06  -2.53024e-08 1.92477e-08 -1.98825e-06  -4.31483e-07 6.09501e-08 -2.18359e-06  -7.17483e-07 6.74986e-09 -2.83853e-06  -1.50217e-06 1.6459e-07 -3.05141e-06  1.66825e-06 -2.53774e-07 -2.9951e-06  7.68558e-07 -8.82732e-08 -2.75852e-06  5.0405e-07 -6.45942e-08 -2.11168e-06  1.45077e-07 -1.08428e-07 -1.92541e-06  2.81069e-08 -3.50598e-08 -1.98808e-06  -9.58544e-08 -1.05491e-07 -1.92797e-06  -4.73531e-07 4.75204e-08 -2.13158e-06  -7.3037e-07 -7.91569e-08 -2.81129e-06  -1.60112e-06 1.3139e-07 -3.04303e-06  1.54871e-06 -4.88534e-07 -3.12274e-06  7.68102e-07 -4.39291e-07 -2.90042e-06  5.08477e-07 -4.8676e-07 -2.27888e-06  1.03167e-07 -4.8129e-07 -2.12269e-06  6.96996e-08 -4.41228e-07 -2.18418e-06  5.72344e-08 -4.8278e-07 -2.13219e-06  -3.31221e-07 -3.40094e-07 -2.28028e-06  -6.78044e-07 -2.8177e-07 -2.90012e-06  -1.57286e-06 -1.27827e-07 -3.14281e-06  1.12487e-06 -3.58697e-07 -3.40492e-06  5.75752e-07 -5.5678e-07 -3.35466e-06  4.18248e-07 -7.19777e-07 -2.90818e-06  1.26572e-07 -7.40231e-07 -2.7747e-06  1.51059e-08 -7.26786e-07 -2.83798e-06  -7.00002e-08 -7.39541e-07 -2.81063e-06  -2.73313e-07 -6.86502e-07 -2.89935e-06  -5.42469e-07 -5.50993e-07 -3.27371e-06  -1.29795e-06 -3.42434e-07 -3.41288e-06  1.1488e-06 -7.66772e-07 -3.20716e-06  6.08586e-07 -1.08033e-06 -3.34248e-06  5.01469e-07 -1.48596e-06 -3.09132e-06  1.97834e-07 -1.62533e-06 -2.99368e-06  1.73918e-07 -1.5127e-06 -3.05495e-06  1.41633e-07 -1.61085e-06 -3.04601e-06  -1.19546e-07 -1.58201e-06 -3.14565e-06  -3.34786e-07 -1.30607e-06 -3.41663e-06  -9.88706e-07 -9.96463e-07 -3.34677e-06  
            </DataArray>
            <DataArray type="Float64" Name="Traction" NumberOfComponents="3" format="ascii">
               0 0 0  0 0 0  0 0 0  0 0 0  0 0 0  0 0 0  0 0 0  0 0 0  0 0 0  0 0 0  0 0 0  0 0 0  0 0 0  0 0 0  0 0 0  0 0 0  0 0 0  0 0 0  0 0 0  0 0 0  0 0 0  0 0 0  0 0 0  0 0 0  0 0 0  0 0 0  0 0 0  0 0 0  0 0 0  0 0 0  0 0 0  0 0 0  0 0 0  0 0 0  0 0 0  0 0 0  0 0 0  0 0 0  0 0 0  0 0 0  0 0 0  0 0 0  0 0 0  0 0 0  0 0 0  0 0 0  0 0 0  0 0 0  0 0 0  0 0 0  0 0 0  0 0 0  0 0 0  0 0 0  0 0 0  0 0 0  0 0 0  0 0 0  0 0 0  0 0 0  0 0 0  0 0 0  0 0 0  0 0 0  0 0 0  0 0 0  0 0 0  0 0 0  0 0 0  0 0 0  0 0 0  0 0 0  0 0 0  0 0 0  0 0 0  0 0 0  0 0 0  0 0 0  0 0 0  0 0 0  0 0 0  
            </DataArray>
         </PointData> 
      </Piece>
   </UnstructuredGrid> 
</VTKFile>
