<?xml version="1.0"?>
<VTKFile type="UnstructuredGrid" version="0.1" byte_order="LittleEndian">
   <UnstructuredGrid>
      <Piece NumberOfPoints="81" NumberOfCells="0" > 
         <Points> 
            <DataArray type="Float64" Name="Position" NumberOfComponents="3" format="ascii"> 
               0  0  15  
               0.375  0  15  
               0.75  0  15  
               1.125  0  15  
               1.5  0  15  
               1.875  0  15  
               2.25  0  15  
               2.625  0  15  
               3  0  15  
               0  0.375  15  
               0.375  0.375  15  
               0.75  0.375  15  
               1.125  0.375  15  
               1.5  0.375  15  
               1.875  0.375  15  
               2.25  0.375  15  
               2.625  0.375  15  
               3  0.375  15  
               0  0.75  15  
               0.375  0.75  15  
               0.75  0.75  15  
               1.125  0.75  15  
               1.5  0.75  15  
               1.875  0.75  15  
               2.25  0.75  15  
               2.625  0.75  15  
               3  0.75  15  
               0  1.125  15  
               0.375  1.125  15  
               0.75  1.125  15  
               1.125  1.125  15  
               1.5  1.125  15  
               1.875  1.125  15  
               2.25  1.125  15  
               2.625  1.125  15  
               3  1.125  15  
               0  1.5  15  
               0.375  1.5  15  
               0.75  1.5  15  
               1.125  1.5  15  
               1.5  1.5  15  
               1.875  1.5  15  
               2.25  1.5  15  
               2.625  1.5  15  
               3  1.5  15  
               0  1.875  15  
               0.375  1.875  15  
               0.75  1.875  15  
               1.125  1.875  15  
               1.5  1.875  15  
               1.875  1.875  15  
               2.25  1.875  15  
               2.625  1.875  15  
               3  1.875  15  
               0  2.25  15  
               0.375  2.25  15  
               0.75  2.25  15  
               1.125  2.25  15  
               1.5  2.25  15  
               1.875  2.25  15  
               2.25  2.25  15  
               2.625  2.25  15  
               3  2.25  15  
               0  2.625  15  
               0.375  2.625  15  
               0.75  2.625  15  
               1.125  2.625  15  
               1.5  2.625  15  
               1.875  2.625  15  
               2.25  2.625  15  
               2.625  2.625  15  
               3  2.625  15  
               0  3  15  
               0.375  3  15  
               0.75  3  15  
               1.125  3  15  
               1.5  3  15  
               1.875  3  15  
               2.25  3  15  
               2.625  3  15  
               3  3  15  
            </DataArray>
         </Points> 

         <Cells>
            <DataArray type="Int32" Name="connectivity" NumberOfComponents="1" format="ascii">
               
            </DataArray> 
            <DataArray type="Int32" Name="offsets" NumberOfComponents="1" format="ascii">
               
            </DataArray>
            <DataArray type="UInt8"  Name="types" NumberOfComponents="1" format="ascii">
               
            </DataArray>
         </Cells>
         <PointData Scalars="Rank " Vectors="Displacement Velocity Traction ">
            <DataArray type="UInt32" Name="Rank" NumberOfComponents="1" format="ascii">
               0 0 0 0 0 0 0 0 0 0 0 0 0 0 0 0 0 0 0 0 0 0 0 0 0 0 0 0 0 0 0 0 0 0 0 0 0 0 0 0 0 0 0 0 0 0 0 0 0 0 0 0 0 0 0 0 0 0 0 0 0 0 0 0 0 0 0 0 0 0 0 0 0 0 0 0 0 0 0 0 0 
            </DataArray>
            <DataArray type="Float64" Name="Displacement" NumberOfComponents="3" format="ascii">
               1.65315e-07 3.83643e-07 -8.83848e-08  1.33283e-07 3.51141e-07 -8.20827e-08  3.87566e-08 2.65921e-07 -7.34042e-08  -2.25001e-08 1.4354e-07 -7.21e-08  -6.01388e-08 3.88316e-07 -7.45411e-08  -8.64667e-08 1.79863e-07 -7.19699e-08  -1.0067e-07 5.59853e-07 -7.33308e-08  -1.51034e-07 6.69249e-07 -8.12598e-08  -1.77971e-07 3.9639e-07 -8.79658e-08  -4.30764e-08 3.35935e-07 -8.18359e-08  -2.34259e-08 3.5069e-07 -6.72802e-08  -7.5472e-08 3.16488e-07 -5.17419e-08  -1.78866e-07 1.68097e-07 -4.94122e-08  -2.84488e-07 3.96697e-07 -5.18666e-08  -4.04079e-07 2.13466e-07 -4.93145e-08  -5.49352e-07 5.91114e-07 -5.15808e-08  -6.26616e-07 6.52189e-07 -6.73085e-08  -5.90707e-07 3.28705e-07 -8.11848e-08  -2.45776e-07 2.48422e-07 -7.3126e-08  -2.01477e-07 2.74194e-07 -5.1827e-08  -1.89852e-07 2.89878e-07 -2.8222e-08  -2.55417e-07 1.81654e-07 -2.44536e-08  -3.59388e-07 3.47512e-07 -2.73534e-08  -4.99726e-07 2.38184e-07 -2.4447e-08  -6.77475e-07 5.54121e-07 -2.80456e-08  -7.3862e-07 5.21431e-07 -5.17365e-08  -6.6658e-07 1.76106e-07 -7.3325e-08  -1.77032e-07 1.78663e-07 -7.19178e-08  -1.41957e-07 1.67858e-07 -4.94376e-08  -1.15863e-07 1.84533e-07 -2.44194e-08  -1.29522e-07 1.42189e-07 -1.99221e-08  -1.64937e-07 2.45111e-07 -2.2642e-08  -2.22534e-07 1.77082e-07 -1.98798e-08  -2.60474e-07 3.93112e-07 -2.43563e-08  -2.26234e-07 3.25261e-07 -4.92994e-08  -1.48474e-07 3.60625e-08 -7.19781e-08  -1.70713e-07 1.13093e-07 -7.42291e-08  -1.33862e-07 5.73994e-08 -5.19122e-08  -1.19823e-07 8.02493e-08 -2.72971e-08  -1.32645e-07 4.73174e-08 -2.26557e-08  -1.73534e-07 1.31384e-07 -2.50561e-08  -2.5003e-07 8.10628e-08 -2.25865e-08  -3.29253e-07 2.16148e-07 -2.73191e-08  -3.33448e-07 1.4779e-07 -5.17228e-08  -2.43618e-07 -1.32105e-07 -7.43829e-08  -1.87329e-08 3.4354e-08 -7.18738e-08  2.95608e-09 -2.3133e-08 -4.93437e-08  -2.3863e-08 1.35129e-08 -2.44432e-08  -7.16834e-08 -4.10933e-08 -1.98804e-08  -1.38232e-07 3.83321e-08 -2.25856e-08  -2.12508e-07 3.70277e-09 -1.98079e-08  -2.65285e-07 8.2392e-08 -2.43606e-08  -2.76303e-07 -3.19974e-09 -4.93476e-08  -1.99152e-07 -3.44587e-07 -7.20302e-08  -8.96122e-08 -4.28734e-08 -7.29616e-08  -7.44491e-08 -6.35804e-08 -5.15983e-08  -8.00089e-08 -4.16543e-08 -2.79377e-08  -8.80152e-08 -1.29281e-07 -2.43692e-08  -1.28647e-07 -3.75108e-08 -2.72827e-08  -1.89142e-07 -9.5382e-08 -2.43453e-08  -2.42912e-07 -3.07018e-08 -2.80432e-08  -2.5668e-07 -1.57715e-07 -5.18104e-08  -1.68132e-07 -5.6922e-07 -7.33932e-08  1.1891e-08 -7.9625e-08 -8.09044e-08  -3.56742e-10 -9.18515e-08 -6.7404e-08  -2.7179e-08 -9.26264e-08 -5.17302e-08  -7.09028e-08 -1.98633e-07 -4.93106e-08  -1.64677e-07 -7.07805e-08 -5.17289e-08  -2.8802e-07 -1.49462e-07 -4.93527e-08  -4.08243e-07 -8.64293e-08 -5.18358e-08  -4.78778e-07 -2.64215e-07 -6.73078e-08  -4.49368e-07 -7.54878e-07 -8.20437e-08  1.80634e-07 -8.22273e-08 -8.78398e-08  1.44321e-07 -8.65712e-08 -8.093e-08  4.36554e-08 -6.8422e-08 -7.29659e-08  -1.21843e-07 -1.57658e-07 -7.19806e-08  -3.23798e-07 -3.71533e-10 -7.42254e-08  -5.45703e-07 -7.61441e-08 -7.19438e-08  -7.85026e-07 -1.1749e-08 -7.33168e-08  -9.71793e-07 -2.46512e-07 -8.19106e-08  -1.03479e-06 -8.15909e-07 -8.89521e-08  
            </DataArray>
            <DataArray type="Float64" Name="Velocity" NumberOfComponents="3" format="ascii">
               1.23788e-06 1.75273e-06 -3.25901e-07  1.04308e-06 1.05405e-06 -3.07607e-07  6.28196e-07 -2.92611e-08 -2.7845e-07  3.37084e-07 -2.53504e-07 -2.74671e-07  8.40418e-08 4.50767e-08 -2.79028e-07  -1.69589e-07 -9.67314e-08 -2.73886e-07  -3.24761e-07 1.0408e-06 -2.775e-07  -4.57371e-07 1.0555e-06 -3.02099e-07  -5.12288e-07 4.80312e-07 -3.22981e-07  1.73892e-07 1.59123e-06 -3.07102e-07  2.50762e-07 1.1418e-06 -2.4767e-07  6.55642e-08 2.22003e-07 -1.88952e-07  -2.08285e-07 -9.04193e-08 -1.84493e-07  -4.29012e-07 2.3397e-07 -1.88069e-07  -6.68303e-07 8.03426e-08 -1.84e-07  -9.07863e-07 1.14268e-06 -1.8792e-07  -1.02487e-06 1.03211e-06 -2.48615e-07  -9.85448e-07 4.03635e-07 -3.01903e-07  -1.03702e-06 1.18585e-06 -2.77963e-07  -7.90254e-07 9.80603e-07 -1.89136e-07  -6.75806e-07 3.59171e-07 -9.66131e-08  -7.48786e-07 1.08552e-07 -8.98483e-08  -8.72788e-07 3.35646e-07 -9.34431e-08  -1.04024e-06 2.62833e-07 -8.98477e-08  -1.27844e-06 1.15578e-06 -9.53636e-08  -1.32229e-06 8.18678e-07 -1.88745e-07  -1.19005e-06 2.15727e-07 -2.76907e-07  -8.4961e-07 8.13375e-07 -2.74381e-07  -6.78784e-07 7.50645e-07 -1.84539e-07  -5.48964e-07 3.61016e-07 -8.97944e-08  -4.89682e-07 2.51993e-07 -7.94569e-08  -4.64915e-07 3.5513e-07 -8.2335e-08  -4.93326e-07 3.27594e-07 -7.92889e-08  -4.98556e-07 9.7651e-07 -8.94453e-08  -3.97452e-07 5.24205e-07 -1.83912e-07  -3.09902e-07 1.06657e-07 -2.7426e-07  -9.82293e-07 4.98381e-07 -2.78478e-07  -8.06874e-07 5.76393e-07 -1.88131e-07  -6.4725e-07 3.33079e-07 -9.33445e-08  -4.63949e-07 2.4475e-07 -8.23655e-08  -3.53839e-07 3.62119e-07 -8.53512e-08  -3.74812e-07 3.20704e-07 -8.20532e-08  -4.20544e-07 7.49036e-07 -9.35387e-08  -4.03067e-07 3.18977e-07 -1.87193e-07  -3.76443e-07 9.00922e-08 -2.78796e-07  -5.94503e-07 1.84415e-07 -2.73686e-07  -4.82495e-07 4.79929e-07 -1.84075e-07  -4.50787e-07 3.8453e-07 -8.98479e-08  -3.87201e-07 1.85727e-07 -7.93026e-08  -3.3851e-07 3.64561e-07 -8.20587e-08  -3.3466e-07 2.98398e-07 -7.88863e-08  -2.8272e-07 5.70763e-07 -8.94853e-08  -2.37295e-07 2.19159e-07 -1.84151e-07  -1.89578e-07 3.89599e-08 -2.74378e-07  -9.20539e-07 -8.18954e-09 -2.76411e-07  -8.4025e-07 4.43358e-07 -1.87981e-07  -6.84604e-07 4.39756e-07 -9.5073e-08  -4.87886e-07 7.90232e-08 -8.94662e-08  -3.62888e-07 3.39645e-07 -9.34527e-08  -3.25061e-07 2.16495e-07 -8.94456e-08  -2.94335e-07 4.36001e-07 -9.58548e-08  -2.52666e-07 1.10917e-07 -1.89167e-07  -1.24045e-07 -1.64386e-07 -2.78337e-07  -6.90942e-07 -1.12717e-09 -3.01254e-07  -7.2575e-07 4.07087e-07 -2.4884e-07  -7.11902e-07 4.07067e-07 -1.8873e-07  -6.54824e-07 -6.51046e-08 -1.83971e-07  -6.08247e-07 2.68375e-07 -1.87213e-07  -5.79222e-07 1.40686e-07 -1.84171e-07  -5.71203e-07 3.51709e-07 -1.8924e-07  -5.59315e-07 7.88251e-09 -2.48141e-07  -4.8342e-07 -4.38992e-07 -3.07219e-07  -1.94434e-07 6.34441e-08 -3.2257e-07  -2.54521e-07 4.08975e-07 -3.01268e-07  -3.26932e-07 4.11172e-07 -2.75979e-07  -4.26437e-07 -9.10651e-08 -2.74134e-07  -5.03094e-07 2.35046e-07 -2.78397e-07  -5.61495e-07 1.45365e-07 -2.74167e-07  -7.24378e-07 3.95833e-07 -2.78093e-07  -9.34275e-07 2.76862e-08 -3.06924e-07  -1.02496e-06 -5.42368e-07 -3.24223e-07  
            </DataArray>
            <DataArray type="Float64" Name="Traction" NumberOfComponents="3" format="ascii">
               1.80137e-05 2.2905e-05 -3.07838e-05  4.41665e-06 1.53046e-05 -3.07838e-05  -3.74581e-06 2.90783e-06 -3.07838e-05  3.22203e-06 1.3169e-05 -3.07838e-05  1.84122e-06 3.03677e-05 -3.07838e-05  -3.55945e-06 3.32131e-05 -3.07838e-05  -3.27609e-06 2.89553e-05 -3.07838e-05  -1.22959e-05 5.44294e-05 -3.07838e-05  -8.75972e-05 8.44289e-05 -3.07838e-05  1.54418e-05 1.29008e-05 -3.07838e-05  9.53936e-06 1.51208e-05 -3.07838e-05  3.22967e-06 9.14003e-06 -3.07838e-05  2.49142e-06 2.71165e-06 -3.07838e-05  1.46369e-06 -1.74589e-06 -3.07838e-05  1.03561e-06 7.30647e-06 -3.07838e-05  -2.38611e-06 1.28689e-05 -3.07838e-05  -1.38643e-05 1.79356e-05 -3.07838e-05  -6.27945e-05 1.50035e-05 -3.07838e-05  6.71787e-06 4.09136e-06 -3.07838e-05  6.79011e-06 8.36957e-06 -3.07838e-05  4.75293e-06 5.58282e-06 -3.07838e-05  4.33865e-06 3.97681e-06 -3.07838e-05  4.08125e-06 1.2764e-06 -3.07838e-05  4.62469e-06 4.01206e-06 -3.07838e-05  2.08249e-07 3.32837e-06 -3.07838e-05  -7.5701e-06 5.96328e-06 -3.07838e-05  -4.39937e-05 5.87143e-06 -3.07838e-05  -1.70101e-06 6.39882e-06 -3.07838e-05  2.12768e-06 5.69412e-06 -3.07838e-05  2.98907e-06 4.83204e-06 -3.07838e-05  3.46464e-06 6.30549e-06 -3.07838e-05  1.30543e-06 5.52459e-06 -3.07838e-05  -3.72771e-07 3.12796e-06 -3.07838e-05  -4.31642e-06 -2.82281e-06 -3.07838e-05  -1.04319e-05 -3.23688e-07 -3.07838e-05  -3.10002e-05 1.64726e-07 -3.07838e-05  2.81229e-06 7.21847e-06 -3.07838e-05  3.60227e-06 3.93669e-06 -3.07838e-05  4.64421e-06 4.47205e-06 -3.07838e-05  5.0671e-06 6.41321e-06 -3.07838e-05  3.85843e-07 5.91889e-06 -3.07838e-05  -3.67506e-06 5.77113e-06 -3.07838e-05  -5.55262e-06 2.93378e-06 -3.07838e-05  -9.91942e-06 3.317e-06 -3.07838e-05  -1.42702e-05 7.38964e-06 -3.07838e-05  -1.43729e-06 -2.72652e-06 -3.07838e-05  6.44097e-06 -1.35893e-06 -3.07838e-05  5.92054e-06 -1.57272e-06 -3.07838e-05  4.95574e-06 3.10071e-08 -3.07838e-05  7.32219e-07 -4.57908e-07 -3.07838e-05  -2.58549e-06 2.53905e-06 -3.07838e-05  -6.94986e-06 4.03809e-06 -3.07838e-05  -1.27526e-05 3.92168e-06 -3.07838e-05  -2.19107e-05 9.04085e-06 -3.07838e-05  -1.18254e-05 -4.44187e-06 -3.07838e-05  6.10186e-06 -2.3545e-06 -3.07838e-05  6.30225e-06 -4.80009e-06 -3.07838e-05  5.12676e-06 -5.6088e-06 -3.07838e-05  1.85896e-06 -6.68133e-06 -3.07838e-05  -1.24276e-07 -4.70743e-06 -3.07838e-05  -5.61069e-06 -3.32169e-06 -3.07838e-05  -1.22804e-05 -1.60862e-06 -3.07838e-05  -2.61335e-05 2.49464e-06 -3.07838e-05  -1.09415e-05 3.64787e-06 -3.07838e-05  -1.6375e-06 8.01283e-07 -3.07838e-05  3.42754e-06 -7.52839e-06 -3.07838e-05  3.75911e-06 -1.15218e-05 -3.07838e-05  9.5845e-07 -1.34332e-05 -3.07838e-05  -9.07006e-07 -1.26393e-05 -3.07838e-05  -4.77566e-06 -1.15257e-05 -3.07838e-05  -1.01214e-05 -8.33662e-06 -3.07838e-05  -3.12159e-05 4.62578e-08 -3.07838e-05  -1.01906e-05 6.65033e-06 -3.07838e-05  -4.06835e-06 2.94209e-06 -3.07838e-05  6.16829e-06 -4.3965e-06 -3.07838e-05  5.41855e-06 -1.38006e-05 -3.07838e-05  1.77485e-06 -1.90032e-05 -3.07838e-05  -1.1536e-07 -2.24344e-05 -3.07838e-05  -3.07868e-06 -2.38613e-05 -3.07838e-05  -3.13043e-06 -2.92671e-05 -3.07838e-05  -3.63247e-05 -3.40054e-05 -3.07838e-05  
            </DataArray>
         </PointData> 
      </Piece>
   </UnstructuredGrid> 
</VTKFile>
