<?xml version="1.0"?>
<VTKFile type="UnstructuredGrid" version="0.1" byte_order="LittleEndian">
   <UnstructuredGrid>
      <Piece NumberOfPoints="81" NumberOfCells="0" > 
         <Points> 
            <DataArray type="Float64" Name="Position" NumberOfComponents="3" format="ascii"> 
               0  0  15  
               0.375  0  15  
               0.75  0  15  
               1.125  0  15  
               1.5  0  15  
               1.875  0  15  
               2.25  0  15  
               2.625  0  15  
               3  0  15  
               0  0.375  15  
               0.375  0.375  15  
               0.75  0.375  15  
               1.125  0.375  15  
               1.5  0.375  15  
               1.875  0.375  15  
               2.25  0.375  15  
               2.625  0.375  15  
               3  0.375  15  
               0  0.75  15  
               0.375  0.75  15  
               0.75  0.75  15  
               1.125  0.75  15  
               1.5  0.75  15  
               1.875  0.75  15  
               2.25  0.75  15  
               2.625  0.75  15  
               3  0.75  15  
               0  1.125  15  
               0.375  1.125  15  
               0.75  1.125  15  
               1.125  1.125  15  
               1.5  1.125  15  
               1.875  1.125  15  
               2.25  1.125  15  
               2.625  1.125  15  
               3  1.125  15  
               0  1.5  15  
               0.375  1.5  15  
               0.75  1.5  15  
               1.125  1.5  15  
               1.5  1.5  15  
               1.875  1.5  15  
               2.25  1.5  15  
               2.625  1.5  15  
               3  1.5  15  
               0  1.875  15  
               0.375  1.875  15  
               0.75  1.875  15  
               1.125  1.875  15  
               1.5  1.875  15  
               1.875  1.875  15  
               2.25  1.875  15  
               2.625  1.875  15  
               3  1.875  15  
               0  2.25  15  
               0.375  2.25  15  
               0.75  2.25  15  
               1.125  2.25  15  
               1.5  2.25  15  
               1.875  2.25  15  
               2.25  2.25  15  
               2.625  2.25  15  
               3  2.25  15  
               0  2.625  15  
               0.375  2.625  15  
               0.75  2.625  15  
               1.125  2.625  15  
               1.5  2.625  15  
               1.875  2.625  15  
               2.25  2.625  15  
               2.625  2.625  15  
               3  2.625  15  
               0  3  15  
               0.375  3  15  
               0.75  3  15  
               1.125  3  15  
               1.5  3  15  
               1.875  3  15  
               2.25  3  15  
               2.625  3  15  
               3  3  15  
            </DataArray>
         </Points> 

         <Cells>
            <DataArray type="Int32" Name="connectivity" NumberOfComponents="1" format="ascii">
               
            </DataArray> 
            <DataArray type="Int32" Name="offsets" NumberOfComponents="1" format="ascii">
               
            </DataArray>
            <DataArray type="UInt8"  Name="types" NumberOfComponents="1" format="ascii">
               
            </DataArray>
         </Cells>
         <PointData Scalars="Rank " Vectors="Displacement Velocity Traction ">
            <DataArray type="UInt32" Name="Rank" NumberOfComponents="1" format="ascii">
               0 0 0 0 0 0 0 0 0 0 0 0 0 0 0 0 0 0 0 0 0 0 0 0 0 0 0 0 0 0 0 0 0 0 0 0 0 0 0 0 0 0 0 0 0 0 0 0 0 0 0 0 0 0 0 0 0 0 0 0 0 0 0 0 0 0 0 0 0 0 0 0 0 0 0 0 0 0 0 0 0 
            </DataArray>
            <DataArray type="Float64" Name="Displacement" NumberOfComponents="3" format="ascii">
               0 0 0  0 0 0  0 0 0  0 0 0  0 0 0  0 0 0  0 0 0  0 0 0  0 0 0  0 0 0  0 0 0  0 0 0  0 0 0  0 0 0  0 0 0  0 0 0  0 0 0  0 0 0  0 0 0  0 0 0  0 0 0  0 0 0  0 0 0  0 0 0  0 0 0  0 0 0  0 0 0  0 0 0  0 0 0  0 0 0  0 0 0  0 0 0  0 0 0  0 0 0  0 0 0  0 0 0  0 0 0  0 0 0  0 0 0  0 0 0  0 0 0  0 0 0  0 0 0  0 0 0  0 0 0  0 0 0  0 0 0  0 0 0  0 0 0  0 0 0  0 0 0  0 0 0  0 0 0  0 0 0  0 0 0  0 0 0  0 0 0  0 0 0  0 0 0  0 0 0  0 0 0  0 0 0  0 0 0  0 0 0  0 0 0  0 0 0  0 0 0  0 0 0  0 0 0  0 0 0  0 0 0  0 0 0  0 0 0  0 0 0  0 0 0  0 0 0  0 0 0  0 0 0  0 0 0  0 0 0  0 0 0  
            </DataArray>
            <DataArray type="Float64" Name="Velocity" NumberOfComponents="3" format="ascii">
               0 0 0  0 0 0  0 0 0  0 0 0  0 0 0  0 0 0  0 0 0  0 0 0  0 0 0  0 0 0  0 0 0  0 0 0  0 0 0  0 0 0  0 0 0  0 0 0  0 0 0  0 0 0  0 0 0  0 0 0  0 0 0  0 0 0  0 0 0  0 0 0  0 0 0  0 0 0  0 0 0  0 0 0  0 0 0  0 0 0  0 0 0  0 0 0  0 0 0  0 0 0  0 0 0  0 0 0  0 0 0  0 0 0  0 0 0  0 0 0  0 0 0  0 0 0  0 0 0  0 0 0  0 0 0  0 0 0  0 0 0  0 0 0  0 0 0  0 0 0  0 0 0  0 0 0  0 0 0  0 0 0  0 0 0  0 0 0  0 0 0  0 0 0  0 0 0  0 0 0  0 0 0  0 0 0  0 0 0  0 0 0  0 0 0  0 0 0  0 0 0  0 0 0  0 0 0  0 0 0  0 0 0  0 0 0  0 0 0  0 0 0  0 0 0  0 0 0  0 0 0  0 0 0  0 0 0  0 0 0  0 0 0  
            </DataArray>
            <DataArray type="Float64" Name="Traction" NumberOfComponents="3" format="ascii">
               0.000168506 0.000219622 -0.000243088  -2.28591e-05 0.000181861 -0.000243088  -3.06384e-05 0.000137022 -0.000243088  -3.3515e-05 0.000125307 -0.000243088  9.60148e-07 0.000104163 -0.000243088  2.59166e-05 0.000168465 -0.000243088  2.16407e-05 0.000158203 -0.000243088  5.64842e-05 0.000249233 -0.000243088  -0.000372211 0.000386907 -0.000243088  0.000170049 3.44964e-05 -0.000243088  3.96664e-05 4.78012e-05 -0.000243088  1.17679e-05 3.64725e-05 -0.000243088  -3.16418e-06 2.8782e-05 -0.000243088  1.3243e-05 9.6413e-06 -0.000243088  4.26213e-05 1.40786e-05 -0.000243088  4.71725e-05 -2.14294e-05 -0.000243088  3.58955e-05 -2.68349e-05 -0.000243088  -0.000259277 -3.23021e-05 -0.000243088  0.000161765 3.21129e-05 -0.000243088  6.97965e-05 2.18441e-05 -0.000243088  3.40913e-05 8.33313e-06 -0.000243088  1.04169e-05 1.20547e-05 -0.000243088  2.84912e-05 2.00211e-06 -0.000243088  5.88286e-05 -9.18231e-06 -0.000243088  4.74347e-05 -4.72787e-05 -0.000243088  1.90779e-05 -3.84423e-05 -0.000243088  -0.000196331 5.06943e-07 -0.000243088  0.000163006 1.63543e-05 -0.000243088  9.51392e-05 4.99344e-06 -0.000243088  5.38977e-05 -1.11641e-05 -0.000243088  2.62281e-05 2.10519e-06 -0.000243088  1.89692e-05 4.52226e-06 -0.000243088  2.14196e-05 -1.97151e-05 -0.000243088  2.19909e-07 -5.9514e-05 -0.000243088  -3.67933e-05 -4.05895e-05 -0.000243088  -0.00018394 -2.36628e-05 -0.000243088  0.000144309 -1.2356e-05 -0.000243088  0.000119765 -8.24132e-06 -0.000243088  7.86768e-05 -2.48271e-05 -0.000243088  4.63214e-05 -7.87268e-06 -0.000243088  1.46624e-05 -1.48843e-07 -0.000243088  -6.68042e-06 -5.82063e-06 -0.000243088  -2.13438e-05 -2.08628e-05 -0.000243088  -5.00495e-05 -7.11007e-06 -0.000243088  -9.26891e-05 6.28444e-06 -0.000243088  6.51337e-05 -4.652e-05 -0.000243088  0.000106471 -3.83188e-05 -0.000243088  8.08048e-05 -5.75763e-05 -0.000243088  5.82698e-05 -3.92873e-05 -0.000243088  2.09402e-05 -2.83544e-05 -0.000243088  -6.3256e-06 -1.35325e-05 -0.000243088  -2.77812e-05 -1.16063e-06 -0.000243088  -5.82826e-05 9.97512e-06 -0.000243088  -0.00012423 3.38347e-05 -0.000243088  2.41556e-05 -6.29019e-05 -0.000243088  0.000108776 -5.63599e-05 -0.000243088  9.09678e-05 -7.28098e-05 -0.000243088  7.35385e-05 -6.30533e-05 -0.000243088  3.43384e-05 -6.55383e-05 -0.000243088  6.80592e-06 -4.50009e-05 -0.000243088  -1.25035e-05 -2.32167e-05 -0.000243088  -3.96465e-05 -5.0754e-06 -0.000243088  -0.0001285 9.16996e-06 -0.000243088  -5.35709e-05 -9.35949e-05 -0.000243088  7.67015e-05 -7.39029e-05 -0.000243088  6.35643e-05 -9.20068e-05 -0.000243088  4.65533e-05 -9.38995e-05 -0.000243088  1.54524e-05 -0.000114814 -0.000243088  -2.94803e-06 -9.30468e-05 -0.000243088  -1.23384e-05 -5.80426e-05 -0.000243088  -2.73744e-05 -2.64964e-05 -0.000243088  -0.000125964 9.7735e-06 -0.000243088  -0.000143517 0.000116568 -0.000243088  7.6816e-05 3.82237e-05 -0.000243088  5.95829e-05 -4.07071e-05 -0.000243088  5.33297e-05 -8.4497e-05 -0.000243088  2.15845e-05 -0.000168555 -0.000243088  -1.99251e-05 -0.000169281 -0.000243088  -3.12284e-05 -0.000128959 -0.000243088  -1.54514e-05 -0.000116356 -0.000243088  -0.00012954 -0.000105817 -0.000243088  
            </DataArray>
         </PointData> 
      </Piece>
   </UnstructuredGrid> 
</VTKFile>
