<?xml version="1.0"?>
<VTKFile type="UnstructuredGrid" version="0.1" byte_order="LittleEndian">
   <UnstructuredGrid>
      <Piece NumberOfPoints="81" NumberOfCells="0" > 
         <Points> 
            <DataArray type="Float64" Name="Position" NumberOfComponents="3" format="ascii"> 
               0  0  15  
               0.375  0  15  
               0.75  0  15  
               1.125  0  15  
               1.5  0  15  
               1.875  0  15  
               2.25  0  15  
               2.625  0  15  
               3  0  15  
               0  0.375  15  
               0.375  0.375  15  
               0.75  0.375  15  
               1.125  0.375  15  
               1.5  0.375  15  
               1.875  0.375  15  
               2.25  0.375  15  
               2.625  0.375  15  
               3  0.375  15  
               0  0.75  15  
               0.375  0.75  15  
               0.75  0.75  15  
               1.125  0.75  15  
               1.5  0.75  15  
               1.875  0.75  15  
               2.25  0.75  15  
               2.625  0.75  15  
               3  0.75  15  
               0  1.125  15  
               0.375  1.125  15  
               0.75  1.125  15  
               1.125  1.125  15  
               1.5  1.125  15  
               1.875  1.125  15  
               2.25  1.125  15  
               2.625  1.125  15  
               3  1.125  15  
               0  1.5  15  
               0.375  1.5  15  
               0.75  1.5  15  
               1.125  1.5  15  
               1.5  1.5  15  
               1.875  1.5  15  
               2.25  1.5  15  
               2.625  1.5  15  
               3  1.5  15  
               0  1.875  15  
               0.375  1.875  15  
               0.75  1.875  15  
               1.125  1.875  15  
               1.5  1.875  15  
               1.875  1.875  15  
               2.25  1.875  15  
               2.625  1.875  15  
               3  1.875  15  
               0  2.25  15  
               0.375  2.25  15  
               0.75  2.25  15  
               1.125  2.25  15  
               1.5  2.25  15  
               1.875  2.25  15  
               2.25  2.25  15  
               2.625  2.25  15  
               3  2.25  15  
               0  2.625  15  
               0.375  2.625  15  
               0.75  2.625  15  
               1.125  2.625  15  
               1.5  2.625  15  
               1.875  2.625  15  
               2.25  2.625  15  
               2.625  2.625  15  
               3  2.625  15  
               0  3  15  
               0.375  3  15  
               0.75  3  15  
               1.125  3  15  
               1.5  3  15  
               1.875  3  15  
               2.25  3  15  
               2.625  3  15  
               3  3  15  
            </DataArray>
         </Points> 

         <Cells>
            <DataArray type="Int32" Name="connectivity" NumberOfComponents="1" format="ascii">
               
            </DataArray> 
            <DataArray type="Int32" Name="offsets" NumberOfComponents="1" format="ascii">
               
            </DataArray>
            <DataArray type="UInt8"  Name="types" NumberOfComponents="1" format="ascii">
               
            </DataArray>
         </Cells>
         <PointData Scalars="Rank " Vectors="Displacement Velocity Traction ">
            <DataArray type="UInt32" Name="Rank" NumberOfComponents="1" format="ascii">
               0 0 0 0 0 0 0 0 0 0 0 0 0 0 0 0 0 0 0 0 0 0 0 0 0 0 0 0 0 0 0 0 0 0 0 0 0 0 0 0 0 0 0 0 0 0 0 0 0 0 0 0 0 0 0 0 0 0 0 0 0 0 0 0 0 0 0 0 0 0 0 0 0 0 0 0 0 0 0 0 0 
            </DataArray>
            <DataArray type="Float64" Name="Displacement" NumberOfComponents="3" format="ascii">
               0 0 0  0 0 0  0 0 0  0 0 0  0 0 0  0 0 0  0 0 0  0 0 0  0 0 0  0 0 0  0 0 0  0 0 0  0 0 0  0 0 0  0 0 0  0 0 0  0 0 0  0 0 0  0 0 0  0 0 0  0 0 0  0 0 0  0 0 0  0 0 0  0 0 0  0 0 0  0 0 0  0 0 0  0 0 0  0 0 0  0 0 0  0 0 0  0 0 0  0 0 0  0 0 0  0 0 0  0 0 0  0 0 0  0 0 0  0 0 0  0 0 0  0 0 0  0 0 0  0 0 0  0 0 0  0 0 0  0 0 0  0 0 0  0 0 0  0 0 0  0 0 0  0 0 0  0 0 0  0 0 0  0 0 0  0 0 0  0 0 0  0 0 0  0 0 0  0 0 0  0 0 0  0 0 0  0 0 0  0 0 0  0 0 0  0 0 0  0 0 0  0 0 0  0 0 0  0 0 0  0 0 0  0 0 0  0 0 0  0 0 0  0 0 0  0 0 0  0 0 0  0 0 0  0 0 0  0 0 0  0 0 0  
            </DataArray>
            <DataArray type="Float64" Name="Velocity" NumberOfComponents="3" format="ascii">
               0 0 0  0 0 0  0 0 0  0 0 0  0 0 0  0 0 0  0 0 0  0 0 0  0 0 0  0 0 0  0 0 0  0 0 0  0 0 0  0 0 0  0 0 0  0 0 0  0 0 0  0 0 0  0 0 0  0 0 0  0 0 0  0 0 0  0 0 0  0 0 0  0 0 0  0 0 0  0 0 0  0 0 0  0 0 0  0 0 0  0 0 0  0 0 0  0 0 0  0 0 0  0 0 0  0 0 0  0 0 0  0 0 0  0 0 0  0 0 0  0 0 0  0 0 0  0 0 0  0 0 0  0 0 0  0 0 0  0 0 0  0 0 0  0 0 0  0 0 0  0 0 0  0 0 0  0 0 0  0 0 0  0 0 0  0 0 0  0 0 0  0 0 0  0 0 0  0 0 0  0 0 0  0 0 0  0 0 0  0 0 0  0 0 0  0 0 0  0 0 0  0 0 0  0 0 0  0 0 0  0 0 0  0 0 0  0 0 0  0 0 0  0 0 0  0 0 0  0 0 0  0 0 0  0 0 0  0 0 0  0 0 0  
            </DataArray>
            <DataArray type="Float64" Name="Traction" NumberOfComponents="3" format="ascii">
               0.00103778 0.00102413 -0.00268976  0.000137252 0.00119973 -0.00268976  4.6978e-05 0.00127315 -0.00268976  -4.76943e-05 0.0013991 -0.00268976  -5.83527e-06 0.0013351 -0.00268976  1.95923e-05 0.00154293 -0.00268976  -9.60828e-05 0.00141851 -0.00268976  -0.000155728 0.00151217 -0.00268976  -0.00184847 0.00184245 -0.00268976  0.00113539 0.000154307 -0.00268976  0.000323877 0.000359523 -0.00268976  0.000128951 0.000452324 -0.00268976  3.57982e-05 0.000575289 -0.00268976  5.12026e-05 0.000562234 -0.00268976  0.000117257 0.000522574 -0.00268976  9.55711e-05 0.000301067 -0.00268976  -0.000133781 0.000165191 -0.00268976  -0.00151639 0.000188298 -0.00268976  0.00121352 0.000150116 -0.00268976  0.000450581 0.00017308 -0.00268976  0.000193168 0.000196106 -0.00268976  6.32146e-05 0.000279104 -0.00268976  7.10059e-05 0.000268128 -0.00268976  0.000119977 0.00019651 -0.00268976  3.36096e-05 1.93193e-05 -0.00268976  -0.00028881 -2.7519e-05 -0.00268976  -0.00146329 0.000189972 -0.00268976  0.00151328 8.23365e-05 -0.00268976  0.000681741 6.8788e-05 -0.00268976  0.000339971 4.24055e-05 -0.00268976  0.000146382 9.70224e-05 -0.00268976  5.08686e-05 0.000107951 -0.00268976  -9.62808e-06 1.85108e-05 -0.00268976  -0.000170843 -0.000108624 -0.00268976  -0.000563396 -8.96257e-05 -0.00268976  -0.00161763 4.45751e-05 -0.00268976  0.00156454 -0.000145108 -0.00268976  0.000818053 -8.33496e-05 -0.00268976  0.00045185 -0.000140499 -0.00268976  0.000209615 -7.16327e-05 -0.00268976  2.47203e-05 -2.59475e-05 -0.00268976  -0.000117889 -5.54509e-05 -0.00268976  -0.000282735 -9.30813e-05 -0.00268976  -0.000661273 -5.91159e-05 -0.00268976  -0.00142111 2.08307e-05 -0.00268976  0.00139722 -0.000326229 -0.00268976  0.000916228 -0.000307509 -0.00268976  0.000566132 -0.000382484 -0.00268976  0.000316164 -0.000282539 -0.00268976  6.69634e-05 -0.000191168 -0.00268976  -0.000135117 -0.0001588 -0.00268976  -0.00033119 -0.000114358 -0.00268976  -0.000716236 -8.09882e-05 -0.00268976  -0.00150263 4.88696e-05 -0.00268976  0.00141704 -0.000561207 -0.00268976  0.00107938 -0.000558846 -0.00268976  0.000697304 -0.000620149 -0.00268976  0.000416299 -0.000501804 -0.00268976  0.000118028 -0.000417318 -0.00268976  -0.000118992 -0.000349703 -0.00268976  -0.000303771 -0.000266973 -0.00268976  -0.000669529 -0.000231314 -0.00268976  -0.00148875 -0.000114765 -0.00268976  0.00110962 -0.00115866 -0.00268976  0.00106242 -0.00101504 -0.00268976  0.000640328 -0.00104377 -0.00268976  0.000350344 -0.000908233 -0.00268976  7.32408e-05 -0.000847713 -0.00268976  -0.000132702 -0.00076488 -0.00268976  -0.000293086 -0.000628265 -0.00268976  -0.000610016 -0.000555046 -0.00268976  -0.00134451 -0.000408931 -0.00268976  0.000856368 -0.00083179 -0.00268976  0.00120516 -0.00107655 -0.00268976  0.000661582 -0.00140797 -0.00268976  0.000411435 -0.00144933 -0.00268976  0.000157083 -0.00166367 -0.00268976  -9.86168e-05 -0.00159065 -0.00268976  -0.000210969 -0.00136837 -0.00268976  -0.000424762 -0.00125012 -0.00268976  -0.001071 -0.00107081 -0.00268976  
            </DataArray>
         </PointData> 
      </Piece>
   </UnstructuredGrid> 
</VTKFile>
