<?xml version="1.0"?>
<VTKFile type="UnstructuredGrid" version="0.1" byte_order="LittleEndian">
   <UnstructuredGrid>
      <Piece NumberOfPoints="81" NumberOfCells="0" > 
         <Points> 
            <DataArray type="Float64" Name="Position" NumberOfComponents="3" format="ascii"> 
               0  0  15  
               0.375  0  15  
               0.75  0  15  
               1.125  0  15  
               1.5  0  15  
               1.875  0  15  
               2.25  0  15  
               2.625  0  15  
               3  0  15  
               0  0.375  15  
               0.375  0.375  15  
               0.75  0.375  15  
               1.125  0.375  15  
               1.5  0.375  15  
               1.875  0.375  15  
               2.25  0.375  15  
               2.625  0.375  15  
               3  0.375  15  
               0  0.75  15  
               0.375  0.75  15  
               0.75  0.75  15  
               1.125  0.75  15  
               1.5  0.75  15  
               1.875  0.75  15  
               2.25  0.75  15  
               2.625  0.75  15  
               3  0.75  15  
               0  1.125  15  
               0.375  1.125  15  
               0.75  1.125  15  
               1.125  1.125  15  
               1.5  1.125  15  
               1.875  1.125  15  
               2.25  1.125  15  
               2.625  1.125  15  
               3  1.125  15  
               0  1.5  15  
               0.375  1.5  15  
               0.75  1.5  15  
               1.125  1.5  15  
               1.5  1.5  15  
               1.875  1.5  15  
               2.25  1.5  15  
               2.625  1.5  15  
               3  1.5  15  
               0  1.875  15  
               0.375  1.875  15  
               0.75  1.875  15  
               1.125  1.875  15  
               1.5  1.875  15  
               1.875  1.875  15  
               2.25  1.875  15  
               2.625  1.875  15  
               3  1.875  15  
               0  2.25  15  
               0.375  2.25  15  
               0.75  2.25  15  
               1.125  2.25  15  
               1.5  2.25  15  
               1.875  2.25  15  
               2.25  2.25  15  
               2.625  2.25  15  
               3  2.25  15  
               0  2.625  15  
               0.375  2.625  15  
               0.75  2.625  15  
               1.125  2.625  15  
               1.5  2.625  15  
               1.875  2.625  15  
               2.25  2.625  15  
               2.625  2.625  15  
               3  2.625  15  
               0  3  15  
               0.375  3  15  
               0.75  3  15  
               1.125  3  15  
               1.5  3  15  
               1.875  3  15  
               2.25  3  15  
               2.625  3  15  
               3  3  15  
            </DataArray>
         </Points> 

         <Cells>
            <DataArray type="Int32" Name="connectivity" NumberOfComponents="1" format="ascii">
               
            </DataArray> 
            <DataArray type="Int32" Name="offsets" NumberOfComponents="1" format="ascii">
               
            </DataArray>
            <DataArray type="UInt8"  Name="types" NumberOfComponents="1" format="ascii">
               
            </DataArray>
         </Cells>
         <PointData Scalars="Rank " Vectors="Displacement Velocity Traction ">
            <DataArray type="UInt32" Name="Rank" NumberOfComponents="1" format="ascii">
               0 0 0 0 0 0 0 0 0 0 0 0 0 0 0 0 0 0 0 0 0 0 0 0 0 0 0 0 0 0 0 0 0 0 0 0 0 0 0 0 0 0 0 0 0 0 0 0 0 0 0 0 0 0 0 0 0 0 0 0 0 0 0 0 0 0 0 0 0 0 0 0 0 0 0 0 0 0 0 0 0 
            </DataArray>
            <DataArray type="Float64" Name="Displacement" NumberOfComponents="3" format="ascii">
               0 0 0  0 0 0  0 0 0  0 0 0  0 0 0  0 0 0  0 0 0  0 0 0  0 0 0  0 0 0  0 0 0  0 0 0  0 0 0  0 0 0  0 0 0  0 0 0  0 0 0  0 0 0  0 0 0  0 0 0  0 0 0  0 0 0  0 0 0  0 0 0  0 0 0  0 0 0  0 0 0  0 0 0  0 0 0  0 0 0  0 0 0  0 0 0  0 0 0  0 0 0  0 0 0  0 0 0  0 0 0  0 0 0  0 0 0  0 0 0  0 0 0  0 0 0  0 0 0  0 0 0  0 0 0  0 0 0  0 0 0  0 0 0  0 0 0  0 0 0  0 0 0  0 0 0  0 0 0  0 0 0  0 0 0  0 0 0  0 0 0  0 0 0  0 0 0  0 0 0  0 0 0  0 0 0  0 0 0  0 0 0  0 0 0  0 0 0  0 0 0  0 0 0  0 0 0  0 0 0  0 0 0  0 0 0  0 0 0  0 0 0  0 0 0  0 0 0  0 0 0  0 0 0  0 0 0  0 0 0  0 0 0  
            </DataArray>
            <DataArray type="Float64" Name="Velocity" NumberOfComponents="3" format="ascii">
               0 0 0  0 0 0  0 0 0  0 0 0  0 0 0  0 0 0  0 0 0  0 0 0  0 0 0  0 0 0  0 0 0  0 0 0  0 0 0  0 0 0  0 0 0  0 0 0  0 0 0  0 0 0  0 0 0  0 0 0  0 0 0  0 0 0  0 0 0  0 0 0  0 0 0  0 0 0  0 0 0  0 0 0  0 0 0  0 0 0  0 0 0  0 0 0  0 0 0  0 0 0  0 0 0  0 0 0  0 0 0  0 0 0  0 0 0  0 0 0  0 0 0  0 0 0  0 0 0  0 0 0  0 0 0  0 0 0  0 0 0  0 0 0  0 0 0  0 0 0  0 0 0  0 0 0  0 0 0  0 0 0  0 0 0  0 0 0  0 0 0  0 0 0  0 0 0  0 0 0  0 0 0  0 0 0  0 0 0  0 0 0  0 0 0  0 0 0  0 0 0  0 0 0  0 0 0  0 0 0  0 0 0  0 0 0  0 0 0  0 0 0  0 0 0  0 0 0  0 0 0  0 0 0  0 0 0  0 0 0  0 0 0  
            </DataArray>
            <DataArray type="Float64" Name="Traction" NumberOfComponents="3" format="ascii">
               0.000152132 0.000198378 -0.000209078  -1.63141e-05 0.000162909 -0.000209078  -2.80175e-05 0.000119733 -0.000209078  -3.00768e-05 0.000106288 -0.000209078  1.13467e-06 8.8997e-05 -0.000209078  2.29665e-05 0.000148874 -0.000209078  1.85552e-05 0.000143168 -0.000209078  4.55304e-05 0.000228977 -0.000209078  -0.000342564 0.000354948 -0.000209078  0.000152298 3.60151e-05 -0.000209078  3.92409e-05 4.7489e-05 -0.000209078  1.25518e-05 3.45121e-05 -0.000209078  -1.68792e-06 2.32675e-05 -0.000209078  1.18118e-05 4.02985e-06 -0.000209078  3.69782e-05 1.15333e-05 -0.000209078  3.95385e-05 -1.59527e-05 -0.000209078  2.73318e-05 -1.80564e-05 -0.000209078  -0.000237943 -2.31046e-05 -0.000209078  0.000141958 2.87934e-05 -0.000209078  6.35585e-05 2.20718e-05 -0.000209078  3.21114e-05 8.98957e-06 -0.000209078  1.10952e-05 1.02603e-05 -0.000209078  2.64815e-05 -2.12092e-07 -0.000209078  5.26125e-05 -8.42027e-06 -0.000209078  4.10817e-05 -4.04576e-05 -0.000209078  1.50765e-05 -3.10932e-05 -0.000209078  -0.000178444 2.77069e-06 -0.000209078  0.00013607 1.46496e-05 -0.000209078  8.14818e-05 5.58699e-06 -0.000209078  4.6951e-05 -8.76492e-06 -0.000209078  2.3816e-05 2.79436e-06 -0.000209078  1.73309e-05 4.1795e-06 -0.000209078  1.9088e-05 -1.73773e-05 -0.000209078  -5.11239e-08 -5.31391e-05 -0.000209078  -3.25205e-05 -3.52453e-05 -0.000209078  -0.000162459 -2.08326e-05 -0.000209078  0.000118632 -8.27512e-06 -0.000209078  0.000101591 -5.98145e-06 -0.000209078  6.74232e-05 -2.01276e-05 -0.000209078  4.08267e-05 -5.00999e-06 -0.000209078  1.30472e-05 1.08393e-06 -0.000209078  -5.97507e-06 -4.15709e-06 -0.000209078  -1.83982e-05 -1.81053e-05 -0.000209078  -4.27915e-05 -5.47959e-06 -0.000209078  -7.75227e-05 7.30824e-06 -0.000209078  4.91389e-05 -3.90606e-05 -0.000209078  8.9268e-05 -3.17145e-05 -0.000209078  6.83052e-05 -4.85087e-05 -0.000209078  5.02353e-05 -3.27197e-05 -0.000209078  1.82306e-05 -2.41148e-05 -0.000209078  -5.31807e-06 -1.09313e-05 -0.000209078  -2.41793e-05 -1.2689e-07 -0.000209078  -5.05422e-05 9.9377e-06 -0.000209078  -0.000107348 3.21734e-05 -0.000209078  9.81615e-06 -5.20703e-05 -0.000209078  8.92122e-05 -4.52378e-05 -0.000209078  7.60879e-05 -6.02236e-05 -0.000209078  6.29792e-05 -5.31581e-05 -0.000209078  3.01759e-05 -5.67869e-05 -0.000209078  7.25344e-06 -3.89063e-05 -0.000209078  -9.98912e-06 -1.99023e-05 -0.000209078  -3.38607e-05 -3.48902e-06 -0.000209078  -0.000112112 9.52534e-06 -0.000209078  -5.81653e-05 -7.31135e-05 -0.000209078  5.85116e-05 -5.65868e-05 -0.000209078  5.11558e-05 -7.47561e-05 -0.000209078  3.88134e-05 -7.95619e-05 -0.000209078  1.3267e-05 -9.97916e-05 -0.000209078  -1.51619e-06 -8.09033e-05 -0.000209078  -9.69213e-06 -5.0295e-05 -0.000209078  -2.26726e-05 -2.1932e-05 -0.000209078  -0.000111302 1.12649e-05 -0.000209078  -0.000137773 0.00011156 -0.000209078  5.71051e-05 4.28911e-05 -0.000209078  4.90649e-05 -2.76222e-05 -0.000209078  4.50225e-05 -6.9845e-05 -0.000209078  1.7988e-05 -0.000144248 -0.000209078  -1.66755e-05 -0.0001465 -0.000209078  -2.66136e-05 -0.000112564 -0.000209078  -1.16668e-05 -0.000102955 -0.000209078  -0.000116975 -9.52315e-05 -0.000209078  
            </DataArray>
         </PointData> 
      </Piece>
   </UnstructuredGrid> 
</VTKFile>
