<?xml version="1.0"?>
<VTKFile type="UnstructuredGrid" version="0.1" byte_order="LittleEndian">
   <UnstructuredGrid>
      <Piece NumberOfPoints="81" NumberOfCells="0" > 
         <Points> 
            <DataArray type="Float64" Name="Position" NumberOfComponents="3" format="ascii"> 
               0  0  20  
               0.375  0  20  
               0.75  0  20  
               1.125  0  20  
               1.5  0  20  
               1.875  0  20  
               2.25  0  20  
               2.625  0  20  
               3  0  20  
               0  0.375  20  
               0.375  0.375  20  
               0.75  0.375  20  
               1.125  0.375  20  
               1.5  0.375  20  
               1.875  0.375  20  
               2.25  0.375  20  
               2.625  0.375  20  
               3  0.375  20  
               0  0.75  20  
               0.375  0.75  20  
               0.75  0.75  20  
               1.125  0.75  20  
               1.5  0.75  20  
               1.875  0.75  20  
               2.25  0.75  20  
               2.625  0.75  20  
               3  0.75  20  
               0  1.125  20  
               0.375  1.125  20  
               0.75  1.125  20  
               1.125  1.125  20  
               1.5  1.125  20  
               1.875  1.125  20  
               2.25  1.125  20  
               2.625  1.125  20  
               3  1.125  20  
               0  1.5  20  
               0.375  1.5  20  
               0.75  1.5  20  
               1.125  1.5  20  
               1.5  1.5  20  
               1.875  1.5  20  
               2.25  1.5  20  
               2.625  1.5  20  
               3  1.5  20  
               0  1.875  20  
               0.375  1.875  20  
               0.75  1.875  20  
               1.125  1.875  20  
               1.5  1.875  20  
               1.875  1.875  20  
               2.25  1.875  20  
               2.625  1.875  20  
               3  1.875  20  
               0  2.25  20  
               0.375  2.25  20  
               0.75  2.25  20  
               1.125  2.25  20  
               1.5  2.25  20  
               1.875  2.25  20  
               2.25  2.25  20  
               2.625  2.25  20  
               3  2.25  20  
               0  2.625  20  
               0.375  2.625  20  
               0.75  2.625  20  
               1.125  2.625  20  
               1.5  2.625  20  
               1.875  2.625  20  
               2.25  2.625  20  
               2.625  2.625  20  
               3  2.625  20  
               0  3  20  
               0.375  3  20  
               0.75  3  20  
               1.125  3  20  
               1.5  3  20  
               1.875  3  20  
               2.25  3  20  
               2.625  3  20  
               3  3  20  
            </DataArray>
         </Points> 

         <Cells>
            <DataArray type="Int32" Name="connectivity" NumberOfComponents="1" format="ascii">
               
            </DataArray> 
            <DataArray type="Int32" Name="offsets" NumberOfComponents="1" format="ascii">
               
            </DataArray>
            <DataArray type="UInt8"  Name="types" NumberOfComponents="1" format="ascii">
               
            </DataArray>
         </Cells>
         <PointData Scalars="Rank " Vectors="Displacement Velocity Traction ">
            <DataArray type="UInt32" Name="Rank" NumberOfComponents="1" format="ascii">
               0 0 0 0 0 0 0 0 0 0 0 0 0 0 0 0 0 0 0 0 0 0 0 0 0 0 0 0 0 0 0 0 0 0 0 0 0 0 0 0 0 0 0 0 0 0 0 0 0 0 0 0 0 0 0 0 0 0 0 0 0 0 0 0 0 0 0 0 0 0 0 0 0 0 0 0 0 0 0 0 0 
            </DataArray>
            <DataArray type="Float64" Name="Displacement" NumberOfComponents="3" format="ascii">
               0.000157894 0.000157949 -0.00064053  8.70563e-05 0.000197846 -0.000675049  4.18875e-05 0.000242512 -0.000641796  2.52705e-06 0.000241965 -0.000629859  -1.679e-05 0.000242187 -0.000628894  -5.60707e-05 0.000253238 -0.000613575  -9.76115e-05 0.000232315 -0.000637706  -5.99596e-05 0.000156836 -0.000669989  -8.18665e-05 0.000164094 -0.000579144  0.000197289 8.70795e-05 -0.000674718  0.000107798 0.000108183 -0.000686804  5.80811e-05 0.000134111 -0.00064109  1.98466e-05 0.00013824 -0.000629894  4.48152e-06 0.00014706 -0.000629745  -2.32407e-05 0.000139578 -0.00061897  -9.10234e-05 0.000146352 -0.000644743  -0.000105725 0.000111477 -0.000707368  -0.000145761 0.000114566 -0.000656586  0.000241937 4.20629e-05 -0.000641345  0.000133706 5.82992e-05 -0.000641024  7.46221e-05 7.48559e-05 -0.000568125  1.34754e-05 8.71251e-05 -0.000546579  4.5414e-07 9.00075e-05 -0.000548068  -1.68445e-05 8.90652e-05 -0.000544163  -9.61958e-05 9.8119e-05 -0.000569131  -0.000141559 8.58555e-05 -0.00064631  -0.000225253 9.90589e-05 -0.000632966  0.000241377 2.9447e-06 -0.000629498  0.000137856 2.0153e-05 -0.000629913  8.69163e-05 1.37899e-05 -0.000546664  2.75231e-05 2.78027e-05 -0.000515717  -7.16318e-08 2.4901e-05 -0.000516642  -2.55126e-05 3.14546e-05 -0.000517184  -8.34233e-05 2.71793e-05 -0.000546341  -0.000132316 2.9995e-05 -0.000622864  -0.000242989 4.01086e-05 -0.000613752  0.000241656 -1.63882e-05 -0.00062852  0.000146695 4.8335e-06 -0.000629743  8.98088e-05 7.93124e-07 -0.000548125  2.46201e-05 2.37502e-07 -0.000516601  5.00043e-06 5.30183e-06 -0.000519346  -1.50873e-05 5.93964e-06 -0.000516627  -7.96077e-05 1.04145e-05 -0.000547102  -0.000131023 6.59737e-06 -0.000628094  -0.000221732 2.97755e-05 -0.000623136  0.000252721 -5.58857e-05 -0.000613162  0.00013919 -2.29988e-05 -0.00061893  8.88498e-05 -1.66535e-05 -0.000544204  3.11674e-05 -2.53495e-05 -0.000517122  5.61582e-06 -1.49431e-05 -0.000516597  -2.18073e-05 -2.16302e-05 -0.000514538  -8.22819e-05 -5.13061e-06 -0.000544574  -0.00013112 -1.61489e-05 -0.000626049  -0.000235772 2.44556e-05 -0.000621146  0.000231691 -9.74497e-05 -0.000637356  0.000145925 -9.09339e-05 -0.000644783  9.78819e-05 -9.61617e-05 -0.000569261  2.68677e-05 -8.34059e-05 -0.00054639  1.0068e-05 -7.9609e-05 -0.000547177  -5.35456e-06 -8.22419e-05 -0.000544673  -6.89316e-05 -6.88227e-05 -0.0005679  -0.000125522 -5.80036e-05 -0.000641485  -0.000232891 -3.90625e-05 -0.000636656  0.000156145 -5.95678e-05 -0.000669579  0.000111031 -0.000105526 -0.000707373  8.55872e-05 -0.000141428 -0.000646362  2.96163e-05 -0.000132227 -0.000622849  6.19237e-06 -0.000130956 -0.000628125  -1.64241e-05 -0.000131013 -0.000626101  -5.809e-05 -0.00012528 -0.000641452  -0.000102483 -0.000102258 -0.000688789  -0.000188923 -8.85272e-05 -0.000671749  0.000163307 -8.13366e-05 -0.000578321  0.00011396 -0.000145381 -0.000656309  9.87492e-05 -0.000225004 -0.000632777  3.98085e-05 -0.000242835 -0.000613513  2.93464e-05 -0.000221563 -0.00062294  2.40552e-05 -0.000235571 -0.000620944  -3.91651e-05 -0.000232527 -0.000636291  -8.83446e-05 -0.000188464 -0.000671471  -0.00015693 -0.000157115 -0.000633976  
            </DataArray>
            <DataArray type="Float64" Name="Velocity" NumberOfComponents="3" format="ascii">
               0.000168022 0.000167161 -0.000706326  9.78387e-05 0.000207727 -0.000746601  4.98518e-05 0.000256032 -0.000712643  4.04423e-06 0.000254461 -0.000702328  -1.70078e-05 0.000254156 -0.000702164  -6.07278e-05 0.000267581 -0.000684621  -0.000105496 0.000245509 -0.000709811  -6.02472e-05 0.000163427 -0.000741091  -7.90733e-05 0.000170147 -0.000634726  0.000208112 9.70997e-05 -0.000746738  0.000116768 0.000116334 -0.000764601  6.60192e-05 0.000142978 -0.000717463  2.30328e-05 0.000147004 -0.000706903  5.55142e-06 0.000156282 -0.000707846  -2.54948e-05 0.000148498 -0.00069498  -0.000100957 0.000157149 -0.000722073  -0.00011312 0.000119567 -0.000787194  -0.000150668 0.000120966 -0.000726173  0.000256326 4.93511e-05 -0.000712426  0.000143157 6.5405e-05 -0.000717223  8.24814e-05 8.20231e-05 -0.000642468  1.58458e-05 9.45986e-05 -0.000621158  1.37809e-06 9.7586e-05 -0.000624285  -1.78167e-05 9.65887e-05 -0.000618906  -0.000105655 0.000107662 -0.000644006  -0.000152118 9.49666e-05 -0.000723657  -0.000237819 0.000107122 -0.000704304  0.000254935 3.74363e-06 -0.000702358  0.000147378 2.25069e-05 -0.00070678  9.50555e-05 1.5275e-05 -0.000621267  3.08549e-05 3.03329e-05 -0.00059034  3.73796e-07 2.73651e-05 -0.000592647  -2.76838e-05 3.46444e-05 -0.00059228  -9.01092e-05 2.98479e-05 -0.000621574  -0.000140262 3.30929e-05 -0.00069947  -0.000255881 4.31428e-05 -0.000684732  0.000254626 -1.73117e-05 -0.000702193  0.000156715 5.18644e-06 -0.000707695  9.81343e-05 9.15971e-07 -0.000624385  2.79212e-05 -1.46447e-07 -0.000592624  6.18025e-06 5.61881e-06 -0.00059671  -1.61548e-05 6.42517e-06 -0.000592598  -8.59456e-05 1.09446e-05 -0.000623126  -0.000138529 6.97583e-06 -0.000706048  -0.000231636 3.1531e-05 -0.000695704  0.000268096 -6.14458e-05 -0.000684509  0.000148889 -2.61105e-05 -0.000694751  9.71165e-05 -1.84818e-05 -0.000619015  3.52135e-05 -2.83929e-05 -0.000592301  6.93089e-06 -1.69649e-05 -0.000592614  -2.33541e-05 -2.40074e-05 -0.000588977  -8.89869e-05 -6.92632e-06 -0.000618838  -0.000138923 -1.89343e-05 -0.000702383  -0.000247633 2.54417e-05 -0.000692281  0.000245756 -0.000106271 -0.000709824  0.000157573 -0.000101776 -0.00072203  0.000108311 -0.000106523 -0.000644221  3.03765e-05 -9.08015e-05 -0.000621682  1.14443e-05 -8.67309e-05 -0.000623274  -6.15678e-06 -8.9593e-05 -0.000618961  -7.55625e-05 -7.61817e-05 -0.000642463  -0.000133055 -6.61089e-05 -0.000717783  -0.000244658 -4.68866e-05 -0.00070656  0.000163435 -6.06162e-05 -0.000740649  0.000119898 -0.000113666 -0.000786966  9.56587e-05 -0.000152987 -0.00072363  3.36094e-05 -0.000141003 -0.000699241  7.37034e-06 -0.000139326 -0.000705923  -1.8262e-05 -0.000139607 -0.000702264  -6.52664e-05 -0.000133468 -0.000717531  -0.000109869 -0.000110587 -0.000766557  -0.000197465 -9.92864e-05 -0.00074256  0.0001698 -7.93286e-05 -0.000633859  0.000120962 -0.000150893 -0.000725903  0.000107797 -0.000238614 -0.000704559  4.37893e-05 -0.000256891 -0.000684869  3.19781e-05 -0.000232565 -0.000695995  2.61212e-05 -0.000248584 -0.000692498  -4.61005e-05 -0.000245326 -0.000706452  -9.82896e-05 -0.000198093 -0.000742827  -0.000165897 -0.000167086 -0.00069854  
            </DataArray>
            <DataArray type="Float64" Name="Traction" NumberOfComponents="3" format="ascii">
               -0.000943854 -0.000946434 -0.00900002  -0.00084028 -0.00168708 -0.00900002  -0.000554493 -0.00225606 -0.00900002  -5.52226e-05 -0.00217768 -0.00900002  -0.000182714 -0.00216859 -0.00900002  0.000601516 -0.00224339 -0.00900002  0.00192695 -0.00196187 -0.00900002  0.00024871 -0.000703417 -0.00900002  -0.000742726 -0.000317129 -0.00900002  -0.00167896 -0.000840722 -0.00900002  -0.00125184 -0.00125558 -0.00900002  -0.000725324 -0.00175004 -0.00900002  -0.000233046 -0.00183377 -0.00900002  -0.000349122 -0.00191095 -0.00900002  0.000274734 -0.00175836 -0.00900002  0.00211281 -0.00182108 -0.00900002  0.00111236 -0.00118589 -0.00900002  0.000427095 -0.000789517 -0.00900002  -0.00224737 -0.00055345 -0.00900002  -0.00174619 -0.000724469 -0.00900002  -0.00107413 -0.00107324 -0.00900002  -0.000200099 -0.00133755 -0.00900002  -0.000188752 -0.00137626 -0.00900002  0.00024216 -0.00127173 -0.00900002  0.00220961 -0.00130883 -0.00900002  0.00178172 -0.00118888 -0.00900002  0.00182517 -0.00126319 -0.00900002  -0.00216851 -5.85901e-05 -0.00900002  -0.0018298 -0.000235086 -0.00900002  -0.00133848 -0.000202355 -0.00900002  -0.000395321 -0.000397569 -0.00900002  -0.000124747 -0.000345737 -0.00900002  0.000396124 -0.000403534 -0.00900002  0.00205115 -0.000319268 -0.00900002  0.00171636 -0.000319982 -0.00900002  0.00211622 -0.0003668 -0.00900002  -0.00215997 -0.000187918 -0.00900002  -0.00190708 -0.000353821 -0.00900002  -0.00137732 -0.000193352 -0.00900002  -0.000343357 -0.000129586 -0.00900002  -0.000222404 -0.000227451 -0.00900002  0.00028653 -0.000214921 -0.00900002  0.00207456 -0.000228856 -0.00900002  0.0017683 -0.000130134 -0.00900002  0.00194286 -0.000367437 -0.00900002  -0.0022353 0.000599021 -0.00900002  -0.00175433 0.000271553 -0.00900002  -0.0012728 0.000239167 -0.00900002  -0.000401389 0.000393067 -0.00900002  -0.000209913 0.000283472 -0.00900002  0.000367742 0.000364539 -0.00900002  0.00211332 0.000151832 -0.00900002  0.00177069 0.00024378 -0.00900002  0.00209682 -0.000192984 -0.00900002  -0.00195272 0.00192519 -0.00900002  -0.0018169 0.00211117 -0.00900002  -0.00130978 0.00220692 -0.00900002  -0.000317242 0.00204829 -0.00900002  -0.000224247 0.00207212 -0.00900002  0.000154896 0.00211078 -0.00900002  0.00185202 0.00185001 -0.00900002  0.00167438 0.00139481 -0.00900002  0.00210985 0.00111217 -0.00900002  -0.00069271 0.000240639 -0.00900002  -0.0011815 0.00110649 -0.00900002  -0.00118953 0.00177546 -0.00900002  -0.00031742 0.00171025 -0.00900002  -0.000125545 0.00176245 -0.00900002  0.000246744 0.00176448 -0.00900002  0.00139595 0.00166706 -0.00900002  0.00121537 0.00120953 -0.00900002  0.00154316 0.00089091 -0.00900002  -0.000303331 -0.000756084 -0.00900002  -0.000782041 0.00041655 -0.00900002  -0.00126274 0.00181564 -0.00900002  -0.00036495 0.00210747 -0.00900002  -0.000362814 0.00193382 -0.00900002  -0.000189616 0.00208715 -0.00900002  0.00111368 0.00209781 -0.00900002  0.000891783 0.0015319 -0.00900002  0.000918976 0.000915814 -0.00900002  
            </DataArray>
         </PointData> 
      </Piece>
   </UnstructuredGrid> 
</VTKFile>
