<?xml version="1.0"?>
<VTKFile type="UnstructuredGrid" version="0.1" byte_order="LittleEndian">
   <UnstructuredGrid>
      <Piece NumberOfPoints="81" NumberOfCells="0" > 
         <Points> 
            <DataArray type="Float64" Name="Position" NumberOfComponents="3" format="ascii"> 
               0  0  15  
               0.375  0  15  
               0.75  0  15  
               1.125  0  15  
               1.5  0  15  
               1.875  0  15  
               2.25  0  15  
               2.625  0  15  
               3  0  15  
               0  0.375  15  
               0.375  0.375  15  
               0.75  0.375  15  
               1.125  0.375  15  
               1.5  0.375  15  
               1.875  0.375  15  
               2.25  0.375  15  
               2.625  0.375  15  
               3  0.375  15  
               0  0.75  15  
               0.375  0.75  15  
               0.75  0.75  15  
               1.125  0.75  15  
               1.5  0.75  15  
               1.875  0.75  15  
               2.25  0.75  15  
               2.625  0.75  15  
               3  0.75  15  
               0  1.125  15  
               0.375  1.125  15  
               0.75  1.125  15  
               1.125  1.125  15  
               1.5  1.125  15  
               1.875  1.125  15  
               2.25  1.125  15  
               2.625  1.125  15  
               3  1.125  15  
               0  1.5  15  
               0.375  1.5  15  
               0.75  1.5  15  
               1.125  1.5  15  
               1.5  1.5  15  
               1.875  1.5  15  
               2.25  1.5  15  
               2.625  1.5  15  
               3  1.5  15  
               0  1.875  15  
               0.375  1.875  15  
               0.75  1.875  15  
               1.125  1.875  15  
               1.5  1.875  15  
               1.875  1.875  15  
               2.25  1.875  15  
               2.625  1.875  15  
               3  1.875  15  
               0  2.25  15  
               0.375  2.25  15  
               0.75  2.25  15  
               1.125  2.25  15  
               1.5  2.25  15  
               1.875  2.25  15  
               2.25  2.25  15  
               2.625  2.25  15  
               3  2.25  15  
               0  2.625  15  
               0.375  2.625  15  
               0.75  2.625  15  
               1.125  2.625  15  
               1.5  2.625  15  
               1.875  2.625  15  
               2.25  2.625  15  
               2.625  2.625  15  
               3  2.625  15  
               0  3  15  
               0.375  3  15  
               0.75  3  15  
               1.125  3  15  
               1.5  3  15  
               1.875  3  15  
               2.25  3  15  
               2.625  3  15  
               3  3  15  
            </DataArray>
         </Points> 

         <Cells>
            <DataArray type="Int32" Name="connectivity" NumberOfComponents="1" format="ascii">
               
            </DataArray> 
            <DataArray type="Int32" Name="offsets" NumberOfComponents="1" format="ascii">
               
            </DataArray>
            <DataArray type="UInt8"  Name="types" NumberOfComponents="1" format="ascii">
               
            </DataArray>
         </Cells>
         <PointData Scalars="Rank " Vectors="Displacement Velocity Traction ">
            <DataArray type="UInt32" Name="Rank" NumberOfComponents="1" format="ascii">
               0 0 0 0 0 0 0 0 0 0 0 0 0 0 0 0 0 0 0 0 0 0 0 0 0 0 0 0 0 0 0 0 0 0 0 0 0 0 0 0 0 0 0 0 0 0 0 0 0 0 0 0 0 0 0 0 0 0 0 0 0 0 0 0 0 0 0 0 0 0 0 0 0 0 0 0 0 0 0 0 0 
            </DataArray>
            <DataArray type="Float64" Name="Displacement" NumberOfComponents="3" format="ascii">
               0 0 0  0 0 0  0 0 0  0 0 0  0 0 0  0 0 0  0 0 0  0 0 0  0 0 0  0 0 0  0 0 0  0 0 0  0 0 0  0 0 0  0 0 0  0 0 0  0 0 0  0 0 0  0 0 0  0 0 0  0 0 0  0 0 0  0 0 0  0 0 0  0 0 0  0 0 0  0 0 0  0 0 0  0 0 0  0 0 0  0 0 0  0 0 0  0 0 0  0 0 0  0 0 0  0 0 0  0 0 0  0 0 0  0 0 0  0 0 0  0 0 0  0 0 0  0 0 0  0 0 0  0 0 0  0 0 0  0 0 0  0 0 0  0 0 0  0 0 0  0 0 0  0 0 0  0 0 0  0 0 0  0 0 0  0 0 0  0 0 0  0 0 0  0 0 0  0 0 0  0 0 0  0 0 0  0 0 0  0 0 0  0 0 0  0 0 0  0 0 0  0 0 0  0 0 0  0 0 0  0 0 0  0 0 0  0 0 0  0 0 0  0 0 0  0 0 0  0 0 0  0 0 0  0 0 0  0 0 0  0 0 0  
            </DataArray>
            <DataArray type="Float64" Name="Velocity" NumberOfComponents="3" format="ascii">
               0 0 0  0 0 0  0 0 0  0 0 0  0 0 0  0 0 0  0 0 0  0 0 0  0 0 0  0 0 0  0 0 0  0 0 0  0 0 0  0 0 0  0 0 0  0 0 0  0 0 0  0 0 0  0 0 0  0 0 0  0 0 0  0 0 0  0 0 0  0 0 0  0 0 0  0 0 0  0 0 0  0 0 0  0 0 0  0 0 0  0 0 0  0 0 0  0 0 0  0 0 0  0 0 0  0 0 0  0 0 0  0 0 0  0 0 0  0 0 0  0 0 0  0 0 0  0 0 0  0 0 0  0 0 0  0 0 0  0 0 0  0 0 0  0 0 0  0 0 0  0 0 0  0 0 0  0 0 0  0 0 0  0 0 0  0 0 0  0 0 0  0 0 0  0 0 0  0 0 0  0 0 0  0 0 0  0 0 0  0 0 0  0 0 0  0 0 0  0 0 0  0 0 0  0 0 0  0 0 0  0 0 0  0 0 0  0 0 0  0 0 0  0 0 0  0 0 0  0 0 0  0 0 0  0 0 0  0 0 0  0 0 0  
            </DataArray>
            <DataArray type="Float64" Name="Traction" NumberOfComponents="3" format="ascii">
               0.012476 0.0123262 -0.0264864  0.00661361 0.0146557 -0.0264864  0.00281817 0.0156726 -0.0264864  0.000849283 0.0163406 -0.0264864  -0.00110049 0.016472 -0.0264864  -0.00256118 0.0167318 -0.0264864  -0.00428544 0.0163705 -0.0264864  -0.00942217 0.0160536 -0.0264864  -0.0171972 0.0171202 -0.0264864  0.0147969 0.00640136 -0.0264864  0.0081602 0.00802532 -0.0264864  0.00438873 0.00815238 -0.0264864  0.00207455 0.00840461 -0.0264864  -3.82011e-05 0.00828753 -0.0264864  -0.00155999 0.00848266 -0.0264864  -0.00294798 0.00818996 -0.0264864  -0.00797985 0.00809368 -0.0264864  -0.0160826 0.0095654 -0.0264864  0.0157996 0.0024353 -0.0264864  0.00819377 0.00415548 -0.0264864  0.00442197 0.00428593 -0.0264864  0.00219299 0.00432851 -0.0264864  0.000110292 0.00416391 -0.0264864  -0.00164359 0.00431794 -0.0264864  -0.00319301 0.00415306 -0.0264864  -0.00815441 0.00392142 -0.0264864  -0.0164051 0.00507193 -0.0264864  0.0162694 0.000349764 -0.0264864  0.00829309 0.00175753 -0.0264864  0.00436214 0.00197232 -0.0264864  0.00212747 0.00196768 -0.0264864  0.000110263 0.00184461 -0.0264864  -0.00169012 0.00188917 -0.0264864  -0.00340844 0.00180092 -0.0264864  -0.00839446 0.00174673 -0.0264864  -0.0167422 0.00279291 -0.0264864  0.0162369 -0.00144272 -0.0264864  0.00800166 -0.000277858 -0.0264864  0.0040789 -3.33855e-05 -0.0264864  0.001952 -6.20628e-05 -0.0264864  -9.86854e-06 -0.000227511 -0.0264864  -0.00167816 -0.000198103 -0.0264864  -0.00330348 -0.000190341 -0.0264864  -0.00826505 -9.00893e-05 -0.0264864  -0.0166239 0.00094253 -0.0264864  0.0165429 -0.00268812 -0.0264864  0.00803132 -0.00155265 -0.0264864  0.00407719 -0.00155784 -0.0264864  0.00186015 -0.00172858 -0.0264864  -2.53869e-05 -0.00185556 -0.0264864  -0.0016448 -0.00187087 -0.0264864  -0.00327484 -0.00182727 -0.0264864  -0.00824382 -0.00169754 -0.0264864  -0.016676 -0.000527629 -0.0264864  0.0159012 -0.00409604 -0.0264864  0.0074382 -0.00261809 -0.0264864  0.00370369 -0.0028414 -0.0264864  0.00164856 -0.00327074 -0.0264864  -4.19577e-05 -0.00332359 -0.0264864  -0.00153606 -0.00340804 -0.0264864  -0.00309242 -0.00332643 -0.0264864  -0.00784315 -0.00339731 -0.0264864  -0.0160911 -0.00193281 -0.0264864  0.0159477 -0.00856689 -0.0264864  0.00728274 -0.00725161 -0.0264864  0.00351417 -0.00750725 -0.0264864  0.00168597 -0.00806148 -0.0264864  0.000152878 -0.008106 -0.0264864  -0.00132025 -0.00824761 -0.0264864  -0.00308292 -0.00799141 -0.0264864  -0.00761867 -0.00783501 -0.0264864  -0.0153211 -0.00603594 -0.0264864  0.0174876 -0.0176354 -0.0264864  0.00864095 -0.0160302 -0.0264864  0.00481159 -0.0160043 -0.0264864  0.00284352 -0.0165356 -0.0264864  0.0012838 -0.0163067 -0.0264864  4.56937e-05 -0.0166161 -0.0264864  -0.00148346 -0.0163023 -0.0264864  -0.00576691 -0.0155259 -0.0264864  -0.0131604 -0.0133725 -0.0264864  
            </DataArray>
         </PointData> 
      </Piece>
   </UnstructuredGrid> 
</VTKFile>
