<?xml version="1.0"?>
<VTKFile type="UnstructuredGrid" version="0.1" byte_order="LittleEndian">
   <UnstructuredGrid>
      <Piece NumberOfPoints="81" NumberOfCells="0" > 
         <Points> 
            <DataArray type="Float64" Name="Position" NumberOfComponents="3" format="ascii"> 
               0  0  15  
               0.375  0  15  
               0.75  0  15  
               1.125  0  15  
               1.5  0  15  
               1.875  0  15  
               2.25  0  15  
               2.625  0  15  
               3  0  15  
               0  0.375  15  
               0.375  0.375  15  
               0.75  0.375  15  
               1.125  0.375  15  
               1.5  0.375  15  
               1.875  0.375  15  
               2.25  0.375  15  
               2.625  0.375  15  
               3  0.375  15  
               0  0.75  15  
               0.375  0.75  15  
               0.75  0.75  15  
               1.125  0.75  15  
               1.5  0.75  15  
               1.875  0.75  15  
               2.25  0.75  15  
               2.625  0.75  15  
               3  0.75  15  
               0  1.125  15  
               0.375  1.125  15  
               0.75  1.125  15  
               1.125  1.125  15  
               1.5  1.125  15  
               1.875  1.125  15  
               2.25  1.125  15  
               2.625  1.125  15  
               3  1.125  15  
               0  1.5  15  
               0.375  1.5  15  
               0.75  1.5  15  
               1.125  1.5  15  
               1.5  1.5  15  
               1.875  1.5  15  
               2.25  1.5  15  
               2.625  1.5  15  
               3  1.5  15  
               0  1.875  15  
               0.375  1.875  15  
               0.75  1.875  15  
               1.125  1.875  15  
               1.5  1.875  15  
               1.875  1.875  15  
               2.25  1.875  15  
               2.625  1.875  15  
               3  1.875  15  
               0  2.25  15  
               0.375  2.25  15  
               0.75  2.25  15  
               1.125  2.25  15  
               1.5  2.25  15  
               1.875  2.25  15  
               2.25  2.25  15  
               2.625  2.25  15  
               3  2.25  15  
               0  2.625  15  
               0.375  2.625  15  
               0.75  2.625  15  
               1.125  2.625  15  
               1.5  2.625  15  
               1.875  2.625  15  
               2.25  2.625  15  
               2.625  2.625  15  
               3  2.625  15  
               0  3  15  
               0.375  3  15  
               0.75  3  15  
               1.125  3  15  
               1.5  3  15  
               1.875  3  15  
               2.25  3  15  
               2.625  3  15  
               3  3  15  
            </DataArray>
         </Points> 

         <Cells>
            <DataArray type="Int32" Name="connectivity" NumberOfComponents="1" format="ascii">
               
            </DataArray> 
            <DataArray type="Int32" Name="offsets" NumberOfComponents="1" format="ascii">
               
            </DataArray>
            <DataArray type="UInt8"  Name="types" NumberOfComponents="1" format="ascii">
               
            </DataArray>
         </Cells>
         <PointData Scalars="Rank " Vectors="Displacement Velocity Traction ">
            <DataArray type="UInt32" Name="Rank" NumberOfComponents="1" format="ascii">
               0 0 0 0 0 0 0 0 0 0 0 0 0 0 0 0 0 0 0 0 0 0 0 0 0 0 0 0 0 0 0 0 0 0 0 0 0 0 0 0 0 0 0 0 0 0 0 0 0 0 0 0 0 0 0 0 0 0 0 0 0 0 0 0 0 0 0 0 0 0 0 0 0 0 0 0 0 0 0 0 0 
            </DataArray>
            <DataArray type="Float64" Name="Displacement" NumberOfComponents="3" format="ascii">
               0.000246558 0.000160692 -0.000208894  0.000237943 6.15874e-05 -0.0002182  0.000203852 3.20357e-05 -0.000206218  0.000155742 1.31553e-05 -0.000201485  0.000110798 2.1016e-05 -0.000201  7.11564e-05 1.03843e-05 -0.000196223  4.11511e-05 2.41864e-05 -0.00020448  2.05436e-05 3.64797e-05 -0.000216644  1.31706e-05 -4.052e-06 -0.000190799  0.000145285 0.000151602 -0.000218236  0.00014803 6.2915e-05 -0.000219265  0.000128255 4.48019e-05 -0.000202793  9.54569e-05 2.7079e-05 -0.000198565  5.90809e-05 3.40722e-05 -0.000198294  2.21015e-05 2.18287e-05 -0.000194977  -1.31755e-05 3.17386e-05 -0.000203788  -3.40697e-05 3.63109e-05 -0.000225779  -3.33503e-05 -1.28735e-05 -0.000212467  0.000111847 0.000115438 -0.000206293  0.00012701 3.98312e-05 -0.000202813  0.000112814 2.66958e-05 -0.000176258  8.25818e-05 1.45566e-05 -0.000168435  4.89335e-05 1.9139e-05 -0.000168679  1.51118e-05 1.05546e-05 -0.000167498  -1.59879e-05 1.66392e-05 -0.000176537  -3.02378e-05 1.46017e-05 -0.000204277  -2.13561e-05 -3.69834e-05 -0.000202969  8.86914e-05 6.4009e-05 -0.000201519  0.00010574 2.13435e-06 -0.000198566  9.73477e-05 -7.96592e-06 -0.000168411  7.303e-05 -1.38259e-05 -0.000157324  4.36742e-05 -1.21372e-05 -0.000157413  1.33622e-05 -1.68743e-05 -0.000157583  -1.33111e-05 -1.57727e-05 -0.000168156  -2.40768e-05 -2.1963e-05 -0.000196158  -1.16622e-05 -7.07292e-05 -0.000196273  9.76042e-05 1.47977e-05 -0.000201028  0.0001142 -4.03116e-05 -0.000198292  0.000103618 -4.63368e-05 -0.000168653  7.60622e-05 -4.73041e-05 -0.000157417  4.37196e-05 -4.65746e-05 -0.000158203  1.01261e-05 -4.83617e-05 -0.000157389  -2.03407e-05 -5.1207e-05 -0.000168427  -3.42529e-05 -6.0998e-05 -0.000197757  -1.99887e-05 -0.000113244 -0.000199125  9.5492e-05 -3.01983e-05 -0.000196277  0.000110317 -8.32028e-05 -0.00019499  0.000101171 -8.35491e-05 -0.000167481  7.44108e-05 -8.00498e-05 -0.000157592  4.22714e-05 -7.97585e-05 -0.0001574  9.13864e-06 -7.91498e-05 -0.000156941  -1.9335e-05 -8.65954e-05 -0.000167882  -3.18612e-05 -0.00010011 -0.000197433  -1.62512e-05 -0.000162258 -0.000198795  0.00011591 -6.61336e-05 -0.000204532  0.000126453 -0.00012317 -0.000203778  0.000112834 -0.000115978 -0.000176499  8.06035e-05 -0.000107648 -0.000168139  4.33621e-05 -0.000107985 -0.000168411  4.78463e-06 -0.000105096 -0.00016786  -3.02013e-05 -0.000118497 -0.000176201  -4.86177e-05 -0.000135778 -0.000202961  -3.37222e-05 -0.000216977 -0.000204762  0.000143488 -9.17004e-05 -0.000216729  0.000144164 -0.000146607 -0.000225771  0.000120785 -0.000129723 -0.000204267  8.0835e-05 -0.000117326 -0.000196177  3.73362e-05 -0.000118498 -0.000197773  -6.41134e-06 -0.000114505 -0.000197439  -4.57238e-05 -0.000133904 -0.000202987  -7.00214e-05 -0.00015759 -0.000219916  -6.79037e-05 -0.000256566 -0.000217334  0.000104976 -0.000100942 -0.000191079  9.46517e-05 -0.000145366 -0.000212604  6.64781e-05 -0.000118185 -0.000203058  2.78931e-05 -0.000101856 -0.000196377  -1.87601e-05 -0.000100973 -0.00019922  -7.08715e-05 -9.60015e-05 -0.000198889  -0.000127878 -0.000116734 -0.000204903  -0.000168881 -0.000154204 -0.000217427  -0.000179506 -0.000266816 -0.000207154  
            </DataArray>
            <DataArray type="Float64" Name="Velocity" NumberOfComponents="3" format="ascii">
               0.000227444 0.000193106 -0.000249473  0.000218434 0.000106567 -0.00026276  0.000185318 6.46606e-05 -0.000249678  0.000138553 3.93663e-05 -0.00024503  9.20666e-05 3.74584e-05 -0.000244671  4.89651e-05 3.22949e-05 -0.00023869  1.45948e-05 4.80899e-05 -0.000248273  -9.25213e-06 7.40127e-05 -0.000260956  -1.75753e-05 4.03175e-05 -0.000226012  0.000141129 0.000184461 -0.000262474  0.000142519 0.000109186 -0.000267481  0.000120343 7.9537e-05 -0.000249774  8.38471e-05 5.63398e-05 -0.000245265  4.22725e-05 5.52672e-05 -0.000245265  1.03669e-07 4.8007e-05 -0.000241005  -3.8267e-05 5.91296e-05 -0.000251238  -5.99915e-05 7.50661e-05 -0.00027544  -5.84334e-05 3.05434e-05 -0.00025589  9.73115e-05 0.000152178 -0.000249443  0.000110239 8.92163e-05 -0.000249816  9.55909e-05 6.75052e-05 -0.000221526  6.4738e-05 4.98044e-05 -0.000212884  2.9757e-05 4.81688e-05 -0.000213597  -4.25339e-06 4.14944e-05 -0.000211941  -3.32195e-05 4.78642e-05 -0.000221914  -4.43883e-05 5.34263e-05 -0.00025182  -3.27027e-05 3.97681e-06 -0.000246575  7.19478e-05 0.000107633 -0.000244763  8.57457e-05 5.65493e-05 -0.000245317  7.64475e-05 3.93724e-05 -0.000212889  5.23182e-05 2.74851e-05 -0.000200584  2.27102e-05 2.44076e-05 -0.000201106  -6.1933e-06 1.76266e-05 -0.000201153  -2.99318e-05 1.88112e-05 -0.000212775  -3.67845e-05 1.56446e-05 -0.00024248  -2.15535e-05 -3.20977e-05 -0.000238915  6.83174e-05 6.50357e-05 -0.000244389  8.1785e-05 2.14315e-05 -0.000245316  7.06846e-05 8.08676e-06 -0.000213591  4.49476e-05 3.85098e-07 -0.000201098  1.62722e-05 -4.27988e-06 -0.000202312  -1.10772e-05 -1.16878e-05 -0.000201125  -3.36843e-05 -1.51516e-05 -0.000213212  -4.01474e-05 -2.55448e-05 -0.000244651  -2.31429e-05 -7.42613e-05 -0.000242597  5.39958e-05 2.81253e-05 -0.000238431  6.49568e-05 -1.3279e-05 -0.000241065  5.74255e-05 -2.33432e-05 -0.00021192  3.59928e-05 -2.75892e-05 -0.000201116  1.05736e-05 -3.45411e-05 -0.000201103  -1.42705e-05 -4.20014e-05 -0.000200139  -3.51751e-05 -5.01162e-05 -0.000212066  -4.13648e-05 -6.63873e-05 -0.000243745  -2.41586e-05 -0.000120431 -0.000241755  6.68852e-05 2.04384e-06 -0.000248007  7.34791e-05 -4.47135e-05 -0.000251273  6.18533e-05 -5.20145e-05 -0.0002219  3.54824e-05 -5.14856e-05 -0.00021277  6.60585e-06 -6.16743e-05 -0.000213201  -2.22186e-05 -6.72564e-05 -0.000212077  -4.82972e-05 -8.10251e-05 -0.00022143  -5.99898e-05 -0.000102054 -0.000249907  -4.4471e-05 -0.000170199 -0.000247759  7.18027e-05 -1.46611e-05 -0.000260812  7.21666e-05 -6.26367e-05 -0.000275537  5.56791e-05 -6.52659e-05 -0.000251853  2.67409e-05 -6.11392e-05 -0.000242568  -4.82841e-06 -7.38393e-05 -0.000244719  -3.70295e-05 -7.79689e-05 -0.000243821  -6.69702e-05 -9.68063e-05 -0.000249977  -8.51936e-05 -0.000123651 -0.000268325  -8.18863e-05 -0.000205981 -0.000261611  3.82005e-05 -2.03377e-05 -0.000225724  3.15335e-05 -6.23672e-05 -0.000255785  1.32762e-05 -5.88129e-05 -0.000246325  -1.29956e-05 -5.14678e-05 -0.000238698  -4.72084e-05 -6.19593e-05 -0.000242336  -8.77381e-05 -6.46907e-05 -0.000241526  -0.000133759 -8.37877e-05 -0.000247559  -0.000167792 -0.000121824 -0.000261318  -0.000176929 -0.000215519 -0.000246896  
            </DataArray>
            <DataArray type="Float64" Name="Traction" NumberOfComponents="3" format="ascii">
               0.00565842 0.00565707 -0.0136013  0.00281057 0.00686954 -0.0136013  0.00113607 0.00744755 -0.0136013  0.000282825 0.00779898 -0.0136013  -0.000365743 0.00781741 -0.0136013  -0.000926371 0.00809767 -0.0136013  -0.00178565 0.00784662 -0.0136013  -0.00381946 0.00769587 -0.0136013  -0.00825749 0.00832811 -0.0136013  0.00679124 0.00280428 -0.0136013  0.00355691 0.00361751 -0.0136013  0.00184352 0.00374303 -0.0136013  0.000845226 0.00389382 -0.0136013  8.63702e-05 0.00379502 -0.0136013  -0.000459798 0.00384161 -0.0136013  -0.00113447 0.00356104 -0.0136013  -0.00327237 0.00338575 -0.0136013  -0.00766477 0.00398132 -0.0136013  0.0073454 0.00113329 -0.0136013  0.00366593 0.00187401 -0.0136013  0.00191731 0.00195631 -0.0136013  0.000915226 0.00200407 -0.0136013  0.000143448 0.00189018 -0.0136013  -0.000500956 0.0018874 -0.0136013  -0.0012908 0.0016887 -0.0136013  -0.00351188 0.00155792 -0.0136013  -0.00787601 0.00219778 -0.0136013  0.00780992 0.000284055 -0.0136013  0.0038782 0.000829003 -0.0136013  0.00200975 0.000895704 -0.0136013  0.000942448 0.000897788 -0.0136013  0.000110048 0.000819691 -0.0136013  -0.000630807 0.00076873 -0.0136013  -0.00153713 0.000645654 -0.0136013  -0.00383176 0.000634919 -0.0136013  -0.00818509 0.00117453 -0.0136013  0.00793977 -0.00052267 -0.0136013  0.00387456 -6.42273e-05 -0.0136013  0.00197554 -2.99323e-05 -0.0136013  0.000896421 -1.91598e-05 -0.0136013  2.95423e-05 -5.76308e-05 -0.0136013  -0.000721356 -7.5175e-05 -0.0136013  -0.0016091 -9.2854e-05 -0.0136013  -0.00388638 -2.91225e-05 -0.0136013  -0.00803937 0.000484826 -0.0136013  0.00803526 -0.00122427 -0.0136013  0.00404811 -0.000793254 -0.0136013  0.00211012 -0.000860514 -0.0136013  0.000967765 -0.000857131 -0.0136013  5.52891e-05 -0.000826234 -0.0136013  -0.000750234 -0.000822605 -0.0136013  -0.00169133 -0.000767842 -0.0136013  -0.00400069 -0.000687455 -0.0136013  -0.0081887 -5.62011e-05 -0.0136013  0.0078337 -0.00213856 -0.0136013  0.00401026 -0.00159582 -0.0136013  0.00210426 -0.00174632 -0.0136013  0.000976187 -0.00179571 -0.0136013  8.29205e-05 -0.001728 -0.0136013  -0.000719038 -0.00172828 -0.0136013  -0.00164003 -0.00163337 -0.0136013  -0.00387689 -0.00160439 -0.0136013  -0.0080026 -0.000859243 -0.0136013  0.00752578 -0.00439345 -0.0136013  0.00390991 -0.00381907 -0.0136013  0.00198797 -0.00399909 -0.0136013  0.000944872 -0.00407364 -0.0136013  0.000120657 -0.00399868 -0.0136013  -0.000649878 -0.00401259 -0.0136013  -0.00161023 -0.00382509 -0.0136013  -0.00373218 -0.00368641 -0.0136013  -0.00750008 -0.00280977 -0.0136013  0.00794194 -0.0078657 -0.0136013  0.00454751 -0.00747517 -0.0136013  0.00252811 -0.00784126 -0.0136013  0.00144797 -0.00807581 -0.0136013  0.000641633 -0.00810461 -0.0136013  -3.33482e-05 -0.00817259 -0.0136013  -0.000837198 -0.00789004 -0.0136013  -0.0027881 -0.00741019 -0.0136013  -0.00628313 -0.00629836 -0.0136013  
            </DataArray>
         </PointData> 
      </Piece>
   </UnstructuredGrid> 
</VTKFile>
