<?xml version="1.0"?>
<VTKFile type="UnstructuredGrid" version="0.1" byte_order="LittleEndian">
   <UnstructuredGrid>
      <Piece NumberOfPoints="81" NumberOfCells="0" > 
         <Points> 
            <DataArray type="Float64" Name="Position" NumberOfComponents="3" format="ascii"> 
               0  0  15  
               0.375  0  15  
               0.75  0  15  
               1.125  0  15  
               1.5  0  15  
               1.875  0  15  
               2.25  0  15  
               2.625  0  15  
               3  0  15  
               0  0.375  15  
               0.375  0.375  15  
               0.75  0.375  15  
               1.125  0.375  15  
               1.5  0.375  15  
               1.875  0.375  15  
               2.25  0.375  15  
               2.625  0.375  15  
               3  0.375  15  
               0  0.75  15  
               0.375  0.75  15  
               0.75  0.75  15  
               1.125  0.75  15  
               1.5  0.75  15  
               1.875  0.75  15  
               2.25  0.75  15  
               2.625  0.75  15  
               3  0.75  15  
               0  1.125  15  
               0.375  1.125  15  
               0.75  1.125  15  
               1.125  1.125  15  
               1.5  1.125  15  
               1.875  1.125  15  
               2.25  1.125  15  
               2.625  1.125  15  
               3  1.125  15  
               0  1.5  15  
               0.375  1.5  15  
               0.75  1.5  15  
               1.125  1.5  15  
               1.5  1.5  15  
               1.875  1.5  15  
               2.25  1.5  15  
               2.625  1.5  15  
               3  1.5  15  
               0  1.875  15  
               0.375  1.875  15  
               0.75  1.875  15  
               1.125  1.875  15  
               1.5  1.875  15  
               1.875  1.875  15  
               2.25  1.875  15  
               2.625  1.875  15  
               3  1.875  15  
               0  2.25  15  
               0.375  2.25  15  
               0.75  2.25  15  
               1.125  2.25  15  
               1.5  2.25  15  
               1.875  2.25  15  
               2.25  2.25  15  
               2.625  2.25  15  
               3  2.25  15  
               0  2.625  15  
               0.375  2.625  15  
               0.75  2.625  15  
               1.125  2.625  15  
               1.5  2.625  15  
               1.875  2.625  15  
               2.25  2.625  15  
               2.625  2.625  15  
               3  2.625  15  
               0  3  15  
               0.375  3  15  
               0.75  3  15  
               1.125  3  15  
               1.5  3  15  
               1.875  3  15  
               2.25  3  15  
               2.625  3  15  
               3  3  15  
            </DataArray>
         </Points> 

         <Cells>
            <DataArray type="Int32" Name="connectivity" NumberOfComponents="1" format="ascii">
               
            </DataArray> 
            <DataArray type="Int32" Name="offsets" NumberOfComponents="1" format="ascii">
               
            </DataArray>
            <DataArray type="UInt8"  Name="types" NumberOfComponents="1" format="ascii">
               
            </DataArray>
         </Cells>
         <PointData Scalars="Rank " Vectors="Displacement Velocity Traction ">
            <DataArray type="UInt32" Name="Rank" NumberOfComponents="1" format="ascii">
               0 0 0 0 0 0 0 0 0 0 0 0 0 0 0 0 0 0 0 0 0 0 0 0 0 0 0 0 0 0 0 0 0 0 0 0 0 0 0 0 0 0 0 0 0 0 0 0 0 0 0 0 0 0 0 0 0 0 0 0 0 0 0 0 0 0 0 0 0 0 0 0 0 0 0 0 0 0 0 0 0 
            </DataArray>
            <DataArray type="Float64" Name="Displacement" NumberOfComponents="3" format="ascii">
               4.66923e-07 7.91431e-07 -1.63616e-07  3.99634e-07 6.06689e-07 -1.53625e-07  2.19645e-07 2.78191e-07 -1.37974e-07  8.9633e-08 9.50909e-08 -1.35605e-07  -7.31265e-10 4.05016e-07 -1.38766e-07  -7.31959e-08 1.50805e-07 -1.35205e-07  -1.20099e-07 7.71739e-07 -1.37444e-07  -2.02211e-07 8.31593e-07 -1.51069e-07  -2.4168e-07 4.26924e-07 -1.62342e-07  2.666e-08 7.17084e-07 -1.53274e-07  6.05809e-08 6.21872e-07 -1.25622e-07  -2.51818e-08 3.80196e-07 -9.7175e-08  -1.79055e-07 1.51908e-07 -9.35111e-08  -3.22338e-07 4.46949e-07 -9.6636e-08  -4.93006e-07 2.25049e-07 -9.32588e-08  -6.92107e-07 8.25358e-07 -9.67276e-08  -7.93272e-07 8.16231e-07 -1.26045e-07  -7.57058e-07 3.55127e-07 -1.50904e-07  -4.15317e-07 5.61198e-07 -1.37614e-07  -3.25057e-07 5.12011e-07 -9.72971e-08  -2.92502e-07 3.79741e-07 -5.3413e-08  -3.73248e-07 2.00922e-07 -4.7582e-08  -5.01204e-07 4.13809e-07 -5.11152e-08  -6.84991e-07 2.97711e-07 -4.75725e-08  -9.19217e-07 7.87404e-07 -5.28267e-08  -9.95791e-07 6.5942e-07 -9.71088e-08  -9.1751e-07 1.96262e-07 -1.37234e-07  -3.10482e-07 4.16171e-07 -1.35387e-07  -2.39054e-07 3.59267e-07 -9.35436e-08  -1.95561e-07 2.82708e-07 -4.75406e-08  -2.13446e-07 1.92598e-07 -4.02436e-08  -2.55852e-07 3.11557e-07 -4.33752e-08  -3.28225e-07 2.53132e-07 -4.01699e-08  -3.71944e-07 5.84621e-07 -4.73837e-08  -3.26436e-07 4.28352e-07 -9.32336e-08  -2.47612e-07 6.67838e-08 -1.35301e-07  -3.44952e-07 2.79991e-07 -1.38349e-07  -2.70611e-07 2.11619e-07 -9.66919e-08  -2.24375e-07 1.7843e-07 -5.10394e-08  -2.07261e-07 9.9475e-08 -4.33943e-08  -2.36363e-07 1.94172e-07 -4.63727e-08  -3.27999e-07 1.53664e-07 -4.3252e-08  -4.30652e-07 3.62068e-07 -5.11303e-08  -4.46797e-07 2.31586e-07 -9.62576e-08  -3.61996e-07 -8.76999e-08 -1.38518e-07  -1.25819e-07 1.32222e-07 -1.35084e-07  -7.76139e-08 1.06397e-07 -9.33029e-08  -9.52637e-08 1.15646e-07 -4.75712e-08  -1.30358e-07 -3.23439e-09 -4.01745e-08  -1.92168e-07 9.69994e-08 -4.32527e-08  -2.73365e-07 6.88182e-08 -3.99792e-08  -3.23874e-07 1.91801e-07 -4.74167e-08  -3.38314e-07 7.3475e-08 -9.3353e-08  -2.60642e-07 -3.03969e-07 -1.35412e-07  -2.86906e-07 1.42756e-09 -1.36857e-07  -2.54256e-07 5.79112e-08 -9.67593e-08  -2.38237e-07 7.21556e-08 -5.2656e-08  -2.08814e-07 -1.15629e-07 -4.7401e-08  -2.24645e-07 1.57487e-08 -5.10755e-08  -2.76724e-07 -5.67842e-08 -4.73938e-08  -3.21633e-07 4.30229e-08 -5.3066e-08  -3.36246e-07 -9.37593e-08 -9.73301e-08  -2.3128e-07 -5.67294e-07 -1.37934e-07  -1.75281e-07 -5.48045e-08 -1.5055e-07  -1.83332e-07 2.42119e-08 -1.26183e-07  -1.93816e-07 1.85189e-08 -9.7102e-08  -2.05144e-07 -2.24132e-07 -9.32583e-08  -2.70613e-07 -3.66423e-08 -9.62691e-08  -3.78997e-07 -1.39314e-07 -9.33617e-08  -4.9172e-07 -3.77368e-08 -9.73746e-08  -5.59276e-07 -2.11448e-07 -1.25807e-07  -5.18102e-07 -8.04114e-07 -1.53484e-07  8.58634e-08 -5.93561e-08 -1.62183e-07  5.5357e-08 2.14256e-08 -1.50533e-07  -3.5165e-08 3.47028e-08 -1.36674e-07  -2.03618e-07 -2.02164e-07 -1.35278e-07  -4.09064e-07 1.82209e-08 -1.38272e-07  -6.38064e-07 -7.1132e-08 -1.35285e-07  -9.07163e-07 4.02381e-08 -1.37802e-07  -1.12179e-06 -1.90275e-07 -1.53277e-07  -1.19244e-06 -8.83937e-07 -1.63719e-07  
            </DataArray>
            <DataArray type="Float64" Name="Velocity" NumberOfComponents="3" format="ascii">
               1.88785e-06 2.56163e-06 -4.61266e-07  1.71901e-06 1.65732e-06 -4.4037e-07  1.26242e-06 3.07072e-07 -3.96023e-07  8.61539e-07 -1.33526e-07 -3.88491e-07  5.63796e-07 2.23489e-07 -3.9229e-07  3.3946e-07 -8.79216e-08 -3.86457e-07  1.80312e-07 1.2497e-06 -3.92015e-07  -1.93406e-08 6.65883e-07 -4.28044e-07  -1.15737e-07 -1.32728e-07 -4.55188e-07  5.68028e-07 2.4214e-06 -4.39744e-07  6.51061e-07 1.71307e-06 -3.63307e-07  4.83422e-07 5.51203e-07 -2.87166e-07  2.21082e-07 7.89159e-09 -2.77145e-07  2.22055e-08 3.71585e-07 -2.81553e-07  -2.71375e-07 1.05861e-07 -2.75995e-07  -5.671e-07 1.3317e-06 -2.85285e-07  -7.09173e-07 7.07085e-07 -3.66596e-07  -7.5963e-07 -1.0021e-07 -4.27197e-07  -5.99944e-07 2.06946e-06 -3.95636e-07  -3.87069e-07 1.50886e-06 -2.87375e-07  -3.31915e-07 6.30501e-07 -1.68271e-07  -4.53378e-07 1.20261e-07 -1.52424e-07  -6.10347e-07 3.86463e-07 -1.56727e-07  -8.9968e-07 3.38239e-07 -1.52381e-07  -1.25309e-06 1.24635e-06 -1.65245e-07  -1.39932e-06 6.40933e-07 -2.86746e-07  -1.47437e-06 -4.65499e-09 -3.90505e-07  -4.14181e-07 1.65825e-06 -3.88392e-07  -2.43344e-07 1.25048e-06 -2.77175e-07  -2.39598e-07 6.60352e-07 -1.52401e-07  -3.61445e-07 2.42623e-07 -1.32632e-07  -4.66584e-07 3.22267e-07 -1.35406e-07  -6.06894e-07 4.0674e-07 -1.32496e-07  -6.77162e-07 9.65289e-07 -1.51785e-07  -6.66014e-07 5.62289e-07 -2.76014e-07  -7.33223e-07 1.87889e-07 -3.86894e-07  -7.19756e-07 1.25035e-06 -3.91752e-07  -5.13518e-07 1.01303e-06 -2.81603e-07  -3.93368e-07 6.65595e-07 -1.5662e-07  -3.28983e-07 2.41311e-07 -1.35429e-07  -3.40369e-07 2.66023e-07 -1.39476e-07  -4.78272e-07 3.80076e-07 -1.35005e-07  -6.64779e-07 7.16898e-07 -1.57085e-07  -7.94795e-07 5.54743e-07 -2.80081e-07  -8.45051e-07 3.01807e-07 -3.91448e-07  -4.15124e-07 8.32065e-07 -3.86382e-07  -2.66076e-07 8.31312e-07 -2.76079e-07  -2.49708e-07 6.68487e-07 -1.52401e-07  -2.27498e-07 1.55777e-07 -1.3252e-07  -2.46036e-07 2.20059e-07 -1.35014e-07  -3.25172e-07 3.30306e-07 -1.31684e-07  -3.62023e-07 5.41741e-07 -1.52061e-07  -4.35953e-07 5.75522e-07 -2.7655e-07  -4.5389e-07 2.54108e-07 -3.87389e-07  -1.05122e-06 4.69362e-07 -3.90815e-07  -9.8231e-07 7.92862e-07 -2.85373e-07  -9.53872e-07 7.32455e-07 -1.64875e-07  -7.84683e-07 1.06315e-08 -1.51812e-07  -6.50779e-07 1.69062e-07 -1.56979e-07  -5.91795e-07 1.3666e-07 -1.52023e-07  -5.39698e-07 3.29058e-07 -1.67301e-07  -5.85438e-07 5.43268e-07 -2.8787e-07  -5.5826e-07 7.09132e-08 -3.95739e-07  -1.1856e-06 2.70946e-07 -4.27194e-07  -1.1148e-06 7.69309e-07 -3.66818e-07  -9.62553e-07 7.01541e-07 -2.86759e-07  -7.05391e-07 -2.35271e-07 -2.76095e-07  -4.93528e-07 4.37976e-08 -2.80116e-07  -3.87051e-07 -7.49242e-08 -2.76563e-07  -3.27677e-07 1.39926e-07 -2.87999e-07  -3.16361e-07 5.02763e-07 -3.64452e-07  -2.92304e-07 -1.10863e-07 -4.39684e-07  -7.02392e-07 1.97929e-07 -4.55268e-07  -6.1178e-07 6.81696e-07 -4.26606e-07  -4.63549e-07 5.92011e-07 -3.89357e-07  -4.13024e-07 -3.78997e-07 -3.86758e-07  -4.16097e-07 -4.68558e-08 -3.90942e-07  -4.76883e-07 -1.13156e-07 -3.8718e-07  -6.3992e-07 1.17408e-07 -3.95411e-07  -7.189e-07 5.0095e-07 -4.39192e-07  -7.06486e-07 -1.68045e-07 -4.58188e-07  
            </DataArray>
            <DataArray type="Float64" Name="Traction" NumberOfComponents="3" format="ascii">
               3.11098e-05 3.86622e-05 -4.18533e-05  6.8056e-06 2.89786e-05 -4.18533e-05  -5.78668e-06 1.28004e-05 -4.18533e-05  8.16817e-07 1.77016e-05 -4.18533e-05  2.8474e-06 3.34127e-05 -4.18533e-05  -8.58679e-07 4.44046e-05 -4.18533e-05  -2.36297e-06 4.31969e-05 -4.18533e-05  -1.15671e-05 7.55002e-05 -4.18533e-05  -0.000116546 0.000114827 -4.18533e-05  2.8065e-05 1.87412e-05 -4.18533e-05  1.56133e-05 2.21108e-05 -4.18533e-05  6.35556e-06 1.42044e-05 -4.18533e-05  3.71952e-06 3.60223e-06 -4.18533e-05  2.53354e-06 -3.49535e-06 -4.18533e-05  2.90997e-06 8.66427e-06 -4.18533e-05  -1.19495e-06 1.46866e-05 -4.18533e-05  -1.43807e-05 2.03638e-05 -4.18533e-05  -8.32585e-05 1.66987e-05 -4.18533e-05  1.73772e-05 5.94974e-06 -4.18533e-05  1.32864e-05 1.21376e-05 -4.18533e-05  9.44461e-06 8.53104e-06 -4.18533e-05  7.12868e-06 5.36752e-06 -4.18533e-05  6.87308e-06 9.43847e-07 -4.18533e-05  8.1315e-06 4.04719e-06 -4.18533e-05  1.87352e-06 2.07624e-06 -4.18533e-05  -8.29265e-06 6.09409e-06 -4.18533e-05  -5.95447e-05 7.54311e-06 -4.18533e-05  2.54934e-06 7.21575e-06 -4.18533e-05  6.0688e-06 6.9873e-06 -4.18533e-05  6.45072e-06 5.4738e-06 -4.18533e-05  5.92453e-06 7.24019e-06 -4.18533e-05  2.85587e-06 6.01028e-06 -4.18533e-05  5.80654e-07 1.94951e-06 -4.18533e-05  -5.09659e-06 -6.67994e-06 -4.18533e-05  -1.31368e-05 -1.84896e-06 -4.18533e-05  -4.23917e-05 -1.17729e-06 -4.18533e-05  5.04282e-06 8.90671e-06 -4.18533e-05  7.59035e-06 3.99793e-06 -4.18533e-05  8.12659e-06 3.95832e-06 -4.18533e-05  7.70321e-06 6.65379e-06 -4.18533e-05  1.03361e-06 6.13499e-06 -4.18533e-05  -4.6689e-06 5.43088e-06 -4.18533e-05  -7.11585e-06 1.31781e-06 -4.18533e-05  -1.22195e-05 3.45601e-06 -4.18533e-05  -1.72676e-05 8.429e-06 -4.18533e-05  -1.57036e-06 -3.45871e-06 -4.18533e-05  1.02339e-05 -2.68644e-06 -4.18533e-05  9.15434e-06 -3.94691e-06 -4.18533e-05  7.67916e-06 -1.73079e-06 -4.18533e-05  1.56992e-06 -2.22859e-06 -4.18533e-05  -3.30539e-06 1.64772e-06 -4.18533e-05  -8.78902e-06 3.69924e-06 -4.18533e-05  -1.58733e-05 4.83006e-06 -4.18533e-05  -2.79914e-05 1.18927e-05 -4.18533e-05  -1.5996e-05 -5.95996e-06 -4.18533e-05  8.89457e-06 -3.08043e-06 -4.18533e-05  9.44169e-06 -6.99888e-06 -4.18533e-05  8.44075e-06 -8.18553e-06 -4.18533e-05  3.65071e-06 -1.00803e-05 -4.18533e-05  3.88753e-07 -7.09782e-06 -4.18533e-05  -6.38389e-06 -4.87554e-06 -4.18533e-05  -1.46989e-05 -1.55505e-06 -4.18533e-05  -3.38006e-05 3.17138e-06 -4.18533e-05  -2.06015e-05 4.75275e-06 -4.18533e-05  -2.51499e-06 1.85559e-06 -4.18533e-05  4.57725e-06 -9.50847e-06 -4.18533e-05  5.73427e-06 -1.5163e-05 -4.18533e-05  2.07913e-06 -1.87265e-05 -4.18533e-05  -5.07239e-07 -1.70247e-05 -4.18533e-05  -4.87176e-06 -1.47951e-05 -4.18533e-05  -1.08561e-05 -8.95249e-06 -4.18533e-05  -3.83785e-05 1.37685e-06 -4.18533e-05  -2.51855e-05 2.11646e-05 -4.18533e-05  -5.46176e-06 1.11002e-05 -4.18533e-05  7.63712e-06 -2.44881e-06 -4.18533e-05  7.37015e-06 -1.60972e-05 -4.18533e-05  2.12266e-06 -2.54184e-05 -4.18533e-05  -6.18207e-07 -2.9739e-05 -4.18533e-05  -4.03266e-06 -3.10005e-05 -4.18533e-05  -3.25718e-06 -3.5688e-05 -4.18533e-05  -4.46489e-05 -4.04274e-05 -4.18533e-05  
            </DataArray>
         </PointData> 
      </Piece>
   </UnstructuredGrid> 
</VTKFile>
