<?xml version="1.0"?>
<VTKFile type="UnstructuredGrid" version="0.1" byte_order="LittleEndian">
   <UnstructuredGrid>
      <Piece NumberOfPoints="81" NumberOfCells="0" > 
         <Points> 
            <DataArray type="Float64" Name="Position" NumberOfComponents="3" format="ascii"> 
               0  0  15  
               0.375  0  15  
               0.75  0  15  
               1.125  0  15  
               1.5  0  15  
               1.875  0  15  
               2.25  0  15  
               2.625  0  15  
               3  0  15  
               0  0.375  15  
               0.375  0.375  15  
               0.75  0.375  15  
               1.125  0.375  15  
               1.5  0.375  15  
               1.875  0.375  15  
               2.25  0.375  15  
               2.625  0.375  15  
               3  0.375  15  
               0  0.75  15  
               0.375  0.75  15  
               0.75  0.75  15  
               1.125  0.75  15  
               1.5  0.75  15  
               1.875  0.75  15  
               2.25  0.75  15  
               2.625  0.75  15  
               3  0.75  15  
               0  1.125  15  
               0.375  1.125  15  
               0.75  1.125  15  
               1.125  1.125  15  
               1.5  1.125  15  
               1.875  1.125  15  
               2.25  1.125  15  
               2.625  1.125  15  
               3  1.125  15  
               0  1.5  15  
               0.375  1.5  15  
               0.75  1.5  15  
               1.125  1.5  15  
               1.5  1.5  15  
               1.875  1.5  15  
               2.25  1.5  15  
               2.625  1.5  15  
               3  1.5  15  
               0  1.875  15  
               0.375  1.875  15  
               0.75  1.875  15  
               1.125  1.875  15  
               1.5  1.875  15  
               1.875  1.875  15  
               2.25  1.875  15  
               2.625  1.875  15  
               3  1.875  15  
               0  2.25  15  
               0.375  2.25  15  
               0.75  2.25  15  
               1.125  2.25  15  
               1.5  2.25  15  
               1.875  2.25  15  
               2.25  2.25  15  
               2.625  2.25  15  
               3  2.25  15  
               0  2.625  15  
               0.375  2.625  15  
               0.75  2.625  15  
               1.125  2.625  15  
               1.5  2.625  15  
               1.875  2.625  15  
               2.25  2.625  15  
               2.625  2.625  15  
               3  2.625  15  
               0  3  15  
               0.375  3  15  
               0.75  3  15  
               1.125  3  15  
               1.5  3  15  
               1.875  3  15  
               2.25  3  15  
               2.625  3  15  
               3  3  15  
            </DataArray>
         </Points> 

         <Cells>
            <DataArray type="Int32" Name="connectivity" NumberOfComponents="1" format="ascii">
               
            </DataArray> 
            <DataArray type="Int32" Name="offsets" NumberOfComponents="1" format="ascii">
               
            </DataArray>
            <DataArray type="UInt8"  Name="types" NumberOfComponents="1" format="ascii">
               
            </DataArray>
         </Cells>
         <PointData Scalars="Rank " Vectors="Displacement Velocity Traction ">
            <DataArray type="UInt32" Name="Rank" NumberOfComponents="1" format="ascii">
               0 0 0 0 0 0 0 0 0 0 0 0 0 0 0 0 0 0 0 0 0 0 0 0 0 0 0 0 0 0 0 0 0 0 0 0 0 0 0 0 0 0 0 0 0 0 0 0 0 0 0 0 0 0 0 0 0 0 0 0 0 0 0 0 0 0 0 0 0 0 0 0 0 0 0 0 0 0 0 0 0 
            </DataArray>
            <DataArray type="Float64" Name="Displacement" NumberOfComponents="3" format="ascii">
               0 0 0  0 0 0  0 0 0  0 0 0  0 0 0  0 0 0  0 0 0  0 0 0  0 0 0  0 0 0  0 0 0  0 0 0  0 0 0  0 0 0  0 0 0  0 0 0  0 0 0  0 0 0  0 0 0  0 0 0  0 0 0  0 0 0  0 0 0  0 0 0  0 0 0  0 0 0  0 0 0  0 0 0  0 0 0  0 0 0  0 0 0  0 0 0  0 0 0  0 0 0  0 0 0  0 0 0  0 0 0  0 0 0  0 0 0  0 0 0  0 0 0  0 0 0  0 0 0  0 0 0  0 0 0  0 0 0  0 0 0  0 0 0  0 0 0  0 0 0  0 0 0  0 0 0  0 0 0  0 0 0  0 0 0  0 0 0  0 0 0  0 0 0  0 0 0  0 0 0  0 0 0  0 0 0  0 0 0  0 0 0  0 0 0  0 0 0  0 0 0  0 0 0  0 0 0  0 0 0  0 0 0  0 0 0  0 0 0  0 0 0  0 0 0  0 0 0  0 0 0  0 0 0  0 0 0  0 0 0  0 0 0  
            </DataArray>
            <DataArray type="Float64" Name="Velocity" NumberOfComponents="3" format="ascii">
               0 0 0  0 0 0  0 0 0  0 0 0  0 0 0  0 0 0  0 0 0  0 0 0  0 0 0  0 0 0  0 0 0  0 0 0  0 0 0  0 0 0  0 0 0  0 0 0  0 0 0  0 0 0  0 0 0  0 0 0  0 0 0  0 0 0  0 0 0  0 0 0  0 0 0  0 0 0  0 0 0  0 0 0  0 0 0  0 0 0  0 0 0  0 0 0  0 0 0  0 0 0  0 0 0  0 0 0  0 0 0  0 0 0  0 0 0  0 0 0  0 0 0  0 0 0  0 0 0  0 0 0  0 0 0  0 0 0  0 0 0  0 0 0  0 0 0  0 0 0  0 0 0  0 0 0  0 0 0  0 0 0  0 0 0  0 0 0  0 0 0  0 0 0  0 0 0  0 0 0  0 0 0  0 0 0  0 0 0  0 0 0  0 0 0  0 0 0  0 0 0  0 0 0  0 0 0  0 0 0  0 0 0  0 0 0  0 0 0  0 0 0  0 0 0  0 0 0  0 0 0  0 0 0  0 0 0  0 0 0  0 0 0  
            </DataArray>
            <DataArray type="Float64" Name="Traction" NumberOfComponents="3" format="ascii">
               0.000231648 0.00029515 -0.000398726  -4.74684e-05 0.000255018 -0.000398726  -3.87602e-05 0.000208694 -0.000398726  -4.43274e-05 0.000208406 -0.000398726  1.60563e-06 0.000175413 -0.000398726  3.59929e-05 0.000256376 -0.000398726  3.10507e-05 0.000225921 -0.000398726  9.48012e-05 0.000331011 -0.000398726  -0.000488517 0.000509374 -0.000398726  0.000238499 2.33442e-05 -0.000398726  3.92172e-05 4.74702e-05 -0.000398726  7.64802e-06 4.62214e-05 -0.000398726  -8.58544e-06 5.54131e-05 -0.000398726  1.80391e-05 3.79405e-05 -0.000398726  6.27695e-05 3.07789e-05 -0.000398726  7.57335e-05 -3.6081e-05 -0.000398726  6.63394e-05 -5.80769e-05 -0.000398726  -0.000345427 -6.59805e-05 -0.000398726  0.000239118 4.27324e-05 -0.000398726  9.19926e-05 2.07352e-05 -0.000398726  4.02767e-05 7.55447e-06 -0.000398726  7.35447e-06 2.25809e-05 -0.000398726  3.441e-05 1.46278e-05 -0.000398726  7.95531e-05 -8.32735e-06 -0.000398726  6.93597e-05 -6.93811e-05 -0.000398726  3.02261e-05 -6.52174e-05 -0.000398726  -0.000272246 -6.25536e-06 -0.000398726  0.000273104 2.26883e-05 -0.000398726  0.000147984 3.40848e-06 -0.000398726  8.07628e-05 -1.89822e-05 -0.000398726  3.57163e-05 1.3177e-06 -0.000398726  2.39524e-05 7.68346e-06 -0.000398726  2.784e-05 -2.71982e-05 -0.000398726  -1.27661e-06 -8.115e-05 -0.000398726  -5.78306e-05 -5.9581e-05 -0.000398726  -0.000276923 -3.25068e-05 -0.000398726  0.000252936 -2.91596e-05 -0.000398726  0.000190449 -1.84506e-05 -0.000398726  0.000122086 -4.44469e-05 -0.000398726  6.69627e-05 -2.00017e-05 -0.000398726  1.92328e-05 -5.59575e-06 -0.000398726  -1.16786e-05 -1.33529e-05 -0.000398726  -3.53789e-05 -3.1414e-05 -0.000398726  -8.26794e-05 -1.39172e-05 -0.000398726  -0.000163314 1.75131e-06 -0.000398726  0.000142097 -7.71033e-05 -0.000398726  0.000178974 -6.7507e-05 -0.000398726  0.000132317 -9.64525e-05 -0.000398726  9.0142e-05 -6.74852e-05 -0.000398726  3.03584e-05 -4.60822e-05 -0.000398726  -1.26723e-05 -2.542e-05 -0.000398726  -4.54416e-05 -6.68451e-06 -0.000398726  -9.41892e-05 7.69926e-06 -0.000398726  -0.000201251 3.86422e-05 -0.000398726  0.000100182 -0.000109977 -0.000398726  0.000196144 -0.000105962 -0.000398726  0.000155288 -0.000128372 -0.000398726  0.000117079 -0.000105508 -0.000398726  4.99836e-05 -0.000100463 -0.000398726  2.08121e-06 -7.0321e-05 -0.000398726  -2.67832e-05 -3.80158e-05 -0.000398726  -6.96659e-05 -1.4866e-05 -0.000398726  -0.000204776 5.12397e-06 -0.000398726  -1.52532e-05 -0.000184981 -0.000398726  0.000160428 -0.000153444 -0.000398726  0.000119373 -0.000171147 -0.000398726  8.03687e-05 -0.000156479 -0.000398726  2.41043e-05 -0.000174942 -0.000398726  -1.11971e-05 -0.000143021 -0.000398726  -2.71686e-05 -9.22152e-05 -0.000398726  -5.33747e-05 -5.04966e-05 -0.000398726  -0.000193635 -3.49461e-06 -0.000398726  -0.000141388 0.000117042 -0.000398726  0.000169335 1.05395e-06 -0.000398726  0.000108262 -0.000110875 -0.000398726  8.91659e-05 -0.000155723 -0.000398726  3.70071e-05 -0.000272331 -0.000398726  -3.2029e-05 -0.000266247 -0.000398726  -4.95069e-05 -0.000201412 -0.000398726  -3.4961e-05 -0.000177381 -0.000398726  -0.000184059 -0.000155238 -0.000398726  
            </DataArray>
         </PointData> 
      </Piece>
   </UnstructuredGrid> 
</VTKFile>
