<?xml version="1.0"?>
<VTKFile type="UnstructuredGrid" version="0.1" byte_order="LittleEndian">
   <UnstructuredGrid>
      <Piece NumberOfPoints="81" NumberOfCells="0" > 
         <Points> 
            <DataArray type="Float64" Name="Position" NumberOfComponents="3" format="ascii"> 
               0  0  15  
               0.375  0  15  
               0.75  0  15  
               1.125  0  15  
               1.5  0  15  
               1.875  0  15  
               2.25  0  15  
               2.625  0  15  
               3  0  15  
               0  0.375  15  
               0.375  0.375  15  
               0.75  0.375  15  
               1.125  0.375  15  
               1.5  0.375  15  
               1.875  0.375  15  
               2.25  0.375  15  
               2.625  0.375  15  
               3  0.375  15  
               0  0.75  15  
               0.375  0.75  15  
               0.75  0.75  15  
               1.125  0.75  15  
               1.5  0.75  15  
               1.875  0.75  15  
               2.25  0.75  15  
               2.625  0.75  15  
               3  0.75  15  
               0  1.125  15  
               0.375  1.125  15  
               0.75  1.125  15  
               1.125  1.125  15  
               1.5  1.125  15  
               1.875  1.125  15  
               2.25  1.125  15  
               2.625  1.125  15  
               3  1.125  15  
               0  1.5  15  
               0.375  1.5  15  
               0.75  1.5  15  
               1.125  1.5  15  
               1.5  1.5  15  
               1.875  1.5  15  
               2.25  1.5  15  
               2.625  1.5  15  
               3  1.5  15  
               0  1.875  15  
               0.375  1.875  15  
               0.75  1.875  15  
               1.125  1.875  15  
               1.5  1.875  15  
               1.875  1.875  15  
               2.25  1.875  15  
               2.625  1.875  15  
               3  1.875  15  
               0  2.25  15  
               0.375  2.25  15  
               0.75  2.25  15  
               1.125  2.25  15  
               1.5  2.25  15  
               1.875  2.25  15  
               2.25  2.25  15  
               2.625  2.25  15  
               3  2.25  15  
               0  2.625  15  
               0.375  2.625  15  
               0.75  2.625  15  
               1.125  2.625  15  
               1.5  2.625  15  
               1.875  2.625  15  
               2.25  2.625  15  
               2.625  2.625  15  
               3  2.625  15  
               0  3  15  
               0.375  3  15  
               0.75  3  15  
               1.125  3  15  
               1.5  3  15  
               1.875  3  15  
               2.25  3  15  
               2.625  3  15  
               3  3  15  
            </DataArray>
         </Points> 

         <Cells>
            <DataArray type="Int32" Name="connectivity" NumberOfComponents="1" format="ascii">
               
            </DataArray> 
            <DataArray type="Int32" Name="offsets" NumberOfComponents="1" format="ascii">
               
            </DataArray>
            <DataArray type="UInt8"  Name="types" NumberOfComponents="1" format="ascii">
               
            </DataArray>
         </Cells>
         <PointData Scalars="Rank " Vectors="Displacement Velocity Traction ">
            <DataArray type="UInt32" Name="Rank" NumberOfComponents="1" format="ascii">
               0 0 0 0 0 0 0 0 0 0 0 0 0 0 0 0 0 0 0 0 0 0 0 0 0 0 0 0 0 0 0 0 0 0 0 0 0 0 0 0 0 0 0 0 0 0 0 0 0 0 0 0 0 0 0 0 0 0 0 0 0 0 0 0 0 0 0 0 0 0 0 0 0 0 0 0 0 0 0 0 0 
            </DataArray>
            <DataArray type="Float64" Name="Displacement" NumberOfComponents="3" format="ascii">
               0 0 0  0 0 0  0 0 0  0 0 0  0 0 0  0 0 0  0 0 0  0 0 0  0 0 0  0 0 0  0 0 0  0 0 0  0 0 0  0 0 0  0 0 0  0 0 0  0 0 0  0 0 0  0 0 0  0 0 0  0 0 0  0 0 0  0 0 0  0 0 0  0 0 0  0 0 0  0 0 0  0 0 0  0 0 0  0 0 0  0 0 0  0 0 0  0 0 0  0 0 0  0 0 0  0 0 0  0 0 0  0 0 0  0 0 0  0 0 0  0 0 0  0 0 0  0 0 0  0 0 0  0 0 0  0 0 0  0 0 0  0 0 0  0 0 0  0 0 0  0 0 0  0 0 0  0 0 0  0 0 0  0 0 0  0 0 0  0 0 0  0 0 0  0 0 0  0 0 0  0 0 0  0 0 0  0 0 0  0 0 0  0 0 0  0 0 0  0 0 0  0 0 0  0 0 0  0 0 0  0 0 0  0 0 0  0 0 0  0 0 0  0 0 0  0 0 0  0 0 0  0 0 0  0 0 0  0 0 0  0 0 0  
            </DataArray>
            <DataArray type="Float64" Name="Velocity" NumberOfComponents="3" format="ascii">
               0 0 0  0 0 0  0 0 0  0 0 0  0 0 0  0 0 0  0 0 0  0 0 0  0 0 0  0 0 0  0 0 0  0 0 0  0 0 0  0 0 0  0 0 0  0 0 0  0 0 0  0 0 0  0 0 0  0 0 0  0 0 0  0 0 0  0 0 0  0 0 0  0 0 0  0 0 0  0 0 0  0 0 0  0 0 0  0 0 0  0 0 0  0 0 0  0 0 0  0 0 0  0 0 0  0 0 0  0 0 0  0 0 0  0 0 0  0 0 0  0 0 0  0 0 0  0 0 0  0 0 0  0 0 0  0 0 0  0 0 0  0 0 0  0 0 0  0 0 0  0 0 0  0 0 0  0 0 0  0 0 0  0 0 0  0 0 0  0 0 0  0 0 0  0 0 0  0 0 0  0 0 0  0 0 0  0 0 0  0 0 0  0 0 0  0 0 0  0 0 0  0 0 0  0 0 0  0 0 0  0 0 0  0 0 0  0 0 0  0 0 0  0 0 0  0 0 0  0 0 0  0 0 0  0 0 0  0 0 0  0 0 0  
            </DataArray>
            <DataArray type="Float64" Name="Traction" NumberOfComponents="3" format="ascii">
               0.000164783 0.000214845 -0.000235166  -2.13505e-05 0.000177545 -0.000235166  -3.00583e-05 0.000133041 -0.000235166  -3.2756e-05 0.000120871 -0.000235166  9.87929e-07 0.000100574 -0.000235166  2.52569e-05 0.000163883 -0.000235166  2.0956e-05 0.000154696 -0.000235166  5.39954e-05 0.000244596 -0.000235166  -0.000365458 0.000379634 -0.000235166  0.000166007 3.49097e-05 -0.000235166  3.96054e-05 4.77629e-05 -0.000235166  1.19649e-05 3.60192e-05 -0.000235166  -2.82682e-06 2.74749e-05 -0.000235166  1.29227e-05 8.29176e-06 -0.000235166  4.13442e-05 1.34389e-05 -0.000235166  4.54275e-05 -2.02236e-05 -0.000235166  3.39434e-05 -2.48342e-05 -0.000235166  -0.00025439 -3.01994e-05 -0.000235166  0.000157239 3.13733e-05 -0.000235166  6.83988e-05 2.19059e-05 -0.000235166  3.36599e-05 8.47391e-06 -0.000235166  1.05821e-05 1.1612e-05 -0.000235166  2.80525e-05 1.45249e-06 -0.000235166  5.74367e-05 -9.04086e-06 -0.000235166  4.6e-05 -4.5751e-05 -0.000235166  1.81893e-05 -3.6768e-05 -0.000235166  -0.000192199 1.01712e-06 -0.000235166  0.000156788 1.59623e-05 -0.000235166  9.20159e-05 5.12415e-06 -0.000235166  5.23081e-05 -1.06272e-05 -0.000235166  2.56778e-05 2.24727e-06 -0.000235166  1.861e-05 4.4273e-06 -0.000235166  2.09097e-05 -1.91938e-05 -0.000235166  1.78498e-07 -5.80822e-05 -0.000235166  -3.57844e-05 -3.93814e-05 -0.000235166  -0.000178953 -2.30359e-05 -0.000235166  0.000138344 -1.14118e-05 -0.000235166  0.0001156 -7.7083e-06 -0.000235166  7.60979e-05 -2.37362e-05 -0.000235166  4.507e-05 -7.20387e-06 -0.000235166  1.43089e-05 1.42757e-07 -0.000235166  -6.49916e-06 -5.42864e-06 -0.000235166  -2.06474e-05 -2.02328e-05 -0.000235166  -4.8353e-05 -6.73131e-06 -0.000235166  -8.91158e-05 6.52636e-06 -0.000235166  6.13306e-05 -4.47916e-05 -0.000235166  0.000102474 -3.67678e-05 -0.000235166  7.79092e-05 -5.54632e-05 -0.000235166  5.64224e-05 -3.77545e-05 -0.000235166  2.03308e-05 -2.73693e-05 -0.000235166  -6.07319e-06 -1.29212e-05 -0.000235166  -2.6925e-05 -9.11483e-07 -0.000235166  -5.64626e-05 9.99167e-06 -0.000235166  -0.00012027 3.34774e-05 -0.000235166  2.06708e-05 -6.03651e-05 -0.000235166  0.000104178 -5.37434e-05 -0.000235166  8.7491e-05 -6.98582e-05 -0.000235166  7.10944e-05 -6.07447e-05 -0.000235166  3.33914e-05 -6.3526e-05 -0.000235166  6.9387e-06 -4.35913e-05 -0.000235166  -1.18867e-05 -2.24432e-05 -0.000235166  -3.82583e-05 -4.67647e-06 -0.000235166  -0.000124643 9.28272e-06 -0.000235166  -5.48269e-05 -8.87806e-05 -0.000235166  7.2397e-05 -6.98101e-05 -0.000235166  6.064e-05 -8.79339e-05 -0.000235166  4.47391e-05 -9.05529e-05 -0.000235166  1.495e-05 -0.000111365 -0.000235166  -2.59034e-06 -9.02448e-05 -0.000235166  -1.16865e-05 -5.62359e-05 -0.000235166  -2.62257e-05 -2.53925e-05 -0.000235166  -0.000122514 1.019e-05 -0.000235166  -0.000142457 0.000115603 -0.000235166  7.21289e-05 3.94788e-05 -0.000235166  5.70934e-05 -3.75264e-05 -0.000235166  5.13848e-05 -8.10177e-05 -0.000235166  2.07455e-05 -0.000162912 -0.000235166  -1.91802e-05 -0.000163998 -0.000235166  -3.01633e-05 -0.000125134 -0.000235166  -1.45341e-05 -0.000113211 -0.000235166  -0.000126617 -0.000103324 -0.000235166  
            </DataArray>
         </PointData> 
      </Piece>
   </UnstructuredGrid> 
</VTKFile>
