<?xml version="1.0"?>
<VTKFile type="UnstructuredGrid" version="0.1" byte_order="LittleEndian">
   <UnstructuredGrid>
      <Piece NumberOfPoints="81" NumberOfCells="0" > 
         <Points> 
            <DataArray type="Float64" Name="Position" NumberOfComponents="3" format="ascii"> 
               0  0  15  
               0.375  0  15  
               0.75  0  15  
               1.125  0  15  
               1.5  0  15  
               1.875  0  15  
               2.25  0  15  
               2.625  0  15  
               3  0  15  
               0  0.375  15  
               0.375  0.375  15  
               0.75  0.375  15  
               1.125  0.375  15  
               1.5  0.375  15  
               1.875  0.375  15  
               2.25  0.375  15  
               2.625  0.375  15  
               3  0.375  15  
               0  0.75  15  
               0.375  0.75  15  
               0.75  0.75  15  
               1.125  0.75  15  
               1.5  0.75  15  
               1.875  0.75  15  
               2.25  0.75  15  
               2.625  0.75  15  
               3  0.75  15  
               0  1.125  15  
               0.375  1.125  15  
               0.75  1.125  15  
               1.125  1.125  15  
               1.5  1.125  15  
               1.875  1.125  15  
               2.25  1.125  15  
               2.625  1.125  15  
               3  1.125  15  
               0  1.5  15  
               0.375  1.5  15  
               0.75  1.5  15  
               1.125  1.5  15  
               1.5  1.5  15  
               1.875  1.5  15  
               2.25  1.5  15  
               2.625  1.5  15  
               3  1.5  15  
               0  1.875  15  
               0.375  1.875  15  
               0.75  1.875  15  
               1.125  1.875  15  
               1.5  1.875  15  
               1.875  1.875  15  
               2.25  1.875  15  
               2.625  1.875  15  
               3  1.875  15  
               0  2.25  15  
               0.375  2.25  15  
               0.75  2.25  15  
               1.125  2.25  15  
               1.5  2.25  15  
               1.875  2.25  15  
               2.25  2.25  15  
               2.625  2.25  15  
               3  2.25  15  
               0  2.625  15  
               0.375  2.625  15  
               0.75  2.625  15  
               1.125  2.625  15  
               1.5  2.625  15  
               1.875  2.625  15  
               2.25  2.625  15  
               2.625  2.625  15  
               3  2.625  15  
               0  3  15  
               0.375  3  15  
               0.75  3  15  
               1.125  3  15  
               1.5  3  15  
               1.875  3  15  
               2.25  3  15  
               2.625  3  15  
               3  3  15  
            </DataArray>
         </Points> 

         <Cells>
            <DataArray type="Int32" Name="connectivity" NumberOfComponents="1" format="ascii">
               
            </DataArray> 
            <DataArray type="Int32" Name="offsets" NumberOfComponents="1" format="ascii">
               
            </DataArray>
            <DataArray type="UInt8"  Name="types" NumberOfComponents="1" format="ascii">
               
            </DataArray>
         </Cells>
         <PointData Scalars="Rank " Vectors="Displacement Velocity Traction ">
            <DataArray type="UInt32" Name="Rank" NumberOfComponents="1" format="ascii">
               0 0 0 0 0 0 0 0 0 0 0 0 0 0 0 0 0 0 0 0 0 0 0 0 0 0 0 0 0 0 0 0 0 0 0 0 0 0 0 0 0 0 0 0 0 0 0 0 0 0 0 0 0 0 0 0 0 0 0 0 0 0 0 0 0 0 0 0 0 0 0 0 0 0 0 0 0 0 0 0 0 
            </DataArray>
            <DataArray type="Float64" Name="Displacement" NumberOfComponents="3" format="ascii">
               0 0 0  0 0 0  0 0 0  0 0 0  0 0 0  0 0 0  0 0 0  0 0 0  0 0 0  0 0 0  0 0 0  0 0 0  0 0 0  0 0 0  0 0 0  0 0 0  0 0 0  0 0 0  0 0 0  0 0 0  0 0 0  0 0 0  0 0 0  0 0 0  0 0 0  0 0 0  0 0 0  0 0 0  0 0 0  0 0 0  0 0 0  0 0 0  0 0 0  0 0 0  0 0 0  0 0 0  0 0 0  0 0 0  0 0 0  0 0 0  0 0 0  0 0 0  0 0 0  0 0 0  0 0 0  0 0 0  0 0 0  0 0 0  0 0 0  0 0 0  0 0 0  0 0 0  0 0 0  0 0 0  0 0 0  0 0 0  0 0 0  0 0 0  0 0 0  0 0 0  0 0 0  0 0 0  0 0 0  0 0 0  0 0 0  0 0 0  0 0 0  0 0 0  0 0 0  0 0 0  0 0 0  0 0 0  0 0 0  0 0 0  0 0 0  0 0 0  0 0 0  0 0 0  0 0 0  0 0 0  0 0 0  
            </DataArray>
            <DataArray type="Float64" Name="Velocity" NumberOfComponents="3" format="ascii">
               0 0 0  0 0 0  0 0 0  0 0 0  0 0 0  0 0 0  0 0 0  0 0 0  0 0 0  0 0 0  0 0 0  0 0 0  0 0 0  0 0 0  0 0 0  0 0 0  0 0 0  0 0 0  0 0 0  0 0 0  0 0 0  0 0 0  0 0 0  0 0 0  0 0 0  0 0 0  0 0 0  0 0 0  0 0 0  0 0 0  0 0 0  0 0 0  0 0 0  0 0 0  0 0 0  0 0 0  0 0 0  0 0 0  0 0 0  0 0 0  0 0 0  0 0 0  0 0 0  0 0 0  0 0 0  0 0 0  0 0 0  0 0 0  0 0 0  0 0 0  0 0 0  0 0 0  0 0 0  0 0 0  0 0 0  0 0 0  0 0 0  0 0 0  0 0 0  0 0 0  0 0 0  0 0 0  0 0 0  0 0 0  0 0 0  0 0 0  0 0 0  0 0 0  0 0 0  0 0 0  0 0 0  0 0 0  0 0 0  0 0 0  0 0 0  0 0 0  0 0 0  0 0 0  0 0 0  0 0 0  0 0 0  
            </DataArray>
            <DataArray type="Float64" Name="Traction" NumberOfComponents="3" format="ascii">
               5.62602e-06 9.26039e-06 -2.05867e-05  2.45838e-07 3.39053e-06 -2.05867e-05  -2.10294e-06 -4.37232e-06 -2.05867e-05  4.2469e-06 9.91135e-06 -2.05867e-05  1.66916e-07 2.59487e-05 -2.05867e-05  -5.44295e-06 2.09343e-05 -2.05867e-05  -3.0853e-06 1.36721e-05 -2.05867e-05  -1.00191e-05 3.16487e-05 -2.05867e-05  -5.46844e-05 5.15007e-05 -2.05867e-05  4.1688e-06 6.06568e-06 -2.05867e-05  2.84827e-06 7.22744e-06 -2.05867e-05  -2.26901e-07 4.31809e-06 -2.05867e-05  5.01044e-07 2.27123e-06 -2.05867e-05  -6.37584e-08 2.86631e-07 -2.05867e-05  -6.08349e-07 5.0835e-06 -2.05867e-05  -2.68471e-06 9.05558e-06 -2.05867e-05  -1.10285e-05 1.32816e-05 -2.05867e-05  -3.93238e-05 1.13589e-05 -2.05867e-05  -1.30692e-06 2.39691e-06 -2.05867e-05  1.27826e-06 4.03737e-06 -2.05867e-05  3.15283e-07 2.49158e-06 -2.05867e-05  1.07151e-06 2.4363e-06 -2.05867e-05  1.1057e-06 1.46141e-06 -2.05867e-05  1.3319e-06 2.9815e-06 -2.05867e-05  -8.80964e-07 3.19317e-06 -2.05867e-05  -5.70149e-06 4.80551e-06 -2.05867e-05  -2.65971e-05 3.9246e-06 -2.05867e-05  -2.03871e-06 4.7621e-06 -2.05867e-05  1.36904e-07 3.45413e-06 -2.05867e-05  3.74539e-07 3.15957e-06 -2.05867e-05  1.05053e-06 4.33728e-06 -2.05867e-05  1.20591e-07 4.26741e-06 -2.05867e-05  -8.00161e-07 2.93551e-06 -2.05867e-05  -2.86556e-06 -1.57553e-07 -2.05867e-05  -6.68483e-06 5.5893e-07 -2.05867e-05  -1.85843e-05 8.82903e-07 -2.05867e-05  3.38748e-06 3.60778e-06 -2.05867e-05  1.66437e-06 2.76599e-06 -2.05867e-05  2.06302e-06 3.69949e-06 -2.05867e-05  2.29559e-06 5.03052e-06 -2.05867e-05  -2.61059e-07 4.99078e-06 -2.05867e-05  -2.63734e-06 4.9404e-06 -2.05867e-05  -3.66539e-06 3.57277e-06 -2.05867e-05  -6.68816e-06 2.56668e-06 -2.05867e-05  -1.03077e-05 4.73152e-06 -2.05867e-05  -3.69352e-07 -2.86166e-06 -2.05867e-05  3.65826e-06 -7.61302e-07 -2.05867e-05  3.26794e-06 -1.30815e-07 -2.05867e-05  2.31367e-06 8.69019e-07 -2.05867e-05  7.85598e-08 7.01987e-07 -2.05867e-05  -1.7857e-06 2.54124e-06 -2.05867e-05  -4.80489e-06 3.81469e-06 -2.05867e-05  -8.75054e-06 2.4615e-06 -2.05867e-05  -1.47731e-05 4.77288e-06 -2.05867e-05  -6.33174e-06 -3.12476e-06 -2.05867e-05  4.20317e-06 -2.2397e-06 -2.05867e-05  3.76084e-06 -3.11546e-06 -2.05867e-05  2.2648e-06 -3.44266e-06 -2.05867e-05  6.8652e-07 -3.70176e-06 -2.05867e-05  -1.16769e-07 -2.71016e-06 -2.05867e-05  -4.1087e-06 -1.6077e-06 -2.05867e-05  -8.57636e-06 -1.80823e-06 -2.05867e-05  -1.69564e-05 7.55956e-07 -2.05867e-05  -1.0424e-06 6.96703e-07 -2.05867e-05  8.39522e-07 -1.35708e-06 -2.05867e-05  2.86619e-06 -5.78991e-06 -2.05867e-05  1.85672e-06 -7.69136e-06 -2.05867e-05  -1.92614e-07 -8.40702e-06 -2.05867e-05  -1.44284e-06 -8.35283e-06 -2.05867e-05  -4.55216e-06 -7.47496e-06 -2.05867e-05  -8.69924e-06 -7.1968e-06 -2.05867e-05  -2.27631e-05 -1.61087e-06 -2.05867e-05  2.95579e-06 -6.0927e-06 -2.05867e-05  -8.44845e-07 -4.15379e-06 -2.05867e-05  4.88708e-06 -5.80791e-06 -2.05867e-05  3.56706e-06 -1.0611e-05 -2.05867e-05  9.35677e-07 -1.32656e-05 -2.05867e-05  -1.02111e-06 -1.54541e-05 -2.05867e-05  -3.43572e-06 -1.56269e-05 -2.05867e-05  -3.86382e-06 -2.15854e-05 -2.05867e-05  -2.70623e-05 -2.57655e-05 -2.05867e-05  
            </DataArray>
         </PointData> 
      </Piece>
   </UnstructuredGrid> 
</VTKFile>
