<?xml version="1.0"?>
<VTKFile type="UnstructuredGrid" version="0.1" byte_order="LittleEndian">
   <UnstructuredGrid>
      <Piece NumberOfPoints="81" NumberOfCells="0" > 
         <Points> 
            <DataArray type="Float64" Name="Position" NumberOfComponents="3" format="ascii"> 
               0  0  15  
               0.375  0  15  
               0.75  0  15  
               1.125  0  15  
               1.5  0  15  
               1.875  0  15  
               2.25  0  15  
               2.625  0  15  
               3  0  15  
               0  0.375  15  
               0.375  0.375  15  
               0.75  0.375  15  
               1.125  0.375  15  
               1.5  0.375  15  
               1.875  0.375  15  
               2.25  0.375  15  
               2.625  0.375  15  
               3  0.375  15  
               0  0.75  15  
               0.375  0.75  15  
               0.75  0.75  15  
               1.125  0.75  15  
               1.5  0.75  15  
               1.875  0.75  15  
               2.25  0.75  15  
               2.625  0.75  15  
               3  0.75  15  
               0  1.125  15  
               0.375  1.125  15  
               0.75  1.125  15  
               1.125  1.125  15  
               1.5  1.125  15  
               1.875  1.125  15  
               2.25  1.125  15  
               2.625  1.125  15  
               3  1.125  15  
               0  1.5  15  
               0.375  1.5  15  
               0.75  1.5  15  
               1.125  1.5  15  
               1.5  1.5  15  
               1.875  1.5  15  
               2.25  1.5  15  
               2.625  1.5  15  
               3  1.5  15  
               0  1.875  15  
               0.375  1.875  15  
               0.75  1.875  15  
               1.125  1.875  15  
               1.5  1.875  15  
               1.875  1.875  15  
               2.25  1.875  15  
               2.625  1.875  15  
               3  1.875  15  
               0  2.25  15  
               0.375  2.25  15  
               0.75  2.25  15  
               1.125  2.25  15  
               1.5  2.25  15  
               1.875  2.25  15  
               2.25  2.25  15  
               2.625  2.25  15  
               3  2.25  15  
               0  2.625  15  
               0.375  2.625  15  
               0.75  2.625  15  
               1.125  2.625  15  
               1.5  2.625  15  
               1.875  2.625  15  
               2.25  2.625  15  
               2.625  2.625  15  
               3  2.625  15  
               0  3  15  
               0.375  3  15  
               0.75  3  15  
               1.125  3  15  
               1.5  3  15  
               1.875  3  15  
               2.25  3  15  
               2.625  3  15  
               3  3  15  
            </DataArray>
         </Points> 

         <Cells>
            <DataArray type="Int32" Name="connectivity" NumberOfComponents="1" format="ascii">
               
            </DataArray> 
            <DataArray type="Int32" Name="offsets" NumberOfComponents="1" format="ascii">
               
            </DataArray>
            <DataArray type="UInt8"  Name="types" NumberOfComponents="1" format="ascii">
               
            </DataArray>
         </Cells>
         <PointData Scalars="Rank " Vectors="Displacement Velocity Traction ">
            <DataArray type="UInt32" Name="Rank" NumberOfComponents="1" format="ascii">
               0 0 0 0 0 0 0 0 0 0 0 0 0 0 0 0 0 0 0 0 0 0 0 0 0 0 0 0 0 0 0 0 0 0 0 0 0 0 0 0 0 0 0 0 0 0 0 0 0 0 0 0 0 0 0 0 0 0 0 0 0 0 0 0 0 0 0 0 0 0 0 0 0 0 0 0 0 0 0 0 0 
            </DataArray>
            <DataArray type="Float64" Name="Displacement" NumberOfComponents="3" format="ascii">
               0 0 0  0 0 0  0 0 0  0 0 0  0 0 0  0 0 0  0 0 0  0 0 0  0 0 0  0 0 0  0 0 0  0 0 0  0 0 0  0 0 0  0 0 0  0 0 0  0 0 0  0 0 0  0 0 0  0 0 0  0 0 0  0 0 0  0 0 0  0 0 0  0 0 0  0 0 0  0 0 0  0 0 0  0 0 0  0 0 0  0 0 0  0 0 0  0 0 0  0 0 0  0 0 0  0 0 0  0 0 0  0 0 0  0 0 0  0 0 0  0 0 0  0 0 0  0 0 0  0 0 0  0 0 0  0 0 0  0 0 0  0 0 0  0 0 0  0 0 0  0 0 0  0 0 0  0 0 0  0 0 0  0 0 0  0 0 0  0 0 0  0 0 0  0 0 0  0 0 0  0 0 0  0 0 0  0 0 0  0 0 0  0 0 0  0 0 0  0 0 0  0 0 0  0 0 0  0 0 0  0 0 0  0 0 0  0 0 0  0 0 0  0 0 0  0 0 0  0 0 0  0 0 0  0 0 0  0 0 0  0 0 0  
            </DataArray>
            <DataArray type="Float64" Name="Velocity" NumberOfComponents="3" format="ascii">
               0 0 0  0 0 0  0 0 0  0 0 0  0 0 0  0 0 0  0 0 0  0 0 0  0 0 0  0 0 0  0 0 0  0 0 0  0 0 0  0 0 0  0 0 0  0 0 0  0 0 0  0 0 0  0 0 0  0 0 0  0 0 0  0 0 0  0 0 0  0 0 0  0 0 0  0 0 0  0 0 0  0 0 0  0 0 0  0 0 0  0 0 0  0 0 0  0 0 0  0 0 0  0 0 0  0 0 0  0 0 0  0 0 0  0 0 0  0 0 0  0 0 0  0 0 0  0 0 0  0 0 0  0 0 0  0 0 0  0 0 0  0 0 0  0 0 0  0 0 0  0 0 0  0 0 0  0 0 0  0 0 0  0 0 0  0 0 0  0 0 0  0 0 0  0 0 0  0 0 0  0 0 0  0 0 0  0 0 0  0 0 0  0 0 0  0 0 0  0 0 0  0 0 0  0 0 0  0 0 0  0 0 0  0 0 0  0 0 0  0 0 0  0 0 0  0 0 0  0 0 0  0 0 0  0 0 0  0 0 0  0 0 0  
            </DataArray>
            <DataArray type="Float64" Name="Traction" NumberOfComponents="3" format="ascii">
               0.00187842 0.00187108 -0.00498305  0.000589722 0.00225983 -0.00498305  0.000231623 0.00245768 -0.00498305  1.9884e-06 0.00265301 -0.00498305  -5.53825e-05 0.00259368 -0.00498305  -0.000115172 0.0028397 -0.00498305  -0.00037139 0.0026792 -0.00498305  -0.000759146 0.00273538 -0.00498305  -0.00310763 0.00315997 -0.00498305  0.00218619 0.000601785 -0.00498305  0.000877194 0.000928403 -0.00498305  0.000408518 0.00104192 -0.00498305  0.00016613 0.00119363 -0.00498305  7.37113e-05 0.00116292 -0.00498305  5.61271e-05 0.00112442 -0.00498305  -8.14226e-05 0.00085929 -0.00498305  -0.000655818 0.000708718 -0.00498305  -0.00272917 0.000848642 -0.00498305  0.00236176 0.000324619 -0.00498305  0.00100931 0.000472713 -0.00498305  0.000477277 0.000510362 -0.00498305  0.000201568 0.000599984 -0.00498305  0.000101356 0.000566866 -0.00498305  5.3644e-05 0.000488425 -0.00498305  -0.000165139 0.000278709 -0.00498305  -0.000849096 0.000219922 -0.00498305  -0.00273489 0.000542278 -0.00498305  0.00274968 0.000145823 -0.00498305  0.00127209 0.000213972 -0.00498305  0.000637274 0.000200206 -0.00498305  0.000284581 0.000248995 -0.00498305  7.31405e-05 0.000241539 -0.00498305  -9.58778e-05 0.000139923 -0.00498305  -0.000406486 -6.64031e-06 -0.00498305  -0.00116951 1.45217e-05 -0.00498305  -0.00294384 0.000243205 -0.00498305  0.00285177 -0.000198099 -0.00498305  0.00140909 -7.60566e-05 -0.00498305  0.000740574 -0.000126449 -0.00498305  0.000333121 -5.93238e-05 -0.00498305  2.85102e-05 -2.00962e-05 -0.00498305  -0.000222806 -5.79204e-05 -0.00498305  -0.000537584 -0.00010129 -0.00498305  -0.00128551 -5.61578e-05 -0.00498305  -0.0027559 0.000121283 -0.00498305  0.0027273 -0.000502725 -0.00498305  0.00155821 -0.000422816 -0.00498305  0.000890857 -0.000504249 -0.00498305  0.000457815 -0.000401632 -0.00498305  7.31301e-05 -0.000299878 -0.00498305  -0.000253771 -0.000273336 -0.00498305  -0.000610027 -0.000226687 -0.00498305  -0.00137262 -0.000183674 -0.00498305  -0.00287239 5.01529e-05 -0.00498305  0.00273178 -0.000904587 -0.00498305  0.00173565 -0.000826947 -0.00498305  0.00103404 -0.000907553 -0.00498305  0.000563356 -0.000788509 -0.00498305  0.000123951 -0.000683663 -0.00498305  -0.000244149 -0.000619168 -0.00498305  -0.00058523 -0.000525956 -0.00498305  -0.00131385 -0.00049199 -0.00498305  -0.00282 -0.000258819 -0.00498305  0.00238706 -0.00188615 -0.00498305  0.00172373 -0.00166087 -0.00498305  0.000972734 -0.00171187 -0.00498305  0.000501409 -0.00157367 -0.00498305  8.78154e-05 -0.0014883 -0.00498305  -0.000248738 -0.00140945 -0.00498305  -0.000573502 -0.00124749 -0.00498305  -0.00123637 -0.00116281 -0.00498305  -0.00258247 -0.000876136 -0.00498305  0.00222888 -0.00215658 -0.00498305  0.00198252 -0.00234488 -0.00498305  0.00107829 -0.00273132 -0.00498305  0.000644282 -0.00279713 -0.00498305  0.000256581 -0.00300879 -0.00498305  -0.000112738 -0.00293676 -0.00498305  -0.000353945 -0.00266609 -0.00498305  -0.000896289 -0.00247266 -0.00498305  -0.00210491 -0.00209261 -0.00498305  
            </DataArray>
         </PointData> 
      </Piece>
   </UnstructuredGrid> 
</VTKFile>
