<?xml version="1.0"?>
<VTKFile type="UnstructuredGrid" version="0.1" byte_order="LittleEndian">
   <UnstructuredGrid>
      <Piece NumberOfPoints="81" NumberOfCells="0" > 
         <Points> 
            <DataArray type="Float64" Name="Position" NumberOfComponents="3" format="ascii"> 
               0  0  15  
               0.375  0  15  
               0.75  0  15  
               1.125  0  15  
               1.5  0  15  
               1.875  0  15  
               2.25  0  15  
               2.625  0  15  
               3  0  15  
               0  0.375  15  
               0.375  0.375  15  
               0.75  0.375  15  
               1.125  0.375  15  
               1.5  0.375  15  
               1.875  0.375  15  
               2.25  0.375  15  
               2.625  0.375  15  
               3  0.375  15  
               0  0.75  15  
               0.375  0.75  15  
               0.75  0.75  15  
               1.125  0.75  15  
               1.5  0.75  15  
               1.875  0.75  15  
               2.25  0.75  15  
               2.625  0.75  15  
               3  0.75  15  
               0  1.125  15  
               0.375  1.125  15  
               0.75  1.125  15  
               1.125  1.125  15  
               1.5  1.125  15  
               1.875  1.125  15  
               2.25  1.125  15  
               2.625  1.125  15  
               3  1.125  15  
               0  1.5  15  
               0.375  1.5  15  
               0.75  1.5  15  
               1.125  1.5  15  
               1.5  1.5  15  
               1.875  1.5  15  
               2.25  1.5  15  
               2.625  1.5  15  
               3  1.5  15  
               0  1.875  15  
               0.375  1.875  15  
               0.75  1.875  15  
               1.125  1.875  15  
               1.5  1.875  15  
               1.875  1.875  15  
               2.25  1.875  15  
               2.625  1.875  15  
               3  1.875  15  
               0  2.25  15  
               0.375  2.25  15  
               0.75  2.25  15  
               1.125  2.25  15  
               1.5  2.25  15  
               1.875  2.25  15  
               2.25  2.25  15  
               2.625  2.25  15  
               3  2.25  15  
               0  2.625  15  
               0.375  2.625  15  
               0.75  2.625  15  
               1.125  2.625  15  
               1.5  2.625  15  
               1.875  2.625  15  
               2.25  2.625  15  
               2.625  2.625  15  
               3  2.625  15  
               0  3  15  
               0.375  3  15  
               0.75  3  15  
               1.125  3  15  
               1.5  3  15  
               1.875  3  15  
               2.25  3  15  
               2.625  3  15  
               3  3  15  
            </DataArray>
         </Points> 

         <Cells>
            <DataArray type="Int32" Name="connectivity" NumberOfComponents="1" format="ascii">
               
            </DataArray> 
            <DataArray type="Int32" Name="offsets" NumberOfComponents="1" format="ascii">
               
            </DataArray>
            <DataArray type="UInt8"  Name="types" NumberOfComponents="1" format="ascii">
               
            </DataArray>
         </Cells>
         <PointData Scalars="Rank " Vectors="Displacement Velocity Traction ">
            <DataArray type="UInt32" Name="Rank" NumberOfComponents="1" format="ascii">
               0 0 0 0 0 0 0 0 0 0 0 0 0 0 0 0 0 0 0 0 0 0 0 0 0 0 0 0 0 0 0 0 0 0 0 0 0 0 0 0 0 0 0 0 0 0 0 0 0 0 0 0 0 0 0 0 0 0 0 0 0 0 0 0 0 0 0 0 0 0 0 0 0 0 0 0 0 0 0 0 0 
            </DataArray>
            <DataArray type="Float64" Name="Displacement" NumberOfComponents="3" format="ascii">
               0.000375501 0.000273984 -0.000370258  0.000361783 0.000125903 -0.000388611  0.000308859 7.26411e-05 -0.000368504  0.00023403 3.899e-05 -0.000360834  0.00016245 4.50582e-05 -0.000360161  9.82069e-05 3.1445e-05 -0.000351479  4.87377e-05 5.43352e-05 -0.000365872  1.47899e-05 8.10067e-05 -0.000385789  2.80192e-06 2.1119e-05 -0.000336539  0.000225153 0.000260012 -0.00038845  0.000228641 0.000128816 -0.000393224  0.000196238 9.39955e-05 -0.000365723  0.000142598 6.2802e-05 -0.00035867  8.24222e-05 6.84728e-05 -0.000358396  2.1343e-05 5.19336e-05 -0.000352359  -3.57652e-05 6.81903e-05 -0.00036768  -6.89086e-05 8.15001e-05 -0.000404956  -6.72523e-05 6.80464e-06 -0.000378251  0.000166784 0.000205707 -0.000368352  0.00018912 9.47041e-05 -0.000365733  0.000166455 6.93498e-05 -0.000321696  0.000118581 4.68903e-05 -0.000308423  6.49653e-05 4.98255e-05 -0.000309073  1.1744e-05 3.71971e-05 -0.000306918  -3.58595e-05 4.68549e-05 -0.000322169  -5.64212e-05 4.7671e-05 -0.000368605  -4.08843e-05 -3.22838e-05 -0.000363159  0.000128888 0.000129197 -0.000360669  0.000153656 3.88544e-05 -0.0003587  0.000139886 1.90805e-05 -0.00030844  0.000101786 6.12198e-06 -0.000289557  5.55247e-05 5.34442e-06 -0.000289926  8.7435e-06 -3.58369e-06 -0.000290256  -3.13421e-05 -1.95921e-06 -0.000308102  -4.58224e-05 -1.02937e-05 -0.000354524  -2.4692e-05 -8.64265e-05 -0.000351627  0.000134437 5.60284e-05 -0.000359982  0.000158568 -2.31528e-05 -0.000358417  0.000141723 -3.67224e-05 -0.000309075  9.96944e-05 -4.25394e-05 -0.000289912  5.12451e-05 -4.51594e-05 -0.000291432  2.33209e-06 -5.16251e-05 -0.000289917  -4.07008e-05 -5.66426e-05 -0.000308566  -5.79407e-05 -7.27495e-05 -0.000357441  -3.39032e-05 -0.000152697 -0.000356909  0.00012331 -9.48332e-06 -0.000351316  0.000144185 -8.53943e-05 -0.000352383  0.000130942 -9.15967e-05 -0.000306912  9.23288e-05 -9.10722e-05 -0.000290224  4.60422e-05 -9.54213e-05 -0.000289902  -8.63587e-07 -9.96318e-05 -0.000288888  -4.0799e-05 -0.00011192 -0.000307329  -5.64091e-05 -0.000135115 -0.000356557  -3.08863e-05 -0.000227715 -0.000355969  0.00015046 -5.95509e-05 -0.000365721  0.000164528 -0.000142834 -0.000367703  0.000144517 -0.000140228 -0.000322184  9.76302e-05 -0.000132111 -0.000308103  4.43715e-05 -0.000138999 -0.000308575  -1.00992e-05 -0.000139939 -0.000307352  -5.93966e-05 -0.000161438 -0.000321516  -8.40775e-05 -0.000190974 -0.000365988  -6.0341e-05 -0.00031046 -0.000365728  0.000180015 -9.38854e-05 -0.000385696  0.000180903 -0.000176107 -0.00040499  0.000148605 -0.000161498 -0.000368628  9.27412e-05 -0.000147206 -0.000354564  3.18113e-05 -0.000156406 -0.000357483  -2.96942e-05 -0.000155471 -0.000356606  -8.53956e-05 -0.000185934 -0.00036602  -0.000119546 -0.000224942 -0.000394417  -0.000115464 -0.000370129 -0.000386886  0.000122722 -0.000106042 -0.000336424  0.000108801 -0.000174686 -0.000378237  7.07669e-05 -0.00014652 -0.000363078  1.78803e-05 -0.000126475 -0.000351549  -4.75046e-05 -0.000132372 -0.000356819  -0.000121968 -0.000129669 -0.000355894  -0.000204465 -0.00016169 -0.000365646  -0.000264286 -0.000220612 -0.000386767  -0.000279963 -0.000385705 -0.000366753  
            </DataArray>
            <DataArray type="Float64" Name="Velocity" NumberOfComponents="3" format="ascii">
               0.000297212 0.000267653 -0.000419792  0.000285524 0.000155042 -0.000443666  0.000242094 0.000101157 -0.000423577  0.000180153 6.66111e-05 -0.000416061  0.000118253 6.10033e-05 -0.000415516  6.13399e-05 5.38766e-05 -0.00040543  1.67246e-05 7.49405e-05 -0.000421176  -1.34505e-05 0.000107208 -0.000440496  -2.37877e-05 6.19649e-05 -0.000378046  0.000183736 0.000256447 -0.000443232  0.000185376 0.000158843 -0.000453892  0.000156242 0.000121169 -0.000425927  0.000107984 8.98776e-05 -0.000418911  5.27071e-05 8.53463e-05 -0.00041882  -3.20596e-06 7.49174e-05 -0.000411859  -5.36771e-05 8.94831e-05 -0.000428504  -8.17591e-05 0.000108853 -0.000467488  -7.94896e-05 4.94069e-05 -0.000431553  0.000126579 0.000214983 -0.000422955  0.000142794 0.000133975 -0.00042583  0.000122917 0.000106516 -0.00038155  8.19383e-05 8.25702e-05 -0.000367934  3.56417e-05 7.73003e-05 -0.000368758  -9.35406e-06 6.7338e-05 -0.000366486  -4.76489e-05 7.54002e-05 -0.000382189  -6.22399e-05 8.12895e-05 -0.000429641  -4.69084e-05 1.51246e-05 -0.00041806  9.18178e-05 0.000157504 -0.000415593  0.000109473 9.27536e-05 -0.000418958  9.69017e-05 7.10418e-05 -0.000368087  6.48823e-05 5.43516e-05 -0.000348441  2.55779e-05 4.72568e-05 -0.000348911  -1.27081e-05 3.6842e-05 -0.000349674  -4.36621e-05 3.76704e-05 -0.000367888  -5.19614e-05 3.20156e-05 -0.000414473  -3.17327e-05 -3.17366e-05 -0.000405576  8.15499e-05 0.000102617 -0.000415032  9.8849e-05 4.80648e-05 -0.000418843  8.45739e-05 3.12162e-05 -0.000368872  5.14192e-05 1.94346e-05 -0.000348847  1.44616e-05 1.04819e-05 -0.000350366  -2.06959e-05 -1.29871e-06 -0.000348941  -4.93885e-05 -6.74279e-06 -0.000368085  -5.65476e-05 -2.21743e-05 -0.000417715  -3.37341e-05 -8.62989e-05 -0.000411786  5.93715e-05 5.60103e-05 -0.000404872  7.31371e-05 3.72878e-06 -0.000411818  6.40437e-05 -9.43851e-06 -0.000366564  3.7106e-05 -1.70513e-05 -0.000349564  4.69127e-06 -2.87912e-05 -0.000348875  -2.6824e-05 -4.11402e-05 -0.000347685  -5.27591e-05 -5.27725e-05 -0.000366539  -5.91866e-05 -7.60658e-05 -0.000416318  -3.59991e-05 -0.000146107 -0.000410298  7.41565e-05 2.45226e-05 -0.000420696  8.19973e-05 -3.6237e-05 -0.00042859  6.76032e-05 -4.68581e-05 -0.000382418  3.41258e-05 -4.79517e-05 -0.00036797  -2.44455e-06 -6.41251e-05 -0.000368199  -3.8556e-05 -7.4364e-05 -0.000366703  -7.09156e-05 -9.36433e-05 -0.000381283  -8.48044e-05 -0.000122664 -0.000426172  -6.43189e-05 -0.000210558 -0.000420024  7.79405e-05 5.52124e-06 -0.000439942  7.84577e-05 -5.84645e-05 -0.000467534  5.85484e-05 -6.42298e-05 -0.000429732  2.24099e-05 -6.02534e-05 -0.000414443  -1.73536e-05 -7.99081e-05 -0.000417738  -5.77574e-05 -8.85318e-05 -0.000416389  -9.47148e-05 -0.000114875 -0.000426107  -0.000116674 -0.000150571 -0.000455242  -0.000111996 -0.00025657 -0.000441264  3.48568e-05 -6.60042e-07 -0.000376788  2.67903e-05 -5.79442e-05 -0.000431073  4.74349e-06 -5.65639e-05 -0.000417703  -2.73739e-05 -4.83417e-05 -0.000405132  -6.95723e-05 -6.51324e-05 -0.0004114  -0.000120187 -7.19943e-05 -0.000409923  -0.000178071 -9.9054e-05 -0.000419396  -0.000220708 -0.000148536 -0.000440798  -0.000232145 -0.000268716 -0.00041515  
            </DataArray>
            <DataArray type="Float64" Name="Traction" NumberOfComponents="3" format="ascii">
               0.00857823 0.00851607 -0.0194335  0.00447687 0.010265 -0.0194335  0.00184576 0.011068 -0.0194335  0.000509448 0.0115273 -0.0194335  -0.0006552 0.0115952 -0.0194335  -0.00160937 0.0118851 -0.0194335  -0.00288549 0.0115917 -0.0194335  -0.00622165 0.011328 -0.0194335  -0.0120891 0.0121128 -0.0194335  0.0102506 0.00439358 -0.0194335  0.00556678 0.00557001 -0.0194335  0.00294304 0.00570445 -0.0194335  0.0013684 0.0058734 -0.0194335  5.01289e-05 0.00575256 -0.0194335  -0.000921097 0.00587294 -0.0194335  -0.00195496 0.00559989 -0.0194335  -0.00530596 0.00543795 -0.0194335  -0.0112972 0.00639005 -0.0194335  0.011031 0.00169922 -0.0194335  0.00564956 0.00287944 -0.0194335  0.00300762 0.00298961 -0.0194335  0.00146114 0.00302378 -0.0194335  0.00014117 0.00287853 -0.0194335  -0.000981759 0.00294697 -0.0194335  -0.00215381 0.00276925 -0.0194335  -0.00553866 0.00259013 -0.0194335  -0.0116058 0.00345298 -0.0194335  0.0114812 0.000306498 -0.0194335  0.00579904 0.00123165 -0.0194335  0.00303036 0.00136441 -0.0194335  0.00144418 0.00135773 -0.0194335  0.000116709 0.00125322 -0.0194335  -0.00107581 0.00124621 -0.0194335  -0.00238214 0.00114021 -0.0194335  -0.00582301 0.00110715 -0.0194335  -0.0119336 0.00186362 -0.0194335  0.0115492 -0.000884852 -0.0194335  0.0056647 -0.000133869 -0.0194335  0.00288111 -1.10267e-05 -0.0194335  0.001334 -2.42174e-05 -0.0194335  1.84669e-05 -0.000119718 -0.0194335  -0.00111875 -0.000117984 -0.0194335  -0.00237659 -0.000122589 -0.0194335  -0.00579618 -4.7392e-05 -0.0194335  -0.0117919 0.000689004 -0.0194335  0.0117662 -0.00182751 -0.0194335  0.00578448 -0.00109821 -0.0194335  0.00295571 -0.00113509 -0.0194335  0.00133219 -0.00121198 -0.0194335  2.43572e-05 -0.00125175 -0.0194335  -0.0011238 -0.00125981 -0.0194335  -0.0024171 -0.00120634 -0.0194335  -0.00586219 -0.00110665 -0.0194335  -0.011914 -0.000232184 -0.0194335  0.0113742 -0.00299863 -0.0194335  0.00551069 -0.00206212 -0.0194335  0.00279149 -0.00224688 -0.0194335  0.00124273 -0.00246268 -0.0194335  3.22316e-05 -0.00245073 -0.0194335  -0.00105822 -0.00248953 -0.0194335  -0.00231187 -0.00239524 -0.0194335  -0.00563121 -0.0023972 -0.0194335  -0.0115753 -0.00132349 -0.0194335  0.0111874 -0.00615176 -0.0194335  0.00536628 -0.0052851 -0.0194335  0.00264508 -0.00552439 -0.0194335  0.00124467 -0.00581423 -0.0194335  0.000136427 -0.00579067 -0.0194335  -0.000928452 -0.00586029 -0.0194335  -0.00228101 -0.00564348 -0.0194335  -0.00544446 -0.00548888 -0.0194335  -0.0109349 -0.00420402 -0.0194335  0.0120764 -0.0120672 -0.0194335  0.00629443 -0.0111709 -0.0194335  0.00352562 -0.0114128 -0.0194335  0.00203288 -0.0117844 -0.0194335  0.000916306 -0.0116796 -0.0194335  1.97261e-05 -0.0118593 -0.0194335  -0.00113416 -0.0115757 -0.0194335  -0.00409162 -0.0109467 -0.0194335  -0.00927639 -0.00936406 -0.0194335  
            </DataArray>
         </PointData> 
      </Piece>
   </UnstructuredGrid> 
</VTKFile>
