<?xml version="1.0"?>
<VTKFile type="UnstructuredGrid" version="0.1" byte_order="LittleEndian">
   <UnstructuredGrid>
      <Piece NumberOfPoints="81" NumberOfCells="0" > 
         <Points> 
            <DataArray type="Float64" Name="Position" NumberOfComponents="3" format="ascii"> 
               0  0  15  
               0.375  0  15  
               0.75  0  15  
               1.125  0  15  
               1.5  0  15  
               1.875  0  15  
               2.25  0  15  
               2.625  0  15  
               3  0  15  
               0  0.375  15  
               0.375  0.375  15  
               0.75  0.375  15  
               1.125  0.375  15  
               1.5  0.375  15  
               1.875  0.375  15  
               2.25  0.375  15  
               2.625  0.375  15  
               3  0.375  15  
               0  0.75  15  
               0.375  0.75  15  
               0.75  0.75  15  
               1.125  0.75  15  
               1.5  0.75  15  
               1.875  0.75  15  
               2.25  0.75  15  
               2.625  0.75  15  
               3  0.75  15  
               0  1.125  15  
               0.375  1.125  15  
               0.75  1.125  15  
               1.125  1.125  15  
               1.5  1.125  15  
               1.875  1.125  15  
               2.25  1.125  15  
               2.625  1.125  15  
               3  1.125  15  
               0  1.5  15  
               0.375  1.5  15  
               0.75  1.5  15  
               1.125  1.5  15  
               1.5  1.5  15  
               1.875  1.5  15  
               2.25  1.5  15  
               2.625  1.5  15  
               3  1.5  15  
               0  1.875  15  
               0.375  1.875  15  
               0.75  1.875  15  
               1.125  1.875  15  
               1.5  1.875  15  
               1.875  1.875  15  
               2.25  1.875  15  
               2.625  1.875  15  
               3  1.875  15  
               0  2.25  15  
               0.375  2.25  15  
               0.75  2.25  15  
               1.125  2.25  15  
               1.5  2.25  15  
               1.875  2.25  15  
               2.25  2.25  15  
               2.625  2.25  15  
               3  2.25  15  
               0  2.625  15  
               0.375  2.625  15  
               0.75  2.625  15  
               1.125  2.625  15  
               1.5  2.625  15  
               1.875  2.625  15  
               2.25  2.625  15  
               2.625  2.625  15  
               3  2.625  15  
               0  3  15  
               0.375  3  15  
               0.75  3  15  
               1.125  3  15  
               1.5  3  15  
               1.875  3  15  
               2.25  3  15  
               2.625  3  15  
               3  3  15  
            </DataArray>
         </Points> 

         <Cells>
            <DataArray type="Int32" Name="connectivity" NumberOfComponents="1" format="ascii">
               
            </DataArray> 
            <DataArray type="Int32" Name="offsets" NumberOfComponents="1" format="ascii">
               
            </DataArray>
            <DataArray type="UInt8"  Name="types" NumberOfComponents="1" format="ascii">
               
            </DataArray>
         </Cells>
         <PointData Scalars="Rank " Vectors="Displacement Velocity Traction ">
            <DataArray type="UInt32" Name="Rank" NumberOfComponents="1" format="ascii">
               0 0 0 0 0 0 0 0 0 0 0 0 0 0 0 0 0 0 0 0 0 0 0 0 0 0 0 0 0 0 0 0 0 0 0 0 0 0 0 0 0 0 0 0 0 0 0 0 0 0 0 0 0 0 0 0 0 0 0 0 0 0 0 0 0 0 0 0 0 0 0 0 0 0 0 0 0 0 0 0 0 
            </DataArray>
            <DataArray type="Float64" Name="Displacement" NumberOfComponents="3" format="ascii">
               0 0 0  0 0 0  0 0 0  0 0 0  0 0 0  0 0 0  0 0 0  0 0 0  0 0 0  0 0 0  0 0 0  0 0 0  0 0 0  0 0 0  0 0 0  0 0 0  0 0 0  0 0 0  0 0 0  0 0 0  0 0 0  0 0 0  0 0 0  0 0 0  0 0 0  0 0 0  0 0 0  0 0 0  0 0 0  0 0 0  0 0 0  0 0 0  0 0 0  0 0 0  0 0 0  0 0 0  0 0 0  0 0 0  0 0 0  0 0 0  0 0 0  0 0 0  0 0 0  0 0 0  0 0 0  0 0 0  0 0 0  0 0 0  0 0 0  0 0 0  0 0 0  0 0 0  0 0 0  0 0 0  0 0 0  0 0 0  0 0 0  0 0 0  0 0 0  0 0 0  0 0 0  0 0 0  0 0 0  0 0 0  0 0 0  0 0 0  0 0 0  0 0 0  0 0 0  0 0 0  0 0 0  0 0 0  0 0 0  0 0 0  0 0 0  0 0 0  0 0 0  0 0 0  0 0 0  0 0 0  0 0 0  
            </DataArray>
            <DataArray type="Float64" Name="Velocity" NumberOfComponents="3" format="ascii">
               0 0 0  0 0 0  0 0 0  0 0 0  0 0 0  0 0 0  0 0 0  0 0 0  0 0 0  0 0 0  0 0 0  0 0 0  0 0 0  0 0 0  0 0 0  0 0 0  0 0 0  0 0 0  0 0 0  0 0 0  0 0 0  0 0 0  0 0 0  0 0 0  0 0 0  0 0 0  0 0 0  0 0 0  0 0 0  0 0 0  0 0 0  0 0 0  0 0 0  0 0 0  0 0 0  0 0 0  0 0 0  0 0 0  0 0 0  0 0 0  0 0 0  0 0 0  0 0 0  0 0 0  0 0 0  0 0 0  0 0 0  0 0 0  0 0 0  0 0 0  0 0 0  0 0 0  0 0 0  0 0 0  0 0 0  0 0 0  0 0 0  0 0 0  0 0 0  0 0 0  0 0 0  0 0 0  0 0 0  0 0 0  0 0 0  0 0 0  0 0 0  0 0 0  0 0 0  0 0 0  0 0 0  0 0 0  0 0 0  0 0 0  0 0 0  0 0 0  0 0 0  0 0 0  0 0 0  0 0 0  0 0 0  
            </DataArray>
            <DataArray type="Float64" Name="Traction" NumberOfComponents="3" format="ascii">
               4.76546e-09 4.84651e-09 -4.41497e-11  -2.95033e-09 1.24221e-09 -4.41497e-11  5.29917e-10 -4.37064e-09 -4.41497e-11  1.72852e-09 -4.049e-10 -4.41497e-11  2.47028e-11 4.37115e-09 -4.41497e-11  -1.34883e-09 1.05437e-09 -4.41497e-11  -6.8619e-10 -3.15522e-09 -4.41497e-11  1.96073e-09 1.61499e-09 -4.41497e-11  -5.02474e-09 5.35955e-09 -4.41497e-11  1.41621e-09 -2.7169e-09 -4.41497e-11  -7.84257e-10 -5.84879e-10 -4.41497e-11  8.07689e-11 1.19037e-09 -4.41497e-11  3.55527e-10 -2.23627e-10 -4.41497e-11  4.84737e-11 -1.7272e-09 -4.41497e-11  -3.17311e-10 -5.82942e-10 -4.41497e-11  -2.68383e-10 5.56767e-10 -4.41497e-11  8.22303e-10 -3.63324e-10 -4.41497e-11  -2.6342e-09 -1.59335e-09 -4.41497e-11  -3.56782e-09 1.19581e-10 -4.41497e-11  9.62642e-10 5.76964e-12 -4.41497e-11  -5.51427e-10 -4.73237e-10 -4.41497e-11  -4.41303e-10 -9.26761e-12 -4.41497e-11  -4.41347e-11 4.0474e-10 -4.41497e-11  2.68643e-10 1.51599e-11 -4.41497e-11  1.68266e-10 -4.06036e-10 -4.41497e-11  1.00015e-10 1.43889e-10 -4.41497e-11  -2.49238e-10 5.73119e-10 -4.41497e-11  -2.61167e-09 3.92283e-10 -4.41497e-11  6.37973e-10 -7.79425e-12 -4.41497e-11  -2.8824e-10 -2.39083e-10 -4.41497e-11  -1.62949e-10 1.55762e-10 -4.41497e-11  -1.28761e-10 4.80015e-10 -4.41497e-11  5.46173e-11 1.62086e-10 -4.41497e-11  6.9016e-11 -6.91928e-11 -4.41497e-11  3.57618e-10 7.65569e-11 -4.41497e-11  -5.286e-10 4.42672e-10 -4.41497e-11  -1.87211e-09 1.17898e-10 -4.41497e-11  1.75333e-10 7.42637e-11 -4.41497e-11  -1.48188e-10 -5.25647e-11 -4.41497e-11  2.93921e-10 -1.40452e-12 -4.41497e-11  -1.38965e-10 1.24753e-10 -4.41497e-11  -2.94837e-10 7.02472e-11 -4.41497e-11  -8.66987e-11 -2.91606e-11 -4.41497e-11  7.61387e-10 5.26369e-11 -4.41497e-11  -1.62685e-09 3.02456e-11 -4.41497e-11  -2.28223e-09 -2.53808e-10 -4.41497e-11  5.75601e-10 1.26042e-10 -4.41497e-11  -2.6609e-10 5.09332e-10 -4.41497e-11  -1.64142e-10 1.87234e-11 -4.41497e-11  -9.95615e-11 -4.48085e-10 -4.41497e-11  3.61155e-11 -6.79573e-11 -4.41497e-11  -2.10404e-11 2.5462e-10 -4.41497e-11  4.34046e-10 1.18948e-11 -4.41497e-11  -1.27855e-09 -2.86267e-10 -4.41497e-11  -2.48202e-09 2.7239e-10 -4.41497e-11  9.88741e-10 2.00013e-10 -4.41497e-11  -2.88583e-10 1.93599e-10 -4.41497e-11  -6.61422e-10 1.80014e-11 -4.41497e-11  -1.01666e-10 -1.24872e-10 -4.41497e-11  4.06308e-10 1.11224e-11 -4.41497e-11  1.22432e-10 8.29531e-11 -4.41497e-11  3.72595e-11 -1.42244e-10 -4.41497e-11  2.23925e-10 -2.30623e-10 -4.41497e-11  -2.18024e-09 -3.37373e-11 -4.41497e-11  6.37289e-10 -2.85859e-10 -4.41497e-11  -2.08333e-10 -5.44865e-10 -4.41497e-11  -1.72747e-10 1.02399e-10 -4.41497e-11  -3.24728e-11 7.38633e-10 -4.41497e-11  1.81307e-10 4.31295e-10 -4.41497e-11  -1.26553e-10 1.64529e-10 -4.41497e-11  2.67246e-10 3.55312e-10 -4.41497e-11  -9.91562e-10 6.76803e-10 -4.41497e-11  -1.92016e-09 2.09956e-09 -4.41497e-11  3.6501e-10 1.47894e-09 -4.41497e-11  -8.3917e-11 1.3243e-09 -4.41497e-11  3.32721e-10 -3.10796e-10 -4.41497e-11  1.03542e-10 -1.40474e-09 -4.41497e-11  -5.6232e-11 -6.18032e-10 -4.41497e-11  -2.2018e-10 -2.89766e-10 -4.41497e-11  5.98905e-10 -9.28185e-10 -4.41497e-11  -2.38686e-09 -2.25669e-09 -4.41497e-11  
            </DataArray>
         </PointData> 
      </Piece>
   </UnstructuredGrid> 
</VTKFile>
