<?xml version="1.0"?>
<VTKFile type="UnstructuredGrid" version="0.1" byte_order="LittleEndian">
   <UnstructuredGrid>
      <Piece NumberOfPoints="81" NumberOfCells="0" > 
         <Points> 
            <DataArray type="Float64" Name="Position" NumberOfComponents="3" format="ascii"> 
               0  0  20  
               0.375  0  20  
               0.75  0  20  
               1.125  0  20  
               1.5  0  20  
               1.875  0  20  
               2.25  0  20  
               2.625  0  20  
               3  0  20  
               0  0.375  20  
               0.375  0.375  20  
               0.75  0.375  20  
               1.125  0.375  20  
               1.5  0.375  20  
               1.875  0.375  20  
               2.25  0.375  20  
               2.625  0.375  20  
               3  0.375  20  
               0  0.75  20  
               0.375  0.75  20  
               0.75  0.75  20  
               1.125  0.75  20  
               1.5  0.75  20  
               1.875  0.75  20  
               2.25  0.75  20  
               2.625  0.75  20  
               3  0.75  20  
               0  1.125  20  
               0.375  1.125  20  
               0.75  1.125  20  
               1.125  1.125  20  
               1.5  1.125  20  
               1.875  1.125  20  
               2.25  1.125  20  
               2.625  1.125  20  
               3  1.125  20  
               0  1.5  20  
               0.375  1.5  20  
               0.75  1.5  20  
               1.125  1.5  20  
               1.5  1.5  20  
               1.875  1.5  20  
               2.25  1.5  20  
               2.625  1.5  20  
               3  1.5  20  
               0  1.875  20  
               0.375  1.875  20  
               0.75  1.875  20  
               1.125  1.875  20  
               1.5  1.875  20  
               1.875  1.875  20  
               2.25  1.875  20  
               2.625  1.875  20  
               3  1.875  20  
               0  2.25  20  
               0.375  2.25  20  
               0.75  2.25  20  
               1.125  2.25  20  
               1.5  2.25  20  
               1.875  2.25  20  
               2.25  2.25  20  
               2.625  2.25  20  
               3  2.25  20  
               0  2.625  20  
               0.375  2.625  20  
               0.75  2.625  20  
               1.125  2.625  20  
               1.5  2.625  20  
               1.875  2.625  20  
               2.25  2.625  20  
               2.625  2.625  20  
               3  2.625  20  
               0  3  20  
               0.375  3  20  
               0.75  3  20  
               1.125  3  20  
               1.5  3  20  
               1.875  3  20  
               2.25  3  20  
               2.625  3  20  
               3  3  20  
            </DataArray>
         </Points> 

         <Cells>
            <DataArray type="Int32" Name="connectivity" NumberOfComponents="1" format="ascii">
               
            </DataArray> 
            <DataArray type="Int32" Name="offsets" NumberOfComponents="1" format="ascii">
               
            </DataArray>
            <DataArray type="UInt8"  Name="types" NumberOfComponents="1" format="ascii">
               
            </DataArray>
         </Cells>
         <PointData Scalars="Rank " Vectors="Displacement Velocity Traction ">
            <DataArray type="UInt32" Name="Rank" NumberOfComponents="1" format="ascii">
               0 0 0 0 0 0 0 0 0 0 0 0 0 0 0 0 0 0 0 0 0 0 0 0 0 0 0 0 0 0 0 0 0 0 0 0 0 0 0 0 0 0 0 0 0 0 0 0 0 0 0 0 0 0 0 0 0 0 0 0 0 0 0 0 0 0 0 0 0 0 0 0 0 0 0 0 0 0 0 0 0 
            </DataArray>
            <DataArray type="Float64" Name="Displacement" NumberOfComponents="3" format="ascii">
               2.10439e-07 2.10912e-07 -6.83918e-07  2.25009e-08 3.02342e-07 -6.7178e-07  -2.62318e-08 3.57294e-07 -6.08026e-07  -1.21842e-08 3.71176e-07 -5.82452e-07  -2.03235e-08 3.67441e-07 -5.83634e-07  -2.95978e-08 3.81557e-07 -5.75234e-07  -8.06059e-08 3.59364e-07 -5.93903e-07  -9.42513e-08 2.46634e-07 -6.57099e-07  -1.9267e-07 2.59528e-07 -6.67427e-07  3.01872e-07 2.27707e-08 -6.71489e-07  1.05031e-07 1.05424e-07 -5.94619e-07  1.81494e-08 1.43164e-07 -5.03926e-07  3.62979e-09 1.52665e-07 -4.78932e-07  -9.72166e-10 1.557e-07 -4.78478e-07  -7.78179e-09 1.55507e-07 -4.73455e-07  -4.8102e-08 1.66076e-07 -5.00984e-07  -1.0357e-07 1.06579e-07 -6.0883e-07  -2.44455e-07 1.34895e-07 -6.49687e-07  3.56749e-07 -2.59635e-08 -6.07737e-07  1.42728e-07 1.86342e-08 -5.03986e-07  4.52869e-08 4.57625e-08 -3.5797e-07  1.17209e-09 6.02225e-08 -3.19515e-07  -4.26416e-09 6.0294e-08 -3.18895e-07  -6.64123e-09 6.11585e-08 -3.17838e-07  -6.41607e-08 7.19337e-08 -3.53464e-07  -1.51727e-07 4.59824e-08 -5.02784e-07  -3.45339e-07 7.72996e-08 -5.89954e-07  3.70467e-07 -1.17253e-08 -5.82084e-07  1.52107e-07 4.17674e-09 -4.79006e-07  5.97848e-08 1.80243e-09 -3.19482e-07  1.31352e-08 1.37238e-08 -2.72106e-07  3.89515e-10 9.11453e-09 -2.70565e-07  -1.11345e-08 1.52655e-08 -2.72043e-07  -5.76817e-08 1.13938e-08 -3.1729e-07  -1.4881e-07 1.22087e-08 -4.7495e-07  -3.72152e-07 1.17518e-08 -5.73798e-07  3.66835e-07 -1.9714e-08 -5.83278e-07  1.55001e-07 -3.93785e-10 -4.7851e-07  5.97231e-08 -3.68075e-09 -3.1883e-07  8.46399e-09 8.93375e-10 -2.70543e-07  4.58445e-09 5.10245e-09 -2.70427e-07  1.20292e-09 3.3945e-09 -2.70081e-07  -4.92753e-08 1.05131e-08 -3.18481e-07  -1.38438e-07 5.79597e-09 -4.7752e-07  -3.45582e-07 3.06426e-08 -5.78355e-07  3.81056e-07 -2.89255e-08 -5.75047e-07  1.54836e-07 -7.15928e-09 -4.73543e-07  6.05849e-08 -6.12542e-09 -3.1782e-07  1.46267e-08 -1.05913e-08 -2.72014e-07  2.8674e-09 1.71695e-09 -2.70083e-07  -9.54267e-09 -9.08868e-09 -2.7098e-07  -5.76857e-08 1.1021e-08 -3.19005e-07  -1.46817e-07 -2.35389e-09 -4.78063e-07  -3.65372e-07 3.96482e-08 -5.76844e-07  3.58767e-07 -7.99221e-08 -5.93719e-07  1.65385e-07 -4.7335e-08 -5.01032e-07  7.12018e-08 -6.362e-08 -3.53444e-07  1.07591e-08 -5.73638e-08 -3.17276e-07  9.9201e-09 -4.89456e-08 -3.18452e-07  1.05117e-08 -5.74212e-08 -3.18977e-07  -3.76599e-08 -3.73453e-08 -3.56745e-07  -1.37938e-07 -1.78743e-08 -5.04977e-07  -3.53117e-07 2.87153e-08 -6.0568e-07  2.46183e-07 -9.39344e-08 -6.57001e-07  1.05957e-07 -1.03147e-07 -6.08842e-07  4.51186e-08 -1.51241e-07 -5.02779e-07  1.1541e-08 -1.4844e-07 -4.75005e-07  5.23335e-09 -1.3806e-07 -4.7752e-07  -2.79096e-09 -1.46546e-07 -4.78095e-07  -1.82054e-08 -1.37718e-07 -5.05015e-07  -1.01341e-07 -1.01094e-07 -5.96888e-07  -2.96846e-07 -2.60596e-08 -6.70891e-07  2.591e-07 -1.92609e-07 -6.67469e-07  1.34373e-07 -2.44366e-07 -6.49723e-07  7.65575e-08 -3.45036e-07 -5.89875e-07  1.11336e-08 -3.71913e-07 -5.73774e-07  3.0101e-08 -3.45337e-07 -5.78201e-07  3.92308e-08 -3.65029e-07 -5.76698e-07  2.84607e-08 -3.52891e-07 -6.05571e-07  -2.62331e-08 -2.96679e-07 -6.70744e-07  -2.11585e-07 -2.11476e-07 -6.82117e-07  
            </DataArray>
            <DataArray type="Float64" Name="Velocity" NumberOfComponents="3" format="ascii">
               3.75298e-07 3.74728e-07 -1.24712e-06  1.246e-07 5.00314e-07 -1.26425e-06  -3.7009e-09 5.92941e-07 -1.18288e-06  -1.12629e-08 5.90511e-07 -1.10772e-06  -2.89471e-08 6.33021e-07 -1.08525e-06  -8.40839e-08 6.26172e-07 -1.08204e-06  -1.72796e-07 5.74135e-07 -1.14748e-06  -1.81241e-07 4.10585e-07 -1.26017e-06  -2.79535e-07 4.3725e-07 -1.17848e-06  5.00061e-07 1.22956e-07 -1.26325e-06  2.15112e-07 2.14143e-07 -1.20764e-06  4.99769e-08 3.13118e-07 -1.09608e-06  1.06369e-08 3.13305e-07 -1.04582e-06  3.39119e-09 3.39724e-07 -1.01011e-06  -2.33186e-08 3.24563e-07 -1.0237e-06  -1.22111e-07 3.23268e-07 -1.09187e-06  -2.21586e-07 2.35424e-07 -1.2543e-06  -3.96116e-07 2.81712e-07 -1.2301e-06  5.93566e-07 -5.12133e-09 -1.18187e-06  3.14481e-07 4.89674e-08 -1.09612e-06  1.24379e-07 1.23189e-07 -8.87831e-07  1.90323e-08 1.43259e-07 -8.14311e-07  3.46416e-09 1.58168e-07 -7.78767e-07  -2.21839e-08 1.52714e-07 -8.06057e-07  -1.54828e-07 1.59956e-07 -8.8773e-07  -3.07105e-07 1.16412e-07 -1.09368e-06  -5.52945e-07 1.73682e-07 -1.13564e-06  5.91059e-07 -1.22408e-08 -1.10656e-06  3.14326e-07 9.99581e-09 -1.04587e-06  1.44511e-07 1.84871e-08 -8.14287e-07  3.72701e-08 3.6614e-08 -7.12959e-07  3.35311e-09 3.76806e-08 -6.75655e-07  -2.76522e-08 4.21684e-08 -7.11828e-07  -1.40391e-07 4.3719e-08 -8.07337e-07  -3.05708e-07 3.81836e-08 -1.03054e-06  -5.9656e-07 6.29684e-08 -1.07622e-06  6.33209e-07 -2.95697e-08 -1.0841e-06  3.40232e-07 2.66736e-09 -1.01019e-06  1.58767e-07 2.93764e-09 -7.7869e-07  3.7808e-08 3.08567e-09 -6.75543e-07  1.08184e-08 1.07396e-08 -6.44248e-07  -1.46853e-08 1.02136e-08 -6.74872e-07  -1.36955e-07 1.97926e-08 -7.77143e-07  -3.0839e-07 1.77499e-08 -1.01051e-06  -5.91013e-07 4.95011e-08 -1.06864e-06  6.26061e-07 -8.44015e-08 -1.081e-06  3.24795e-07 -2.35245e-08 -1.02378e-06  1.52799e-07 -2.23775e-08 -8.06058e-07  4.20174e-08 -2.77322e-08 -7.1168e-07  1.00444e-08 -1.45933e-08 -6.74867e-07  -2.27686e-08 -2.26415e-08 -7.11768e-07  -1.33924e-07 1.90195e-09 -8.13147e-07  -2.98296e-07 1.11835e-09 -1.04378e-06  -5.71966e-07 5.20468e-08 -1.08968e-06  5.73892e-07 -1.72957e-07 -1.14637e-06  3.23237e-07 -1.22178e-07 -1.09192e-06  1.59754e-07 -1.54892e-07 -8.87693e-07  4.35494e-08 -1.404e-07 -8.07153e-07  1.96705e-08 -1.37183e-07 -7.77042e-07  1.7676e-09 -1.34138e-07 -8.13112e-07  -1.14597e-07 -1.14938e-07 -8.87569e-07  -3.0484e-07 -4.36066e-08 -1.0969e-06  -5.81651e-07 9.74433e-09 -1.17319e-06  4.10471e-07 -1.81502e-07 -1.25911e-06  2.35367e-07 -2.21981e-07 -1.25424e-06  1.16224e-07 -3.07205e-07 -1.09367e-06  3.80757e-08 -3.05684e-07 -1.03066e-06  1.79304e-08 -3.08426e-07 -1.01057e-06  1.31243e-09 -2.98236e-07 -1.04391e-06  -4.3075e-08 -3.0517e-07 -1.0969e-06  -2.0255e-07 -2.03038e-07 -1.21365e-06  -4.82848e-07 -1.246e-07 -1.26003e-06  4.36981e-07 -2.79605e-07 -1.17686e-06  2.81692e-07 -3.96721e-07 -1.22953e-06  1.73331e-07 -5.52916e-07 -1.13487e-06  6.27666e-08 -5.95865e-07 -1.07555e-06  4.93616e-08 -5.90945e-07 -1.06799e-06  5.18184e-08 -5.71955e-07 -1.08916e-06  1.02587e-08 -5.81932e-07 -1.17274e-06  -1.2387e-07 -4.83497e-07 -1.25973e-06  -3.66852e-07 -3.67572e-07 -1.23858e-06  
            </DataArray>
            <DataArray type="Float64" Name="Traction" NumberOfComponents="3" format="ascii">
               -2.12788e-06 -2.14267e-06 -1.77121e-05  -5.4128e-07 -3.98351e-06 -1.77121e-05  -3.7646e-08 -4.69508e-06 -1.77121e-05  3.20661e-08 -4.75151e-06 -1.77121e-05  -1.64313e-08 -4.72701e-06 -1.77121e-05  3.13681e-07 -4.8468e-06 -1.77121e-05  1.6918e-06 -4.53968e-06 -1.77121e-05  1.28568e-06 -2.8072e-06 -1.77121e-05  1.8581e-06 -2.65702e-06 -1.77121e-05  -3.96232e-06 -5.50895e-07 -1.77121e-05  -1.89085e-06 -1.90743e-06 -1.77121e-05  -4.8553e-07 -2.70706e-06 -1.77121e-05  -1.20561e-07 -2.85716e-06 -1.77121e-05  -1.99056e-07 -2.89428e-06 -1.77121e-05  1.60056e-07 -2.84699e-06 -1.77121e-05  1.87541e-06 -2.91382e-06 -1.77121e-05  1.79231e-06 -1.81713e-06 -1.77121e-05  2.70445e-06 -1.69141e-06 -1.77121e-05  -4.67009e-06 -4.94254e-08 -1.77121e-05  -2.68656e-06 -5.01312e-07 -1.77121e-05  -9.58293e-07 -9.76505e-07 -1.77121e-05  -1.38114e-07 -1.25399e-06 -1.77121e-05  -1.31608e-07 -1.26952e-06 -1.77121e-05  2.08934e-07 -1.22642e-06 -1.77121e-05  2.44071e-06 -1.23957e-06 -1.77121e-05  2.75909e-06 -8.27905e-07 -1.77121e-05  4.31765e-06 -9.67442e-07 -1.77121e-05  -4.72733e-06 1.71987e-08 -1.77121e-05  -2.84055e-06 -1.37459e-07 -1.77121e-05  -1.23964e-06 -1.56872e-07 -1.77121e-05  -3.15756e-07 -3.32913e-07 -1.77121e-05  -1.95703e-07 -2.6988e-07 -1.77121e-05  3.10368e-07 -3.32599e-07 -1.77121e-05  2.41449e-06 -2.31915e-07 -1.77121e-05  2.79848e-06 -1.84563e-07 -1.77121e-05  4.72001e-06 -7.62646e-08 -1.77121e-05  -4.69686e-06 -3.11373e-08 -1.77121e-05  -2.86813e-06 -2.12731e-07 -1.77121e-05  -1.25024e-06 -1.47146e-07 -1.77121e-05  -2.55436e-07 -2.0967e-07 -1.77121e-05  -2.81705e-07 -2.91593e-07 -1.77121e-05  1.83536e-07 -2.5036e-07 -1.77121e-05  2.33926e-06 -2.80368e-07 -1.77121e-05  2.70986e-06 -1.55496e-07 -1.77121e-05  4.45173e-06 -4.45153e-07 -1.77121e-05  -4.83408e-06 2.97198e-07 -1.77121e-05  -2.8364e-06 1.46138e-07 -1.77121e-05  -1.21624e-06 1.92762e-07 -1.77121e-05  -3.21376e-07 2.97356e-07 -1.77121e-05  -2.4043e-07 1.72383e-07 -1.77121e-05  3.09361e-07 2.98147e-07 -1.77121e-05  2.44235e-06 3.1786e-08 -1.77121e-05  2.79183e-06 1.56822e-07 -1.77121e-05  4.64287e-06 -2.84113e-07 -1.77121e-05  -4.51589e-06 1.67963e-06 -1.77121e-05  -2.89193e-06 1.85702e-06 -1.77121e-05  -1.21919e-06 2.41869e-06 -1.77121e-05  -2.18636e-07 2.40633e-06 -1.77121e-05  -2.69596e-07 2.32742e-06 -1.77121e-05  4.2782e-08 2.43622e-06 -1.77121e-05  2.06326e-06 2.05524e-06 -1.77121e-05  2.67204e-06 1.16101e-06 -1.77121e-05  4.61734e-06 5.83007e-07 -1.77121e-05  -2.7944e-06 1.28069e-06 -1.77121e-05  -1.80296e-06 1.77625e-06 -1.77121e-05  -8.11813e-07 2.73431e-06 -1.77121e-05  -1.74115e-07 2.79002e-06 -1.77121e-05  -1.44698e-07 2.69254e-06 -1.77121e-05  1.6856e-07 2.7829e-06 -1.77121e-05  1.17114e-06 2.6614e-06 -1.77121e-05  1.88827e-06 1.8767e-06 -1.77121e-05  3.90519e-06 6.18612e-07 -1.77121e-05  -2.65291e-06 1.85618e-06 -1.77121e-05  -1.68648e-06 2.69235e-06 -1.77121e-05  -9.54777e-07 4.29371e-06 -1.77121e-05  -6.18808e-08 4.71101e-06 -1.77121e-05  -4.29727e-07 4.4344e-06 -1.77121e-05  -2.69704e-07 4.62972e-06 -1.77121e-05  5.94132e-07 4.60432e-06 -1.77121e-05  6.30233e-07 3.89227e-06 -1.77121e-05  2.16509e-06 2.15139e-06 -1.77121e-05  
            </DataArray>
         </PointData> 
      </Piece>
   </UnstructuredGrid> 
</VTKFile>
