<?xml version="1.0"?>
<VTKFile type="UnstructuredGrid" version="0.1" byte_order="LittleEndian">
   <UnstructuredGrid>
      <Piece NumberOfPoints="81" NumberOfCells="0" > 
         <Points> 
            <DataArray type="Float64" Name="Position" NumberOfComponents="3" format="ascii"> 
               0  0  20  
               0.375  0  20  
               0.75  0  20  
               1.125  0  20  
               1.5  0  20  
               1.875  0  20  
               2.25  0  20  
               2.625  0  20  
               3  0  20  
               0  0.375  20  
               0.375  0.375  20  
               0.75  0.375  20  
               1.125  0.375  20  
               1.5  0.375  20  
               1.875  0.375  20  
               2.25  0.375  20  
               2.625  0.375  20  
               3  0.375  20  
               0  0.75  20  
               0.375  0.75  20  
               0.75  0.75  20  
               1.125  0.75  20  
               1.5  0.75  20  
               1.875  0.75  20  
               2.25  0.75  20  
               2.625  0.75  20  
               3  0.75  20  
               0  1.125  20  
               0.375  1.125  20  
               0.75  1.125  20  
               1.125  1.125  20  
               1.5  1.125  20  
               1.875  1.125  20  
               2.25  1.125  20  
               2.625  1.125  20  
               3  1.125  20  
               0  1.5  20  
               0.375  1.5  20  
               0.75  1.5  20  
               1.125  1.5  20  
               1.5  1.5  20  
               1.875  1.5  20  
               2.25  1.5  20  
               2.625  1.5  20  
               3  1.5  20  
               0  1.875  20  
               0.375  1.875  20  
               0.75  1.875  20  
               1.125  1.875  20  
               1.5  1.875  20  
               1.875  1.875  20  
               2.25  1.875  20  
               2.625  1.875  20  
               3  1.875  20  
               0  2.25  20  
               0.375  2.25  20  
               0.75  2.25  20  
               1.125  2.25  20  
               1.5  2.25  20  
               1.875  2.25  20  
               2.25  2.25  20  
               2.625  2.25  20  
               3  2.25  20  
               0  2.625  20  
               0.375  2.625  20  
               0.75  2.625  20  
               1.125  2.625  20  
               1.5  2.625  20  
               1.875  2.625  20  
               2.25  2.625  20  
               2.625  2.625  20  
               3  2.625  20  
               0  3  20  
               0.375  3  20  
               0.75  3  20  
               1.125  3  20  
               1.5  3  20  
               1.875  3  20  
               2.25  3  20  
               2.625  3  20  
               3  3  20  
            </DataArray>
         </Points> 

         <Cells>
            <DataArray type="Int32" Name="connectivity" NumberOfComponents="1" format="ascii">
               
            </DataArray> 
            <DataArray type="Int32" Name="offsets" NumberOfComponents="1" format="ascii">
               
            </DataArray>
            <DataArray type="UInt8"  Name="types" NumberOfComponents="1" format="ascii">
               
            </DataArray>
         </Cells>
         <PointData Scalars="Rank " Vectors="Displacement Velocity Traction ">
            <DataArray type="UInt32" Name="Rank" NumberOfComponents="1" format="ascii">
               0 0 0 0 0 0 0 0 0 0 0 0 0 0 0 0 0 0 0 0 0 0 0 0 0 0 0 0 0 0 0 0 0 0 0 0 0 0 0 0 0 0 0 0 0 0 0 0 0 0 0 0 0 0 0 0 0 0 0 0 0 0 0 0 0 0 0 0 0 0 0 0 0 0 0 0 0 0 0 0 0 
            </DataArray>
            <DataArray type="Float64" Name="Displacement" NumberOfComponents="3" format="ascii">
               6.37767e-05 6.40141e-05 -0.000249246  3.23328e-05 8.11223e-05 -0.000261184  1.44119e-05 9.9049e-05 -0.000246928  5.12946e-07 9.92258e-05 -0.000241501  -6.8907e-06 9.95029e-05 -0.000240951  -2.17784e-05 0.000103495 -0.000235162  -3.82632e-05 9.50517e-05 -0.000244925  -2.51426e-05 6.50604e-05 -0.000259224  -3.66554e-05 6.82271e-05 -0.000227251  8.09577e-05 3.25336e-05 -0.000261115  4.23726e-05 4.25405e-05 -0.00026315  2.15552e-05 5.33368e-05 -0.000243691  7.15364e-06 5.5209e-05 -0.000238787  1.55788e-06 5.88057e-05 -0.000238514  -8.84134e-06 5.57923e-05 -0.000234484  -3.48095e-05 5.79869e-05 -0.000244909  -4.19493e-05 4.39729e-05 -0.000271027  -6.1129e-05 4.59667e-05 -0.000254169  9.8869e-05 1.45559e-05 -0.000246914  5.3199e-05 2.17321e-05 -0.000243727  2.86433e-05 2.88056e-05 -0.000212452  4.6936e-06 3.39973e-05 -0.000203277  -7.65178e-08 3.51975e-05 -0.00020364  -6.53387e-06 3.48626e-05 -0.000202186  -3.71991e-05 3.79193e-05 -0.000212769  -5.5969e-05 3.27262e-05 -0.000245508  -9.22188e-05 3.86087e-05 -0.000243114  9.90003e-05 6.30486e-07 -0.000241439  5.50237e-05 7.30079e-06 -0.000238799  3.38221e-05 4.85503e-06 -0.00020325  1.03745e-05 1.05342e-05 -0.000190207  -7.68939e-08 9.32112e-06 -0.000190384  -9.79593e-06 1.19311e-05 -0.000190566  -3.28641e-05 1.01964e-05 -0.000202979  -5.31187e-05 1.12627e-05 -0.000235915  -9.96812e-05 1.54321e-05 -0.000235238  9.92852e-05 -6.79772e-06 -0.000240883  5.86171e-05 1.65435e-06 -0.000238526  3.50107e-05 3.40744e-08 -0.000203612  9.15129e-06 3.95704e-08 -0.000190388  1.86617e-06 1.99457e-06 -0.000191396  -5.59563e-06 2.18469e-06 -0.000190364  -3.11824e-05 4.10022e-06 -0.000203319  -5.25646e-05 2.40276e-06 -0.000237871  -9.15864e-05 1.17686e-05 -0.000238723  0.000103258 -2.16307e-05 -0.000235123  5.56029e-05 -8.72925e-06 -0.000234517  3.46773e-05 -6.41248e-06 -0.000202165  1.1764e-05 -9.67153e-06 -0.000190572  2.06738e-06 -5.44845e-06 -0.000190372  -8.41252e-06 -8.29064e-06 -0.000189751  -3.23461e-05 -1.33458e-06 -0.000202584  -5.26004e-05 -5.95087e-06 -0.000237403  -9.6943e-05 9.86701e-06 -0.000238251  9.48873e-05 -3.8121e-05 -0.000244872  5.78252e-05 -3.46707e-05 -0.000244911  3.77418e-05 -3.7057e-05 -0.000212725  1.00405e-05 -3.27632e-05 -0.000202961  3.98836e-06 -3.106e-05 -0.000203299  -1.46709e-06 -3.2244e-05 -0.000202561  -2.64947e-05 -2.63968e-05 -0.000212364  -5.02475e-05 -2.15975e-05 -0.000243883  -9.56806e-05 -1.34125e-05 -0.000245133  6.49342e-05 -2.51269e-05 -0.000259239  4.38289e-05 -4.18872e-05 -0.000271064  3.25607e-05 -5.58607e-05 -0.000245514  1.11271e-05 -5.30431e-05 -0.000235962  2.31662e-06 -5.24845e-05 -0.000237906  -6.06486e-06 -5.25319e-05 -0.000237429  -2.17258e-05 -5.02164e-05 -0.000243932  -4.04828e-05 -4.04029e-05 -0.000263947  -7.79475e-05 -3.3023e-05 -0.000260114  6.81254e-05 -3.66827e-05 -0.000227356  4.58541e-05 -6.11362e-05 -0.000254241  3.84459e-05 -9.21471e-05 -0.000243104  1.52861e-05 -9.95817e-05 -0.000235257  1.16893e-05 -9.15028e-05 -0.000238726  9.77086e-06 -9.68627e-05 -0.000238258  -1.3532e-05 -9.56337e-05 -0.000245191  -3.31752e-05 -7.7898e-05 -0.000260097  -6.38337e-05 -6.36522e-05 -0.000247044  
            </DataArray>
            <DataArray type="Float64" Name="Velocity" NumberOfComponents="3" format="ascii">
               7.17286e-05 7.20739e-05 -0.000292602  4.05182e-05 8.99161e-05 -0.000309215  1.95244e-05 0.0001101 -0.000293859  1.15634e-06 0.000109861 -0.000288568  -7.86638e-06 0.000109907 -0.000288229  -2.60142e-05 0.000114927 -0.000281079  -4.49743e-05 0.000105393 -0.000292206  -2.77359e-05 7.10402e-05 -0.00030676  -3.68819e-05 7.45123e-05 -0.000264456  8.91994e-05 4.07836e-05 -0.000308817  4.957e-05 5.01176e-05 -0.000315384  2.67519e-05 6.17791e-05 -0.000294901  9.27678e-06 6.36407e-05 -0.000289703  1.92309e-06 6.76391e-05 -0.000289744  -1.09715e-05 6.41729e-05 -0.000284719  -4.1988e-05 6.74598e-05 -0.0002966  -4.87771e-05 5.14865e-05 -0.000324894  -6.58337e-05 5.28662e-05 -0.000300698  0.000109402 1.98736e-05 -0.00029346  6.13008e-05 2.71968e-05 -0.000294915  3.41012e-05 3.45121e-05 -0.000262449  6.25616e-06 4.00691e-05 -0.000252408  1.01564e-08 4.13396e-05 -0.000253273  -8.0652e-06 4.08536e-05 -0.000251356  -4.42463e-05 4.51589e-05 -0.000262753  -6.52585e-05 3.97066e-05 -0.000297374  -0.000102194 4.59296e-05 -0.000290038  0.000109088 1.69207e-06 -0.000288179  6.31148e-05 9.79189e-06 -0.000289764  3.96788e-05 6.79737e-06 -0.000252454  1.27263e-05 1.32247e-05 -0.000238125  -3.1409e-07 1.17774e-05 -0.000238769  -1.21137e-05 1.48401e-05 -0.000238881  -3.82494e-05 1.2837e-05 -0.000252312  -6.09545e-05 1.42486e-05 -0.000286487  -0.000110535 1.8847e-05 -0.000281294  0.000109178 -7.33698e-06 -0.000287826  6.70986e-05 2.4368e-06 -0.000289799  4.09157e-05 5.47948e-07 -0.0002533  1.12613e-05 2.26936e-07 -0.000238743  1.97223e-06 2.52558e-06 -0.000240268  -7.3628e-06 2.81549e-06 -0.000238795  -3.65384e-05 4.91155e-06 -0.000252804  -6.02599e-05 3.23894e-06 -0.000288992  -0.00010061 1.39991e-05 -0.000285769  0.000114199 -2.55374e-05 -0.000280684  6.36197e-05 -1.04667e-05 -0.000284759  4.04159e-05 -7.59206e-06 -0.000251354  1.43099e-05 -1.16438e-05 -0.00023881  2.26896e-06 -6.86045e-06 -0.000238751  -1.05297e-05 -1.00693e-05 -0.000237607  -3.78812e-05 -2.31332e-06 -0.000251411  -6.04366e-05 -7.4308e-06 -0.000287924  -0.000107227 1.16506e-05 -0.000284643  0.000104654 -4.44962e-05 -0.000291827  6.68594e-05 -4.15646e-05 -0.000296653  4.46575e-05 -4.38643e-05 -0.000262802  1.22991e-05 -3.7945e-05 -0.000252327  4.33909e-06 -3.62115e-05 -0.000252822  -2.87575e-06 -3.76036e-05 -0.000251465  -3.17012e-05 -3.13398e-05 -0.000262219  -5.77541e-05 -2.65512e-05 -0.00029507  -0.000105684 -1.7994e-05 -0.000291501  7.02882e-05 -2.71376e-05 -0.000306486  5.08873e-05 -4.83296e-05 -0.000324982  3.91485e-05 -6.47551e-05 -0.000297429  1.36423e-05 -6.05346e-05 -0.000286559  2.65083e-06 -5.98345e-05 -0.000289064  -8.00124e-06 -6.00358e-05 -0.000288018  -2.69859e-05 -5.73239e-05 -0.000295122  -4.73611e-05 -4.68219e-05 -0.000316381  -8.57124e-05 -4.10476e-05 -0.000307729  7.38167e-05 -3.61371e-05 -0.000263868  5.2238e-05 -6.52969e-05 -0.00030047  4.5334e-05 -0.000101574 -0.000289699  1.82707e-05 -0.000109934 -0.000280953  1.33602e-05 -0.000100012 -0.000285395  1.09514e-05 -0.000106582 -0.000284301  -1.84011e-05 -0.000105002 -0.000291114  -4.12279e-05 -8.49516e-05 -0.0003073  -7.15391e-05 -7.12821e-05 -0.00028941  
            </DataArray>
            <DataArray type="Float64" Name="Traction" NumberOfComponents="3" format="ascii">
               -0.000413477 -0.000412816 -0.0037194  -0.000327716 -0.00073325 -0.0037194  -0.000209543 -0.000958802 -0.0037194  -2.51201e-05 -0.000926897 -0.0037194  -7.04675e-05 -0.000926044 -0.0037194  0.000232001 -0.000951804 -0.0037194  0.000757598 -0.000842092 -0.0037194  0.000137705 -0.000349296 -0.0037194  -0.000197968 -0.000208165 -0.0037194  -0.000734886 -0.000325577 -0.0037194  -0.000516438 -0.000513907 -0.0037194  -0.000280787 -0.000721274 -0.0037194  -9.14545e-05 -0.000755978 -0.0037194  -0.000136645 -0.000787987 -0.0037194  0.000104029 -0.000728387 -0.0037194  0.000823387 -0.00074616 -0.0037194  0.000461234 -0.000488485 -0.0037194  0.000246696 -0.000344738 -0.0037194  -0.00096079 -0.000207674 -0.0037194  -0.000724445 -0.000278841 -0.0037194  -0.000426743 -0.000424531 -0.0037194  -7.96165e-05 -0.00053483 -0.0037194  -7.70436e-05 -0.000550932 -0.0037194  9.54768e-05 -0.000512599 -0.0037194  0.000880358 -0.00051927 -0.0037194  0.000726957 -0.000459739 -0.0037194  0.000786312 -0.000494173 -0.0037194  -0.000928011 -2.28422e-05 -0.0037194  -0.00075855 -8.92848e-05 -0.0037194  -0.000536919 -7.75612e-05 -0.0037194  -0.000158707 -0.000156576 -0.0037194  -5.70364e-05 -0.000134833 -0.0037194  0.000154058 -0.000158398 -0.0037194  0.000831266 -0.000123604 -0.0037194  0.000711047 -0.000121133 -0.0037194  0.000902815 -0.000140845 -0.0037194  -0.00092719 -6.74595e-05 -0.0037194  -0.000790541 -0.000133662 -0.0037194  -0.000552851 -7.44692e-05 -0.0037194  -0.000136863 -5.46148e-05 -0.0037194  -9.43576e-05 -9.19309e-05 -0.0037194  0.000109821 -8.44809e-05 -0.0037194  0.000836257 -8.87807e-05 -0.0037194  0.000729053 -4.47323e-05 -0.0037194  0.000835998 -0.000142194 -0.0037194  -0.000952915 0.000233667 -0.0037194  -0.000731156 0.000105954 -0.0037194  -0.000514746 9.71844e-05 -0.0037194  -0.000160535 0.000155663 -0.0037194  -8.70741e-05 0.000111182 -0.0037194  0.000144729 0.000146438 -0.0037194  0.000854181 5.67637e-05 -0.0037194  0.000730495 9.66441e-05 -0.0037194  0.000894168 -7.07533e-05 -0.0037194  -0.000844311 0.000759557 -0.0037194  -0.000749299 0.000825043 -0.0037194  -0.00052153 0.00088226 -0.0037194  -0.000125965 0.000833878 -0.0037194  -9.14871e-05 0.000838478 -0.0037194  5.50396e-05 0.000856524 -0.0037194  0.000741014 0.000743422 -0.0037194  0.000693301 0.000543548 -0.0037194  0.000906067 0.000426815 -0.0037194  -0.0003523 0.000141216 -0.0037194  -0.000491751 0.000463537 -0.0037194  -0.000461805 0.000728239 -0.0037194  -0.000123721 0.000712671 -0.0037194  -4.79253e-05 0.000730523 -0.0037194  9.44545e-05 0.000732166 -0.0037194  0.000541015 0.000695703 -0.0037194  0.000499116 0.000501255 -0.0037194  0.000681694 0.000347766 -0.0037194  -0.000211799 -0.000193859 -0.0037194  -0.000348639 0.000249707 -0.0037194  -0.000496247 0.000787216 -0.0037194  -0.000143313 0.000903105 -0.0037194  -0.000145463 0.000836443 -0.0037194  -7.3132e-05 0.000894888 -0.0037194  0.000423472 0.000907761 -0.0037194  0.000345907 0.000683396 -0.0037194  0.000404413 0.000404889 -0.0037194  
            </DataArray>
         </PointData> 
      </Piece>
   </UnstructuredGrid> 
</VTKFile>
