<?xml version="1.0"?>
<VTKFile type="UnstructuredGrid" version="0.1" byte_order="LittleEndian">
   <UnstructuredGrid>
      <Piece NumberOfPoints="81" NumberOfCells="0" > 
         <Points> 
            <DataArray type="Float64" Name="Position" NumberOfComponents="3" format="ascii"> 
               0  0  15  
               0.375  0  15  
               0.75  0  15  
               1.125  0  15  
               1.5  0  15  
               1.875  0  15  
               2.25  0  15  
               2.625  0  15  
               3  0  15  
               0  0.375  15  
               0.375  0.375  15  
               0.75  0.375  15  
               1.125  0.375  15  
               1.5  0.375  15  
               1.875  0.375  15  
               2.25  0.375  15  
               2.625  0.375  15  
               3  0.375  15  
               0  0.75  15  
               0.375  0.75  15  
               0.75  0.75  15  
               1.125  0.75  15  
               1.5  0.75  15  
               1.875  0.75  15  
               2.25  0.75  15  
               2.625  0.75  15  
               3  0.75  15  
               0  1.125  15  
               0.375  1.125  15  
               0.75  1.125  15  
               1.125  1.125  15  
               1.5  1.125  15  
               1.875  1.125  15  
               2.25  1.125  15  
               2.625  1.125  15  
               3  1.125  15  
               0  1.5  15  
               0.375  1.5  15  
               0.75  1.5  15  
               1.125  1.5  15  
               1.5  1.5  15  
               1.875  1.5  15  
               2.25  1.5  15  
               2.625  1.5  15  
               3  1.5  15  
               0  1.875  15  
               0.375  1.875  15  
               0.75  1.875  15  
               1.125  1.875  15  
               1.5  1.875  15  
               1.875  1.875  15  
               2.25  1.875  15  
               2.625  1.875  15  
               3  1.875  15  
               0  2.25  15  
               0.375  2.25  15  
               0.75  2.25  15  
               1.125  2.25  15  
               1.5  2.25  15  
               1.875  2.25  15  
               2.25  2.25  15  
               2.625  2.25  15  
               3  2.25  15  
               0  2.625  15  
               0.375  2.625  15  
               0.75  2.625  15  
               1.125  2.625  15  
               1.5  2.625  15  
               1.875  2.625  15  
               2.25  2.625  15  
               2.625  2.625  15  
               3  2.625  15  
               0  3  15  
               0.375  3  15  
               0.75  3  15  
               1.125  3  15  
               1.5  3  15  
               1.875  3  15  
               2.25  3  15  
               2.625  3  15  
               3  3  15  
            </DataArray>
         </Points> 

         <Cells>
            <DataArray type="Int32" Name="connectivity" NumberOfComponents="1" format="ascii">
               
            </DataArray> 
            <DataArray type="Int32" Name="offsets" NumberOfComponents="1" format="ascii">
               
            </DataArray>
            <DataArray type="UInt8"  Name="types" NumberOfComponents="1" format="ascii">
               
            </DataArray>
         </Cells>
         <PointData Scalars="Rank " Vectors="Displacement Velocity Traction ">
            <DataArray type="UInt32" Name="Rank" NumberOfComponents="1" format="ascii">
               0 0 0 0 0 0 0 0 0 0 0 0 0 0 0 0 0 0 0 0 0 0 0 0 0 0 0 0 0 0 0 0 0 0 0 0 0 0 0 0 0 0 0 0 0 0 0 0 0 0 0 0 0 0 0 0 0 0 0 0 0 0 0 0 0 0 0 0 0 0 0 0 0 0 0 0 0 0 0 0 0 
            </DataArray>
            <DataArray type="Float64" Name="Displacement" NumberOfComponents="3" format="ascii">
               0 0 0  0 0 0  0 0 0  0 0 0  0 0 0  0 0 0  0 0 0  0 0 0  0 0 0  0 0 0  0 0 0  0 0 0  0 0 0  0 0 0  0 0 0  0 0 0  0 0 0  0 0 0  0 0 0  0 0 0  0 0 0  0 0 0  0 0 0  0 0 0  0 0 0  0 0 0  0 0 0  0 0 0  0 0 0  0 0 0  0 0 0  0 0 0  0 0 0  0 0 0  0 0 0  0 0 0  0 0 0  0 0 0  0 0 0  0 0 0  0 0 0  0 0 0  0 0 0  0 0 0  0 0 0  0 0 0  0 0 0  0 0 0  0 0 0  0 0 0  0 0 0  0 0 0  0 0 0  0 0 0  0 0 0  0 0 0  0 0 0  0 0 0  0 0 0  0 0 0  0 0 0  0 0 0  0 0 0  0 0 0  0 0 0  0 0 0  0 0 0  0 0 0  0 0 0  0 0 0  0 0 0  0 0 0  0 0 0  0 0 0  0 0 0  0 0 0  0 0 0  0 0 0  0 0 0  0 0 0  0 0 0  
            </DataArray>
            <DataArray type="Float64" Name="Velocity" NumberOfComponents="3" format="ascii">
               0 0 0  0 0 0  0 0 0  0 0 0  0 0 0  0 0 0  0 0 0  0 0 0  0 0 0  0 0 0  0 0 0  0 0 0  0 0 0  0 0 0  0 0 0  0 0 0  0 0 0  0 0 0  0 0 0  0 0 0  0 0 0  0 0 0  0 0 0  0 0 0  0 0 0  0 0 0  0 0 0  0 0 0  0 0 0  0 0 0  0 0 0  0 0 0  0 0 0  0 0 0  0 0 0  0 0 0  0 0 0  0 0 0  0 0 0  0 0 0  0 0 0  0 0 0  0 0 0  0 0 0  0 0 0  0 0 0  0 0 0  0 0 0  0 0 0  0 0 0  0 0 0  0 0 0  0 0 0  0 0 0  0 0 0  0 0 0  0 0 0  0 0 0  0 0 0  0 0 0  0 0 0  0 0 0  0 0 0  0 0 0  0 0 0  0 0 0  0 0 0  0 0 0  0 0 0  0 0 0  0 0 0  0 0 0  0 0 0  0 0 0  0 0 0  0 0 0  0 0 0  0 0 0  0 0 0  0 0 0  0 0 0  
            </DataArray>
            <DataArray type="Float64" Name="Traction" NumberOfComponents="3" format="ascii">
               0.0227812 0.0222042 -0.0346204  0.0118177 0.0250488 -0.0346204  0.0052494 0.0257231 -0.0346204  0.00198687 0.0269747 -0.0346204  -0.00256089 0.027354 -0.0346204  -0.00513694 0.0273834 -0.0346204  -0.00693189 0.0267966 -0.0346204  -0.0178417 0.0275564 -0.0346204  -0.0311583 0.0299639 -0.0346204  0.0257183 0.0111008 -0.0346204  0.0141941 0.0135637 -0.0346204  0.00799481 0.0131896 -0.0346204  0.00407739 0.0136486 -0.0346204  -0.000572651 0.0136258 -0.0346204  -0.00327133 0.0140493 -0.0346204  -0.00407039 0.0136015 -0.0346204  -0.0143439 0.0142521 -0.0346204  -0.0280679 0.0174133 -0.0346204  0.0263925 0.00415957 -0.0346204  0.013629 0.00719831 -0.0346204  0.00770338 0.0070956 -0.0346204  0.00426355 0.00704745 -0.0346204  -0.000172933 0.00687634 -0.0346204  -0.00341662 0.00735238 -0.0346204  -0.00417363 0.00720047 -0.0346204  -0.0136925 0.00690172 -0.0346204  -0.0270376 0.0087627 -0.0346204  0.0270493 0.000698516 -0.0346204  0.013676 0.00319484 -0.0346204  0.00738941 0.00356645 -0.0346204  0.00404852 0.00349638 -0.0346204  -7.29441e-05 0.00337174 -0.0346204  -0.00331795 0.0035836 -0.0346204  -0.00447256 0.00355313 -0.0346204  -0.013871 0.00346037 -0.0346204  -0.0273409 0.0052939 -0.0346204  0.0269253 -0.00330595 -0.0346204  0.0131797 -0.00111883 -0.0346204  0.00688953 -0.000522665 -0.0346204  0.00379088 -0.000529207 -0.0346204  -0.000314397 -0.000915949 -0.0346204  -0.00324786 -0.000765718 -0.0346204  -0.00417713 -0.000731351 -0.0346204  -0.0135742 -0.00041598 -0.0346204  -0.0274798 0.00134155 -0.0346204  0.027184 -0.00526729 -0.0346204  0.0131338 -0.00312324 -0.0346204  0.00689515 -0.00310764 -0.0346204  0.00359383 -0.00339823 -0.0346204  -0.000300129 -0.00374554 -0.0346204  -0.00307542 -0.00371038 -0.0346204  -0.00392253 -0.00378129 -0.0346204  -0.0133044 -0.00345799 -0.0346204  -0.0271713 -0.00162191 -0.0346204  0.0259963 -0.00636027 -0.0346204  0.0118545 -0.00312301 -0.0346204  0.00612378 -0.00319192 -0.0346204  0.00317533 -0.00412232 -0.0346204  -0.000360626 -0.00430584 -0.0346204  -0.00298236 -0.0043789 -0.0346204  -0.00376521 -0.0044964 -0.0346204  -0.0126485 -0.00519027 -0.0346204  -0.0260539 -0.00291937 -0.0346204  0.0275535 -0.0157611 -0.0346204  0.0122999 -0.0124761 -0.0346204  0.0058693 -0.0120284 -0.0346204  0.00325195 -0.0130717 -0.0346204  0.000146331 -0.0132686 -0.0346204  -0.00248246 -0.013455 -0.0346204  -0.0042751 -0.0131984 -0.0346204  -0.0127546 -0.0134971 -0.0346204  -0.0255444 -0.0108545 -0.0346204  0.0310068 -0.0323412 -0.0346204  0.0152147 -0.0281348 -0.0346204  0.00809051 -0.0263084 -0.0346204  0.00532628 -0.0270766 -0.0346204  0.00210256 -0.0268844 -0.0346204  -0.000208908 -0.0272196 -0.0346204  -0.00170527 -0.0268062 -0.0346204  -0.00999023 -0.0263066 -0.0346204  -0.022786 -0.0235352 -0.0346204  
            </DataArray>
         </PointData> 
      </Piece>
   </UnstructuredGrid> 
</VTKFile>
