<?xml version="1.0"?>
<VTKFile type="UnstructuredGrid" version="0.1" byte_order="LittleEndian">
   <UnstructuredGrid>
      <Piece NumberOfPoints="81" NumberOfCells="0" > 
         <Points> 
            <DataArray type="Float64" Name="Position" NumberOfComponents="3" format="ascii"> 
               0  0  15  
               0.375  0  15  
               0.75  0  15  
               1.125  0  15  
               1.5  0  15  
               1.875  0  15  
               2.25  0  15  
               2.625  0  15  
               3  0  15  
               0  0.375  15  
               0.375  0.375  15  
               0.75  0.375  15  
               1.125  0.375  15  
               1.5  0.375  15  
               1.875  0.375  15  
               2.25  0.375  15  
               2.625  0.375  15  
               3  0.375  15  
               0  0.75  15  
               0.375  0.75  15  
               0.75  0.75  15  
               1.125  0.75  15  
               1.5  0.75  15  
               1.875  0.75  15  
               2.25  0.75  15  
               2.625  0.75  15  
               3  0.75  15  
               0  1.125  15  
               0.375  1.125  15  
               0.75  1.125  15  
               1.125  1.125  15  
               1.5  1.125  15  
               1.875  1.125  15  
               2.25  1.125  15  
               2.625  1.125  15  
               3  1.125  15  
               0  1.5  15  
               0.375  1.5  15  
               0.75  1.5  15  
               1.125  1.5  15  
               1.5  1.5  15  
               1.875  1.5  15  
               2.25  1.5  15  
               2.625  1.5  15  
               3  1.5  15  
               0  1.875  15  
               0.375  1.875  15  
               0.75  1.875  15  
               1.125  1.875  15  
               1.5  1.875  15  
               1.875  1.875  15  
               2.25  1.875  15  
               2.625  1.875  15  
               3  1.875  15  
               0  2.25  15  
               0.375  2.25  15  
               0.75  2.25  15  
               1.125  2.25  15  
               1.5  2.25  15  
               1.875  2.25  15  
               2.25  2.25  15  
               2.625  2.25  15  
               3  2.25  15  
               0  2.625  15  
               0.375  2.625  15  
               0.75  2.625  15  
               1.125  2.625  15  
               1.5  2.625  15  
               1.875  2.625  15  
               2.25  2.625  15  
               2.625  2.625  15  
               3  2.625  15  
               0  3  15  
               0.375  3  15  
               0.75  3  15  
               1.125  3  15  
               1.5  3  15  
               1.875  3  15  
               2.25  3  15  
               2.625  3  15  
               3  3  15  
            </DataArray>
         </Points> 

         <Cells>
            <DataArray type="Int32" Name="connectivity" NumberOfComponents="1" format="ascii">
               
            </DataArray> 
            <DataArray type="Int32" Name="offsets" NumberOfComponents="1" format="ascii">
               
            </DataArray>
            <DataArray type="UInt8"  Name="types" NumberOfComponents="1" format="ascii">
               
            </DataArray>
         </Cells>
         <PointData Scalars="Rank " Vectors="Displacement Velocity Traction ">
            <DataArray type="UInt32" Name="Rank" NumberOfComponents="1" format="ascii">
               0 0 0 0 0 0 0 0 0 0 0 0 0 0 0 0 0 0 0 0 0 0 0 0 0 0 0 0 0 0 0 0 0 0 0 0 0 0 0 0 0 0 0 0 0 0 0 0 0 0 0 0 0 0 0 0 0 0 0 0 0 0 0 0 0 0 0 0 0 0 0 0 0 0 0 0 0 0 0 0 0 
            </DataArray>
            <DataArray type="Float64" Name="Displacement" NumberOfComponents="3" format="ascii">
               0 0 0  0 0 0  0 0 0  0 0 0  0 0 0  0 0 0  0 0 0  0 0 0  0 0 0  0 0 0  0 0 0  0 0 0  0 0 0  0 0 0  0 0 0  0 0 0  0 0 0  0 0 0  0 0 0  0 0 0  0 0 0  0 0 0  0 0 0  0 0 0  0 0 0  0 0 0  0 0 0  0 0 0  0 0 0  0 0 0  0 0 0  0 0 0  0 0 0  0 0 0  0 0 0  0 0 0  0 0 0  0 0 0  0 0 0  0 0 0  0 0 0  0 0 0  0 0 0  0 0 0  0 0 0  0 0 0  0 0 0  0 0 0  0 0 0  0 0 0  0 0 0  0 0 0  0 0 0  0 0 0  0 0 0  0 0 0  0 0 0  0 0 0  0 0 0  0 0 0  0 0 0  0 0 0  0 0 0  0 0 0  0 0 0  0 0 0  0 0 0  0 0 0  0 0 0  0 0 0  0 0 0  0 0 0  0 0 0  0 0 0  0 0 0  0 0 0  0 0 0  0 0 0  0 0 0  0 0 0  0 0 0  
            </DataArray>
            <DataArray type="Float64" Name="Velocity" NumberOfComponents="3" format="ascii">
               0 0 0  0 0 0  0 0 0  0 0 0  0 0 0  0 0 0  0 0 0  0 0 0  0 0 0  0 0 0  0 0 0  0 0 0  0 0 0  0 0 0  0 0 0  0 0 0  0 0 0  0 0 0  0 0 0  0 0 0  0 0 0  0 0 0  0 0 0  0 0 0  0 0 0  0 0 0  0 0 0  0 0 0  0 0 0  0 0 0  0 0 0  0 0 0  0 0 0  0 0 0  0 0 0  0 0 0  0 0 0  0 0 0  0 0 0  0 0 0  0 0 0  0 0 0  0 0 0  0 0 0  0 0 0  0 0 0  0 0 0  0 0 0  0 0 0  0 0 0  0 0 0  0 0 0  0 0 0  0 0 0  0 0 0  0 0 0  0 0 0  0 0 0  0 0 0  0 0 0  0 0 0  0 0 0  0 0 0  0 0 0  0 0 0  0 0 0  0 0 0  0 0 0  0 0 0  0 0 0  0 0 0  0 0 0  0 0 0  0 0 0  0 0 0  0 0 0  0 0 0  0 0 0  0 0 0  0 0 0  0 0 0  
            </DataArray>
            <DataArray type="Float64" Name="Traction" NumberOfComponents="3" format="ascii">
               1.29459e-07 1.33243e-07 -6.95672e-08  -5.99301e-08 2.78776e-08 -6.95672e-08  2.95025e-09 -8.27646e-08 -6.95672e-08  4.07922e-08 6.09287e-10 -6.95672e-08  3.76734e-09 9.78207e-08 -6.95672e-08  -3.29447e-08 3.29052e-08 -6.95672e-08  -9.45832e-09 -5.20319e-08 -6.95672e-08  4.16557e-08 5.28471e-08 -6.95672e-08  -1.28137e-07 1.38238e-07 -6.95672e-08  3.50457e-08 -5.39955e-08 -6.95672e-08  -1.07711e-08 -6.62105e-09 -6.95672e-08  2.31094e-11 1.72375e-08 -6.95672e-08  6.72579e-09 -1.99008e-10 -6.95672e-08  1.10497e-09 -1.93842e-08 -6.95672e-08  -6.70883e-09 -5.43063e-09 -6.95672e-08  -5.35949e-09 7.26427e-09 -6.95672e-08  1.08302e-08 -3.54645e-09 -6.95672e-08  -7.77025e-08 -2.91561e-08 -6.95672e-08  -6.26701e-08 -5.74711e-09 -6.95672e-08  1.34919e-08 -7.42414e-10 -6.95672e-08  -4.81119e-09 -1.78055e-09 -6.95672e-08  -4.65894e-09 4.83467e-09 -6.95672e-08  1.02077e-10 7.03821e-09 -6.95672e-08  -5.44924e-10 1.82894e-09 -6.95672e-08  1.35532e-09 -2.74726e-09 -6.95672e-08  1.88686e-09 4.03007e-09 -6.95672e-08  -2.23672e-08 5.16648e-09 -6.95672e-08  -3.89064e-08 1.18158e-08 -6.95672e-08  1.16857e-08 1.55803e-09 -6.95672e-08  1.43673e-09 -2.38843e-09 -6.95672e-08  -1.71255e-09 5.358e-09 -6.95672e-08  -3.08436e-09 1.16665e-08 -6.95672e-08  -2.32962e-09 5.81392e-09 -6.95672e-08  -5.6184e-10 1.42864e-09 -6.95672e-08  2.58324e-09 2.7193e-09 -6.95672e-08  -2.51895e-08 9.25297e-09 -6.95672e-08  -2.04125e-08 1.23106e-09 -6.95672e-08  4.32162e-09 1.04969e-09 -6.95672e-08  3.90103e-09 -5.42783e-10 -6.95672e-08  6.95418e-09 -4.47566e-11 -6.95672e-08  -2.82252e-09 2.04081e-09 -6.95672e-08  -8.35768e-09 2.36405e-09 -6.95672e-08  -2.84759e-09 1.91159e-09 -6.95672e-08  5.99629e-09 9.90561e-10 -6.95672e-08  -4.21411e-08 1.75758e-09 -6.95672e-08  -2.92374e-08 -4.87191e-09 -6.95672e-08  1.02343e-08 1.94433e-09 -6.95672e-08  1.19407e-09 7.72876e-09 -6.95672e-08  -2.06253e-09 -2.35432e-09 -6.95672e-08  -1.56018e-09 -1.1708e-08 -6.95672e-08  -9.58798e-10 -3.39088e-09 -6.95672e-08  -1.84299e-09 3.05029e-09 -6.95672e-08  1.05716e-09 -2.58442e-11 -6.95672e-08  -3.45564e-08 -7.22047e-09 -6.95672e-08  -3.3642e-08 1.8352e-09 -6.95672e-08  1.74931e-08 9.93185e-11 -6.95672e-08  9.44637e-10 -1.34578e-10 -6.95672e-08  -1.20287e-08 -2.99462e-09 -6.95672e-08  -1.9053e-09 -5.65907e-09 -6.95672e-08  7.07631e-09 -2.22716e-09 -6.95672e-08  -4.52001e-10 -1.08432e-09 -6.95672e-08  -2.95703e-09 -3.76784e-09 -6.95672e-08  -1.61107e-09 -4.05768e-09 -6.95672e-08  -3.56498e-08 -8.40134e-11 -6.95672e-08  1.0772e-08 -4.98387e-09 -6.95672e-08  5.46652e-10 -1.06143e-08 -6.95672e-08  -4.60227e-09 -1.31574e-09 -6.95672e-08  4.3377e-10 8.74493e-09 -6.95672e-08  3.04453e-09 3.80798e-09 -6.95672e-08  -3.84059e-09 -1.10571e-09 -6.95672e-08  8.75382e-10 2.5215e-09 -6.95672e-08  -2.11763e-08 1.07857e-08 -6.95672e-08  -3.92153e-08 4.45286e-08 -6.95672e-08  7.76221e-09 2.42179e-08 -6.95672e-08  3.55443e-09 9.03015e-09 -6.95672e-08  7.98132e-09 -2.59068e-08 -6.95672e-08  2.21345e-09 -4.50213e-08 -6.95672e-08  -4.22376e-09 -2.11249e-08 -6.95672e-08  -3.01798e-09 -8.5145e-09 -6.95672e-08  8.13431e-09 -2.22143e-08 -6.95672e-08  -4.14407e-08 -3.8385e-08 -6.95672e-08  
            </DataArray>
         </PointData> 
      </Piece>
   </UnstructuredGrid> 
</VTKFile>
