<?xml version="1.0"?>
<VTKFile type="UnstructuredGrid" version="0.1" byte_order="LittleEndian">
   <UnstructuredGrid>
      <Piece NumberOfPoints="81" NumberOfCells="0" > 
         <Points> 
            <DataArray type="Float64" Name="Position" NumberOfComponents="3" format="ascii"> 
               0  0  15  
               0.375  0  15  
               0.75  0  15  
               1.125  0  15  
               1.5  0  15  
               1.875  0  15  
               2.25  0  15  
               2.625  0  15  
               3  0  15  
               0  0.375  15  
               0.375  0.375  15  
               0.75  0.375  15  
               1.125  0.375  15  
               1.5  0.375  15  
               1.875  0.375  15  
               2.25  0.375  15  
               2.625  0.375  15  
               3  0.375  15  
               0  0.75  15  
               0.375  0.75  15  
               0.75  0.75  15  
               1.125  0.75  15  
               1.5  0.75  15  
               1.875  0.75  15  
               2.25  0.75  15  
               2.625  0.75  15  
               3  0.75  15  
               0  1.125  15  
               0.375  1.125  15  
               0.75  1.125  15  
               1.125  1.125  15  
               1.5  1.125  15  
               1.875  1.125  15  
               2.25  1.125  15  
               2.625  1.125  15  
               3  1.125  15  
               0  1.5  15  
               0.375  1.5  15  
               0.75  1.5  15  
               1.125  1.5  15  
               1.5  1.5  15  
               1.875  1.5  15  
               2.25  1.5  15  
               2.625  1.5  15  
               3  1.5  15  
               0  1.875  15  
               0.375  1.875  15  
               0.75  1.875  15  
               1.125  1.875  15  
               1.5  1.875  15  
               1.875  1.875  15  
               2.25  1.875  15  
               2.625  1.875  15  
               3  1.875  15  
               0  2.25  15  
               0.375  2.25  15  
               0.75  2.25  15  
               1.125  2.25  15  
               1.5  2.25  15  
               1.875  2.25  15  
               2.25  2.25  15  
               2.625  2.25  15  
               3  2.25  15  
               0  2.625  15  
               0.375  2.625  15  
               0.75  2.625  15  
               1.125  2.625  15  
               1.5  2.625  15  
               1.875  2.625  15  
               2.25  2.625  15  
               2.625  2.625  15  
               3  2.625  15  
               0  3  15  
               0.375  3  15  
               0.75  3  15  
               1.125  3  15  
               1.5  3  15  
               1.875  3  15  
               2.25  3  15  
               2.625  3  15  
               3  3  15  
            </DataArray>
         </Points> 

         <Cells>
            <DataArray type="Int32" Name="connectivity" NumberOfComponents="1" format="ascii">
               
            </DataArray> 
            <DataArray type="Int32" Name="offsets" NumberOfComponents="1" format="ascii">
               
            </DataArray>
            <DataArray type="UInt8"  Name="types" NumberOfComponents="1" format="ascii">
               
            </DataArray>
         </Cells>
         <PointData Scalars="Rank " Vectors="Displacement Velocity Traction ">
            <DataArray type="UInt32" Name="Rank" NumberOfComponents="1" format="ascii">
               0 0 0 0 0 0 0 0 0 0 0 0 0 0 0 0 0 0 0 0 0 0 0 0 0 0 0 0 0 0 0 0 0 0 0 0 0 0 0 0 0 0 0 0 0 0 0 0 0 0 0 0 0 0 0 0 0 0 0 0 0 0 0 0 0 0 0 0 0 0 0 0 0 0 0 0 0 0 0 0 0 
            </DataArray>
            <DataArray type="Float64" Name="Displacement" NumberOfComponents="3" format="ascii">
               0 0 0  0 0 0  0 0 0  0 0 0  0 0 0  0 0 0  0 0 0  0 0 0  0 0 0  0 0 0  0 0 0  0 0 0  0 0 0  0 0 0  0 0 0  0 0 0  0 0 0  0 0 0  0 0 0  0 0 0  0 0 0  0 0 0  0 0 0  0 0 0  0 0 0  0 0 0  0 0 0  0 0 0  0 0 0  0 0 0  0 0 0  0 0 0  0 0 0  0 0 0  0 0 0  0 0 0  0 0 0  0 0 0  0 0 0  0 0 0  0 0 0  0 0 0  0 0 0  0 0 0  0 0 0  0 0 0  0 0 0  0 0 0  0 0 0  0 0 0  0 0 0  0 0 0  0 0 0  0 0 0  0 0 0  0 0 0  0 0 0  0 0 0  0 0 0  0 0 0  0 0 0  0 0 0  0 0 0  0 0 0  0 0 0  0 0 0  0 0 0  0 0 0  0 0 0  0 0 0  0 0 0  0 0 0  0 0 0  0 0 0  0 0 0  0 0 0  0 0 0  0 0 0  0 0 0  0 0 0  0 0 0  
            </DataArray>
            <DataArray type="Float64" Name="Velocity" NumberOfComponents="3" format="ascii">
               0 0 0  0 0 0  0 0 0  0 0 0  0 0 0  0 0 0  0 0 0  0 0 0  0 0 0  0 0 0  0 0 0  0 0 0  0 0 0  0 0 0  0 0 0  0 0 0  0 0 0  0 0 0  0 0 0  0 0 0  0 0 0  0 0 0  0 0 0  0 0 0  0 0 0  0 0 0  0 0 0  0 0 0  0 0 0  0 0 0  0 0 0  0 0 0  0 0 0  0 0 0  0 0 0  0 0 0  0 0 0  0 0 0  0 0 0  0 0 0  0 0 0  0 0 0  0 0 0  0 0 0  0 0 0  0 0 0  0 0 0  0 0 0  0 0 0  0 0 0  0 0 0  0 0 0  0 0 0  0 0 0  0 0 0  0 0 0  0 0 0  0 0 0  0 0 0  0 0 0  0 0 0  0 0 0  0 0 0  0 0 0  0 0 0  0 0 0  0 0 0  0 0 0  0 0 0  0 0 0  0 0 0  0 0 0  0 0 0  0 0 0  0 0 0  0 0 0  0 0 0  0 0 0  0 0 0  0 0 0  0 0 0  
            </DataArray>
            <DataArray type="Float64" Name="Traction" NumberOfComponents="3" format="ascii">
               0.000938428 0.000929502 -0.00241216  9.10802e-05 0.00107717 -0.00241216  2.8065e-05 0.00113449 -0.00241216  -5.20929e-05 0.00125015 -0.00241216  -1.62949e-06 0.00118683 -0.00241216  3.05335e-05 0.00138656 -0.00241216  -6.90299e-05 0.00126664 -0.00241216  -9.43533e-05 0.00136397 -0.00241216  -0.00169288 0.0016821 -0.00241216  0.00101565 0.000112787 -0.00241216  0.000267542 0.000300516 -0.00241216  0.000101748 0.000388207 -0.00241216  2.34516e-05 0.0005048 -0.00241216  4.7829e-05 0.000493117 -0.00241216  0.00011978 0.000454332 -0.00241216  0.000109781 0.000241259 -0.00241216  -8.16721e-05 0.000109676 -0.00241216  -0.00137073 0.000121057 -0.00241216  0.00108338 0.000132724 -0.00241216  0.000392763 0.000142904 -0.00241216  0.000165545 0.000163439 -0.00241216  5.01195e-05 0.000243353 -0.00241216  6.67004e-05 0.000234246 -0.00241216  0.000123139 0.000165005 -0.00241216  5.12085e-05 -5.31727e-06 -0.00241216  -0.000229847 -4.97248e-05 -0.00241216  -0.0013112 0.000152725 -0.00241216  0.00136574 7.45568e-05 -0.00241216  0.000615207 5.43872e-05 -0.00241216  0.000307638 2.71055e-05 -0.00241216  0.000131729 8.09613e-05 -0.00241216  4.79936e-05 9.31954e-05 -0.00241216  -1.86859e-06 6.97305e-06 -0.00241216  -0.000145333 -0.000115446 -0.00241216  -0.000493816 -9.65403e-05 -0.00241216  -0.00145557 2.5053e-05 -0.00241216  0.00140894 -0.000136935 -0.00241216  0.000747799 -8.15907e-05 -0.00241216  0.000417522 -0.000138411 -0.00241216  0.000195364 -7.11546e-05 -0.00241216  2.46537e-05 -2.61832e-05 -0.00241216  -0.000105712 -5.37296e-05 -0.00241216  -0.000252258 -8.96998e-05 -0.00241216  -0.000586704 -5.72101e-05 -0.00241216  -0.00126005 1.15848e-05 -0.00241216  0.00123897 -0.000302671 -0.00241216  0.000836697 -0.000289185 -0.00241216  0.000524461 -0.000362586 -0.00241216  0.000297168 -0.000265807 -0.00241216  6.5649e-05 -0.000177916 -0.00241216  -0.00012089 -0.000145067 -0.00241216  -0.000297171 -0.000101428 -0.00241216  -0.000637435 -6.92477e-05 -0.00241216  -0.00133704 4.86559e-05 -0.00241216  0.00125644 -0.000516097 -0.00241216  0.000992433 -0.000519417 -0.00241216  0.000650301 -0.000578451 -0.00241216  0.000394109 -0.000463849 -0.00241216  0.000115689 -0.000383969 -0.00241216  -0.000103946 -0.000317674 -0.00241216  -0.000269809 -0.000237785 -0.00241216  -0.00059282 -0.000201623 -0.00241216  -0.00132773 -9.77984e-05 -0.00241216  0.000958061 -0.00106101 -0.00241216  0.000972795 -0.000928445 -0.00241216  0.000593344 -0.000955511 -0.00241216  0.000328311 -0.000824464 -0.00241216  7.07393e-05 -0.000769008 -0.00241216  -0.000118277 -0.000688477 -0.00241216  -0.000259391 -0.000557547 -0.00241216  -0.000536166 -0.000485249 -0.00241216  -0.00119663 -0.000353906 -0.00241216  0.000700859 -0.000683064 -0.00241216  0.00109998 -0.00092825 -0.00241216  0.000605369 -0.00124698 -0.00241216  0.000379878 -0.00128599 -0.00241216  0.000145272 -0.00149714 -0.00241216  -9.42363e-05 -0.00142791 -0.00241216  -0.000193347 -0.00121607 -0.00241216  -0.000370566 -0.0011066 -0.00241216  -0.000950436 -0.000949965 -0.00241216  
            </DataArray>
         </PointData> 
      </Piece>
   </UnstructuredGrid> 
</VTKFile>
