<?xml version="1.0"?>
<VTKFile type="UnstructuredGrid" version="0.1" byte_order="LittleEndian">
   <UnstructuredGrid>
      <Piece NumberOfPoints="81" NumberOfCells="0" > 
         <Points> 
            <DataArray type="Float64" Name="Position" NumberOfComponents="3" format="ascii"> 
               0  0  15  
               0.375  0  15  
               0.75  0  15  
               1.125  0  15  
               1.5  0  15  
               1.875  0  15  
               2.25  0  15  
               2.625  0  15  
               3  0  15  
               0  0.375  15  
               0.375  0.375  15  
               0.75  0.375  15  
               1.125  0.375  15  
               1.5  0.375  15  
               1.875  0.375  15  
               2.25  0.375  15  
               2.625  0.375  15  
               3  0.375  15  
               0  0.75  15  
               0.375  0.75  15  
               0.75  0.75  15  
               1.125  0.75  15  
               1.5  0.75  15  
               1.875  0.75  15  
               2.25  0.75  15  
               2.625  0.75  15  
               3  0.75  15  
               0  1.125  15  
               0.375  1.125  15  
               0.75  1.125  15  
               1.125  1.125  15  
               1.5  1.125  15  
               1.875  1.125  15  
               2.25  1.125  15  
               2.625  1.125  15  
               3  1.125  15  
               0  1.5  15  
               0.375  1.5  15  
               0.75  1.5  15  
               1.125  1.5  15  
               1.5  1.5  15  
               1.875  1.5  15  
               2.25  1.5  15  
               2.625  1.5  15  
               3  1.5  15  
               0  1.875  15  
               0.375  1.875  15  
               0.75  1.875  15  
               1.125  1.875  15  
               1.5  1.875  15  
               1.875  1.875  15  
               2.25  1.875  15  
               2.625  1.875  15  
               3  1.875  15  
               0  2.25  15  
               0.375  2.25  15  
               0.75  2.25  15  
               1.125  2.25  15  
               1.5  2.25  15  
               1.875  2.25  15  
               2.25  2.25  15  
               2.625  2.25  15  
               3  2.25  15  
               0  2.625  15  
               0.375  2.625  15  
               0.75  2.625  15  
               1.125  2.625  15  
               1.5  2.625  15  
               1.875  2.625  15  
               2.25  2.625  15  
               2.625  2.625  15  
               3  2.625  15  
               0  3  15  
               0.375  3  15  
               0.75  3  15  
               1.125  3  15  
               1.5  3  15  
               1.875  3  15  
               2.25  3  15  
               2.625  3  15  
               3  3  15  
            </DataArray>
         </Points> 

         <Cells>
            <DataArray type="Int32" Name="connectivity" NumberOfComponents="1" format="ascii">
               
            </DataArray> 
            <DataArray type="Int32" Name="offsets" NumberOfComponents="1" format="ascii">
               
            </DataArray>
            <DataArray type="UInt8"  Name="types" NumberOfComponents="1" format="ascii">
               
            </DataArray>
         </Cells>
         <PointData Scalars="Rank " Vectors="Displacement Velocity Traction ">
            <DataArray type="UInt32" Name="Rank" NumberOfComponents="1" format="ascii">
               0 0 0 0 0 0 0 0 0 0 0 0 0 0 0 0 0 0 0 0 0 0 0 0 0 0 0 0 0 0 0 0 0 0 0 0 0 0 0 0 0 0 0 0 0 0 0 0 0 0 0 0 0 0 0 0 0 0 0 0 0 0 0 0 0 0 0 0 0 0 0 0 0 0 0 0 0 0 0 0 0 
            </DataArray>
            <DataArray type="Float64" Name="Displacement" NumberOfComponents="3" format="ascii">
               0 0 0  0 0 0  0 0 0  0 0 0  0 0 0  0 0 0  0 0 0  0 0 0  0 0 0  0 0 0  0 0 0  0 0 0  0 0 0  0 0 0  0 0 0  0 0 0  0 0 0  0 0 0  0 0 0  0 0 0  0 0 0  0 0 0  0 0 0  0 0 0  0 0 0  0 0 0  0 0 0  0 0 0  0 0 0  0 0 0  0 0 0  0 0 0  0 0 0  0 0 0  0 0 0  0 0 0  0 0 0  0 0 0  0 0 0  0 0 0  0 0 0  0 0 0  0 0 0  0 0 0  0 0 0  0 0 0  0 0 0  0 0 0  0 0 0  0 0 0  0 0 0  0 0 0  0 0 0  0 0 0  0 0 0  0 0 0  0 0 0  0 0 0  0 0 0  0 0 0  0 0 0  0 0 0  0 0 0  0 0 0  0 0 0  0 0 0  0 0 0  0 0 0  0 0 0  0 0 0  0 0 0  0 0 0  0 0 0  0 0 0  0 0 0  0 0 0  0 0 0  0 0 0  0 0 0  0 0 0  0 0 0  
            </DataArray>
            <DataArray type="Float64" Name="Velocity" NumberOfComponents="3" format="ascii">
               0 0 0  0 0 0  0 0 0  0 0 0  0 0 0  0 0 0  0 0 0  0 0 0  0 0 0  0 0 0  0 0 0  0 0 0  0 0 0  0 0 0  0 0 0  0 0 0  0 0 0  0 0 0  0 0 0  0 0 0  0 0 0  0 0 0  0 0 0  0 0 0  0 0 0  0 0 0  0 0 0  0 0 0  0 0 0  0 0 0  0 0 0  0 0 0  0 0 0  0 0 0  0 0 0  0 0 0  0 0 0  0 0 0  0 0 0  0 0 0  0 0 0  0 0 0  0 0 0  0 0 0  0 0 0  0 0 0  0 0 0  0 0 0  0 0 0  0 0 0  0 0 0  0 0 0  0 0 0  0 0 0  0 0 0  0 0 0  0 0 0  0 0 0  0 0 0  0 0 0  0 0 0  0 0 0  0 0 0  0 0 0  0 0 0  0 0 0  0 0 0  0 0 0  0 0 0  0 0 0  0 0 0  0 0 0  0 0 0  0 0 0  0 0 0  0 0 0  0 0 0  0 0 0  0 0 0  0 0 0  0 0 0  
            </DataArray>
            <DataArray type="Float64" Name="Traction" NumberOfComponents="3" format="ascii">
               2.80153e-05 3.48672e-05 -3.79781e-05  6.37933e-06 2.5744e-05 -3.79781e-05  -5.27482e-06 1.04501e-05 -3.79781e-05  1.4635e-06 1.66098e-05 -3.79781e-05  2.67013e-06 3.28182e-05 -3.79781e-05  -1.49586e-06 4.19343e-05 -3.79781e-05  -2.62913e-06 4.00474e-05 -3.79781e-05  -1.19211e-05 7.07346e-05 -3.79781e-05  -0.000110022 0.000107913 -3.79781e-05  2.50841e-05 1.74593e-05 -3.79781e-05  1.42895e-05 2.05935e-05 -3.79781e-05  5.69629e-06 1.31182e-05 -3.79781e-05  3.51036e-06 3.42601e-06 -3.79781e-05  2.31628e-06 -3.06008e-06 -3.79781e-05  2.4273e-06 8.46246e-06 -3.79781e-05  -1.55914e-06 1.44613e-05 -3.79781e-05  -1.44332e-05 1.99793e-05 -3.79781e-05  -7.86937e-05 1.64509e-05 -3.79781e-05  1.48307e-05 5.50412e-06 -3.79781e-05  1.18064e-05 1.13343e-05 -3.79781e-05  8.4143e-06 7.93013e-06 -3.79781e-05  6.54925e-06 5.09942e-06 -3.79781e-05  6.24538e-06 1.07228e-06 -3.79781e-05  7.26631e-06 4.1353e-06 -3.79781e-05  1.40841e-06 2.48046e-06 -3.79781e-05  -8.2506e-06 6.16793e-06 -3.79781e-05  -5.60872e-05 7.1923e-06 -3.79781e-05  1.33674e-06 7.07914e-06 -3.79781e-05  5.07056e-06 6.75614e-06 -3.79781e-05  5.63357e-06 5.41048e-06 -3.79781e-05  5.36113e-06 7.07875e-06 -3.79781e-05  2.47056e-06 5.9405e-06 -3.79781e-05  2.89324e-07 2.29165e-06 -3.79781e-05  -4.99241e-06 -5.73999e-06 -3.79781e-05  -1.25996e-05 -1.42548e-06 -3.79781e-05  -3.98084e-05 -8.18549e-07 -3.79781e-05  4.35546e-06 8.66873e-06 -3.79781e-05  6.56112e-06 4.04316e-06 -3.79781e-05  7.28408e-06 4.1617e-06 -3.79781e-05  7.07999e-06 6.64213e-06 -3.79781e-05  8.54418e-07 6.11017e-06 -3.79781e-05  -4.49154e-06 5.56181e-06 -3.79781e-05  -6.81299e-06 1.72456e-06 -3.79781e-05  -1.17534e-05 3.48349e-06 -3.79781e-05  -1.66036e-05 8.2637e-06 -3.79781e-05  -1.56828e-06 -3.18485e-06 -3.79781e-05  9.31077e-06 -2.35566e-06 -3.79781e-05  8.38006e-06 -3.35499e-06 -3.79781e-05  7.02878e-06 -1.30543e-06 -3.79781e-05  1.35185e-06 -1.82495e-06 -3.79781e-05  -3.16905e-06 1.87769e-06 -3.79781e-05  -8.40376e-06 3.7851e-06 -3.79781e-05  -1.5212e-05 4.65151e-06 -3.79781e-05  -2.6627e-05 1.12557e-05 -3.79781e-05  -1.50898e-05 -5.55155e-06 -3.79781e-05  8.18994e-06 -2.86858e-06 -3.79781e-05  8.65495e-06 -6.45295e-06 -3.79781e-05  7.61001e-06 -7.57355e-06 -3.79781e-05  3.17948e-06 -9.29041e-06 -3.79781e-05  2.1733e-07 -6.53392e-06 -3.79781e-05  -6.26765e-06 -4.54357e-06 -3.79781e-05  -1.42456e-05 -1.56294e-06 -3.79781e-05  -3.21434e-05 3.01839e-06 -3.79781e-05  -1.8411e-05 4.68521e-06 -3.79781e-05  -2.44314e-06 1.71511e-06 -3.79781e-05  4.27021e-06 -9.02468e-06 -3.79781e-05  5.28532e-06 -1.43226e-05 -3.79781e-05  1.8443e-06 -1.74745e-05 -3.79781e-05  -5.86133e-07 -1.59954e-05 -3.79781e-05  -4.85819e-06 -1.4109e-05 -3.79781e-05  -1.07259e-05 -8.83627e-06 -3.79781e-05  -3.67817e-05 1.06191e-06 -3.79781e-05  -2.16243e-05 1.77614e-05 -3.79781e-05  -5.29047e-06 9.17609e-06 -3.79781e-05  7.26864e-06 -2.91919e-06 -3.79781e-05  6.90293e-06 -1.55943e-05 -3.79781e-05  2.04913e-06 -2.38434e-05 -3.79781e-05  -4.48609e-07 -2.79857e-05 -3.79781e-05  -3.75972e-06 -2.94297e-05 -3.79781e-05  -3.20801e-06 -3.42533e-05 -3.79781e-05  -4.27844e-05 -3.90298e-05 -3.79781e-05  
            </DataArray>
         </PointData> 
      </Piece>
   </UnstructuredGrid> 
</VTKFile>
