<?xml version="1.0"?>
<VTKFile type="UnstructuredGrid" version="0.1" byte_order="LittleEndian">
   <UnstructuredGrid>
      <Piece NumberOfPoints="81" NumberOfCells="0" > 
         <Points> 
            <DataArray type="Float64" Name="Position" NumberOfComponents="3" format="ascii"> 
               0  0  20  
               0.375  0  20  
               0.75  0  20  
               1.125  0  20  
               1.5  0  20  
               1.875  0  20  
               2.25  0  20  
               2.625  0  20  
               3  0  20  
               0  0.375  20  
               0.375  0.375  20  
               0.75  0.375  20  
               1.125  0.375  20  
               1.5  0.375  20  
               1.875  0.375  20  
               2.25  0.375  20  
               2.625  0.375  20  
               3  0.375  20  
               0  0.75  20  
               0.375  0.75  20  
               0.75  0.75  20  
               1.125  0.75  20  
               1.5  0.75  20  
               1.875  0.75  20  
               2.25  0.75  20  
               2.625  0.75  20  
               3  0.75  20  
               0  1.125  20  
               0.375  1.125  20  
               0.75  1.125  20  
               1.125  1.125  20  
               1.5  1.125  20  
               1.875  1.125  20  
               2.25  1.125  20  
               2.625  1.125  20  
               3  1.125  20  
               0  1.5  20  
               0.375  1.5  20  
               0.75  1.5  20  
               1.125  1.5  20  
               1.5  1.5  20  
               1.875  1.5  20  
               2.25  1.5  20  
               2.625  1.5  20  
               3  1.5  20  
               0  1.875  20  
               0.375  1.875  20  
               0.75  1.875  20  
               1.125  1.875  20  
               1.5  1.875  20  
               1.875  1.875  20  
               2.25  1.875  20  
               2.625  1.875  20  
               3  1.875  20  
               0  2.25  20  
               0.375  2.25  20  
               0.75  2.25  20  
               1.125  2.25  20  
               1.5  2.25  20  
               1.875  2.25  20  
               2.25  2.25  20  
               2.625  2.25  20  
               3  2.25  20  
               0  2.625  20  
               0.375  2.625  20  
               0.75  2.625  20  
               1.125  2.625  20  
               1.5  2.625  20  
               1.875  2.625  20  
               2.25  2.625  20  
               2.625  2.625  20  
               3  2.625  20  
               0  3  20  
               0.375  3  20  
               0.75  3  20  
               1.125  3  20  
               1.5  3  20  
               1.875  3  20  
               2.25  3  20  
               2.625  3  20  
               3  3  20  
            </DataArray>
         </Points> 

         <Cells>
            <DataArray type="Int32" Name="connectivity" NumberOfComponents="1" format="ascii">
               
            </DataArray> 
            <DataArray type="Int32" Name="offsets" NumberOfComponents="1" format="ascii">
               
            </DataArray>
            <DataArray type="UInt8"  Name="types" NumberOfComponents="1" format="ascii">
               
            </DataArray>
         </Cells>
         <PointData Scalars="Rank " Vectors="Displacement Velocity Traction ">
            <DataArray type="UInt32" Name="Rank" NumberOfComponents="1" format="ascii">
               0 0 0 0 0 0 0 0 0 0 0 0 0 0 0 0 0 0 0 0 0 0 0 0 0 0 0 0 0 0 0 0 0 0 0 0 0 0 0 0 0 0 0 0 0 0 0 0 0 0 0 0 0 0 0 0 0 0 0 0 0 0 0 0 0 0 0 0 0 0 0 0 0 0 0 0 0 0 0 0 0 
            </DataArray>
            <DataArray type="Float64" Name="Displacement" NumberOfComponents="3" format="ascii">
               1.45098e-06 1.4508e-06 -4.97556e-06  4.34676e-07 1.96211e-06 -5.02783e-06  1.01318e-07 2.37603e-06 -4.63532e-06  -3.26315e-08 2.41671e-06 -4.48774e-06  -1.4965e-07 2.39166e-06 -4.49196e-06  -3.59224e-07 2.47987e-06 -4.37992e-06  -7.05519e-07 2.31194e-06 -4.56455e-06  -5.85414e-07 1.63034e-06 -4.9746e-06  -1.13081e-06 1.68973e-06 -4.71004e-06  1.96563e-06 4.3505e-07 -5.03103e-06  8.19233e-07 8.17536e-07 -4.7551e-06  3.24479e-07 1.0731e-06 -4.20006e-06  8.99161e-08 1.13208e-06 -4.07187e-06  2.30014e-08 1.18738e-06 -4.0833e-06  -1.19678e-07 1.14241e-06 -3.99776e-06  -5.66494e-07 1.1684e-06 -4.20408e-06  -8.11669e-07 8.37984e-07 -4.88517e-06  -1.58204e-06 9.38395e-07 -4.8925e-06  2.37794e-06 1.00422e-07 -4.63786e-06  1.0737e-06 3.23533e-07 -4.20009e-06  5.02612e-07 5.02058e-07 -3.30562e-06  3.5944e-08 6.28952e-07 -3.07932e-06  -1.9169e-08 6.38103e-07 -3.10064e-06  -9.26965e-08 6.43876e-07 -3.05339e-06  -6.5147e-07 6.73938e-07 -3.29738e-06  -1.09807e-06 5.35046e-07 -4.21924e-06  -2.2304e-06 6.89612e-07 -4.5266e-06  2.41791e-06 -3.48925e-08 -4.48975e-06  1.13236e-06 8.77539e-08 -4.07184e-06  6.29363e-07 3.41082e-08 -3.07914e-06  1.60877e-07 1.59275e-07 -2.7713e-06  7.72516e-09 1.15999e-07 -2.79308e-06  -1.40553e-07 1.78553e-07 -2.76551e-06  -6.12232e-07 1.2603e-07 -3.06001e-06  -1.09218e-06 1.57738e-07 -4.01705e-06  -2.40539e-06 2.20486e-07 -4.37488e-06  2.39346e-06 -1.51766e-07 -4.4941e-06  1.18759e-06 2.07329e-08 -4.08318e-06  6.38677e-07 -2.14031e-08 -3.10043e-06  1.17848e-07 5.70044e-09 -2.79311e-06  3.41026e-08 3.14835e-08 -2.83911e-06  -4.99606e-08 3.31909e-08 -2.79018e-06  -5.61252e-07 7.52325e-08 -3.09994e-06  -1.06297e-06 2.68575e-08 -4.06893e-06  -2.23669e-06 2.29484e-07 -4.44767e-06  2.48203e-06 -3.61688e-07 -4.38269e-06  1.14319e-06 -1.22259e-07 -3.99786e-06  6.44898e-07 -9.58834e-08 -3.05318e-06  1.80669e-07 -1.43342e-07 -2.76528e-06  3.60484e-08 -5.35925e-08 -2.79021e-06  -1.22687e-07 -1.26679e-07 -2.7613e-06  -6.03318e-07 4.29547e-08 -3.07329e-06  -1.08409e-06 -8.22911e-08 -4.05707e-06  -2.37212e-06 2.28789e-07 -4.43696e-06  2.3138e-06 -7.07699e-07 -4.56732e-06  1.16856e-06 -5.67234e-07 -4.20399e-06  6.74284e-07 -6.53256e-07 -3.29722e-06  1.28308e-07 -6.1517e-07 -3.05993e-06  7.83481e-08 -5.6468e-07 -3.1e-06  4.72477e-08 -6.07262e-07 -3.07329e-06  -4.46049e-07 -4.49844e-07 -3.29989e-06  -1.02517e-06 -3.27106e-07 -4.20842e-06  -2.33056e-06 -8.61843e-08 -4.61689e-06  1.6343e-06 -5.90877e-07 -4.97747e-06  8.39029e-07 -8.14248e-07 -4.88437e-06  5.35399e-07 -1.10072e-06 -4.21891e-06  1.60175e-07 -1.09596e-06 -4.01693e-06  3.01972e-08 -1.06693e-06 -4.06858e-06  -7.82819e-08 -1.08897e-06 -4.05678e-06  -3.23369e-07 -1.02952e-06 -4.20826e-06  -7.87665e-07 -7.92218e-07 -4.76926e-06  -1.92139e-06 -4.59294e-07 -5.01797e-06  1.69396e-06 -1.13955e-06 -4.71936e-06  9.40943e-07 -1.58813e-06 -4.8966e-06  6.91711e-07 -2.23565e-06 -4.53064e-06  2.23798e-07 -2.4117e-06 -4.37912e-06  2.33695e-07 -2.24293e-06 -4.45138e-06  2.34082e-07 -2.37864e-06 -4.4406e-06  -8.28404e-08 -2.33687e-06 -4.62042e-06  -4.57006e-07 -1.92718e-06 -5.02172e-06  -1.45873e-06 -1.46205e-06 -4.95228e-06  
            </DataArray>
            <DataArray type="Float64" Name="Velocity" NumberOfComponents="3" format="ascii">
               2.43489e-06 2.45955e-06 -8.72057e-06  8.17726e-07 3.30878e-06 -8.87492e-06  1.92662e-07 4.03424e-06 -8.23406e-06  -6.4747e-08 4.08847e-06 -7.9783e-06  -2.92432e-07 4.05582e-06 -7.98111e-06  -6.85095e-07 4.21959e-06 -7.79581e-06  -1.28348e-06 3.94212e-06 -8.10764e-06  -1.05246e-06 2.7176e-06 -8.75956e-06  -1.84353e-06 2.83271e-06 -8.17805e-06  3.29549e-06 8.39967e-07 -8.87303e-06  1.42788e-06 1.44414e-06 -8.47866e-06  5.45019e-07 1.89161e-06 -7.54483e-06  1.46049e-07 1.97349e-06 -7.33231e-06  1.08366e-08 2.07219e-06 -7.32838e-06  -2.62664e-07 2.00365e-06 -7.20944e-06  -1.02186e-06 2.08105e-06 -7.55907e-06  -1.44729e-06 1.48082e-06 -8.70372e-06  -2.65001e-06 1.66537e-06 -8.63122e-06  4.01934e-06 2.08939e-07 -8.23546e-06  1.87641e-06 5.63664e-07 -7.5484e-06  8.41669e-07 8.59989e-07 -6.07564e-06  6.98069e-08 1.04914e-06 -5.71136e-06  -4.03195e-08 1.08394e-06 -5.7e-06  -1.95368e-07 1.08672e-06 -5.6716e-06  -1.15466e-06 1.17433e-06 -6.07016e-06  -1.98507e-06 9.44162e-07 -7.58529e-06  -3.83419e-06 1.2187e-06 -8.06044e-06  4.0702e-06 -5.00078e-08 -7.97564e-06  1.95534e-06 1.6333e-07 -7.33376e-06  1.02915e-06 8.6901e-08 -5.70903e-06  2.55476e-07 2.73566e-07 -5.20361e-06  -1.61656e-08 2.2332e-07 -5.17943e-06  -2.85443e-07 3.16216e-07 -5.19553e-06  -1.04662e-06 2.3563e-07 -5.68135e-06  -1.91829e-06 2.85878e-07 -7.24018e-06  -4.09005e-06 3.68659e-07 -7.78483e-06  4.03916e-06 -2.77607e-07 -7.9792e-06  2.05412e-06 2.48051e-08 -7.32979e-06  1.06371e-06 -2.59329e-08 -5.69778e-06  2.05855e-07 -1.54266e-10 -5.17934e-06  3.9744e-08 5.41798e-08 -5.19119e-06  -1.33449e-07 6.55855e-08 -5.17405e-06  -9.61209e-07 1.17494e-07 -5.69662e-06  -1.86125e-06 6.76349e-08 -7.29888e-06  -3.76777e-06 4.03348e-07 -7.90454e-06  4.20387e-06 -6.68072e-07 -7.79633e-06  1.9865e-06 -2.4612e-07 -7.21189e-06  1.06647e-06 -1.79431e-07 -5.67017e-06  2.99318e-07 -2.69219e-07 -5.19593e-06  5.19957e-08 -1.19673e-07 -5.17464e-06  -2.29625e-07 -2.1732e-07 -5.17736e-06  -1.01129e-06 1.57722e-08 -5.68987e-06  -1.89688e-06 -1.38791e-07 -7.2913e-06  -4.01346e-06 4.31506e-07 -7.88456e-06  3.92519e-06 -1.26715e-06 -8.10567e-06  2.06282e-06 -1.00116e-06 -7.5594e-06  1.15354e-06 -1.13461e-06 -6.06641e-06  2.19151e-07 -1.02851e-06 -5.67961e-06  1.05644e-07 -9.45892e-07 -5.69509e-06  4.82698e-09 -9.98691e-07 -5.68798e-06  -7.94752e-07 -7.8325e-07 -6.06378e-06  -1.80472e-06 -5.61851e-07 -7.55281e-06  -3.95106e-06 -1.53385e-07 -8.18418e-06  2.704e-06 -1.044e-06 -8.76068e-06  1.464e-06 -1.43197e-06 -8.70625e-06  9.24705e-07 -1.96977e-06 -7.58494e-06  2.71313e-07 -1.90559e-06 -7.24174e-06  5.7382e-08 -1.85013e-06 -7.29958e-06  -1.49192e-07 -1.88845e-06 -7.29201e-06  -5.72708e-07 -1.79675e-06 -7.55511e-06  -1.38537e-06 -1.37765e-06 -8.50577e-06  -3.22749e-06 -8.5278e-07 -8.85664e-06  2.82022e-06 -1.84112e-06 -8.18638e-06  1.65285e-06 -2.63985e-06 -8.63607e-06  1.20433e-06 -3.82329e-06 -8.06206e-06  3.55055e-07 -4.08126e-06 -7.79011e-06  3.94616e-07 -3.76102e-06 -7.90945e-06  4.22909e-07 -4.01026e-06 -7.89058e-06  -1.65961e-07 -3.94807e-06 -8.19117e-06  -8.68461e-07 -3.22509e-06 -8.86047e-06  -2.472e-06 -2.45842e-06 -8.69618e-06  
            </DataArray>
            <DataArray type="Float64" Name="Traction" NumberOfComponents="3" format="ascii">
               0 0 0  0 0 0  0 0 0  0 0 0  0 0 0  0 0 0  0 0 0  0 0 0  0 0 0  0 0 0  0 0 0  0 0 0  0 0 0  0 0 0  0 0 0  0 0 0  0 0 0  0 0 0  0 0 0  0 0 0  0 0 0  0 0 0  0 0 0  0 0 0  0 0 0  0 0 0  0 0 0  0 0 0  0 0 0  0 0 0  0 0 0  0 0 0  0 0 0  0 0 0  0 0 0  0 0 0  0 0 0  0 0 0  0 0 0  0 0 0  0 0 0  0 0 0  0 0 0  0 0 0  0 0 0  0 0 0  0 0 0  0 0 0  0 0 0  0 0 0  0 0 0  0 0 0  0 0 0  0 0 0  0 0 0  0 0 0  0 0 0  0 0 0  0 0 0  0 0 0  0 0 0  0 0 0  0 0 0  0 0 0  0 0 0  0 0 0  0 0 0  0 0 0  0 0 0  0 0 0  0 0 0  0 0 0  0 0 0  0 0 0  0 0 0  0 0 0  0 0 0  0 0 0  0 0 0  0 0 0  0 0 0  
            </DataArray>
         </PointData> 
      </Piece>
   </UnstructuredGrid> 
</VTKFile>
