<?xml version="1.0"?>
<VTKFile type="UnstructuredGrid" version="0.1" byte_order="LittleEndian">
   <UnstructuredGrid>
      <Piece NumberOfPoints="81" NumberOfCells="0" > 
         <Points> 
            <DataArray type="Float64" Name="Position" NumberOfComponents="3" format="ascii"> 
               0  0  15  
               0.375  0  15  
               0.75  0  15  
               1.125  0  15  
               1.5  0  15  
               1.875  0  15  
               2.25  0  15  
               2.625  0  15  
               3  0  15  
               0  0.375  15  
               0.375  0.375  15  
               0.75  0.375  15  
               1.125  0.375  15  
               1.5  0.375  15  
               1.875  0.375  15  
               2.25  0.375  15  
               2.625  0.375  15  
               3  0.375  15  
               0  0.75  15  
               0.375  0.75  15  
               0.75  0.75  15  
               1.125  0.75  15  
               1.5  0.75  15  
               1.875  0.75  15  
               2.25  0.75  15  
               2.625  0.75  15  
               3  0.75  15  
               0  1.125  15  
               0.375  1.125  15  
               0.75  1.125  15  
               1.125  1.125  15  
               1.5  1.125  15  
               1.875  1.125  15  
               2.25  1.125  15  
               2.625  1.125  15  
               3  1.125  15  
               0  1.5  15  
               0.375  1.5  15  
               0.75  1.5  15  
               1.125  1.5  15  
               1.5  1.5  15  
               1.875  1.5  15  
               2.25  1.5  15  
               2.625  1.5  15  
               3  1.5  15  
               0  1.875  15  
               0.375  1.875  15  
               0.75  1.875  15  
               1.125  1.875  15  
               1.5  1.875  15  
               1.875  1.875  15  
               2.25  1.875  15  
               2.625  1.875  15  
               3  1.875  15  
               0  2.25  15  
               0.375  2.25  15  
               0.75  2.25  15  
               1.125  2.25  15  
               1.5  2.25  15  
               1.875  2.25  15  
               2.25  2.25  15  
               2.625  2.25  15  
               3  2.25  15  
               0  2.625  15  
               0.375  2.625  15  
               0.75  2.625  15  
               1.125  2.625  15  
               1.5  2.625  15  
               1.875  2.625  15  
               2.25  2.625  15  
               2.625  2.625  15  
               3  2.625  15  
               0  3  15  
               0.375  3  15  
               0.75  3  15  
               1.125  3  15  
               1.5  3  15  
               1.875  3  15  
               2.25  3  15  
               2.625  3  15  
               3  3  15  
            </DataArray>
         </Points> 

         <Cells>
            <DataArray type="Int32" Name="connectivity" NumberOfComponents="1" format="ascii">
               
            </DataArray> 
            <DataArray type="Int32" Name="offsets" NumberOfComponents="1" format="ascii">
               
            </DataArray>
            <DataArray type="UInt8"  Name="types" NumberOfComponents="1" format="ascii">
               
            </DataArray>
         </Cells>
         <PointData Scalars="Rank " Vectors="Displacement Velocity Traction ">
            <DataArray type="UInt32" Name="Rank" NumberOfComponents="1" format="ascii">
               0 0 0 0 0 0 0 0 0 0 0 0 0 0 0 0 0 0 0 0 0 0 0 0 0 0 0 0 0 0 0 0 0 0 0 0 0 0 0 0 0 0 0 0 0 0 0 0 0 0 0 0 0 0 0 0 0 0 0 0 0 0 0 0 0 0 0 0 0 0 0 0 0 0 0 0 0 0 0 0 0 
            </DataArray>
            <DataArray type="Float64" Name="Displacement" NumberOfComponents="3" format="ascii">
               0 0 0  0 0 0  0 0 0  0 0 0  0 0 0  0 0 0  0 0 0  0 0 0  0 0 0  0 0 0  0 0 0  0 0 0  0 0 0  0 0 0  0 0 0  0 0 0  0 0 0  0 0 0  0 0 0  0 0 0  0 0 0  0 0 0  0 0 0  0 0 0  0 0 0  0 0 0  0 0 0  0 0 0  0 0 0  0 0 0  0 0 0  0 0 0  0 0 0  0 0 0  0 0 0  0 0 0  0 0 0  0 0 0  0 0 0  0 0 0  0 0 0  0 0 0  0 0 0  0 0 0  0 0 0  0 0 0  0 0 0  0 0 0  0 0 0  0 0 0  0 0 0  0 0 0  0 0 0  0 0 0  0 0 0  0 0 0  0 0 0  0 0 0  0 0 0  0 0 0  0 0 0  0 0 0  0 0 0  0 0 0  0 0 0  0 0 0  0 0 0  0 0 0  0 0 0  0 0 0  0 0 0  0 0 0  0 0 0  0 0 0  0 0 0  0 0 0  0 0 0  0 0 0  0 0 0  0 0 0  0 0 0  
            </DataArray>
            <DataArray type="Float64" Name="Velocity" NumberOfComponents="3" format="ascii">
               0 0 0  0 0 0  0 0 0  0 0 0  0 0 0  0 0 0  0 0 0  0 0 0  0 0 0  0 0 0  0 0 0  0 0 0  0 0 0  0 0 0  0 0 0  0 0 0  0 0 0  0 0 0  0 0 0  0 0 0  0 0 0  0 0 0  0 0 0  0 0 0  0 0 0  0 0 0  0 0 0  0 0 0  0 0 0  0 0 0  0 0 0  0 0 0  0 0 0  0 0 0  0 0 0  0 0 0  0 0 0  0 0 0  0 0 0  0 0 0  0 0 0  0 0 0  0 0 0  0 0 0  0 0 0  0 0 0  0 0 0  0 0 0  0 0 0  0 0 0  0 0 0  0 0 0  0 0 0  0 0 0  0 0 0  0 0 0  0 0 0  0 0 0  0 0 0  0 0 0  0 0 0  0 0 0  0 0 0  0 0 0  0 0 0  0 0 0  0 0 0  0 0 0  0 0 0  0 0 0  0 0 0  0 0 0  0 0 0  0 0 0  0 0 0  0 0 0  0 0 0  0 0 0  0 0 0  0 0 0  0 0 0  
            </DataArray>
            <DataArray type="Float64" Name="Traction" NumberOfComponents="3" format="ascii">
               0.000187918 0.000243976 -0.000287408  -3.07775e-05 0.000204395 -0.000287408  -3.34958e-05 0.00015825 -0.000287408  -3.72529e-05 0.000149399 -0.000287408  9.38966e-07 0.000124126 -0.000287408  2.92445e-05 0.000193542 -0.000287408  2.50118e-05 0.000177378 -0.000287408  6.92496e-05 0.000273742 -0.000287408  -0.000407597 0.000424829 -0.000287408  0.00019115 3.17774e-05 -0.000287408  3.9726e-05 4.77866e-05 -0.000287408  1.06034e-05 3.89854e-05 -0.000287408  -4.9149e-06 3.60975e-05 -0.000287408  1.48516e-05 1.7323e-05 -0.000287408  4.91685e-05 1.80272e-05 -0.000287408  5.62639e-05 -2.72073e-05 -0.000287408  4.59557e-05 -3.71487e-05 -0.000287408  -0.000285121 -4.32167e-05 -0.000287408  0.000185506 3.57843e-05 -0.000287408  7.69022e-05 2.14719e-05 -0.000287408  3.61859e-05 7.72506e-06 -0.000287408  9.48445e-06 1.4695e-05 -0.000287408  3.06031e-05 5.265e-06 -0.000287408  6.58231e-05 -9.59459e-06 -0.000287408  5.47406e-05 -5.49253e-05 -0.000287408  2.33997e-05 -4.71048e-05 -0.000287408  -0.000218511 -2.02583e-06 -0.000287408  0.00019613 1.83945e-05 -0.000287408  0.000111503 4.37058e-06 -0.000287408  6.22276e-05 -1.38571e-05 -0.000287408  2.91146e-05 1.52251e-06 -0.000287408  2.07121e-05 5.17977e-06 -0.000287408  2.38542e-05 -2.23227e-05 -0.000287408  2.21019e-07 -6.67577e-05 -0.000287408  -4.24402e-05 -4.67784e-05 -0.000287408  -0.000210893 -2.67524e-05 -0.000287408  0.000176428 -1.74038e-05 -0.000287408  0.000141634 -1.11791e-05 -0.000287408  9.21963e-05 -3.06957e-05 -0.000287408  5.28178e-05 -1.14959e-05 -0.000287408  1.63551e-05 -1.75533e-06 -0.000287408  -7.8339e-06 -7.99125e-06 -0.000287408  -2.52175e-05 -2.41618e-05 -0.000287408  -5.93154e-05 -9.14884e-06 -0.000287408  -0.000112457 4.95667e-06 -0.000287408  8.64469e-05 -5.57613e-05 -0.000287408  0.000127981 -4.68072e-05 -0.000287408  9.629e-05 -6.90206e-05 -0.000287408  6.80246e-05 -4.76003e-05 -0.000287408  2.40296e-05 -3.36513e-05 -0.000287408  -7.87019e-06 -1.69024e-05 -0.000287408  -3.25963e-05 -2.59998e-06 -0.000287408  -6.83285e-05 9.65778e-06 -0.000287408  -0.000145991 3.5535e-05 -0.000287408  4.43387e-05 -7.67102e-05 -0.000287408  0.000133993 -7.07161e-05 -0.000287408  0.000109847 -8.89402e-05 -0.000287408  8.66087e-05 -7.55582e-05 -0.000287408  3.92579e-05 -7.61796e-05 -0.000287408  5.82972e-06 -5.25389e-05 -0.000287408  -1.61414e-05 -2.74321e-05 -0.000287408  -4.75812e-05 -7.50745e-06 -0.000287408  -0.000149826 8.31353e-06 -0.000287408  -4.50786e-05 -0.000119993 -0.000287408  0.000100552 -9.65573e-05 -0.000287408  7.96538e-05 -0.000114525 -0.000287408  5.64439e-05 -0.00011208 -0.000287408  1.81002e-05 -0.000133038 -0.000287408  -5.09083e-06 -0.000107977 -0.000287408  -1.61869e-05 -6.78627e-05 -0.000287408  -3.41042e-05 -3.28599e-05 -0.000287408  -0.000145019 6.88951e-06 -0.000287408  -0.00014677 0.000119903 -0.000287408  0.000102966 2.98785e-05 -0.000287408  7.33945e-05 -5.91691e-05 -0.000287408  6.39069e-05 -0.000104007 -0.000287408  2.61339e-05 -0.000198968 -0.000287408  -2.38013e-05 -0.000197725 -0.000287408  -3.68609e-05 -0.00014978 -0.000287408  -2.07249e-05 -0.000133649 -0.000287408  -0.00014538 -0.000119625 -0.000287408  
            </DataArray>
         </PointData> 
      </Piece>
   </UnstructuredGrid> 
</VTKFile>
