<?xml version="1.0"?>
<VTKFile type="UnstructuredGrid" version="0.1" byte_order="LittleEndian">
   <UnstructuredGrid>
      <Piece NumberOfPoints="81" NumberOfCells="0" > 
         <Points> 
            <DataArray type="Float64" Name="Position" NumberOfComponents="3" format="ascii"> 
               0  0  15  
               0.375  0  15  
               0.75  0  15  
               1.125  0  15  
               1.5  0  15  
               1.875  0  15  
               2.25  0  15  
               2.625  0  15  
               3  0  15  
               0  0.375  15  
               0.375  0.375  15  
               0.75  0.375  15  
               1.125  0.375  15  
               1.5  0.375  15  
               1.875  0.375  15  
               2.25  0.375  15  
               2.625  0.375  15  
               3  0.375  15  
               0  0.75  15  
               0.375  0.75  15  
               0.75  0.75  15  
               1.125  0.75  15  
               1.5  0.75  15  
               1.875  0.75  15  
               2.25  0.75  15  
               2.625  0.75  15  
               3  0.75  15  
               0  1.125  15  
               0.375  1.125  15  
               0.75  1.125  15  
               1.125  1.125  15  
               1.5  1.125  15  
               1.875  1.125  15  
               2.25  1.125  15  
               2.625  1.125  15  
               3  1.125  15  
               0  1.5  15  
               0.375  1.5  15  
               0.75  1.5  15  
               1.125  1.5  15  
               1.5  1.5  15  
               1.875  1.5  15  
               2.25  1.5  15  
               2.625  1.5  15  
               3  1.5  15  
               0  1.875  15  
               0.375  1.875  15  
               0.75  1.875  15  
               1.125  1.875  15  
               1.5  1.875  15  
               1.875  1.875  15  
               2.25  1.875  15  
               2.625  1.875  15  
               3  1.875  15  
               0  2.25  15  
               0.375  2.25  15  
               0.75  2.25  15  
               1.125  2.25  15  
               1.5  2.25  15  
               1.875  2.25  15  
               2.25  2.25  15  
               2.625  2.25  15  
               3  2.25  15  
               0  2.625  15  
               0.375  2.625  15  
               0.75  2.625  15  
               1.125  2.625  15  
               1.5  2.625  15  
               1.875  2.625  15  
               2.25  2.625  15  
               2.625  2.625  15  
               3  2.625  15  
               0  3  15  
               0.375  3  15  
               0.75  3  15  
               1.125  3  15  
               1.5  3  15  
               1.875  3  15  
               2.25  3  15  
               2.625  3  15  
               3  3  15  
            </DataArray>
         </Points> 

         <Cells>
            <DataArray type="Int32" Name="connectivity" NumberOfComponents="1" format="ascii">
               
            </DataArray> 
            <DataArray type="Int32" Name="offsets" NumberOfComponents="1" format="ascii">
               
            </DataArray>
            <DataArray type="UInt8"  Name="types" NumberOfComponents="1" format="ascii">
               
            </DataArray>
         </Cells>
         <PointData Scalars="Rank " Vectors="Displacement Velocity Traction ">
            <DataArray type="UInt32" Name="Rank" NumberOfComponents="1" format="ascii">
               0 0 0 0 0 0 0 0 0 0 0 0 0 0 0 0 0 0 0 0 0 0 0 0 0 0 0 0 0 0 0 0 0 0 0 0 0 0 0 0 0 0 0 0 0 0 0 0 0 0 0 0 0 0 0 0 0 0 0 0 0 0 0 0 0 0 0 0 0 0 0 0 0 0 0 0 0 0 0 0 0 
            </DataArray>
            <DataArray type="Float64" Name="Displacement" NumberOfComponents="3" format="ascii">
               0 0 0  0 0 0  0 0 0  0 0 0  0 0 0  0 0 0  0 0 0  0 0 0  0 0 0  0 0 0  0 0 0  0 0 0  0 0 0  0 0 0  0 0 0  0 0 0  0 0 0  0 0 0  0 0 0  0 0 0  0 0 0  0 0 0  0 0 0  0 0 0  0 0 0  0 0 0  0 0 0  0 0 0  0 0 0  0 0 0  0 0 0  0 0 0  0 0 0  0 0 0  0 0 0  0 0 0  0 0 0  0 0 0  0 0 0  0 0 0  0 0 0  0 0 0  0 0 0  0 0 0  0 0 0  0 0 0  0 0 0  0 0 0  0 0 0  0 0 0  0 0 0  0 0 0  0 0 0  0 0 0  0 0 0  0 0 0  0 0 0  0 0 0  0 0 0  0 0 0  0 0 0  0 0 0  0 0 0  0 0 0  0 0 0  0 0 0  0 0 0  0 0 0  0 0 0  0 0 0  0 0 0  0 0 0  0 0 0  0 0 0  0 0 0  0 0 0  0 0 0  0 0 0  0 0 0  0 0 0  0 0 0  
            </DataArray>
            <DataArray type="Float64" Name="Velocity" NumberOfComponents="3" format="ascii">
               0 0 0  0 0 0  0 0 0  0 0 0  0 0 0  0 0 0  0 0 0  0 0 0  0 0 0  0 0 0  0 0 0  0 0 0  0 0 0  0 0 0  0 0 0  0 0 0  0 0 0  0 0 0  0 0 0  0 0 0  0 0 0  0 0 0  0 0 0  0 0 0  0 0 0  0 0 0  0 0 0  0 0 0  0 0 0  0 0 0  0 0 0  0 0 0  0 0 0  0 0 0  0 0 0  0 0 0  0 0 0  0 0 0  0 0 0  0 0 0  0 0 0  0 0 0  0 0 0  0 0 0  0 0 0  0 0 0  0 0 0  0 0 0  0 0 0  0 0 0  0 0 0  0 0 0  0 0 0  0 0 0  0 0 0  0 0 0  0 0 0  0 0 0  0 0 0  0 0 0  0 0 0  0 0 0  0 0 0  0 0 0  0 0 0  0 0 0  0 0 0  0 0 0  0 0 0  0 0 0  0 0 0  0 0 0  0 0 0  0 0 0  0 0 0  0 0 0  0 0 0  0 0 0  0 0 0  0 0 0  0 0 0  
            </DataArray>
            <DataArray type="Float64" Name="Traction" NumberOfComponents="3" format="ascii">
               0.0198069 0.0187735 0.101305  0.0114874 0.0137262 0.101305  0.00505764 0.00771779 0.101305  0.00381048 0.00890016 0.101305  -0.00458251 0.0104657 0.101305  -0.00678013 0.00935709 0.101305  -0.00176833 0.00895246 0.101305  -0.0194328 0.0191824 0.101305  -0.031406 0.0276092 0.101305  0.0148286 0.0102948 0.101305  0.0097617 0.00868678 0.101305  0.00753427 0.00365105 0.101305  0.00582844 0.00344481 0.101305  -0.00271683 0.00368146 0.101305  -0.00460181 0.00433039 0.101305  0.00537332 0.00374449 0.101305  -0.0107148 0.0102879 0.101305  -0.0207867 0.0176338 0.101305  0.00889296 0.00335707 0.101305  0.00450532 0.00615074 0.101305  0.0053635 0.00418453 0.101305  0.00633936 0.00312946 0.101305  -0.00180567 0.0029245 0.101305  -0.0047082 0.0038692 0.101305  0.00922606 0.00381298 0.101305  -0.0044294 0.00507343 0.101305  -0.0102421 0.00759589 0.101305  0.00932145 0.00177382 0.101305  0.00381926 0.00425499 0.101305  0.00398089 0.00494635 0.101305  0.00539039 0.00418434 0.101305  -0.00164699 0.004007 0.101305  -0.00419652 0.0044373 0.101305  0.00881165 0.00453982 0.101305  -0.00419152 0.00465545 0.101305  -0.00955665 0.00683858 0.101305  0.0101814 -0.00601279 0.101305  0.00350157 -0.00391163 0.101305  0.00340623 -0.00281941 0.101305  0.00507349 -0.00276993 0.101305  -0.00225492 -0.00355191 0.101305  -0.00437646 -0.00316638 0.101305  0.00876075 -0.00344143 0.101305  -0.00430284 -0.00197658 0.101305  -0.0112915 -0.000391264 0.101305  0.00913472 -0.00743117 0.101305  0.00354375 -0.00495733 0.101305  0.00377882 -0.00492053 0.101305  0.0050241 -0.00484637 0.101305  -0.00204374 -0.00551613 0.101305  -0.0038927 -0.00516496 0.101305  0.00986824 -0.00625224 0.101305  -0.0032983 -0.00511737 0.101305  -0.00928205 -0.00400809 0.101305  0.00795591 -0.00145349 0.101305  0.00199781 0.00606986 0.101305  0.00301687 0.00996927 0.101305  0.00469304 0.00883436 0.101305  -0.00241682 0.00820156 0.101305  -0.00478061 0.00893772 0.101305  0.00871154 0.00744143 0.101305  -0.00344425 0.0019104 0.101305  -0.00844193 0.00156751 0.101305  0.0189904 -0.0173066 0.101305  0.00833462 -0.00879809 0.101305  0.00432904 -0.00270035 0.101305  0.00496317 -0.00346335 0.101305  -0.000776776 -0.00420697 0.101305  -0.00348206 -0.00374813 0.101305  0.0033761 -0.00438112 0.101305  -0.00794497 -0.00911942 0.101305  -0.0141267 -0.0106584 0.101305  0.0283671 -0.0323143 0.101305  0.0153985 -0.0206201 0.101305  0.0072124 -0.009263 0.101305  0.00739707 -0.00920391 0.101305  0.00104365 -0.0107556 0.101305  -0.00186625 -0.00958228 0.101305  0.00338188 -0.00962041 0.101305  -0.00928022 -0.0152963 0.101305  -0.0188502 -0.0200959 0.101305  
            </DataArray>
         </PointData> 
      </Piece>
   </UnstructuredGrid> 
</VTKFile>
