<?xml version="1.0"?>
<VTKFile type="UnstructuredGrid" version="0.1" byte_order="LittleEndian">
   <UnstructuredGrid>
      <Piece NumberOfPoints="81" NumberOfCells="0" > 
         <Points> 
            <DataArray type="Float64" Name="Position" NumberOfComponents="3" format="ascii"> 
               0  0  20  
               0.375  0  20  
               0.75  0  20  
               1.125  0  20  
               1.5  0  20  
               1.875  0  20  
               2.25  0  20  
               2.625  0  20  
               3  0  20  
               0  0.375  20  
               0.375  0.375  20  
               0.75  0.375  20  
               1.125  0.375  20  
               1.5  0.375  20  
               1.875  0.375  20  
               2.25  0.375  20  
               2.625  0.375  20  
               3  0.375  20  
               0  0.75  20  
               0.375  0.75  20  
               0.75  0.75  20  
               1.125  0.75  20  
               1.5  0.75  20  
               1.875  0.75  20  
               2.25  0.75  20  
               2.625  0.75  20  
               3  0.75  20  
               0  1.125  20  
               0.375  1.125  20  
               0.75  1.125  20  
               1.125  1.125  20  
               1.5  1.125  20  
               1.875  1.125  20  
               2.25  1.125  20  
               2.625  1.125  20  
               3  1.125  20  
               0  1.5  20  
               0.375  1.5  20  
               0.75  1.5  20  
               1.125  1.5  20  
               1.5  1.5  20  
               1.875  1.5  20  
               2.25  1.5  20  
               2.625  1.5  20  
               3  1.5  20  
               0  1.875  20  
               0.375  1.875  20  
               0.75  1.875  20  
               1.125  1.875  20  
               1.5  1.875  20  
               1.875  1.875  20  
               2.25  1.875  20  
               2.625  1.875  20  
               3  1.875  20  
               0  2.25  20  
               0.375  2.25  20  
               0.75  2.25  20  
               1.125  2.25  20  
               1.5  2.25  20  
               1.875  2.25  20  
               2.25  2.25  20  
               2.625  2.25  20  
               3  2.25  20  
               0  2.625  20  
               0.375  2.625  20  
               0.75  2.625  20  
               1.125  2.625  20  
               1.5  2.625  20  
               1.875  2.625  20  
               2.25  2.625  20  
               2.625  2.625  20  
               3  2.625  20  
               0  3  20  
               0.375  3  20  
               0.75  3  20  
               1.125  3  20  
               1.5  3  20  
               1.875  3  20  
               2.25  3  20  
               2.625  3  20  
               3  3  20  
            </DataArray>
         </Points> 

         <Cells>
            <DataArray type="Int32" Name="connectivity" NumberOfComponents="1" format="ascii">
               
            </DataArray> 
            <DataArray type="Int32" Name="offsets" NumberOfComponents="1" format="ascii">
               
            </DataArray>
            <DataArray type="UInt8"  Name="types" NumberOfComponents="1" format="ascii">
               
            </DataArray>
         </Cells>
         <PointData Scalars="Rank " Vectors="Displacement Velocity Traction ">
            <DataArray type="UInt32" Name="Rank" NumberOfComponents="1" format="ascii">
               0 0 0 0 0 0 0 0 0 0 0 0 0 0 0 0 0 0 0 0 0 0 0 0 0 0 0 0 0 0 0 0 0 0 0 0 0 0 0 0 0 0 0 0 0 0 0 0 0 0 0 0 0 0 0 0 0 0 0 0 0 0 0 0 0 0 0 0 0 0 0 0 0 0 0 0 0 0 0 0 0 
            </DataArray>
            <DataArray type="Float64" Name="Displacement" NumberOfComponents="3" format="ascii">
               0.00121213 0.00121307 -0.00477852  0.000497712 0.00160244 -0.00492205  0.000216814 0.00197841 -0.00463971  -4.13953e-06 0.0019884 -0.00456644  -0.00011349 0.00195751 -0.00457935  -0.000328929 0.00206677 -0.0044734  -0.000641176 0.00193387 -0.00461724  -0.000427617 0.00130887 -0.00487882  -0.000778098 0.00130872 -0.00441629  0.00160308 0.00049858 -0.00492252  0.00073388 0.000733735 -0.00482605  0.000376287 0.000925219 -0.00439268  0.000110934 0.000963476 -0.00431415  2.64203e-05 0.00100545 -0.0043335  -0.000127672 0.000972962 -0.00424769  -0.00058716 0.00103371 -0.00441456  -0.000711662 0.000744742 -0.00495202  -0.00124557 0.000777297 -0.00479942  0.00197889 0.000216832 -0.00464062  0.000925617 0.000376482 -0.00439292  0.000503473 0.000503475 -0.00370484  6.21399e-05 0.000589137 -0.00355372  -4.34941e-06 0.000595111 -0.00358803  -8.57197e-05 0.00059746 -0.00354099  -0.000647086 0.000668769 -0.00370819  -0.000989554 0.000555999 -0.00442528  -0.00187901 0.000643771 -0.00458846  0.00198832 -4.99013e-06 -0.00456669  0.000963379 0.000110504 -0.00431403  0.000589071 6.18448e-05 -0.00355338  0.000157592 0.000157248 -0.00334256  1.18775e-06 0.000131359 -0.00337036  -0.000143138 0.000180096 -0.00335231  -0.000562353 0.000144697 -0.00355229  -0.000927161 0.000170379 -0.00427051  -0.00200376 0.000212813 -0.00447585  0.00195743 -0.000114505 -0.00457957  0.00100519 2.53456e-05 -0.00433337  0.000594863 -5.2962e-06 -0.00358768  0.00013165 3.00578e-07 -0.00337038  3.45869e-05 3.37294e-05 -0.00340538  -6.62386e-05 3.49284e-05 -0.00336961  -0.000523548 6.95241e-05 -0.00358175  -0.000895168 4.04244e-05 -0.00432147  -0.00182046 0.000201095 -0.0045438  0.0020667 -0.000329348 -0.00447404  0.000972897 -0.000128636 -0.00424784  0.000597287 -8.66927e-05 -0.00354074  0.000180407 -0.000144034 -0.00335236  3.58192e-05 -6.71023e-05 -0.00336969  -0.000120622 -0.000121598 -0.00333439  -0.00055944 -7.5101e-07 -0.00354082  -0.000918676 -9.13477e-05 -0.00428963  -0.00195054 0.000192882 -0.00451285  0.00193445 -0.000641808 -0.00461766  0.00103391 -0.000587504 -0.00441439  0.000668665 -0.000647521 -0.00370768  0.000145149 -0.000563264 -0.00355208  7.05315e-05 -0.000524331 -0.00358155  1.67524e-07 -0.000560433 -0.00354056  -0.0004579 -0.000458868 -0.00370116  -0.000869143 -0.000376098 -0.00439478  -0.00191893 -0.000198067 -0.00460855  0.00131006 -0.00043021 -0.00487985  0.000745194 -0.000713126 -0.00495208  0.000556021 -0.000990625 -0.00442517  0.000171 -0.000928627 -0.00427083  4.16096e-05 -0.000896511 -0.00432166  -9.04468e-05 -0.000920243 -0.00428972  -0.000375565 -0.000870953 -0.00439519  -0.000697006 -0.000698301 -0.00483806  -0.00154697 -0.000509956 -0.00490193  0.00131019 -0.000781765 -0.00441989  0.000778311 -0.0012484 -0.00480125  0.000644049 -0.001881 -0.00458955  0.00021326 -0.0020055 -0.0044773  0.000202429 -0.00182229 -0.00454508  0.000194185 -0.0019526 -0.00451413  -0.000197772 -0.00192118 -0.00461037  -0.000510398 -0.00154895 -0.004903  -0.00121031 -0.00120977 -0.00473885  
            </DataArray>
            <DataArray type="Float64" Name="Velocity" NumberOfComponents="3" format="ascii">
               0.00226916 0.00227155 -0.00824295  0.000551403 0.0031886 -0.00822735  0.000177137 0.00396529 -0.00763159  -6.60879e-05 0.00400992 -0.00751134  -0.000187528 0.00389158 -0.00756547  -0.000396517 0.0041196 -0.00740433  -0.000955358 0.00393648 -0.00759188  -0.000736141 0.00270531 -0.00814884  -0.00182152 0.00257048 -0.00785618  0.00318529 0.000553384 -0.00822538  0.00115051 0.00115333 -0.00761549  0.00055022 0.00150654 -0.00661042  0.00010588 0.00159046 -0.00647181  2.78566e-05 0.00162407 -0.00654086  -0.000123585 0.00160224 -0.00638589  -0.000848551 0.0017085 -0.00663173  -0.00110674 0.00114491 -0.00777591  -0.00263453 0.00122316 -0.00805126  0.00396202 0.000179047 -0.00763018  0.00150449 0.000552666 -0.00661089  0.000802535 0.000804455 -0.00501221  1.79398e-05 0.000948913 -0.00475387  -2.60876e-05 0.00093185 -0.00485449  -6.12215e-05 0.000952653 -0.00473806  -0.00100732 0.0010655 -0.00500916  -0.00160576 0.000813848 -0.00664852  -0.00382473 0.000949948 -0.00755344  0.00400575 -6.34414e-05 -0.00750967  0.00158781 0.000108403 -0.00647252  0.000947257 2.06896e-05 -0.00475412  0.000171012 0.000173252 -0.00440584  4.50333e-06 0.000117433 -0.00449023  -0.00014796 0.000199429 -0.00441452  -0.00090541 0.000128379 -0.00474707  -0.00153715 0.000183333 -0.00641249  -0.0040317 0.000211801 -0.00740524  0.00388792 -0.000185077 -0.0075636  0.0016213 3.00894e-05 -0.0065414  0.000929928 -2.36345e-05 -0.00485444  0.000115107 6.90196e-06 -0.0044899  5.14864e-05 5.38879e-05 -0.00457721  -1.4877e-05 4.56349e-05 -0.00448748  -0.000815818 0.000111909 -0.00484671  -0.001449 5.35314e-05 -0.00652337  -0.00368135 0.000322925 -0.00751612  0.00411576 -0.000394391 -0.00740279  0.00159945 -0.000121473 -0.00638653  0.000950632 -5.94007e-05 -0.00473787  0.000196936 -0.000146092 -0.00441383  4.31407e-05 -1.29413e-05 -0.00448717  -0.000124774 -0.000122988 -0.00439365  -0.000910677 9.65526e-05 -0.00473847  -0.00152769 -8.76225e-05 -0.00644359  -0.00395483 0.000368035 -0.00744394  0.00393288 -0.000953182 -0.00759043  0.00170529 -0.000846308 -0.00663228  0.00106283 -0.00100539 -0.00500931  0.000125947 -0.000904639 -0.00474695  0.000109402 -0.000814856 -0.00484677  9.41696e-05 -0.0009099 -0.00473885  -0.000718455 -0.000717139 -0.0050043  -0.00142889 -0.000548121 -0.00661577  -0.00389206 -0.000149104 -0.00759655  0.00270286 -0.00073488 -0.00814886  0.00114234 -0.00110529 -0.00777683  0.000811004 -0.00160336 -0.00664909  0.000180543 -0.00153592 -0.00641336  5.0896e-05 -0.00144775 -0.00652419  -9.02306e-05 -0.00152652 -0.00644464  -0.000549965 -0.00142728 -0.00661662  -0.00110223 -0.00109978 -0.00763366  -0.0031186 -0.000577432 -0.00820579  0.00256868 -0.00182083 -0.0078569  0.00122086 -0.00263405 -0.0080519  0.000947127 -0.00382241 -0.00755252  0.000209349 -0.0040293 -0.00740445  0.000320126 -0.00367946 -0.00751504  0.000364289 -0.0039527 -0.00744309  -0.000151394 -0.00388906 -0.00759544  -0.000578633 -0.00311484 -0.00820367  -0.002273 -0.00227109 -0.00819541  
            </DataArray>
            <DataArray type="Float64" Name="Traction" NumberOfComponents="3" format="ascii">
               0 0 0  0 0 0  0 0 0  0 0 0  0 0 0  0 0 0  0 0 0  0 0 0  0 0 0  0 0 0  0 0 0  0 0 0  0 0 0  0 0 0  0 0 0  0 0 0  0 0 0  0 0 0  0 0 0  0 0 0  0 0 0  0 0 0  0 0 0  0 0 0  0 0 0  0 0 0  0 0 0  0 0 0  0 0 0  0 0 0  0 0 0  0 0 0  0 0 0  0 0 0  0 0 0  0 0 0  0 0 0  0 0 0  0 0 0  0 0 0  0 0 0  0 0 0  0 0 0  0 0 0  0 0 0  0 0 0  0 0 0  0 0 0  0 0 0  0 0 0  0 0 0  0 0 0  0 0 0  0 0 0  0 0 0  0 0 0  0 0 0  0 0 0  0 0 0  0 0 0  0 0 0  0 0 0  0 0 0  0 0 0  0 0 0  0 0 0  0 0 0  0 0 0  0 0 0  0 0 0  0 0 0  0 0 0  0 0 0  0 0 0  0 0 0  0 0 0  0 0 0  0 0 0  0 0 0  0 0 0  0 0 0  
            </DataArray>
         </PointData> 
      </Piece>
   </UnstructuredGrid> 
</VTKFile>
