<?xml version="1.0"?>
<VTKFile type="UnstructuredGrid" version="0.1" byte_order="LittleEndian">
   <UnstructuredGrid>
      <Piece NumberOfPoints="81" NumberOfCells="0" > 
         <Points> 
            <DataArray type="Float64" Name="Position" NumberOfComponents="3" format="ascii"> 
               0  0  20  
               0.375  0  20  
               0.75  0  20  
               1.125  0  20  
               1.5  0  20  
               1.875  0  20  
               2.25  0  20  
               2.625  0  20  
               3  0  20  
               0  0.375  20  
               0.375  0.375  20  
               0.75  0.375  20  
               1.125  0.375  20  
               1.5  0.375  20  
               1.875  0.375  20  
               2.25  0.375  20  
               2.625  0.375  20  
               3  0.375  20  
               0  0.75  20  
               0.375  0.75  20  
               0.75  0.75  20  
               1.125  0.75  20  
               1.5  0.75  20  
               1.875  0.75  20  
               2.25  0.75  20  
               2.625  0.75  20  
               3  0.75  20  
               0  1.125  20  
               0.375  1.125  20  
               0.75  1.125  20  
               1.125  1.125  20  
               1.5  1.125  20  
               1.875  1.125  20  
               2.25  1.125  20  
               2.625  1.125  20  
               3  1.125  20  
               0  1.5  20  
               0.375  1.5  20  
               0.75  1.5  20  
               1.125  1.5  20  
               1.5  1.5  20  
               1.875  1.5  20  
               2.25  1.5  20  
               2.625  1.5  20  
               3  1.5  20  
               0  1.875  20  
               0.375  1.875  20  
               0.75  1.875  20  
               1.125  1.875  20  
               1.5  1.875  20  
               1.875  1.875  20  
               2.25  1.875  20  
               2.625  1.875  20  
               3  1.875  20  
               0  2.25  20  
               0.375  2.25  20  
               0.75  2.25  20  
               1.125  2.25  20  
               1.5  2.25  20  
               1.875  2.25  20  
               2.25  2.25  20  
               2.625  2.25  20  
               3  2.25  20  
               0  2.625  20  
               0.375  2.625  20  
               0.75  2.625  20  
               1.125  2.625  20  
               1.5  2.625  20  
               1.875  2.625  20  
               2.25  2.625  20  
               2.625  2.625  20  
               3  2.625  20  
               0  3  20  
               0.375  3  20  
               0.75  3  20  
               1.125  3  20  
               1.5  3  20  
               1.875  3  20  
               2.25  3  20  
               2.625  3  20  
               3  3  20  
            </DataArray>
         </Points> 

         <Cells>
            <DataArray type="Int32" Name="connectivity" NumberOfComponents="1" format="ascii">
               
            </DataArray> 
            <DataArray type="Int32" Name="offsets" NumberOfComponents="1" format="ascii">
               
            </DataArray>
            <DataArray type="UInt8"  Name="types" NumberOfComponents="1" format="ascii">
               
            </DataArray>
         </Cells>
         <PointData Scalars="Rank " Vectors="Displacement Velocity Traction ">
            <DataArray type="UInt32" Name="Rank" NumberOfComponents="1" format="ascii">
               0 0 0 0 0 0 0 0 0 0 0 0 0 0 0 0 0 0 0 0 0 0 0 0 0 0 0 0 0 0 0 0 0 0 0 0 0 0 0 0 0 0 0 0 0 0 0 0 0 0 0 0 0 0 0 0 0 0 0 0 0 0 0 0 0 0 0 0 0 0 0 0 0 0 0 0 0 0 0 0 0 
            </DataArray>
            <DataArray type="Float64" Name="Displacement" NumberOfComponents="3" format="ascii">
               0.000357555 0.00035705 -0.00147994  0.000196695 0.00044795 -0.00155778  9.65908e-05 0.000551297 -0.00148322  6.49511e-06 0.000549644 -0.0014595  -3.65175e-05 0.000548243 -0.00145917  -0.000125281 0.000576627 -0.00142337  -0.000220091 0.000529912 -0.00147617  -0.000131549 0.000354845 -0.00154588  -0.00018198 0.000368883 -0.00133703  0.000448566 0.000196287 -0.00155813  0.000243542 0.000243057 -0.00158419  0.000133251 0.000300587 -0.0014795  4.55934e-05 0.000309875 -0.00145603  1.08083e-05 0.00032854 -0.00145753  -5.19896e-05 0.000313145 -0.00143144  -0.000206694 0.000330569 -0.00148846  -0.000237145 0.000250002 -0.00163043  -0.000329847 0.000255554 -0.00151567  0.00055175 9.6142e-05 -0.00148336  0.000300849 0.000132739 -0.00147934  0.000169362 0.000168991 -0.00131337  3.05743e-05 0.000196144 -0.00126685  1.44895e-06 0.000201786 -0.00127234  -3.71915e-05 0.000200245 -0.00126187  -0.000218507 0.000222534 -0.00131598  -0.000320086 0.000194557 -0.00149198  -0.000514497 0.00022236 -0.00146545  0.000550151 5.91139e-06 -0.00145967  0.000310183 4.49669e-05 -0.00145584  0.000196438 2.99455e-05 -0.0012668  6.2058e-05 6.1528e-05 -0.00119974  3.80377e-07 5.48755e-05 -0.00120379  -5.68191e-05 7.01886e-05 -0.00120349  -0.000187461 6.02004e-05 -0.00126688  -0.000296712 6.70792e-05 -0.0014403  -0.00055347 8.75618e-05 -0.00142402  0.000548692 -3.71573e-05 -0.00145934  0.000328861 1.01372e-05 -0.00145733  0.000202118 7.25519e-07 -0.00127231  5.5417e-05 -3.44692e-07 -0.00120382  1.19933e-05 1.12509e-05 -0.00121148  -3.30323e-05 1.29235e-05 -0.0012037  -0.000178424 2.27135e-05 -0.00127007  -0.000292122 1.44082e-05 -0.00145347  -0.000501851 6.58867e-05 -0.00144611  0.000577105 -0.000126026 -0.00142352  0.000313473 -5.28151e-05 -0.00143125  0.000200579 -3.80213e-05 -0.00126189  7.07613e-05 -5.76546e-05 -0.0012036  1.36563e-05 -3.393e-05 -0.00120376  -4.79419e-05 -4.87668e-05 -0.00119694  -0.000185027 -1.23693e-05 -0.00126211  -0.000293747 -3.74159e-05 -0.0014468  -0.000535957 5.50191e-05 -0.00143949  0.000530386 -0.000220954 -0.00147635  0.00033108 -0.000207524 -0.00148833  0.000223085 -0.000219365 -0.00131597  6.07887e-05 -0.000188214 -0.00126691  2.34845e-05 -0.000179225 -0.00127012  -1.14117e-05 -0.000185764 -0.00126208  -0.00015566 -0.000156456 -0.00131274  -0.000280595 -0.000133313 -0.00148014  -0.000528788 -9.02167e-05 -0.0014712  0.000355174 -0.000132594 -0.00154575  0.000250447 -0.000238025 -0.00163021  0.000195216 -0.000321178 -0.00149188  6.77649e-05 -0.000297722 -0.00144016  1.51815e-05 -0.00029315 -0.00145338  -3.65018e-05 -0.000294759 -0.00144665  -0.000132422 -0.000281521 -0.00148  -0.000229948 -0.000231035 -0.00158839  -0.000427284 -0.00019991 -0.00154985  0.000368962 -0.000183158 -0.00133719  0.00025586 -0.000330773 -0.0015159  0.000223061 -0.000515785 -0.00146601  8.82737e-05 -0.000554864 -0.00142458  6.67698e-05 -0.000503166 -0.00144677  5.61828e-05 -0.000537392 -0.00144007  -8.93723e-05 -0.00053015 -0.00147171  -0.000199185 -0.000428602 -0.00155054  -0.000354994 -0.000355908 -0.00146481  
            </DataArray>
            <DataArray type="Float64" Name="Velocity" NumberOfComponents="3" format="ascii">
               0.000407211 0.000407241 -0.00169582  0.000206395 0.00051961 -0.00177266  9.95133e-05 0.000641926 -0.00168573  5.35732e-06 0.000641385 -0.00166238  -3.92871e-05 0.000636026 -0.00166409  -0.000131843 0.000672452 -0.00162468  -0.000239956 0.000622136 -0.00167954  -0.000145792 0.000415438 -0.00175832  -0.000221744 0.000424493 -0.00154163  0.000521779 0.000206542 -0.00177405  0.000268164 0.000266797 -0.00178415  0.000144967 0.000331107 -0.00165625  4.77023e-05 0.000342385 -0.0016313  1.13917e-05 0.000360452 -0.00163514  -5.44683e-05 0.000346269 -0.00160501  -0.000225143 0.00036834 -0.00166635  -0.000260132 0.000273273 -0.0018337  -0.000389339 0.000280267 -0.00172658  0.000643887 9.87802e-05 -0.00168745  0.00033243 0.000144192 -0.00165639  0.000185865 0.000185107 -0.00145378  3.06763e-05 0.000214637 -0.00140356  1.1009e-06 0.000219366 -0.00141213  -3.78507e-05 0.000218484 -0.00139859  -0.000240711 0.000245768 -0.00145665  -0.000356708 0.000211694 -0.00166986  -0.000605713 0.000241578 -0.00166901  0.000643138 3.38086e-06 -0.00166349  0.000343418 4.62522e-05 -0.00163096  0.000215184 2.92822e-05 -0.00140308  6.47146e-05 6.3512e-05 -0.00133101  3.21268e-07 5.61176e-05 -0.00133749  -5.96826e-05 7.30759e-05 -0.0013354  -0.000205208 6.21008e-05 -0.00140383  -0.000329095 7.00706e-05 -0.00161428  -0.000648342 8.9087e-05 -0.001626  0.000637556 -4.1356e-05 -0.00166525  0.000361368 9.40818e-06 -0.00163486  0.000219832 -8.15869e-07 -0.00141176  5.72992e-05 -1.47294e-06 -0.00133766  1.34586e-05 1.16979e-05 -0.00134724  -3.27989e-05 1.31635e-05 -0.00133735  -0.000193868 2.44388e-05 -0.0014095  -0.000320707 1.53807e-05 -0.00163044  -0.000585737 7.16906e-05 -0.00165031  0.000674005 -0.000133038 -0.00162613  0.000347368 -5.62054e-05 -0.001605  0.000219051 -3.94364e-05 -0.00139838  7.43349e-05 -6.11709e-05 -0.00133573  1.50179e-05 -3.42616e-05 -0.00133756  -4.96197e-05 -5.11918e-05 -0.00132786  -0.000203035 -1.09863e-05 -0.00139805  -0.000325316 -3.93846e-05 -0.00162077  -0.000627204 6.29898e-05 -0.00164083  0.000624337 -0.000241333 -0.00168072  0.000369897 -0.000226195 -0.00166598  0.000246679 -0.000241676 -0.001456  6.35045e-05 -0.000206226 -0.00140362  2.64424e-05 -0.000194815 -0.00140921  -9.20583e-06 -0.000204171 -0.00139758  -0.000170202 -0.000171579 -0.00145288  -0.000309197 -0.000145302 -0.00165658  -0.000617591 -9.25201e-05 -0.00167263  0.000417876 -0.000148913 -0.00175964  0.000274878 -0.000262071 -0.00183349  0.000212845 -0.000358506 -0.00166953  7.18455e-05 -0.000330859 -0.00161433  1.76664e-05 -0.000322356 -0.00163034  -3.74826e-05 -0.000327186 -0.00162047  -0.000144152 -0.000311566 -0.00165673  -0.000252554 -0.000254728 -0.00178842  -0.000497236 -0.00020992 -0.00176399  0.000427094 -0.000225794 -0.00154547  0.000282438 -0.000392413 -0.00172833  0.000242976 -0.000608444 -0.00167049  9.05284e-05 -0.000650791 -0.00162781  7.4205e-05 -0.000588134 -0.00165204  6.57709e-05 -0.000629944 -0.00164248  -9.1427e-05 -0.00062093 -0.00167501  -0.000210118 -0.000500658 -0.00176595  -0.00040562 -0.000405573 -0.00167943  
            </DataArray>
            <DataArray type="Float64" Name="Traction" NumberOfComponents="3" format="ascii">
               -0.00214358 -0.00214281 -0.0215573  -0.00189353 -0.00383246 -0.0215573  -0.0012322 -0.00517305 -0.0215573  -0.000103859 -0.00501308 -0.0215573  -0.000432812 -0.00497137 -0.0215573  0.00133543 -0.00518298 -0.0215573  0.00432331 -0.00453449 -0.0215573  0.000489485 -0.00159951 -0.0215573  -0.00174567 -0.000664419 -0.0215573  -0.00383564 -0.00189996 -0.0215573  -0.00284024 -0.00284396 -0.0215573  -0.00164202 -0.00395622 -0.0215573  -0.000514802 -0.00414961 -0.0215573  -0.000814184 -0.00430708 -0.0215573  0.000603583 -0.00397647 -0.0215573  0.00479647 -0.00414101 -0.0215573  0.00249954 -0.00266943 -0.0215573  0.000970439 -0.00172267 -0.0215573  -0.00517627 -0.00123956 -0.0215573  -0.00395213 -0.00164818 -0.0215573  -0.0024131 -0.00241925 -0.0215573  -0.000431445 -0.00299787 -0.0215573  -0.000444812 -0.00307381 -0.0215573  0.000516227 -0.00283722 -0.0215573  0.00501011 -0.00294236 -0.0215573  0.00405082 -0.00268972 -0.0215573  0.00422697 -0.002824 -0.0215573  -0.00501872 -0.000111231 -0.0215573  -0.00414743 -0.000521125 -0.0215573  -0.00299188 -0.000436317 -0.0215573  -0.000867278 -0.000872259 -0.0215573  -0.000298149 -0.000754768 -0.0215573  0.000865892 -0.000887417 -0.0215573  0.00460937 -0.000692612 -0.0215573  0.00387613 -0.000709838 -0.0215573  0.0048922 -0.000790381 -0.0215573  -0.00497663 -0.000441478 -0.0215573  -0.00430507 -0.000821673 -0.0215573  -0.00306825 -0.000449871 -0.0215573  -0.000749969 -0.000301884 -0.0215573  -0.000519367 -0.000523163 -0.0215573  0.000618805 -0.000501414 -0.0215573  0.00466278 -0.000535598 -0.0215573  0.00397689 -0.000318453 -0.0215573  0.00445847 -0.000839555 -0.0215573  -0.00518775 0.00132731 -0.0215573  -0.00397354 0.000596349 -0.0215573  -0.00283062 0.000509141 -0.0215573  -0.000882334 0.000859321 -0.0215573  -0.000497011 0.000613315 -0.0215573  0.000798924 0.00079206 -0.0215573  0.0047627 0.000325544 -0.0215573  0.00400106 0.00053721 -0.0215573  0.00483362 -0.000469705 -0.0215573  -0.00453686 0.00430941 -0.0215573  -0.00413899 0.00478346 -0.0215573  -0.00293764 0.00499606 -0.0215573  -0.000686243 0.00459306 -0.0215573  -0.00053038 0.00464759 -0.0215573  0.000332067 0.00474645 -0.0215573  0.00420112 0.00418455 -0.0215573  0.00377357 0.00318582 -0.0215573  0.0048281 0.00251688 -0.0215573  -0.00159371 0.000483199 -0.0215573  -0.0026626 0.00249151 -0.0215573  -0.00268527 0.00404516 -0.0215573  -0.000702922 0.00386972 -0.0215573  -0.000311529 0.00397155 -0.0215573  0.000545209 0.00399479 -0.0215573  0.00320198 0.00376464 -0.0215573  0.00274806 0.0027409 -0.0215573  0.00349664 0.00200305 -0.0215573  -0.000652934 -0.0017448 -0.0215573  -0.00171067 0.000968226 -0.0215573  -0.00281806 0.00423056 -0.0215573  -0.000782122 0.00489838 -0.0215573  -0.00083297 0.00446487 -0.0215573  -0.000464635 0.00484026 -0.0215573  0.00253395 0.00483158 -0.0215573  0.00201397 0.00349995 -0.0215573  0.00208074 0.00208007 -0.0215573  
            </DataArray>
         </PointData> 
      </Piece>
   </UnstructuredGrid> 
</VTKFile>
