<?xml version="1.0"?>
<VTKFile type="UnstructuredGrid" version="0.1" byte_order="LittleEndian">
   <UnstructuredGrid>
      <Piece NumberOfPoints="81" NumberOfCells="0" > 
         <Points> 
            <DataArray type="Float64" Name="Position" NumberOfComponents="3" format="ascii"> 
               0  0  20  
               0.375  0  20  
               0.75  0  20  
               1.125  0  20  
               1.5  0  20  
               1.875  0  20  
               2.25  0  20  
               2.625  0  20  
               3  0  20  
               0  0.375  20  
               0.375  0.375  20  
               0.75  0.375  20  
               1.125  0.375  20  
               1.5  0.375  20  
               1.875  0.375  20  
               2.25  0.375  20  
               2.625  0.375  20  
               3  0.375  20  
               0  0.75  20  
               0.375  0.75  20  
               0.75  0.75  20  
               1.125  0.75  20  
               1.5  0.75  20  
               1.875  0.75  20  
               2.25  0.75  20  
               2.625  0.75  20  
               3  0.75  20  
               0  1.125  20  
               0.375  1.125  20  
               0.75  1.125  20  
               1.125  1.125  20  
               1.5  1.125  20  
               1.875  1.125  20  
               2.25  1.125  20  
               2.625  1.125  20  
               3  1.125  20  
               0  1.5  20  
               0.375  1.5  20  
               0.75  1.5  20  
               1.125  1.5  20  
               1.5  1.5  20  
               1.875  1.5  20  
               2.25  1.5  20  
               2.625  1.5  20  
               3  1.5  20  
               0  1.875  20  
               0.375  1.875  20  
               0.75  1.875  20  
               1.125  1.875  20  
               1.5  1.875  20  
               1.875  1.875  20  
               2.25  1.875  20  
               2.625  1.875  20  
               3  1.875  20  
               0  2.25  20  
               0.375  2.25  20  
               0.75  2.25  20  
               1.125  2.25  20  
               1.5  2.25  20  
               1.875  2.25  20  
               2.25  2.25  20  
               2.625  2.25  20  
               3  2.25  20  
               0  2.625  20  
               0.375  2.625  20  
               0.75  2.625  20  
               1.125  2.625  20  
               1.5  2.625  20  
               1.875  2.625  20  
               2.25  2.625  20  
               2.625  2.625  20  
               3  2.625  20  
               0  3  20  
               0.375  3  20  
               0.75  3  20  
               1.125  3  20  
               1.5  3  20  
               1.875  3  20  
               2.25  3  20  
               2.625  3  20  
               3  3  20  
            </DataArray>
         </Points> 

         <Cells>
            <DataArray type="Int32" Name="connectivity" NumberOfComponents="1" format="ascii">
               
            </DataArray> 
            <DataArray type="Int32" Name="offsets" NumberOfComponents="1" format="ascii">
               
            </DataArray>
            <DataArray type="UInt8"  Name="types" NumberOfComponents="1" format="ascii">
               
            </DataArray>
         </Cells>
         <PointData Scalars="Rank " Vectors="Displacement Velocity Traction ">
            <DataArray type="UInt32" Name="Rank" NumberOfComponents="1" format="ascii">
               0 0 0 0 0 0 0 0 0 0 0 0 0 0 0 0 0 0 0 0 0 0 0 0 0 0 0 0 0 0 0 0 0 0 0 0 0 0 0 0 0 0 0 0 0 0 0 0 0 0 0 0 0 0 0 0 0 0 0 0 0 0 0 0 0 0 0 0 0 0 0 0 0 0 0 0 0 0 0 0 0 
            </DataArray>
            <DataArray type="Float64" Name="Displacement" NumberOfComponents="3" format="ascii">
               7.26341e-06 7.27128e-06 -2.59724e-05  2.66286e-06 9.65972e-06 -2.66231e-05  8.0041e-07 1.16633e-05 -2.48206e-05  -9.27817e-08 1.18274e-05 -2.40761e-05  -7.27752e-07 1.18165e-05 -2.40128e-05  -1.92147e-06 1.22282e-05 -2.35008e-05  -3.73129e-06 1.13299e-05 -2.44946e-05  -2.95449e-06 7.87904e-06 -2.6373e-05  -5.14161e-06 8.21273e-06 -2.42606e-05  9.6338e-06 2.66659e-06 -2.66047e-05  4.37026e-06 4.38771e-06 -2.57859e-05  1.85914e-06 5.65113e-06 -2.32582e-05  5.71505e-07 5.91466e-06 -2.25886e-05  1.34035e-07 6.23196e-06 -2.25422e-05  -6.94475e-07 5.97431e-06 -2.21897e-05  -3.13443e-06 6.17594e-06 -2.3305e-05  -4.30297e-06 4.50642e-06 -2.65386e-05  -7.53956e-06 4.95571e-06 -2.58919e-05  1.16374e-05 8.07471e-07 -2.48011e-05  5.63596e-06 1.87028e-06 -2.32569e-05  2.7402e-06 2.75031e-06 -1.91384e-05  3.4551e-07 3.34506e-06 -1.79867e-05  -4.55252e-08 3.422e-06 -1.80038e-05  -5.30217e-07 3.41422e-06 -1.78718e-05  -3.53115e-06 3.68908e-06 -1.9114e-05  -5.8456e-06 2.99027e-06 -2.33713e-05  -1.09331e-05 3.77341e-06 -2.42976e-05  1.17989e-05 -7.73131e-08 -2.40583e-05  5.89736e-06 5.85309e-07 -2.25898e-05  3.33545e-06 3.61054e-07 -1.79884e-05  9.37339e-07 9.51095e-07 -1.64285e-05  2.25337e-08 7.87361e-07 -1.64299e-05  -8.22599e-07 1.05625e-06 -1.6441e-05  -3.21163e-06 8.75079e-07 -1.79256e-05  -5.69515e-06 9.62893e-07 -2.23161e-05  -1.18338e-05 1.33134e-06 -2.3487e-05  1.17898e-05 -7.14176e-07 -2.39932e-05  6.21486e-06 1.48196e-07 -2.2543e-05  3.41097e-06 -3.02007e-08 -1.80046e-05  7.70931e-07 3.6708e-08 -1.64292e-05  1.98688e-07 2.1557e-07 -1.65136e-05  -3.72438e-07 2.03146e-07 -1.64231e-05  -2.9866e-06 4.47892e-07 -1.79836e-05  -5.5745e-06 2.36845e-07 -2.2488e-05  -1.09942e-05 1.23237e-06 -2.37857e-05  1.21983e-05 -1.90926e-06 -2.34801e-05  5.95404e-06 -6.81124e-07 -2.21897e-05  3.40169e-06 -5.16888e-07 -1.78717e-05  1.03908e-06 -8.10553e-07 -1.6439e-05  1.86282e-07 -3.56343e-07 -1.64225e-05  -7.32571e-07 -7.18163e-07 -1.639e-05  -3.18706e-06 8.72557e-08 -1.79416e-05  -5.649e-06 -4.5371e-07 -2.24934e-05  -1.15737e-05 1.14878e-06 -2.37774e-05  1.13027e-05 -3.71727e-06 -2.44765e-05  6.15567e-06 -3.12623e-06 -2.33058e-05  3.67535e-06 -3.52392e-06 -1.91161e-05  8.57185e-07 -3.20772e-06 -1.79262e-05  4.29908e-07 -2.97932e-06 -1.79846e-05  6.94842e-08 -3.17916e-06 -1.79433e-05  -2.46358e-06 -2.45392e-06 -1.91186e-05  -5.3708e-06 -1.83668e-06 -2.32917e-05  -1.13756e-05 -7.0305e-07 -2.46714e-05  7.84921e-06 -2.93392e-06 -2.63553e-05  4.4851e-06 -4.29157e-06 -2.65383e-05  2.97511e-06 -5.8327e-06 -2.33724e-05  9.43595e-07 -5.68564e-06 -2.23178e-05  2.19414e-07 -5.56508e-06 -2.24907e-05  -4.70471e-07 -5.63734e-06 -2.24959e-05  -1.84833e-06 -5.3595e-06 -2.32926e-05  -4.18682e-06 -4.17138e-06 -2.58732e-05  -9.36736e-06 -2.74943e-06 -2.65373e-05  8.18174e-06 -5.11354e-06 -2.42257e-05  4.92953e-06 -7.52394e-06 -2.58779e-05  3.75328e-06 -1.09152e-05 -2.42823e-05  1.31353e-06 -1.18148e-05 -2.34703e-05  1.21353e-06 -1.09762e-05 -2.37693e-05  1.12807e-06 -1.15516e-05 -2.37608e-05  -7.11319e-07 -1.13531e-05 -2.46546e-05  -2.75013e-06 -9.34251e-06 -2.65196e-05  -7.25204e-06 -7.2458e-06 -2.57767e-05  
            </DataArray>
            <DataArray type="Float64" Name="Velocity" NumberOfComponents="3" format="ascii">
               1.0444e-05 1.03586e-05 -3.80742e-05  4.5306e-06 1.3397e-05 -3.93935e-05  1.66368e-06 1.61244e-05 -3.69142e-05  4.08782e-09 1.63153e-05 -3.58146e-05  -1.0614e-06 1.62784e-05 -3.5713e-05  -3.07847e-06 1.69133e-05 -3.48853e-05  -5.6665e-06 1.55298e-05 -3.64512e-05  -4.20655e-06 1.07752e-05 -3.90647e-05  -6.64648e-06 1.1462e-05 -3.50941e-05  1.34293e-05 4.45337e-06 -3.94007e-05  6.6387e-06 6.59661e-06 -3.89159e-05  2.99241e-06 8.39635e-06 -3.56298e-05  1.05464e-06 8.7578e-06 -3.46657e-05  2.93905e-07 9.23143e-06 -3.46187e-05  -1.12117e-06 8.83417e-06 -3.40373e-05  -4.80512e-06 9.08559e-06 -3.57102e-05  -6.41649e-06 6.78256e-06 -4.01077e-05  -1.01402e-05 7.35653e-06 -3.82543e-05  1.61508e-05 1.60659e-06 -3.68887e-05  8.42486e-06 2.93465e-06 -3.56103e-05  4.19198e-06 4.14035e-06 -3.0255e-05  6.68117e-07 5.04521e-06 -2.85683e-05  6.76658e-09 5.16277e-06 -2.85826e-05  -8.73473e-07 5.15315e-06 -2.84013e-05  -5.28607e-06 5.50383e-06 -3.02247e-05  -8.61015e-06 4.63411e-06 -3.58399e-05  -1.49173e-05 5.76809e-06 -3.6137e-05  1.63473e-05 -3.49034e-08 -3.58083e-05  8.7969e-06 1.00516e-06 -3.46616e-05  5.10019e-06 6.16477e-07 -2.85816e-05  1.59678e-06 1.54439e-06 -2.62901e-05  1.02052e-07 1.24635e-06 -2.63189e-05  -1.31032e-06 1.70851e-06 -2.63272e-05  -4.77568e-06 1.38579e-06 -2.8481e-05  -8.34671e-06 1.56865e-06 -3.42369e-05  -1.62246e-05 2.16328e-06 -3.48663e-05  1.63094e-05 -1.09882e-06 -3.57063e-05  9.26962e-06 2.5631e-07 -3.46146e-05  5.21825e-06 -3.56921e-08 -2.85953e-05  1.30009e-06 6.02041e-08 -2.6317e-05  3.29343e-07 2.86622e-07 -2.65083e-05  -6.57249e-07 3.23056e-07 -2.63112e-05  -4.50623e-06 6.27662e-07 -2.85653e-05  -8.23989e-06 3.27559e-07 -3.45045e-05  -1.50207e-05 1.84595e-06 -3.53654e-05  1.6952e-05 -3.14212e-06 -3.48699e-05  8.8734e-06 -1.17293e-06 -3.40236e-05  5.20793e-06 -9.38129e-07 -2.84076e-05  1.76147e-06 -1.37303e-06 -2.63189e-05  3.63209e-07 -7.20418e-07 -2.63052e-05  -1.15898e-06 -1.21906e-06 -2.62256e-05  -4.74462e-06 -3.32914e-08 -2.85034e-05  -8.30482e-06 -8.30026e-07 -3.45026e-05  -1.59062e-05 1.60816e-06 -3.53467e-05  1.55465e-05 -5.73341e-06 -3.64481e-05  9.11459e-06 -4.87089e-06 -3.5711e-05  5.55307e-06 -5.36528e-06 -3.02455e-05  1.43289e-06 -4.85393e-06 -2.84917e-05  6.63464e-07 -4.5816e-06 -2.85769e-05  1.7062e-08 -4.82119e-06 -2.85187e-05  -3.68949e-06 -3.7531e-06 -3.02218e-05  -7.91464e-06 -2.93591e-06 -3.56834e-05  -1.56169e-05 -1.49141e-06 -3.66836e-05  1.07794e-05 -4.23716e-06 -3.90418e-05  6.80615e-06 -6.46339e-06 -4.00929e-05  4.67597e-06 -8.66916e-06 -3.58388e-05  1.60174e-06 -8.41086e-06 -3.42265e-05  3.55442e-07 -8.29929e-06 -3.44977e-05  -7.89811e-07 -8.36801e-06 -3.44997e-05  -2.87337e-06 -7.95793e-06 -3.56675e-05  -6.25915e-06 -6.30269e-06 -3.90427e-05  -1.29128e-05 -4.62096e-06 -3.92445e-05  1.14655e-05 -6.66274e-06 -3.50538e-05  7.36724e-06 -1.01739e-05 -3.82369e-05  5.80903e-06 -1.49672e-05 -3.61415e-05  2.20646e-06 -1.62928e-05 -3.48602e-05  1.87171e-06 -1.50752e-05 -3.53557e-05  1.64504e-06 -1.59555e-05 -3.53374e-05  -1.42571e-06 -1.56507e-05 -3.665e-05  -4.52615e-06 -1.29278e-05 -3.92346e-05  -1.02881e-05 -1.03882e-05 -3.77271e-05  
            </DataArray>
            <DataArray type="Float64" Name="Traction" NumberOfComponents="3" format="ascii">
               0 0 0  0 0 0  0 0 0  0 0 0  0 0 0  0 0 0  0 0 0  0 0 0  0 0 0  0 0 0  0 0 0  0 0 0  0 0 0  0 0 0  0 0 0  0 0 0  0 0 0  0 0 0  0 0 0  0 0 0  0 0 0  0 0 0  0 0 0  0 0 0  0 0 0  0 0 0  0 0 0  0 0 0  0 0 0  0 0 0  0 0 0  0 0 0  0 0 0  0 0 0  0 0 0  0 0 0  0 0 0  0 0 0  0 0 0  0 0 0  0 0 0  0 0 0  0 0 0  0 0 0  0 0 0  0 0 0  0 0 0  0 0 0  0 0 0  0 0 0  0 0 0  0 0 0  0 0 0  0 0 0  0 0 0  0 0 0  0 0 0  0 0 0  0 0 0  0 0 0  0 0 0  0 0 0  0 0 0  0 0 0  0 0 0  0 0 0  0 0 0  0 0 0  0 0 0  0 0 0  0 0 0  0 0 0  0 0 0  0 0 0  0 0 0  0 0 0  0 0 0  0 0 0  0 0 0  0 0 0  0 0 0  
            </DataArray>
         </PointData> 
      </Piece>
   </UnstructuredGrid> 
</VTKFile>
