<?xml version="1.0"?>
<VTKFile type="UnstructuredGrid" version="0.1" byte_order="LittleEndian">
   <UnstructuredGrid>
      <Piece NumberOfPoints="81" NumberOfCells="0" > 
         <Points> 
            <DataArray type="Float64" Name="Position" NumberOfComponents="3" format="ascii"> 
               0  0  20  
               0.375  0  20  
               0.75  0  20  
               1.125  0  20  
               1.5  0  20  
               1.875  0  20  
               2.25  0  20  
               2.625  0  20  
               3  0  20  
               0  0.375  20  
               0.375  0.375  20  
               0.75  0.375  20  
               1.125  0.375  20  
               1.5  0.375  20  
               1.875  0.375  20  
               2.25  0.375  20  
               2.625  0.375  20  
               3  0.375  20  
               0  0.75  20  
               0.375  0.75  20  
               0.75  0.75  20  
               1.125  0.75  20  
               1.5  0.75  20  
               1.875  0.75  20  
               2.25  0.75  20  
               2.625  0.75  20  
               3  0.75  20  
               0  1.125  20  
               0.375  1.125  20  
               0.75  1.125  20  
               1.125  1.125  20  
               1.5  1.125  20  
               1.875  1.125  20  
               2.25  1.125  20  
               2.625  1.125  20  
               3  1.125  20  
               0  1.5  20  
               0.375  1.5  20  
               0.75  1.5  20  
               1.125  1.5  20  
               1.5  1.5  20  
               1.875  1.5  20  
               2.25  1.5  20  
               2.625  1.5  20  
               3  1.5  20  
               0  1.875  20  
               0.375  1.875  20  
               0.75  1.875  20  
               1.125  1.875  20  
               1.5  1.875  20  
               1.875  1.875  20  
               2.25  1.875  20  
               2.625  1.875  20  
               3  1.875  20  
               0  2.25  20  
               0.375  2.25  20  
               0.75  2.25  20  
               1.125  2.25  20  
               1.5  2.25  20  
               1.875  2.25  20  
               2.25  2.25  20  
               2.625  2.25  20  
               3  2.25  20  
               0  2.625  20  
               0.375  2.625  20  
               0.75  2.625  20  
               1.125  2.625  20  
               1.5  2.625  20  
               1.875  2.625  20  
               2.25  2.625  20  
               2.625  2.625  20  
               3  2.625  20  
               0  3  20  
               0.375  3  20  
               0.75  3  20  
               1.125  3  20  
               1.5  3  20  
               1.875  3  20  
               2.25  3  20  
               2.625  3  20  
               3  3  20  
            </DataArray>
         </Points> 

         <Cells>
            <DataArray type="Int32" Name="connectivity" NumberOfComponents="1" format="ascii">
               
            </DataArray> 
            <DataArray type="Int32" Name="offsets" NumberOfComponents="1" format="ascii">
               
            </DataArray>
            <DataArray type="UInt8"  Name="types" NumberOfComponents="1" format="ascii">
               
            </DataArray>
         </Cells>
         <PointData Scalars="Rank " Vectors="Displacement Velocity Traction ">
            <DataArray type="UInt32" Name="Rank" NumberOfComponents="1" format="ascii">
               0 0 0 0 0 0 0 0 0 0 0 0 0 0 0 0 0 0 0 0 0 0 0 0 0 0 0 0 0 0 0 0 0 0 0 0 0 0 0 0 0 0 0 0 0 0 0 0 0 0 0 0 0 0 0 0 0 0 0 0 0 0 0 0 0 0 0 0 0 0 0 0 0 0 0 0 0 0 0 0 0 
            </DataArray>
            <DataArray type="Float64" Name="Displacement" NumberOfComponents="3" format="ascii">
               0.000242613 0.000242282 -0.000997467  0.000135402 0.000302938 -0.00105159  6.64183e-05 0.000372191 -0.00100106  4.48441e-06 0.000370958 -0.000984046  -2.5264e-05 0.000370768 -0.00098329  -8.6347e-05 0.000388937 -0.000959034  -0.0001505 0.000356903 -0.000995718  -9.02769e-05 0.000239642 -0.00104368  -0.000122492 0.000250219 -0.000900333  0.000302827 0.000135107 -0.00105149  0.000166246 0.000166262 -0.0010715  9.09029e-05 0.000205606 -0.00100157  3.12729e-05 0.000211824 -0.000985144  7.31272e-06 0.0002251 -0.000985651  -3.58462e-05 0.000213968 -0.000968264  -0.000141258 0.000225209 -0.00100754  -0.000162267 0.000171189 -0.00110326  -0.000222382 0.000175082 -0.00102289  0.000371995 6.62848e-05 -0.00100073  0.000205443 9.07486e-05 -0.00100142  0.000115662 0.000115603 -0.000890343  2.11937e-05 0.000134252 -0.000858103  9.90633e-07 0.000138432 -0.000861323  -2.57917e-05 0.00013717 -0.000854577  -0.000149008 0.000151785 -0.000892064  -0.000217933 0.000133062 -0.00100998  -0.000346138 0.000152394 -0.000988208  0.000370824 4.53761e-06 -0.00098386  0.000211742 3.11754e-05 -0.000985072  0.000134304 2.10885e-05 -0.000858177  4.2796e-05 4.27115e-05 -0.000811741  1.74882e-07 3.82082e-05 -0.000814025  -3.92048e-05 4.85537e-05 -0.000814193  -0.00012834 4.17713e-05 -0.000858029  -0.000202644 4.63386e-05 -0.000974367  -0.000372967 6.1133e-05 -0.000959349  0.000370652 -2.52391e-05 -0.000983092  0.000225051 7.28221e-06 -0.000985555  0.000138525 9.09553e-07 -0.000861382  3.83035e-05 5.98695e-08 -0.000814001  8.05446e-06 7.91925e-06 -0.000818962  -2.30499e-05 9.0413e-06 -0.000813978  -0.00012237 1.57438e-05 -0.000859796  -0.000200188 9.98114e-06 -0.000983002  -0.000339039 4.5349e-05 -0.000974329  0.000388846 -8.66104e-05 -0.000958761  0.00021389 -3.60611e-05 -0.000968125  0.000137245 -2.60535e-05 -0.000854641  4.86562e-05 -3.94973e-05 -0.000814188  9.14555e-06 -2.33967e-05 -0.000813981  -3.32931e-05 -3.35583e-05 -0.00080986  -0.00012662 -8.52688e-06 -0.000854945  -0.000200733 -2.55908e-05 -0.000978998  -0.000361465 3.73395e-05 -0.000970366  0.000356667 -0.000150824 -0.000995531  0.000225167 -0.000141635 -0.00100752  0.000151942 -0.000149441 -0.000892208  4.1852e-05 -0.000128703 -0.000858102  1.58419e-05 -0.000122784 -0.000859899  -8.22268e-06 -0.000126942 -0.000855037  -0.000106484 -0.000106782 -0.000889985  -0.000192049 -9.08763e-05 -0.0010021  -0.000356894 -6.20703e-05 -0.000992902  0.000239252 -9.03766e-05 -0.00104324  0.000171089 -0.000162505 -0.00110315  0.000133241 -0.000218361 -0.00100998  4.64007e-05 -0.00020304 -0.000974255  1.00135e-05 -0.000200621 -0.000982963  -2.53562e-05 -0.000201105 -0.000978958  -9.04723e-05 -0.000192233 -0.00100197  -0.000157334 -0.000157662 -0.00107446  -0.000288881 -0.000137622 -0.00104625  0.000249598 -0.000122496 -0.000899561  0.000174744 -0.000222414 -0.00102268  0.00015255 -0.000346515 -0.000988293  6.12931e-05 -0.000373495 -0.000959369  4.54111e-05 -0.000339516 -0.000974447  3.75591e-05 -0.000361956 -0.000970441  -6.16997e-05 -0.000357181 -0.000992755  -0.000137031 -0.000289087 -0.00104632  -0.000240755 -0.000241451 -0.000987134  
            </DataArray>
            <DataArray type="Float64" Name="Velocity" NumberOfComponents="3" format="ascii">
               0.000260372 0.000259473 -0.0010992  0.000145751 0.000324453 -0.00115748  7.30208e-05 0.000400398 -0.00110403  5.64996e-06 0.000398871 -0.00108846  -2.59416e-05 0.000396903 -0.00108945  -9.20289e-05 0.000419662 -0.00106218  -0.000161653 0.000385373 -0.00110029  -9.37461e-05 0.000255911 -0.00114859  -0.00012765 0.000266222 -0.000990602  0.000326217 0.00014505 -0.0011585  0.000178756 0.000177433 -0.00117981  9.91213e-05 0.000218648 -0.00110427  3.44812e-05 0.000225336 -0.00108819  8.58509e-06 0.000238356 -0.00109035  -3.82433e-05 0.000227911 -0.00107006  -0.000152373 0.000241849 -0.00111133  -0.000172893 0.00018238 -0.00121375  -0.000237493 0.000185482 -0.00112622  0.000401939 7.20692e-05 -0.00110491  0.000219639 9.79955e-05 -0.00110412  0.000124326 0.000123408 -0.000985318  2.29996e-05 0.00014312 -0.000952424  1.30956e-06 0.000146702 -0.000957592  -2.7385e-05 0.000146024 -0.00094904  -0.000160719 0.000163224 -0.000987426  -0.000234455 0.00014314 -0.00111406  -0.000374488 0.000162412 -0.00109219  0.000400549 4.16704e-06 -0.00108928  0.000226391 3.30775e-05 -0.00108787  0.00014388 2.15749e-05 -0.000952236  4.60823e-05 4.48715e-05 -0.000904665  7.57616e-07 3.97877e-05 -0.000908829  -4.16078e-05 5.15451e-05 -0.000907708  -0.000136506 4.38659e-05 -0.000952759  -0.000215695 4.93238e-05 -0.00107667  -0.000402507 6.29003e-05 -0.00106281  0.000398399 -2.74838e-05 -0.00109028  0.000239409 7.07845e-06 -0.00109005  0.00014751 -2.6491e-07 -0.00095748  4.10195e-05 -7.70261e-07 -0.000908935  9.23526e-06 7.69178e-06 -0.000915459  -2.41214e-05 9.22984e-06 -0.000908704  -0.000129765 1.60751e-05 -0.000955913  -0.000211434 1.02183e-05 -0.00108707  -0.000362547 4.73693e-05 -0.00107974  0.00042117 -9.34317e-05 -0.00106301  0.000228992 -3.9826e-05 -0.00106983  0.000146852 -2.88943e-05 -0.000949026  5.28307e-05 -4.30809e-05 -0.000907964  1.07938e-05 -2.56595e-05 -0.000908853  -3.47309e-05 -3.62083e-05 -0.00090251  -0.000134709 -1.01843e-05 -0.000948857  -0.000213396 -2.85237e-05 -0.00108104  -0.000388952 3.992e-05 -0.00107352  0.000387015 -0.000163189 -0.00110108  0.000243266 -0.000153758 -0.00111108  0.000164425 -0.000162054 -0.000987237  4.52113e-05 -0.00013763 -0.000952748  1.77297e-05 -0.000130941 -0.000955877  -8.42391e-06 -0.000135845 -0.000948676  -0.000113735 -0.000115072 -0.000984654  -0.000203504 -9.92852e-05 -0.00110462  -0.000383234 -6.83084e-05 -0.00109492  0.000257404 -9.58243e-05 -0.00114896  0.000183715 -0.000174471 -0.0012134  0.000144553 -0.000236267 -0.00111383  5.09205e-05 -0.000217298 -0.00107646  1.19606e-05 -0.000213041 -0.00108687  -2.67478e-05 -0.000215033 -0.00108072  -9.78102e-05 -0.000205202 -0.00110442  -0.000167603 -0.000169551 -0.00118275  -0.000308832 -0.000148059 -0.00115128  0.000267468 -0.000130093 -0.000991931  0.000186824 -0.000239356 -0.00112691  0.000163942 -0.00037674 -0.00109329  6.44319e-05 -0.000404786 -0.00106397  4.93155e-05 -0.000364728 -0.00108099  4.22486e-05 -0.000391358 -0.00107467  -6.68656e-05 -0.000385764 -0.00109617  -0.000147194 -0.000311458 -0.00115271  -0.000258126 -0.000259279 -0.00108792  
            </DataArray>
            <DataArray type="Float64" Name="Traction" NumberOfComponents="3" format="ascii">
               -0.00143257 -0.00143459 -0.0137833  -0.00129709 -0.00256032 -0.0137833  -0.000854825 -0.00344863 -0.0137833  -7.75976e-05 -0.00333186 -0.0137833  -0.000292336 -0.0033122 -0.0137833  0.000923926 -0.00344016 -0.0137833  0.00296326 -0.00300322 -0.0137833  0.000336904 -0.00103962 -0.0137833  -0.00122443 -0.000423814 -0.0137833  -0.00255376 -0.00130133 -0.0137833  -0.00191894 -0.00192526 -0.0137833  -0.00112252 -0.00267754 -0.0137833  -0.000356604 -0.00280636 -0.0137833  -0.000549785 -0.00292027 -0.0137833  0.000420033 -0.00268761 -0.0137833  0.00326858 -0.0027946 -0.0137833  0.00169499 -0.0018111 -0.0137833  0.000607726 -0.0011805 -0.0137833  -0.00344134 -0.000857746 -0.0137833  -0.00267046 -0.00112525 -0.0137833  -0.00165152 -0.00165452 -0.0137833  -0.000302058 -0.00205343 -0.0137833  -0.000298952 -0.00210977 -0.0137833  0.000363399 -0.00194711 -0.0137833  0.00340526 -0.00201262 -0.0137833  0.00273251 -0.00183996 -0.0137833  0.00278875 -0.00194046 -0.0137833  -0.00332631 -8.50523e-05 -0.0137833  -0.00280078 -0.00036226 -0.0137833  -0.00205071 -0.000307064 -0.0137833  -0.000600937 -0.000605951 -0.0137833  -0.000198012 -0.000525547 -0.0137833  0.000602343 -0.000616004 -0.0137833  0.00314191 -0.000484525 -0.0137833  0.00262055 -0.000492588 -0.0137833  0.0032406 -0.000556473 -0.0137833  -0.003307 -0.000302614 -0.0137833  -0.00291502 -0.000559011 -0.0137833  -0.00210762 -0.000306496 -0.0137833  -0.000520627 -0.000204818 -0.0137833  -0.000349586 -0.000356598 -0.0137833  0.00043319 -0.000339506 -0.0137833  0.003179 -0.000361446 -0.0137833  0.00269726 -0.000211473 -0.0137833  0.00296177 -0.000572073 -0.0137833  -0.00343499 0.000917578 -0.0137833  -0.00268147 0.00041319 -0.0137833  -0.00194428 0.000356963 -0.0137833  -0.000611065 0.000596335 -0.0137833  -0.000332102 0.000427789 -0.0137833  0.00055763 0.00055117 -0.0137833  0.00324318 0.000229079 -0.0137833  0.00270673 0.000372327 -0.0137833  0.00320783 -0.000310205 -0.0137833  -0.00299517 0.00295466 -0.0137833  -0.00278844 0.00326087 -0.0137833  -0.00201042 0.00339603 -0.0137833  -0.000478818 0.00313103 -0.0137833  -0.000353789 0.00316921 -0.0137833  0.000235261 0.00323259 -0.0137833  0.00285292 0.00284256 -0.0137833  0.00255579 0.00216206 -0.0137833  0.00321543 0.00172363 -0.0137833  -0.0010257 0.000324703 -0.0137833  -0.00180231 0.00168506 -0.0137833  -0.00183778 0.00272425 -0.0137833  -0.00048594 0.0026119 -0.0137833  -0.000202462 0.00268945 -0.0137833  0.000379531 0.00269787 -0.0137833  0.00217154 0.00254406 -0.0137833  0.00186116 0.00185171 -0.0137833  0.00233299 0.00137308 -0.0137833  -0.000403741 -0.00123878 -0.0137833  -0.00116588 0.000595385 -0.0137833  -0.00193652 0.00278178 -0.0137833  -0.00054993 0.00323613 -0.0137833  -0.000563058 0.00295706 -0.0137833  -0.00030361 0.00320231 -0.0137833  0.00173457 0.00320554 -0.0137833  0.00137971 0.00232372 -0.0137833  0.00139179 0.00138861 -0.0137833  
            </DataArray>
         </PointData> 
      </Piece>
   </UnstructuredGrid> 
</VTKFile>
