<?xml version="1.0"?>
<VTKFile type="UnstructuredGrid" version="0.1" byte_order="LittleEndian">
   <UnstructuredGrid>
      <Piece NumberOfPoints="81" NumberOfCells="0" > 
         <Points> 
            <DataArray type="Float64" Name="Position" NumberOfComponents="3" format="ascii"> 
               0  0  15  
               0.375  0  15  
               0.75  0  15  
               1.125  0  15  
               1.5  0  15  
               1.875  0  15  
               2.25  0  15  
               2.625  0  15  
               3  0  15  
               0  0.375  15  
               0.375  0.375  15  
               0.75  0.375  15  
               1.125  0.375  15  
               1.5  0.375  15  
               1.875  0.375  15  
               2.25  0.375  15  
               2.625  0.375  15  
               3  0.375  15  
               0  0.75  15  
               0.375  0.75  15  
               0.75  0.75  15  
               1.125  0.75  15  
               1.5  0.75  15  
               1.875  0.75  15  
               2.25  0.75  15  
               2.625  0.75  15  
               3  0.75  15  
               0  1.125  15  
               0.375  1.125  15  
               0.75  1.125  15  
               1.125  1.125  15  
               1.5  1.125  15  
               1.875  1.125  15  
               2.25  1.125  15  
               2.625  1.125  15  
               3  1.125  15  
               0  1.5  15  
               0.375  1.5  15  
               0.75  1.5  15  
               1.125  1.5  15  
               1.5  1.5  15  
               1.875  1.5  15  
               2.25  1.5  15  
               2.625  1.5  15  
               3  1.5  15  
               0  1.875  15  
               0.375  1.875  15  
               0.75  1.875  15  
               1.125  1.875  15  
               1.5  1.875  15  
               1.875  1.875  15  
               2.25  1.875  15  
               2.625  1.875  15  
               3  1.875  15  
               0  2.25  15  
               0.375  2.25  15  
               0.75  2.25  15  
               1.125  2.25  15  
               1.5  2.25  15  
               1.875  2.25  15  
               2.25  2.25  15  
               2.625  2.25  15  
               3  2.25  15  
               0  2.625  15  
               0.375  2.625  15  
               0.75  2.625  15  
               1.125  2.625  15  
               1.5  2.625  15  
               1.875  2.625  15  
               2.25  2.625  15  
               2.625  2.625  15  
               3  2.625  15  
               0  3  15  
               0.375  3  15  
               0.75  3  15  
               1.125  3  15  
               1.5  3  15  
               1.875  3  15  
               2.25  3  15  
               2.625  3  15  
               3  3  15  
            </DataArray>
         </Points> 

         <Cells>
            <DataArray type="Int32" Name="connectivity" NumberOfComponents="1" format="ascii">
               
            </DataArray> 
            <DataArray type="Int32" Name="offsets" NumberOfComponents="1" format="ascii">
               
            </DataArray>
            <DataArray type="UInt8"  Name="types" NumberOfComponents="1" format="ascii">
               
            </DataArray>
         </Cells>
         <PointData Scalars="Rank " Vectors="Displacement Velocity Traction ">
            <DataArray type="UInt32" Name="Rank" NumberOfComponents="1" format="ascii">
               0 0 0 0 0 0 0 0 0 0 0 0 0 0 0 0 0 0 0 0 0 0 0 0 0 0 0 0 0 0 0 0 0 0 0 0 0 0 0 0 0 0 0 0 0 0 0 0 0 0 0 0 0 0 0 0 0 0 0 0 0 0 0 0 0 0 0 0 0 0 0 0 0 0 0 0 0 0 0 0 0 
            </DataArray>
            <DataArray type="Float64" Name="Displacement" NumberOfComponents="3" format="ascii">
               0 0 0  0 0 0  0 0 0  0 0 0  0 0 0  0 0 0  0 0 0  0 0 0  0 0 0  0 0 0  0 0 0  0 0 0  0 0 0  0 0 0  0 0 0  0 0 0  0 0 0  0 0 0  0 0 0  0 0 0  0 0 0  0 0 0  0 0 0  0 0 0  0 0 0  0 0 0  0 0 0  0 0 0  0 0 0  0 0 0  0 0 0  0 0 0  0 0 0  0 0 0  0 0 0  0 0 0  0 0 0  0 0 0  0 0 0  0 0 0  0 0 0  0 0 0  0 0 0  0 0 0  0 0 0  0 0 0  0 0 0  0 0 0  0 0 0  0 0 0  0 0 0  0 0 0  0 0 0  0 0 0  0 0 0  0 0 0  0 0 0  0 0 0  0 0 0  0 0 0  0 0 0  0 0 0  0 0 0  0 0 0  0 0 0  0 0 0  0 0 0  0 0 0  0 0 0  0 0 0  0 0 0  0 0 0  0 0 0  0 0 0  0 0 0  0 0 0  0 0 0  0 0 0  0 0 0  0 0 0  0 0 0  
            </DataArray>
            <DataArray type="Float64" Name="Velocity" NumberOfComponents="3" format="ascii">
               0 0 0  0 0 0  0 0 0  0 0 0  0 0 0  0 0 0  0 0 0  0 0 0  0 0 0  0 0 0  0 0 0  0 0 0  0 0 0  0 0 0  0 0 0  0 0 0  0 0 0  0 0 0  0 0 0  0 0 0  0 0 0  0 0 0  0 0 0  0 0 0  0 0 0  0 0 0  0 0 0  0 0 0  0 0 0  0 0 0  0 0 0  0 0 0  0 0 0  0 0 0  0 0 0  0 0 0  0 0 0  0 0 0  0 0 0  0 0 0  0 0 0  0 0 0  0 0 0  0 0 0  0 0 0  0 0 0  0 0 0  0 0 0  0 0 0  0 0 0  0 0 0  0 0 0  0 0 0  0 0 0  0 0 0  0 0 0  0 0 0  0 0 0  0 0 0  0 0 0  0 0 0  0 0 0  0 0 0  0 0 0  0 0 0  0 0 0  0 0 0  0 0 0  0 0 0  0 0 0  0 0 0  0 0 0  0 0 0  0 0 0  0 0 0  0 0 0  0 0 0  0 0 0  0 0 0  0 0 0  0 0 0  
            </DataArray>
            <DataArray type="Float64" Name="Traction" NumberOfComponents="3" format="ascii">
               0.00059797 0.000623229 -0.00143111  -3.7442e-05 0.000669936 -0.00143111  -2.58121e-05 0.000672967 -0.00143111  -6.10648e-05 0.000745303 -0.00143111  7.07294e-06 0.000688023 -0.00143111  5.31809e-05 0.00084791 -0.00143111  6.66163e-06 0.000747796 -0.00143111  7.86897e-05 0.000856433 -0.00143111  -0.00114081 0.0011312 -0.00143111  0.000624857 1.18412e-05 -0.00143111  0.000107639 0.000128952 -0.00143111  2.75498e-05 0.000189966 -0.00143111  -8.37666e-06 0.000273886 -0.00143111  3.48897e-05 0.000263965 -0.00143111  0.000114816 0.000231218 -0.00143111  0.000135209 5.87187e-05 -0.00143111  6.01056e-05 -4.51379e-05 -0.00143111  -0.000873481 -6.13319e-05 -0.00143111  0.000661964 8.24706e-05 -0.00143111  0.000222176 5.78071e-05 -0.00143111  8.80903e-05 6.65075e-05 -0.00143111  1.55553e-05 0.000128116 -0.00143111  5.18373e-05 0.000123252 -0.00143111  0.000122172 6.60552e-05 -0.00143111  9.24697e-05 -7.15425e-05 -0.00143111  -5.54373e-05 -0.000101882 -0.00143111  -0.000796724 4.29902e-05 -0.00143111  0.00085984 4.9164e-05 -0.00143111  0.000396674 1.59076e-05 -0.00143111  0.000203142 -1.31401e-05 -0.00143111  8.54451e-05 3.28287e-05 -0.00143111  3.79986e-05 4.71539e-05 -0.00143111  2.01133e-05 -2.36659e-05 -0.00143111  -6.45831e-05 -0.000123866 -0.00143111  -0.00026506 -0.000103771 -0.00143111  -0.000893636 -2.69155e-05 -0.00143111  0.000871686 -0.000100384 -0.00143111  0.000504613 -6.58341e-05 -0.00143111  0.000296603 -0.000117143 -0.00143111  0.000145127 -6.16794e-05 -0.00143111  2.45976e-05 -2.36345e-05 -0.00143111  -6.29289e-05 -4.28613e-05 -0.00143111  -0.000147845 -7.13566e-05 -0.00143111  -0.000334009 -4.38959e-05 -0.00143111  -0.000711784 -8.651e-06 -0.00143111  0.000703165 -0.000212864 -0.00143111  0.000552502 -0.000209678 -0.00143111  0.00036833 -0.000272997 -0.00143111  0.000222084 -0.000195904 -0.00143111  5.77213e-05 -0.000127781 -0.00143111  -7.06105e-05 -9.48425e-05 -0.00143111  -0.000178592 -5.65709e-05 -0.00143111  -0.000369139 -2.96313e-05 -0.00143111  -0.00077389 4.76606e-05 -0.00143111  0.000699194 -0.000347725 -0.00143111  0.000664307 -0.00036011 -0.00143111  0.000463032 -0.00040917 -0.00143111  0.00029946 -0.000319732 -0.00143111  0.000100094 -0.000264401 -0.00143111  -5.25521e-05 -0.000206953 -0.00143111  -0.000153226 -0.000141461 -0.00143111  -0.000332919 -0.000104945 -0.00143111  -0.000777162 -4.30667e-05 -0.00143111  0.000450083 -0.000691802 -0.00143111  0.000632595 -0.000602534 -0.00143111  0.0004075 -0.000625301 -0.00143111  0.000237852 -0.0005249 -0.00143111  5.79088e-05 -0.000495393 -0.00143111  -6.81684e-05 -0.000429687 -0.00143111  -0.000145327 -0.000325788 -0.00143111  -0.000288913 -0.000257691 -0.00143111  -0.000695952 -0.000169939 -0.00143111  0.000209202 -0.00021258 -0.00143111  0.000703607 -0.000438818 -0.00143111  0.000392754 -0.000692712 -0.00143111  0.000260453 -0.000727148 -0.00143111  0.000103166 -0.000917189 -0.00143111  -7.31682e-05 -0.000871188 -0.00143111  -0.000131904 -0.000709098 -0.00143111  -0.000194477 -0.000631348 -0.00143111  -0.000555727 -0.000545066 -0.00143111  
            </DataArray>
         </PointData> 
      </Piece>
   </UnstructuredGrid> 
</VTKFile>
