<?xml version="1.0"?>
<VTKFile type="UnstructuredGrid" version="0.1" byte_order="LittleEndian">
   <UnstructuredGrid>
      <Piece NumberOfPoints="81" NumberOfCells="0" > 
         <Points> 
            <DataArray type="Float64" Name="Position" NumberOfComponents="3" format="ascii"> 
               0  0  15  
               0.375  0  15  
               0.75  0  15  
               1.125  0  15  
               1.5  0  15  
               1.875  0  15  
               2.25  0  15  
               2.625  0  15  
               3  0  15  
               0  0.375  15  
               0.375  0.375  15  
               0.75  0.375  15  
               1.125  0.375  15  
               1.5  0.375  15  
               1.875  0.375  15  
               2.25  0.375  15  
               2.625  0.375  15  
               3  0.375  15  
               0  0.75  15  
               0.375  0.75  15  
               0.75  0.75  15  
               1.125  0.75  15  
               1.5  0.75  15  
               1.875  0.75  15  
               2.25  0.75  15  
               2.625  0.75  15  
               3  0.75  15  
               0  1.125  15  
               0.375  1.125  15  
               0.75  1.125  15  
               1.125  1.125  15  
               1.5  1.125  15  
               1.875  1.125  15  
               2.25  1.125  15  
               2.625  1.125  15  
               3  1.125  15  
               0  1.5  15  
               0.375  1.5  15  
               0.75  1.5  15  
               1.125  1.5  15  
               1.5  1.5  15  
               1.875  1.5  15  
               2.25  1.5  15  
               2.625  1.5  15  
               3  1.5  15  
               0  1.875  15  
               0.375  1.875  15  
               0.75  1.875  15  
               1.125  1.875  15  
               1.5  1.875  15  
               1.875  1.875  15  
               2.25  1.875  15  
               2.625  1.875  15  
               3  1.875  15  
               0  2.25  15  
               0.375  2.25  15  
               0.75  2.25  15  
               1.125  2.25  15  
               1.5  2.25  15  
               1.875  2.25  15  
               2.25  2.25  15  
               2.625  2.25  15  
               3  2.25  15  
               0  2.625  15  
               0.375  2.625  15  
               0.75  2.625  15  
               1.125  2.625  15  
               1.5  2.625  15  
               1.875  2.625  15  
               2.25  2.625  15  
               2.625  2.625  15  
               3  2.625  15  
               0  3  15  
               0.375  3  15  
               0.75  3  15  
               1.125  3  15  
               1.5  3  15  
               1.875  3  15  
               2.25  3  15  
               2.625  3  15  
               3  3  15  
            </DataArray>
         </Points> 

         <Cells>
            <DataArray type="Int32" Name="connectivity" NumberOfComponents="1" format="ascii">
               
            </DataArray> 
            <DataArray type="Int32" Name="offsets" NumberOfComponents="1" format="ascii">
               
            </DataArray>
            <DataArray type="UInt8"  Name="types" NumberOfComponents="1" format="ascii">
               
            </DataArray>
         </Cells>
         <PointData Scalars="Rank " Vectors="Displacement Velocity Traction ">
            <DataArray type="UInt32" Name="Rank" NumberOfComponents="1" format="ascii">
               0 0 0 0 0 0 0 0 0 0 0 0 0 0 0 0 0 0 0 0 0 0 0 0 0 0 0 0 0 0 0 0 0 0 0 0 0 0 0 0 0 0 0 0 0 0 0 0 0 0 0 0 0 0 0 0 0 0 0 0 0 0 0 0 0 0 0 0 0 0 0 0 0 0 0 0 0 0 0 0 0 
            </DataArray>
            <DataArray type="Float64" Name="Displacement" NumberOfComponents="3" format="ascii">
               0 0 0  0 0 0  0 0 0  0 0 0  0 0 0  0 0 0  0 0 0  0 0 0  0 0 0  0 0 0  0 0 0  0 0 0  0 0 0  0 0 0  0 0 0  0 0 0  0 0 0  0 0 0  0 0 0  0 0 0  0 0 0  0 0 0  0 0 0  0 0 0  0 0 0  0 0 0  0 0 0  0 0 0  0 0 0  0 0 0  0 0 0  0 0 0  0 0 0  0 0 0  0 0 0  0 0 0  0 0 0  0 0 0  0 0 0  0 0 0  0 0 0  0 0 0  0 0 0  0 0 0  0 0 0  0 0 0  0 0 0  0 0 0  0 0 0  0 0 0  0 0 0  0 0 0  0 0 0  0 0 0  0 0 0  0 0 0  0 0 0  0 0 0  0 0 0  0 0 0  0 0 0  0 0 0  0 0 0  0 0 0  0 0 0  0 0 0  0 0 0  0 0 0  0 0 0  0 0 0  0 0 0  0 0 0  0 0 0  0 0 0  0 0 0  0 0 0  0 0 0  0 0 0  0 0 0  0 0 0  0 0 0  
            </DataArray>
            <DataArray type="Float64" Name="Velocity" NumberOfComponents="3" format="ascii">
               0 0 0  0 0 0  0 0 0  0 0 0  0 0 0  0 0 0  0 0 0  0 0 0  0 0 0  0 0 0  0 0 0  0 0 0  0 0 0  0 0 0  0 0 0  0 0 0  0 0 0  0 0 0  0 0 0  0 0 0  0 0 0  0 0 0  0 0 0  0 0 0  0 0 0  0 0 0  0 0 0  0 0 0  0 0 0  0 0 0  0 0 0  0 0 0  0 0 0  0 0 0  0 0 0  0 0 0  0 0 0  0 0 0  0 0 0  0 0 0  0 0 0  0 0 0  0 0 0  0 0 0  0 0 0  0 0 0  0 0 0  0 0 0  0 0 0  0 0 0  0 0 0  0 0 0  0 0 0  0 0 0  0 0 0  0 0 0  0 0 0  0 0 0  0 0 0  0 0 0  0 0 0  0 0 0  0 0 0  0 0 0  0 0 0  0 0 0  0 0 0  0 0 0  0 0 0  0 0 0  0 0 0  0 0 0  0 0 0  0 0 0  0 0 0  0 0 0  0 0 0  0 0 0  0 0 0  0 0 0  0 0 0  
            </DataArray>
            <DataArray type="Float64" Name="Traction" NumberOfComponents="3" format="ascii">
               0.00275597 0.00277082 -0.00762944  0.00110298 0.00336176 -0.00762944  0.000439796 0.00366622 -0.00762944  6.46039e-05 0.00391223 -0.00762944  -0.000120892 0.00386986 -0.00762944  -0.000291363 0.00412991 -0.00762944  -0.000692833 0.00393845 -0.00762944  -0.00145234 0.00394599 -0.00762944  -0.00435153 0.00444115 -0.00762944  0.00328292 0.00112485 -0.00762944  0.00150222 0.00156346 -0.00762944  0.000736874 0.00168249 -0.00762944  0.000321265 0.00184144 -0.00762944  8.55589e-05 0.00179063 -0.00762944  -4.56562e-05 0.0017643 -0.00762944  -0.000311405 0.00148197 -0.00762944  -0.00125448 0.0013243 -0.00762944  -0.00393604 0.00158086 -0.00762944  0.00355909 0.000522124 -0.00762944  0.0016333 0.000808128 -0.00762944  0.000809648 0.000857217 -0.00762944  0.00036642 0.000939339 -0.00762944  0.000119821 0.000881703 -0.00762944  -5.74512e-05 0.00081198 -0.00762944  -0.000414527 0.000594927 -0.00762944  -0.0014694 0.000522549 -0.00762944  -0.00399864 0.000929339 -0.00762944  0.00399088 0.000199726 -0.00762944  0.00189651 0.000372081 -0.00762944  0.000961452 0.000376125 -0.00762944  0.00043904 0.000411267 -0.00762944  8.7811e-05 0.000381872 -0.00762944  -0.000210174 0.000284949 -0.00762944  -0.00066815 0.000138954 -0.00762944  -0.00180241 0.000156534 -0.00762944  -0.00424196 0.000467582 -0.00762944  0.00412101 -0.000255673 -0.00762944  0.00200968 -6.10185e-05 -0.00762944  0.00103794 -9.7047e-05 -0.00762944  0.000465703 -4.32932e-05 -0.00762944  3.12094e-05 -2.05836e-05 -0.00762944  -0.00033762 -5.74508e-05 -0.00762944  -0.000797277 -9.66805e-05 -0.00762944  -0.00191537 -4.37556e-05 -0.00762944  -0.00407105 0.000225405 -0.00762944  0.00405082 -0.000670086 -0.00762944  0.00218322 -0.000513882 -0.00762944  0.00119995 -0.000598001 -0.00762944  0.000588922 -0.000512401 -0.00762944  7.28696e-05 -0.00041818 -0.00762944  -0.000375132 -0.00039786 -0.00762944  -0.000883418 -0.000349916 -0.00762944  -0.00202408 -0.000296376 -0.00762944  -0.00420874 4.24741e-05 -0.00762944  0.00401675 -0.00121901 -0.00762944  0.00233272 -0.00104219 -0.00762944  0.00132466 -0.00114353 -0.00762944  0.000681237 -0.00105068 -0.00762944  0.000118817 -0.000943269 -0.00762944  -0.00036645 -0.000892797 -0.00762944  -0.000859399 -0.000799131 -0.00762944  -0.00195761 -0.00076358 -0.00762944  -0.00412614 -0.000400975 -0.00762944  0.00366194 -0.00253675 -0.00762944  0.00230498 -0.00223231 -0.00762944  0.00125149 -0.00231562 -0.00762944  0.000624694 -0.00220673 -0.00762944  9.74001e-05 -0.00211185 -0.00762944  -0.000356098 -0.00205494 -0.00762944  -0.000844361 -0.00188611 -0.00762944  -0.0018638 -0.0017851 -0.00762944  -0.00381113 -0.00134926 -0.00762944  0.003634 -0.00353826 -0.00762944  0.00266251 -0.00361717 -0.00762944  0.00145157 -0.00402093 -0.00762944  0.000850442 -0.00411745 -0.00762944  0.000354583 -0.00429701 -0.00762944  -0.00010333 -0.00425269 -0.00762944  -0.000485962 -0.00396818 -0.00762944  -0.00137328 -0.00369576 -0.00762944  -0.00314072 -0.00312013 -0.00762944  
            </DataArray>
         </PointData> 
      </Piece>
   </UnstructuredGrid> 
</VTKFile>
