<?xml version="1.0"?>
<VTKFile type="UnstructuredGrid" version="0.1" byte_order="LittleEndian">
   <UnstructuredGrid>
      <Piece NumberOfPoints="81" NumberOfCells="0" > 
         <Points> 
            <DataArray type="Float64" Name="Position" NumberOfComponents="3" format="ascii"> 
               0  0  15  
               0.375  0  15  
               0.75  0  15  
               1.125  0  15  
               1.5  0  15  
               1.875  0  15  
               2.25  0  15  
               2.625  0  15  
               3  0  15  
               0  0.375  15  
               0.375  0.375  15  
               0.75  0.375  15  
               1.125  0.375  15  
               1.5  0.375  15  
               1.875  0.375  15  
               2.25  0.375  15  
               2.625  0.375  15  
               3  0.375  15  
               0  0.75  15  
               0.375  0.75  15  
               0.75  0.75  15  
               1.125  0.75  15  
               1.5  0.75  15  
               1.875  0.75  15  
               2.25  0.75  15  
               2.625  0.75  15  
               3  0.75  15  
               0  1.125  15  
               0.375  1.125  15  
               0.75  1.125  15  
               1.125  1.125  15  
               1.5  1.125  15  
               1.875  1.125  15  
               2.25  1.125  15  
               2.625  1.125  15  
               3  1.125  15  
               0  1.5  15  
               0.375  1.5  15  
               0.75  1.5  15  
               1.125  1.5  15  
               1.5  1.5  15  
               1.875  1.5  15  
               2.25  1.5  15  
               2.625  1.5  15  
               3  1.5  15  
               0  1.875  15  
               0.375  1.875  15  
               0.75  1.875  15  
               1.125  1.875  15  
               1.5  1.875  15  
               1.875  1.875  15  
               2.25  1.875  15  
               2.625  1.875  15  
               3  1.875  15  
               0  2.25  15  
               0.375  2.25  15  
               0.75  2.25  15  
               1.125  2.25  15  
               1.5  2.25  15  
               1.875  2.25  15  
               2.25  2.25  15  
               2.625  2.25  15  
               3  2.25  15  
               0  2.625  15  
               0.375  2.625  15  
               0.75  2.625  15  
               1.125  2.625  15  
               1.5  2.625  15  
               1.875  2.625  15  
               2.25  2.625  15  
               2.625  2.625  15  
               3  2.625  15  
               0  3  15  
               0.375  3  15  
               0.75  3  15  
               1.125  3  15  
               1.5  3  15  
               1.875  3  15  
               2.25  3  15  
               2.625  3  15  
               3  3  15  
            </DataArray>
         </Points> 

         <Cells>
            <DataArray type="Int32" Name="connectivity" NumberOfComponents="1" format="ascii">
               
            </DataArray> 
            <DataArray type="Int32" Name="offsets" NumberOfComponents="1" format="ascii">
               
            </DataArray>
            <DataArray type="UInt8"  Name="types" NumberOfComponents="1" format="ascii">
               
            </DataArray>
         </Cells>
         <PointData Scalars="Rank " Vectors="Displacement Velocity Traction ">
            <DataArray type="UInt32" Name="Rank" NumberOfComponents="1" format="ascii">
               0 0 0 0 0 0 0 0 0 0 0 0 0 0 0 0 0 0 0 0 0 0 0 0 0 0 0 0 0 0 0 0 0 0 0 0 0 0 0 0 0 0 0 0 0 0 0 0 0 0 0 0 0 0 0 0 0 0 0 0 0 0 0 0 0 0 0 0 0 0 0 0 0 0 0 0 0 0 0 0 0 
            </DataArray>
            <DataArray type="Float64" Name="Displacement" NumberOfComponents="3" format="ascii">
               0 0 0  0 0 0  0 0 0  0 0 0  0 0 0  0 0 0  0 0 0  0 0 0  0 0 0  0 0 0  0 0 0  0 0 0  0 0 0  0 0 0  0 0 0  0 0 0  0 0 0  0 0 0  0 0 0  0 0 0  0 0 0  0 0 0  0 0 0  0 0 0  0 0 0  0 0 0  0 0 0  0 0 0  0 0 0  0 0 0  0 0 0  0 0 0  0 0 0  0 0 0  0 0 0  0 0 0  0 0 0  0 0 0  0 0 0  0 0 0  0 0 0  0 0 0  0 0 0  0 0 0  0 0 0  0 0 0  0 0 0  0 0 0  0 0 0  0 0 0  0 0 0  0 0 0  0 0 0  0 0 0  0 0 0  0 0 0  0 0 0  0 0 0  0 0 0  0 0 0  0 0 0  0 0 0  0 0 0  0 0 0  0 0 0  0 0 0  0 0 0  0 0 0  0 0 0  0 0 0  0 0 0  0 0 0  0 0 0  0 0 0  0 0 0  0 0 0  0 0 0  0 0 0  0 0 0  0 0 0  0 0 0  
            </DataArray>
            <DataArray type="Float64" Name="Velocity" NumberOfComponents="3" format="ascii">
               0 0 0  0 0 0  0 0 0  0 0 0  0 0 0  0 0 0  0 0 0  0 0 0  0 0 0  0 0 0  0 0 0  0 0 0  0 0 0  0 0 0  0 0 0  0 0 0  0 0 0  0 0 0  0 0 0  0 0 0  0 0 0  0 0 0  0 0 0  0 0 0  0 0 0  0 0 0  0 0 0  0 0 0  0 0 0  0 0 0  0 0 0  0 0 0  0 0 0  0 0 0  0 0 0  0 0 0  0 0 0  0 0 0  0 0 0  0 0 0  0 0 0  0 0 0  0 0 0  0 0 0  0 0 0  0 0 0  0 0 0  0 0 0  0 0 0  0 0 0  0 0 0  0 0 0  0 0 0  0 0 0  0 0 0  0 0 0  0 0 0  0 0 0  0 0 0  0 0 0  0 0 0  0 0 0  0 0 0  0 0 0  0 0 0  0 0 0  0 0 0  0 0 0  0 0 0  0 0 0  0 0 0  0 0 0  0 0 0  0 0 0  0 0 0  0 0 0  0 0 0  0 0 0  0 0 0  0 0 0  0 0 0  
            </DataArray>
            <DataArray type="Float64" Name="Traction" NumberOfComponents="3" format="ascii">
               0.00133923 0.00132121 -0.00350597  0.000290145 0.00157716 -0.00350597  0.000109486 0.00169813 -0.00350597  -3.17833e-05 0.00185187 -0.00350597  -2.12395e-05 0.00178767 -0.00350597  -2.1736e-05 0.00201417 -0.00350597  -0.000187346 0.00187657 -0.00350597  -0.000358874 0.00195804 -0.00350597  -0.00231024 0.0023245 -0.00350597  0.00150757 0.000300222 -0.00350597  0.000510598 0.00055294 -0.00350597  0.000221294 0.000656759 -0.00350597  7.84542e-05 0.000794085 -0.00350597  6.05348e-05 0.000775557 -0.00350597  0.000102109 0.000734785 -0.00350597  4.1124e-05 0.000492942 -0.00350597  -0.00030862 0.00034895 -0.00350597  -0.00195662 0.000412277 -0.00350597  0.00161962 0.000208432 -0.00350597  0.000640298 0.000273887 -0.00350597  0.000286932 0.000303121 -0.00350597  0.000108388 0.000391586 -0.00350597  8.33968e-05 0.000373604 -0.00350597  0.000103297 0.000297111 -0.00350597  -2.95246e-05 0.000103799 -0.00350597  -0.000480553 5.17473e-05 -0.00350597  -0.00192451 0.00031093 -0.00350597  0.0019602 0.000105973 -0.00350597  0.000889395 0.000117628 -0.00350597  0.000442801 9.48821e-05 -0.00350597  0.00019358 0.000149277 -0.00350597  5.95062e-05 0.000154813 -0.00350597  -3.6616e-05 5.81948e-05 -0.00350597  -0.0002521 -7.95845e-05 -0.00350597  -0.000778603 -5.96573e-05 -0.00350597  -0.00210301 0.000110846 -0.00350597  0.00203311 -0.000165984 -0.00350597  0.00103094 -8.39319e-05 -0.00350597  0.00055561 -0.000140061 -0.00350597  0.000253228 -6.94124e-05 -0.00350597  2.56289e-05 -2.39676e-05 -0.00350597  -0.000154889 -5.80106e-05 -0.00350597  -0.000374881 -9.93402e-05 -0.00350597  -0.000887147 -6.09779e-05 -0.00350597  -0.00190716 5.40748e-05 -0.00350597  0.0018783 -0.000393168 -0.00350597  0.00115213 -0.000355097 -0.00350597  0.00068716 -0.000433175 -0.00350597  0.000369894 -0.000328372 -0.00350597  7.00057e-05 -0.000230131 -0.00350597  -0.00017783 -0.000199675 -0.00350597  -0.000433097 -0.000153884 -0.00350597  -0.000954561 -0.000117052 -0.00350597  -0.00200244 4.96346e-05 -0.00350597  0.00189799 -0.000691082 -0.00350597  0.00132831 -0.000666085 -0.00350597  0.000828128 -0.000734055 -0.00350597  0.000475441 -0.000610461 -0.00350597  0.000122204 -0.000515723 -0.00350597  -0.000164521 -0.000446812 -0.00350597  -0.000406323 -0.000358052 -0.00350597  -0.000902486 -0.000323657 -0.00350597  -0.0019741 -0.000166962 -0.00350597  0.00157117 -0.00143666 -0.00350597  0.00131654 -0.00126205 -0.00350597  0.000770601 -0.00129721 -0.00350597  0.000410331 -0.00115507 -0.00350597  7.94509e-05 -0.00108288 -0.00350597  -0.000175663 -0.000997514 -0.00350597  -0.000395261 -0.000847952 -0.00350597  -0.000835548 -0.000771386 -0.00350597  -0.00179302 -0.000576988 -0.00350597  0.00134326 -0.00129882 -0.00350597  0.00150397 -0.00153227 -0.00350597  0.000821157 -0.00189168 -0.00350597  0.000500948 -0.00194121 -0.00350597  0.000192905 -0.0021597 -0.00350597  -0.000107846 -0.00208152 -0.00350597  -0.000263765 -0.00183523 -0.00350597  -0.000592929 -0.00169019 -0.00350597  -0.00144251 -0.00143939 -0.00350597  
            </DataArray>
         </PointData> 
      </Piece>
   </UnstructuredGrid> 
</VTKFile>
