<?xml version="1.0"?>
<VTKFile type="UnstructuredGrid" version="0.1" byte_order="LittleEndian">
   <UnstructuredGrid>
      <Piece NumberOfPoints="81" NumberOfCells="0" > 
         <Points> 
            <DataArray type="Float64" Name="Position" NumberOfComponents="3" format="ascii"> 
               0  0  15  
               0.375  0  15  
               0.75  0  15  
               1.125  0  15  
               1.5  0  15  
               1.875  0  15  
               2.25  0  15  
               2.625  0  15  
               3  0  15  
               0  0.375  15  
               0.375  0.375  15  
               0.75  0.375  15  
               1.125  0.375  15  
               1.5  0.375  15  
               1.875  0.375  15  
               2.25  0.375  15  
               2.625  0.375  15  
               3  0.375  15  
               0  0.75  15  
               0.375  0.75  15  
               0.75  0.75  15  
               1.125  0.75  15  
               1.5  0.75  15  
               1.875  0.75  15  
               2.25  0.75  15  
               2.625  0.75  15  
               3  0.75  15  
               0  1.125  15  
               0.375  1.125  15  
               0.75  1.125  15  
               1.125  1.125  15  
               1.5  1.125  15  
               1.875  1.125  15  
               2.25  1.125  15  
               2.625  1.125  15  
               3  1.125  15  
               0  1.5  15  
               0.375  1.5  15  
               0.75  1.5  15  
               1.125  1.5  15  
               1.5  1.5  15  
               1.875  1.5  15  
               2.25  1.5  15  
               2.625  1.5  15  
               3  1.5  15  
               0  1.875  15  
               0.375  1.875  15  
               0.75  1.875  15  
               1.125  1.875  15  
               1.5  1.875  15  
               1.875  1.875  15  
               2.25  1.875  15  
               2.625  1.875  15  
               3  1.875  15  
               0  2.25  15  
               0.375  2.25  15  
               0.75  2.25  15  
               1.125  2.25  15  
               1.5  2.25  15  
               1.875  2.25  15  
               2.25  2.25  15  
               2.625  2.25  15  
               3  2.25  15  
               0  2.625  15  
               0.375  2.625  15  
               0.75  2.625  15  
               1.125  2.625  15  
               1.5  2.625  15  
               1.875  2.625  15  
               2.25  2.625  15  
               2.625  2.625  15  
               3  2.625  15  
               0  3  15  
               0.375  3  15  
               0.75  3  15  
               1.125  3  15  
               1.5  3  15  
               1.875  3  15  
               2.25  3  15  
               2.625  3  15  
               3  3  15  
            </DataArray>
         </Points> 

         <Cells>
            <DataArray type="Int32" Name="connectivity" NumberOfComponents="1" format="ascii">
               
            </DataArray> 
            <DataArray type="Int32" Name="offsets" NumberOfComponents="1" format="ascii">
               
            </DataArray>
            <DataArray type="UInt8"  Name="types" NumberOfComponents="1" format="ascii">
               
            </DataArray>
         </Cells>
         <PointData Scalars="Rank " Vectors="Displacement Velocity Traction ">
            <DataArray type="UInt32" Name="Rank" NumberOfComponents="1" format="ascii">
               0 0 0 0 0 0 0 0 0 0 0 0 0 0 0 0 0 0 0 0 0 0 0 0 0 0 0 0 0 0 0 0 0 0 0 0 0 0 0 0 0 0 0 0 0 0 0 0 0 0 0 0 0 0 0 0 0 0 0 0 0 0 0 0 0 0 0 0 0 0 0 0 0 0 0 0 0 0 0 0 0 
            </DataArray>
            <DataArray type="Float64" Name="Displacement" NumberOfComponents="3" format="ascii">
               0 0 0  0 0 0  0 0 0  0 0 0  0 0 0  0 0 0  0 0 0  0 0 0  0 0 0  0 0 0  0 0 0  0 0 0  0 0 0  0 0 0  0 0 0  0 0 0  0 0 0  0 0 0  0 0 0  0 0 0  0 0 0  0 0 0  0 0 0  0 0 0  0 0 0  0 0 0  0 0 0  0 0 0  0 0 0  0 0 0  0 0 0  0 0 0  0 0 0  0 0 0  0 0 0  0 0 0  0 0 0  0 0 0  0 0 0  0 0 0  0 0 0  0 0 0  0 0 0  0 0 0  0 0 0  0 0 0  0 0 0  0 0 0  0 0 0  0 0 0  0 0 0  0 0 0  0 0 0  0 0 0  0 0 0  0 0 0  0 0 0  0 0 0  0 0 0  0 0 0  0 0 0  0 0 0  0 0 0  0 0 0  0 0 0  0 0 0  0 0 0  0 0 0  0 0 0  0 0 0  0 0 0  0 0 0  0 0 0  0 0 0  0 0 0  0 0 0  0 0 0  0 0 0  0 0 0  0 0 0  0 0 0  
            </DataArray>
            <DataArray type="Float64" Name="Velocity" NumberOfComponents="3" format="ascii">
               0 0 0  0 0 0  0 0 0  0 0 0  0 0 0  0 0 0  0 0 0  0 0 0  0 0 0  0 0 0  0 0 0  0 0 0  0 0 0  0 0 0  0 0 0  0 0 0  0 0 0  0 0 0  0 0 0  0 0 0  0 0 0  0 0 0  0 0 0  0 0 0  0 0 0  0 0 0  0 0 0  0 0 0  0 0 0  0 0 0  0 0 0  0 0 0  0 0 0  0 0 0  0 0 0  0 0 0  0 0 0  0 0 0  0 0 0  0 0 0  0 0 0  0 0 0  0 0 0  0 0 0  0 0 0  0 0 0  0 0 0  0 0 0  0 0 0  0 0 0  0 0 0  0 0 0  0 0 0  0 0 0  0 0 0  0 0 0  0 0 0  0 0 0  0 0 0  0 0 0  0 0 0  0 0 0  0 0 0  0 0 0  0 0 0  0 0 0  0 0 0  0 0 0  0 0 0  0 0 0  0 0 0  0 0 0  0 0 0  0 0 0  0 0 0  0 0 0  0 0 0  0 0 0  0 0 0  0 0 0  0 0 0  
            </DataArray>
            <DataArray type="Float64" Name="Traction" NumberOfComponents="3" format="ascii">
               0.0188787 0.0178327 0.119636  0.0112216 0.0119694 0.119636  0.0049464 0.00528698 0.119636  0.00394356 0.00644683 0.119636  -0.00468629 0.00813424 0.119636  -0.00683386 0.00690033 0.119636  -0.00120859 0.00650863 0.119636  -0.019156 0.0176079 0.119636  -0.0305325 0.0265803 0.119636  0.013088 0.010015 0.119636  0.00902185 0.00793101 0.119636  0.00731253 0.00244219 0.119636  0.00591596 0.00217458 0.119636  -0.0028909 0.00244148 0.119636  -0.00467376 0.00308303 0.119636  0.00631312 0.00248523 0.119636  -0.0100289 0.00958693 0.119636  -0.0192703 0.0172682 0.119636  0.00648374 0.00322527 0.119636  0.00331357 0.00590655 0.119636  0.00498077 0.00377739 0.119636  0.00647009 0.00264416 0.119636  -0.00196081 0.00244206 0.119636  -0.00478985 0.00340362 0.119636  0.0106169 0.00334922 0.119636  -0.00322407 0.00477364 0.119636  -0.00788357 0.00734623 0.119636  0.00688272 0.0018791 0.119636  0.0025633 0.00431458 0.119636  0.00351713 0.00504661 0.119636  0.00545516 0.00422082 0.119636  -0.0018029 0.00403641 0.119636  -0.00424443 0.00448082 0.119636  0.0101977 0.00459611 0.119636  -0.00295144 0.00471772 0.119636  -0.00712114 0.00688812 0.119636  0.00785559 -0.00614478 0.119636  0.00227283 -0.00411418 0.119636  0.00294386 -0.00300522 0.119636  0.00513113 -0.00295559 0.119636  -0.00243161 -0.00375903 0.119636  -0.00444704 -0.00335917 0.119636  0.0100938 -0.00366901 0.119636  -0.00312073 -0.00210144 0.119636  -0.00901889 -0.000560229 0.119636  0.00667365 -0.00750842 0.119636  0.00230294 -0.00505396 0.119636  0.00333005 -0.00502821 0.119636  0.00509404 -0.00492074 0.119636  -0.00220736 -0.00561496 0.119636  -0.00393782 -0.0052377 0.119636  0.0112911 -0.00641762 0.119636  -0.00204451 -0.00519993 0.119636  -0.00685175 -0.00419018 0.119636  0.00549995 -0.000908161 0.119636  0.000741831 0.00699411 0.119636  0.00256764 0.0113467 0.119636  0.0047752 0.0102045 0.119636  -0.00261445 0.00951563 0.119636  -0.0049164 0.0103402 0.119636  0.0100303 0.00873673 0.119636  -0.00226424 0.00272811 0.119636  -0.00605118 0.00202046 0.119636  0.0174027 -0.0170364 0.119636  0.00764002 -0.00811769 0.119636  0.00404521 -0.00149617 0.119636  0.00505001 -0.00222808 0.119636  -0.000874151 -0.00303466 0.119636  -0.00353799 -0.0025073 0.119636  0.00421519 -0.00321744 0.119636  -0.00719916 -0.00838923 0.119636  -0.0123798 -0.0104036 0.119636  0.0273153 -0.0314199 0.119636  0.0150383 -0.01909 0.119636  0.00697624 -0.00689035 0.119636  0.00746943 -0.00676124 0.119636  0.000901767 -0.00848585 0.119636  -0.00202195 -0.00716315 0.119636  0.00385544 -0.0072476 0.119636  -0.0090097 -0.0135643 0.119636  -0.0178975 -0.0191574 0.119636  
            </DataArray>
         </PointData> 
      </Piece>
   </UnstructuredGrid> 
</VTKFile>
