<?xml version="1.0"?>
<VTKFile type="UnstructuredGrid" version="0.1" byte_order="LittleEndian">
   <UnstructuredGrid>
      <Piece NumberOfPoints="81" NumberOfCells="0" > 
         <Points> 
            <DataArray type="Float64" Name="Position" NumberOfComponents="3" format="ascii"> 
               0  0  20  
               0.375  0  20  
               0.75  0  20  
               1.125  0  20  
               1.5  0  20  
               1.875  0  20  
               2.25  0  20  
               2.625  0  20  
               3  0  20  
               0  0.375  20  
               0.375  0.375  20  
               0.75  0.375  20  
               1.125  0.375  20  
               1.5  0.375  20  
               1.875  0.375  20  
               2.25  0.375  20  
               2.625  0.375  20  
               3  0.375  20  
               0  0.75  20  
               0.375  0.75  20  
               0.75  0.75  20  
               1.125  0.75  20  
               1.5  0.75  20  
               1.875  0.75  20  
               2.25  0.75  20  
               2.625  0.75  20  
               3  0.75  20  
               0  1.125  20  
               0.375  1.125  20  
               0.75  1.125  20  
               1.125  1.125  20  
               1.5  1.125  20  
               1.875  1.125  20  
               2.25  1.125  20  
               2.625  1.125  20  
               3  1.125  20  
               0  1.5  20  
               0.375  1.5  20  
               0.75  1.5  20  
               1.125  1.5  20  
               1.5  1.5  20  
               1.875  1.5  20  
               2.25  1.5  20  
               2.625  1.5  20  
               3  1.5  20  
               0  1.875  20  
               0.375  1.875  20  
               0.75  1.875  20  
               1.125  1.875  20  
               1.5  1.875  20  
               1.875  1.875  20  
               2.25  1.875  20  
               2.625  1.875  20  
               3  1.875  20  
               0  2.25  20  
               0.375  2.25  20  
               0.75  2.25  20  
               1.125  2.25  20  
               1.5  2.25  20  
               1.875  2.25  20  
               2.25  2.25  20  
               2.625  2.25  20  
               3  2.25  20  
               0  2.625  20  
               0.375  2.625  20  
               0.75  2.625  20  
               1.125  2.625  20  
               1.5  2.625  20  
               1.875  2.625  20  
               2.25  2.625  20  
               2.625  2.625  20  
               3  2.625  20  
               0  3  20  
               0.375  3  20  
               0.75  3  20  
               1.125  3  20  
               1.5  3  20  
               1.875  3  20  
               2.25  3  20  
               2.625  3  20  
               3  3  20  
            </DataArray>
         </Points> 

         <Cells>
            <DataArray type="Int32" Name="connectivity" NumberOfComponents="1" format="ascii">
               
            </DataArray> 
            <DataArray type="Int32" Name="offsets" NumberOfComponents="1" format="ascii">
               
            </DataArray>
            <DataArray type="UInt8"  Name="types" NumberOfComponents="1" format="ascii">
               
            </DataArray>
         </Cells>
         <PointData Scalars="Rank " Vectors="Displacement Velocity Traction ">
            <DataArray type="UInt32" Name="Rank" NumberOfComponents="1" format="ascii">
               0 0 0 0 0 0 0 0 0 0 0 0 0 0 0 0 0 0 0 0 0 0 0 0 0 0 0 0 0 0 0 0 0 0 0 0 0 0 0 0 0 0 0 0 0 0 0 0 0 0 0 0 0 0 0 0 0 0 0 0 0 0 0 0 0 0 0 0 0 0 0 0 0 0 0 0 0 0 0 0 0 
            </DataArray>
            <DataArray type="Float64" Name="Displacement" NumberOfComponents="3" format="ascii">
               0.00101228 0.00101298 -0.00404524  0.000445557 0.00132347 -0.0041873  0.000199459 0.0016321 -0.0039568  1.17525e-06 0.00163824 -0.00389451  -9.66519e-05 0.0016171 -0.00390298  -0.000291806 0.00170654 -0.00381155  -0.000554569 0.00159059 -0.00393799  -0.000361633 0.00107337 -0.00415116  -0.000621071 0.00108324 -0.00371988  0.0013244 0.000446221 -0.00418794  0.00063019 0.00062979 -0.00414095  0.000326722 0.000790079 -0.00379392  0.000100621 0.000821017 -0.00372787  2.37903e-05 0.000859623 -0.00374156  -0.000115619 0.000829375 -0.00366935  -0.000510287 0.000880668 -0.00381379  -0.000611766 0.000641233 -0.00425199  -0.00101674 0.000666749 -0.00408084  0.00163285 0.000199298 -0.00395782  0.000790651 0.000326686 -0.00379411  0.000431818 0.000431645 -0.00324336  5.95628e-05 0.000504366 -0.00311549  -2.16972e-06 0.000511578 -0.00314144  -7.92219e-05 0.000512242 -0.00310423  -0.000556677 0.000573387 -0.00324697  -0.0008454 0.000482383 -0.00382298  -0.00154548 0.000557581 -0.00391273  0.00163853 9.88138e-08 -0.00389489  0.000821158 9.99635e-05 -0.00372769  0.000504451 5.90189e-05 -0.00311514  0.000141261 0.000140717 -0.00293573  8.28412e-07 0.0001197 -0.00295652  -0.000128852 0.0001611 -0.00294461  -0.000481497 0.000131899 -0.00311465  -0.000789528 0.000152852 -0.00368967  -0.00165157 0.000192359 -0.00381386  0.00161735 -9.78748e-05 -0.00390336  0.000859611 2.25281e-05 -0.00374138  0.000511509 -3.32746e-06 -0.0031411  0.0001202 -2.66319e-07 -0.00295657  2.99467e-05 2.88802e-05 -0.00298419  -6.37811e-05 3.06915e-05 -0.002956  -0.00045041 5.94638e-05 -0.00313588  -0.000765085 3.5445e-05 -0.00373114  -0.00149907 0.000172071 -0.00387194  0.00170682 -0.000292421 -0.0038123  0.000829559 -0.000116767 -0.00366943  0.000512256 -8.03541e-05 -0.00310401  0.000161635 -0.000129913 -0.00294472  3.17984e-05 -6.48185e-05 -0.00295611  -0.000108563 -0.000109695 -0.00292866  -0.000478213 -8.26556e-06 -0.00310404  -0.000781956 -8.28322e-05 -0.00370601  -0.00160538 0.00016042 -0.00384716  0.00159147 -0.000555399 -0.00393853  0.000881153 -0.000510841 -0.00381357  0.000573532 -0.000557293 -0.00324646  0.000132567 -0.000482477 -0.00311445  6.06874e-05 -0.000451282 -0.00313568  -7.1329e-06 -0.000479271 -0.00310375  -0.000393641 -0.000394724 -0.0032404  -0.000741095 -0.000326705 -0.00379557  -0.0015794 -0.000183261 -0.00392894  0.00107474 -0.000364307 -0.00415216  0.000641908 -0.000613348 -0.00425196  0.00048267 -0.000846685 -0.00382281  0.00015372 -0.000791098 -0.0036899  3.6854e-05 -0.000766537 -0.00373125  -8.16985e-05 -0.00078362 -0.00370601  -0.000325998 -0.00074303 -0.0037959  -0.00059773 -0.00059924 -0.00415131  -0.0012745 -0.00045553 -0.00416922  0.00108484 -0.000624751 -0.00372335  0.000667946 -0.00101958 -0.00408259  0.000558117 -0.00154767 -0.0039139  0.000193029 -0.00165353 -0.00381536  0.000173644 -0.00150106 -0.00387331  0.000162052 -0.00160762 -0.0038485  -0.00018275 -0.00158189 -0.00393083  -0.000455836 -0.00127679 -0.00417048  -0.00101014 -0.00100981 -0.00401  
            </DataArray>
            <DataArray type="Float64" Name="Velocity" NumberOfComponents="3" format="ascii">
               0.00171048 0.001713 -0.00635905  0.000486672 0.00236711 -0.00640341  0.000168996 0.00293255 -0.00596677  -3.97343e-05 0.0029642 -0.00586917  -0.000147553 0.00288801 -0.00590341  -0.000342172 0.00305483 -0.00577554  -0.00076871 0.00290112 -0.00593411  -0.000576595 0.00198562 -0.00634113  -0.00130581 0.00191926 -0.00601199  0.00236469 0.000488774 -0.00640202  0.000913524 0.000915729 -0.00602564  0.000437361 0.00118357 -0.00531042  9.93272e-05 0.00124533 -0.00520084  2.4551e-05 0.00127877 -0.005245  -0.000116122 0.00125596 -0.00512891  -0.000682484 0.00133814 -0.00532935  -0.000881674 0.000915392 -0.00616232  -0.00192341 0.000976576 -0.00625781  0.00293023 0.000170633 -0.00596613  0.00118221 0.000439487 -0.00531096  0.00062489 0.000626438 -0.00417343  3.30795e-05 0.000739457 -0.00396938  -1.7294e-05 0.000731798 -0.00403579  -6.77508e-05 0.000744586 -0.00395602  -0.000793377 0.000834177 -0.00417154  -0.00126386 0.000652327 -0.00534308  -0.00281857 0.000765857 -0.00590235  0.00296096 -3.79484e-05 -0.005868  0.00124328 0.000101271 -0.0052014  0.000738139 3.52417e-05 -0.00396942  0.00015382 0.000155515 -0.00369298  2.65258e-06 0.000114326 -0.00374849  -0.000136119 0.000178436 -0.00370168  -0.000705033 0.000125988 -0.00396465  -0.00120259 0.000165372 -0.00515194  -0.00298281 0.000195083 -0.00577731  0.00288515 -0.00014594 -0.0059021  0.00127653 2.59914e-05 -0.00524544  0.000730164 -1.56041e-05 -0.0040356  0.000112536 4.33198e-06 -0.00374825  4.08955e-05 4.2603e-05 -0.00380821  -3.37206e-05 3.86555e-05 -0.00374663  -0.000640908 8.83173e-05 -0.00402923  -0.00114039 4.55204e-05 -0.00523055  -0.00271976 0.000254745 -0.00586303  0.00305185 -0.000340414 -0.00577469  0.00125382 -0.000114599 -0.00512954  0.000742928 -6.64407e-05 -0.00395574  0.000176517 -0.000134738 -0.00370115  3.69025e-05 -3.22328e-05 -0.00374641  -0.000114998 -0.000113712 -0.00368321  -0.00070719 5.33398e-05 -0.00395605  -0.0011939 -8.1823e-05 -0.00517613  -0.00291988 0.000278231 -0.00581222  0.00289862 -0.000766954 -0.00593318  0.00133569 -0.000680575 -0.00532972  0.000831923 -0.000791718 -0.0041714  0.000124166 -0.000704468 -0.00396444  8.65779e-05 -0.000640114 -0.00402914  5.15038e-05 -0.000706678 -0.0039562  -0.0005617 -0.000560748 -0.00416701  -0.00112001 -0.000436032 -0.00531404  -0.00287068 -0.000146314 -0.00593605  0.00198433 -0.000576307 -0.00634172  0.00091355 -0.000880831 -0.00616312  0.000649917 -0.00126203 -0.00534348  0.000163298 -0.0012018 -0.00515279  4.37683e-05 -0.0011395 -0.00523127  -8.38005e-05 -0.00119319 -0.00517701  -0.000437657 -0.0011192 -0.00531493  -0.000873881 -0.000872096 -0.00604016  -0.00230797 -0.00050586 -0.00638418  0.00191873 -0.00130634 -0.00601417  0.000975314 -0.00192386 -0.00625899  0.000763577 -0.00281711 -0.00590187  0.000193128 -0.0029811 -0.0057771  0.00025287 -0.00271848 -0.00586244  0.000275487 -0.00291844 -0.00581185  -0.000148324 -0.00286881 -0.00593582  -0.000507398 -0.00230548 -0.00638276  -0.00171311 -0.00171092 -0.00631847  
            </DataArray>
            <DataArray type="Float64" Name="Traction" NumberOfComponents="3" format="ascii">
               0 0 0  0 0 0  0 0 0  0 0 0  0 0 0  0 0 0  0 0 0  0 0 0  0 0 0  0 0 0  0 0 0  0 0 0  0 0 0  0 0 0  0 0 0  0 0 0  0 0 0  0 0 0  0 0 0  0 0 0  0 0 0  0 0 0  0 0 0  0 0 0  0 0 0  0 0 0  0 0 0  0 0 0  0 0 0  0 0 0  0 0 0  0 0 0  0 0 0  0 0 0  0 0 0  0 0 0  0 0 0  0 0 0  0 0 0  0 0 0  0 0 0  0 0 0  0 0 0  0 0 0  0 0 0  0 0 0  0 0 0  0 0 0  0 0 0  0 0 0  0 0 0  0 0 0  0 0 0  0 0 0  0 0 0  0 0 0  0 0 0  0 0 0  0 0 0  0 0 0  0 0 0  0 0 0  0 0 0  0 0 0  0 0 0  0 0 0  0 0 0  0 0 0  0 0 0  0 0 0  0 0 0  0 0 0  0 0 0  0 0 0  0 0 0  0 0 0  0 0 0  0 0 0  0 0 0  0 0 0  0 0 0  
            </DataArray>
         </PointData> 
      </Piece>
   </UnstructuredGrid> 
</VTKFile>
