<?xml version="1.0"?>
<VTKFile type="UnstructuredGrid" version="0.1" byte_order="LittleEndian">
   <UnstructuredGrid>
      <Piece NumberOfPoints="81" NumberOfCells="0" > 
         <Points> 
            <DataArray type="Float64" Name="Position" NumberOfComponents="3" format="ascii"> 
               0  0  15  
               0.375  0  15  
               0.75  0  15  
               1.125  0  15  
               1.5  0  15  
               1.875  0  15  
               2.25  0  15  
               2.625  0  15  
               3  0  15  
               0  0.375  15  
               0.375  0.375  15  
               0.75  0.375  15  
               1.125  0.375  15  
               1.5  0.375  15  
               1.875  0.375  15  
               2.25  0.375  15  
               2.625  0.375  15  
               3  0.375  15  
               0  0.75  15  
               0.375  0.75  15  
               0.75  0.75  15  
               1.125  0.75  15  
               1.5  0.75  15  
               1.875  0.75  15  
               2.25  0.75  15  
               2.625  0.75  15  
               3  0.75  15  
               0  1.125  15  
               0.375  1.125  15  
               0.75  1.125  15  
               1.125  1.125  15  
               1.5  1.125  15  
               1.875  1.125  15  
               2.25  1.125  15  
               2.625  1.125  15  
               3  1.125  15  
               0  1.5  15  
               0.375  1.5  15  
               0.75  1.5  15  
               1.125  1.5  15  
               1.5  1.5  15  
               1.875  1.5  15  
               2.25  1.5  15  
               2.625  1.5  15  
               3  1.5  15  
               0  1.875  15  
               0.375  1.875  15  
               0.75  1.875  15  
               1.125  1.875  15  
               1.5  1.875  15  
               1.875  1.875  15  
               2.25  1.875  15  
               2.625  1.875  15  
               3  1.875  15  
               0  2.25  15  
               0.375  2.25  15  
               0.75  2.25  15  
               1.125  2.25  15  
               1.5  2.25  15  
               1.875  2.25  15  
               2.25  2.25  15  
               2.625  2.25  15  
               3  2.25  15  
               0  2.625  15  
               0.375  2.625  15  
               0.75  2.625  15  
               1.125  2.625  15  
               1.5  2.625  15  
               1.875  2.625  15  
               2.25  2.625  15  
               2.625  2.625  15  
               3  2.625  15  
               0  3  15  
               0.375  3  15  
               0.75  3  15  
               1.125  3  15  
               1.5  3  15  
               1.875  3  15  
               2.25  3  15  
               2.625  3  15  
               3  3  15  
            </DataArray>
         </Points> 

         <Cells>
            <DataArray type="Int32" Name="connectivity" NumberOfComponents="1" format="ascii">
               
            </DataArray> 
            <DataArray type="Int32" Name="offsets" NumberOfComponents="1" format="ascii">
               
            </DataArray>
            <DataArray type="UInt8"  Name="types" NumberOfComponents="1" format="ascii">
               
            </DataArray>
         </Cells>
         <PointData Scalars="Rank " Vectors="Displacement Velocity Traction ">
            <DataArray type="UInt32" Name="Rank" NumberOfComponents="1" format="ascii">
               0 0 0 0 0 0 0 0 0 0 0 0 0 0 0 0 0 0 0 0 0 0 0 0 0 0 0 0 0 0 0 0 0 0 0 0 0 0 0 0 0 0 0 0 0 0 0 0 0 0 0 0 0 0 0 0 0 0 0 0 0 0 0 0 0 0 0 0 0 0 0 0 0 0 0 0 0 0 0 0 0 
            </DataArray>
            <DataArray type="Float64" Name="Displacement" NumberOfComponents="3" format="ascii">
               0 0 0  0 0 0  0 0 0  0 0 0  0 0 0  0 0 0  0 0 0  0 0 0  0 0 0  0 0 0  0 0 0  0 0 0  0 0 0  0 0 0  0 0 0  0 0 0  0 0 0  0 0 0  0 0 0  0 0 0  0 0 0  0 0 0  0 0 0  0 0 0  0 0 0  0 0 0  0 0 0  0 0 0  0 0 0  0 0 0  0 0 0  0 0 0  0 0 0  0 0 0  0 0 0  0 0 0  0 0 0  0 0 0  0 0 0  0 0 0  0 0 0  0 0 0  0 0 0  0 0 0  0 0 0  0 0 0  0 0 0  0 0 0  0 0 0  0 0 0  0 0 0  0 0 0  0 0 0  0 0 0  0 0 0  0 0 0  0 0 0  0 0 0  0 0 0  0 0 0  0 0 0  0 0 0  0 0 0  0 0 0  0 0 0  0 0 0  0 0 0  0 0 0  0 0 0  0 0 0  0 0 0  0 0 0  0 0 0  0 0 0  0 0 0  0 0 0  0 0 0  0 0 0  0 0 0  0 0 0  0 0 0  
            </DataArray>
            <DataArray type="Float64" Name="Velocity" NumberOfComponents="3" format="ascii">
               0 0 0  0 0 0  0 0 0  0 0 0  0 0 0  0 0 0  0 0 0  0 0 0  0 0 0  0 0 0  0 0 0  0 0 0  0 0 0  0 0 0  0 0 0  0 0 0  0 0 0  0 0 0  0 0 0  0 0 0  0 0 0  0 0 0  0 0 0  0 0 0  0 0 0  0 0 0  0 0 0  0 0 0  0 0 0  0 0 0  0 0 0  0 0 0  0 0 0  0 0 0  0 0 0  0 0 0  0 0 0  0 0 0  0 0 0  0 0 0  0 0 0  0 0 0  0 0 0  0 0 0  0 0 0  0 0 0  0 0 0  0 0 0  0 0 0  0 0 0  0 0 0  0 0 0  0 0 0  0 0 0  0 0 0  0 0 0  0 0 0  0 0 0  0 0 0  0 0 0  0 0 0  0 0 0  0 0 0  0 0 0  0 0 0  0 0 0  0 0 0  0 0 0  0 0 0  0 0 0  0 0 0  0 0 0  0 0 0  0 0 0  0 0 0  0 0 0  0 0 0  0 0 0  0 0 0  0 0 0  0 0 0  
            </DataArray>
            <DataArray type="Float64" Name="Traction" NumberOfComponents="3" format="ascii">
               0.0180893 0.0177557 -0.0343327  0.0095177 0.020644 -0.0343327  0.00419057 0.0217314 -0.0343327  0.00141654 0.0227436 -0.0343327  -0.00181882 0.0229861 -0.0343327  -0.00394193 0.0231346 -0.0343327  -0.0060121 0.0226463 -0.0343327  -0.0139732 0.022551 -0.0343327  -0.0246371 0.0241426 -0.0343327  0.0210642 0.00906646 -0.0343327  0.011645 0.0112573 -0.0343327  0.00639657 0.0112728 -0.0343327  0.0031182 0.0116729 -0.0343327  -0.000243806 0.0116016 -0.0343327  -0.00247815 0.0118928 -0.0343327  -0.00399153 0.0115265 -0.0343327  -0.0116177 0.0116458 -0.0343327  -0.0227695 0.0139139 -0.0343327  0.0221464 0.00344022 -0.0343327  0.0115133 0.00588329 -0.0343327  0.00632738 0.00596902 -0.0343327  0.00326707 0.00601004 -0.0343327  7.94012e-06 0.00584556 -0.0343327  -0.00260091 0.0061412 -0.0343327  -0.00425771 0.00598078 -0.0343327  -0.0115531 0.00567468 -0.0343327  -0.0227646 0.00721444 -0.0343327  0.0227159 0.000501229 -0.0343327  0.0115951 0.00252703 -0.0343327  0.00616298 0.00283244 -0.0343327  0.00313942 0.00281832 -0.0343327  5.26673e-05 0.00269229 -0.0343327  -0.00257938 0.00281753 -0.0343327  -0.0044971 0.00275776 -0.0343327  -0.0117576 0.00267074 -0.0343327  -0.0231126 0.00413624 -0.0343327  0.0225905 -0.00233771 -0.0343327  0.0111578 -0.000599028 -0.0343327  0.00574548 -0.000182898 -0.0343327  0.00290856 -0.000215006 -0.0343327  -0.000113086 -0.000485222 -0.0343327  -0.00251585 -0.000402655 -0.0343327  -0.00427595 -0.000370459 -0.0343327  -0.0115183 -0.000197553 -0.0343327  -0.0230846 0.00124542 -0.0343327  0.0229218 -0.00400443 -0.0343327  0.0110993 -0.00231208 -0.0343327  0.00569371 -0.00229908 -0.0343327  0.00273098 -0.00256643 -0.0343327  -0.000129676 -0.00281079 -0.0343327  -0.00241647 -0.00281634 -0.0343327  -0.00413952 -0.00280111 -0.0343327  -0.0113703 -0.00259633 -0.0343327  -0.0229927 -0.00103589 -0.0343327  0.0219562 -0.00553231 -0.0343327  0.0100981 -0.00321877 -0.0343327  0.0050674 -0.00345328 -0.0343327  0.00238326 -0.00416744 -0.0343327  -0.000164862 -0.00429916 -0.0343327  -0.00227309 -0.00441095 -0.0343327  -0.00389967 -0.00438114 -0.0343327  -0.0107737 -0.00463776 -0.0343327  -0.0220779 -0.00267038 -0.0343327  0.0225209 -0.0123031 -0.0343327  0.010067 -0.0101383 -0.0343327  0.00480591 -0.0102313 -0.0343327  0.00244105 -0.0110957 -0.0343327  0.000168421 -0.0112264 -0.0343327  -0.00192054 -0.0114285 -0.0343327  -0.00401146 -0.0111359 -0.0343327  -0.0105781 -0.0110728 -0.0343327  -0.0212511 -0.00865979 -0.0343327  0.0249788 -0.0255971 -0.0343327  0.0121315 -0.0228186 -0.0343327  0.00662916 -0.0221584 -0.0343327  0.00410158 -0.0228647 -0.0343327  0.00177235 -0.0225704 -0.0343327  -1.6063e-05 -0.022974 -0.0343327  -0.00181687 -0.022595 -0.0343327  -0.0080999 -0.02176 -0.0343327  -0.0185329 -0.0189948 -0.0343327  
            </DataArray>
         </PointData> 
      </Piece>
   </UnstructuredGrid> 
</VTKFile>
