<?xml version="1.0"?>
<VTKFile type="UnstructuredGrid" version="0.1" byte_order="LittleEndian">
   <UnstructuredGrid>
      <Piece NumberOfPoints="81" NumberOfCells="0" > 
         <Points> 
            <DataArray type="Float64" Name="Position" NumberOfComponents="3" format="ascii"> 
               0  0  15  
               0.375  0  15  
               0.75  0  15  
               1.125  0  15  
               1.5  0  15  
               1.875  0  15  
               2.25  0  15  
               2.625  0  15  
               3  0  15  
               0  0.375  15  
               0.375  0.375  15  
               0.75  0.375  15  
               1.125  0.375  15  
               1.5  0.375  15  
               1.875  0.375  15  
               2.25  0.375  15  
               2.625  0.375  15  
               3  0.375  15  
               0  0.75  15  
               0.375  0.75  15  
               0.75  0.75  15  
               1.125  0.75  15  
               1.5  0.75  15  
               1.875  0.75  15  
               2.25  0.75  15  
               2.625  0.75  15  
               3  0.75  15  
               0  1.125  15  
               0.375  1.125  15  
               0.75  1.125  15  
               1.125  1.125  15  
               1.5  1.125  15  
               1.875  1.125  15  
               2.25  1.125  15  
               2.625  1.125  15  
               3  1.125  15  
               0  1.5  15  
               0.375  1.5  15  
               0.75  1.5  15  
               1.125  1.5  15  
               1.5  1.5  15  
               1.875  1.5  15  
               2.25  1.5  15  
               2.625  1.5  15  
               3  1.5  15  
               0  1.875  15  
               0.375  1.875  15  
               0.75  1.875  15  
               1.125  1.875  15  
               1.5  1.875  15  
               1.875  1.875  15  
               2.25  1.875  15  
               2.625  1.875  15  
               3  1.875  15  
               0  2.25  15  
               0.375  2.25  15  
               0.75  2.25  15  
               1.125  2.25  15  
               1.5  2.25  15  
               1.875  2.25  15  
               2.25  2.25  15  
               2.625  2.25  15  
               3  2.25  15  
               0  2.625  15  
               0.375  2.625  15  
               0.75  2.625  15  
               1.125  2.625  15  
               1.5  2.625  15  
               1.875  2.625  15  
               2.25  2.625  15  
               2.625  2.625  15  
               3  2.625  15  
               0  3  15  
               0.375  3  15  
               0.75  3  15  
               1.125  3  15  
               1.5  3  15  
               1.875  3  15  
               2.25  3  15  
               2.625  3  15  
               3  3  15  
            </DataArray>
         </Points> 

         <Cells>
            <DataArray type="Int32" Name="connectivity" NumberOfComponents="1" format="ascii">
               
            </DataArray> 
            <DataArray type="Int32" Name="offsets" NumberOfComponents="1" format="ascii">
               
            </DataArray>
            <DataArray type="UInt8"  Name="types" NumberOfComponents="1" format="ascii">
               
            </DataArray>
         </Cells>
         <PointData Scalars="Rank " Vectors="Displacement Velocity Traction ">
            <DataArray type="UInt32" Name="Rank" NumberOfComponents="1" format="ascii">
               0 0 0 0 0 0 0 0 0 0 0 0 0 0 0 0 0 0 0 0 0 0 0 0 0 0 0 0 0 0 0 0 0 0 0 0 0 0 0 0 0 0 0 0 0 0 0 0 0 0 0 0 0 0 0 0 0 0 0 0 0 0 0 0 0 0 0 0 0 0 0 0 0 0 0 0 0 0 0 0 0 
            </DataArray>
            <DataArray type="Float64" Name="Displacement" NumberOfComponents="3" format="ascii">
               0 0 0  0 0 0  0 0 0  0 0 0  0 0 0  0 0 0  0 0 0  0 0 0  0 0 0  0 0 0  0 0 0  0 0 0  0 0 0  0 0 0  0 0 0  0 0 0  0 0 0  0 0 0  0 0 0  0 0 0  0 0 0  0 0 0  0 0 0  0 0 0  0 0 0  0 0 0  0 0 0  0 0 0  0 0 0  0 0 0  0 0 0  0 0 0  0 0 0  0 0 0  0 0 0  0 0 0  0 0 0  0 0 0  0 0 0  0 0 0  0 0 0  0 0 0  0 0 0  0 0 0  0 0 0  0 0 0  0 0 0  0 0 0  0 0 0  0 0 0  0 0 0  0 0 0  0 0 0  0 0 0  0 0 0  0 0 0  0 0 0  0 0 0  0 0 0  0 0 0  0 0 0  0 0 0  0 0 0  0 0 0  0 0 0  0 0 0  0 0 0  0 0 0  0 0 0  0 0 0  0 0 0  0 0 0  0 0 0  0 0 0  0 0 0  0 0 0  0 0 0  0 0 0  0 0 0  0 0 0  0 0 0  
            </DataArray>
            <DataArray type="Float64" Name="Velocity" NumberOfComponents="3" format="ascii">
               0 0 0  0 0 0  0 0 0  0 0 0  0 0 0  0 0 0  0 0 0  0 0 0  0 0 0  0 0 0  0 0 0  0 0 0  0 0 0  0 0 0  0 0 0  0 0 0  0 0 0  0 0 0  0 0 0  0 0 0  0 0 0  0 0 0  0 0 0  0 0 0  0 0 0  0 0 0  0 0 0  0 0 0  0 0 0  0 0 0  0 0 0  0 0 0  0 0 0  0 0 0  0 0 0  0 0 0  0 0 0  0 0 0  0 0 0  0 0 0  0 0 0  0 0 0  0 0 0  0 0 0  0 0 0  0 0 0  0 0 0  0 0 0  0 0 0  0 0 0  0 0 0  0 0 0  0 0 0  0 0 0  0 0 0  0 0 0  0 0 0  0 0 0  0 0 0  0 0 0  0 0 0  0 0 0  0 0 0  0 0 0  0 0 0  0 0 0  0 0 0  0 0 0  0 0 0  0 0 0  0 0 0  0 0 0  0 0 0  0 0 0  0 0 0  0 0 0  0 0 0  0 0 0  0 0 0  0 0 0  0 0 0  
            </DataArray>
            <DataArray type="Float64" Name="Traction" NumberOfComponents="3" format="ascii">
               5.97727e-12 5.97114e-12 1.76923e-10  -2.68919e-12 6.15232e-13 1.76923e-10  9.3196e-13 -4.80215e-12 1.76923e-10  1.39061e-12 -3.53053e-13 1.76923e-10  1.05895e-13 4.113e-12 1.76923e-10  -1.18982e-12 3.96779e-13 1.76923e-10  -6.93386e-13 -3.34277e-12 1.76923e-10  1.87021e-12 5.63467e-13 1.76923e-10  -4.26436e-12 4.44251e-12 1.76923e-10  1.06929e-12 -2.49816e-12 1.76923e-10  -7.85867e-13 -5.561e-13 1.76923e-10  1.20861e-13 1.3808e-12 1.76923e-10  4.1075e-13 -3.29949e-13 1.76923e-10  5.32839e-15 -2.04313e-12 1.76923e-10  -3.49224e-13 -6.31985e-13 1.76923e-10  -1.86633e-13 7.79527e-13 1.76923e-10  8.80791e-13 -3.65336e-13 1.76923e-10  -1.59505e-12 -1.51618e-12 1.76923e-10  -3.89081e-12 6.56871e-13 1.76923e-10  1.11043e-12 -2.07715e-14 1.76923e-10  -6.95361e-13 -7.08451e-13 1.76923e-10  -5.56506e-13 -1.29596e-13 1.76923e-10  -9.97474e-14 4.48832e-13 1.76923e-10  4.8268e-13 -5.39455e-14 1.76923e-10  3.20067e-13 -5.58206e-13 1.76923e-10  -1.00952e-13 3.5572e-14 1.76923e-10  1.07437e-12 6.26529e-13 1.76923e-10  -3.09034e-12 1.79094e-13 1.76923e-10  6.76586e-13 -4.02158e-14 1.76923e-10  -5.28502e-13 -2.55648e-13 1.76923e-10  -1.45353e-13 9.87569e-14 1.76923e-10  -9.93262e-14 4.5147e-13 1.76923e-10  1.17207e-13 1.30626e-13 1.76923e-10  1.07082e-13 -1.87813e-13 1.76923e-10  4.12171e-13 6.6419e-14 1.76923e-10  -1.1388e-13 3.26587e-13 1.76923e-10  -2.29772e-12 2.05614e-13 1.76923e-10  2.40005e-13 9.24212e-14 1.76923e-10  -3.64475e-13 -2.28824e-14 1.76923e-10  2.69873e-13 4.75251e-14 1.76923e-10  -9.78362e-14 1.19804e-13 1.76923e-10  -2.51179e-13 2.8221e-14 1.76923e-10  -1.07735e-13 -6.49293e-14 1.76923e-10  9.29203e-13 1.17951e-14 1.76923e-10  -1.323e-12 8.40465e-14 1.76923e-10  -2.67858e-12 -2.42387e-13 1.76923e-10  6.49448e-13 1.28791e-13 1.76923e-10  -4.59893e-13 5.00187e-13 1.76923e-10  -1.69309e-13 5.27102e-14 1.76923e-10  -1.19538e-13 -3.94285e-13 1.76923e-10  7.69321e-14 -4.46492e-14 1.76923e-10  2.48882e-14 3.03856e-13 1.76923e-10  5.33312e-13 3.4854e-14 1.76923e-10  -5.90112e-13 -2.34738e-13 1.76923e-10  -3.05535e-12 3.87792e-13 1.76923e-10  1.059e-12 3.34544e-13 1.76923e-10  -5.5302e-13 2.83075e-13 1.76923e-10  -6.09547e-13 1.55211e-13 1.76923e-10  -1.41924e-13 2.84185e-14 1.76923e-10  4.05948e-13 6.72215e-14 1.76923e-10  1.60172e-13 1.04636e-13 1.76923e-10  1.34931e-13 -1.20141e-13 1.76923e-10  1.70834e-13 -3.41637e-13 1.76923e-10  -2.45055e-12 -8.51244e-14 1.76923e-10  6.79552e-13 -3.20878e-13 1.76923e-10  -3.74425e-13 -5.57133e-13 1.76923e-10  -1.04049e-13 1.15168e-13 1.76923e-10  -7.62838e-14 7.86889e-13 1.76923e-10  1.80606e-13 5.13309e-13 1.76923e-10  -8.6549e-14 2.41035e-13 1.76923e-10  3.97982e-13 4.77671e-13 1.76923e-10  -1.09489e-12 7.17391e-13 1.76923e-10  -1.84805e-12 2.05203e-12 1.76923e-10  3.0215e-13 1.73283e-12 1.76923e-10  -1.94987e-13 1.42754e-12 1.76923e-10  4.0045e-13 4.49839e-13 1.76923e-10  -8.1492e-15 -5.15168e-13 1.76923e-10  -4.45796e-14 -3.4074e-13 1.76923e-10  -3.29601e-13 -1.7838e-13 1.76923e-10  6.63434e-13 -1.24833e-12 1.76923e-10  -2.36739e-12 -2.33937e-12 1.76923e-10  
            </DataArray>
         </PointData> 
      </Piece>
   </UnstructuredGrid> 
</VTKFile>
