<?xml version="1.0"?>
<VTKFile type="UnstructuredGrid" version="0.1" byte_order="LittleEndian">
   <UnstructuredGrid>
      <Piece NumberOfPoints="81" NumberOfCells="0" > 
         <Points> 
            <DataArray type="Float64" Name="Position" NumberOfComponents="3" format="ascii"> 
               0  0  15  
               0.375  0  15  
               0.75  0  15  
               1.125  0  15  
               1.5  0  15  
               1.875  0  15  
               2.25  0  15  
               2.625  0  15  
               3  0  15  
               0  0.375  15  
               0.375  0.375  15  
               0.75  0.375  15  
               1.125  0.375  15  
               1.5  0.375  15  
               1.875  0.375  15  
               2.25  0.375  15  
               2.625  0.375  15  
               3  0.375  15  
               0  0.75  15  
               0.375  0.75  15  
               0.75  0.75  15  
               1.125  0.75  15  
               1.5  0.75  15  
               1.875  0.75  15  
               2.25  0.75  15  
               2.625  0.75  15  
               3  0.75  15  
               0  1.125  15  
               0.375  1.125  15  
               0.75  1.125  15  
               1.125  1.125  15  
               1.5  1.125  15  
               1.875  1.125  15  
               2.25  1.125  15  
               2.625  1.125  15  
               3  1.125  15  
               0  1.5  15  
               0.375  1.5  15  
               0.75  1.5  15  
               1.125  1.5  15  
               1.5  1.5  15  
               1.875  1.5  15  
               2.25  1.5  15  
               2.625  1.5  15  
               3  1.5  15  
               0  1.875  15  
               0.375  1.875  15  
               0.75  1.875  15  
               1.125  1.875  15  
               1.5  1.875  15  
               1.875  1.875  15  
               2.25  1.875  15  
               2.625  1.875  15  
               3  1.875  15  
               0  2.25  15  
               0.375  2.25  15  
               0.75  2.25  15  
               1.125  2.25  15  
               1.5  2.25  15  
               1.875  2.25  15  
               2.25  2.25  15  
               2.625  2.25  15  
               3  2.25  15  
               0  2.625  15  
               0.375  2.625  15  
               0.75  2.625  15  
               1.125  2.625  15  
               1.5  2.625  15  
               1.875  2.625  15  
               2.25  2.625  15  
               2.625  2.625  15  
               3  2.625  15  
               0  3  15  
               0.375  3  15  
               0.75  3  15  
               1.125  3  15  
               1.5  3  15  
               1.875  3  15  
               2.25  3  15  
               2.625  3  15  
               3  3  15  
            </DataArray>
         </Points> 

         <Cells>
            <DataArray type="Int32" Name="connectivity" NumberOfComponents="1" format="ascii">
               
            </DataArray> 
            <DataArray type="Int32" Name="offsets" NumberOfComponents="1" format="ascii">
               
            </DataArray>
            <DataArray type="UInt8"  Name="types" NumberOfComponents="1" format="ascii">
               
            </DataArray>
         </Cells>
         <PointData Scalars="Rank " Vectors="Displacement Velocity Traction ">
            <DataArray type="UInt32" Name="Rank" NumberOfComponents="1" format="ascii">
               0 0 0 0 0 0 0 0 0 0 0 0 0 0 0 0 0 0 0 0 0 0 0 0 0 0 0 0 0 0 0 0 0 0 0 0 0 0 0 0 0 0 0 0 0 0 0 0 0 0 0 0 0 0 0 0 0 0 0 0 0 0 0 0 0 0 0 0 0 0 0 0 0 0 0 0 0 0 0 0 0 
            </DataArray>
            <DataArray type="Float64" Name="Displacement" NumberOfComponents="3" format="ascii">
               0 0 0  0 0 0  0 0 0  0 0 0  0 0 0  0 0 0  0 0 0  0 0 0  0 0 0  0 0 0  0 0 0  0 0 0  0 0 0  0 0 0  0 0 0  0 0 0  0 0 0  0 0 0  0 0 0  0 0 0  0 0 0  0 0 0  0 0 0  0 0 0  0 0 0  0 0 0  0 0 0  0 0 0  0 0 0  0 0 0  0 0 0  0 0 0  0 0 0  0 0 0  0 0 0  0 0 0  0 0 0  0 0 0  0 0 0  0 0 0  0 0 0  0 0 0  0 0 0  0 0 0  0 0 0  0 0 0  0 0 0  0 0 0  0 0 0  0 0 0  0 0 0  0 0 0  0 0 0  0 0 0  0 0 0  0 0 0  0 0 0  0 0 0  0 0 0  0 0 0  0 0 0  0 0 0  0 0 0  0 0 0  0 0 0  0 0 0  0 0 0  0 0 0  0 0 0  0 0 0  0 0 0  0 0 0  0 0 0  0 0 0  0 0 0  0 0 0  0 0 0  0 0 0  0 0 0  0 0 0  0 0 0  
            </DataArray>
            <DataArray type="Float64" Name="Velocity" NumberOfComponents="3" format="ascii">
               0 0 0  0 0 0  0 0 0  0 0 0  0 0 0  0 0 0  0 0 0  0 0 0  0 0 0  0 0 0  0 0 0  0 0 0  0 0 0  0 0 0  0 0 0  0 0 0  0 0 0  0 0 0  0 0 0  0 0 0  0 0 0  0 0 0  0 0 0  0 0 0  0 0 0  0 0 0  0 0 0  0 0 0  0 0 0  0 0 0  0 0 0  0 0 0  0 0 0  0 0 0  0 0 0  0 0 0  0 0 0  0 0 0  0 0 0  0 0 0  0 0 0  0 0 0  0 0 0  0 0 0  0 0 0  0 0 0  0 0 0  0 0 0  0 0 0  0 0 0  0 0 0  0 0 0  0 0 0  0 0 0  0 0 0  0 0 0  0 0 0  0 0 0  0 0 0  0 0 0  0 0 0  0 0 0  0 0 0  0 0 0  0 0 0  0 0 0  0 0 0  0 0 0  0 0 0  0 0 0  0 0 0  0 0 0  0 0 0  0 0 0  0 0 0  0 0 0  0 0 0  0 0 0  0 0 0  0 0 0  0 0 0  
            </DataArray>
            <DataArray type="Float64" Name="Traction" NumberOfComponents="3" format="ascii">
               3.69481e-05 4.59024e-05 -4.59002e-05  7.41486e-06 3.50697e-05 -4.59002e-05  -6.78924e-06 1.71769e-05 -4.59002e-05  -5.09778e-07 1.97675e-05 -4.59002e-05  3.08665e-06 3.4378e-05 -4.59002e-05  3.33937e-07 4.88075e-05 -4.59002e-05  -1.78397e-06 4.88142e-05 -4.59002e-05  -1.06562e-05 8.42081e-05 -4.59002e-05  -0.000128534 0.000127571 -4.59002e-05  3.36731e-05 2.101e-05 -4.59002e-05  1.79376e-05 2.47703e-05 -4.59002e-05  7.47141e-06 1.60407e-05 -4.59002e-05  4.00591e-06 3.86261e-06 -4.59002e-05  2.91656e-06 -4.36215e-06 -4.59002e-05  3.89953e-06 8.85549e-06 -4.59002e-05  -3.69685e-07 1.48005e-05 -4.59002e-05  -1.40296e-05 2.07916e-05 -4.59002e-05  -9.15391e-05 1.69245e-05 -4.59002e-05  2.21725e-05 6.81525e-06 -4.59002e-05  1.59563e-05 1.35218e-05 -4.59002e-05  1.12451e-05 9.4915e-06 -4.59002e-05  8.10813e-06 5.7686e-06 -4.59002e-05  8.02626e-06 6.17898e-07 -4.59002e-05  9.83941e-06 3.74959e-06 -4.59002e-05  2.89053e-06 1.14522e-06 -4.59002e-05  -8.16252e-06 5.77279e-06 -4.59002e-05  -6.57636e-05 8.12857e-06 -4.59002e-05  5.10969e-06 7.4205e-06 -4.59002e-05  8.03688e-06 7.33473e-06 -4.59002e-05  7.9801e-06 5.4785e-06 -4.59002e-05  6.96755e-06 7.48103e-06 -4.59002e-05  3.60492e-06 6.09526e-06 -4.59002e-05  1.22398e-06 1.24815e-06 -4.59002e-05  -5.16524e-06 -8.48364e-06 -4.59002e-05  -1.40116e-05 -2.74537e-06 -4.59002e-05  -4.71383e-05 -1.8954e-06 -4.59002e-05  6.56207e-06 9.13931e-06 -4.59002e-05  9.66052e-06 3.84743e-06 -4.59002e-05  9.75342e-06 3.47634e-06 -4.59002e-05  8.90902e-06 6.63245e-06 -4.59002e-05  1.42571e-06 6.15462e-06 -4.59002e-05  -4.90645e-06 5.13902e-06 -4.59002e-05  -7.58238e-06 5.37152e-07 -4.59002e-05  -1.3015e-05 3.32868e-06 -4.59002e-05  -1.84846e-05 8.67944e-06 -4.59002e-05  -1.5573e-06 -4.11713e-06 -4.59002e-05  1.20146e-05 -3.34149e-06 -4.59002e-05  1.06453e-05 -5.11873e-06 -4.59002e-05  8.95257e-06 -2.53934e-06 -4.59002e-05  2.02815e-06 -2.96744e-06 -4.59002e-05  -3.50003e-06 1.21256e-06 -4.59002e-05  -9.43964e-06 3.55319e-06 -4.59002e-05  -1.70394e-05 5.13417e-06 -4.59002e-05  -3.04984e-05 1.30883e-05 -4.59002e-05  -1.76108e-05 -6.8137e-06 -4.59002e-05  1.03065e-05 -3.54617e-06 -4.59002e-05  1.10058e-05 -8.07901e-06 -4.59002e-05  1.0102e-05 -9.34205e-06 -4.59002e-05  4.61384e-06 -1.15537e-05 -4.59002e-05  7.88134e-07 -8.1526e-06 -4.59002e-05  -6.49856e-06 -5.44699e-06 -4.59002e-05  -1.54037e-05 -1.53496e-06 -4.59002e-05  -3.67476e-05 3.49048e-06 -4.59002e-05  -2.46386e-05 4.55693e-06 -4.59002e-05  -2.4582e-06 1.94852e-06 -4.59002e-05  5.21327e-06 -1.04633e-05 -4.59002e-05  6.57636e-06 -1.67471e-05 -4.59002e-05  2.49259e-06 -2.11176e-05 -4.59002e-05  -3.68653e-07 -1.8987e-05 -4.59002e-05  -4.87409e-06 -1.59921e-05 -4.59002e-05  -1.1053e-05 -9.14065e-06 -4.59002e-05  -4.12869e-05 2.00007e-06 -4.59002e-05  -3.19577e-05 2.74917e-05 -4.59002e-05  -5.54973e-06 1.47229e-05 -4.59002e-05  8.39218e-06 -1.5219e-06 -4.59002e-05  8.28347e-06 -1.7005e-05 -4.59002e-05  2.2841e-06 -2.84978e-05 -4.59002e-05  -9.8732e-07 -3.31211e-05 -4.59002e-05  -4.60205e-06 -3.38326e-05 -4.59002e-05  -3.3414e-06 -3.83031e-05 -4.59002e-05  -4.80136e-05 -4.2935e-05 -4.59002e-05  
            </DataArray>
         </PointData> 
      </Piece>
   </UnstructuredGrid> 
</VTKFile>
