<?xml version="1.0"?>
<VTKFile type="UnstructuredGrid" version="0.1" byte_order="LittleEndian">
   <UnstructuredGrid>
      <Piece NumberOfPoints="81" NumberOfCells="0" > 
         <Points> 
            <DataArray type="Float64" Name="Position" NumberOfComponents="3" format="ascii"> 
               0  0  20  
               0.375  0  20  
               0.75  0  20  
               1.125  0  20  
               1.5  0  20  
               1.875  0  20  
               2.25  0  20  
               2.625  0  20  
               3  0  20  
               0  0.375  20  
               0.375  0.375  20  
               0.75  0.375  20  
               1.125  0.375  20  
               1.5  0.375  20  
               1.875  0.375  20  
               2.25  0.375  20  
               2.625  0.375  20  
               3  0.375  20  
               0  0.75  20  
               0.375  0.75  20  
               0.75  0.75  20  
               1.125  0.75  20  
               1.5  0.75  20  
               1.875  0.75  20  
               2.25  0.75  20  
               2.625  0.75  20  
               3  0.75  20  
               0  1.125  20  
               0.375  1.125  20  
               0.75  1.125  20  
               1.125  1.125  20  
               1.5  1.125  20  
               1.875  1.125  20  
               2.25  1.125  20  
               2.625  1.125  20  
               3  1.125  20  
               0  1.5  20  
               0.375  1.5  20  
               0.75  1.5  20  
               1.125  1.5  20  
               1.5  1.5  20  
               1.875  1.5  20  
               2.25  1.5  20  
               2.625  1.5  20  
               3  1.5  20  
               0  1.875  20  
               0.375  1.875  20  
               0.75  1.875  20  
               1.125  1.875  20  
               1.5  1.875  20  
               1.875  1.875  20  
               2.25  1.875  20  
               2.625  1.875  20  
               3  1.875  20  
               0  2.25  20  
               0.375  2.25  20  
               0.75  2.25  20  
               1.125  2.25  20  
               1.5  2.25  20  
               1.875  2.25  20  
               2.25  2.25  20  
               2.625  2.25  20  
               3  2.25  20  
               0  2.625  20  
               0.375  2.625  20  
               0.75  2.625  20  
               1.125  2.625  20  
               1.5  2.625  20  
               1.875  2.625  20  
               2.25  2.625  20  
               2.625  2.625  20  
               3  2.625  20  
               0  3  20  
               0.375  3  20  
               0.75  3  20  
               1.125  3  20  
               1.5  3  20  
               1.875  3  20  
               2.25  3  20  
               2.625  3  20  
               3  3  20  
            </DataArray>
         </Points> 

         <Cells>
            <DataArray type="Int32" Name="connectivity" NumberOfComponents="1" format="ascii">
               
            </DataArray> 
            <DataArray type="Int32" Name="offsets" NumberOfComponents="1" format="ascii">
               
            </DataArray>
            <DataArray type="UInt8"  Name="types" NumberOfComponents="1" format="ascii">
               
            </DataArray>
         </Cells>
         <PointData Scalars="Rank " Vectors="Displacement Velocity Traction ">
            <DataArray type="UInt32" Name="Rank" NumberOfComponents="1" format="ascii">
               0 0 0 0 0 0 0 0 0 0 0 0 0 0 0 0 0 0 0 0 0 0 0 0 0 0 0 0 0 0 0 0 0 0 0 0 0 0 0 0 0 0 0 0 0 0 0 0 0 0 0 0 0 0 0 0 0 0 0 0 0 0 0 0 0 0 0 0 0 0 0 0 0 0 0 0 0 0 0 0 0 
            </DataArray>
            <DataArray type="Float64" Name="Displacement" NumberOfComponents="3" format="ascii">
               1.90764e-05 1.90181e-05 -7.053e-05  8.2155e-06 2.47404e-05 -7.29954e-05  3.09592e-06 3.00301e-05 -6.84686e-05  -2.44281e-08 3.02445e-05 -6.66129e-05  -1.96207e-06 3.03648e-05 -6.64054e-05  -5.72992e-06 3.13965e-05 -6.49089e-05  -1.05207e-05 2.89549e-05 -6.76726e-05  -7.61146e-06 2.00451e-05 -7.23827e-05  -1.22666e-05 2.10248e-05 -6.50748e-05  2.47998e-05 8.16645e-06 -7.30267e-05  1.20179e-05 1.19658e-05 -7.20537e-05  5.57216e-06 1.532e-05 -6.57976e-05  1.79349e-06 1.59308e-05 -6.41957e-05  4.23494e-07 1.69332e-05 -6.40411e-05  -2.17064e-06 1.6101e-05 -6.30188e-05  -9.18266e-06 1.65987e-05 -6.60309e-05  -1.18203e-05 1.23526e-05 -7.42088e-05  -1.90473e-05 1.33112e-05 -7.09873e-05  3.00829e-05 3.04779e-06 -6.84821e-05  1.53591e-05 5.51512e-06 -6.57865e-05  7.85593e-06 7.80562e-06 -5.563e-05  1.17722e-06 9.38045e-06 -5.27527e-05  -1.10036e-08 9.69573e-06 -5.27719e-05  -1.58872e-06 9.61962e-06 -5.24135e-05  -1.00474e-05 1.03365e-05 -5.56577e-05  -1.58404e-05 8.63262e-06 -6.61971e-05  -2.79501e-05 1.05766e-05 -6.71007e-05  3.03018e-05 -7.71394e-08 -6.66328e-05  1.59771e-05 1.73152e-06 -6.41885e-05  9.43128e-06 1.11425e-06 -5.2758e-05  2.79524e-06 2.73475e-06 -4.8739e-05  7.70879e-08 2.34756e-06 -4.87102e-05  -2.44989e-06 3.07476e-06 -4.87717e-05  -9.0736e-06 2.56383e-06 -5.26076e-05  -1.53117e-05 2.82092e-06 -6.33951e-05  -3.02246e-05 4.01024e-06 -6.48332e-05  3.04216e-05 -2.01445e-06 -6.64266e-05  1.69782e-05 3.64406e-07 -6.40327e-05  9.74878e-06 -7.38443e-08 -5.27766e-05  2.41127e-06 1.50168e-08 -4.87085e-05  5.95762e-07 5.272e-07 -4.89436e-05  -1.22131e-06 5.38267e-07 -4.86935e-05  -8.51657e-06 1.12984e-06 -5.2696e-05  -1.51273e-05 5.80098e-07 -6.38804e-05  -2.80686e-05 3.30364e-06 -6.57277e-05  3.14592e-05 -5.80213e-06 -6.4928e-05  1.61493e-05 -2.2423e-06 -6.30085e-05  9.6728e-06 -1.66709e-06 -5.24182e-05  3.13809e-06 -2.52658e-06 -4.87706e-05  6.0362e-07 -1.31021e-06 -4.86928e-05  -2.11738e-06 -2.19877e-06 -4.86088e-05  -8.91799e-06 -1.05058e-07 -5.25947e-05  -1.51658e-05 -1.50135e-06 -6.3878e-05  -2.95296e-05 2.88666e-06 -6.57165e-05  2.90009e-05 -1.05998e-05 -6.76925e-05  1.66434e-05 -9.25216e-06 -6.60273e-05  1.03906e-05 -1.01249e-05 -5.56669e-05  2.62652e-06 -9.14803e-06 -5.26121e-05  1.19674e-06 -8.60073e-06 -5.27028e-05  -1.85576e-08 -8.99903e-06 -5.26008e-05  -7.08124e-06 -7.15869e-06 -5.56114e-05  -1.44999e-05 -5.57172e-06 -6.5884e-05  -2.91575e-05 -2.84194e-06 -6.80097e-05  2.00904e-05 -7.69385e-06 -7.23842e-05  1.23962e-05 -1.18906e-05 -7.41942e-05  8.68662e-06 -1.59252e-05 -6.61929e-05  2.88111e-06 -1.53962e-05 -6.33835e-05  6.40699e-07 -1.52144e-05 -6.3872e-05  -1.42472e-06 -1.52551e-05 -6.38702e-05  -5.48964e-06 -1.4572e-05 -6.58719e-05  -1.14077e-05 -1.14912e-05 -7.22829e-05  -2.39036e-05 -8.45221e-06 -7.27135e-05  2.10602e-05 -1.23619e-05 -6.51067e-05  1.3352e-05 -1.91251e-05 -7.10084e-05  1.0641e-05 -2.8049e-05 -6.71433e-05  4.07774e-06 -3.03372e-05 -6.48741e-05  3.3705e-06 -2.81766e-05 -6.57732e-05  2.96998e-06 -2.96451e-05 -6.57591e-05  -2.77078e-06 -2.92553e-05 -6.80359e-05  -8.37487e-06 -2.39899e-05 -7.27571e-05  -1.89571e-05 -1.90521e-05 -6.99249e-05  
            </DataArray>
            <DataArray type="Float64" Name="Velocity" NumberOfComponents="3" format="ascii">
               2.43035e-05 2.43058e-05 -9.38741e-05  1.18543e-05 3.09981e-05 -9.81155e-05  5.10552e-06 3.78481e-05 -9.2505e-05  1.8567e-07 3.79518e-05 -9.04211e-05  -2.62509e-06 3.81895e-05 -9.02453e-05  -8.2618e-06 3.95374e-05 -8.79932e-05  -1.44681e-05 3.63153e-05 -9.17058e-05  -9.5173e-06 2.49625e-05 -9.73861e-05  -1.42618e-05 2.63424e-05 -8.57729e-05  3.11467e-05 1.18729e-05 -9.8218e-05  1.6013e-05 1.59232e-05 -9.85691e-05  8.01338e-06 2.01277e-05 -9.09482e-05  2.63973e-06 2.08791e-05 -8.9081e-05  6.05337e-07 2.23581e-05 -8.90055e-05  -3.2979e-06 2.11215e-05 -8.74151e-05  -1.31691e-05 2.18273e-05 -9.14288e-05  -1.59041e-05 1.65193e-05 -0.000101509  -2.36874e-05 1.73615e-05 -9.54924e-05  3.79857e-05 5.07171e-06 -9.26314e-05  2.02082e-05 7.95503e-06 -9.09595e-05  1.08152e-05 1.0761e-05 -7.86981e-05  1.74069e-06 1.28159e-05 -7.51952e-05  2.32447e-10 1.33225e-05 -7.54026e-05  -2.38552e-06 1.31993e-05 -7.47242e-05  -1.40332e-05 1.42207e-05 -7.88656e-05  -2.10288e-05 1.21941e-05 -9.16193e-05  -3.51807e-05 1.4411e-05 -9.09212e-05  3.80908e-05 7.88015e-08 -9.05208e-05  2.09555e-05 2.54074e-06 -8.9066e-05  1.28616e-05 1.64041e-06 -7.51721e-05  3.97002e-06 3.88064e-06 -7.01382e-05  3.25516e-08 3.42945e-06 -7.0265e-05  -3.62225e-06 4.42932e-06 -7.01986e-05  -1.25463e-05 3.72284e-06 -7.5052e-05  -2.01547e-05 4.10685e-06 -8.79735e-05  -3.80774e-05 5.77038e-06 -8.79279e-05  3.83251e-05 -2.73954e-06 -9.03474e-05  2.24367e-05 4.82551e-07 -8.89893e-05  1.33749e-05 -1.24846e-07 -7.53834e-05  3.52517e-06 -9.32468e-08 -7.02703e-05  8.26262e-07 6.89659e-07 -7.06968e-05  -1.91366e-06 7.31762e-07 -7.02378e-05  -1.1778e-05 1.49081e-06 -7.52821e-05  -1.99594e-05 7.47116e-07 -8.87805e-05  -3.51528e-05 4.3458e-06 -8.93045e-05  3.96701e-05 -8.35848e-06 -8.81082e-05  2.12099e-05 -3.42337e-06 -8.74163e-05  1.32585e-05 -2.4992e-06 -7.47199e-05  4.53046e-06 -3.7357e-06 -7.02204e-05  8.66704e-07 -2.05114e-06 -7.02545e-05  -3.077e-06 -3.20125e-06 -6.99699e-05  -1.22322e-05 -4.54326e-07 -7.49429e-05  -1.98967e-05 -2.33935e-06 -8.86003e-05  -3.7038e-05 3.61656e-06 -8.91538e-05  3.64685e-05 -1.45754e-05 -9.18044e-05  2.19378e-05 -1.32553e-05 -9.14154e-05  1.43021e-05 -1.41074e-05 -7.88393e-05  3.83451e-06 -1.26106e-05 -7.50396e-05  1.64084e-06 -1.18631e-05 -7.52728e-05  -2.93101e-07 -1.23051e-05 -7.49187e-05  -9.89478e-06 -9.99207e-06 -7.86773e-05  -1.90194e-05 -8.15376e-06 -9.10486e-05  -3.66354e-05 -4.88413e-06 -9.1824e-05  2.51467e-05 -9.73305e-06 -9.74769e-05  1.66425e-05 -1.60398e-05 -0.000101499  1.22994e-05 -2.11736e-05 -9.16089e-05  4.24772e-06 -2.0285e-05 -8.7965e-05  9.02062e-07 -2.00994e-05 -8.87732e-05  -2.18151e-06 -2.00317e-05 -8.8582e-05  -8.04184e-06 -1.91605e-05 -9.10516e-05  -1.5232e-05 -1.54015e-05 -9.88483e-05  -2.98919e-05 -1.22935e-05 -9.76942e-05  2.65025e-05 -1.45606e-05 -8.60247e-05  1.75062e-05 -2.38877e-05 -9.56217e-05  1.45406e-05 -3.53935e-05 -9.10596e-05  5.90229e-06 -3.82791e-05 -8.80773e-05  4.5242e-06 -3.53673e-05 -8.94726e-05  3.81619e-06 -3.7282e-05 -8.93098e-05  -4.80118e-06 -3.68788e-05 -9.20007e-05  -1.22836e-05 -3.01496e-05 -9.78621e-05  -2.4365e-05 -2.44085e-05 -9.31172e-05  
            </DataArray>
            <DataArray type="Float64" Name="Traction" NumberOfComponents="3" format="ascii">
               -0.000140412 -0.000139962 -0.00117131  -8.97992e-05 -0.000248063 -0.00117131  -5.32687e-05 -0.000314407 -0.00117131  -7.35783e-06 -0.000304522 -0.00117131  -1.77805e-05 -0.000304884 -0.00117131  6.14241e-05 -0.000311311 -0.00117131  0.000212001 -0.000280598 -0.00117131  5.62163e-05 -0.000137569 -0.00117131  -1.22864e-05 -0.000101618 -0.00117131  -0.000248511 -9.0019e-05 -0.00117131  -0.000157787 -0.000157896 -0.00117131  -7.63061e-05 -0.000223137 -0.00117131  -2.46603e-05 -0.000232984 -0.00117131  -3.6766e-05 -0.000241806 -0.00117131  2.69874e-05 -0.000225749 -0.00117131  0.000229934 -0.00022887 -0.00117131  0.000141891 -0.000150306 -0.00117131  0.000109044 -0.000114877 -0.00117131  -0.000314815 -5.35693e-05 -0.00117131  -0.000222979 -7.64933e-05 -0.00117131  -0.000121024 -0.000121155 -0.00117131  -2.20509e-05 -0.000153725 -0.00117131  -2.17576e-05 -0.000157904 -0.00117131  2.62579e-05 -0.000148181 -0.00117131  0.000255559 -0.000147909 -0.00117131  0.000220449 -0.000125697 -0.00117131  0.000261107 -0.000137716 -0.00117131  -0.000305023 -7.74731e-06 -0.00117131  -0.000232926 -2.49494e-05 -0.00117131  -0.00015362 -2.22341e-05 -0.00117131  -4.43406e-05 -4.45498e-05 -0.00117131  -1.78507e-05 -3.75903e-05 -0.00117131  4.23573e-05 -4.42728e-05 -0.00117131  0.000247019 -3.41522e-05 -0.00117131  0.000219935 -3.26608e-05 -0.00117131  0.000295153 -3.8213e-05 -0.00117131  -0.000305354 -1.83359e-05 -0.00117131  -0.00024168 -3.72469e-05 -0.00117131  -0.000157797 -2.2107e-05 -0.00117131  -3.74068e-05 -1.81999e-05 -0.00117131  -2.74983e-05 -2.78243e-05 -0.00117131  2.97422e-05 -2.46199e-05 -0.00117131  0.000246821 -2.57547e-05 -0.00117131  0.000224348 -1.2036e-05 -0.00117131  0.000277683 -4.13924e-05 -0.00117131  -0.000311858 6.10476e-05 -0.00117131  -0.000225665 2.66537e-05 -0.00117131  -0.000148055 2.60038e-05 -0.00117131  -4.4055e-05 4.21001e-05 -0.00117131  -2.42164e-05 2.95886e-05 -0.00117131  4.11099e-05 4.08126e-05 -0.00117131  0.000253174 1.34576e-05 -0.00117131  0.000225282 2.53664e-05 -0.00117131  0.000293424 -2.00151e-05 -0.00117131  -0.000280704 0.000211241 -0.00117131  -0.000228583 0.00022913 -0.00117131  -0.000147671 0.000254687 -0.00117131  -3.38358e-05 0.000246086 -0.00117131  -2.53304e-05 0.000245935 -0.00117131  1.37305e-05 0.000252266 -0.00117131  0.000217223 0.000216324 -0.00117131  0.000215488 0.000149341 -0.00117131  0.000299939 0.000111423 -0.00117131  -0.000137506 5.59635e-05 -0.00117131  -0.000149935 0.000141517 -0.00117131  -0.00012545 0.000220148 -0.00117131  -3.2253e-05 0.000219707 -0.00117131  -1.14555e-05 0.000224076 -0.00117131  2.5831e-05 0.000225016 -0.00117131  0.000150261 0.000214933 -0.00117131  0.000152851 0.000152431 -0.00117131  0.000233459 9.42734e-05 -0.00117131  -0.000101314 -1.19587e-05 -0.00117131  -0.00011428 0.000109184 -0.00117131  -0.000137398 0.000261491 -0.00117131  -3.77483e-05 0.00029586 -0.00117131  -4.08083e-05 0.000278295 -0.00117131  -1.96827e-05 0.00029405 -0.00117131  0.000112538 0.00030014 -0.00117131  9.47479e-05 0.000233591 -0.00117131  0.00013637 0.000136677 -0.00117131  
            </DataArray>
         </PointData> 
      </Piece>
   </UnstructuredGrid> 
</VTKFile>
