<?xml version="1.0"?>
<VTKFile type="UnstructuredGrid" version="0.1" byte_order="LittleEndian">
   <UnstructuredGrid>
      <Piece NumberOfPoints="81" NumberOfCells="0" > 
         <Points> 
            <DataArray type="Float64" Name="Position" NumberOfComponents="3" format="ascii"> 
               0  0  15  
               0.375  0  15  
               0.75  0  15  
               1.125  0  15  
               1.5  0  15  
               1.875  0  15  
               2.25  0  15  
               2.625  0  15  
               3  0  15  
               0  0.375  15  
               0.375  0.375  15  
               0.75  0.375  15  
               1.125  0.375  15  
               1.5  0.375  15  
               1.875  0.375  15  
               2.25  0.375  15  
               2.625  0.375  15  
               3  0.375  15  
               0  0.75  15  
               0.375  0.75  15  
               0.75  0.75  15  
               1.125  0.75  15  
               1.5  0.75  15  
               1.875  0.75  15  
               2.25  0.75  15  
               2.625  0.75  15  
               3  0.75  15  
               0  1.125  15  
               0.375  1.125  15  
               0.75  1.125  15  
               1.125  1.125  15  
               1.5  1.125  15  
               1.875  1.125  15  
               2.25  1.125  15  
               2.625  1.125  15  
               3  1.125  15  
               0  1.5  15  
               0.375  1.5  15  
               0.75  1.5  15  
               1.125  1.5  15  
               1.5  1.5  15  
               1.875  1.5  15  
               2.25  1.5  15  
               2.625  1.5  15  
               3  1.5  15  
               0  1.875  15  
               0.375  1.875  15  
               0.75  1.875  15  
               1.125  1.875  15  
               1.5  1.875  15  
               1.875  1.875  15  
               2.25  1.875  15  
               2.625  1.875  15  
               3  1.875  15  
               0  2.25  15  
               0.375  2.25  15  
               0.75  2.25  15  
               1.125  2.25  15  
               1.5  2.25  15  
               1.875  2.25  15  
               2.25  2.25  15  
               2.625  2.25  15  
               3  2.25  15  
               0  2.625  15  
               0.375  2.625  15  
               0.75  2.625  15  
               1.125  2.625  15  
               1.5  2.625  15  
               1.875  2.625  15  
               2.25  2.625  15  
               2.625  2.625  15  
               3  2.625  15  
               0  3  15  
               0.375  3  15  
               0.75  3  15  
               1.125  3  15  
               1.5  3  15  
               1.875  3  15  
               2.25  3  15  
               2.625  3  15  
               3  3  15  
            </DataArray>
         </Points> 

         <Cells>
            <DataArray type="Int32" Name="connectivity" NumberOfComponents="1" format="ascii">
               
            </DataArray> 
            <DataArray type="Int32" Name="offsets" NumberOfComponents="1" format="ascii">
               
            </DataArray>
            <DataArray type="UInt8"  Name="types" NumberOfComponents="1" format="ascii">
               
            </DataArray>
         </Cells>
         <PointData Scalars="Rank " Vectors="Displacement Velocity Traction ">
            <DataArray type="UInt32" Name="Rank" NumberOfComponents="1" format="ascii">
               0 0 0 0 0 0 0 0 0 0 0 0 0 0 0 0 0 0 0 0 0 0 0 0 0 0 0 0 0 0 0 0 0 0 0 0 0 0 0 0 0 0 0 0 0 0 0 0 0 0 0 0 0 0 0 0 0 0 0 0 0 0 0 0 0 0 0 0 0 0 0 0 0 0 0 0 0 0 0 0 0 
            </DataArray>
            <DataArray type="Float64" Name="Displacement" NumberOfComponents="3" format="ascii">
               0 0 0  0 0 0  0 0 0  0 0 0  0 0 0  0 0 0  0 0 0  0 0 0  0 0 0  0 0 0  0 0 0  0 0 0  0 0 0  0 0 0  0 0 0  0 0 0  0 0 0  0 0 0  0 0 0  0 0 0  0 0 0  0 0 0  0 0 0  0 0 0  0 0 0  0 0 0  0 0 0  0 0 0  0 0 0  0 0 0  0 0 0  0 0 0  0 0 0  0 0 0  0 0 0  0 0 0  0 0 0  0 0 0  0 0 0  0 0 0  0 0 0  0 0 0  0 0 0  0 0 0  0 0 0  0 0 0  0 0 0  0 0 0  0 0 0  0 0 0  0 0 0  0 0 0  0 0 0  0 0 0  0 0 0  0 0 0  0 0 0  0 0 0  0 0 0  0 0 0  0 0 0  0 0 0  0 0 0  0 0 0  0 0 0  0 0 0  0 0 0  0 0 0  0 0 0  0 0 0  0 0 0  0 0 0  0 0 0  0 0 0  0 0 0  0 0 0  0 0 0  0 0 0  0 0 0  0 0 0  0 0 0  
            </DataArray>
            <DataArray type="Float64" Name="Velocity" NumberOfComponents="3" format="ascii">
               0 0 0  0 0 0  0 0 0  0 0 0  0 0 0  0 0 0  0 0 0  0 0 0  0 0 0  0 0 0  0 0 0  0 0 0  0 0 0  0 0 0  0 0 0  0 0 0  0 0 0  0 0 0  0 0 0  0 0 0  0 0 0  0 0 0  0 0 0  0 0 0  0 0 0  0 0 0  0 0 0  0 0 0  0 0 0  0 0 0  0 0 0  0 0 0  0 0 0  0 0 0  0 0 0  0 0 0  0 0 0  0 0 0  0 0 0  0 0 0  0 0 0  0 0 0  0 0 0  0 0 0  0 0 0  0 0 0  0 0 0  0 0 0  0 0 0  0 0 0  0 0 0  0 0 0  0 0 0  0 0 0  0 0 0  0 0 0  0 0 0  0 0 0  0 0 0  0 0 0  0 0 0  0 0 0  0 0 0  0 0 0  0 0 0  0 0 0  0 0 0  0 0 0  0 0 0  0 0 0  0 0 0  0 0 0  0 0 0  0 0 0  0 0 0  0 0 0  0 0 0  0 0 0  0 0 0  0 0 0  0 0 0  
            </DataArray>
            <DataArray type="Float64" Name="Traction" NumberOfComponents="3" format="ascii">
               1.5874e-08 1.62977e-08 -7.63474e-09  -1.01097e-08 4.59782e-09 -7.63474e-09  1.13365e-09 -1.37491e-08 -7.63474e-09  6.18474e-09 -1.12023e-09 -7.63474e-09  1.73888e-10 1.51033e-08 -7.63474e-09  -4.79668e-09 4.44668e-09 -7.63474e-09  -2.13908e-09 -9.84179e-09 -7.63474e-09  6.66286e-09 6.9492e-09 -7.63474e-09  -1.83573e-08 1.9678e-08 -7.63474e-09  5.005e-09 -9.2755e-09 -7.63474e-09  -2.47147e-09 -1.82085e-09 -7.63474e-09  1.54896e-10 3.56543e-09 -7.63474e-09  1.11152e-09 -5.37933e-10 -7.63474e-09  1.94627e-10 -4.97585e-09 -7.63474e-09  -1.02576e-09 -1.70374e-09 -7.63474e-09  -9.55245e-10 1.48985e-09 -7.63474e-09  2.4889e-09 -1.08779e-09 -7.63474e-09  -1.04871e-08 -5.24494e-09 -7.63474e-09  -1.1048e-08 -3.36122e-10 -7.63474e-09  2.87187e-09 -2.75171e-11 -7.63474e-09  -1.50926e-09 -1.11825e-09 -7.63474e-09  -1.2442e-09 2.44576e-10 -7.63474e-09  -4.28252e-11 1.25933e-09 -7.63474e-09  5.00723e-10 1.33197e-10 -7.63474e-09  3.94148e-10 -1.04046e-09 -7.63474e-09  5.05749e-10 5.95317e-10 -7.63474e-09  -2.58264e-09 1.65626e-09 -7.63474e-09  -7.80731e-09 1.6003e-09 -7.63474e-09  2.03661e-09 5.78457e-11 -7.63474e-09  -5.18144e-10 -7.15493e-10 -7.63474e-09  -5.1532e-10 6.26156e-10 -7.63474e-09  -4.77094e-10 1.66974e-09 -7.63474e-09  1.95473e-11 6.46222e-10 -7.63474e-09  1.45878e-10 -4.48618e-11 -7.63474e-09  1.01944e-09 3.17806e-10 -7.63474e-09  -2.63921e-09 1.55898e-09 -7.63474e-09  -5.26966e-09 2.75231e-10 -7.63474e-09  5.30053e-10 2.08698e-10 -7.63474e-09  -8.61345e-11 -1.90997e-10 -7.63474e-09  1.01958e-09 -4.70708e-11 -7.63474e-09  -4.98572e-10 4.0658e-10 -7.63474e-09  -1.08585e-09 2.95523e-10 -7.63474e-09  -2.84139e-10 3.85783e-11 -7.63474e-09  2.10401e-09 1.85771e-10 -7.63474e-09  -5.99652e-09 1.39385e-10 -7.63474e-09  -6.69869e-09 -8.46317e-10 -7.63474e-09  1.78529e-09 4.00766e-10 -7.63474e-09  -5.05187e-10 1.63192e-09 -7.63474e-09  -5.10991e-10 -4.73425e-11 -7.63474e-09  -2.97257e-10 -1.61377e-09 -7.63474e-09  3.45747e-11 -3.0165e-10 -7.63474e-09  -1.22532e-10 7.33123e-10 -7.63474e-09  1.10819e-09 1.36111e-11 -7.63474e-09  -5.13231e-09 -1.05591e-09 -7.63474e-09  -7.16082e-09 6.87643e-10 -7.63474e-09  3.13751e-09 4.24719e-10 -7.63474e-09  -5.13468e-10 4.30811e-10 -7.63474e-09  -2.2001e-09 -1.53946e-10 -7.63474e-09  -3.11328e-10 -6.33906e-10 -7.63474e-09  1.31921e-09 -7.72791e-11 -7.63474e-09  2.71002e-10 1.7229e-10 -7.63474e-09  -6.17319e-11 -5.28848e-10 -7.63474e-09  5.91245e-10 -6.6626e-10 -7.63474e-09  -6.71741e-09 -4.83063e-11 -7.63474e-09  2.02265e-09 -8.99646e-10 -7.63474e-09  -3.90974e-10 -1.76063e-09 -7.63474e-09  -6.88396e-10 2.29433e-10 -7.63474e-09  -2.50597e-11 2.2173e-09 -7.63474e-09  5.90591e-10 1.21876e-09 -7.63474e-09  -4.97426e-10 3.48771e-10 -7.63474e-09  6.36746e-10 9.43937e-10 -7.63474e-09  -3.27061e-09 2.1313e-09 -7.63474e-09  -6.35749e-09 7.00982e-09 -7.63474e-09  1.26172e-09 4.52892e-09 -7.63474e-09  -1.93631e-11 3.69257e-09 -7.63474e-09  1.1055e-09 -2.35327e-09 -7.63474e-09  4.30802e-10 -6.00184e-09 -7.63474e-09  -2.8741e-10 -2.59739e-09 -7.63474e-09  -5.88702e-10 -1.06908e-09 -7.63474e-09  1.79304e-09 -2.92701e-09 -7.63474e-09  -7.61475e-09 -7.08732e-09 -7.63474e-09  
            </DataArray>
         </PointData> 
      </Piece>
   </UnstructuredGrid> 
</VTKFile>
