<?xml version="1.0"?>
<VTKFile type="UnstructuredGrid" version="0.1" byte_order="LittleEndian">
   <UnstructuredGrid>
      <Piece NumberOfPoints="81" NumberOfCells="0" > 
         <Points> 
            <DataArray type="Float64" Name="Position" NumberOfComponents="3" format="ascii"> 
               0  0  15  
               0.375  0  15  
               0.75  0  15  
               1.125  0  15  
               1.5  0  15  
               1.875  0  15  
               2.25  0  15  
               2.625  0  15  
               3  0  15  
               0  0.375  15  
               0.375  0.375  15  
               0.75  0.375  15  
               1.125  0.375  15  
               1.5  0.375  15  
               1.875  0.375  15  
               2.25  0.375  15  
               2.625  0.375  15  
               3  0.375  15  
               0  0.75  15  
               0.375  0.75  15  
               0.75  0.75  15  
               1.125  0.75  15  
               1.5  0.75  15  
               1.875  0.75  15  
               2.25  0.75  15  
               2.625  0.75  15  
               3  0.75  15  
               0  1.125  15  
               0.375  1.125  15  
               0.75  1.125  15  
               1.125  1.125  15  
               1.5  1.125  15  
               1.875  1.125  15  
               2.25  1.125  15  
               2.625  1.125  15  
               3  1.125  15  
               0  1.5  15  
               0.375  1.5  15  
               0.75  1.5  15  
               1.125  1.5  15  
               1.5  1.5  15  
               1.875  1.5  15  
               2.25  1.5  15  
               2.625  1.5  15  
               3  1.5  15  
               0  1.875  15  
               0.375  1.875  15  
               0.75  1.875  15  
               1.125  1.875  15  
               1.5  1.875  15  
               1.875  1.875  15  
               2.25  1.875  15  
               2.625  1.875  15  
               3  1.875  15  
               0  2.25  15  
               0.375  2.25  15  
               0.75  2.25  15  
               1.125  2.25  15  
               1.5  2.25  15  
               1.875  2.25  15  
               2.25  2.25  15  
               2.625  2.25  15  
               3  2.25  15  
               0  2.625  15  
               0.375  2.625  15  
               0.75  2.625  15  
               1.125  2.625  15  
               1.5  2.625  15  
               1.875  2.625  15  
               2.25  2.625  15  
               2.625  2.625  15  
               3  2.625  15  
               0  3  15  
               0.375  3  15  
               0.75  3  15  
               1.125  3  15  
               1.5  3  15  
               1.875  3  15  
               2.25  3  15  
               2.625  3  15  
               3  3  15  
            </DataArray>
         </Points> 

         <Cells>
            <DataArray type="Int32" Name="connectivity" NumberOfComponents="1" format="ascii">
               
            </DataArray> 
            <DataArray type="Int32" Name="offsets" NumberOfComponents="1" format="ascii">
               
            </DataArray>
            <DataArray type="UInt8"  Name="types" NumberOfComponents="1" format="ascii">
               
            </DataArray>
         </Cells>
         <PointData Scalars="Rank " Vectors="Displacement Velocity Traction ">
            <DataArray type="UInt32" Name="Rank" NumberOfComponents="1" format="ascii">
               0 0 0 0 0 0 0 0 0 0 0 0 0 0 0 0 0 0 0 0 0 0 0 0 0 0 0 0 0 0 0 0 0 0 0 0 0 0 0 0 0 0 0 0 0 0 0 0 0 0 0 0 0 0 0 0 0 0 0 0 0 0 0 0 0 0 0 0 0 0 0 0 0 0 0 0 0 0 0 0 0 
            </DataArray>
            <DataArray type="Float64" Name="Displacement" NumberOfComponents="3" format="ascii">
               0 0 0  0 0 0  0 0 0  0 0 0  0 0 0  0 0 0  0 0 0  0 0 0  0 0 0  0 0 0  0 0 0  0 0 0  0 0 0  0 0 0  0 0 0  0 0 0  0 0 0  0 0 0  0 0 0  0 0 0  0 0 0  0 0 0  0 0 0  0 0 0  0 0 0  0 0 0  0 0 0  0 0 0  0 0 0  0 0 0  0 0 0  0 0 0  0 0 0  0 0 0  0 0 0  0 0 0  0 0 0  0 0 0  0 0 0  0 0 0  0 0 0  0 0 0  0 0 0  0 0 0  0 0 0  0 0 0  0 0 0  0 0 0  0 0 0  0 0 0  0 0 0  0 0 0  0 0 0  0 0 0  0 0 0  0 0 0  0 0 0  0 0 0  0 0 0  0 0 0  0 0 0  0 0 0  0 0 0  0 0 0  0 0 0  0 0 0  0 0 0  0 0 0  0 0 0  0 0 0  0 0 0  0 0 0  0 0 0  0 0 0  0 0 0  0 0 0  0 0 0  0 0 0  0 0 0  0 0 0  0 0 0  
            </DataArray>
            <DataArray type="Float64" Name="Velocity" NumberOfComponents="3" format="ascii">
               0 0 0  0 0 0  0 0 0  0 0 0  0 0 0  0 0 0  0 0 0  0 0 0  0 0 0  0 0 0  0 0 0  0 0 0  0 0 0  0 0 0  0 0 0  0 0 0  0 0 0  0 0 0  0 0 0  0 0 0  0 0 0  0 0 0  0 0 0  0 0 0  0 0 0  0 0 0  0 0 0  0 0 0  0 0 0  0 0 0  0 0 0  0 0 0  0 0 0  0 0 0  0 0 0  0 0 0  0 0 0  0 0 0  0 0 0  0 0 0  0 0 0  0 0 0  0 0 0  0 0 0  0 0 0  0 0 0  0 0 0  0 0 0  0 0 0  0 0 0  0 0 0  0 0 0  0 0 0  0 0 0  0 0 0  0 0 0  0 0 0  0 0 0  0 0 0  0 0 0  0 0 0  0 0 0  0 0 0  0 0 0  0 0 0  0 0 0  0 0 0  0 0 0  0 0 0  0 0 0  0 0 0  0 0 0  0 0 0  0 0 0  0 0 0  0 0 0  0 0 0  0 0 0  0 0 0  0 0 0  0 0 0  
            </DataArray>
            <DataArray type="Float64" Name="Traction" NumberOfComponents="3" format="ascii">
               9.01629e-06 1.28698e-05 -2.48941e-05  1.65034e-06 6.42906e-06 -2.48941e-05  -2.5233e-06 -2.84328e-06 -2.48941e-05  4.15664e-06 1.06276e-05 -2.48941e-05  6.93871e-07 2.73843e-05 -2.48941e-05  -5.12193e-06 2.4528e-05 -2.48941e-05  -3.31815e-06 1.80295e-05 -2.48941e-05  -1.11141e-05 3.83357e-05 -2.48941e-05  -6.4691e-05 6.12369e-05 -2.48941e-05  7.10053e-06 8.15167e-06 -2.48941e-05  4.75218e-06 9.50681e-06 -2.48941e-05  7.18185e-07 5.48693e-06 -2.48941e-05  1.10325e-06 2.23957e-06 -2.48941e-05  3.97187e-07 -4.06659e-07 -2.48941e-05  -1.35313e-07 5.748e-06 -2.48941e-05  -2.68534e-06 1.03026e-05 -2.48941e-05  -1.21335e-05 1.48822e-05 -2.48941e-05  -4.64045e-05 1.26638e-05 -2.48941e-05  4.41852e-07 2.84606e-06 -2.48941e-05  2.55363e-06 5.27234e-06 -2.48941e-05  1.39165e-06 3.25136e-06 -2.48941e-05  1.9584e-06 2.80075e-06 -2.48941e-05  1.92909e-06 1.33007e-06 -2.48941e-05  2.29858e-06 3.30702e-06 -2.48941e-05  -5.96882e-07 3.35183e-06 -2.48941e-05  -6.32195e-06 5.21712e-06 -2.48941e-05  -3.17279e-05 4.47392e-06 -2.48941e-05  -2.50096e-06 5.30705e-06 -2.48941e-05  3.46375e-07 4.19685e-06 -2.48941e-05  8.87579e-07 3.70064e-06 -2.48941e-05  1.67279e-06 5.01402e-06 -2.48941e-05  4.17203e-07 4.68062e-06 -2.48941e-05  -6.77748e-07 3.12689e-06 -2.48941e-05  -3.31504e-06 -7.45954e-07 -2.48941e-05  -7.82726e-06 3.13939e-07 -2.48941e-05  -2.22063e-05 7.41509e-07 -2.48941e-05  2.84057e-06 4.81508e-06 -2.48941e-05  1.8751e-06 3.26836e-06 -2.48941e-05  2.59671e-06 4.07634e-06 -2.48941e-05  3.0575e-06 5.62065e-06 -2.48941e-05  -6.13734e-08 5.39389e-06 -2.48941e-05  -2.85099e-06 5.35925e-06 -2.48941e-05  -4.14648e-06 3.57548e-06 -2.48941e-05  -7.66062e-06 2.81577e-06 -2.48941e-05  -1.15484e-05 5.73559e-06 -2.48941e-05  -8.34287e-07 -2.81908e-06 -2.48941e-05  4.2644e-06 -7.8827e-07 -2.48941e-05  3.88077e-06 -3.50195e-07 -2.48941e-05  3.0012e-06 8.45516e-07 -2.48941e-05  2.29612e-07 5.81869e-07 -2.48941e-05  -1.97377e-06 2.74606e-06 -2.48941e-05  -5.40062e-06 4.0451e-06 -2.48941e-05  -9.9584e-06 2.97209e-06 -2.48941e-05  -1.69247e-05 6.25434e-06 -2.48941e-05  -8.08157e-06 -3.55672e-06 -2.48941e-05  4.59895e-06 -2.20053e-06 -2.48941e-05  4.39289e-06 -3.51657e-06 -2.48941e-05  3.02872e-06 -3.98054e-06 -2.48941e-05  9.64742e-07 -4.41696e-06 -2.48941e-05  -1.26623e-07 -3.16984e-06 -2.48941e-05  -4.59113e-06 -2.0435e-06 -2.48941e-05  -9.72839e-06 -1.72321e-06 -2.48941e-05  -1.96842e-05 1.47729e-06 -2.48941e-05  -3.76323e-06 1.67192e-06 -2.48941e-05  -2.14055e-08 -6.51614e-07 -2.48941e-05  2.94527e-06 -6.27091e-06 -2.48941e-05  2.32909e-06 -8.78846e-06 -2.48941e-05  6.63215e-08 -9.7711e-06 -2.48941e-05  -1.29414e-06 -9.53039e-06 -2.48941e-05  -4.64119e-06 -8.65089e-06 -2.48941e-05  -9.20317e-06 -7.61396e-06 -2.48941e-05  -2.53811e-05 -1.03293e-06 -2.48941e-05  -3.82669e-07 -2.88112e-06 -2.48941e-05  -1.9376e-06 -2.36704e-06 -2.48941e-05  5.22935e-06 -5.53696e-06 -2.48941e-05  4.06954e-06 -1.16416e-05 -2.48941e-05  1.27417e-06 -1.48348e-05 -2.48941e-05  -5.06891e-07 -1.74142e-05 -2.48941e-05  -3.10669e-06 -1.80464e-05 -2.48941e-05  -3.48608e-06 -2.40112e-05 -2.48941e-05  -2.98e-05 -2.83371e-05 -2.48941e-05  
            </DataArray>
         </PointData> 
      </Piece>
   </UnstructuredGrid> 
</VTKFile>
