<?xml version="1.0"?>
<VTKFile type="UnstructuredGrid" version="0.1" byte_order="LittleEndian">
   <UnstructuredGrid>
      <Piece NumberOfPoints="81" NumberOfCells="0" > 
         <Points> 
            <DataArray type="Float64" Name="Position" NumberOfComponents="3" format="ascii"> 
               0  0  15  
               0.375  0  15  
               0.75  0  15  
               1.125  0  15  
               1.5  0  15  
               1.875  0  15  
               2.25  0  15  
               2.625  0  15  
               3  0  15  
               0  0.375  15  
               0.375  0.375  15  
               0.75  0.375  15  
               1.125  0.375  15  
               1.5  0.375  15  
               1.875  0.375  15  
               2.25  0.375  15  
               2.625  0.375  15  
               3  0.375  15  
               0  0.75  15  
               0.375  0.75  15  
               0.75  0.75  15  
               1.125  0.75  15  
               1.5  0.75  15  
               1.875  0.75  15  
               2.25  0.75  15  
               2.625  0.75  15  
               3  0.75  15  
               0  1.125  15  
               0.375  1.125  15  
               0.75  1.125  15  
               1.125  1.125  15  
               1.5  1.125  15  
               1.875  1.125  15  
               2.25  1.125  15  
               2.625  1.125  15  
               3  1.125  15  
               0  1.5  15  
               0.375  1.5  15  
               0.75  1.5  15  
               1.125  1.5  15  
               1.5  1.5  15  
               1.875  1.5  15  
               2.25  1.5  15  
               2.625  1.5  15  
               3  1.5  15  
               0  1.875  15  
               0.375  1.875  15  
               0.75  1.875  15  
               1.125  1.875  15  
               1.5  1.875  15  
               1.875  1.875  15  
               2.25  1.875  15  
               2.625  1.875  15  
               3  1.875  15  
               0  2.25  15  
               0.375  2.25  15  
               0.75  2.25  15  
               1.125  2.25  15  
               1.5  2.25  15  
               1.875  2.25  15  
               2.25  2.25  15  
               2.625  2.25  15  
               3  2.25  15  
               0  2.625  15  
               0.375  2.625  15  
               0.75  2.625  15  
               1.125  2.625  15  
               1.5  2.625  15  
               1.875  2.625  15  
               2.25  2.625  15  
               2.625  2.625  15  
               3  2.625  15  
               0  3  15  
               0.375  3  15  
               0.75  3  15  
               1.125  3  15  
               1.5  3  15  
               1.875  3  15  
               2.25  3  15  
               2.625  3  15  
               3  3  15  
            </DataArray>
         </Points> 

         <Cells>
            <DataArray type="Int32" Name="connectivity" NumberOfComponents="1" format="ascii">
               
            </DataArray> 
            <DataArray type="Int32" Name="offsets" NumberOfComponents="1" format="ascii">
               
            </DataArray>
            <DataArray type="UInt8"  Name="types" NumberOfComponents="1" format="ascii">
               
            </DataArray>
         </Cells>
         <PointData Scalars="Rank " Vectors="Displacement Velocity Traction ">
            <DataArray type="UInt32" Name="Rank" NumberOfComponents="1" format="ascii">
               0 0 0 0 0 0 0 0 0 0 0 0 0 0 0 0 0 0 0 0 0 0 0 0 0 0 0 0 0 0 0 0 0 0 0 0 0 0 0 0 0 0 0 0 0 0 0 0 0 0 0 0 0 0 0 0 0 0 0 0 0 0 0 0 0 0 0 0 0 0 0 0 0 0 0 0 0 0 0 0 0 
            </DataArray>
            <DataArray type="Float64" Name="Displacement" NumberOfComponents="3" format="ascii">
               0 0 0  0 0 0  0 0 0  0 0 0  0 0 0  0 0 0  0 0 0  0 0 0  0 0 0  0 0 0  0 0 0  0 0 0  0 0 0  0 0 0  0 0 0  0 0 0  0 0 0  0 0 0  0 0 0  0 0 0  0 0 0  0 0 0  0 0 0  0 0 0  0 0 0  0 0 0  0 0 0  0 0 0  0 0 0  0 0 0  0 0 0  0 0 0  0 0 0  0 0 0  0 0 0  0 0 0  0 0 0  0 0 0  0 0 0  0 0 0  0 0 0  0 0 0  0 0 0  0 0 0  0 0 0  0 0 0  0 0 0  0 0 0  0 0 0  0 0 0  0 0 0  0 0 0  0 0 0  0 0 0  0 0 0  0 0 0  0 0 0  0 0 0  0 0 0  0 0 0  0 0 0  0 0 0  0 0 0  0 0 0  0 0 0  0 0 0  0 0 0  0 0 0  0 0 0  0 0 0  0 0 0  0 0 0  0 0 0  0 0 0  0 0 0  0 0 0  0 0 0  0 0 0  0 0 0  0 0 0  0 0 0  
            </DataArray>
            <DataArray type="Float64" Name="Velocity" NumberOfComponents="3" format="ascii">
               0 0 0  0 0 0  0 0 0  0 0 0  0 0 0  0 0 0  0 0 0  0 0 0  0 0 0  0 0 0  0 0 0  0 0 0  0 0 0  0 0 0  0 0 0  0 0 0  0 0 0  0 0 0  0 0 0  0 0 0  0 0 0  0 0 0  0 0 0  0 0 0  0 0 0  0 0 0  0 0 0  0 0 0  0 0 0  0 0 0  0 0 0  0 0 0  0 0 0  0 0 0  0 0 0  0 0 0  0 0 0  0 0 0  0 0 0  0 0 0  0 0 0  0 0 0  0 0 0  0 0 0  0 0 0  0 0 0  0 0 0  0 0 0  0 0 0  0 0 0  0 0 0  0 0 0  0 0 0  0 0 0  0 0 0  0 0 0  0 0 0  0 0 0  0 0 0  0 0 0  0 0 0  0 0 0  0 0 0  0 0 0  0 0 0  0 0 0  0 0 0  0 0 0  0 0 0  0 0 0  0 0 0  0 0 0  0 0 0  0 0 0  0 0 0  0 0 0  0 0 0  0 0 0  0 0 0  0 0 0  0 0 0  
            </DataArray>
            <DataArray type="Float64" Name="Traction" NumberOfComponents="3" format="ascii">
               0.000467078 0.000512239 -0.00106664  -6.54147e-05 0.00052023 -0.00106664  -3.90481e-05 0.00050317 -0.00106664  -6.01457e-05 0.000553359 -0.00106664  7.03559e-06 0.000500977 -0.00106664  5.35683e-05 0.000638073 -0.00106664  2.5824e-05 0.000551953 -0.00106664  0.000118127 0.000664199 -0.00106664  -0.000917142 0.000918461 -0.00106664  0.000484677 -2.08028e-06 -0.00106664  6.67874e-05 8.27136e-05 -0.00106664  1.07263e-05 0.000126777 -0.00106664  -1.40334e-05 0.000190919 -0.00106664  2.94624e-05 0.000179807 -0.00106664  0.000104735 0.000151635 -0.00106664  0.000130155 4.19376e-06 -0.00106664  8.95587e-05 -7.90457e-05 -0.00106664  -0.000684113 -9.72786e-05 -0.00106664  0.000511234 6.74237e-05 -0.00106664  0.000170511 3.59697e-05 -0.00106664  6.67032e-05 3.75562e-05 -0.00106664  8.17381e-06 8.73703e-05 -0.00106664  4.63563e-05 8.29346e-05 -0.00106664  0.000115073 3.32006e-05 -0.00106664  9.72151e-05 -8.5382e-05 -0.00106664  -5.96481e-06 -0.000106246 -0.00106664  -0.000603784 1.29326e-05 -0.00106664  0.000661614 4.03164e-05 -0.00106664  0.000314667 7.49309e-06 -0.00106664  0.000163828 -2.15933e-05 -0.00106664  6.88221e-05 1.82038e-05 -0.00106664  3.40081e-05 3.17859e-05 -0.00106664  2.63135e-05 -3.01749e-05 -0.00106664  -3.68838e-05 -0.000118166 -0.00106664  -0.000183332 -9.7002e-05 -0.00106664  -0.00067397 -3.7407e-05 -0.00106664  0.000660122 -8.07014e-05 -0.00106664  0.00040588 -5.36192e-05 -0.00106664  0.000245236 -9.98354e-05 -0.00106664  0.000123191 -5.25832e-05 -0.00106664  2.40639e-05 -2.0144e-05 -0.00106664  -4.51208e-05 -3.56033e-05 -0.00106664  -0.000107065 -6.04899e-05 -0.00106664  -0.000239739 -3.53961e-05 -0.00106664  -0.000506076 -9.46201e-06 -0.00106664  0.000499974 -0.000172088 -0.00106664  0.000433063 -0.00016835 -0.00106664  0.000297563 -0.000223896 -0.00106664  0.000185127 -0.000159651 -0.00106664  5.16169e-05 -0.000104197 -0.00106664  -5.01716e-05 -7.28168e-05 -0.00106664  -0.000131269 -3.85592e-05 -0.00106664  -0.00026763 -1.50779e-05 -0.00106664  -0.000561907 4.64868e-05 -0.00106664  0.00048174 -0.000273481 -0.00106664  0.00051726 -0.000283024 -0.00106664  0.000372288 -0.00032546 -0.00106664  0.000249637 -0.000253702 -0.00106664  8.863e-05 -0.00021345 -0.00106664  -3.25718e-05 -0.000162032 -0.00106664  -0.000107377 -0.000104743 -0.00106664  -0.000234791 -7.05457e-05 -0.00106664  -0.000567277 -2.40715e-05 -0.00106664  0.000265303 -0.000528565 -0.00106664  0.000481258 -0.000458554 -0.00106664  0.000319623 -0.00047961 -0.00106664  0.000192625 -0.000401337 -0.00106664  4.94555e-05 -0.000387169 -0.00106664  -4.86496e-05 -0.000330579 -0.00106664  -0.000102215 -0.000241136 -0.00106664  -0.000198619 -0.000177644 -0.00106664  -0.000509025 -0.000103336 -0.00106664  4.97573e-05 -5.9631e-05 -0.00106664  0.000530064 -0.000264079 -0.00106664  0.000299733 -0.000479085 -0.00106664  0.000207427 -0.000514815 -0.00106664  8.44766e-05 -0.000689879 -0.00106664  -6.19383e-05 -0.000657235 -0.00106664  -0.000106347 -0.000522187 -0.00106664  -0.000132758 -0.000459894 -0.00106664  -0.000415886 -0.000396766 -0.00106664  
            </DataArray>
         </PointData> 
      </Piece>
   </UnstructuredGrid> 
</VTKFile>
