<?xml version="1.0"?>
<VTKFile type="UnstructuredGrid" version="0.1" byte_order="LittleEndian">
   <UnstructuredGrid>
      <Piece NumberOfPoints="81" NumberOfCells="0" > 
         <Points> 
            <DataArray type="Float64" Name="Position" NumberOfComponents="3" format="ascii"> 
               0  0  15  
               0.375  0  15  
               0.75  0  15  
               1.125  0  15  
               1.5  0  15  
               1.875  0  15  
               2.25  0  15  
               2.625  0  15  
               3  0  15  
               0  0.375  15  
               0.375  0.375  15  
               0.75  0.375  15  
               1.125  0.375  15  
               1.5  0.375  15  
               1.875  0.375  15  
               2.25  0.375  15  
               2.625  0.375  15  
               3  0.375  15  
               0  0.75  15  
               0.375  0.75  15  
               0.75  0.75  15  
               1.125  0.75  15  
               1.5  0.75  15  
               1.875  0.75  15  
               2.25  0.75  15  
               2.625  0.75  15  
               3  0.75  15  
               0  1.125  15  
               0.375  1.125  15  
               0.75  1.125  15  
               1.125  1.125  15  
               1.5  1.125  15  
               1.875  1.125  15  
               2.25  1.125  15  
               2.625  1.125  15  
               3  1.125  15  
               0  1.5  15  
               0.375  1.5  15  
               0.75  1.5  15  
               1.125  1.5  15  
               1.5  1.5  15  
               1.875  1.5  15  
               2.25  1.5  15  
               2.625  1.5  15  
               3  1.5  15  
               0  1.875  15  
               0.375  1.875  15  
               0.75  1.875  15  
               1.125  1.875  15  
               1.5  1.875  15  
               1.875  1.875  15  
               2.25  1.875  15  
               2.625  1.875  15  
               3  1.875  15  
               0  2.25  15  
               0.375  2.25  15  
               0.75  2.25  15  
               1.125  2.25  15  
               1.5  2.25  15  
               1.875  2.25  15  
               2.25  2.25  15  
               2.625  2.25  15  
               3  2.25  15  
               0  2.625  15  
               0.375  2.625  15  
               0.75  2.625  15  
               1.125  2.625  15  
               1.5  2.625  15  
               1.875  2.625  15  
               2.25  2.625  15  
               2.625  2.625  15  
               3  2.625  15  
               0  3  15  
               0.375  3  15  
               0.75  3  15  
               1.125  3  15  
               1.5  3  15  
               1.875  3  15  
               2.25  3  15  
               2.625  3  15  
               3  3  15  
            </DataArray>
         </Points> 

         <Cells>
            <DataArray type="Int32" Name="connectivity" NumberOfComponents="1" format="ascii">
               
            </DataArray> 
            <DataArray type="Int32" Name="offsets" NumberOfComponents="1" format="ascii">
               
            </DataArray>
            <DataArray type="UInt8"  Name="types" NumberOfComponents="1" format="ascii">
               
            </DataArray>
         </Cells>
         <PointData Scalars="Rank " Vectors="Displacement Velocity Traction ">
            <DataArray type="UInt32" Name="Rank" NumberOfComponents="1" format="ascii">
               0 0 0 0 0 0 0 0 0 0 0 0 0 0 0 0 0 0 0 0 0 0 0 0 0 0 0 0 0 0 0 0 0 0 0 0 0 0 0 0 0 0 0 0 0 0 0 0 0 0 0 0 0 0 0 0 0 0 0 0 0 0 0 0 0 0 0 0 0 0 0 0 0 0 0 0 0 0 0 0 0 
            </DataArray>
            <DataArray type="Float64" Name="Displacement" NumberOfComponents="3" format="ascii">
               0 0 0  0 0 0  0 0 0  0 0 0  0 0 0  0 0 0  0 0 0  0 0 0  0 0 0  0 0 0  0 0 0  0 0 0  0 0 0  0 0 0  0 0 0  0 0 0  0 0 0  0 0 0  0 0 0  0 0 0  0 0 0  0 0 0  0 0 0  0 0 0  0 0 0  0 0 0  0 0 0  0 0 0  0 0 0  0 0 0  0 0 0  0 0 0  0 0 0  0 0 0  0 0 0  0 0 0  0 0 0  0 0 0  0 0 0  0 0 0  0 0 0  0 0 0  0 0 0  0 0 0  0 0 0  0 0 0  0 0 0  0 0 0  0 0 0  0 0 0  0 0 0  0 0 0  0 0 0  0 0 0  0 0 0  0 0 0  0 0 0  0 0 0  0 0 0  0 0 0  0 0 0  0 0 0  0 0 0  0 0 0  0 0 0  0 0 0  0 0 0  0 0 0  0 0 0  0 0 0  0 0 0  0 0 0  0 0 0  0 0 0  0 0 0  0 0 0  0 0 0  0 0 0  0 0 0  0 0 0  0 0 0  
            </DataArray>
            <DataArray type="Float64" Name="Velocity" NumberOfComponents="3" format="ascii">
               0 0 0  0 0 0  0 0 0  0 0 0  0 0 0  0 0 0  0 0 0  0 0 0  0 0 0  0 0 0  0 0 0  0 0 0  0 0 0  0 0 0  0 0 0  0 0 0  0 0 0  0 0 0  0 0 0  0 0 0  0 0 0  0 0 0  0 0 0  0 0 0  0 0 0  0 0 0  0 0 0  0 0 0  0 0 0  0 0 0  0 0 0  0 0 0  0 0 0  0 0 0  0 0 0  0 0 0  0 0 0  0 0 0  0 0 0  0 0 0  0 0 0  0 0 0  0 0 0  0 0 0  0 0 0  0 0 0  0 0 0  0 0 0  0 0 0  0 0 0  0 0 0  0 0 0  0 0 0  0 0 0  0 0 0  0 0 0  0 0 0  0 0 0  0 0 0  0 0 0  0 0 0  0 0 0  0 0 0  0 0 0  0 0 0  0 0 0  0 0 0  0 0 0  0 0 0  0 0 0  0 0 0  0 0 0  0 0 0  0 0 0  0 0 0  0 0 0  0 0 0  0 0 0  0 0 0  0 0 0  0 0 0  
            </DataArray>
            <DataArray type="Float64" Name="Traction" NumberOfComponents="3" format="ascii">
               1.04602e-11 1.04495e-11 1.76267e-10  -4.70608e-12 1.07666e-12 1.76267e-10  1.63093e-12 -8.40376e-12 1.76267e-10  2.43357e-12 -6.17842e-13 1.76267e-10  1.85316e-13 7.19775e-12 1.76267e-10  -2.08218e-12 6.94363e-13 1.76267e-10  -1.21343e-12 -5.84985e-12 1.76267e-10  3.27287e-12 9.86067e-13 1.76267e-10  -7.46262e-12 7.77439e-12 1.76267e-10  1.87126e-12 -4.37179e-12 1.76267e-10  -1.37527e-12 -9.73176e-13 1.76267e-10  2.11506e-13 2.41639e-12 1.76267e-10  7.18813e-13 -5.77411e-13 1.76267e-10  9.32468e-15 -3.57548e-12 1.76267e-10  -6.11143e-13 -1.10597e-12 1.76267e-10  -3.26608e-13 1.36417e-12 1.76267e-10  1.54139e-12 -6.39338e-13 1.76267e-10  -2.79134e-12 -2.65331e-12 1.76267e-10  -6.80891e-12 1.14953e-12 1.76267e-10  1.94325e-12 -3.63501e-14 1.76267e-10  -1.21688e-12 -1.23979e-12 1.76267e-10  -9.73885e-13 -2.26794e-13 1.76267e-10  -1.74558e-13 7.85455e-13 1.76267e-10  8.4469e-13 -9.44047e-14 1.76267e-10  5.60117e-13 -9.7686e-13 1.76267e-10  -1.76666e-13 6.2251e-14 1.76267e-10  1.88015e-12 1.09643e-12 1.76267e-10  -5.4081e-12 3.13415e-13 1.76267e-10  1.18403e-12 -7.03777e-14 1.76267e-10  -9.24878e-13 -4.47385e-13 1.76267e-10  -2.54368e-13 1.72825e-13 1.76267e-10  -1.73821e-13 7.90073e-13 1.76267e-10  2.05112e-13 2.28596e-13 1.76267e-10  1.87394e-13 -3.28673e-13 1.76267e-10  7.213e-13 1.16233e-13 1.76267e-10  -1.99291e-13 5.71527e-13 1.76267e-10  -4.02101e-12 3.59825e-13 1.76267e-10  4.20009e-13 1.61737e-13 1.76267e-10  -6.37832e-13 -4.00442e-14 1.76267e-10  4.72278e-13 8.31689e-14 1.76267e-10  -1.71213e-13 2.09656e-13 1.76267e-10  -4.39563e-13 4.93868e-14 1.76267e-10  -1.88537e-13 -1.13626e-13 1.76267e-10  1.62611e-12 2.06414e-14 1.76267e-10  -2.31525e-12 1.47081e-13 1.76267e-10  -4.68751e-12 -4.24178e-13 1.76267e-10  1.13653e-12 2.25385e-13 1.76267e-10  -8.04813e-13 8.75327e-13 1.76267e-10  -2.96291e-13 9.22428e-14 1.76267e-10  -2.09192e-13 -6.89999e-13 1.76267e-10  1.34631e-13 -7.8136e-14 1.76267e-10  4.35544e-14 5.31749e-13 1.76267e-10  9.33296e-13 6.09946e-14 1.76267e-10  -1.0327e-12 -4.10792e-13 1.76267e-10  -5.34686e-12 6.78636e-13 1.76267e-10  1.85324e-12 5.85452e-13 1.76267e-10  -9.67785e-13 4.95381e-13 1.76267e-10  -1.06671e-12 2.7162e-13 1.76267e-10  -2.48366e-13 4.97324e-14 1.76267e-10  7.10409e-13 1.17638e-13 1.76267e-10  2.80301e-13 1.83113e-13 1.76267e-10  2.36128e-13 -2.10247e-13 1.76267e-10  2.98959e-13 -5.97864e-13 1.76267e-10  -4.28847e-12 -1.48968e-13 1.76267e-10  1.18922e-12 -5.61537e-13 1.76267e-10  -6.55244e-13 -9.74982e-13 1.76267e-10  -1.82086e-13 2.01544e-13 1.76267e-10  -1.33497e-13 1.37706e-12 1.76267e-10  3.16061e-13 8.98292e-13 1.76267e-10  -1.51461e-13 4.21811e-13 1.76267e-10  6.96468e-13 8.35925e-13 1.76267e-10  -1.91606e-12 1.25543e-12 1.76267e-10  -3.23408e-12 3.59105e-12 1.76267e-10  5.28762e-13 3.03244e-12 1.76267e-10  -3.41227e-13 2.49819e-12 1.76267e-10  7.00788e-13 7.87219e-13 1.76267e-10  -1.42611e-14 -9.01544e-13 1.76267e-10  -7.80143e-14 -5.96295e-13 1.76267e-10  -5.76802e-13 -3.12164e-13 1.76267e-10  1.16101e-12 -2.18458e-12 1.76267e-10  -4.14294e-12 -4.09391e-12 1.76267e-10  
            </DataArray>
         </PointData> 
      </Piece>
   </UnstructuredGrid> 
</VTKFile>
