<?xml version="1.0"?>
<VTKFile type="UnstructuredGrid" version="0.1" byte_order="LittleEndian">
   <UnstructuredGrid>
      <Piece NumberOfPoints="81" NumberOfCells="0" > 
         <Points> 
            <DataArray type="Float64" Name="Position" NumberOfComponents="3" format="ascii"> 
               0  0  15  
               0.375  0  15  
               0.75  0  15  
               1.125  0  15  
               1.5  0  15  
               1.875  0  15  
               2.25  0  15  
               2.625  0  15  
               3  0  15  
               0  0.375  15  
               0.375  0.375  15  
               0.75  0.375  15  
               1.125  0.375  15  
               1.5  0.375  15  
               1.875  0.375  15  
               2.25  0.375  15  
               2.625  0.375  15  
               3  0.375  15  
               0  0.75  15  
               0.375  0.75  15  
               0.75  0.75  15  
               1.125  0.75  15  
               1.5  0.75  15  
               1.875  0.75  15  
               2.25  0.75  15  
               2.625  0.75  15  
               3  0.75  15  
               0  1.125  15  
               0.375  1.125  15  
               0.75  1.125  15  
               1.125  1.125  15  
               1.5  1.125  15  
               1.875  1.125  15  
               2.25  1.125  15  
               2.625  1.125  15  
               3  1.125  15  
               0  1.5  15  
               0.375  1.5  15  
               0.75  1.5  15  
               1.125  1.5  15  
               1.5  1.5  15  
               1.875  1.5  15  
               2.25  1.5  15  
               2.625  1.5  15  
               3  1.5  15  
               0  1.875  15  
               0.375  1.875  15  
               0.75  1.875  15  
               1.125  1.875  15  
               1.5  1.875  15  
               1.875  1.875  15  
               2.25  1.875  15  
               2.625  1.875  15  
               3  1.875  15  
               0  2.25  15  
               0.375  2.25  15  
               0.75  2.25  15  
               1.125  2.25  15  
               1.5  2.25  15  
               1.875  2.25  15  
               2.25  2.25  15  
               2.625  2.25  15  
               3  2.25  15  
               0  2.625  15  
               0.375  2.625  15  
               0.75  2.625  15  
               1.125  2.625  15  
               1.5  2.625  15  
               1.875  2.625  15  
               2.25  2.625  15  
               2.625  2.625  15  
               3  2.625  15  
               0  3  15  
               0.375  3  15  
               0.75  3  15  
               1.125  3  15  
               1.5  3  15  
               1.875  3  15  
               2.25  3  15  
               2.625  3  15  
               3  3  15  
            </DataArray>
         </Points> 

         <Cells>
            <DataArray type="Int32" Name="connectivity" NumberOfComponents="1" format="ascii">
               
            </DataArray> 
            <DataArray type="Int32" Name="offsets" NumberOfComponents="1" format="ascii">
               
            </DataArray>
            <DataArray type="UInt8"  Name="types" NumberOfComponents="1" format="ascii">
               
            </DataArray>
         </Cells>
         <PointData Scalars="Rank " Vectors="Displacement Velocity Traction ">
            <DataArray type="UInt32" Name="Rank" NumberOfComponents="1" format="ascii">
               0 0 0 0 0 0 0 0 0 0 0 0 0 0 0 0 0 0 0 0 0 0 0 0 0 0 0 0 0 0 0 0 0 0 0 0 0 0 0 0 0 0 0 0 0 0 0 0 0 0 0 0 0 0 0 0 0 0 0 0 0 0 0 0 0 0 0 0 0 0 0 0 0 0 0 0 0 0 0 0 0 
            </DataArray>
            <DataArray type="Float64" Name="Displacement" NumberOfComponents="3" format="ascii">
               0 0 0  0 0 0  0 0 0  0 0 0  0 0 0  0 0 0  0 0 0  0 0 0  0 0 0  0 0 0  0 0 0  0 0 0  0 0 0  0 0 0  0 0 0  0 0 0  0 0 0  0 0 0  0 0 0  0 0 0  0 0 0  0 0 0  0 0 0  0 0 0  0 0 0  0 0 0  0 0 0  0 0 0  0 0 0  0 0 0  0 0 0  0 0 0  0 0 0  0 0 0  0 0 0  0 0 0  0 0 0  0 0 0  0 0 0  0 0 0  0 0 0  0 0 0  0 0 0  0 0 0  0 0 0  0 0 0  0 0 0  0 0 0  0 0 0  0 0 0  0 0 0  0 0 0  0 0 0  0 0 0  0 0 0  0 0 0  0 0 0  0 0 0  0 0 0  0 0 0  0 0 0  0 0 0  0 0 0  0 0 0  0 0 0  0 0 0  0 0 0  0 0 0  0 0 0  0 0 0  0 0 0  0 0 0  0 0 0  0 0 0  0 0 0  0 0 0  0 0 0  0 0 0  0 0 0  0 0 0  0 0 0  
            </DataArray>
            <DataArray type="Float64" Name="Velocity" NumberOfComponents="3" format="ascii">
               0 0 0  0 0 0  0 0 0  0 0 0  0 0 0  0 0 0  0 0 0  0 0 0  0 0 0  0 0 0  0 0 0  0 0 0  0 0 0  0 0 0  0 0 0  0 0 0  0 0 0  0 0 0  0 0 0  0 0 0  0 0 0  0 0 0  0 0 0  0 0 0  0 0 0  0 0 0  0 0 0  0 0 0  0 0 0  0 0 0  0 0 0  0 0 0  0 0 0  0 0 0  0 0 0  0 0 0  0 0 0  0 0 0  0 0 0  0 0 0  0 0 0  0 0 0  0 0 0  0 0 0  0 0 0  0 0 0  0 0 0  0 0 0  0 0 0  0 0 0  0 0 0  0 0 0  0 0 0  0 0 0  0 0 0  0 0 0  0 0 0  0 0 0  0 0 0  0 0 0  0 0 0  0 0 0  0 0 0  0 0 0  0 0 0  0 0 0  0 0 0  0 0 0  0 0 0  0 0 0  0 0 0  0 0 0  0 0 0  0 0 0  0 0 0  0 0 0  0 0 0  0 0 0  0 0 0  0 0 0  0 0 0  
            </DataArray>
            <DataArray type="Float64" Name="Traction" NumberOfComponents="3" format="ascii">
               0.014977 0.0147568 -0.0305338  0.00793179 0.0173789 -0.0305338  0.00344105 0.0184696 -0.0305338  0.00109341 0.0192928 -0.0305338  -0.00141092 0.0194696 -0.0305338  -0.00317793 0.0196853 -0.0305338  -0.00510784 0.0192701 -0.0305338  -0.0114575 0.0189979 -0.0305338  -0.0204908 0.0202744 -0.0305338  0.0176411 0.00762134 -0.0305338  0.00975416 0.00951115 -0.0305338  0.00529564 0.00960978 -0.0305338  0.00253511 0.00993062 -0.0305338  -0.000117347 0.00983072 -0.0305338  -0.00197092 0.0100658 -0.0305338  -0.00348433 0.00974428 -0.0305338  -0.00963836 0.00972133 -0.0305338  -0.0190957 0.0115375 -0.0305338  0.0187231 0.00289593 -0.0305338  0.00973507 0.00494155 -0.0305338  0.00529315 0.00506504 -0.0305338  0.00266715 0.00511372 -0.0305338  7.14543e-05 0.00494645 -0.0305338  -0.00207195 0.0051587 -0.0305338  -0.00374841 0.00499645 -0.0305338  -0.0097369 0.00473076 -0.0305338  -0.019338 0.00605892 -0.0305338  0.0192315 0.000406218 -0.0305338  0.00982241 0.00209942 -0.0305338  0.00518815 0.00235842 -0.0305338  0.00257485 0.00235346 -0.0305338  9.01355e-05 0.00222654 -0.0305338  -0.00208843 0.00230522 -0.0305338  -0.0039682 0.0022287 -0.0305338  -0.00995677 0.00216004 -0.0305338  -0.0196798 0.00339283 -0.0305338  0.0191468 -0.00182703 -0.0305338  0.00945399 -0.000400173 -0.0305338  0.00483649 -8.11746e-05 -0.0305338  0.00236992 -0.000114326 -0.0305338  -4.76565e-05 -0.000325335 -0.0305338  -0.00204961 -0.000273897 -0.0305338  -0.0038087 -0.000255977 -0.0305338  -0.00977362 -0.000128908 -0.0305338  -0.0195939 0.00108997 -0.0305338  0.0194762 -0.00326298 -0.0305338  0.0094339 -0.00187396 -0.0305338  0.00480156 -0.00186786 -0.0305338  0.00223259 -0.00208804 -0.0305338  -6.76536e-05 -0.00226861 -0.0305338  -0.00198821 -0.00228244 -0.0305338  -0.00373194 -0.00224844 -0.0305338  -0.00969449 -0.00209047 -0.0305338  -0.0195884 -0.000742703 -0.0305338  0.0186836 -0.00476533 -0.0305338  0.00864843 -0.00292723 -0.0305338  0.00430611 -0.00316484 -0.0305338  0.00195352 -0.00372457 -0.0305338  -9.46091e-05 -0.0038159 -0.0305338  -0.00185825 -0.00391828 -0.0305338  -0.00351291 -0.00385354 -0.0305338  -0.00919549 -0.00398875 -0.0305338  -0.0188482 -0.00229049 -0.0305338  0.0189257 -0.010191 -0.0305338  0.00852193 -0.00853397 -0.0305338  0.004084 -0.00875179 -0.0305338  0.00200353 -0.00945445 -0.0305338  0.000160551 -0.0095401 -0.0305338  -0.00158293 -0.00971649 -0.0305338  -0.00353729 -0.00943993 -0.0305338  -0.00896448 -0.0093035 -0.0305338  -0.0180263 -0.00720681 -0.0305338  0.0208724 -0.021189 -0.0305338  0.0101778 -0.019093 -0.0305338  0.00562654 -0.0188328 -0.0305338  0.00338936 -0.0194495 -0.0305338  0.00150847 -0.0191749 -0.0305338  3.23543e-05 -0.0195425 -0.0305338  -0.001663 -0.0192006 -0.0305338  -0.00681702 -0.0183665 -0.0305338  -0.0155878 -0.0159004 -0.0305338  
            </DataArray>
         </PointData> 
      </Piece>
   </UnstructuredGrid> 
</VTKFile>
