<?xml version="1.0"?>
<VTKFile type="UnstructuredGrid" version="0.1" byte_order="LittleEndian">
   <UnstructuredGrid>
      <Piece NumberOfPoints="81" NumberOfCells="0" > 
         <Points> 
            <DataArray type="Float64" Name="Position" NumberOfComponents="3" format="ascii"> 
               0  0  15  
               0.375  0  15  
               0.75  0  15  
               1.125  0  15  
               1.5  0  15  
               1.875  0  15  
               2.25  0  15  
               2.625  0  15  
               3  0  15  
               0  0.375  15  
               0.375  0.375  15  
               0.75  0.375  15  
               1.125  0.375  15  
               1.5  0.375  15  
               1.875  0.375  15  
               2.25  0.375  15  
               2.625  0.375  15  
               3  0.375  15  
               0  0.75  15  
               0.375  0.75  15  
               0.75  0.75  15  
               1.125  0.75  15  
               1.5  0.75  15  
               1.875  0.75  15  
               2.25  0.75  15  
               2.625  0.75  15  
               3  0.75  15  
               0  1.125  15  
               0.375  1.125  15  
               0.75  1.125  15  
               1.125  1.125  15  
               1.5  1.125  15  
               1.875  1.125  15  
               2.25  1.125  15  
               2.625  1.125  15  
               3  1.125  15  
               0  1.5  15  
               0.375  1.5  15  
               0.75  1.5  15  
               1.125  1.5  15  
               1.5  1.5  15  
               1.875  1.5  15  
               2.25  1.5  15  
               2.625  1.5  15  
               3  1.5  15  
               0  1.875  15  
               0.375  1.875  15  
               0.75  1.875  15  
               1.125  1.875  15  
               1.5  1.875  15  
               1.875  1.875  15  
               2.25  1.875  15  
               2.625  1.875  15  
               3  1.875  15  
               0  2.25  15  
               0.375  2.25  15  
               0.75  2.25  15  
               1.125  2.25  15  
               1.5  2.25  15  
               1.875  2.25  15  
               2.25  2.25  15  
               2.625  2.25  15  
               3  2.25  15  
               0  2.625  15  
               0.375  2.625  15  
               0.75  2.625  15  
               1.125  2.625  15  
               1.5  2.625  15  
               1.875  2.625  15  
               2.25  2.625  15  
               2.625  2.625  15  
               3  2.625  15  
               0  3  15  
               0.375  3  15  
               0.75  3  15  
               1.125  3  15  
               1.5  3  15  
               1.875  3  15  
               2.25  3  15  
               2.625  3  15  
               3  3  15  
            </DataArray>
         </Points> 

         <Cells>
            <DataArray type="Int32" Name="connectivity" NumberOfComponents="1" format="ascii">
               
            </DataArray> 
            <DataArray type="Int32" Name="offsets" NumberOfComponents="1" format="ascii">
               
            </DataArray>
            <DataArray type="UInt8"  Name="types" NumberOfComponents="1" format="ascii">
               
            </DataArray>
         </Cells>
         <PointData Scalars="Rank " Vectors="Displacement Velocity Traction ">
            <DataArray type="UInt32" Name="Rank" NumberOfComponents="1" format="ascii">
               0 0 0 0 0 0 0 0 0 0 0 0 0 0 0 0 0 0 0 0 0 0 0 0 0 0 0 0 0 0 0 0 0 0 0 0 0 0 0 0 0 0 0 0 0 0 0 0 0 0 0 0 0 0 0 0 0 0 0 0 0 0 0 0 0 0 0 0 0 0 0 0 0 0 0 0 0 0 0 0 0 
            </DataArray>
            <DataArray type="Float64" Name="Displacement" NumberOfComponents="3" format="ascii">
               0 0 0  0 0 0  0 0 0  0 0 0  0 0 0  0 0 0  0 0 0  0 0 0  0 0 0  0 0 0  0 0 0  0 0 0  0 0 0  0 0 0  0 0 0  0 0 0  0 0 0  0 0 0  0 0 0  0 0 0  0 0 0  0 0 0  0 0 0  0 0 0  0 0 0  0 0 0  0 0 0  0 0 0  0 0 0  0 0 0  0 0 0  0 0 0  0 0 0  0 0 0  0 0 0  0 0 0  0 0 0  0 0 0  0 0 0  0 0 0  0 0 0  0 0 0  0 0 0  0 0 0  0 0 0  0 0 0  0 0 0  0 0 0  0 0 0  0 0 0  0 0 0  0 0 0  0 0 0  0 0 0  0 0 0  0 0 0  0 0 0  0 0 0  0 0 0  0 0 0  0 0 0  0 0 0  0 0 0  0 0 0  0 0 0  0 0 0  0 0 0  0 0 0  0 0 0  0 0 0  0 0 0  0 0 0  0 0 0  0 0 0  0 0 0  0 0 0  0 0 0  0 0 0  0 0 0  0 0 0  0 0 0  
            </DataArray>
            <DataArray type="Float64" Name="Velocity" NumberOfComponents="3" format="ascii">
               0 0 0  0 0 0  0 0 0  0 0 0  0 0 0  0 0 0  0 0 0  0 0 0  0 0 0  0 0 0  0 0 0  0 0 0  0 0 0  0 0 0  0 0 0  0 0 0  0 0 0  0 0 0  0 0 0  0 0 0  0 0 0  0 0 0  0 0 0  0 0 0  0 0 0  0 0 0  0 0 0  0 0 0  0 0 0  0 0 0  0 0 0  0 0 0  0 0 0  0 0 0  0 0 0  0 0 0  0 0 0  0 0 0  0 0 0  0 0 0  0 0 0  0 0 0  0 0 0  0 0 0  0 0 0  0 0 0  0 0 0  0 0 0  0 0 0  0 0 0  0 0 0  0 0 0  0 0 0  0 0 0  0 0 0  0 0 0  0 0 0  0 0 0  0 0 0  0 0 0  0 0 0  0 0 0  0 0 0  0 0 0  0 0 0  0 0 0  0 0 0  0 0 0  0 0 0  0 0 0  0 0 0  0 0 0  0 0 0  0 0 0  0 0 0  0 0 0  0 0 0  0 0 0  0 0 0  0 0 0  0 0 0  
            </DataArray>
            <DataArray type="Float64" Name="Traction" NumberOfComponents="3" format="ascii">
               0.00141501 0.00139753 -0.00375014  0.000330703 0.00167282 -0.00375014  0.000126045 0.00180527 -0.00375014  -2.73754e-05 0.0019654 -0.00375014  -2.55973e-05 0.0019015 -0.00375014  -3.36209e-05 0.00213163 -0.00375014  -0.000211932 0.00199074 -0.00375014  -0.000412864 0.00206893 -0.00375014  -0.00242428 0.00244417 -0.00375014  0.00160243 0.000340271 -0.00375014  0.000560209 0.000603986 -0.00375014  0.000246234 0.000709768 -0.00375014  9.00688e-05 0.000849818 -0.00375014  6.26688e-05 0.000829695 -0.00375014  9.68874e-05 0.000788952 -0.00375014  2.54404e-05 0.000542983 -0.00375014  -0.000355384 0.000397682 -0.00375014  -0.00206652 0.000471689 -0.00375014  0.00172332 0.000224065 -0.00375014  0.000690434 0.000300769 -0.00375014  0.000312264 0.000331318 -0.00375014  0.000120694 0.000420456 -0.00375014  8.62745e-05 0.000400476 -0.00375014  9.76822e-05 0.000323247 -0.00375014  -4.71735e-05 0.000126806 -0.00375014  -0.000530875 7.37486e-05 -0.00375014  -0.00203979 0.000342598 -0.00375014  0.0020721 0.000111807 -0.00375014  0.000942551 0.000130703 -0.00375014  0.000469457 0.000109044 -0.00375014  0.000205929 0.000162951 -0.00375014  6.1608e-05 0.000166852 -0.00375014  -4.41423e-05 6.89868e-05 -0.00375014  -0.00027324 -7.07128e-05 -0.00375014  -0.000833261 -5.05022e-05 -0.00375014  -0.00222333 0.000128665 -0.00375014  0.00214979 -0.000170663 -0.00375014  0.0010843 -8.32844e-05 -0.00375014  0.000581582 -0.000138826 -0.00375014  0.000264278 -6.82674e-05 -0.00375014  2.59906e-05 -2.33423e-05 -0.00375014  -0.000164242 -5.8212e-05 -0.00375014  -0.000397907 -0.000100158 -0.00375014  -0.000943589 -6.07494e-05 -0.00375014  -0.00202821 6.32099e-05 -0.00375014  0.00199883 -0.000409163 -0.00375014  0.0012103 -0.000365641 -0.00375014  0.000716554 -0.000444268 -0.00375014  0.000382709 -0.000339102 -0.00375014  7.06146e-05 -0.000239803 -0.00375014  -0.000188491 -0.000209882 -0.00375014  -0.000458379 -0.00016391 -0.00375014  -0.00101402 -0.000126228 -0.00375014  -0.00212683 4.98333e-05 -0.00375014  0.00201725 -0.000722354 -0.00375014  0.00138806 -0.000690702 -0.00375014  0.00085882 -0.000760383 -0.00375014  0.000488861 -0.000636557 -0.00375014  0.000122795 -0.000539866 -0.00375014  -0.00017585 -0.000471166 -0.00375014  -0.000431882 -0.000381391 -0.00375014  -0.000960809 -0.000347193 -0.00375014  -0.00209488 -0.000180063 -0.00375014  0.00168692 -0.00150301 -0.00375014  0.00137693 -0.00132103 -0.00375014  0.000801004 -0.00135809 -0.00375014  0.00042415 -0.00121552 -0.00375014  8.08e-05 -0.00114098 -0.00375014  -0.000186223 -0.00105586 -0.00375014  -0.000420757 -0.000903873 -0.00375014  -0.000892245 -0.000826325 -0.00375014  -0.00190521 -0.00061925 -0.00375014  0.0014675 -0.00141848 -0.00375014  0.00157503 -0.0016472 -0.00375014  0.000859143 -0.0020118 -0.00375014  0.000522205 -0.00206352 -0.00375014  0.000201916 -0.00228197 -0.00375014  -0.000109313 -0.00220371 -0.00375014  -0.000276809 -0.0019528 -0.00375014  -0.000635621 -0.00180099 -0.00375014  -0.00153627 -0.00153194 -0.00375014  
            </DataArray>
         </PointData> 
      </Piece>
   </UnstructuredGrid> 
</VTKFile>
