<?xml version="1.0"?>
<VTKFile type="UnstructuredGrid" version="0.1" byte_order="LittleEndian">
   <UnstructuredGrid>
      <Piece NumberOfPoints="81" NumberOfCells="0" > 
         <Points> 
            <DataArray type="Float64" Name="Position" NumberOfComponents="3" format="ascii"> 
               0  0  15  
               0.375  0  15  
               0.75  0  15  
               1.125  0  15  
               1.5  0  15  
               1.875  0  15  
               2.25  0  15  
               2.625  0  15  
               3  0  15  
               0  0.375  15  
               0.375  0.375  15  
               0.75  0.375  15  
               1.125  0.375  15  
               1.5  0.375  15  
               1.875  0.375  15  
               2.25  0.375  15  
               2.625  0.375  15  
               3  0.375  15  
               0  0.75  15  
               0.375  0.75  15  
               0.75  0.75  15  
               1.125  0.75  15  
               1.5  0.75  15  
               1.875  0.75  15  
               2.25  0.75  15  
               2.625  0.75  15  
               3  0.75  15  
               0  1.125  15  
               0.375  1.125  15  
               0.75  1.125  15  
               1.125  1.125  15  
               1.5  1.125  15  
               1.875  1.125  15  
               2.25  1.125  15  
               2.625  1.125  15  
               3  1.125  15  
               0  1.5  15  
               0.375  1.5  15  
               0.75  1.5  15  
               1.125  1.5  15  
               1.5  1.5  15  
               1.875  1.5  15  
               2.25  1.5  15  
               2.625  1.5  15  
               3  1.5  15  
               0  1.875  15  
               0.375  1.875  15  
               0.75  1.875  15  
               1.125  1.875  15  
               1.5  1.875  15  
               1.875  1.875  15  
               2.25  1.875  15  
               2.625  1.875  15  
               3  1.875  15  
               0  2.25  15  
               0.375  2.25  15  
               0.75  2.25  15  
               1.125  2.25  15  
               1.5  2.25  15  
               1.875  2.25  15  
               2.25  2.25  15  
               2.625  2.25  15  
               3  2.25  15  
               0  2.625  15  
               0.375  2.625  15  
               0.75  2.625  15  
               1.125  2.625  15  
               1.5  2.625  15  
               1.875  2.625  15  
               2.25  2.625  15  
               2.625  2.625  15  
               3  2.625  15  
               0  3  15  
               0.375  3  15  
               0.75  3  15  
               1.125  3  15  
               1.5  3  15  
               1.875  3  15  
               2.25  3  15  
               2.625  3  15  
               3  3  15  
            </DataArray>
         </Points> 

         <Cells>
            <DataArray type="Int32" Name="connectivity" NumberOfComponents="1" format="ascii">
               
            </DataArray> 
            <DataArray type="Int32" Name="offsets" NumberOfComponents="1" format="ascii">
               
            </DataArray>
            <DataArray type="UInt8"  Name="types" NumberOfComponents="1" format="ascii">
               
            </DataArray>
         </Cells>
         <PointData Scalars="Rank " Vectors="Displacement Velocity Traction ">
            <DataArray type="UInt32" Name="Rank" NumberOfComponents="1" format="ascii">
               0 0 0 0 0 0 0 0 0 0 0 0 0 0 0 0 0 0 0 0 0 0 0 0 0 0 0 0 0 0 0 0 0 0 0 0 0 0 0 0 0 0 0 0 0 0 0 0 0 0 0 0 0 0 0 0 0 0 0 0 0 0 0 0 0 0 0 0 0 0 0 0 0 0 0 0 0 0 0 0 0 
            </DataArray>
            <DataArray type="Float64" Name="Displacement" NumberOfComponents="3" format="ascii">
               0.0010562 0.000915742 -0.00292548  0.00101622 0.000531719 -0.00304924  0.000868877 0.00034945 -0.00289326  0.000657205 0.000227376 -0.00284811  0.000444755 0.000212968 -0.00285152  0.000254762 0.000177738 -0.00278349  0.000119602 0.000268179 -0.00288087  4.06187e-05 0.000345885 -0.00302563  1.64147e-05 0.000176123 -0.00267136  0.000664615 0.000876432 -0.00305014  0.000672238 0.000543062 -0.00305581  0.000576092 0.000416384 -0.00282776  0.000411459 0.000308717 -0.00278062  0.000221066 0.000297595 -0.00278757  2.71878e-05 0.000248975 -0.00273581  -0.000147937 0.000311924 -0.00284394  -0.000238079 0.000350249 -0.00314042  -0.000225992 0.000133953 -0.00297141  0.000466358 0.000731676 -0.00289433  0.000526698 0.000453497 -0.00282782  0.000462551 0.000360237 -0.00246603  0.000319762 0.000283835 -0.0023739  0.000159417 0.000267101 -0.00238932  1.57703e-06 0.000226172 -0.00236515  -0.000136327 0.000261763 -0.00246992  -0.000186052 0.000260299 -0.00285057  -0.000133292 2.15394e-05 -0.00286164  0.000335509 0.00052712 -0.0028487  0.000407156 0.000299615 -0.00278036  0.000374678 0.000225129 -0.00237359  0.000265752 0.000179189 -0.00224309  0.000127549 0.000156367 -0.00225515  -9.13774e-06 0.000118021 -0.00225013  -0.000116927 0.000121776 -0.00237376  -0.000140265 8.75503e-05 -0.00275167  -6.94788e-05 -0.000133995 -0.00278543  0.000310222 0.000326584 -0.0028521  0.000382607 0.000126139 -0.00278732  0.000342994 7.42463e-05 -0.00238906  0.000229133 4.66751e-05 -0.00225524  9.87266e-05 2.4985e-05 -0.00227287  -2.83134e-05 -2.00429e-05 -0.00225492  -0.000134688 -3.62312e-05 -0.00238511  -0.00015977 -0.000105454 -0.00277996  -7.94013e-05 -0.000315073 -0.00282813  0.000254148 0.000154039 -0.00278432  0.00031298 -4.88344e-05 -0.00273579  0.000288829 -7.70706e-05 -0.00236502  0.000188356 -8.76764e-05 -0.00225032  6.08868e-05 -0.000109151 -0.00225507  -6.57043e-05 -0.000160631 -0.00223784  -0.000166203 -0.000196482 -0.0023651  -0.000189104 -0.000297314 -0.00276367  -0.000106047 -0.000520737 -0.00281172  0.000340839 4.11175e-05 -0.00288152  0.000373118 -0.000206234 -0.00284372  0.00032355 -0.00021346 -0.00246954  0.000192607 -0.000195117 -0.00237365  4.88543e-05 -0.000225952 -0.00238497  -9.43459e-05 -0.000272681 -0.00236482  -0.000223264 -0.000339911 -0.00246439  -0.000278879 -0.000461623 -0.00282894  -0.000206757 -0.000750447 -0.00287168  0.000379156 -1.91097e-05 -0.00302643  0.000381715 -0.000286041 -0.00314035  0.000305917 -0.000267626 -0.00285039  0.000157307 -0.000224713 -0.00275174  -9.68098e-06 -0.000264889 -0.00277993  -0.000177467 -0.000308016 -0.00276351  -0.00032464 -0.000408281 -0.00282907  -0.000408992 -0.000556969 -0.00306364  -0.000393737 -0.000915371 -0.00303517  0.000217119 -3.63661e-05 -0.00267411  0.000182638 -0.000276645 -0.00297285  9.16423e-05 -0.000227864 -0.00286284  -3.72887e-05 -0.000168063 -0.00278688  -0.000195284 -0.000198354 -0.00282955  -0.000383052 -0.000236235 -0.00281311  -0.000599854 -0.000344198 -0.00287352  -0.000758135 -0.000546815 -0.00303669  -0.000800878 -0.000959887 -0.00289815  
            </DataArray>
            <DataArray type="Float64" Name="Velocity" NumberOfComponents="3" format="ascii">
               0.000336061 0.000308644 -0.00396779  0.000323201 0.000248296 -0.00405519  0.000287981 0.00015359 -0.00380813  0.000234936 9.36751e-05 -0.00374619  0.000169072 7.69352e-05 -0.00376129  0.000113559 6.38126e-05 -0.0036754  9.47155e-05 0.000144194 -0.00378965  0.000107257 0.000140491 -0.00401891  0.00011789 8.04912e-05 -0.00369902  0.000272969 0.000295749 -0.00405507  0.000274138 0.000250175 -0.00392707  0.000244355 0.000174804 -0.00354485  0.000185608 0.000127988 -0.00347631  0.000112463 0.000116938 -0.00349621  3.57264e-05 9.50218e-05 -0.00342504  -2.99823e-05 0.000155719 -0.00356047  -4.86348e-05 0.000143397 -0.00402519  -3.43851e-05 6.5998e-05 -0.00395827  0.000171688 0.000260472 -0.00380891  0.000191557 0.000221684 -0.00354541  0.000179132 0.000164287 -0.00293903  0.000129891 0.000137791 -0.00280993  7.59449e-05 0.000122891 -0.00284254  2.24899e-05 0.000107666 -0.00280047  -2.54038e-05 0.000146622 -0.00293936  -3.10284e-05 0.000124112 -0.00356963  -5.85387e-06 3.24808e-05 -0.00376733  0.000109091 0.000208422 -0.00374605  0.000141056 0.000165369 -0.00347649  0.000149105 0.00011691 -0.0028096  0.000119494 0.000108981 -0.0026328  7.2037e-05 9.51753e-05 -0.00265993  2.53507e-05 7.89378e-05 -0.00264053  -2.39715e-06 9.25926e-05 -0.00280817  1.11721e-05 6.00048e-05 -0.00344231  4.26603e-05 -1.24053e-05 -0.00367834  8.86381e-05 0.000145193 -0.00376109  0.00012512 9.70283e-05 -0.00349635  0.00012878 6.58318e-05 -0.00284211  0.000100697 6.32297e-05 -0.00265987  6.80023e-05 6.26237e-05 -0.0026915  3.73631e-05 3.12491e-05 -0.00265922  1.27213e-05 3.9419e-05 -0.0028378  2.54363e-05 -1.77304e-05 -0.00348659  5.9988e-05 -5.10376e-05 -0.00373468  7.35932e-05 9.43567e-05 -0.00367579  0.000100977 2.63977e-05 -0.00342554  0.000112996 1.52967e-05 -0.00280009  8.63439e-05 1.81677e-05 -0.00264035  4.09256e-05 3.1402e-05 -0.00265919  -4.62561e-06 -1.66655e-05 -0.00262638  -3.23883e-05 -1.19827e-05 -0.00279999  -2.09215e-05 -9.38273e-05 -0.00345759  1.4561e-05 -0.000101632 -0.00370521  0.000153323 8.23591e-05 -0.00378971  0.000160993 -3.28882e-05 -0.00356045  0.000152031 -3.02922e-05 -0.00293872  0.000100996 -7.75299e-06 -0.00280782  5.12796e-05 5.94459e-06 -0.00283748  3.27175e-06 -4.5523e-05 -0.00279972  -4.23768e-05 -6.00399e-05 -0.00293515  -5.57689e-05 -0.000151049 -0.00354664  -3.08168e-05 -0.000169888 -0.00378485  0.000141508 0.00010133 -0.00402035  0.000143493 -4.70881e-05 -0.00402568  0.000128257 -3.56759e-05 -0.00356966  7.12371e-05 5.67292e-06 -0.00344299  4.68141e-07 1.66934e-05 -0.00348703  -6.98804e-05 -3.54713e-05 -0.00345803  -0.000123739 -7.54607e-05 -0.00354747  -0.000149008 -0.000178318 -0.00393672  -0.000144258 -0.000220716 -0.0040404  8.71945e-05 0.000114473 -0.00370332  7.4746e-05 -3.29135e-05 -0.00396024  4.69895e-05 -1.35823e-05 -0.00376775  8.87448e-06 3.40488e-05 -0.00367923  -2.45495e-05 4.84317e-05 -0.00373518  -7.1501e-05 -1.86418e-06 -0.00370588  -0.00013742 -5.16911e-05 -0.0037863  -0.000187195 -0.000174578 -0.00404055  -0.00020347 -0.000237524 -0.00393784  
            </DataArray>
            <DataArray type="Float64" Name="Traction" NumberOfComponents="3" format="ascii">
               0.0243298 0.0236331 -0.0294345  0.0125644 0.0260472 -0.0294345  0.0055757 0.0262354 -0.0294345  0.00227038 0.0275459 -0.0294345  -0.00294443 0.0280202 -0.0294345  -0.00561403 0.0279697 -0.0294345  -0.00689745 0.0273714 -0.0294345  -0.0192599 0.0289507 -0.0294345  -0.0335677 0.0319549 -0.0294345  0.0268208 0.0117236 -0.0294345  0.0148237 0.0140858 -0.0294345  0.00850906 0.0133351 -0.0294345  0.00448849 0.0137624 -0.0294345  -0.000814488 0.0137636 -0.0294345  -0.00359211 0.0142598 -0.0294345  -0.00353224 0.0137793 -0.0294345  -0.0150821 0.0149253 -0.0294345  -0.0296438 0.0186127 -0.0294345  0.0270157 0.00433441 -0.0294345  0.0138661 0.00757724 -0.0294345  0.0080304 0.00729838 -0.0294345  0.00469784 0.00715004 -0.0294345  -0.000320415 0.00697012 -0.0294345  -0.00373126 0.00754401 -0.0294345  -0.00340258 0.00740517 -0.0294345  -0.0139226 0.00718847 -0.0294345  -0.0277184 0.00918145 -0.0294345  0.0276863 0.000809822 -0.0294345  0.0138571 0.00345687 -0.0294345  0.00759747 0.0038579 -0.0294345  0.00441324 0.00372909 -0.0294345  -0.000195737 0.00360336 -0.0294345  -0.00358338 0.00385513 -0.0294345  -0.00373639 0.00384032 -0.0294345  -0.0140689 0.00376802 -0.0294345  -0.0279339 0.0057526 -0.0294345  0.0276082 -0.00382313 -0.0294345  0.0133556 -0.00148233 -0.0294345  0.00706998 -0.00078752 -0.0294345  0.00414887 -0.000776998 -0.0294345  -0.000490465 -0.00122959 -0.0294345  -0.00353144 -0.00104172 -0.0294345  -0.00343261 -0.00102183 -0.0294345  -0.0137721 -0.000590907 -0.0294345  -0.0282054 0.0012568 -0.0294345  0.0277752 -0.00582568 -0.0294345  0.0133419 -0.00351286 -0.0294345  0.00713674 -0.00348925 -0.0294345  0.0039615 -0.00375753 -0.0294345  -0.00045154 -0.00415445 -0.0294345  -0.00331836 -0.0040838 -0.0294345  -0.00309914 -0.00424332 -0.0294345  -0.0134278 -0.0038404 -0.0294345  -0.0277364 -0.00195586 -0.0294345  0.0265319 -0.00634066 -0.0294345  0.0119755 -0.00258359 -0.0294345  0.00633772 -0.00241991 -0.0294345  0.00353262 -0.00342655 -0.0294345  -0.00053357 -0.00363977 -0.0294345  -0.00330375 -0.00365458 -0.0294345  -0.00306114 -0.00391107 -0.0294345  -0.0128133 -0.00500368 -0.0294345  -0.0265835 -0.00272695 -0.0294345  0.0289331 -0.0170922 -0.0294345  0.0129023 -0.0131312 -0.0294345  0.00616488 -0.0121875 -0.0294345  0.00363263 -0.0132548 -0.0294345  9.37135e-05 -0.0134922 -0.0294345  -0.00271897 -0.0136351 -0.0294345  -0.00395898 -0.0134485 -0.0294345  -0.0132537 -0.014102 -0.0294345  -0.0264857 -0.0115952 -0.0294345  0.0330054 -0.0347595 -0.0294345  0.0163317 -0.0296842 -0.0294345  0.00853593 -0.0269402 -0.0294345  0.00586918 -0.0276609 -0.0294345  0.00215242 -0.0276041 -0.0294345  -0.000368306 -0.0278288 -0.0294345  -0.0013608 -0.0274324 -0.0294345  -0.0105957 -0.0273492 -0.0294345  -0.024092 -0.024974 -0.0294345  
            </DataArray>
         </PointData> 
      </Piece>
   </UnstructuredGrid> 
</VTKFile>
