<?xml version="1.0"?>
<VTKFile type="UnstructuredGrid" version="0.1" byte_order="LittleEndian">
   <UnstructuredGrid>
      <Piece NumberOfPoints="81" NumberOfCells="0" > 
         <Points> 
            <DataArray type="Float64" Name="Position" NumberOfComponents="3" format="ascii"> 
               0  0  20  
               0.375  0  20  
               0.75  0  20  
               1.125  0  20  
               1.5  0  20  
               1.875  0  20  
               2.25  0  20  
               2.625  0  20  
               3  0  20  
               0  0.375  20  
               0.375  0.375  20  
               0.75  0.375  20  
               1.125  0.375  20  
               1.5  0.375  20  
               1.875  0.375  20  
               2.25  0.375  20  
               2.625  0.375  20  
               3  0.375  20  
               0  0.75  20  
               0.375  0.75  20  
               0.75  0.75  20  
               1.125  0.75  20  
               1.5  0.75  20  
               1.875  0.75  20  
               2.25  0.75  20  
               2.625  0.75  20  
               3  0.75  20  
               0  1.125  20  
               0.375  1.125  20  
               0.75  1.125  20  
               1.125  1.125  20  
               1.5  1.125  20  
               1.875  1.125  20  
               2.25  1.125  20  
               2.625  1.125  20  
               3  1.125  20  
               0  1.5  20  
               0.375  1.5  20  
               0.75  1.5  20  
               1.125  1.5  20  
               1.5  1.5  20  
               1.875  1.5  20  
               2.25  1.5  20  
               2.625  1.5  20  
               3  1.5  20  
               0  1.875  20  
               0.375  1.875  20  
               0.75  1.875  20  
               1.125  1.875  20  
               1.5  1.875  20  
               1.875  1.875  20  
               2.25  1.875  20  
               2.625  1.875  20  
               3  1.875  20  
               0  2.25  20  
               0.375  2.25  20  
               0.75  2.25  20  
               1.125  2.25  20  
               1.5  2.25  20  
               1.875  2.25  20  
               2.25  2.25  20  
               2.625  2.25  20  
               3  2.25  20  
               0  2.625  20  
               0.375  2.625  20  
               0.75  2.625  20  
               1.125  2.625  20  
               1.5  2.625  20  
               1.875  2.625  20  
               2.25  2.625  20  
               2.625  2.625  20  
               3  2.625  20  
               0  3  20  
               0.375  3  20  
               0.75  3  20  
               1.125  3  20  
               1.5  3  20  
               1.875  3  20  
               2.25  3  20  
               2.625  3  20  
               3  3  20  
            </DataArray>
         </Points> 

         <Cells>
            <DataArray type="Int32" Name="connectivity" NumberOfComponents="1" format="ascii">
               
            </DataArray> 
            <DataArray type="Int32" Name="offsets" NumberOfComponents="1" format="ascii">
               
            </DataArray>
            <DataArray type="UInt8"  Name="types" NumberOfComponents="1" format="ascii">
               
            </DataArray>
         </Cells>
         <PointData Scalars="Rank " Vectors="Displacement Velocity Traction ">
            <DataArray type="UInt32" Name="Rank" NumberOfComponents="1" format="ascii">
               0 0 0 0 0 0 0 0 0 0 0 0 0 0 0 0 0 0 0 0 0 0 0 0 0 0 0 0 0 0 0 0 0 0 0 0 0 0 0 0 0 0 0 0 0 0 0 0 0 0 0 0 0 0 0 0 0 0 0 0 0 0 0 0 0 0 0 0 0 0 0 0 0 0 0 0 0 0 0 0 0 
            </DataArray>
            <DataArray type="Float64" Name="Displacement" NumberOfComponents="3" format="ascii">
               2.56381e-06 2.57672e-06 -9.01922e-06  8.24945e-07 3.48025e-06 -9.16687e-06  1.87651e-07 4.21728e-06 -8.49201e-06  -5.95717e-08 4.28218e-06 -8.22841e-06  -2.74903e-07 4.26787e-06 -8.21445e-06  -6.60455e-07 4.41654e-06 -8.0376e-06  -1.29091e-06 4.11259e-06 -8.36687e-06  -1.0722e-06 2.86794e-06 -9.06551e-06  -1.95724e-06 2.9822e-06 -8.50249e-06  3.47292e-06 8.36282e-07 -9.165e-06  1.48954e-06 1.49799e-06 -8.73702e-06  5.81122e-07 1.95819e-06 -7.7735e-06  1.60167e-07 2.05503e-06 -7.54265e-06  2.61713e-08 2.16277e-06 -7.53171e-06  -2.39954e-07 2.07931e-06 -7.40887e-06  -1.04814e-06 2.14392e-06 -7.7865e-06  -1.48986e-06 1.53652e-06 -8.97906e-06  -2.78237e-06 1.72288e-06 -8.92084e-06  4.209e-06 1.95808e-07 -8.49252e-06  1.9505e-06 5.90293e-07 -7.77547e-06  9.01615e-07 9.10486e-07 -6.22054e-06  8.27953e-08 1.12164e-06 -5.82251e-06  -2.9873e-08 1.15237e-06 -5.82741e-06  -1.77485e-07 1.15171e-06 -5.7783e-06  -1.1928e-06 1.23513e-06 -6.21381e-06  -2.02977e-06 9.79598e-07 -7.80754e-06  -3.97883e-06 1.26637e-06 -8.30644e-06  4.27178e-06 -5.23481e-08 -8.22643e-06  2.04534e-06 1.68292e-07 -7.54341e-06  1.112e-06 9.15435e-08 -5.8214e-06  2.86165e-07 2.95126e-07 -5.27603e-06  -2.31596e-09 2.38873e-07 -5.27113e-06  -2.7601e-07 3.32751e-07 -5.26863e-06  -1.1009e-06 2.59828e-07 -5.79446e-06  -1.99141e-06 2.96172e-07 -7.44564e-06  -4.28401e-06 4.11528e-07 -8.02583e-06  4.25863e-06 -2.6807e-07 -8.21256e-06  2.15306e-06 3.25111e-08 -7.53226e-06  1.14247e-06 -2.28851e-08 -5.82609e-06  2.29784e-07 5.23481e-09 -5.27097e-06  5.96597e-08 6.67367e-08 -5.30004e-06  -1.12112e-07 6.27433e-08 -5.26703e-06  -1.01028e-06 1.40935e-07 -5.82058e-06  -1.93808e-06 6.81898e-08 -7.51039e-06  -3.98012e-06 4.21826e-07 -8.13438e-06  4.40678e-06 -6.52011e-07 -8.03721e-06  2.06963e-06 -2.32319e-07 -7.41038e-06  1.14165e-06 -1.69767e-07 -5.77748e-06  3.23776e-07 -2.68131e-07 -5.26874e-06  5.60529e-08 -1.05147e-07 -5.26737e-06  -2.36636e-07 -2.30599e-07 -5.25684e-06  -1.08032e-06 4.86151e-08 -5.80527e-06  -1.97126e-06 -1.42793e-07 -7.50944e-06  -4.20031e-06 4.21155e-07 -8.13021e-06  4.10358e-06 -1.28232e-06 -8.36506e-06  2.13406e-06 -1.03802e-06 -7.78649e-06  1.22447e-06 -1.18293e-06 -6.21178e-06  2.51356e-07 -1.09289e-06 -5.79338e-06  1.35093e-07 -1.00332e-06 -5.81969e-06  4.32693e-08 -1.07433e-06 -5.80424e-06  -8.21109e-07 -8.15835e-07 -6.21501e-06  -1.87171e-06 -5.87531e-07 -7.78512e-06  -4.1347e-06 -1.56556e-07 -8.44674e-06  2.86158e-06 -1.06915e-06 -9.06576e-06  1.52779e-06 -1.48319e-06 -8.97999e-06  9.6954e-07 -2.02228e-06 -7.80739e-06  2.88923e-07 -1.98566e-06 -7.44679e-06  6.34297e-08 -1.93329e-06 -7.51108e-06  -1.47456e-07 -1.96729e-06 -7.50996e-06  -5.92762e-07 -1.86858e-06 -7.78666e-06  -1.43787e-06 -1.43456e-06 -8.76536e-06  -3.39652e-06 -8.62118e-07 -9.1455e-06  2.97608e-06 -1.95781e-06 -8.50748e-06  1.7163e-06 -2.77951e-06 -8.92363e-06  1.25837e-06 -3.97418e-06 -8.30696e-06  4.04796e-07 -4.27955e-06 -8.02822e-06  4.18161e-07 -3.97733e-06 -8.13666e-06  4.17313e-07 -4.19871e-06 -8.13282e-06  -1.62637e-07 -4.13346e-06 -8.4507e-06  -8.69995e-07 -3.39565e-06 -9.14724e-06  -2.58239e-06 -2.57471e-06 -8.97366e-06  
            </DataArray>
            <DataArray type="Float64" Name="Velocity" NumberOfComponents="3" format="ascii">
               4.10642e-06 4.14958e-06 -1.49077e-05  1.45428e-06 5.59361e-06 -1.53004e-05  3.56104e-07 6.77163e-06 -1.4282e-05  -8.38906e-08 6.85349e-06 -1.38732e-05  -4.19397e-07 6.92787e-06 -1.37845e-05  -1.05548e-06 7.12106e-06 -1.35681e-05  -2.11883e-06 6.61683e-06 -1.40988e-05  -1.74112e-06 4.55981e-06 -1.514e-05  -2.99868e-06 4.71476e-06 -1.39883e-05  5.54755e-06 1.48838e-06 -1.52734e-05  2.46846e-06 2.50648e-06 -1.47576e-05  9.99647e-07 3.24518e-06 -1.32841e-05  2.73385e-07 3.38557e-06 -1.29049e-05  2.62126e-08 3.58865e-06 -1.2806e-05  -4.14373e-07 3.4307e-06 -1.26812e-05  -1.79875e-06 3.57697e-06 -1.33211e-05  -2.48009e-06 2.57599e-06 -1.51855e-05  -4.39873e-06 2.86368e-06 -1.48962e-05  6.73029e-06 3.8731e-07 -1.42672e-05  3.2159e-06 1.03465e-06 -1.32902e-05  1.53202e-06 1.56357e-06 -1.08707e-05  1.98044e-07 1.8677e-06 -1.02362e-05  -2.49125e-08 1.94398e-06 -1.0187e-05  -2.89861e-07 1.9116e-06 -1.01703e-05  -2.03023e-06 2.12704e-06 -1.08759e-05  -3.40931e-06 1.67578e-06 -1.33336e-05  -6.41439e-06 2.14428e-06 -1.40046e-05  6.80814e-06 -4.80826e-08 -1.38529e-05  3.35046e-06 3.10378e-07 -1.29077e-05  1.8351e-06 2.37278e-07 -1.02339e-05  4.83212e-07 5.20841e-07 -9.36121e-06  -2.92841e-08 4.84156e-07 -9.2725e-06  -4.83362e-07 5.83041e-07 -9.36497e-06  -1.82837e-06 5.35805e-07 -1.02144e-05  -3.29505e-06 5.27121e-07 -1.27542e-05  -6.91812e-06 7.51109e-07 -1.35475e-05  6.88411e-06 -3.86416e-07 -1.37629e-05  3.55378e-06 5.84998e-08 -1.28081e-05  1.90933e-06 1.04085e-08 -1.01835e-05  4.43329e-07 5.36454e-09 -9.27167e-06  1.10671e-07 1.48238e-07 -9.20984e-06  -2.18825e-07 1.08069e-07 -9.27091e-06  -1.68917e-06 2.67844e-07 -1.01577e-05  -3.21524e-06 1.67068e-07 -1.27954e-05  -6.45424e-06 7.07302e-07 -1.36548e-05  7.07114e-06 -1.01505e-06 -1.35481e-05  3.39153e-06 -3.77011e-07 -1.26859e-05  1.87402e-06 -2.4786e-07 -1.01685e-05  5.40884e-07 -4.43375e-07 -9.36605e-06  7.06507e-08 -1.75465e-07 -9.27202e-06  -4.24227e-07 -3.82743e-07 -9.33855e-06  -1.80601e-06 3.76474e-08 -1.0197e-05  -3.25083e-06 -2.15608e-07 -1.28446e-05  -6.7141e-06 6.74901e-07 -1.36933e-05  6.57512e-06 -2.07735e-06 -1.4075e-05  3.54152e-06 -1.7632e-06 -1.33214e-05  2.09056e-06 -1.98993e-06 -1.08704e-05  4.94975e-07 -1.79044e-06 -1.02111e-05  2.31098e-07 -1.65031e-06 -1.01545e-05  -3.71358e-09 -1.76599e-06 -1.01936e-05  -1.42362e-06 -1.38665e-06 -1.08791e-05  -3.10423e-06 -9.97584e-07 -1.32971e-05  -6.63041e-06 -3.03465e-07 -1.41811e-05  4.51716e-06 -1.70244e-06 -1.51233e-05  2.54019e-06 -2.44678e-06 -1.51918e-05  1.64058e-06 -3.3709e-06 -1.33352e-05  4.89733e-07 -3.25737e-06 -1.27596e-05  1.33274e-07 -3.17996e-06 -1.28006e-05  -2.52248e-07 -3.21152e-06 -1.28485e-05  -1.03528e-06 -3.07186e-06 -1.33038e-05  -2.39174e-06 -2.35613e-06 -1.48123e-05  -5.4233e-06 -1.49786e-06 -1.525e-05  4.67041e-06 -2.95404e-06 -1.39524e-05  2.82599e-06 -4.36108e-06 -1.48824e-05  2.10411e-06 -6.37174e-06 -1.39824e-05  7.11028e-07 -6.86807e-06 -1.35295e-05  6.72573e-07 -6.41113e-06 -1.36394e-05  6.33432e-07 -6.67047e-06 -1.36783e-05  -3.40709e-07 -6.59e-06 -1.41733e-05  -1.53493e-06 -5.38693e-06 -1.52325e-05  -4.12767e-06 -4.08295e-06 -1.47938e-05  
            </DataArray>
            <DataArray type="Float64" Name="Traction" NumberOfComponents="3" format="ascii">
               0 0 0  0 0 0  0 0 0  0 0 0  0 0 0  0 0 0  0 0 0  0 0 0  0 0 0  0 0 0  0 0 0  0 0 0  0 0 0  0 0 0  0 0 0  0 0 0  0 0 0  0 0 0  0 0 0  0 0 0  0 0 0  0 0 0  0 0 0  0 0 0  0 0 0  0 0 0  0 0 0  0 0 0  0 0 0  0 0 0  0 0 0  0 0 0  0 0 0  0 0 0  0 0 0  0 0 0  0 0 0  0 0 0  0 0 0  0 0 0  0 0 0  0 0 0  0 0 0  0 0 0  0 0 0  0 0 0  0 0 0  0 0 0  0 0 0  0 0 0  0 0 0  0 0 0  0 0 0  0 0 0  0 0 0  0 0 0  0 0 0  0 0 0  0 0 0  0 0 0  0 0 0  0 0 0  0 0 0  0 0 0  0 0 0  0 0 0  0 0 0  0 0 0  0 0 0  0 0 0  0 0 0  0 0 0  0 0 0  0 0 0  0 0 0  0 0 0  0 0 0  0 0 0  0 0 0  0 0 0  0 0 0  
            </DataArray>
         </PointData> 
      </Piece>
   </UnstructuredGrid> 
</VTKFile>
