<?xml version="1.0"?>
<VTKFile type="UnstructuredGrid" version="0.1" byte_order="LittleEndian">
   <UnstructuredGrid>
      <Piece NumberOfPoints="81" NumberOfCells="0" > 
         <Points> 
            <DataArray type="Float64" Name="Position" NumberOfComponents="3" format="ascii"> 
               0  0  15  
               0.375  0  15  
               0.75  0  15  
               1.125  0  15  
               1.5  0  15  
               1.875  0  15  
               2.25  0  15  
               2.625  0  15  
               3  0  15  
               0  0.375  15  
               0.375  0.375  15  
               0.75  0.375  15  
               1.125  0.375  15  
               1.5  0.375  15  
               1.875  0.375  15  
               2.25  0.375  15  
               2.625  0.375  15  
               3  0.375  15  
               0  0.75  15  
               0.375  0.75  15  
               0.75  0.75  15  
               1.125  0.75  15  
               1.5  0.75  15  
               1.875  0.75  15  
               2.25  0.75  15  
               2.625  0.75  15  
               3  0.75  15  
               0  1.125  15  
               0.375  1.125  15  
               0.75  1.125  15  
               1.125  1.125  15  
               1.5  1.125  15  
               1.875  1.125  15  
               2.25  1.125  15  
               2.625  1.125  15  
               3  1.125  15  
               0  1.5  15  
               0.375  1.5  15  
               0.75  1.5  15  
               1.125  1.5  15  
               1.5  1.5  15  
               1.875  1.5  15  
               2.25  1.5  15  
               2.625  1.5  15  
               3  1.5  15  
               0  1.875  15  
               0.375  1.875  15  
               0.75  1.875  15  
               1.125  1.875  15  
               1.5  1.875  15  
               1.875  1.875  15  
               2.25  1.875  15  
               2.625  1.875  15  
               3  1.875  15  
               0  2.25  15  
               0.375  2.25  15  
               0.75  2.25  15  
               1.125  2.25  15  
               1.5  2.25  15  
               1.875  2.25  15  
               2.25  2.25  15  
               2.625  2.25  15  
               3  2.25  15  
               0  2.625  15  
               0.375  2.625  15  
               0.75  2.625  15  
               1.125  2.625  15  
               1.5  2.625  15  
               1.875  2.625  15  
               2.25  2.625  15  
               2.625  2.625  15  
               3  2.625  15  
               0  3  15  
               0.375  3  15  
               0.75  3  15  
               1.125  3  15  
               1.5  3  15  
               1.875  3  15  
               2.25  3  15  
               2.625  3  15  
               3  3  15  
            </DataArray>
         </Points> 

         <Cells>
            <DataArray type="Int32" Name="connectivity" NumberOfComponents="1" format="ascii">
               
            </DataArray> 
            <DataArray type="Int32" Name="offsets" NumberOfComponents="1" format="ascii">
               
            </DataArray>
            <DataArray type="UInt8"  Name="types" NumberOfComponents="1" format="ascii">
               
            </DataArray>
         </Cells>
         <PointData Scalars="Rank " Vectors="Displacement Velocity Traction ">
            <DataArray type="UInt32" Name="Rank" NumberOfComponents="1" format="ascii">
               0 0 0 0 0 0 0 0 0 0 0 0 0 0 0 0 0 0 0 0 0 0 0 0 0 0 0 0 0 0 0 0 0 0 0 0 0 0 0 0 0 0 0 0 0 0 0 0 0 0 0 0 0 0 0 0 0 0 0 0 0 0 0 0 0 0 0 0 0 0 0 0 0 0 0 0 0 0 0 0 0 
            </DataArray>
            <DataArray type="Float64" Name="Displacement" NumberOfComponents="3" format="ascii">
               0.000272517 0.000182936 -0.000238182  0.000262871 7.39578e-05 -0.000249074  0.000224996 3.96088e-05 -0.000235561  0.000171538 1.78137e-05 -0.000230288  0.000121275 2.54235e-05 -0.000229766  7.67053e-05 1.42033e-05 -0.000224282  4.27753e-05 2.98181e-05 -0.000233662  1.94511e-05 4.50603e-05 -0.000247297  1.11319e-05 6.75035e-07 -0.000217319  0.00016139 0.000172861 -0.000249075  0.000164291 7.55904e-05 -0.000250714  0.00014198 5.40822e-05 -0.000232183  0.000105008 3.36884e-05 -0.000227426  6.38746e-05 4.05259e-05 -0.000227159  2.20716e-05 2.74491e-05 -0.000223339  -1.75899e-05 3.86341e-05 -0.00023335  -4.09614e-05 4.50148e-05 -0.000258167  -4.00615e-05 -9.26068e-06 -0.000242523  0.000122934 0.000133018 -0.000235603  0.000139566 5.02414e-05 -0.000232206  0.000123692 3.46188e-05 -0.000202369  8.99315e-05 2.04376e-05 -0.000193531  5.22842e-05 2.47998e-05 -0.000193863  1.45763e-05 1.54438e-05 -0.000192487  -1.98306e-05 2.22561e-05 -0.000202687  -3.53516e-05 2.08407e-05 -0.00023391  -2.51325e-05 -3.64011e-05 -0.000231944  9.68683e-05 7.65132e-05 -0.000230288  0.000115486 8.83467e-06 -0.000227433  0.000106028 -3.23485e-06 -0.00019351  7.8952e-05 -1.04761e-05 -0.00018098  4.62127e-05 -9.17262e-06 -0.000181134  1.26008e-05 -1.46999e-05 -0.000181309  -1.67773e-05 -1.34677e-05 -0.000193241  -2.83155e-05 -2.00366e-05 -0.000224695  -1.41582e-05 -7.42622e-05 -0.000224357  0.000105304 2.24505e-05 -0.000229759  0.00012343 -3.75986e-05 -0.000227163  0.000111581 -4.51575e-05 -0.000193838  8.10943e-05 -4.70337e-05 -0.000181137  4.54888e-05 -4.68717e-05 -0.000182071  8.7874e-06 -4.95287e-05 -0.000181113  -2.42429e-05 -5.27765e-05 -0.000193565  -3.88733e-05 -6.37756e-05 -0.000226549  -2.26621e-05 -0.000121579 -0.000227648  0.000101509 -2.67359e-05 -0.000224302  0.000117575 -8.44298e-05 -0.000223359  0.000107577 -8.59441e-05 -0.000192468  7.83877e-05 -8.29642e-05 -0.000181312  4.33648e-05 -8.35036e-05 -0.00018112  7.41763e-06 -8.37771e-05 -0.000180545  -2.34187e-05 -9.21572e-05 -0.000192881  -3.66281e-05 -0.000107553 -0.000226116  -1.9047e-05 -0.00017585 -0.000227211  0.000123364 -6.56129e-05 -0.000233679  0.000134647 -0.000127962 -0.000233345  0.000119712 -0.000121638 -0.000202651  8.44897e-05 -0.000113282 -0.000193225  4.39764e-05 -0.000114825 -0.00019355  2.13722e-06 -0.000112608 -0.000192862  -3.57975e-05 -0.000127589 -0.000202296  -5.55281e-05 -0.000147289 -0.000232367  -3.88594e-05 -0.000236236 -0.000233875  0.000151447 -9.30492e-05 -0.00024736  0.000152165 -0.000153426 -0.00025817  0.000126928 -0.000136894 -0.000233904  8.37051e-05 -0.000124061 -0.000224724  3.66338e-05 -0.000126728 -0.000226572  -1.07581e-05 -0.000123242 -0.000226131  -5.34547e-05 -0.000144804 -0.000232399  -7.98062e-05 -0.00017156 -0.000251464  -7.73061e-05 -0.000279898 -0.000248068  0.00010912 -0.000102922 -0.000217554  9.80449e-05 -0.000152154 -0.000242643  6.78154e-05 -0.000124633 -0.000232002  2.62661e-05 -0.000107502 -0.000224432  -2.42533e-05 -0.000107861 -0.000227709  -8.09542e-05 -0.000103236 -0.000227276  -0.000143181 -0.000126164 -0.000233987  -0.000188043 -0.00016797 -0.000248123  -0.000199705 -0.000291233 -0.000236131  
            </DataArray>
            <DataArray type="Float64" Name="Velocity" NumberOfComponents="3" format="ascii">
               0.000243125 0.000209844 -0.00028073  0.000233475 0.000117381 -0.000296141  0.000197994 7.23838e-05 -0.000281511  0.000147825 4.48884e-05 -0.000276381  9.79035e-05 4.22909e-05 -0.000276058  5.16773e-05 3.67723e-05 -0.000269255  1.49085e-05 5.38203e-05 -0.000279998  -1.04904e-05 8.13496e-05 -0.000293959  -1.93235e-05 4.51873e-05 -0.000254095  0.000150803 0.000200611 -0.000295785  0.000152249 0.000120279 -0.000301808  0.000128475 8.84392e-05 -0.000282213  8.93118e-05 6.32631e-05 -0.000277158  4.46632e-05 6.15549e-05 -0.00027721  -5.89806e-07 5.37033e-05 -0.000272397  -4.16876e-05 6.56811e-05 -0.000283868  -6.48697e-05 8.2529e-05 -0.00031084  -6.31593e-05 3.47654e-05 -0.000288216  0.000103717 0.000166213 -0.000281167  0.000117423 9.91719e-05 -0.000282234  0.000101648 7.58429e-05 -0.000251069  6.85507e-05 5.65699e-05 -0.000241361  3.10458e-05 5.42529e-05 -0.000242209  -5.38968e-06 4.69448e-05 -0.000240346  -3.6383e-05 5.37601e-05 -0.00025141  -4.82658e-05 5.94865e-05 -0.000284579  -3.57194e-05 6.39983e-06 -0.000277962  7.63339e-05 0.000118731 -0.000276036  9.09888e-05 6.45648e-05 -0.000277218  8.09641e-05 4.60867e-05 -0.000241398  5.51013e-05 3.298e-05 -0.000227583  2.3378e-05 2.91109e-05 -0.000228223  -7.54136e-06 2.15886e-05 -0.000228284  -3.2844e-05 2.27699e-05 -0.000241268  -4.00087e-05 1.9097e-05 -0.000274078  -2.36551e-05 -3.21289e-05 -0.000269476  7.13914e-05 7.33671e-05 -0.000275696  8.56758e-05 2.73724e-05 -0.000277265  7.38115e-05 1.29553e-05 -0.000242229  4.64037e-05 4.23103e-06 -0.000228202  1.59126e-05 -1.35074e-06 -0.000229653  -1.31027e-05 -9.67395e-06 -0.000228247  -3.69979e-05 -1.3508e-05 -0.000241769  -4.35842e-05 -2.49826e-05 -0.000276507  -2.5303e-05 -7.70359e-05 -0.000273718  5.52693e-05 3.42811e-05 -0.000268902  6.68183e-05 -9.37523e-06 -0.000272446  5.89043e-05 -2.0437e-05 -0.000240341  3.62772e-05 -2.55453e-05 -0.000228223  9.39634e-06 -3.36062e-05 -0.000228208  -1.68137e-05 -4.20881e-05 -0.00022709  -3.87735e-05 -5.09179e-05 -0.000240417  -4.50015e-05 -6.87051e-05 -0.000275462  -2.64848e-05 -0.000126182 -0.000272652  6.84859e-05 6.98875e-06 -0.000279651  7.5329e-05 -4.26052e-05 -0.000283919  6.30699e-05 -5.09776e-05 -0.000251444  3.51872e-05 -5.09657e-05 -0.000241279  4.70856e-06 -6.25764e-05 -0.000241781  -2.56411e-05 -6.91082e-05 -0.000240461  -5.30584e-05 -8.40088e-05 -0.000250885  -6.52206e-05 -0.000106781 -0.000282378  -4.85987e-05 -0.000179173 -0.00027929  7.28369e-05 -1.0247e-05 -0.000293719  7.3224e-05 -6.1455e-05 -0.00031094  5.59909e-05 -6.51336e-05 -0.000284628  2.55591e-05 -6.12581e-05 -0.000274156  -7.68375e-06 -7.55975e-05 -0.000276575  -4.15944e-05 -8.06039e-05 -0.000275549  -7.30473e-05 -0.000100986 -0.000282432  -9.20921e-05 -0.000129779 -0.000302769  -8.84743e-05 -0.000217237 -0.00029476  3.72249e-05 -1.60497e-05 -0.00025358  3.0277e-05 -6.11568e-05 -0.000288021  1.12256e-05 -5.8448e-05 -0.000277648  -1.6291e-05 -5.11595e-05 -0.000269173  -5.2224e-05 -6.31375e-05 -0.000273383  -9.49484e-05 -6.66312e-05 -0.000272351  -0.000143588 -8.73412e-05 -0.000278964  -0.000179555 -0.000127905 -0.000294381  -0.000189216 -0.000227368 -0.000277706  
            </DataArray>
            <DataArray type="Float64" Name="Traction" NumberOfComponents="3" format="ascii">
               0.00624371 0.00623075 -0.0148076  0.0031492 0.00755831 -0.0148076  0.00127731 0.00818509 -0.0148076  0.000327409 0.00855531 -0.0148076  -0.000420108 0.00858431 -0.0148076  -0.00106042 0.00886778 -0.0148076  -0.00200731 0.00860826 -0.0148076  -0.00430055 0.00843068 -0.0148076  -0.00902878 0.00908893 -0.0148076  0.00748775 0.00312944 -0.0148076  0.00396406 0.00401748 -0.0148076  0.00206486 0.0041447 -0.0148076  0.000950243 0.0042958 -0.0148076  8.14787e-05 0.00419063 -0.0148076  -0.000549994 0.00425307 -0.0148076  -0.00130159 0.00397493 -0.0148076  -0.00368024 0.00379975 -0.0148076  -0.00839636 0.00446392 -0.0148076  0.00809095 0.00124915 -0.0148076  0.00406782 0.00207989 -0.0148076  0.00213753 0.0021681 -0.0148076  0.00102496 0.00221115 -0.0148076  0.000144178 0.00208946 -0.0148076  -0.000595857 0.00210159 -0.0148076  -0.00146694 0.00190765 -0.0148076  -0.00392066 0.00176619 -0.0148076  -0.00863216 0.00245128 -0.0148076  0.00855262 0.000290769 -0.0148076  0.00426688 0.000912211 -0.0148076  0.00221616 0.000992144 -0.0148076  0.00104294 0.000990957 -0.0148076  0.000111774 0.000906318 -0.0148076  -0.000718761 0.000864917 -0.0148076  -0.00170927 0.000745744 -0.0148076  -0.00423404 0.000729765 -0.0148076  -0.00894731 0.00131292 -0.0148076  0.0086731 -0.000589182 -0.0148076  0.00423722 -7.44802e-05 -0.0148076  0.00215845 -2.34937e-05 -0.0148076  0.000983085 -1.88039e-05 -0.0148076  2.75709e-05 -6.90906e-05 -0.0148076  -0.000799838 -8.25697e-05 -0.0148076  -0.00176613 -9.71953e-05 -0.0148076  -0.0042731 -3.13385e-05 -0.0148076  -0.00880304 0.000527962 -0.0148076  0.00879681 -0.00134178 -0.0148076  0.00440262 -0.000851979 -0.0148076  0.00228208 -0.000913471 -0.0148076  0.00104034 -0.000926715 -0.0148076  4.94961e-05 -0.000910406 -0.0148076  -0.000824437 -0.000909387 -0.0148076  -0.00184174 -0.000854229 -0.0148076  -0.00438026 -0.000769592 -0.0148076  -0.00894888 -8.71251e-05 -0.0148076  0.00855786 -0.00231424 -0.0148076  0.00431912 -0.00169367 -0.0148076  0.0022451 -0.00185139 -0.0148076  0.00102921 -0.00193347 -0.0148076  7.31088e-05 -0.00187697 -0.0148076  -0.00078668 -0.00188555 -0.0148076  -0.00178115 -0.00179037 -0.0148076  -0.00423822 -0.00176606 -0.0148076  -0.00873629 -0.000951685 -0.0148076  0.00826974 -0.00474737 -0.0148076  0.00420749 -0.00411614 -0.0148076  0.00212233 -0.00431112 -0.0148076  0.00100442 -0.00442867 -0.0148076  0.000124019 -0.00436321 -0.0148076  -0.00070535 -0.00438851 -0.0148076  -0.00175006 -0.00419565 -0.0148076  -0.00408432 -0.00405267 -0.0148076  -0.00820279 -0.00309279 -0.0148076  0.00877816 -0.00871332 -0.0148076  0.00490125 -0.00822207 -0.0148076  0.00273228 -0.00856936 -0.0148076  0.00156473 -0.00883246 -0.0148076  0.000696656 -0.0088324 -0.0148076  -2.06749e-05 -0.00892252 -0.0148076  -0.000898988 -0.00864148 -0.0148076  -0.00305511 -0.00812818 -0.0148076  -0.00689067 -0.00691896 -0.0148076  
            </DataArray>
         </PointData> 
      </Piece>
   </UnstructuredGrid> 
</VTKFile>
