<?xml version="1.0"?>
<VTKFile type="UnstructuredGrid" version="0.1" byte_order="LittleEndian">
   <UnstructuredGrid>
      <Piece NumberOfPoints="81" NumberOfCells="0" > 
         <Points> 
            <DataArray type="Float64" Name="Position" NumberOfComponents="3" format="ascii"> 
               0  0  15  
               0.375  0  15  
               0.75  0  15  
               1.125  0  15  
               1.5  0  15  
               1.875  0  15  
               2.25  0  15  
               2.625  0  15  
               3  0  15  
               0  0.375  15  
               0.375  0.375  15  
               0.75  0.375  15  
               1.125  0.375  15  
               1.5  0.375  15  
               1.875  0.375  15  
               2.25  0.375  15  
               2.625  0.375  15  
               3  0.375  15  
               0  0.75  15  
               0.375  0.75  15  
               0.75  0.75  15  
               1.125  0.75  15  
               1.5  0.75  15  
               1.875  0.75  15  
               2.25  0.75  15  
               2.625  0.75  15  
               3  0.75  15  
               0  1.125  15  
               0.375  1.125  15  
               0.75  1.125  15  
               1.125  1.125  15  
               1.5  1.125  15  
               1.875  1.125  15  
               2.25  1.125  15  
               2.625  1.125  15  
               3  1.125  15  
               0  1.5  15  
               0.375  1.5  15  
               0.75  1.5  15  
               1.125  1.5  15  
               1.5  1.5  15  
               1.875  1.5  15  
               2.25  1.5  15  
               2.625  1.5  15  
               3  1.5  15  
               0  1.875  15  
               0.375  1.875  15  
               0.75  1.875  15  
               1.125  1.875  15  
               1.5  1.875  15  
               1.875  1.875  15  
               2.25  1.875  15  
               2.625  1.875  15  
               3  1.875  15  
               0  2.25  15  
               0.375  2.25  15  
               0.75  2.25  15  
               1.125  2.25  15  
               1.5  2.25  15  
               1.875  2.25  15  
               2.25  2.25  15  
               2.625  2.25  15  
               3  2.25  15  
               0  2.625  15  
               0.375  2.625  15  
               0.75  2.625  15  
               1.125  2.625  15  
               1.5  2.625  15  
               1.875  2.625  15  
               2.25  2.625  15  
               2.625  2.625  15  
               3  2.625  15  
               0  3  15  
               0.375  3  15  
               0.75  3  15  
               1.125  3  15  
               1.5  3  15  
               1.875  3  15  
               2.25  3  15  
               2.625  3  15  
               3  3  15  
            </DataArray>
         </Points> 

         <Cells>
            <DataArray type="Int32" Name="connectivity" NumberOfComponents="1" format="ascii">
               
            </DataArray> 
            <DataArray type="Int32" Name="offsets" NumberOfComponents="1" format="ascii">
               
            </DataArray>
            <DataArray type="UInt8"  Name="types" NumberOfComponents="1" format="ascii">
               
            </DataArray>
         </Cells>
         <PointData Scalars="Rank " Vectors="Displacement Velocity Traction ">
            <DataArray type="UInt32" Name="Rank" NumberOfComponents="1" format="ascii">
               0 0 0 0 0 0 0 0 0 0 0 0 0 0 0 0 0 0 0 0 0 0 0 0 0 0 0 0 0 0 0 0 0 0 0 0 0 0 0 0 0 0 0 0 0 0 0 0 0 0 0 0 0 0 0 0 0 0 0 0 0 0 0 0 0 0 0 0 0 0 0 0 0 0 0 0 0 0 0 0 0 
            </DataArray>
            <DataArray type="Float64" Name="Displacement" NumberOfComponents="3" format="ascii">
               0 0 0  0 0 0  0 0 0  0 0 0  0 0 0  0 0 0  0 0 0  0 0 0  0 0 0  0 0 0  0 0 0  0 0 0  0 0 0  0 0 0  0 0 0  0 0 0  0 0 0  0 0 0  0 0 0  0 0 0  0 0 0  0 0 0  0 0 0  0 0 0  0 0 0  0 0 0  0 0 0  0 0 0  0 0 0  0 0 0  0 0 0  0 0 0  0 0 0  0 0 0  0 0 0  0 0 0  0 0 0  0 0 0  0 0 0  0 0 0  0 0 0  0 0 0  0 0 0  0 0 0  0 0 0  0 0 0  0 0 0  0 0 0  0 0 0  0 0 0  0 0 0  0 0 0  0 0 0  0 0 0  0 0 0  0 0 0  0 0 0  0 0 0  0 0 0  0 0 0  0 0 0  0 0 0  0 0 0  0 0 0  0 0 0  0 0 0  0 0 0  0 0 0  0 0 0  0 0 0  0 0 0  0 0 0  0 0 0  0 0 0  0 0 0  0 0 0  0 0 0  0 0 0  0 0 0  0 0 0  0 0 0  
            </DataArray>
            <DataArray type="Float64" Name="Velocity" NumberOfComponents="3" format="ascii">
               0 0 0  0 0 0  0 0 0  0 0 0  0 0 0  0 0 0  0 0 0  0 0 0  0 0 0  0 0 0  0 0 0  0 0 0  0 0 0  0 0 0  0 0 0  0 0 0  0 0 0  0 0 0  0 0 0  0 0 0  0 0 0  0 0 0  0 0 0  0 0 0  0 0 0  0 0 0  0 0 0  0 0 0  0 0 0  0 0 0  0 0 0  0 0 0  0 0 0  0 0 0  0 0 0  0 0 0  0 0 0  0 0 0  0 0 0  0 0 0  0 0 0  0 0 0  0 0 0  0 0 0  0 0 0  0 0 0  0 0 0  0 0 0  0 0 0  0 0 0  0 0 0  0 0 0  0 0 0  0 0 0  0 0 0  0 0 0  0 0 0  0 0 0  0 0 0  0 0 0  0 0 0  0 0 0  0 0 0  0 0 0  0 0 0  0 0 0  0 0 0  0 0 0  0 0 0  0 0 0  0 0 0  0 0 0  0 0 0  0 0 0  0 0 0  0 0 0  0 0 0  0 0 0  0 0 0  0 0 0  0 0 0  
            </DataArray>
            <DataArray type="Float64" Name="Traction" NumberOfComponents="3" format="ascii">
               4.7261e-05 5.88633e-05 -5.56878e-05  7.92713e-06 4.58637e-05 -5.56878e-05  -8.6316e-06 2.48811e-05 -5.56878e-05  -3.09318e-06 2.37053e-05 -5.56878e-05  3.25577e-06 3.60104e-05 -5.56878e-05  2.40259e-06 5.61396e-05 -5.56878e-05  -5.64513e-07 5.80479e-05 -5.56878e-05  -8.40233e-06 9.88609e-05 -5.56878e-05  -0.000148963 0.000149275 -5.56878e-05  4.35981e-05 2.45442e-05 -5.56878e-05  2.15732e-05 2.89109e-05 -5.56878e-05  9.0942e-06 1.87322e-05 -5.56878e-05  4.23442e-06 4.25259e-06 -5.56878e-05  3.56074e-06 -5.8534e-06 -5.56878e-05  5.87861e-06 8.78712e-06 -5.56878e-05  1.44452e-06 1.42273e-05 -5.56878e-05  -1.27648e-05 2.06994e-05 -5.56878e-05  -0.000105427 1.65958e-05 -5.56878e-05  3.07886e-05 8.40739e-06 -5.56878e-05  2.03846e-05 1.55994e-05 -5.56878e-05  1.40162e-05 1.0689e-05 -5.56878e-05  9.49231e-06 6.20695e-06 -5.56878e-05  9.9862e-06 -1.42769e-07 -5.56878e-05  1.3073e-05 2.90177e-06 -5.56878e-05  5.0203e-06 -9.62657e-07 -5.56878e-05  -7.42425e-06 4.66227e-06 -5.56878e-05  -7.61135e-05 8.93003e-06 -5.56878e-05  1.06608e-05 7.70109e-06 -5.56878e-05  1.18675e-05 7.73006e-06 -5.56878e-05  1.06608e-05 5.15828e-06 -5.56878e-05  8.71284e-06 7.70249e-06 -5.56878e-05  4.95794e-06 6.08846e-06 -5.56878e-05  2.58645e-06 -1.31179e-07 -5.56878e-05  -5.02687e-06 -1.17938e-05 -5.56878e-05  -1.52871e-05 -4.61929e-06 -5.56878e-05  -5.54078e-05 -3.2295e-06 -5.56878e-05  1.01547e-05 9.02525e-06 -5.56878e-05  1.38329e-05 3.43566e-06 -5.56878e-05  1.28011e-05 2.37994e-06 -5.56878e-05  1.11096e-05 6.47741e-06 -5.56878e-05  2.25792e-06 6.11314e-06 -5.56878e-05  -5.06328e-06 4.55527e-06 -5.56878e-05  -8.21363e-06 -8.63427e-07 -5.56878e-05  -1.4328e-05 2.92866e-06 -5.56878e-05  -2.07747e-05 9.04158e-06 -5.56878e-05  -1.22468e-06 -5.63172e-06 -5.56878e-05  1.54068e-05 -4.62698e-06 -5.56878e-05  1.34346e-05 -7.36263e-06 -5.56878e-05  1.13558e-05 -3.99673e-06 -5.56878e-05  2.99394e-06 -4.21765e-06 -5.56878e-05  -3.64888e-06 4.93412e-07 -5.56878e-05  -1.04736e-05 3.39416e-06 -5.56878e-05  -1.90093e-05 5.64175e-06 -5.56878e-05  -3.4983e-05 1.51894e-05 -5.56878e-05  -1.98927e-05 -8.60025e-06 -5.56878e-05  1.32027e-05 -4.65825e-06 -5.56878e-05  1.40368e-05 -1.02453e-05 -5.56878e-05  1.32665e-05 -1.15011e-05 -5.56878e-05  6.50093e-06 -1.42206e-05 -5.56878e-05  1.70362e-06 -1.00722e-05 -5.56878e-05  -6.50127e-06 -6.37613e-06 -5.56878e-05  -1.63737e-05 -1.50655e-06 -5.56878e-05  -4.17664e-05 4.12195e-06 -5.56878e-05  -3.13431e-05 3.18779e-06 -5.56878e-05  -1.74163e-06 1.50735e-06 -5.56878e-05  6.56106e-06 -1.24319e-05 -5.56878e-05  8.09298e-06 -1.96879e-05 -5.56878e-05  3.18075e-06 -2.55615e-05 -5.56878e-05  -1.12084e-07 -2.26363e-05 -5.56878e-05  -4.85581e-06 -1.79815e-05 -5.56878e-05  -1.1349e-05 -9.46321e-06 -5.56878e-05  -4.63267e-05 3.21523e-06 -5.56878e-05  -4.38954e-05 3.81175e-05 -5.56878e-05  -4.99342e-06 2.08433e-05 -5.56878e-05  9.95405e-06 -6.61772e-08 -5.56878e-05  1.00373e-05 -1.87475e-05 -5.56878e-05  2.70595e-06 -3.44441e-05 -5.56878e-05  -1.75578e-06 -3.95584e-05 -5.56878e-05  -5.76876e-06 -3.88014e-05 -5.56878e-05  -3.42812e-06 -4.28613e-05 -5.56878e-05  -5.35939e-05 -4.71045e-05 -5.56878e-05  
            </DataArray>
         </PointData> 
      </Piece>
   </UnstructuredGrid> 
</VTKFile>
