<?xml version="1.0"?>
<VTKFile type="UnstructuredGrid" version="0.1" byte_order="LittleEndian">
   <UnstructuredGrid>
      <Piece NumberOfPoints="81" NumberOfCells="0" > 
         <Points> 
            <DataArray type="Float64" Name="Position" NumberOfComponents="3" format="ascii"> 
               0  0  20  
               0.375  0  20  
               0.75  0  20  
               1.125  0  20  
               1.5  0  20  
               1.875  0  20  
               2.25  0  20  
               2.625  0  20  
               3  0  20  
               0  0.375  20  
               0.375  0.375  20  
               0.75  0.375  20  
               1.125  0.375  20  
               1.5  0.375  20  
               1.875  0.375  20  
               2.25  0.375  20  
               2.625  0.375  20  
               3  0.375  20  
               0  0.75  20  
               0.375  0.75  20  
               0.75  0.75  20  
               1.125  0.75  20  
               1.5  0.75  20  
               1.875  0.75  20  
               2.25  0.75  20  
               2.625  0.75  20  
               3  0.75  20  
               0  1.125  20  
               0.375  1.125  20  
               0.75  1.125  20  
               1.125  1.125  20  
               1.5  1.125  20  
               1.875  1.125  20  
               2.25  1.125  20  
               2.625  1.125  20  
               3  1.125  20  
               0  1.5  20  
               0.375  1.5  20  
               0.75  1.5  20  
               1.125  1.5  20  
               1.5  1.5  20  
               1.875  1.5  20  
               2.25  1.5  20  
               2.625  1.5  20  
               3  1.5  20  
               0  1.875  20  
               0.375  1.875  20  
               0.75  1.875  20  
               1.125  1.875  20  
               1.5  1.875  20  
               1.875  1.875  20  
               2.25  1.875  20  
               2.625  1.875  20  
               3  1.875  20  
               0  2.25  20  
               0.375  2.25  20  
               0.75  2.25  20  
               1.125  2.25  20  
               1.5  2.25  20  
               1.875  2.25  20  
               2.25  2.25  20  
               2.625  2.25  20  
               3  2.25  20  
               0  2.625  20  
               0.375  2.625  20  
               0.75  2.625  20  
               1.125  2.625  20  
               1.5  2.625  20  
               1.875  2.625  20  
               2.25  2.625  20  
               2.625  2.625  20  
               3  2.625  20  
               0  3  20  
               0.375  3  20  
               0.75  3  20  
               1.125  3  20  
               1.5  3  20  
               1.875  3  20  
               2.25  3  20  
               2.625  3  20  
               3  3  20  
            </DataArray>
         </Points> 

         <Cells>
            <DataArray type="Int32" Name="connectivity" NumberOfComponents="1" format="ascii">
               
            </DataArray> 
            <DataArray type="Int32" Name="offsets" NumberOfComponents="1" format="ascii">
               
            </DataArray>
            <DataArray type="UInt8"  Name="types" NumberOfComponents="1" format="ascii">
               
            </DataArray>
         </Cells>
         <PointData Scalars="Rank " Vectors="Displacement Velocity Traction ">
            <DataArray type="UInt32" Name="Rank" NumberOfComponents="1" format="ascii">
               0 0 0 0 0 0 0 0 0 0 0 0 0 0 0 0 0 0 0 0 0 0 0 0 0 0 0 0 0 0 0 0 0 0 0 0 0 0 0 0 0 0 0 0 0 0 0 0 0 0 0 0 0 0 0 0 0 0 0 0 0 0 0 0 0 0 0 0 0 0 0 0 0 0 0 0 0 0 0 0 0 
            </DataArray>
            <DataArray type="Float64" Name="Displacement" NumberOfComponents="3" format="ascii">
               6.90108e-05 6.92701e-05 -0.000270623  3.53003e-05 8.76746e-05 -0.000283785  1.58483e-05 0.000107073 -0.000268414  5.99334e-07 0.00010723 -0.000262601  -7.46348e-06 0.00010751 -0.000262027  -2.36805e-05 0.000111868 -0.000255715  -4.15505e-05 0.00010273 -0.00026629  -2.7162e-05 7.02313e-05 -0.000281643  -3.93234e-05 7.36503e-05 -0.000246562  8.7458e-05 3.55177e-05 -0.000283686  4.59914e-05 4.61983e-05 -0.000286211  2.3515e-05 5.78462e-05 -0.000265264  7.83411e-06 5.98521e-05 -0.000259981  1.70109e-06 6.37396e-05 -0.000259711  -9.64116e-06 6.04742e-05 -0.000255315  -3.78768e-05 6.29103e-05 -0.000266606  -4.55073e-05 4.77317e-05 -0.000294783  -6.59185e-05 4.98235e-05 -0.000276143  0.000106843 1.60164e-05 -0.00026837  5.7674e-05 2.37226e-05 -0.0002653  3.11386e-05 3.13292e-05 -0.00023167  5.15399e-06 3.69241e-05 -0.000221765  -7.47451e-08 3.82155e-05 -0.000222188  -7.12458e-06 3.78461e-05 -0.000220597  -4.04334e-05 4.12184e-05 -0.000232008  -6.07319e-05 3.56289e-05 -0.000267264  -9.9664e-05 4.19626e-05 -0.000264319  0.000106949 7.55793e-07 -0.00026251  5.96297e-05 8.0177e-06 -0.000259998  3.67224e-05 5.35358e-06 -0.000221742  1.13067e-05 1.15013e-05 -0.000207655  -9.74809e-08 1.01823e-05 -0.000207876  -1.06784e-05 1.30157e-05 -0.000208071  -3.56548e-05 1.11351e-05 -0.000221459  -5.75629e-05 1.23047e-05 -0.000256876  -0.000107731 1.68081e-05 -0.000255806  0.000107241 -7.33178e-06 -0.000261929  6.3513e-05 1.83473e-06 -0.000259726  3.79999e-05 7.45198e-08 -0.000222163  9.97649e-06 5.76416e-08 -0.000207878  2.01074e-06 2.17839e-06 -0.000208996  -6.13526e-06 2.3917e-06 -0.000207859  -3.38515e-05 4.45678e-06 -0.000221832  -5.69595e-05 2.64081e-06 -0.000259013  -9.89126e-05 1.27873e-05 -0.000259618  0.000111579 -2.34998e-05 -0.000255646  6.02459e-05 -9.49332e-06 -0.00025535  3.7631e-05 -6.97017e-06 -0.000220577  1.28116e-05 -1.05214e-05 -0.000208071  2.23531e-06 -5.95377e-06 -0.000207863  -9.17902e-06 -9.02526e-06 -0.000207161  -3.51095e-05 -1.50908e-06 -0.000220999  -5.7007e-05 -6.49393e-06 -0.000258468  -0.000104752 1.07156e-05 -0.000259063  0.000102512 -4.13753e-05 -0.000266209  6.27055e-05 -3.77092e-05 -0.000266613  4.10062e-05 -4.02658e-05 -0.000231969  1.09414e-05 -3.55336e-05 -0.000221444  4.30384e-06 -3.37076e-05 -0.000221815  -1.6809e-06 -3.4989e-05 -0.00022098  -2.88132e-05 -2.86904e-05 -0.000231563  -5.44614e-05 -2.35419e-05 -0.000265468  -0.000103379 -1.4736e-05 -0.000266446  7.00497e-05 -2.7102e-05 -0.000281636  4.75445e-05 -4.54131e-05 -0.000294826  3.54243e-05 -6.05885e-05 -0.000267273  1.21256e-05 -5.7458e-05 -0.000256928  2.51172e-06 -5.685e-05 -0.000259053  -6.64845e-06 -5.69105e-05 -0.0002585  -2.36999e-05 -5.43988e-05 -0.00026552  -4.39385e-05 -4.38201e-05 -0.000287081  -8.419e-05 -3.60303e-05 -0.000282603  7.34964e-05 -3.9295e-05 -0.00024662  4.96645e-05 -6.58856e-05 -0.000276196  4.17578e-05 -9.9548e-05 -0.000264283  1.66213e-05 -0.000107589 -0.000255799  1.26612e-05 -9.87869e-05 -0.000259594  1.05687e-05 -0.000104626 -0.000259045  -1.48836e-05 -0.000103282 -0.000266474  -3.61924e-05 -8.40845e-05 -0.000282555  -6.90492e-05 -6.8853e-05 -0.000268187  
            </DataArray>
            <DataArray type="Float64" Name="Velocity" NumberOfComponents="3" format="ascii">
               7.71068e-05 7.7394e-05 -0.000315215  4.38328e-05 9.64293e-05 -0.00033333  2.12896e-05 0.000118109 -0.000316997  1.29496e-06 0.000117775 -0.000311306  -8.42363e-06 0.000117832 -0.000310952  -2.80608e-05 0.000123219 -0.000303239  -4.84841e-05 0.00011299 -0.000315203  -2.96954e-05 7.60396e-05 -0.000330637  -3.90583e-05 7.974e-05 -0.00028463  9.56696e-05 4.40469e-05 -0.000332901  5.33256e-05 5.38873e-05 -0.000340224  2.89565e-05 6.64415e-05 -0.000318374  1.00598e-05 6.83874e-05 -0.000312829  2.14081e-06 7.26622e-05 -0.000312849  -1.17745e-05 6.89603e-05 -0.000307477  -4.52275e-05 7.25317e-05 -0.000320209  -5.23973e-05 5.53892e-05 -0.000350505  -7.04061e-05 5.68019e-05 -0.000324057  0.000117373 2.16283e-05 -0.000316533  6.59413e-05 2.93867e-05 -0.000318369  3.68373e-05 3.72365e-05 -0.00028382  6.82274e-06 4.31517e-05 -0.000273088  3.8966e-08 4.44787e-05 -0.000273956  -8.72249e-06 4.39829e-05 -0.000271973  -4.77103e-05 4.86456e-05 -0.000284117  -7.01715e-05 4.28213e-05 -0.000321081  -0.000109556 4.94337e-05 -0.000312815  0.000116973 1.86449e-06 -0.000310878  6.78551e-05 1.05822e-05 -0.000312892  4.27835e-05 7.36892e-06 -0.000273157  1.37672e-05 1.42623e-05 -0.000257813  -2.76782e-07 1.27028e-05 -0.00025844  -1.29835e-05 1.59926e-05 -0.000258666  -4.11148e-05 1.38499e-05 -0.000272992  -6.54259e-05 1.53704e-05 -0.000309395  -0.000118407 2.02777e-05 -0.000303447  0.000117083 -7.85434e-06 -0.00031051  7.21189e-05 2.68308e-06 -0.000312902  4.40806e-05 6.00393e-07 -0.000274001  1.21935e-05 2.8161e-07 -0.000258405  2.13927e-06 2.70297e-06 -0.000259992  -7.97356e-06 3.0658e-06 -0.00025847  -3.93567e-05 5.23387e-06 -0.000273449  -6.47165e-05 3.52409e-06 -0.000312023  -0.000107764 1.49749e-05 -0.000308281  0.00012248 -2.75957e-05 -0.000302792  6.84034e-05 -1.12616e-05 -0.000307503  4.35685e-05 -8.25405e-06 -0.000271984  1.54666e-05 -1.25236e-05 -0.00025858  2.50094e-06 -7.49534e-06 -0.000258417  -1.12684e-05 -1.08186e-05 -0.000257253  -4.07051e-05 -2.63397e-06 -0.000272011  -6.4874e-05 -8.00766e-06 -0.000310913  -0.00011486 1.24787e-05 -0.000307048  0.000112198 -4.80202e-05 -0.000314784  7.19074e-05 -4.48273e-05 -0.00032027  4.81564e-05 -4.73618e-05 -0.000284202  1.33089e-05 -4.08361e-05 -0.000273019  4.63848e-06 -3.90681e-05 -0.000273485  -3.19209e-06 -4.0455e-05 -0.000272089  -3.42173e-05 -3.38681e-05 -0.000283536  -6.2069e-05 -2.87233e-05 -0.00031856  -0.000113267 -1.96176e-05 -0.000314417  7.52206e-05 -2.90388e-05 -0.000330299  5.47608e-05 -5.19344e-05 -0.000350586  4.22644e-05 -6.96751e-05 -0.000321145  1.47413e-05 -6.50131e-05 -0.000309452  2.89346e-06 -6.43033e-05 -0.00031209  -8.59072e-06 -6.44763e-05 -0.000311009  -2.91364e-05 -6.16076e-05 -0.000318595  -5.09024e-05 -5.03473e-05 -0.000341293  -9.18346e-05 -4.443e-05 -0.000331665  7.89577e-05 -3.8224e-05 -0.000283893  5.61133e-05 -6.98089e-05 -0.000323769  4.88327e-05 -0.000108916 -0.00031245  1.96931e-05 -0.000117808 -0.000303063  1.42863e-05 -0.000107162 -0.000307877  1.17372e-05 -0.000114207 -0.000306674  -2.00132e-05 -0.000112538 -0.000313955  -4.45396e-05 -9.10079e-05 -0.000331196  -7.67831e-05 -7.66066e-05 -0.000311739  
            </DataArray>
            <DataArray type="Float64" Name="Traction" NumberOfComponents="3" format="ascii">
               0 0 0  0 0 0  0 0 0  0 0 0  0 0 0  0 0 0  0 0 0  0 0 0  0 0 0  0 0 0  0 0 0  0 0 0  0 0 0  0 0 0  0 0 0  0 0 0  0 0 0  0 0 0  0 0 0  0 0 0  0 0 0  0 0 0  0 0 0  0 0 0  0 0 0  0 0 0  0 0 0  0 0 0  0 0 0  0 0 0  0 0 0  0 0 0  0 0 0  0 0 0  0 0 0  0 0 0  0 0 0  0 0 0  0 0 0  0 0 0  0 0 0  0 0 0  0 0 0  0 0 0  0 0 0  0 0 0  0 0 0  0 0 0  0 0 0  0 0 0  0 0 0  0 0 0  0 0 0  0 0 0  0 0 0  0 0 0  0 0 0  0 0 0  0 0 0  0 0 0  0 0 0  0 0 0  0 0 0  0 0 0  0 0 0  0 0 0  0 0 0  0 0 0  0 0 0  0 0 0  0 0 0  0 0 0  0 0 0  0 0 0  0 0 0  0 0 0  0 0 0  0 0 0  0 0 0  0 0 0  0 0 0  
            </DataArray>
         </PointData> 
      </Piece>
   </UnstructuredGrid> 
</VTKFile>
