<?xml version="1.0"?>
<VTKFile type="UnstructuredGrid" version="0.1" byte_order="LittleEndian">
   <UnstructuredGrid>
      <Piece NumberOfPoints="81" NumberOfCells="0" > 
         <Points> 
            <DataArray type="Float64" Name="Position" NumberOfComponents="3" format="ascii"> 
               0  0  20  
               0.375  0  20  
               0.75  0  20  
               1.125  0  20  
               1.5  0  20  
               1.875  0  20  
               2.25  0  20  
               2.625  0  20  
               3  0  20  
               0  0.375  20  
               0.375  0.375  20  
               0.75  0.375  20  
               1.125  0.375  20  
               1.5  0.375  20  
               1.875  0.375  20  
               2.25  0.375  20  
               2.625  0.375  20  
               3  0.375  20  
               0  0.75  20  
               0.375  0.75  20  
               0.75  0.75  20  
               1.125  0.75  20  
               1.5  0.75  20  
               1.875  0.75  20  
               2.25  0.75  20  
               2.625  0.75  20  
               3  0.75  20  
               0  1.125  20  
               0.375  1.125  20  
               0.75  1.125  20  
               1.125  1.125  20  
               1.5  1.125  20  
               1.875  1.125  20  
               2.25  1.125  20  
               2.625  1.125  20  
               3  1.125  20  
               0  1.5  20  
               0.375  1.5  20  
               0.75  1.5  20  
               1.125  1.5  20  
               1.5  1.5  20  
               1.875  1.5  20  
               2.25  1.5  20  
               2.625  1.5  20  
               3  1.5  20  
               0  1.875  20  
               0.375  1.875  20  
               0.75  1.875  20  
               1.125  1.875  20  
               1.5  1.875  20  
               1.875  1.875  20  
               2.25  1.875  20  
               2.625  1.875  20  
               3  1.875  20  
               0  2.25  20  
               0.375  2.25  20  
               0.75  2.25  20  
               1.125  2.25  20  
               1.5  2.25  20  
               1.875  2.25  20  
               2.25  2.25  20  
               2.625  2.25  20  
               3  2.25  20  
               0  2.625  20  
               0.375  2.625  20  
               0.75  2.625  20  
               1.125  2.625  20  
               1.5  2.625  20  
               1.875  2.625  20  
               2.25  2.625  20  
               2.625  2.625  20  
               3  2.625  20  
               0  3  20  
               0.375  3  20  
               0.75  3  20  
               1.125  3  20  
               1.5  3  20  
               1.875  3  20  
               2.25  3  20  
               2.625  3  20  
               3  3  20  
            </DataArray>
         </Points> 

         <Cells>
            <DataArray type="Int32" Name="connectivity" NumberOfComponents="1" format="ascii">
               
            </DataArray> 
            <DataArray type="Int32" Name="offsets" NumberOfComponents="1" format="ascii">
               
            </DataArray>
            <DataArray type="UInt8"  Name="types" NumberOfComponents="1" format="ascii">
               
            </DataArray>
         </Cells>
         <PointData Scalars="Rank " Vectors="Displacement Velocity Traction ">
            <DataArray type="UInt32" Name="Rank" NumberOfComponents="1" format="ascii">
               0 0 0 0 0 0 0 0 0 0 0 0 0 0 0 0 0 0 0 0 0 0 0 0 0 0 0 0 0 0 0 0 0 0 0 0 0 0 0 0 0 0 0 0 0 0 0 0 0 0 0 0 0 0 0 0 0 0 0 0 0 0 0 0 0 0 0 0 0 0 0 0 0 0 0 0 0 0 0 0 0 
            </DataArray>
            <DataArray type="Float64" Name="Displacement" NumberOfComponents="3" format="ascii">
               0.00386376 0.00386508 -0.0137758  0.000802934 0.00552104 -0.0136248  0.000315662 0.00695929 -0.0126001  -0.000123107 0.00700623 -0.0124654  -0.000289424 0.00676286 -0.0125792  -0.000569542 0.00717182 -0.0123207  -0.00150804 0.00693044 -0.0125847  -0.0011063 0.00478513 -0.0135388  -0.00321745 0.00435854 -0.0132684  0.00551966 0.000804166 -0.0136239  0.00181566 0.00181716 -0.0123971  0.000963858 0.00240769 -0.0105349  0.000134385 0.00254272 -0.0103574  4.5349e-05 0.002584 -0.0105016  -0.000150564 0.00255559 -0.0102224  -0.00141094 0.00273015 -0.0105797  -0.00173559 0.00178878 -0.0126167  -0.0046808 0.0018493 -0.0133956  0.00695757 0.000316566 -0.0125996  0.00240659 0.000965273 -0.0105352  0.00139758 0.0013987 -0.00757921  -2.34345e-05 0.0016187 -0.00722013  -4.2807e-05 0.00157824 -0.0074294  -3.65218e-05 0.00162062 -0.00719931  -0.00170559 0.00180354 -0.00759138  -0.0025623 0.00135806 -0.0106038  -0.00674822 0.00150092 -0.0125263  0.00700359 -0.000122091 -0.0124644  0.00254094 0.000135476 -0.0103577  0.0016176 -2.21028e-05 -0.0072201  0.000219619 0.000220705 -0.00672259  9.39099e-06 0.000129703 -0.00689527  -0.000180549 0.000259471 -0.00673311  -0.00155045 0.000135805 -0.0072134  -0.00245913 0.0002426 -0.0102621  -0.00704228 0.000283156 -0.0123225  0.00676058 -0.000288661 -0.0125781  0.00258216 4.59378e-05 -0.0105017  0.00157696 -4.2049e-05 -0.00742918  0.000128535 1.01163e-05 -0.0068951  8.24543e-05 8.31941e-05 -0.00706226  3.26551e-05 6.60908e-05 -0.00689098  -0.00139431 0.000174213 -0.007417  -0.00230943 7.50723e-05 -0.0104753  -0.00644041 0.000505294 -0.0125056  0.0071694 -0.000568815 -0.01232  0.00255375 -0.00015016 -0.0102228  0.00161926 -3.63097e-05 -0.00719911  0.000258248 -0.000180279 -0.00673278  6.52994e-05 3.29328e-05 -0.00689089  -0.000147974 -0.000147793 -0.00670407  -0.00156166 0.000209294 -0.00719692  -0.00244813 -0.000111094 -0.0103156  -0.00692272 0.000600387 -0.012365  0.00692851 -0.00150746 -0.012584  0.00272844 -0.0014101 -0.01058  0.00180208 -0.00170503 -0.00759126  0.000134701 -0.00155091 -0.00721326  0.000173531 -0.00139458 -0.00741702  0.000208826 -0.00156208 -0.00719704  -0.00125723 -0.00125734 -0.00756908  -0.00228528 -0.000961017 -0.0105441  -0.00684489 -0.000273182 -0.0125477  0.00478407 -0.00110746 -0.0135391  0.00178755 -0.00173588 -0.0126172  0.0013567 -0.00256192 -0.0106041  0.000241458 -0.00245976 -0.0102628  7.44023e-05 -0.00230999 -0.0104759  -0.000111761 -0.00244885 -0.0103162  -0.000961321 -0.00228566 -0.0105448  -0.001738 -0.00173776 -0.0124252  -0.00541468 -0.000845993 -0.0135925  0.00435775 -0.00321962 -0.0132706  0.00184822 -0.00468248 -0.013397  0.00149962 -0.00674852 -0.0125267  0.000282198 -0.00704251 -0.0123231  0.000504678 -0.00644099 -0.0125061  0.000599357 -0.00692342 -0.0123656  -0.000274005 -0.00684491 -0.0125482  -0.000846595 -0.00541395 -0.0135922  -0.00386983 -0.00386874 -0.0137043  
            </DataArray>
            <DataArray type="Float64" Name="Velocity" NumberOfComponents="3" format="ascii">
               0.0153608 0.0153584 -0.0504897  0.00078441 0.0233443 -0.047953  0.00048389 0.030176 -0.0435992  -0.000783637 0.0302445 -0.0436424  -0.000840932 0.0287865 -0.0443183  -0.000693228 0.0306257 -0.0436134  -0.00423803 0.0304124 -0.04396  -0.00313762 0.0212989 -0.0480178  -0.0150137 0.0176505 -0.0507839  0.0233393 0.000782964 -0.0479494  0.00534547 0.00534975 -0.0401276  0.00343413 0.00761611 -0.0309154  -0.000195025 0.00813576 -0.0306822  7.56941e-05 0.00802264 -0.0315057  0.000262745 0.00812158 -0.0303625  -0.00442457 0.00872667 -0.0310919  -0.00499718 0.00504205 -0.0403148  -0.021177 0.0048264 -0.0478038  0.0301699 0.000485467 -0.0435945  0.00761171 0.00343704 -0.0309152  0.00526102 0.00526401 -0.0163049  -0.000849924 0.00588384 -0.0155758  -0.00022852 0.0055437 -0.0167475  0.000697499 0.00582163 -0.0155705  -0.00596349 0.00640339 -0.0164641  -0.00805142 0.00435334 -0.0311429  -0.0297311 0.00418551 -0.0438463  0.0302373 -0.000778043 -0.043639  0.00813091 -0.000190827 -0.0306832  0.00588079 -0.00084544 -0.0155769  -0.000118164 -0.000113985 -0.0144782  5.21428e-05 -0.000460657 -0.015419  0.000245889 -6.45868e-05 -0.014454  -0.00568148 -0.000573069 -0.015569  -0.00791505 -4.60037e-05 -0.0304192  -0.0303653 -0.000110868 -0.04361  0.0287806 -0.000835515 -0.0443146  0.00801857 8.08744e-05 -0.0315064  0.005541 -0.000223381 -0.0167482  -0.0004649 5.68368e-05 -0.0154185  0.000230706 0.000235363 -0.0162237  0.000932661 0.000112229 -0.0153997  -0.00498948 0.000505306 -0.0167182  -0.0072312 0.000112877 -0.0314445  -0.0279395 0.00147288 -0.0441668  0.0306193 -0.000690267 -0.043609  0.00811644 0.000266672 -0.0303628  0.00581825 0.000700911 -0.0155711  -6.89404e-05 0.000249163 -0.0144531  0.00010727 0.000935728 -0.0153993  0.000256776 0.000260109 -0.014433  -0.00577809 0.00150452 -0.0155371  -0.00792859 0.000169681 -0.0306256  -0.0300475 0.00219895 -0.0434741  0.030405 -0.00423492 -0.0439565  0.00872176 -0.00442135 -0.0310931  0.00640031 -0.00596082 -0.0164657  -0.000577595 -0.00568028 -0.0155695  0.000500413 -0.00498812 -0.0167191  0.00150085 -0.00577623 -0.0155384  -0.00474834 -0.00474573 -0.0162835  -0.0073116 -0.00341971 -0.0309543  -0.0299477 -0.000377531 -0.0435321  0.0212912 -0.00313266 -0.0480145  0.00503733 -0.0049932 -0.0403159  0.00435042 -0.0080472 -0.0311441  -5.10224e-05 -0.00791269 -0.0304197  0.000107378 -0.00722898 -0.0314455  0.000165375 -0.00792609 -0.030627  -0.0034215 -0.00730672 -0.0309545  -0.00516155 -0.00515718 -0.0402008  -0.0231442 -0.000954129 -0.0479188  0.0176416 -0.0150079 -0.0507763  0.00481896 -0.0211723 -0.0478016  0.00418138 -0.0297259 -0.043844  -0.000114651 -0.0303611 -0.0436071  0.00146708 -0.0279359 -0.0441643  0.00219247 -0.0300439 -0.0434719  -0.000380398 -0.0299408 -0.0435275  -0.000954348 -0.0231356 -0.0479145  -0.0154151 -0.0154133 -0.0503777  
            </DataArray>
            <DataArray type="Float64" Name="Traction" NumberOfComponents="3" format="ascii">
               0 0 0  0 0 0  0 0 0  0 0 0  0 0 0  0 0 0  0 0 0  0 0 0  0 0 0  0 0 0  0 0 0  0 0 0  0 0 0  0 0 0  0 0 0  0 0 0  0 0 0  0 0 0  0 0 0  0 0 0  0 0 0  0 0 0  0 0 0  0 0 0  0 0 0  0 0 0  0 0 0  0 0 0  0 0 0  0 0 0  0 0 0  0 0 0  0 0 0  0 0 0  0 0 0  0 0 0  0 0 0  0 0 0  0 0 0  0 0 0  0 0 0  0 0 0  0 0 0  0 0 0  0 0 0  0 0 0  0 0 0  0 0 0  0 0 0  0 0 0  0 0 0  0 0 0  0 0 0  0 0 0  0 0 0  0 0 0  0 0 0  0 0 0  0 0 0  0 0 0  0 0 0  0 0 0  0 0 0  0 0 0  0 0 0  0 0 0  0 0 0  0 0 0  0 0 0  0 0 0  0 0 0  0 0 0  0 0 0  0 0 0  0 0 0  0 0 0  0 0 0  0 0 0  0 0 0  0 0 0  0 0 0  
            </DataArray>
         </PointData> 
      </Piece>
   </UnstructuredGrid> 
</VTKFile>
