<?xml version="1.0"?>
<VTKFile type="UnstructuredGrid" version="0.1" byte_order="LittleEndian">
   <UnstructuredGrid>
      <Piece NumberOfPoints="81" NumberOfCells="0" > 
         <Points> 
            <DataArray type="Float64" Name="Position" NumberOfComponents="3" format="ascii"> 
               0  0  20  
               0.375  0  20  
               0.75  0  20  
               1.125  0  20  
               1.5  0  20  
               1.875  0  20  
               2.25  0  20  
               2.625  0  20  
               3  0  20  
               0  0.375  20  
               0.375  0.375  20  
               0.75  0.375  20  
               1.125  0.375  20  
               1.5  0.375  20  
               1.875  0.375  20  
               2.25  0.375  20  
               2.625  0.375  20  
               3  0.375  20  
               0  0.75  20  
               0.375  0.75  20  
               0.75  0.75  20  
               1.125  0.75  20  
               1.5  0.75  20  
               1.875  0.75  20  
               2.25  0.75  20  
               2.625  0.75  20  
               3  0.75  20  
               0  1.125  20  
               0.375  1.125  20  
               0.75  1.125  20  
               1.125  1.125  20  
               1.5  1.125  20  
               1.875  1.125  20  
               2.25  1.125  20  
               2.625  1.125  20  
               3  1.125  20  
               0  1.5  20  
               0.375  1.5  20  
               0.75  1.5  20  
               1.125  1.5  20  
               1.5  1.5  20  
               1.875  1.5  20  
               2.25  1.5  20  
               2.625  1.5  20  
               3  1.5  20  
               0  1.875  20  
               0.375  1.875  20  
               0.75  1.875  20  
               1.125  1.875  20  
               1.5  1.875  20  
               1.875  1.875  20  
               2.25  1.875  20  
               2.625  1.875  20  
               3  1.875  20  
               0  2.25  20  
               0.375  2.25  20  
               0.75  2.25  20  
               1.125  2.25  20  
               1.5  2.25  20  
               1.875  2.25  20  
               2.25  2.25  20  
               2.625  2.25  20  
               3  2.25  20  
               0  2.625  20  
               0.375  2.625  20  
               0.75  2.625  20  
               1.125  2.625  20  
               1.5  2.625  20  
               1.875  2.625  20  
               2.25  2.625  20  
               2.625  2.625  20  
               3  2.625  20  
               0  3  20  
               0.375  3  20  
               0.75  3  20  
               1.125  3  20  
               1.5  3  20  
               1.875  3  20  
               2.25  3  20  
               2.625  3  20  
               3  3  20  
            </DataArray>
         </Points> 

         <Cells>
            <DataArray type="Int32" Name="connectivity" NumberOfComponents="1" format="ascii">
               
            </DataArray> 
            <DataArray type="Int32" Name="offsets" NumberOfComponents="1" format="ascii">
               
            </DataArray>
            <DataArray type="UInt8"  Name="types" NumberOfComponents="1" format="ascii">
               
            </DataArray>
         </Cells>
         <PointData Scalars="Rank " Vectors="Displacement Velocity Traction ">
            <DataArray type="UInt32" Name="Rank" NumberOfComponents="1" format="ascii">
               0 0 0 0 0 0 0 0 0 0 0 0 0 0 0 0 0 0 0 0 0 0 0 0 0 0 0 0 0 0 0 0 0 0 0 0 0 0 0 0 0 0 0 0 0 0 0 0 0 0 0 0 0 0 0 0 0 0 0 0 0 0 0 0 0 0 0 0 0 0 0 0 0 0 0 0 0 0 0 0 0 
            </DataArray>
            <DataArray type="Float64" Name="Displacement" NumberOfComponents="3" format="ascii">
               0 0 0  0 0 0  0 0 0  0 0 0  0 0 0  0 0 0  0 0 0  0 0 0  0 0 0  0 0 0  0 0 0  0 0 0  0 0 0  0 0 0  0 0 0  0 0 0  0 0 0  0 0 0  0 0 0  0 0 0  0 0 0  0 0 0  0 0 0  0 0 0  0 0 0  0 0 0  0 0 0  0 0 0  0 0 0  0 0 0  0 0 0  0 0 0  0 0 0  0 0 0  0 0 0  0 0 0  0 0 0  0 0 0  0 0 0  0 0 0  0 0 0  0 0 0  0 0 0  0 0 0  0 0 0  0 0 0  0 0 0  0 0 0  0 0 0  0 0 0  0 0 0  0 0 0  0 0 0  0 0 0  0 0 0  0 0 0  0 0 0  0 0 0  0 0 0  0 0 0  0 0 0  0 0 0  0 0 0  0 0 0  0 0 0  0 0 0  0 0 0  0 0 0  0 0 0  0 0 0  0 0 0  0 0 0  0 0 0  0 0 0  0 0 0  0 0 0  0 0 0  0 0 0  0 0 0  0 0 0  0 0 0  
            </DataArray>
            <DataArray type="Float64" Name="Velocity" NumberOfComponents="3" format="ascii">
               0 0 0  0 0 0  0 0 0  0 0 0  0 0 0  0 0 0  0 0 0  0 0 0  0 0 0  0 0 0  0 0 0  0 0 0  0 0 0  0 0 0  0 0 0  0 0 0  0 0 0  0 0 0  0 0 0  0 0 0  0 0 0  0 0 0  0 0 0  0 0 0  0 0 0  0 0 0  0 0 0  0 0 0  0 0 0  0 0 0  0 0 0  0 0 0  0 0 0  0 0 0  0 0 0  0 0 0  0 0 0  0 0 0  0 0 0  0 0 0  0 0 0  0 0 0  0 0 0  0 0 0  0 0 0  0 0 0  0 0 0  0 0 0  0 0 0  0 0 0  0 0 0  0 0 0  0 0 0  0 0 0  0 0 0  0 0 0  0 0 0  0 0 0  0 0 0  0 0 0  0 0 0  0 0 0  0 0 0  0 0 0  0 0 0  0 0 0  0 0 0  0 0 0  0 0 0  0 0 0  0 0 0  0 0 0  0 0 0  0 0 0  0 0 0  0 0 0  0 0 0  0 0 0  0 0 0  0 0 0  0 0 0  
            </DataArray>
            <DataArray type="Float64" Name="Traction" NumberOfComponents="3" format="ascii">
               -4.78062e-06 -4.80083e-06 -3.74978e-05  -1.83231e-06 -8.3915e-06 -3.74978e-05  -8.01061e-07 -1.02017e-05 -3.74978e-05  -1.70711e-07 -9.93986e-06 -3.74978e-05  -2.14786e-07 -1.00833e-05 -3.74978e-05  1.1098e-06 -1.02359e-05 -3.74978e-05  4.64774e-06 -9.50048e-06 -3.74978e-05  2.35951e-06 -5.82519e-06 -3.74978e-05  2.61768e-06 -5.02059e-06 -3.74978e-05  -8.3684e-06 -1.85648e-06 -3.74978e-05  -4.33168e-06 -4.35598e-06 -3.74978e-05  -1.54748e-06 -6.37398e-06 -3.74978e-05  -4.62733e-07 -6.61054e-06 -3.74978e-05  -6.49925e-07 -6.81191e-06 -3.74978e-05  4.75267e-07 -6.53517e-06 -3.74978e-05  5.12833e-06 -6.48371e-06 -3.74978e-05  4.05079e-06 -4.23565e-06 -3.74978e-05  5.2661e-06 -3.58299e-06 -3.74978e-05  -1.01888e-05 -8.2839e-07 -3.74978e-05  -6.35547e-06 -1.56866e-06 -3.74978e-05  -2.84948e-06 -2.86354e-06 -3.74978e-05  -4.60556e-07 -3.68357e-06 -3.74978e-05  -4.50641e-07 -3.77017e-06 -3.74978e-05  5.51831e-07 -3.62444e-06 -3.74978e-05  6.37817e-06 -3.51755e-06 -3.74978e-05  6.21057e-06 -2.59981e-06 -3.74978e-05  8.99351e-06 -2.95481e-06 -3.74978e-05  -9.93213e-06 -2.04938e-07 -3.74978e-05  -6.59673e-06 -4.91087e-07 -3.74978e-05  -3.67254e-06 -4.86501e-07 -3.74978e-05  -9.56016e-07 -9.825e-07 -3.74978e-05  -4.37471e-07 -8.40777e-07 -3.74978e-05  8.99729e-07 -9.7209e-07 -3.74978e-05  6.47579e-06 -7.58857e-07 -3.74978e-05  6.40517e-06 -6.12963e-07 -3.74978e-05  9.84468e-06 -7.41136e-07 -3.74978e-05  -1.00553e-05 -2.48974e-07 -3.74978e-05  -6.77805e-06 -6.764e-07 -3.74978e-05  -3.74622e-06 -4.80706e-07 -3.74978e-05  -8.13601e-07 -4.70117e-07 -3.74978e-05  -6.17365e-07 -6.4921e-07 -3.74978e-05  5.91221e-07 -5.32271e-07 -3.74978e-05  6.35145e-06 -6.07524e-07 -3.74978e-05  6.41061e-06 -1.84222e-07 -3.74978e-05  9.43876e-06 -8.99269e-07 -3.74978e-05  -1.02209e-05 1.07201e-06 -3.74978e-05  -6.5196e-06 4.47293e-07 -3.74978e-05  -3.60834e-06 5.17101e-07 -3.74978e-05  -9.42876e-07 8.65189e-07 -3.74978e-05  -4.94879e-07 5.54699e-07 -3.74978e-05  9.204e-07 8.79449e-07 -3.74978e-05  6.61975e-06 1.4327e-07 -3.74978e-05  6.44551e-06 4.52882e-07 -3.74978e-05  9.628e-06 -3.78194e-07 -3.74978e-05  -9.46274e-06 4.60831e-06 -3.74978e-05  -6.43902e-06 5.08712e-06 -3.74978e-05  -3.47876e-06 6.32213e-06 -3.74978e-05  -7.22413e-07 6.43933e-06 -3.74978e-05  -5.67067e-07 6.30458e-06 -3.74978e-05  1.84577e-07 6.57893e-06 -3.74978e-05  5.56495e-06 5.52179e-06 -3.74978e-05  6.26905e-06 3.19501e-06 -3.74978e-05  9.98517e-06 1.95504e-06 -3.74978e-05  -5.81726e-06 2.33841e-06 -3.74978e-05  -4.21253e-06 4.02029e-06 -3.74978e-05  -2.57376e-06 6.15122e-06 -3.74978e-05  -5.84357e-07 6.36741e-06 -3.74978e-05  -1.49647e-07 6.35587e-06 -3.74978e-05  4.91618e-07 6.40388e-06 -3.74978e-05  3.23822e-06 6.22604e-06 -3.74978e-05  4.22979e-06 4.19041e-06 -3.74978e-05  8.10747e-06 1.89294e-06 -3.74978e-05  -5.02378e-06 2.6069e-06 -3.74978e-05  -3.5734e-06 5.2512e-06 -3.74978e-05  -2.93285e-06 8.93881e-06 -3.74978e-05  -7.09134e-07 9.8014e-06 -3.74978e-05  -8.64343e-07 9.38528e-06 -3.74978e-05  -3.41496e-07 9.58766e-06 -3.74978e-05  1.99327e-06 9.94512e-06 -3.74978e-05  1.92356e-06 8.0711e-06 -3.74978e-05  4.64932e-06 4.62167e-06 -3.74978e-05  
            </DataArray>
         </PointData> 
      </Piece>
   </UnstructuredGrid> 
</VTKFile>
