<?xml version="1.0"?>
<VTKFile type="UnstructuredGrid" version="0.1" byte_order="LittleEndian">
   <UnstructuredGrid>
      <Piece NumberOfPoints="81" NumberOfCells="0" > 
         <Points> 
            <DataArray type="Float64" Name="Position" NumberOfComponents="3" format="ascii"> 
               0  0  20  
               0.375  0  20  
               0.75  0  20  
               1.125  0  20  
               1.5  0  20  
               1.875  0  20  
               2.25  0  20  
               2.625  0  20  
               3  0  20  
               0  0.375  20  
               0.375  0.375  20  
               0.75  0.375  20  
               1.125  0.375  20  
               1.5  0.375  20  
               1.875  0.375  20  
               2.25  0.375  20  
               2.625  0.375  20  
               3  0.375  20  
               0  0.75  20  
               0.375  0.75  20  
               0.75  0.75  20  
               1.125  0.75  20  
               1.5  0.75  20  
               1.875  0.75  20  
               2.25  0.75  20  
               2.625  0.75  20  
               3  0.75  20  
               0  1.125  20  
               0.375  1.125  20  
               0.75  1.125  20  
               1.125  1.125  20  
               1.5  1.125  20  
               1.875  1.125  20  
               2.25  1.125  20  
               2.625  1.125  20  
               3  1.125  20  
               0  1.5  20  
               0.375  1.5  20  
               0.75  1.5  20  
               1.125  1.5  20  
               1.5  1.5  20  
               1.875  1.5  20  
               2.25  1.5  20  
               2.625  1.5  20  
               3  1.5  20  
               0  1.875  20  
               0.375  1.875  20  
               0.75  1.875  20  
               1.125  1.875  20  
               1.5  1.875  20  
               1.875  1.875  20  
               2.25  1.875  20  
               2.625  1.875  20  
               3  1.875  20  
               0  2.25  20  
               0.375  2.25  20  
               0.75  2.25  20  
               1.125  2.25  20  
               1.5  2.25  20  
               1.875  2.25  20  
               2.25  2.25  20  
               2.625  2.25  20  
               3  2.25  20  
               0  2.625  20  
               0.375  2.625  20  
               0.75  2.625  20  
               1.125  2.625  20  
               1.5  2.625  20  
               1.875  2.625  20  
               2.25  2.625  20  
               2.625  2.625  20  
               3  2.625  20  
               0  3  20  
               0.375  3  20  
               0.75  3  20  
               1.125  3  20  
               1.5  3  20  
               1.875  3  20  
               2.25  3  20  
               2.625  3  20  
               3  3  20  
            </DataArray>
         </Points> 

         <Cells>
            <DataArray type="Int32" Name="connectivity" NumberOfComponents="1" format="ascii">
               
            </DataArray> 
            <DataArray type="Int32" Name="offsets" NumberOfComponents="1" format="ascii">
               
            </DataArray>
            <DataArray type="UInt8"  Name="types" NumberOfComponents="1" format="ascii">
               
            </DataArray>
         </Cells>
         <PointData Scalars="Rank " Vectors="Displacement Velocity Traction ">
            <DataArray type="UInt32" Name="Rank" NumberOfComponents="1" format="ascii">
               0 0 0 0 0 0 0 0 0 0 0 0 0 0 0 0 0 0 0 0 0 0 0 0 0 0 0 0 0 0 0 0 0 0 0 0 0 0 0 0 0 0 0 0 0 0 0 0 0 0 0 0 0 0 0 0 0 0 0 0 0 0 0 0 0 0 0 0 0 0 0 0 0 0 0 0 0 0 0 0 0 
            </DataArray>
            <DataArray type="Float64" Name="Displacement" NumberOfComponents="3" format="ascii">
               0 0 0  0 0 0  0 0 0  0 0 0  0 0 0  0 0 0  0 0 0  0 0 0  0 0 0  0 0 0  0 0 0  0 0 0  0 0 0  0 0 0  0 0 0  0 0 0  0 0 0  0 0 0  0 0 0  0 0 0  0 0 0  0 0 0  0 0 0  0 0 0  0 0 0  0 0 0  0 0 0  0 0 0  0 0 0  0 0 0  0 0 0  0 0 0  0 0 0  0 0 0  0 0 0  0 0 0  0 0 0  0 0 0  0 0 0  0 0 0  0 0 0  0 0 0  0 0 0  0 0 0  0 0 0  0 0 0  0 0 0  0 0 0  0 0 0  0 0 0  0 0 0  0 0 0  0 0 0  0 0 0  0 0 0  0 0 0  0 0 0  0 0 0  0 0 0  0 0 0  0 0 0  0 0 0  0 0 0  0 0 0  0 0 0  0 0 0  0 0 0  0 0 0  0 0 0  0 0 0  0 0 0  0 0 0  0 0 0  0 0 0  0 0 0  0 0 0  0 0 0  0 0 0  0 0 0  0 0 0  0 0 0  
            </DataArray>
            <DataArray type="Float64" Name="Velocity" NumberOfComponents="3" format="ascii">
               0 0 0  0 0 0  0 0 0  0 0 0  0 0 0  0 0 0  0 0 0  0 0 0  0 0 0  0 0 0  0 0 0  0 0 0  0 0 0  0 0 0  0 0 0  0 0 0  0 0 0  0 0 0  0 0 0  0 0 0  0 0 0  0 0 0  0 0 0  0 0 0  0 0 0  0 0 0  0 0 0  0 0 0  0 0 0  0 0 0  0 0 0  0 0 0  0 0 0  0 0 0  0 0 0  0 0 0  0 0 0  0 0 0  0 0 0  0 0 0  0 0 0  0 0 0  0 0 0  0 0 0  0 0 0  0 0 0  0 0 0  0 0 0  0 0 0  0 0 0  0 0 0  0 0 0  0 0 0  0 0 0  0 0 0  0 0 0  0 0 0  0 0 0  0 0 0  0 0 0  0 0 0  0 0 0  0 0 0  0 0 0  0 0 0  0 0 0  0 0 0  0 0 0  0 0 0  0 0 0  0 0 0  0 0 0  0 0 0  0 0 0  0 0 0  0 0 0  0 0 0  0 0 0  0 0 0  0 0 0  0 0 0  
            </DataArray>
            <DataArray type="Float64" Name="Traction" NumberOfComponents="3" format="ascii">
               -3.64925e-06 -3.68156e-06 -2.93094e-05  -1.26895e-06 -6.49393e-06 -2.93094e-05  -4.82338e-07 -7.8283e-06 -2.93094e-05  -1.03638e-07 -7.63534e-06 -2.93094e-05  -8.25226e-08 -7.80251e-06 -2.93094e-05  8.02045e-07 -7.89117e-06 -2.93094e-05  3.39361e-06 -7.35066e-06 -2.93094e-05  1.95003e-06 -4.508e-06 -2.93094e-05  2.26858e-06 -3.98212e-06 -2.93094e-05  -6.4561e-06 -1.29574e-06 -2.93094e-05  -3.24727e-06 -3.2788e-06 -2.93094e-05  -1.03396e-06 -4.82997e-06 -2.93094e-05  -3.14837e-07 -4.98372e-06 -2.93094e-05  -3.67457e-07 -5.14733e-06 -2.93094e-05  3.74292e-07 -4.96026e-06 -2.93094e-05  3.70156e-06 -4.95728e-06 -2.93094e-05  3.09067e-06 -3.20154e-06 -2.93094e-05  4.15331e-06 -2.80084e-06 -2.93094e-05  -7.79305e-06 -5.11553e-07 -2.93094e-05  -4.79767e-06 -1.06297e-06 -2.93094e-05  -2.00092e-06 -2.02955e-06 -2.93094e-05  -3.51845e-07 -2.60346e-06 -2.93094e-05  -2.24147e-07 -2.68553e-06 -2.93094e-05  4.55945e-07 -2.57191e-06 -2.93094e-05  4.65231e-06 -2.52352e-06 -2.93094e-05  4.75195e-06 -1.79708e-06 -2.93094e-05  6.98645e-06 -2.10617e-06 -2.93094e-05  -7.60422e-06 -1.40154e-07 -2.93094e-05  -4.95629e-06 -3.50129e-07 -2.93094e-05  -2.5792e-06 -3.88434e-07 -2.93094e-05  -6.93348e-07 -7.28671e-07 -2.93094e-05  -2.28379e-07 -6.45617e-07 -2.93094e-05  6.85066e-07 -7.30839e-07 -2.93094e-05  4.69727e-06 -5.82012e-07 -2.93094e-05  4.85947e-06 -4.47464e-07 -2.93094e-05  7.59293e-06 -4.76584e-07 -2.93094e-05  -7.75923e-06 -1.20135e-07 -2.93094e-05  -5.10612e-06 -4.00366e-07 -2.93094e-05  -2.65281e-06 -2.61068e-07 -2.93094e-05  -6.12184e-07 -2.66185e-07 -2.93094e-05  -3.80297e-07 -4.13889e-07 -2.93094e-05  4.70698e-07 -3.27691e-07 -2.93094e-05  4.60522e-06 -3.81652e-07 -2.93094e-05  4.84398e-06 -1.23978e-07 -2.93094e-05  7.30316e-06 -6.65255e-07 -2.93094e-05  -7.85956e-06 7.58805e-07 -2.93094e-05  -4.93321e-06 3.38485e-07 -2.93094e-05  -2.54527e-06 4.14364e-07 -2.93094e-05  -6.96458e-07 6.46007e-07 -2.93094e-05  -2.90357e-07 4.34169e-07 -2.93094e-05  6.85172e-07 6.45944e-07 -2.93094e-05  4.77385e-06 1.49069e-07 -2.93094e-05  4.85931e-06 3.17979e-07 -2.93094e-05  7.39458e-06 -3.00126e-07 -2.93094e-05  -7.2989e-06 3.35186e-06 -2.93094e-05  -4.90668e-06 3.65864e-06 -2.93094e-05  -2.47828e-06 4.59808e-06 -2.93094e-05  -5.41457e-07 4.66104e-06 -2.93094e-05  -3.41109e-07 4.566e-06 -2.93094e-05  1.89713e-07 4.74065e-06 -2.93094e-05  4.04692e-06 4.00983e-06 -2.93094e-05  4.76223e-06 2.22961e-06 -2.93094e-05  7.66871e-06 1.27359e-06 -2.93094e-05  -4.47879e-06 1.9173e-06 -2.93094e-05  -3.16765e-06 3.05216e-06 -2.93094e-05  -1.7622e-06 4.69188e-06 -2.93094e-05  -4.13991e-07 4.81981e-06 -2.93094e-05  -8.84979e-08 4.79604e-06 -2.93094e-05  3.55291e-07 4.82262e-06 -2.93094e-05  2.26566e-06 4.72307e-06 -2.93094e-05  3.19746e-06 3.16186e-06 -2.93094e-05  6.28176e-06 1.33311e-06 -2.93094e-05  -3.96201e-06 2.23829e-06 -2.93094e-05  -2.77838e-06 4.12178e-06 -2.93094e-05  -2.07484e-06 6.9257e-06 -2.93094e-05  -4.39964e-07 7.54521e-06 -2.93094e-05  -6.28012e-07 7.25314e-06 -2.93094e-05  -2.62765e-07 7.35497e-06 -2.93094e-05  1.30673e-06 7.62854e-06 -2.93094e-05  1.36315e-06 6.24605e-06 -2.93094e-05  3.58759e-06 3.55623e-06 -2.93094e-05  
            </DataArray>
         </PointData> 
      </Piece>
   </UnstructuredGrid> 
</VTKFile>
