<?xml version="1.0"?>
<VTKFile type="UnstructuredGrid" version="0.1" byte_order="LittleEndian">
   <UnstructuredGrid>
      <Piece NumberOfPoints="81" NumberOfCells="0" > 
         <Points> 
            <DataArray type="Float64" Name="Position" NumberOfComponents="3" format="ascii"> 
               0  0  20  
               0.375  0  20  
               0.75  0  20  
               1.125  0  20  
               1.5  0  20  
               1.875  0  20  
               2.25  0  20  
               2.625  0  20  
               3  0  20  
               0  0.375  20  
               0.375  0.375  20  
               0.75  0.375  20  
               1.125  0.375  20  
               1.5  0.375  20  
               1.875  0.375  20  
               2.25  0.375  20  
               2.625  0.375  20  
               3  0.375  20  
               0  0.75  20  
               0.375  0.75  20  
               0.75  0.75  20  
               1.125  0.75  20  
               1.5  0.75  20  
               1.875  0.75  20  
               2.25  0.75  20  
               2.625  0.75  20  
               3  0.75  20  
               0  1.125  20  
               0.375  1.125  20  
               0.75  1.125  20  
               1.125  1.125  20  
               1.5  1.125  20  
               1.875  1.125  20  
               2.25  1.125  20  
               2.625  1.125  20  
               3  1.125  20  
               0  1.5  20  
               0.375  1.5  20  
               0.75  1.5  20  
               1.125  1.5  20  
               1.5  1.5  20  
               1.875  1.5  20  
               2.25  1.5  20  
               2.625  1.5  20  
               3  1.5  20  
               0  1.875  20  
               0.375  1.875  20  
               0.75  1.875  20  
               1.125  1.875  20  
               1.5  1.875  20  
               1.875  1.875  20  
               2.25  1.875  20  
               2.625  1.875  20  
               3  1.875  20  
               0  2.25  20  
               0.375  2.25  20  
               0.75  2.25  20  
               1.125  2.25  20  
               1.5  2.25  20  
               1.875  2.25  20  
               2.25  2.25  20  
               2.625  2.25  20  
               3  2.25  20  
               0  2.625  20  
               0.375  2.625  20  
               0.75  2.625  20  
               1.125  2.625  20  
               1.5  2.625  20  
               1.875  2.625  20  
               2.25  2.625  20  
               2.625  2.625  20  
               3  2.625  20  
               0  3  20  
               0.375  3  20  
               0.75  3  20  
               1.125  3  20  
               1.5  3  20  
               1.875  3  20  
               2.25  3  20  
               2.625  3  20  
               3  3  20  
            </DataArray>
         </Points> 

         <Cells>
            <DataArray type="Int32" Name="connectivity" NumberOfComponents="1" format="ascii">
               
            </DataArray> 
            <DataArray type="Int32" Name="offsets" NumberOfComponents="1" format="ascii">
               
            </DataArray>
            <DataArray type="UInt8"  Name="types" NumberOfComponents="1" format="ascii">
               
            </DataArray>
         </Cells>
         <PointData Scalars="Rank " Vectors="Displacement Velocity Traction ">
            <DataArray type="UInt32" Name="Rank" NumberOfComponents="1" format="ascii">
               0 0 0 0 0 0 0 0 0 0 0 0 0 0 0 0 0 0 0 0 0 0 0 0 0 0 0 0 0 0 0 0 0 0 0 0 0 0 0 0 0 0 0 0 0 0 0 0 0 0 0 0 0 0 0 0 0 0 0 0 0 0 0 0 0 0 0 0 0 0 0 0 0 0 0 0 0 0 0 0 0 
            </DataArray>
            <DataArray type="Float64" Name="Displacement" NumberOfComponents="3" format="ascii">
               5.07552e-05 5.09135e-05 -0.000196287  2.50412e-05 6.47557e-05 -0.000205284  1.092e-05 7.90049e-05 -0.000193829  3.13891e-07 7.92146e-05 -0.000189371  -5.45856e-06 7.94839e-05 -0.000188893  -1.70766e-05 8.25602e-05 -0.000184389  -3.01282e-05 7.58535e-05 -0.000192132  -2.00924e-05 5.20883e-05 -0.000203747  -2.98312e-05 5.46322e-05 -0.000179342  6.47175e-05 2.51797e-05 -0.000205283  3.33956e-05 3.34625e-05 -0.000206188  1.67378e-05 4.21422e-05 -0.000190487  5.49679e-06 4.36665e-05 -0.000186529  1.22317e-06 4.65298e-05 -0.000186253  -6.84785e-06 4.4151e-05 -0.000183133  -2.72032e-05 4.57646e-05 -0.000191399  -3.30965e-05 3.46456e-05 -0.000212354  -4.90928e-05 3.63821e-05 -0.000199781  7.89494e-05 1.0995e-05 -0.000193877  4.20908e-05 1.68268e-05 -0.000190517  2.24815e-05 2.25629e-05 -0.000165221  3.5832e-06 2.67336e-05 -0.00015787  -7.44062e-08 2.76926e-05 -0.000158078  -5.08437e-06 2.74498e-05 -0.000156976  -2.9191e-05 2.97385e-05 -0.000165469  -4.41382e-05 2.55442e-05 -0.000191867  -7.35932e-05 3.02905e-05 -0.000190696  7.91294e-05 3.37126e-07 -0.000189374  4.35801e-05 5.54781e-06 -0.00018653  2.66379e-05 3.64311e-06 -0.00015784  8.09277e-06 8.15727e-06 -0.000147399  -1.09181e-08 7.1987e-06 -0.00014746  -7.59459e-06 9.2572e-06 -0.00014763  -2.59083e-05 7.88301e-06 -0.000157593  -4.20472e-05 8.69785e-06 -0.000184248  -7.95301e-05 1.20181e-05 -0.000184421  7.94002e-05 -5.45695e-06 -0.000188893  4.6443e-05 1.22874e-06 -0.000186254  2.7592e-05 -6.02625e-08 -0.000158049  7.12821e-06 7.41917e-09 -0.000147467  1.50894e-06 1.53513e-06 -0.000148206  -4.27226e-06 1.6824e-06 -0.000147436  -2.45503e-05 3.20043e-06 -0.00015784  -4.16186e-05 1.82568e-06 -0.000185744  -7.32365e-05 9.2211e-06 -0.000187109  8.24592e-05 -1.70216e-05 -0.000184413  4.40659e-05 -6.82924e-06 -0.000183155  2.73528e-05 -5.05345e-06 -0.000156958  9.19141e-06 -7.56099e-06 -0.000147646  1.66433e-06 -4.22533e-06 -0.000147451  -6.50138e-06 -6.46915e-06 -0.000147037  -2.546e-05 -9.39983e-07 -0.000157355  -4.16233e-05 -4.61226e-06 -0.000185469  -7.73961e-05 7.75893e-06 -0.000186825  7.58177e-05 -3.00795e-05 -0.000192142  4.57111e-05 -2.71491e-05 -0.000191393  2.96584e-05 -2.91283e-05 -0.000165424  7.82843e-06 -2.58705e-05 -0.000157575  3.19165e-06 -2.44984e-05 -0.000157822  -9.65334e-07 -2.54174e-05 -0.000157326  -2.07544e-05 -2.07279e-05 -0.000165163  -3.97698e-05 -1.68095e-05 -0.000190651  -7.64172e-05 -1.01889e-05 -0.000192452  5.20895e-05 -2.01765e-05 -0.000203799  3.46083e-05 -3.3115e-05 -0.000212373  2.54839e-05 -4.4126e-05 -0.000191864  8.67158e-06 -4.2052e-05 -0.000184277  1.84106e-06 -4.1621e-05 -0.000185764  -4.6215e-06 -4.16313e-05 -0.000185477  -1.6851e-05 -3.9813e-05 -0.000190686  -3.18956e-05 -3.19136e-05 -0.000206806  -6.23238e-05 -2.5641e-05 -0.000204468  5.46438e-05 -2.99785e-05 -0.000179525  3.63756e-05 -4.91877e-05 -0.000199883  3.02388e-05 -7.36332e-05 -0.000190743  1.1979e-05 -7.95437e-05 -0.000184494  9.25121e-06 -7.32644e-05 -0.000187175  7.78498e-06 -7.74352e-05 -0.000186889  -1.02291e-05 -7.6488e-05 -0.000192566  -2.57431e-05 -6.24025e-05 -0.000204524  -5.08222e-05 -5.07077e-05 -0.000194646  
            </DataArray>
            <DataArray type="Float64" Name="Velocity" NumberOfComponents="3" format="ascii">
               5.82668e-05 5.86966e-05 -0.000235972  3.22767e-05 7.34204e-05 -0.000248717  1.54073e-05 8.99731e-05 -0.000236189  8.30886e-07 8.9849e-05 -0.000231769  -6.41705e-06 8.98975e-05 -0.000231372  -2.0947e-05 9.39984e-05 -0.000225714  -3.62679e-05 8.62075e-05 -0.000234759  -2.26464e-05 5.84369e-05 -0.000246965  -3.11698e-05 6.11185e-05 -0.000213669  7.28958e-05 3.26227e-05 -0.000248444  3.99842e-05 4.04282e-05 -0.000253153  2.13658e-05 4.99246e-05 -0.000236127  7.23901e-06 5.15178e-05 -0.000231909  1.43536e-06 5.48461e-05 -0.000231856  -8.90656e-06 5.19833e-05 -0.000227839  -3.39439e-05 5.44686e-05 -0.000237485  -3.95471e-05 4.15886e-05 -0.000260713  -5.43096e-05 4.27462e-05 -0.000242139  8.94485e-05 1.57351e-05 -0.000235988  4.95534e-05 2.17828e-05 -0.00023618  2.74598e-05 2.78427e-05 -0.000208979  4.81662e-06 3.24629e-05 -0.000200855  -2.98658e-08 3.35993e-05 -0.000201472  -6.41827e-06 3.31802e-05 -0.000199935  -3.57415e-05 3.65164e-05 -0.000209364  -5.27932e-05 3.20002e-05 -0.00023803  -8.37307e-05 3.70817e-05 -0.000233194  8.92441e-05 1.22194e-06 -0.000231519  5.10726e-05 7.66686e-06 -0.000231956  3.20744e-05 5.27082e-06 -0.000200843  1.00248e-05 1.04593e-05 -0.000189234  -3.21362e-07 9.38561e-06 -0.000189664  -9.82294e-06 1.18134e-05 -0.00018975  -3.12139e-05 1.02359e-05 -0.000200731  -4.94979e-05 1.13249e-05 -0.000229232  -9.05479e-05 1.52137e-05 -0.000225939  8.93133e-05 -6.0493e-06 -0.00023111  5.43872e-05 1.81346e-06 -0.000231904  3.3179e-05 3.77893e-07 -0.000201452  8.92844e-06 9.81573e-08 -0.000189661  1.59744e-06 2.04473e-06 -0.00019076  -5.86254e-06 2.20552e-06 -0.00018968  -2.97314e-05 4.04389e-06 -0.000201105  -4.89729e-05 2.52377e-06 -0.000231265  -8.25321e-05 1.13688e-05 -0.000229396  9.33911e-05 -2.05161e-05 -0.000225486  5.15132e-05 -8.49595e-06 -0.0002279  3.27537e-05 -6.00578e-06 -0.000199906  1.13517e-05 -9.40525e-06 -0.000189726  1.77959e-06 -5.38516e-06 -0.000189666  -8.49358e-06 -8.07621e-06 -0.000188805  -3.08653e-05 -1.66687e-06 -0.000200088  -4.90738e-05 -5.90398e-06 -0.000230454  -8.7828e-05 9.33221e-06 -0.00022867  8.56844e-05 -3.58315e-05 -0.000234523  5.40079e-05 -3.35398e-05 -0.000237514  3.60657e-05 -3.53473e-05 -0.000209329  9.78179e-06 -3.09012e-05 -0.000200718  3.60644e-06 -2.93687e-05 -0.000201083  -2.1527e-06 -3.05582e-05 -0.000200083  -2.56702e-05 -2.53313e-05 -0.000208906  -4.68053e-05 -2.12811e-05 -0.000236242  -8.6587e-05 -1.42643e-05 -0.000234385  5.79372e-05 -2.22675e-05 -0.000246865  4.11415e-05 -3.92049e-05 -0.000260803  3.15307e-05 -5.23584e-05 -0.000238059  1.086e-05 -4.91335e-05 -0.000229325  2.11654e-06 -4.85935e-05 -0.000231337  -6.35845e-06 -4.87253e-05 -0.000230527  -2.16948e-05 -4.65065e-05 -0.000236324  -3.83014e-05 -3.78827e-05 -0.000253942  -7.02099e-05 -3.26623e-05 -0.000247656  6.06977e-05 -3.07408e-05 -0.00021348  4.23308e-05 -5.39861e-05 -0.000242074  3.65899e-05 -8.32581e-05 -0.000232968  1.47432e-05 -9.00429e-05 -0.000225749  1.09363e-05 -8.20413e-05 -0.000229156  8.83476e-06 -8.73067e-05 -0.000228456  -1.46328e-05 -8.61163e-05 -0.000234225  -3.29717e-05 -6.97156e-05 -0.000247382  -5.83445e-05 -5.79467e-05 -0.000233594  
            </DataArray>
            <DataArray type="Float64" Name="Traction" NumberOfComponents="3" format="ascii">
               -0.000337336 -0.000336284 -0.00299273  -0.000257301 -0.000596051 -0.00299273  -0.000163495 -0.000775576 -0.00299273  -2.05894e-05 -0.000749327 -0.00299273  -5.51801e-05 -0.000748972 -0.00299273  0.000181812 -0.000768547 -0.00299273  0.000597332 -0.000682387 -0.00299273  0.000116586 -0.000293353 -0.00299273  -0.000136 -0.000184007 -0.00299273  -0.000598608 -0.000255687 -0.00299273  -0.000412858 -0.000410423 -0.00299273  -0.000220172 -0.000577586 -0.00299273  -7.18849e-05 -0.000604777 -0.00299273  -0.000107636 -0.000630087 -0.00299273  8.06132e-05 -0.000583196 -0.00299273  0.000647786 -0.000595684 -0.00299273  0.0003687 -0.000390597 -0.00299273  0.000212941 -0.000279664 -0.00299273  -0.000778489 -0.000162293 -0.00299273  -0.000580528 -0.000218784 -0.00299273  -0.000337027 -0.000335403 -0.00299273  -6.28116e-05 -0.000423526 -0.00299273  -6.10158e-05 -0.000436103 -0.00299273  7.51911e-05 -0.000406513 -0.00299273  0.000697441 -0.000410316 -0.00299273  0.000579414 -0.000360649 -0.00299273  0.000637369 -0.000389171 -0.00299273  -0.000751774 -1.86448e-05 -0.00299273  -0.000607405 -7.00633e-05 -0.00299273  -0.000425112 -6.09612e-05 -0.00299273  -0.00012558 -0.000123622 -0.00299273  -4.63558e-05 -0.000106056 -0.00299273  0.000120621 -0.00012463 -0.00299273  0.000661645 -9.70725e-05 -0.00299273  0.000568819 -9.44782e-05 -0.00299273  0.000728822 -0.000110574 -0.00299273  -0.000751465 -5.25536e-05 -0.00299273  -0.000632778 -0.000104974 -0.00299273  -0.000437646 -5.85291e-05 -0.00299273  -0.000108021 -4.38212e-05 -0.00299273  -7.52959e-05 -7.2679e-05 -0.00299273  8.58682e-05 -6.62909e-05 -0.00299273  0.000664918 -6.92158e-05 -0.00299273  0.000582871 -3.39261e-05 -0.00299273  0.000676975 -0.000111646 -0.00299273  -0.000770875 0.000183235 -0.00299273  -0.000585988 8.23485e-05 -0.00299273  -0.000408158 7.67503e-05 -0.00299273  -0.000126609 0.000122189 -0.00299273  -6.89329e-05 8.73882e-05 -0.00299273  0.000113877 0.000115526 -0.00299273  0.000679243 4.39448e-05 -0.00299273  0.000584005 7.56973e-05 -0.00299273  0.00072232 -5.44871e-05 -0.00299273  -0.000685482 0.000598571 -0.00299273  -0.000598719 0.000648835 -0.00299273  -0.000412088 0.000698728 -0.00299273  -9.90847e-05 0.000663413 -0.00299273  -7.17977e-05 0.00066645 -0.00299273  4.23075e-05 0.000680738 -0.00299273  0.00058825 0.000589709 -0.00299273  0.00055554 0.000426917 -0.00299273  0.000734279 0.000332567 -0.00299273  -0.000296907 0.00012012 -0.00299273  -0.000393534 0.00037098 -0.00299273  -0.000362317 0.000581071 -0.00299273  -9.66615e-05 0.000570753 -0.00299273  -3.67122e-05 0.00058479 -0.00299273  7.38648e-05 0.000585965 -0.00299273  0.000425429 0.000557932 -0.00299273  0.000398669 0.000400806 -0.00299273  0.00055606 0.00027297 -0.00299273  -0.000187975 -0.000130971 -0.00299273  -0.000283075 0.000216599 -0.00299273  -0.00039083 0.000639575 -0.00299273  -0.000112486 0.000730691 -0.00299273  -0.000114517 0.000679141 -0.00299273  -5.65899e-05 0.0007247 -0.00299273  0.000330572 0.000737318 -0.00299273  0.000271852 0.000558986 -0.00299273  0.000330301 0.000331145 -0.00299273  
            </DataArray>
         </PointData> 
      </Piece>
   </UnstructuredGrid> 
</VTKFile>
