<?xml version="1.0"?>
<VTKFile type="UnstructuredGrid" version="0.1" byte_order="LittleEndian">
   <UnstructuredGrid>
      <Piece NumberOfPoints="81" NumberOfCells="0" > 
         <Points> 
            <DataArray type="Float64" Name="Position" NumberOfComponents="3" format="ascii"> 
               0  0  15  
               0.375  0  15  
               0.75  0  15  
               1.125  0  15  
               1.5  0  15  
               1.875  0  15  
               2.25  0  15  
               2.625  0  15  
               3  0  15  
               0  0.375  15  
               0.375  0.375  15  
               0.75  0.375  15  
               1.125  0.375  15  
               1.5  0.375  15  
               1.875  0.375  15  
               2.25  0.375  15  
               2.625  0.375  15  
               3  0.375  15  
               0  0.75  15  
               0.375  0.75  15  
               0.75  0.75  15  
               1.125  0.75  15  
               1.5  0.75  15  
               1.875  0.75  15  
               2.25  0.75  15  
               2.625  0.75  15  
               3  0.75  15  
               0  1.125  15  
               0.375  1.125  15  
               0.75  1.125  15  
               1.125  1.125  15  
               1.5  1.125  15  
               1.875  1.125  15  
               2.25  1.125  15  
               2.625  1.125  15  
               3  1.125  15  
               0  1.5  15  
               0.375  1.5  15  
               0.75  1.5  15  
               1.125  1.5  15  
               1.5  1.5  15  
               1.875  1.5  15  
               2.25  1.5  15  
               2.625  1.5  15  
               3  1.5  15  
               0  1.875  15  
               0.375  1.875  15  
               0.75  1.875  15  
               1.125  1.875  15  
               1.5  1.875  15  
               1.875  1.875  15  
               2.25  1.875  15  
               2.625  1.875  15  
               3  1.875  15  
               0  2.25  15  
               0.375  2.25  15  
               0.75  2.25  15  
               1.125  2.25  15  
               1.5  2.25  15  
               1.875  2.25  15  
               2.25  2.25  15  
               2.625  2.25  15  
               3  2.25  15  
               0  2.625  15  
               0.375  2.625  15  
               0.75  2.625  15  
               1.125  2.625  15  
               1.5  2.625  15  
               1.875  2.625  15  
               2.25  2.625  15  
               2.625  2.625  15  
               3  2.625  15  
               0  3  15  
               0.375  3  15  
               0.75  3  15  
               1.125  3  15  
               1.5  3  15  
               1.875  3  15  
               2.25  3  15  
               2.625  3  15  
               3  3  15  
            </DataArray>
         </Points> 

         <Cells>
            <DataArray type="Int32" Name="connectivity" NumberOfComponents="1" format="ascii">
               
            </DataArray> 
            <DataArray type="Int32" Name="offsets" NumberOfComponents="1" format="ascii">
               
            </DataArray>
            <DataArray type="UInt8"  Name="types" NumberOfComponents="1" format="ascii">
               
            </DataArray>
         </Cells>
         <PointData Scalars="Rank " Vectors="Displacement Velocity Traction ">
            <DataArray type="UInt32" Name="Rank" NumberOfComponents="1" format="ascii">
               0 0 0 0 0 0 0 0 0 0 0 0 0 0 0 0 0 0 0 0 0 0 0 0 0 0 0 0 0 0 0 0 0 0 0 0 0 0 0 0 0 0 0 0 0 0 0 0 0 0 0 0 0 0 0 0 0 0 0 0 0 0 0 0 0 0 0 0 0 0 0 0 0 0 0 0 0 0 0 0 0 
            </DataArray>
            <DataArray type="Float64" Name="Displacement" NumberOfComponents="3" format="ascii">
               9.1922e-05 4.22522e-05 -6.43484e-05  8.92038e-05 1.5695e-06 -6.64e-05  7.73093e-05 -2.15808e-06 -6.22912e-05  6.06484e-05 -5.78033e-06 -6.05605e-05  4.6721e-05 1.23436e-06 -6.03705e-05  3.57231e-05 -5.3644e-06 -5.90287e-05  2.8545e-05 -1.97256e-06 -6.15535e-05  2.39281e-05 -6.36529e-06 -6.58543e-05  2.22094e-05 -2.37985e-05 -5.93877e-05  5.01244e-05 3.8977e-05 -6.64555e-05  5.18138e-05 1.41404e-06 -6.54263e-05  4.66707e-05 9.75601e-07 -5.97163e-05  3.79381e-05 -2.76917e-06 -5.82227e-05  2.88333e-05 3.01165e-06 -5.80754e-05  1.9575e-05 -4.00627e-06 -5.71627e-05  9.83239e-06 -1.55571e-06 -5.9918e-05  3.64903e-06 -7.14907e-06 -6.73682e-05  3.47628e-06 -2.60657e-05 -6.46012e-05  4.47802e-05 2.47852e-05 -6.23189e-05  5.10326e-05 -7.71075e-06 -5.9697e-05  4.65693e-05 -8.16348e-06 -5.04184e-05  3.69765e-05 -1.0048e-05 -4.77595e-05  2.66484e-05 -6.03397e-06 -4.7767e-05  1.56369e-05 -1.03152e-05 -4.74536e-05  4.26334e-06 -8.69972e-06 -5.04362e-05  -2.0355e-06 -1.42516e-05 -6.0068e-05  -6.97774e-07 -3.2349e-05 -6.10389e-05  3.84737e-05 3.82491e-06 -6.05991e-05  4.59156e-05 -2.26364e-05 -5.82136e-05  4.35182e-05 -2.27955e-05 -4.77701e-05  3.52725e-05 -2.25173e-05 -4.40753e-05  2.56648e-05 -2.02602e-05 -4.40399e-05  1.48736e-05 -2.12691e-05 -4.41044e-05  4.54634e-06 -2.12314e-05 -4.76259e-05  -1.10924e-06 -2.54446e-05 -5.74989e-05  1.26014e-06 -4.1757e-05 -5.89623e-05  4.67605e-05 -1.61557e-05 -6.04107e-05  5.39487e-05 -4.03223e-05 -5.80642e-05  5.08117e-05 -3.88658e-05 -4.77754e-05  4.09043e-05 -3.68312e-05 -4.40366e-05  2.8444e-05 -3.45365e-05 -4.42404e-05  1.41836e-05 -3.28147e-05 -4.40245e-05  7.38219e-08 -3.36098e-05 -4.77006e-05  -8.39567e-06 -3.68307e-05 -5.79289e-05  -5.3556e-06 -5.52449e-05 -5.97626e-05  5.22918e-05 -3.52694e-05 -5.90696e-05  5.91169e-05 -5.84967e-05 -5.71438e-05  5.51766e-05 -5.38196e-05 -4.746e-05  4.35826e-05 -5.00588e-05 -4.40986e-05  2.95143e-05 -4.68753e-05 -4.40217e-05  1.43351e-05 -4.31712e-05 -4.39562e-05  1.1431e-06 -4.53541e-05 -4.76193e-05  -6.1933e-06 -4.84527e-05 -5.79359e-05  -2.02581e-06 -7.21887e-05 -5.97578e-05  6.14978e-05 -5.20252e-05 -6.16078e-05  6.68841e-05 -7.57669e-05 -5.99131e-05  6.14271e-05 -6.60809e-05 -5.04542e-05  4.8005e-05 -6.09915e-05 -4.76324e-05  3.16612e-05 -5.65769e-05 -4.77106e-05  1.41419e-05 -5.20551e-05 -4.76306e-05  -1.73669e-06 -5.62406e-05 -5.04033e-05  -1.12068e-05 -5.97862e-05 -5.97943e-05  -6.79859e-06 -9.22777e-05 -6.18876e-05  8.17403e-05 -6.46124e-05 -6.58858e-05  8.20895e-05 -8.60064e-05 -6.73311e-05  7.09681e-05 -7.06234e-05 -6.0062e-05  5.23179e-05 -6.41932e-05 -5.74788e-05  3.20268e-05 -5.90423e-05 -5.7917e-05  1.18149e-05 -5.44023e-05 -5.79262e-05  -5.66996e-06 -6.10728e-05 -5.97745e-05  -1.65151e-05 -6.67471e-05 -6.56299e-05  -1.64411e-05 -0.000106931 -6.61532e-05  6.68724e-05 -6.92826e-05 -5.95004e-05  6.16749e-05 -8.49876e-05 -6.46494e-05  4.74582e-05 -6.41558e-05 -6.11123e-05  2.84807e-05 -5.61532e-05 -5.90217e-05  6.88825e-06 -5.03836e-05 -5.98213e-05  -1.60467e-05 -4.55818e-05 -5.98139e-05  -4.03289e-05 -5.33751e-05 -6.19236e-05  -5.72161e-05 -6.48109e-05 -6.62158e-05  -6.14035e-05 -0.000110566 -6.38167e-05  
            </DataArray>
            <DataArray type="Float64" Name="Velocity" NumberOfComponents="3" format="ascii">
               0.000109618 6.72717e-05 -8.64552e-05  0.000105768 2.67329e-05 -9.00826e-05  9.04367e-05 1.2755e-05 -8.49666e-05  6.85196e-05 4.69377e-06 -8.29897e-05  4.73538e-05 8.10154e-06 -8.27966e-05  2.81119e-05 4.74153e-06 -8.07816e-05  1.28959e-05 1.18875e-05 -8.42014e-05  2.14246e-06 2.11978e-05 -8.94443e-05  -1.72452e-06 3.90458e-06 -7.90286e-05  6.60002e-05 6.33125e-05 -9.02112e-05  6.6843e-05 2.74809e-05 -9.03263e-05  5.71336e-05 1.90056e-05 -8.32968e-05  4.11396e-05 1.17173e-05 -8.15664e-05  2.31765e-05 1.50522e-05 -8.14502e-05  4.8816e-06 1.10468e-05 -8.00427e-05  -1.23704e-05 1.63946e-05 -8.37395e-05  -2.26122e-05 2.15482e-05 -9.30078e-05  -2.22063e-05 -5.1914e-07 -8.77186e-05  4.8222e-05 4.79832e-05 -8.50963e-05  5.45098e-05 1.73864e-05 -8.32952e-05  4.78512e-05 1.17293e-05 -7.19521e-05  3.37125e-05 7.1099e-06 -6.87173e-05  1.79036e-05 9.59974e-06 -6.88617e-05  2.29674e-06 6.85667e-06 -6.82782e-05  -1.1619e-05 1.03698e-05 -7.21149e-05  -1.76328e-05 1.1468e-05 -8.39005e-05  -1.28425e-05 -1.2612e-05 -8.34736e-05  3.66644e-05 2.64583e-05 -8.31044e-05  4.36666e-05 8.5896e-07 -8.15497e-05  3.98447e-05 -3.42918e-06 -6.87055e-05  2.89373e-05 -4.98534e-06 -6.40586e-05  1.55345e-05 -3.56704e-06 -6.41228e-05  1.95012e-06 -5.09985e-06 -6.41026e-05  -9.84254e-06 -3.88788e-06 -6.85814e-05  -1.39788e-05 -6.02055e-06 -8.05498e-05  -7.32442e-06 -2.93505e-05 -8.06921e-05  4.0535e-05 5.7433e-06 -8.29143e-05  4.74334e-05 -1.75692e-05 -8.14301e-05  4.23965e-05 -2.03293e-05 -6.8851e-05  2.99032e-05 -1.94484e-05 -6.41244e-05  1.5573e-05 -1.85965e-05 -6.44646e-05  1.1332e-06 -1.91946e-05 -6.40979e-05  -1.15657e-05 -2.01023e-05 -6.8745e-05  -1.65955e-05 -2.50349e-05 -8.1257e-05  -9.10003e-06 -5.00069e-05 -8.19191e-05  3.76439e-05 -1.31658e-05 -8.09066e-05  4.39094e-05 -3.62998e-05 -8.00325e-05  4.02353e-05 -3.70395e-05 -6.82773e-05  2.89378e-05 -3.39062e-05 -6.41163e-05  1.53564e-05 -3.36305e-05 -6.41086e-05  1.50636e-06 -3.34171e-05 -6.3896e-05  -1.04234e-05 -3.66564e-05 -6.84834e-05  -1.50886e-05 -4.40906e-05 -8.11266e-05  -7.22126e-06 -7.33373e-05 -8.18225e-05  4.88362e-05 -2.81142e-05 -8.43154e-05  5.32857e-05 -5.39077e-05 -8.37223e-05  4.73948e-05 -5.20607e-05 -7.21014e-05  3.32322e-05 -4.62532e-05 -6.85732e-05  1.71138e-05 -4.67756e-05 -6.87423e-05  6.2759e-07 -4.54063e-05 -6.84706e-05  -1.43645e-05 -5.1569e-05 -7.19488e-05  -2.17957e-05 -6.13168e-05 -8.33897e-05  -1.44178e-05 -9.88146e-05 -8.43435e-05  5.91962e-05 -3.89351e-05 -8.95314e-05  5.95756e-05 -6.43891e-05 -9.29767e-05  4.97824e-05 -5.87486e-05 -8.38833e-05  3.28385e-05 -5.07321e-05 -8.05279e-05  1.4397e-05 -5.20806e-05 -8.12403e-05  -4.14443e-06 -5.01047e-05 -8.11045e-05  -2.10836e-05 -5.89641e-05 -8.33786e-05  -3.15909e-05 -7.19294e-05 -9.05825e-05  -3.03299e-05 -0.00011718 -8.96898e-05  4.15724e-05 -4.2899e-05 -7.92825e-05  3.7252e-05 -6.41314e-05 -8.78434e-05  2.55837e-05 -5.43072e-05 -8.36286e-05  9.76147e-06 -4.44928e-05 -8.08518e-05  -9.7899e-06 -4.4915e-05 -8.20976e-05  -3.20074e-05 -4.2523e-05 -8.19915e-05  -5.65456e-05 -5.17163e-05 -8.45148e-05  -7.44732e-05 -7.07173e-05 -8.98743e-05  -7.92169e-05 -0.000121972 -8.57316e-05  
            </DataArray>
            <DataArray type="Float64" Name="Traction" NumberOfComponents="3" format="ascii">
               0.0022306 0.00223329 -0.00587774  0.000793819 0.00270456 -0.00587774  0.000314535 0.00294747 -0.00587774  2.63391e-05 0.00316537 -0.00587774  -8.06728e-05 0.00311194 -0.00587774  -0.000183748 0.00336522 -0.00587774  -0.000498738 0.00319117 -0.00587774  -0.00103378 0.00322864 -0.00587774  -0.00361351 0.00368497 -0.00587774  0.00262894 0.000810246 -0.00587774  0.00112644 0.00118221 -0.00587774  0.000538471 0.00129874 -0.00587774  0.000227415 0.00145511 -0.00587774  7.97268e-05 0.00141609 -0.00587774  1.80492e-05 0.00138142 -0.00587774  -0.000170834 0.00110707 -0.00587774  -0.000893605 0.000953606 -0.00587774  -0.00322084 0.00114197 -0.00587774  0.00284567 0.000403758 -0.00587774  0.00125876 0.000607195 -0.00587774  0.000609154 0.000649606 -0.00587774  0.000266834 0.000737034 -0.00587774  0.000110092 0.000693752 -0.00587774  1.21375e-05 0.000617417 -0.00587774  -0.000262534 0.0004027 -0.00587774  -0.0010971 0.000339036 -0.00587774  -0.0032502 0.000697253 -0.00587774  0.00325472 0.000169263 -0.00587774  0.00152384 0.000278204 -0.00587774  0.000767271 0.000271354 -0.00587774  0.0003463 0.000314902 -0.00587774  8.00576e-05 0.000298352 -0.00587774  -0.000139967 0.000197255 -0.00587774  -0.000510656 4.94931e-05 -0.00587774  -0.00142482 7.00099e-05 -0.00587774  -0.0034744 0.000333159 -0.00587774  0.00337054 -0.000219865 -0.00587774  0.00165277 -6.94802e-05 -0.00587774  0.000860753 -0.000114702 -0.00587774  0.000386273 -5.23043e-05 -0.00587774  3.00485e-05 -1.91696e-05 -0.00587774  -0.000268521 -5.74025e-05 -0.00587774  -0.000642575 -9.98287e-05 -0.00587774  -0.00154111 -5.11256e-05 -0.00587774  -0.00329338 0.000164771 -0.00587774  0.00326769 -0.000570839 -0.00587774  0.0018141 -0.000461021 -0.00587774  0.00101787 -0.000544046 -0.00587774  0.000511978 -0.000446961 -0.00587774  7.36977e-05 -0.000346755 -0.00587774  -0.000303026 -0.000322777 -0.00587774  -0.000721873 -0.000275699 -0.00587774  -0.00163847 -0.000228474 -0.00587774  -0.00342018 4.85468e-05 -0.00587774  0.00325784 -0.00103471 -0.00587774  0.00198348 -0.000918477 -0.00587774  0.001156 -0.00100761 -0.00587774  0.000613617 -0.000897101 -0.00587774  0.000122751 -0.000789545 -0.00587774  -0.000294457 -0.000730175 -0.00587774  -0.000697907 -0.000636315 -0.00587774  -0.00157652 -0.000601792 -0.00587774  -0.00335458 -0.000316781 -0.00587774  0.00290714 -0.00215684 -0.00587774  0.00196677 -0.00189967 -0.00587774  0.00109052 -0.00196315 -0.00587774  0.000553799 -0.00183409 -0.00587774  9.20776e-05 -0.00174348 -0.00587774  -0.000293556 -0.00167265 -0.00587774  -0.000685175 -0.00150684 -0.00587774  -0.00149257 -0.00141577 -0.00587774  -0.00308436 -0.00106833 -0.00587774  0.00280042 -0.00271583 -0.00587774  0.00226722 -0.002864 -0.00587774  0.00123327 -0.00326004 -0.00587774  0.000730089 -0.00333739 -0.00587774  0.000296933 -0.00353841 -0.00587774  -0.000110767 -0.00347599 -0.00587774  -0.000409111 -0.00319722 -0.00587774  -0.00109102 -0.00297185 -0.00587774  -0.00252756 -0.0025105 -0.00587774  
            </DataArray>
         </PointData> 
      </Piece>
   </UnstructuredGrid> 
</VTKFile>
