<?xml version="1.0"?>
<VTKFile type="UnstructuredGrid" version="0.1" byte_order="LittleEndian">
   <UnstructuredGrid>
      <Piece NumberOfPoints="81" NumberOfCells="0" > 
         <Points> 
            <DataArray type="Float64" Name="Position" NumberOfComponents="3" format="ascii"> 
               0  0  15  
               0.375  0  15  
               0.75  0  15  
               1.125  0  15  
               1.5  0  15  
               1.875  0  15  
               2.25  0  15  
               2.625  0  15  
               3  0  15  
               0  0.375  15  
               0.375  0.375  15  
               0.75  0.375  15  
               1.125  0.375  15  
               1.5  0.375  15  
               1.875  0.375  15  
               2.25  0.375  15  
               2.625  0.375  15  
               3  0.375  15  
               0  0.75  15  
               0.375  0.75  15  
               0.75  0.75  15  
               1.125  0.75  15  
               1.5  0.75  15  
               1.875  0.75  15  
               2.25  0.75  15  
               2.625  0.75  15  
               3  0.75  15  
               0  1.125  15  
               0.375  1.125  15  
               0.75  1.125  15  
               1.125  1.125  15  
               1.5  1.125  15  
               1.875  1.125  15  
               2.25  1.125  15  
               2.625  1.125  15  
               3  1.125  15  
               0  1.5  15  
               0.375  1.5  15  
               0.75  1.5  15  
               1.125  1.5  15  
               1.5  1.5  15  
               1.875  1.5  15  
               2.25  1.5  15  
               2.625  1.5  15  
               3  1.5  15  
               0  1.875  15  
               0.375  1.875  15  
               0.75  1.875  15  
               1.125  1.875  15  
               1.5  1.875  15  
               1.875  1.875  15  
               2.25  1.875  15  
               2.625  1.875  15  
               3  1.875  15  
               0  2.25  15  
               0.375  2.25  15  
               0.75  2.25  15  
               1.125  2.25  15  
               1.5  2.25  15  
               1.875  2.25  15  
               2.25  2.25  15  
               2.625  2.25  15  
               3  2.25  15  
               0  2.625  15  
               0.375  2.625  15  
               0.75  2.625  15  
               1.125  2.625  15  
               1.5  2.625  15  
               1.875  2.625  15  
               2.25  2.625  15  
               2.625  2.625  15  
               3  2.625  15  
               0  3  15  
               0.375  3  15  
               0.75  3  15  
               1.125  3  15  
               1.5  3  15  
               1.875  3  15  
               2.25  3  15  
               2.625  3  15  
               3  3  15  
            </DataArray>
         </Points> 

         <Cells>
            <DataArray type="Int32" Name="connectivity" NumberOfComponents="1" format="ascii">
               
            </DataArray> 
            <DataArray type="Int32" Name="offsets" NumberOfComponents="1" format="ascii">
               
            </DataArray>
            <DataArray type="UInt8"  Name="types" NumberOfComponents="1" format="ascii">
               
            </DataArray>
         </Cells>
         <PointData Scalars="Rank " Vectors="Displacement Velocity Traction ">
            <DataArray type="UInt32" Name="Rank" NumberOfComponents="1" format="ascii">
               0 0 0 0 0 0 0 0 0 0 0 0 0 0 0 0 0 0 0 0 0 0 0 0 0 0 0 0 0 0 0 0 0 0 0 0 0 0 0 0 0 0 0 0 0 0 0 0 0 0 0 0 0 0 0 0 0 0 0 0 0 0 0 0 0 0 0 0 0 0 0 0 0 0 0 0 0 0 0 0 0 
            </DataArray>
            <DataArray type="Float64" Name="Displacement" NumberOfComponents="3" format="ascii">
               3.46853e-05 1.47849e-05 -2.20707e-05  3.38653e-05 -4.43984e-06 -2.25421e-05  2.97821e-05 -3.45655e-06 -2.1014e-05  2.43549e-05 -4.50584e-06 -2.03771e-05  2.09721e-05 -8.21792e-07 -2.03245e-05  1.93246e-05 -5.35116e-06 -1.9899e-05  1.93883e-05 -5.28952e-06 -2.07332e-05  1.9872e-05 -1.25328e-05 -2.23289e-05  2.00104e-05 -1.99048e-05 -2.06223e-05  1.67059e-05 1.34448e-05 -2.2538e-05  1.79101e-05 -4.88973e-06 -2.17735e-05  1.73921e-05 -3.24562e-06 -1.96051e-05  1.62549e-05 -4.72778e-06 -1.90304e-05  1.55937e-05 -2.0529e-06 -1.89864e-05  1.49588e-05 -6.71975e-06 -1.86971e-05  1.3564e-05 -6.76622e-06 -1.96434e-05  1.24205e-05 -1.33596e-05 -2.24e-05  1.21053e-05 -2.00556e-05 -2.19357e-05  1.93788e-05 7.21403e-06 -2.10097e-05  2.23118e-05 -8.72269e-06 -1.9602e-05  2.11513e-05 -8.06218e-06 -1.60717e-05  1.85377e-05 -9.02723e-06 -1.50888e-05  1.59202e-05 -7.48645e-06 -1.51016e-05  1.26432e-05 -1.03691e-05 -1.4991e-05  8.41444e-06 -1.03864e-05 -1.60506e-05  5.37077e-06 -1.5288e-05 -1.96948e-05  4.53209e-06 -2.05074e-05 -2.057e-05  1.88635e-05 -2.34243e-06 -2.03746e-05  2.24595e-05 -1.4874e-05 -1.90301e-05  2.17928e-05 -1.43322e-05 -1.50914e-05  1.89142e-05 -1.47003e-05 -1.37627e-05  1.58612e-05 -1.4179e-05 -1.3758e-05  1.19208e-05 -1.48426e-05 -1.3771e-05  7.78437e-06 -1.52877e-05 -1.50372e-05  4.57969e-06 -1.76882e-05 -1.88019e-05  3.86967e-06 -2.17119e-05 -1.98874e-05  2.32578e-05 -1.13448e-05 -2.0321e-05  2.66715e-05 -2.25559e-05 -1.89856e-05  2.59861e-05 -2.11165e-05 -1.51031e-05  2.25089e-05 -2.10057e-05 -1.37569e-05  1.75584e-05 -2.01748e-05 -1.38185e-05  1.11575e-05 -1.902e-05 -1.37518e-05  4.24099e-06 -1.92841e-05 -1.50833e-05  -9.45031e-07 -1.96824e-05 -1.89434e-05  -1.39115e-06 -2.47842e-05 -2.01351e-05  2.87329e-05 -2.02041e-05 -1.98992e-05  3.19966e-05 -3.04681e-05 -1.86936e-05  3.00146e-05 -2.703e-05 -1.49923e-05  2.45851e-05 -2.63943e-05 -1.37683e-05  1.79291e-05 -2.45226e-05 -1.37514e-05  1.05037e-05 -2.21437e-05 -1.373e-05  4.08523e-06 -2.25921e-05 -1.50502e-05  -2.7737e-07 -2.1852e-05 -1.89505e-05  5.6536e-08 -2.96761e-05 -2.01297e-05  3.06115e-05 -2.84822e-05 -2.07417e-05  3.33407e-05 -3.79695e-05 -1.96446e-05  3.10643e-05 -3.13032e-05 -1.60561e-05  2.53884e-05 -3.06385e-05 -1.50382e-05  1.80142e-05 -2.73855e-05 -1.5085e-05  9.8451e-06 -2.4912e-05 -1.50524e-05  2.49909e-06 -2.58258e-05 -1.60573e-05  -2.49673e-06 -2.45079e-05 -1.96327e-05  -1.75336e-06 -3.63467e-05 -2.08932e-05  4.28397e-05 -3.46909e-05 -2.23395e-05  4.29435e-05 -4.2376e-05 -2.2389e-05  3.75258e-05 -3.24573e-05 -1.96969e-05  2.86291e-05 -3.15579e-05 -1.88e-05  1.88828e-05 -2.73279e-05 -1.8945e-05  9.24185e-06 -2.50883e-05 -1.89515e-05  1.24918e-06 -2.69334e-05 -1.96314e-05  -3.73517e-06 -2.6092e-05 -2.1845e-05  -4.20008e-06 -4.13227e-05 -2.24761e-05  3.78772e-05 -3.69688e-05 -2.06585e-05  3.5232e-05 -4.16249e-05 -2.19485e-05  2.79296e-05 -2.88009e-05 -2.05793e-05  1.81698e-05 -2.72579e-05 -1.9889e-05  7.62262e-06 -2.28294e-05 -2.01335e-05  -3.05398e-06 -2.06298e-05 -2.01272e-05  -1.39474e-05 -2.3257e-05 -2.08912e-05  -2.11666e-05 -2.48761e-05 -2.24741e-05  -2.28519e-05 -4.24753e-05 -2.19203e-05  
            </DataArray>
            <DataArray type="Float64" Name="Velocity" NumberOfComponents="3" format="ascii">
               4.74666e-05 1.35182e-05 -3.32602e-05  4.60011e-05 -5.15935e-06 -3.42309e-05  3.98422e-05 -5.68987e-06 -3.20608e-05  3.09491e-05 -5.56058e-06 -3.10929e-05  2.30557e-05 -7.45916e-07 -3.10348e-05  1.64311e-05 -3.20458e-06 -3.03118e-05  1.16352e-05 -1.50982e-06 -3.16677e-05  8.36536e-06 -2.26301e-06 -3.39667e-05  7.1541e-06 -1.20445e-05 -3.07453e-05  2.64435e-05 1.21078e-05 -3.42408e-05  2.6951e-05 -5.049e-06 -3.3641e-05  2.38387e-05 -3.82809e-06 -3.07004e-05  1.8757e-05 -3.59356e-06 -2.9828e-05  1.32467e-05 7.74248e-07 -2.98167e-05  7.56826e-06 -1.85612e-06 -2.92993e-05  1.73173e-06 -7.4716e-07 -3.07609e-05  -1.86128e-06 -2.53046e-06 -3.46484e-05  -1.81035e-06 -1.34928e-05 -3.32782e-05  2.17476e-05 5.41236e-06 -3.20396e-05  2.46804e-05 -9.52889e-06 -3.06807e-05  2.22755e-05 -8.23712e-06 -2.58815e-05  1.71777e-05 -7.02692e-06 -2.4377e-05  1.17125e-05 -3.45384e-06 -2.44333e-05  6.02609e-06 -4.86897e-06 -2.42399e-05  3.7418e-07 -4.3386e-06 -2.58423e-05  -2.42719e-06 -6.723e-06 -3.08727e-05  -1.12432e-06 -1.75058e-05 -3.13954e-05  1.74152e-05 -4.53634e-06 -3.1088e-05  2.10273e-05 -1.71487e-05 -2.98246e-05  2.00461e-05 -1.58538e-05 -2.43891e-05  1.61083e-05 -1.34833e-05 -2.23751e-05  1.13672e-05 -1.07658e-05 -2.24466e-05  6.0736e-06 -1.07016e-05 -2.24163e-05  9.24659e-07 -1.09958e-05 -2.43036e-05  -1.57066e-06 -1.34433e-05 -2.94726e-05  2.84986e-07 -2.3321e-05 -3.03144e-05  2.33745e-05 -1.4113e-05 -3.10276e-05  2.68797e-05 -2.61276e-05 -2.98125e-05  2.51851e-05 -2.42314e-05 -2.4444e-05  2.00283e-05 -2.0861e-05 -2.24448e-05  1.37808e-05 -1.83058e-05 -2.26309e-05  6.78663e-06 -1.68712e-05 -2.24395e-05  -5.92511e-08 -1.77565e-05 -2.44228e-05  -3.84212e-06 -2.02921e-05 -2.97243e-05  -1.73055e-06 -3.11086e-05 -3.07465e-05  2.58474e-05 -2.33702e-05 -3.0298e-05  2.92863e-05 -3.54158e-05 -2.92851e-05  2.75573e-05 -3.21214e-05 -2.42443e-05  2.19522e-05 -2.77719e-05 -2.24074e-05  1.52332e-05 -2.51014e-05 -2.24344e-05  7.94075e-06 -2.25452e-05 -2.23308e-05  1.43427e-06 -2.43006e-05 -2.43298e-05  -1.92386e-06 -2.7201e-05 -2.96992e-05  6.98148e-07 -4.05538e-05 -3.07056e-05  3.36585e-05 -3.14918e-05 -3.1674e-05  3.6333e-05 -4.43478e-05 -3.07607e-05  3.34539e-05 -3.87964e-05 -2.58625e-05  2.64381e-05 -3.35919e-05 -2.43121e-05  1.81457e-05 -3.06432e-05 -2.4433e-05  9.2581e-06 -2.73037e-05 -2.43433e-05  1.10382e-06 -3.02933e-05 -2.58426e-05  -3.53773e-06 -3.37233e-05 -3.07468e-05  -9.06139e-07 -5.15266e-05 -3.18718e-05  4.39638e-05 -3.78488e-05 -3.3956e-05  4.41999e-05 -4.96404e-05 -3.46252e-05  3.85166e-05 -4.12934e-05 -3.08713e-05  2.89891e-05 -3.53068e-05 -2.94621e-05  1.8799e-05 -3.22715e-05 -2.972e-05  8.62729e-06 -2.85677e-05 -2.96979e-05  -2.93219e-07 -3.30274e-05 -3.0732e-05  -5.76226e-06 -3.7781e-05 -3.37483e-05  -5.53456e-06 -5.94888e-05 -3.41083e-05  3.47086e-05 -4.02889e-05 -3.07352e-05  3.21489e-05 -4.91802e-05 -3.32708e-05  2.51682e-05 -3.81495e-05 -3.14055e-05  1.60099e-05 -3.14054e-05 -3.03066e-05  5.52603e-06 -2.81279e-05 -3.07349e-05  -5.68426e-06 -2.42565e-05 -3.06933e-05  -1.77582e-05 -2.92251e-05 -3.18434e-05  -2.63258e-05 -3.69911e-05 -3.41023e-05  -2.8441e-05 -6.15046e-05 -3.29825e-05  
            </DataArray>
            <DataArray type="Float64" Name="Traction" NumberOfComponents="3" format="ascii">
               0.000981397 0.000970177 -0.00253012  0.00011072 0.00113003 -0.00253012  3.61163e-05 0.00119432 -0.00253012  -5.02576e-05 0.00131452 -0.00253012  -3.38211e-06 0.00125086 -0.00253012  2.59944e-05 0.00145424 -0.00253012  -8.05103e-05 0.00133235 -0.00253012  -0.000120472 0.00142812 -0.00253012  -0.00176041 0.00175151 -0.00253012  0.0010672 0.000130241 -0.00253012  0.00029151 0.000325674 -0.00253012  0.000113279 0.000415685 -0.00253012  2.86652e-05 0.000535162 -0.00253012  4.93082e-05 0.000522921 -0.00253012  0.000118864 0.000483718 -0.00253012  0.000103919 0.000266867 -0.00253012  -0.000103783 0.000133291 -0.00253012  -0.00143374 0.000149609 -0.00253012  0.00113936 0.000140115 -0.00253012  0.000417416 0.000155729 -0.00253012  0.000177262 0.00017738 -0.00253012  5.56546e-05 0.000258725 -0.00253012  6.85704e-05 0.000248841 -0.00253012  0.000121928 0.000178519 -0.00253012  4.38396e-05 5.11279e-06 -0.00253012  -0.000255021 -4.04096e-05 -0.00253012  -0.00137694 0.000168631 -0.00253012  0.00142955 7.79138e-05 -0.00253012  0.000643846 6.0485e-05 -0.00253012  0.000321523 3.35733e-05 -0.00253012  0.000138009 8.78234e-05 -0.00253012  4.92369e-05 9.95247e-05 -0.00253012  -5.1575e-06 1.18533e-05 -0.00253012  -0.000156273 -0.000112688 -0.00253012  -0.000523802 -9.37633e-05 -0.00253012  -0.00152577 3.33192e-05 -0.00253012  0.0014763 -0.000140574 -0.00253012  0.000778197 -8.24713e-05 -0.00253012  0.000432395 -0.000139487 -0.00253012  0.000201531 -7.14565e-05 -0.00253012  2.4669e-05 -2.61195e-05 -0.00253012  -0.000110988 -5.45406e-05 -0.00253012  -0.00026544 -9.12565e-05 -0.00253012  -0.000618949 -5.81294e-05 -0.00253012  -0.00132972 1.54467e-05 -0.00253012  0.00130736 -0.000312973 -0.00253012  0.000871228 -0.000297315 -0.00253012  0.000542634 -0.000371447 -0.00253012  0.000305493 -0.000273184 -0.00253012  6.62455e-05 -0.000183696 -0.00253012  -0.000127063 -0.00015104 -0.00253012  -0.000311909 -0.000107023 -0.00253012  -0.000671518 -7.43211e-05 -0.00253012  -0.00140866 4.87455e-05 -0.00253012  0.00132602 -0.000535777 -0.00253012  0.0010304 -0.000536769 -0.00253012  0.000670936 -0.000596795 -0.00253012  0.000403921 -0.000480424 -0.00253012  0.000116781 -0.000398455 -0.00253012  -0.000110456 -0.000331526 -0.00253012  -0.000284498 -0.000250346 -0.00253012  -0.000625976 -0.000214402 -0.00253012  -0.0013974 -0.000105106 -0.00253012  0.00102352 -0.00110368 -0.00253012  0.00101198 -0.000966268 -0.00253012  0.00061397 -0.000994028 -0.00253012  0.000338016 -0.000860862 -0.00253012  7.18605e-05 -0.000803118 -0.00253012  -0.000124533 -0.00072149 -0.00253012  -0.000273953 -0.000587997 -0.00253012  -0.000568056 -0.000515309 -0.00253012  -0.00126056 -0.000377667 -0.00253012  0.000767682 -0.000746958 -0.00253012  0.00114594 -0.000992202 -0.00253012  0.000629947 -0.00131668 -0.00253012  0.000393675 -0.00135668 -0.00253012  0.000150386 -0.00156933 -0.00253012  -9.62202e-05 -0.00149832 -0.00253012  -0.000200979 -0.00128178 -0.00253012  -0.0003939 -0.00116851 -0.00253012  -0.00100239 -0.00100215 -0.00253012  
            </DataArray>
         </PointData> 
      </Piece>
   </UnstructuredGrid> 
</VTKFile>
