<?xml version="1.0"?>
<VTKFile type="UnstructuredGrid" version="0.1" byte_order="LittleEndian">
   <UnstructuredGrid>
      <Piece NumberOfPoints="81" NumberOfCells="0" > 
         <Points> 
            <DataArray type="Float64" Name="Position" NumberOfComponents="3" format="ascii"> 
               0  0  20  
               0.375  0  20  
               0.75  0  20  
               1.125  0  20  
               1.5  0  20  
               1.875  0  20  
               2.25  0  20  
               2.625  0  20  
               3  0  20  
               0  0.375  20  
               0.375  0.375  20  
               0.75  0.375  20  
               1.125  0.375  20  
               1.5  0.375  20  
               1.875  0.375  20  
               2.25  0.375  20  
               2.625  0.375  20  
               3  0.375  20  
               0  0.75  20  
               0.375  0.75  20  
               0.75  0.75  20  
               1.125  0.75  20  
               1.5  0.75  20  
               1.875  0.75  20  
               2.25  0.75  20  
               2.625  0.75  20  
               3  0.75  20  
               0  1.125  20  
               0.375  1.125  20  
               0.75  1.125  20  
               1.125  1.125  20  
               1.5  1.125  20  
               1.875  1.125  20  
               2.25  1.125  20  
               2.625  1.125  20  
               3  1.125  20  
               0  1.5  20  
               0.375  1.5  20  
               0.75  1.5  20  
               1.125  1.5  20  
               1.5  1.5  20  
               1.875  1.5  20  
               2.25  1.5  20  
               2.625  1.5  20  
               3  1.5  20  
               0  1.875  20  
               0.375  1.875  20  
               0.75  1.875  20  
               1.125  1.875  20  
               1.5  1.875  20  
               1.875  1.875  20  
               2.25  1.875  20  
               2.625  1.875  20  
               3  1.875  20  
               0  2.25  20  
               0.375  2.25  20  
               0.75  2.25  20  
               1.125  2.25  20  
               1.5  2.25  20  
               1.875  2.25  20  
               2.25  2.25  20  
               2.625  2.25  20  
               3  2.25  20  
               0  2.625  20  
               0.375  2.625  20  
               0.75  2.625  20  
               1.125  2.625  20  
               1.5  2.625  20  
               1.875  2.625  20  
               2.25  2.625  20  
               2.625  2.625  20  
               3  2.625  20  
               0  3  20  
               0.375  3  20  
               0.75  3  20  
               1.125  3  20  
               1.5  3  20  
               1.875  3  20  
               2.25  3  20  
               2.625  3  20  
               3  3  20  
            </DataArray>
         </Points> 

         <Cells>
            <DataArray type="Int32" Name="connectivity" NumberOfComponents="1" format="ascii">
               
            </DataArray> 
            <DataArray type="Int32" Name="offsets" NumberOfComponents="1" format="ascii">
               
            </DataArray>
            <DataArray type="UInt8"  Name="types" NumberOfComponents="1" format="ascii">
               
            </DataArray>
         </Cells>
         <PointData Scalars="Rank " Vectors="Displacement Velocity Traction ">
            <DataArray type="UInt32" Name="Rank" NumberOfComponents="1" format="ascii">
               0 0 0 0 0 0 0 0 0 0 0 0 0 0 0 0 0 0 0 0 0 0 0 0 0 0 0 0 0 0 0 0 0 0 0 0 0 0 0 0 0 0 0 0 0 0 0 0 0 0 0 0 0 0 0 0 0 0 0 0 0 0 0 0 0 0 0 0 0 0 0 0 0 0 0 0 0 0 0 0 0 
            </DataArray>
            <DataArray type="Float64" Name="Displacement" NumberOfComponents="3" format="ascii">
               0 0 0  0 0 0  0 0 0  0 0 0  0 0 0  0 0 0  0 0 0  0 0 0  0 0 0  0 0 0  0 0 0  0 0 0  0 0 0  0 0 0  0 0 0  0 0 0  0 0 0  0 0 0  0 0 0  0 0 0  0 0 0  0 0 0  0 0 0  0 0 0  0 0 0  0 0 0  0 0 0  0 0 0  0 0 0  0 0 0  0 0 0  0 0 0  0 0 0  0 0 0  0 0 0  0 0 0  0 0 0  0 0 0  0 0 0  0 0 0  0 0 0  0 0 0  0 0 0  0 0 0  0 0 0  0 0 0  0 0 0  0 0 0  0 0 0  0 0 0  0 0 0  0 0 0  0 0 0  0 0 0  0 0 0  0 0 0  0 0 0  0 0 0  0 0 0  0 0 0  0 0 0  0 0 0  0 0 0  0 0 0  0 0 0  0 0 0  0 0 0  0 0 0  0 0 0  0 0 0  0 0 0  0 0 0  0 0 0  0 0 0  0 0 0  0 0 0  0 0 0  0 0 0  0 0 0  0 0 0  0 0 0  
            </DataArray>
            <DataArray type="Float64" Name="Velocity" NumberOfComponents="3" format="ascii">
               0 0 0  0 0 0  0 0 0  0 0 0  0 0 0  0 0 0  0 0 0  0 0 0  0 0 0  0 0 0  0 0 0  0 0 0  0 0 0  0 0 0  0 0 0  0 0 0  0 0 0  0 0 0  0 0 0  0 0 0  0 0 0  0 0 0  0 0 0  0 0 0  0 0 0  0 0 0  0 0 0  0 0 0  0 0 0  0 0 0  0 0 0  0 0 0  0 0 0  0 0 0  0 0 0  0 0 0  0 0 0  0 0 0  0 0 0  0 0 0  0 0 0  0 0 0  0 0 0  0 0 0  0 0 0  0 0 0  0 0 0  0 0 0  0 0 0  0 0 0  0 0 0  0 0 0  0 0 0  0 0 0  0 0 0  0 0 0  0 0 0  0 0 0  0 0 0  0 0 0  0 0 0  0 0 0  0 0 0  0 0 0  0 0 0  0 0 0  0 0 0  0 0 0  0 0 0  0 0 0  0 0 0  0 0 0  0 0 0  0 0 0  0 0 0  0 0 0  0 0 0  0 0 0  0 0 0  0 0 0  0 0 0  
            </DataArray>
            <DataArray type="Float64" Name="Traction" NumberOfComponents="3" format="ascii">
               -1.04328e-06 -1.04015e-06 -1.52571e-06  -2.06769e-07 -1.95374e-06 -1.52571e-06  1.53772e-08 -2.44805e-06 -1.52571e-06  5.17406e-08 -2.53628e-06 -1.52571e-06  -1.33082e-08 -2.42671e-06 -1.52571e-06  3.11995e-08 -2.54264e-06 -1.52571e-06  5.58894e-07 -2.43537e-06 -1.52571e-06  5.3334e-07 -1.56131e-06 -1.52571e-06  1.12576e-06 -1.33238e-06 -1.52571e-06  -1.96039e-06 -2.03789e-07 -1.52571e-06  -8.81899e-07 -8.75534e-07 -1.52571e-06  -2.45333e-07 -1.22529e-06 -1.52571e-06  -1.95077e-08 -1.32515e-06 -1.52571e-06  -1.16623e-07 -1.3035e-06 -1.52571e-06  -6.66909e-09 -1.30991e-06 -1.52571e-06  7.59241e-07 -1.34318e-06 -1.52571e-06  8.01805e-07 -8.01265e-07 -1.52571e-06  1.54872e-06 -6.58547e-07 -1.52571e-06  -2.45437e-06 1.94099e-08 -1.52571e-06  -1.23176e-06 -2.37566e-07 -1.52571e-06  -4.07467e-07 -3.98884e-07 -1.52571e-06  2.64289e-09 -5.03464e-07 -1.52571e-06  -9.58491e-08 -4.85097e-07 -1.52571e-06  9.43631e-10 -4.87425e-07 -1.52571e-06  1.09438e-06 -4.89181e-07 -1.52571e-06  1.27704e-06 -3.1397e-07 -1.52571e-06  2.35299e-06 -3.15816e-07 -1.52571e-06  -2.54419e-06 5.63033e-08 -1.52571e-06  -1.33415e-06 -1.16532e-08 -1.52571e-06  -5.13195e-07 1.17663e-08 -1.52571e-06  -7.23026e-08 -6.34162e-08 -1.52571e-06  -1.3995e-07 -2.48096e-08 -1.52571e-06  5.30052e-08 -6.01468e-08 -1.52571e-06  1.08398e-06 7.50133e-09 -1.52571e-06  1.30077e-06 -1.24618e-08 -1.52571e-06  2.52403e-06 6.6113e-08 -1.52571e-06  -2.42911e-06 -6.36823e-09 -1.52571e-06  -1.30551e-06 -1.06786e-07 -1.52571e-06  -4.89255e-07 -8.6071e-08 -1.52571e-06  -3.08675e-08 -1.31041e-07 -1.52571e-06  -1.5943e-07 -1.53237e-07 -1.52571e-06  1.45685e-09 -1.36542e-07 -1.52571e-06  1.02367e-06 -1.6713e-07 -1.52571e-06  1.24044e-06 -1.04023e-07 -1.52571e-06  2.35671e-06 -2.02985e-07 -1.52571e-06  -2.55449e-06 3.89593e-08 -1.52571e-06  -1.32122e-06 3.25702e-09 -1.52571e-06  -4.97634e-07 9.84695e-09 -1.52571e-06  -6.94551e-08 6.16751e-08 -1.52571e-06  -1.44888e-07 6.23936e-09 -1.52571e-06  6.20024e-08 6.84774e-08 -1.52571e-06  1.1045e-06 -5.66763e-08 -1.52571e-06  1.31055e-06 3.5833e-08 -1.52571e-06  2.51716e-06 -1.67087e-07 -1.52571e-06  -2.44434e-06 5.68209e-07 -1.52571e-06  -1.35027e-06 7.65354e-07 -1.52571e-06  -4.96256e-07 1.09777e-06 -1.52571e-06  -1.79573e-09 1.09167e-06 -1.52571e-06  -1.76143e-07 1.02552e-06 -1.52571e-06  -6.41124e-08 1.11076e-06 -1.52571e-06  9.55393e-07 9.61833e-07 -1.52571e-06  1.20699e-06 6.03894e-07 -1.52571e-06  2.4224e-06 2.57582e-07 -1.52571e-06  -1.57481e-06 5.47839e-07 -1.52571e-06  -8.10983e-07 8.09782e-07 -1.52571e-06  -3.22797e-07 1.27942e-06 -1.52571e-06  -2.25341e-08 1.3081e-06 -1.52571e-06  -1.12724e-07 1.23959e-06 -1.52571e-06  2.96114e-08 1.31516e-06 -1.52571e-06  5.98973e-07 1.21169e-06 -1.52571e-06  8.63124e-07 8.67004e-07 -1.52571e-06  1.93515e-06 2.30465e-07 -1.52571e-06  -1.35146e-06 1.14286e-06 -1.52571e-06  -6.73998e-07 1.56025e-06 -1.52571e-06  -3.2723e-07 2.35668e-06 -1.52571e-06  5.72614e-08 2.53082e-06 -1.52571e-06  -2.10275e-07 2.35553e-06 -1.52571e-06  -1.72974e-07 2.51975e-06 -1.52571e-06  2.53173e-07 2.42585e-06 -1.52571e-06  2.27628e-07 1.93805e-06 -1.52571e-06  1.05001e-06 1.05137e-06 -1.52571e-06  
            </DataArray>
         </PointData> 
      </Piece>
   </UnstructuredGrid> 
</VTKFile>
