<?xml version="1.0"?>
<VTKFile type="UnstructuredGrid" version="0.1" byte_order="LittleEndian">
   <UnstructuredGrid>
      <Piece NumberOfPoints="81" NumberOfCells="0" > 
         <Points> 
            <DataArray type="Float64" Name="Position" NumberOfComponents="3" format="ascii"> 
               0  0  15  
               0.375  0  15  
               0.75  0  15  
               1.125  0  15  
               1.5  0  15  
               1.875  0  15  
               2.25  0  15  
               2.625  0  15  
               3  0  15  
               0  0.375  15  
               0.375  0.375  15  
               0.75  0.375  15  
               1.125  0.375  15  
               1.5  0.375  15  
               1.875  0.375  15  
               2.25  0.375  15  
               2.625  0.375  15  
               3  0.375  15  
               0  0.75  15  
               0.375  0.75  15  
               0.75  0.75  15  
               1.125  0.75  15  
               1.5  0.75  15  
               1.875  0.75  15  
               2.25  0.75  15  
               2.625  0.75  15  
               3  0.75  15  
               0  1.125  15  
               0.375  1.125  15  
               0.75  1.125  15  
               1.125  1.125  15  
               1.5  1.125  15  
               1.875  1.125  15  
               2.25  1.125  15  
               2.625  1.125  15  
               3  1.125  15  
               0  1.5  15  
               0.375  1.5  15  
               0.75  1.5  15  
               1.125  1.5  15  
               1.5  1.5  15  
               1.875  1.5  15  
               2.25  1.5  15  
               2.625  1.5  15  
               3  1.5  15  
               0  1.875  15  
               0.375  1.875  15  
               0.75  1.875  15  
               1.125  1.875  15  
               1.5  1.875  15  
               1.875  1.875  15  
               2.25  1.875  15  
               2.625  1.875  15  
               3  1.875  15  
               0  2.25  15  
               0.375  2.25  15  
               0.75  2.25  15  
               1.125  2.25  15  
               1.5  2.25  15  
               1.875  2.25  15  
               2.25  2.25  15  
               2.625  2.25  15  
               3  2.25  15  
               0  2.625  15  
               0.375  2.625  15  
               0.75  2.625  15  
               1.125  2.625  15  
               1.5  2.625  15  
               1.875  2.625  15  
               2.25  2.625  15  
               2.625  2.625  15  
               3  2.625  15  
               0  3  15  
               0.375  3  15  
               0.75  3  15  
               1.125  3  15  
               1.5  3  15  
               1.875  3  15  
               2.25  3  15  
               2.625  3  15  
               3  3  15  
            </DataArray>
         </Points> 

         <Cells>
            <DataArray type="Int32" Name="connectivity" NumberOfComponents="1" format="ascii">
               
            </DataArray> 
            <DataArray type="Int32" Name="offsets" NumberOfComponents="1" format="ascii">
               
            </DataArray>
            <DataArray type="UInt8"  Name="types" NumberOfComponents="1" format="ascii">
               
            </DataArray>
         </Cells>
         <PointData Scalars="Rank " Vectors="Displacement Velocity Traction ">
            <DataArray type="UInt32" Name="Rank" NumberOfComponents="1" format="ascii">
               0 0 0 0 0 0 0 0 0 0 0 0 0 0 0 0 0 0 0 0 0 0 0 0 0 0 0 0 0 0 0 0 0 0 0 0 0 0 0 0 0 0 0 0 0 0 0 0 0 0 0 0 0 0 0 0 0 0 0 0 0 0 0 0 0 0 0 0 0 0 0 0 0 0 0 0 0 0 0 0 0 
            </DataArray>
            <DataArray type="Float64" Name="Displacement" NumberOfComponents="3" format="ascii">
               0 0 0  0 0 0  0 0 0  0 0 0  0 0 0  0 0 0  0 0 0  0 0 0  0 0 0  0 0 0  0 0 0  0 0 0  0 0 0  0 0 0  0 0 0  0 0 0  0 0 0  0 0 0  0 0 0  0 0 0  0 0 0  0 0 0  0 0 0  0 0 0  0 0 0  0 0 0  0 0 0  0 0 0  0 0 0  0 0 0  0 0 0  0 0 0  0 0 0  0 0 0  0 0 0  0 0 0  0 0 0  0 0 0  0 0 0  0 0 0  0 0 0  0 0 0  0 0 0  0 0 0  0 0 0  0 0 0  0 0 0  0 0 0  0 0 0  0 0 0  0 0 0  0 0 0  0 0 0  0 0 0  0 0 0  0 0 0  0 0 0  0 0 0  0 0 0  0 0 0  0 0 0  0 0 0  0 0 0  0 0 0  0 0 0  0 0 0  0 0 0  0 0 0  0 0 0  0 0 0  0 0 0  0 0 0  0 0 0  0 0 0  0 0 0  0 0 0  0 0 0  0 0 0  0 0 0  0 0 0  0 0 0  
            </DataArray>
            <DataArray type="Float64" Name="Velocity" NumberOfComponents="3" format="ascii">
               0 0 0  0 0 0  0 0 0  0 0 0  0 0 0  0 0 0  0 0 0  0 0 0  0 0 0  0 0 0  0 0 0  0 0 0  0 0 0  0 0 0  0 0 0  0 0 0  0 0 0  0 0 0  0 0 0  0 0 0  0 0 0  0 0 0  0 0 0  0 0 0  0 0 0  0 0 0  0 0 0  0 0 0  0 0 0  0 0 0  0 0 0  0 0 0  0 0 0  0 0 0  0 0 0  0 0 0  0 0 0  0 0 0  0 0 0  0 0 0  0 0 0  0 0 0  0 0 0  0 0 0  0 0 0  0 0 0  0 0 0  0 0 0  0 0 0  0 0 0  0 0 0  0 0 0  0 0 0  0 0 0  0 0 0  0 0 0  0 0 0  0 0 0  0 0 0  0 0 0  0 0 0  0 0 0  0 0 0  0 0 0  0 0 0  0 0 0  0 0 0  0 0 0  0 0 0  0 0 0  0 0 0  0 0 0  0 0 0  0 0 0  0 0 0  0 0 0  0 0 0  0 0 0  0 0 0  0 0 0  0 0 0  
            </DataArray>
            <DataArray type="Float64" Name="Traction" NumberOfComponents="3" format="ascii">
               2.79982e-11 2.79784e-11 3.28489e-10  -1.27176e-11 2.99366e-12 3.28489e-10  4.34984e-12 -2.26131e-11 3.28489e-10  6.60274e-12 -1.67981e-12 3.28489e-10  4.82482e-13 1.94262e-11 3.28489e-10  -5.62959e-12 1.9505e-12 3.28489e-10  -3.27375e-12 -1.57617e-11 3.28489e-10  8.83301e-12 2.78201e-12 3.28489e-10  -2.01894e-11 2.105e-11 3.28489e-10  5.09607e-12 -1.1811e-11 3.28489e-10  -3.71061e-12 -2.63161e-12 3.28489e-10  5.67424e-13 6.49473e-12 3.28489e-10  1.9308e-12 -1.54501e-12 3.28489e-10  3.13179e-14 -9.60947e-12 3.28489e-10  -1.64342e-12 -2.98016e-12 3.28489e-10  -8.91819e-13 3.65277e-12 3.28489e-10  4.15295e-12 -1.72666e-12 3.28489e-10  -7.64168e-12 -7.16701e-12 3.28489e-10  -1.83331e-11 3.03294e-12 3.28489e-10  5.22457e-12 -9.14719e-14 3.28489e-10  -3.26686e-12 -3.31758e-12 3.28489e-10  -2.61299e-12 -6.00235e-13 3.28489e-10  -4.6535e-13 2.11266e-12 3.28489e-10  2.25422e-12 -2.45371e-13 3.28489e-10  1.48964e-12 -2.61833e-12 3.28489e-10  -4.48829e-13 1.82165e-13 3.28489e-10  4.90714e-12 2.95406e-12 3.28489e-10  -1.45269e-11 8.70901e-13 3.28489e-10  3.18811e-12 -1.8695e-13 3.28489e-10  -2.46729e-12 -1.20541e-12 3.28489e-10  -6.89327e-13 4.72127e-13 3.28489e-10  -4.71779e-13 2.13248e-12 3.28489e-10  5.47378e-13 6.1808e-13 3.28489e-10  5.01533e-13 -8.71958e-13 3.28489e-10  1.94009e-12 3.1273e-13 3.28489e-10  -5.76798e-13 1.55757e-12 3.28489e-10  -1.07998e-11 9.59345e-13 3.28489e-10  1.12375e-12 4.34354e-13 3.28489e-10  -1.69647e-12 -1.12051e-13 3.28489e-10  1.27573e-12 2.17517e-13 3.28489e-10  -4.67234e-13 5.66071e-13 3.28489e-10  -1.18909e-12 1.38355e-13 3.28489e-10  -5.05113e-13 -3.05189e-13 3.28489e-10  4.36864e-12 6.26299e-14 3.28489e-10  -6.27243e-12 3.85374e-13 3.28489e-10  -1.25976e-11 -1.14506e-12 3.28489e-10  3.05575e-12 6.0771e-13 3.28489e-10  -2.14938e-12 2.36266e-12 3.28489e-10  -7.98804e-13 2.46413e-13 3.28489e-10  -5.61845e-13 -1.86493e-12 3.28489e-10  3.58757e-13 -2.12132e-13 3.28489e-10  1.10879e-13 1.42915e-12 3.28489e-10  2.50989e-12 1.61475e-13 3.28489e-10  -2.86937e-12 -1.11231e-12 3.28489e-10  -1.43538e-11 1.81707e-12 3.28489e-10  4.98883e-12 1.56326e-12 3.28489e-10  -2.57902e-12 1.32747e-12 3.28489e-10  -2.88404e-12 7.16044e-13 3.28489e-10  -6.6346e-13 1.15431e-13 3.28489e-10  1.91581e-12 3.11265e-13 3.28489e-10  7.53742e-13 4.92975e-13 3.28489e-10  6.25985e-13 -5.68413e-13 3.28489e-10  8.18541e-13 -1.59647e-12 3.28489e-10  -1.15316e-11 -3.95136e-13 3.28489e-10  3.20134e-12 -1.50922e-12 3.28489e-10  -1.74833e-12 -2.62831e-12 3.28489e-10  -4.98237e-13 5.44466e-13 3.28489e-10  -3.55506e-13 3.71142e-12 3.28489e-10  8.52326e-13 2.41443e-12 3.28489e-10  -4.12538e-13 1.13063e-12 3.28489e-10  1.86359e-12 2.24022e-12 3.28489e-10  -5.14854e-12 3.38111e-12 3.28489e-10  -8.73242e-12 9.68854e-12 3.28489e-10  1.43452e-12 8.14359e-12 3.28489e-10  -9.09053e-13 6.73944e-12 3.28489e-10  1.87766e-12 2.03748e-12 3.28489e-10  -2.23751e-14 -2.53562e-12 3.28489e-10  -2.09637e-13 -1.636e-12 3.28489e-10  -1.54156e-12 -8.5872e-13 3.28489e-10  3.12556e-12 -5.84155e-12 3.28489e-10  -1.1184e-11 -1.10378e-11 3.28489e-10  
            </DataArray>
         </PointData> 
      </Piece>
   </UnstructuredGrid> 
</VTKFile>
