<?xml version="1.0"?>
<VTKFile type="UnstructuredGrid" version="0.1" byte_order="LittleEndian">
   <UnstructuredGrid>
      <Piece NumberOfPoints="81" NumberOfCells="0" > 
         <Points> 
            <DataArray type="Float64" Name="Position" NumberOfComponents="3" format="ascii"> 
               0  0  20  
               0.375  0  20  
               0.75  0  20  
               1.125  0  20  
               1.5  0  20  
               1.875  0  20  
               2.25  0  20  
               2.625  0  20  
               3  0  20  
               0  0.375  20  
               0.375  0.375  20  
               0.75  0.375  20  
               1.125  0.375  20  
               1.5  0.375  20  
               1.875  0.375  20  
               2.25  0.375  20  
               2.625  0.375  20  
               3  0.375  20  
               0  0.75  20  
               0.375  0.75  20  
               0.75  0.75  20  
               1.125  0.75  20  
               1.5  0.75  20  
               1.875  0.75  20  
               2.25  0.75  20  
               2.625  0.75  20  
               3  0.75  20  
               0  1.125  20  
               0.375  1.125  20  
               0.75  1.125  20  
               1.125  1.125  20  
               1.5  1.125  20  
               1.875  1.125  20  
               2.25  1.125  20  
               2.625  1.125  20  
               3  1.125  20  
               0  1.5  20  
               0.375  1.5  20  
               0.75  1.5  20  
               1.125  1.5  20  
               1.5  1.5  20  
               1.875  1.5  20  
               2.25  1.5  20  
               2.625  1.5  20  
               3  1.5  20  
               0  1.875  20  
               0.375  1.875  20  
               0.75  1.875  20  
               1.125  1.875  20  
               1.5  1.875  20  
               1.875  1.875  20  
               2.25  1.875  20  
               2.625  1.875  20  
               3  1.875  20  
               0  2.25  20  
               0.375  2.25  20  
               0.75  2.25  20  
               1.125  2.25  20  
               1.5  2.25  20  
               1.875  2.25  20  
               2.25  2.25  20  
               2.625  2.25  20  
               3  2.25  20  
               0  2.625  20  
               0.375  2.625  20  
               0.75  2.625  20  
               1.125  2.625  20  
               1.5  2.625  20  
               1.875  2.625  20  
               2.25  2.625  20  
               2.625  2.625  20  
               3  2.625  20  
               0  3  20  
               0.375  3  20  
               0.75  3  20  
               1.125  3  20  
               1.5  3  20  
               1.875  3  20  
               2.25  3  20  
               2.625  3  20  
               3  3  20  
            </DataArray>
         </Points> 

         <Cells>
            <DataArray type="Int32" Name="connectivity" NumberOfComponents="1" format="ascii">
               
            </DataArray> 
            <DataArray type="Int32" Name="offsets" NumberOfComponents="1" format="ascii">
               
            </DataArray>
            <DataArray type="UInt8"  Name="types" NumberOfComponents="1" format="ascii">
               
            </DataArray>
         </Cells>
         <PointData Scalars="Rank " Vectors="Displacement Velocity Traction ">
            <DataArray type="UInt32" Name="Rank" NumberOfComponents="1" format="ascii">
               0 0 0 0 0 0 0 0 0 0 0 0 0 0 0 0 0 0 0 0 0 0 0 0 0 0 0 0 0 0 0 0 0 0 0 0 0 0 0 0 0 0 0 0 0 0 0 0 0 0 0 0 0 0 0 0 0 0 0 0 0 0 0 0 0 0 0 0 0 0 0 0 0 0 0 0 0 0 0 0 0 
            </DataArray>
            <DataArray type="Float64" Name="Displacement" NumberOfComponents="3" format="ascii">
               0.000107261 0.000107529 -0.000428423  5.74193e-05 0.000135219 -0.000450732  2.68515e-05 0.000165418 -0.000427596  1.34258e-06 0.000165315 -0.000418975  -1.15704e-05 0.000165599 -0.000418198  -3.76679e-05 0.000172713 -0.000408058  -6.57149e-05 0.000158492 -0.000424537  -4.15877e-05 0.000107608 -0.000447299  -5.79867e-05 0.000112767 -0.00038861  0.000134709 5.76321e-05 -0.000450456  7.25232e-05 7.29233e-05 -0.000456972  3.81969e-05 9.07804e-05 -0.000425353  1.29243e-05 9.37014e-05 -0.000417427  2.85024e-06 9.97045e-05 -0.000417131  -1.54887e-05 9.46159e-05 -0.000410091  -6.05568e-05 9.88592e-05 -0.000427643  -7.14656e-05 7.52325e-05 -0.000470694  -0.000100426 7.78646e-05 -0.000438431  0.000164904 2.71082e-05 -0.000427316  9.04187e-05 3.85157e-05 -0.00042536  4.97095e-05 5.00095e-05 -0.000374863  8.66886e-06 5.84887e-05 -0.000359808  4.77424e-08 6.0437e-05 -0.000360574  -1.14151e-05 5.98335e-05 -0.000358092  -6.43241e-05 6.55767e-05 -0.000375411  -9.55559e-05 5.7124e-05 -0.000428733  -0.000153739 6.65631e-05 -0.000421383  0.000164745 1.72169e-06 -0.000418697  9.33023e-05 1.32774e-05 -0.000417463  5.81993e-05 9.04115e-06 -0.000359837  1.82213e-05 1.85634e-05 -0.000338323  -1.41987e-07 1.65278e-05 -0.000338754  -1.70843e-05 2.09562e-05 -0.000339194  -5.61603e-05 1.80551e-05 -0.000359479  -8.98579e-05 1.99442e-05 -0.000412634  -0.000166024 2.68924e-05 -0.000408212  0.000165069 -1.12111e-05 -0.000417908  9.93056e-05 3.18807e-06 -0.000417158  6.01329e-05 3.98401e-07 -0.000360586  1.61747e-05 2.02502e-07 -0.000338732  3.17771e-06 3.52864e-06 -0.000340485  -1.00945e-05 3.94307e-06 -0.000338747  -5.35407e-05 7.03583e-06 -0.000359961  -8.89785e-05 4.4035e-06 -0.000416014  -0.00015193 2.01436e-05 -0.000414393  0.000172177 -3.73655e-05 -0.000407776  9.42074e-05 -1.51784e-05 -0.000410113  5.95213e-05 -1.11279e-05 -0.000358093  2.05975e-05 -1.68063e-05 -0.000339152  3.59176e-06 -9.80288e-06 -0.000338726  -1.4676e-05 -1.44001e-05 -0.000337542  -5.53676e-05 -3.01204e-06 -0.000358509  -8.90389e-05 -1.05272e-05 -0.000414935  -0.000161259 1.67459e-05 -0.000413267  0.000157957 -6.54223e-05 -0.000424272  9.84319e-05 -6.03068e-05 -0.000427677  6.52352e-05 -6.41033e-05 -0.000375446  1.76918e-05 -5.59953e-05 -0.000359489  6.67218e-06 -5.33647e-05 -0.00035998  -3.34408e-06 -5.52053e-05 -0.000358547  -4.60278e-05 -4.58164e-05 -0.000374642  -8.51802e-05 -3.81273e-05 -0.000425646  -0.000159215 -2.49395e-05 -0.000424291  0.000107077 -4.12538e-05 -0.000447092  7.48129e-05 -7.1216e-05 -0.000470749  5.67584e-05 -9.52819e-05 -0.000428774  1.95451e-05 -8.9646e-05 -0.00041268  4.028e-06 -8.87694e-05 -0.000416069  -1.08706e-05 -8.88301e-05 -0.000414999  -3.83744e-05 -8.49384e-05 -0.000425683  -6.91788e-05 -6.88782e-05 -0.00045835  -0.000129397 -5.84646e-05 -0.000448654  0.00011224 -5.75892e-05 -0.000388225  7.74042e-05 -0.000100132 -0.000438312  6.61735e-05 -0.00015341 -0.000421206  2.65214e-05 -0.000165715 -0.000408032  1.9746e-05 -0.000151629 -0.00041421  1.6325e-05 -0.000160934 -0.000413094  -2.51827e-05 -0.000158842 -0.00042408  -5.85583e-05 -0.000128963 -0.000448413  -0.000106956 -0.000106822 -0.000424234  
            </DataArray>
            <DataArray type="Float64" Name="Velocity" NumberOfComponents="3" format="ascii">
               0.000115616 0.000115335 -0.000481133  6.7622e-05 0.000143202 -0.00050897  3.40979e-05 0.000176019 -0.000486067  2.51715e-06 0.000175097 -0.000477846  -1.21987e-05 0.000175008 -0.000477181  -4.22649e-05 0.000183677 -0.000465586  -7.30879e-05 0.000168271 -0.000483271  -4.27319e-05 0.000112472 -0.000505258  -5.50891e-05 0.000117496 -0.000432256  0.000142637 6.73531e-05 -0.00050859  8.04954e-05 8.0802e-05 -0.000521359  4.50901e-05 9.9415e-05 -0.000489319  1.56325e-05 0.000102147 -0.000481597  3.62059e-06 0.000108569 -0.00048158  -1.77542e-05 0.000103056 -0.000473458  -6.92635e-05 0.00010863 -0.000492314  -7.84653e-05 8.31288e-05 -0.000536995  -0.000103602 8.43732e-05 -0.000494879  0.000175463 3.41405e-05 -0.000485432  9.90454e-05 4.51412e-05 -0.000489174  5.67534e-05 5.684e-05 -0.000438346  1.09058e-05 6.55071e-05 -0.000423231  7.13734e-07 6.75907e-05 -0.000424302  -1.26895e-05 6.68332e-05 -0.000421582  -7.26605e-05 7.42072e-05 -0.00043925  -0.000105301 6.5555e-05 -0.000493506  -0.000163123 7.45045e-05 -0.000479769  0.000174589 2.95612e-06 -0.000477415  0.000101879 1.58616e-05 -0.000481616  6.5485e-05 1.11231e-05 -0.000423402  2.11053e-05 2.12642e-05 -0.000401457  4.46687e-08 1.9269e-05 -0.000402079  -1.93506e-05 2.40119e-05 -0.000402856  -6.23012e-05 2.10023e-05 -0.00042328  -9.73254e-05 2.30725e-05 -0.0004765  -0.000175607 3.05128e-05 -0.000465673  0.000174579 -1.17411e-05 -0.000476745  0.000108338 3.99633e-06 -0.000481567  6.76035e-05 1.05048e-06 -0.000424431  1.91259e-05 3.24128e-07 -0.000402008  3.8947e-06 4.14194e-06 -0.000403739  -1.17804e-05 4.69128e-06 -0.000402089  -5.97807e-05 7.82558e-06 -0.000423503  -9.65855e-05 5.25045e-06 -0.000480335  -0.000159551 2.21804e-05 -0.000472777  0.000183301 -4.22108e-05 -0.000465049  0.000102797 -1.75583e-05 -0.000473356  6.6821e-05 -1.25849e-05 -0.000421676  2.38543e-05 -1.92948e-05 -0.000402751  4.38979e-06 -1.17925e-05 -0.000402029  -1.64503e-05 -1.63702e-05 -0.000400573  -6.14773e-05 -4.85483e-06 -0.000421619  -9.6532e-05 -1.24757e-05 -0.000478554  -0.000170103 1.78259e-05 -0.000471123  0.000167618 -7.30557e-05 -0.000482843  0.000108255 -6.93329e-05 -0.000492375  7.41366e-05 -7.28143e-05 -0.000439513  2.07887e-05 -6.2419e-05 -0.000423376  7.48162e-06 -5.99615e-05 -0.000423644  -4.99098e-06 -6.15603e-05 -0.000421804  -5.24478e-05 -5.2422e-05 -0.000438191  -9.26285e-05 -4.49228e-05 -0.000489566  -0.000168268 -3.18619e-05 -0.000481913  0.000111679 -4.21591e-05 -0.000504653  8.27059e-05 -7.82511e-05 -0.000536954  6.54145e-05 -0.000105253 -0.00049358  2.27218e-05 -9.72928e-05 -0.000476407  4.77649e-06 -9.65905e-05 -0.000480328  -1.27193e-05 -9.64544e-05 -0.000478596  -4.48694e-05 -9.22944e-05 -0.00048945  -7.63229e-05 -7.60888e-05 -0.000522815  -0.000136093 -6.85831e-05 -0.000506172  0.000116529 -5.4254e-05 -0.000430907  8.36703e-05 -0.000103017 -0.000494362  7.42976e-05 -0.000162841 -0.000479499  3.02909e-05 -0.000175501 -0.000465283  2.16549e-05 -0.000159407 -0.000472477  1.7358e-05 -0.000169901 -0.000470807  -3.1854e-05 -0.000167772 -0.000481281  -6.81055e-05 -0.000135459 -0.000505775  -0.000114203 -0.000114726 -0.000475763  
            </DataArray>
            <DataArray type="Float64" Name="Traction" NumberOfComponents="3" format="ascii">
               -0.000659599 -0.000660798 -0.0061308  -0.000563783 -0.00117774 -0.0061308  -0.000369308 -0.00156036 -0.0061308  -3.96284e-05 -0.00150664 -0.0061308  -0.000121259 -0.00150331 -0.0061308  0.000403466 -0.00154961 -0.0061308  0.00129784 -0.00136145 -0.0061308  0.000195957 -0.000516727 -0.0061308  -0.000438403 -0.000265951 -0.0061308  -0.00117393 -0.000561887 -0.0061308  -0.000856793 -0.000856723 -0.0061308  -0.00048535 -0.00119717 -0.0061308  -0.00015725 -0.00125486 -0.0061308  -0.000233144 -0.00130856 -0.0061308  0.000183197 -0.00120591 -0.0061308  0.00141595 -0.00124372 -0.0061308  0.000764079 -0.000811647 -0.0061308  0.000335752 -0.000554556 -0.0061308  -0.0015565 -0.000366785 -0.0061308  -0.00119774 -0.000482997 -0.0061308  -0.000726203 -0.000723606 -0.0061308  -0.000136154 -0.000906296 -0.0061308  -0.000126451 -0.000932788 -0.0061308  0.000165342 -0.000864347 -0.0061308  0.00149306 -0.000883619 -0.0061308  0.00121538 -0.000794946 -0.0061308  0.00126808 -0.000849258 -0.0061308  -0.00150137 -3.91219e-05 -0.0061308  -0.00125454 -0.000156255 -0.0061308  -0.000908719 -0.000135577 -0.0061308  -0.00026923 -0.000268669 -0.0061308  -8.73642e-05 -0.000232747 -0.0061308  0.000266906 -0.000272458 -0.0061308  0.00139423 -0.000214542 -0.0061308  0.00117806 -0.000213156 -0.0061308  0.00146653 -0.000245097 -0.0061308  -0.00149826 -0.000121003 -0.0061308  -0.00130811 -0.000232805 -0.0061308  -0.000934957 -0.000126759 -0.0061308  -0.000233055 -8.82519e-05 -0.0061308  -0.000152643 -0.00015368 -0.0061308  0.000193035 -0.000143931 -0.0061308  0.00140691 -0.000151858 -0.0061308  0.00121148 -8.24426e-05 -0.0061308  0.00135194 -0.00024571 -0.0061308  -0.00154498 0.000403877 -0.0061308  -0.00120571 0.000183393 -0.0061308  -0.000866849 0.000165438 -0.0061308  -0.000273038 0.000266697 -0.0061308  -0.000143197 0.000192482 -0.0061308  0.000248885 0.000248788 -0.0061308  0.00143433 0.000101593 -0.0061308  0.00121284 0.00016533 -0.0061308  0.00145266 -0.000126509 -0.0061308  -0.00135749 0.00129958 -0.0061308  -0.00124376 0.00141736 -0.0061308  -0.000886019 0.00149417 -0.0061308  -0.000215625 0.00139603 -0.0061308  -0.000151665 0.00140851 -0.0061308  0.000101612 0.00143624 -0.0061308  0.00125177 0.00125407 -0.0061308  0.00114822 0.000934877 -0.0061308  0.00146528 0.000742099 -0.0061308  -0.000513413 0.000194691 -0.0061308  -0.000812235 0.000763194 -0.0061308  -0.000796979 0.00121308 -0.0061308  -0.00021422 0.00117612 -0.0061308  -8.29796e-05 0.0012094 -0.0061308  0.000164661 0.00121101 -0.0061308  0.000932054 0.00114677 -0.0061308  0.000830483 0.000829459 -0.0061308  0.00108368 0.000598504 -0.0061308  -0.000262274 -0.000442924 -0.0061308  -0.000554683 0.00033231 -0.0061308  -0.000850946 0.00126273 -0.0061308  -0.000246652 0.00146068 -0.0061308  -0.000246272 0.00134594 -0.0061308  -0.000126939 0.00144667 -0.0061308  0.000738595 0.00145927 -0.0061308  0.000596428 0.00107815 -0.0061308  0.000644023 0.000642662 -0.0061308  
            </DataArray>
         </PointData> 
      </Piece>
   </UnstructuredGrid> 
</VTKFile>
