<?xml version="1.0"?>
<VTKFile type="UnstructuredGrid" version="0.1" byte_order="LittleEndian">
   <UnstructuredGrid>
      <Piece NumberOfPoints="81" NumberOfCells="0" > 
         <Points> 
            <DataArray type="Float64" Name="Position" NumberOfComponents="3" format="ascii"> 
               0  0  20  
               0.375  0  20  
               0.75  0  20  
               1.125  0  20  
               1.5  0  20  
               1.875  0  20  
               2.25  0  20  
               2.625  0  20  
               3  0  20  
               0  0.375  20  
               0.375  0.375  20  
               0.75  0.375  20  
               1.125  0.375  20  
               1.5  0.375  20  
               1.875  0.375  20  
               2.25  0.375  20  
               2.625  0.375  20  
               3  0.375  20  
               0  0.75  20  
               0.375  0.75  20  
               0.75  0.75  20  
               1.125  0.75  20  
               1.5  0.75  20  
               1.875  0.75  20  
               2.25  0.75  20  
               2.625  0.75  20  
               3  0.75  20  
               0  1.125  20  
               0.375  1.125  20  
               0.75  1.125  20  
               1.125  1.125  20  
               1.5  1.125  20  
               1.875  1.125  20  
               2.25  1.125  20  
               2.625  1.125  20  
               3  1.125  20  
               0  1.5  20  
               0.375  1.5  20  
               0.75  1.5  20  
               1.125  1.5  20  
               1.5  1.5  20  
               1.875  1.5  20  
               2.25  1.5  20  
               2.625  1.5  20  
               3  1.5  20  
               0  1.875  20  
               0.375  1.875  20  
               0.75  1.875  20  
               1.125  1.875  20  
               1.5  1.875  20  
               1.875  1.875  20  
               2.25  1.875  20  
               2.625  1.875  20  
               3  1.875  20  
               0  2.25  20  
               0.375  2.25  20  
               0.75  2.25  20  
               1.125  2.25  20  
               1.5  2.25  20  
               1.875  2.25  20  
               2.25  2.25  20  
               2.625  2.25  20  
               3  2.25  20  
               0  2.625  20  
               0.375  2.625  20  
               0.75  2.625  20  
               1.125  2.625  20  
               1.5  2.625  20  
               1.875  2.625  20  
               2.25  2.625  20  
               2.625  2.625  20  
               3  2.625  20  
               0  3  20  
               0.375  3  20  
               0.75  3  20  
               1.125  3  20  
               1.5  3  20  
               1.875  3  20  
               2.25  3  20  
               2.625  3  20  
               3  3  20  
            </DataArray>
         </Points> 

         <Cells>
            <DataArray type="Int32" Name="connectivity" NumberOfComponents="1" format="ascii">
               
            </DataArray> 
            <DataArray type="Int32" Name="offsets" NumberOfComponents="1" format="ascii">
               
            </DataArray>
            <DataArray type="UInt8"  Name="types" NumberOfComponents="1" format="ascii">
               
            </DataArray>
         </Cells>
         <PointData Scalars="Rank " Vectors="Displacement Velocity Traction ">
            <DataArray type="UInt32" Name="Rank" NumberOfComponents="1" format="ascii">
               0 0 0 0 0 0 0 0 0 0 0 0 0 0 0 0 0 0 0 0 0 0 0 0 0 0 0 0 0 0 0 0 0 0 0 0 0 0 0 0 0 0 0 0 0 0 0 0 0 0 0 0 0 0 0 0 0 0 0 0 0 0 0 0 0 0 0 0 0 0 0 0 0 0 0 0 0 0 0 0 0 
            </DataArray>
            <DataArray type="Float64" Name="Displacement" NumberOfComponents="3" format="ascii">
               0 0 0  0 0 0  0 0 0  0 0 0  0 0 0  0 0 0  0 0 0  0 0 0  0 0 0  0 0 0  0 0 0  0 0 0  0 0 0  0 0 0  0 0 0  0 0 0  0 0 0  0 0 0  0 0 0  0 0 0  0 0 0  0 0 0  0 0 0  0 0 0  0 0 0  0 0 0  0 0 0  0 0 0  0 0 0  0 0 0  0 0 0  0 0 0  0 0 0  0 0 0  0 0 0  0 0 0  0 0 0  0 0 0  0 0 0  0 0 0  0 0 0  0 0 0  0 0 0  0 0 0  0 0 0  0 0 0  0 0 0  0 0 0  0 0 0  0 0 0  0 0 0  0 0 0  0 0 0  0 0 0  0 0 0  0 0 0  0 0 0  0 0 0  0 0 0  0 0 0  0 0 0  0 0 0  0 0 0  0 0 0  0 0 0  0 0 0  0 0 0  0 0 0  0 0 0  0 0 0  0 0 0  0 0 0  0 0 0  0 0 0  0 0 0  0 0 0  0 0 0  0 0 0  0 0 0  0 0 0  0 0 0  
            </DataArray>
            <DataArray type="Float64" Name="Velocity" NumberOfComponents="3" format="ascii">
               0 0 0  0 0 0  0 0 0  0 0 0  0 0 0  0 0 0  0 0 0  0 0 0  0 0 0  0 0 0  0 0 0  0 0 0  0 0 0  0 0 0  0 0 0  0 0 0  0 0 0  0 0 0  0 0 0  0 0 0  0 0 0  0 0 0  0 0 0  0 0 0  0 0 0  0 0 0  0 0 0  0 0 0  0 0 0  0 0 0  0 0 0  0 0 0  0 0 0  0 0 0  0 0 0  0 0 0  0 0 0  0 0 0  0 0 0  0 0 0  0 0 0  0 0 0  0 0 0  0 0 0  0 0 0  0 0 0  0 0 0  0 0 0  0 0 0  0 0 0  0 0 0  0 0 0  0 0 0  0 0 0  0 0 0  0 0 0  0 0 0  0 0 0  0 0 0  0 0 0  0 0 0  0 0 0  0 0 0  0 0 0  0 0 0  0 0 0  0 0 0  0 0 0  0 0 0  0 0 0  0 0 0  0 0 0  0 0 0  0 0 0  0 0 0  0 0 0  0 0 0  0 0 0  0 0 0  0 0 0  0 0 0  
            </DataArray>
            <DataArray type="Float64" Name="Traction" NumberOfComponents="3" format="ascii">
               -0.00267138 -0.00266897 -0.0270184  -0.0022831 -0.00477949 -0.0270184  -0.00146665 -0.00644206 -0.0270184  -0.000116897 -0.00625874 -0.0270184  -0.000522665 -0.0061979 -0.0270184  0.00159379 -0.00647035 -0.0270184  0.00521597 -0.00568132 -0.0270184  0.000622786 -0.00207356 -0.0270184  -0.00198614 -0.000915227 -0.0270184  -0.00478936 -0.00228951 -0.0270184  -0.0034827 -0.00348319 -0.0270184  -0.00198434 -0.00485055 -0.0270184  -0.000613933 -0.0050901 -0.0270184  -0.000988082 -0.00527379 -0.0270184  0.000718161 -0.00488262 -0.0270184  0.00581442 -0.00508554 -0.0270184  0.00306511 -0.00326807 -0.0270184  0.00132089 -0.00210874 -0.0270184  -0.00645279 -0.00147574 -0.0270184  -0.00485055 -0.00199149 -0.0270184  -0.00292171 -0.00292833 -0.0270184  -0.00051093 -0.00362544 -0.0270184  -0.000545746 -0.00371459 -0.0270184  0.000608927 -0.0034297 -0.0270184  0.00610158 -0.00356231 -0.0270184  0.00497464 -0.00324674 -0.0270184  0.00531332 -0.00340033 -0.0270184  -0.00627099 -0.000122321 -0.0270184  -0.00509133 -0.00061913 -0.0270184  -0.00361882 -0.000514495 -0.0270184  -0.00103727 -0.00104094 -0.0270184  -0.000369948 -0.000899781 -0.0270184  0.00103289 -0.00105953 -0.0270184  0.00561378 -0.000821875 -0.0270184  0.00476171 -0.000845793 -0.0270184  0.00612347 -0.000933303 -0.0270184  -0.00620943 -0.000527614 -0.0270184  -0.00527493 -0.000992051 -0.0270184  -0.00370806 -0.000547595 -0.0270184  -0.000896241 -0.000370508 -0.0270184  -0.000637089 -0.00063759 -0.0270184  0.00073283 -0.000611893 -0.0270184  0.00567384 -0.000657315 -0.0270184  0.00487233 -0.000392249 -0.0270184  0.00557877 -0.00101985 -0.0270184  -0.00648144 0.001586 -0.0270184  -0.00488333 0.000712234 -0.0270184  -0.00342233 0.000602827 -0.0270184  -0.00105569 0.00102714 -0.0270184  -0.00061082 0.000728228 -0.0270184  0.000951538 0.000945731 -0.0270184  0.0058023 0.000380474 -0.0270184  0.00490988 0.000641409 -0.0270184  0.00604308 -0.000580719 -0.0270184  -0.00569133 0.00520101 -0.0270184  -0.00508779 0.00579975 -0.0270184  -0.0035573 0.00608651 -0.0270184  -0.000816787 0.00559692 -0.0270184  -0.00065533 0.00565771 -0.0270184  0.000385976 0.00578522 -0.0270184  0.00512228 0.00510466 -0.0270184  0.00462859 0.00387523 -0.0270184  0.00602623 0.00303452 -0.0270184  -0.0020759 0.000623412 -0.0270184  -0.00326503 0.00306043 -0.0270184  -0.00324187 0.00497159 -0.0270184  -0.000840605 0.00475805 -0.0270184  -0.000389 0.00486954 -0.0270184  0.000648179 0.00490656 -0.0270184  0.00389272 0.00462367 -0.0270184  0.00336683 0.00336291 -0.0270184  0.00437484 0.00241524 -0.0270184  -0.000913788 -0.00197213 -0.0270184  -0.00210244 0.0013278 -0.0270184  -0.00339446 0.00532377 -0.0270184  -0.000925935 0.00613571 -0.0270184  -0.00101727 0.00559153 -0.0270184  -0.000578255 0.00605691 -0.0270184  0.00305185 0.00603874 -0.0270184  0.00242697 0.0043866 -0.0270184  0.00259426 0.00259511 -0.0270184  
            </DataArray>
         </PointData> 
      </Piece>
   </UnstructuredGrid> 
</VTKFile>
