<?xml version="1.0"?>
<VTKFile type="UnstructuredGrid" version="0.1" byte_order="LittleEndian">
   <UnstructuredGrid>
      <Piece NumberOfPoints="81" NumberOfCells="0" > 
         <Points> 
            <DataArray type="Float64" Name="Position" NumberOfComponents="3" format="ascii"> 
               0  0  20  
               0.375  0  20  
               0.75  0  20  
               1.125  0  20  
               1.5  0  20  
               1.875  0  20  
               2.25  0  20  
               2.625  0  20  
               3  0  20  
               0  0.375  20  
               0.375  0.375  20  
               0.75  0.375  20  
               1.125  0.375  20  
               1.5  0.375  20  
               1.875  0.375  20  
               2.25  0.375  20  
               2.625  0.375  20  
               3  0.375  20  
               0  0.75  20  
               0.375  0.75  20  
               0.75  0.75  20  
               1.125  0.75  20  
               1.5  0.75  20  
               1.875  0.75  20  
               2.25  0.75  20  
               2.625  0.75  20  
               3  0.75  20  
               0  1.125  20  
               0.375  1.125  20  
               0.75  1.125  20  
               1.125  1.125  20  
               1.5  1.125  20  
               1.875  1.125  20  
               2.25  1.125  20  
               2.625  1.125  20  
               3  1.125  20  
               0  1.5  20  
               0.375  1.5  20  
               0.75  1.5  20  
               1.125  1.5  20  
               1.5  1.5  20  
               1.875  1.5  20  
               2.25  1.5  20  
               2.625  1.5  20  
               3  1.5  20  
               0  1.875  20  
               0.375  1.875  20  
               0.75  1.875  20  
               1.125  1.875  20  
               1.5  1.875  20  
               1.875  1.875  20  
               2.25  1.875  20  
               2.625  1.875  20  
               3  1.875  20  
               0  2.25  20  
               0.375  2.25  20  
               0.75  2.25  20  
               1.125  2.25  20  
               1.5  2.25  20  
               1.875  2.25  20  
               2.25  2.25  20  
               2.625  2.25  20  
               3  2.25  20  
               0  2.625  20  
               0.375  2.625  20  
               0.75  2.625  20  
               1.125  2.625  20  
               1.5  2.625  20  
               1.875  2.625  20  
               2.25  2.625  20  
               2.625  2.625  20  
               3  2.625  20  
               0  3  20  
               0.375  3  20  
               0.75  3  20  
               1.125  3  20  
               1.5  3  20  
               1.875  3  20  
               2.25  3  20  
               2.625  3  20  
               3  3  20  
            </DataArray>
         </Points> 

         <Cells>
            <DataArray type="Int32" Name="connectivity" NumberOfComponents="1" format="ascii">
               
            </DataArray> 
            <DataArray type="Int32" Name="offsets" NumberOfComponents="1" format="ascii">
               
            </DataArray>
            <DataArray type="UInt8"  Name="types" NumberOfComponents="1" format="ascii">
               
            </DataArray>
         </Cells>
         <PointData Scalars="Rank " Vectors="Displacement Velocity Traction ">
            <DataArray type="UInt32" Name="Rank" NumberOfComponents="1" format="ascii">
               0 0 0 0 0 0 0 0 0 0 0 0 0 0 0 0 0 0 0 0 0 0 0 0 0 0 0 0 0 0 0 0 0 0 0 0 0 0 0 0 0 0 0 0 0 0 0 0 0 0 0 0 0 0 0 0 0 0 0 0 0 0 0 0 0 0 0 0 0 0 0 0 0 0 0 0 0 0 0 0 0 
            </DataArray>
            <DataArray type="Float64" Name="Displacement" NumberOfComponents="3" format="ascii">
               0 0 0  0 0 0  0 0 0  0 0 0  0 0 0  0 0 0  0 0 0  0 0 0  0 0 0  0 0 0  0 0 0  0 0 0  0 0 0  0 0 0  0 0 0  0 0 0  0 0 0  0 0 0  0 0 0  0 0 0  0 0 0  0 0 0  0 0 0  0 0 0  0 0 0  0 0 0  0 0 0  0 0 0  0 0 0  0 0 0  0 0 0  0 0 0  0 0 0  0 0 0  0 0 0  0 0 0  0 0 0  0 0 0  0 0 0  0 0 0  0 0 0  0 0 0  0 0 0  0 0 0  0 0 0  0 0 0  0 0 0  0 0 0  0 0 0  0 0 0  0 0 0  0 0 0  0 0 0  0 0 0  0 0 0  0 0 0  0 0 0  0 0 0  0 0 0  0 0 0  0 0 0  0 0 0  0 0 0  0 0 0  0 0 0  0 0 0  0 0 0  0 0 0  0 0 0  0 0 0  0 0 0  0 0 0  0 0 0  0 0 0  0 0 0  0 0 0  0 0 0  0 0 0  0 0 0  0 0 0  0 0 0  
            </DataArray>
            <DataArray type="Float64" Name="Velocity" NumberOfComponents="3" format="ascii">
               0 0 0  0 0 0  0 0 0  0 0 0  0 0 0  0 0 0  0 0 0  0 0 0  0 0 0  0 0 0  0 0 0  0 0 0  0 0 0  0 0 0  0 0 0  0 0 0  0 0 0  0 0 0  0 0 0  0 0 0  0 0 0  0 0 0  0 0 0  0 0 0  0 0 0  0 0 0  0 0 0  0 0 0  0 0 0  0 0 0  0 0 0  0 0 0  0 0 0  0 0 0  0 0 0  0 0 0  0 0 0  0 0 0  0 0 0  0 0 0  0 0 0  0 0 0  0 0 0  0 0 0  0 0 0  0 0 0  0 0 0  0 0 0  0 0 0  0 0 0  0 0 0  0 0 0  0 0 0  0 0 0  0 0 0  0 0 0  0 0 0  0 0 0  0 0 0  0 0 0  0 0 0  0 0 0  0 0 0  0 0 0  0 0 0  0 0 0  0 0 0  0 0 0  0 0 0  0 0 0  0 0 0  0 0 0  0 0 0  0 0 0  0 0 0  0 0 0  0 0 0  0 0 0  0 0 0  0 0 0  0 0 0  
            </DataArray>
            <DataArray type="Float64" Name="Traction" NumberOfComponents="3" format="ascii">
               -0.0781095 -0.0782697 -2.64805  -0.0209586 -0.138601 -2.64805  -0.0055869 -0.187369 -2.64805  0.00436884 -0.18782 -2.64805  -0.00195182 -0.181496 -2.64805  0.00604473 -0.192492 -2.64805  0.0457731 -0.186261 -2.64805  0.026278 -0.122061 -2.64805  0.0654137 -0.0864866 -2.64805  -0.13851 -0.0209884 -2.64805  -0.062252 -0.062247 -2.64805  -0.0210025 -0.0922196 -2.64805  0.000547937 -0.0962081 -2.64805  -0.0102236 -0.0955477 -2.64805  -0.000163349 -0.0953845 -2.64805  0.0676806 -0.0969139 -2.64805  0.059059 -0.0599442 -2.64805  0.118024 -0.0378424 -2.64805  -0.187316 -0.00558824 -2.64805  -0.092247 -0.0209745 -2.64805  -0.0333801 -0.0333406 -2.64805  0.00369354 -0.0390961 -2.64805  -0.00822139 -0.0390961 -2.64805  -0.00259177 -0.0383074 -2.64805  0.0937262 -0.0401325 -2.64805  0.0945541 -0.0313429 -2.64805  0.182394 -0.0272636 -2.64805  -0.187745 0.00436889 -2.64805  -0.0962259 0.000569128 -2.64805  -0.0391366 0.0037115 -2.64805  -0.0015667 -0.00154469 -2.64805  -0.00805611 -0.000412273 -2.64805  0.00117005 -0.00167509 -2.64805  0.0912553 0.00168538 -2.64805  0.0946341 -0.000923245 -2.64805  0.190415 -0.000261754 -2.64805  -0.18142 -0.00194445 -2.64805  -0.0955579 -0.0102022 -2.64805  -0.0391294 -0.00820617 -2.64805  -0.000430451 -0.00804432 -2.64805  -0.00892475 -0.00891306 -2.64805  -0.0014986 -0.0087109 -2.64805  0.0894026 -0.0105202 -2.64805  0.0915751 -0.0059213 -2.64805  0.17649 -0.0118534 -2.64805  -0.192426 0.00605382 -2.64805  -0.095407 -0.00014783 -2.64805  -0.0383494 -0.00257535 -2.64805  -0.00169729 0.00118396 -2.64805  -0.00872387 -0.00148414 -2.64805  0.00101911 0.0010345 -2.64805  0.0942951 -0.00594483 -2.64805  0.0949594 -8.50219e-06 -2.64805  0.186098 -0.0119917 -2.64805  -0.186206 0.0458025 -2.64805  -0.0969403 0.0676859 -2.64805  -0.0401743 0.0937267 -2.64805  0.00166056 0.0912762 -2.64805  -0.0105384 0.0894228 -2.64805  -0.00596294 0.0943111 -2.64805  0.0869855 0.0870072 -2.64805  0.0905743 0.0591233 -2.64805  0.184719 0.0275052 -2.64805  -0.121984 0.0263589 -2.64805  -0.0599602 0.0590871 -2.64805  -0.0313707 0.0945425 -2.64805  -0.000948101 0.0946375 -2.64805  -0.00594408 0.0915855 -2.64805  -2.71062e-05 0.0949625 -2.64805  0.0590916 0.0905763 -2.64805  0.0613127 0.0613322 -2.64805  0.136229 0.0224181 -2.64805  -0.0863407 0.0656239 -2.64805  -0.0378228 0.118145 -2.64805  -0.0272657 0.18243 -2.64805  -0.00028127 0.190449 -2.64805  -0.0118757 0.17654 -2.64805  -0.012017 0.18614 -2.64805  0.0274486 0.184745 -2.64805  0.0223454 0.136295 -2.64805  0.077912 0.0780748 -2.64805  
            </DataArray>
         </PointData> 
      </Piece>
   </UnstructuredGrid> 
</VTKFile>
