<?xml version="1.0"?>
<VTKFile type="UnstructuredGrid" version="0.1" byte_order="LittleEndian">
   <UnstructuredGrid>
      <Piece NumberOfPoints="81" NumberOfCells="0" > 
         <Points> 
            <DataArray type="Float64" Name="Position" NumberOfComponents="3" format="ascii"> 
               0  0  20  
               0.375  0  20  
               0.75  0  20  
               1.125  0  20  
               1.5  0  20  
               1.875  0  20  
               2.25  0  20  
               2.625  0  20  
               3  0  20  
               0  0.375  20  
               0.375  0.375  20  
               0.75  0.375  20  
               1.125  0.375  20  
               1.5  0.375  20  
               1.875  0.375  20  
               2.25  0.375  20  
               2.625  0.375  20  
               3  0.375  20  
               0  0.75  20  
               0.375  0.75  20  
               0.75  0.75  20  
               1.125  0.75  20  
               1.5  0.75  20  
               1.875  0.75  20  
               2.25  0.75  20  
               2.625  0.75  20  
               3  0.75  20  
               0  1.125  20  
               0.375  1.125  20  
               0.75  1.125  20  
               1.125  1.125  20  
               1.5  1.125  20  
               1.875  1.125  20  
               2.25  1.125  20  
               2.625  1.125  20  
               3  1.125  20  
               0  1.5  20  
               0.375  1.5  20  
               0.75  1.5  20  
               1.125  1.5  20  
               1.5  1.5  20  
               1.875  1.5  20  
               2.25  1.5  20  
               2.625  1.5  20  
               3  1.5  20  
               0  1.875  20  
               0.375  1.875  20  
               0.75  1.875  20  
               1.125  1.875  20  
               1.5  1.875  20  
               1.875  1.875  20  
               2.25  1.875  20  
               2.625  1.875  20  
               3  1.875  20  
               0  2.25  20  
               0.375  2.25  20  
               0.75  2.25  20  
               1.125  2.25  20  
               1.5  2.25  20  
               1.875  2.25  20  
               2.25  2.25  20  
               2.625  2.25  20  
               3  2.25  20  
               0  2.625  20  
               0.375  2.625  20  
               0.75  2.625  20  
               1.125  2.625  20  
               1.5  2.625  20  
               1.875  2.625  20  
               2.25  2.625  20  
               2.625  2.625  20  
               3  2.625  20  
               0  3  20  
               0.375  3  20  
               0.75  3  20  
               1.125  3  20  
               1.5  3  20  
               1.875  3  20  
               2.25  3  20  
               2.625  3  20  
               3  3  20  
            </DataArray>
         </Points> 

         <Cells>
            <DataArray type="Int32" Name="connectivity" NumberOfComponents="1" format="ascii">
               
            </DataArray> 
            <DataArray type="Int32" Name="offsets" NumberOfComponents="1" format="ascii">
               
            </DataArray>
            <DataArray type="UInt8"  Name="types" NumberOfComponents="1" format="ascii">
               
            </DataArray>
         </Cells>
         <PointData Scalars="Rank " Vectors="Displacement Velocity Traction ">
            <DataArray type="UInt32" Name="Rank" NumberOfComponents="1" format="ascii">
               0 0 0 0 0 0 0 0 0 0 0 0 0 0 0 0 0 0 0 0 0 0 0 0 0 0 0 0 0 0 0 0 0 0 0 0 0 0 0 0 0 0 0 0 0 0 0 0 0 0 0 0 0 0 0 0 0 0 0 0 0 0 0 0 0 0 0 0 0 0 0 0 0 0 0 0 0 0 0 0 0 
            </DataArray>
            <DataArray type="Float64" Name="Displacement" NumberOfComponents="3" format="ascii">
               1.03451e-07 1.03609e-07 -3.3407e-07  1.45284e-09 1.56353e-07 -3.20442e-07  -1.31339e-08 1.88671e-07 -2.86856e-07  -6.87091e-09 1.98222e-07 -2.7996e-07  -1.07387e-08 1.88385e-07 -2.83744e-07  -9.01224e-09 2.004e-07 -2.78216e-07  -3.49478e-08 1.92071e-07 -2.82912e-07  -4.17758e-08 1.30576e-07 -3.12051e-07  -1.06287e-07 1.30144e-07 -3.31047e-07  1.56227e-07 1.68364e-09 -3.20435e-07  4.70518e-08 4.72949e-08 -2.69382e-07  1.14788e-08 6.05893e-08 -2.16005e-07  1.17083e-09 6.83602e-08 -2.06288e-07  -8.07849e-10 6.66581e-08 -2.10789e-07  -1.58979e-09 6.83333e-08 -2.05227e-07  -2.14657e-08 7.49967e-08 -2.14692e-07  -4.42017e-08 4.42998e-08 -2.72507e-07  -1.30664e-07 5.6226e-08 -3.10918e-07  1.8841e-07 -1.29376e-08 -2.86849e-07  6.02925e-08 1.16911e-08 -2.16024e-07  2.11531e-08 2.14007e-08 -1.3365e-07  -2.68381e-09 2.98654e-08 -1.18174e-07  -3.69994e-09 2.69248e-08 -1.22911e-07  -7.81187e-10 2.89441e-08 -1.18057e-07  -3.02945e-08 3.48049e-08 -1.31144e-07  -6.75059e-08 2.08961e-08 -2.15683e-07  -1.85354e-07 3.30079e-08 -2.81694e-07  1.97887e-07 -6.59547e-09 -2.79941e-07  6.80473e-08 1.4198e-09 -2.06308e-07  2.96169e-08 -2.39347e-09 -1.18174e-07  4.00866e-09 4.26141e-09 -9.98024e-08  4.28407e-11 3.3006e-10 -1.03799e-07  -3.72808e-09 4.46296e-09 -9.97544e-08  -2.82956e-08 8.12099e-10 -1.17599e-07  -6.64889e-08 2.65367e-09 -2.0538e-07  -1.9808e-07 -8.13549e-10 -2.78051e-07  1.88153e-07 -1.04887e-08 -2.83713e-07  6.6343e-08 -5.60057e-10 -2.10781e-07  2.66709e-08 -3.4518e-09 -1.22896e-07  1.03674e-10 2.57115e-10 -1.03798e-07  1.66613e-09 1.85176e-09 -1.08124e-07  3.33977e-09 7.76522e-10 -1.03539e-07  -2.21429e-08 5.03093e-09 -1.22963e-07  -5.92209e-08 1.49771e-09 -2.0994e-07  -1.79371e-07 1.51651e-08 -2.8255e-07  2.00208e-07 -8.724e-09 -2.78261e-07  6.80737e-08 -1.35857e-09 -2.05258e-07  2.87403e-08 -6.24788e-10 -1.18059e-07  4.24905e-09 -3.57521e-09 -9.9755e-08  6.16852e-10 3.49016e-09 -1.03536e-07  -3.63294e-09 -3.50427e-09 -9.91747e-08  -2.94127e-08 8.2916e-09 -1.17901e-07  -6.6502e-08 -2.25362e-09 -2.05905e-07  -1.96608e-07 2.02949e-08 -2.78615e-07  1.91924e-07 -3.46658e-08 -2.82997e-07  7.4775e-08 -2.11946e-08 -2.14715e-07  3.45818e-08 -3.01148e-08 -1.31168e-07  6.20253e-10 -2.82161e-08 -1.17615e-07  4.85197e-09 -2.20279e-08 -1.22956e-07  8.12493e-09 -2.93526e-08 -1.17897e-07  -1.68888e-08 -1.67949e-08 -1.32888e-07  -5.81131e-08 -1.20482e-08 -2.16579e-07  -1.87293e-07 1.40305e-08 -2.86508e-07  1.30566e-07 -4.1755e-08 -3.12166e-07  4.41448e-08 -4.41042e-08 -2.72486e-07  2.0618e-08 -6.73606e-08 -2.15693e-07  2.41108e-09 -6.6409e-08 -2.05402e-07  1.30121e-09 -5.91009e-08 -2.09933e-07  -2.42894e-09 -6.64403e-08 -2.05905e-07  -1.2178e-08 -5.80424e-08 -2.16587e-07  -4.60408e-08 -4.59307e-08 -2.70085e-07  -1.55095e-07 -3.70502e-09 -3.20347e-07  1.30159e-07 -1.06414e-07 -3.31369e-07  5.60956e-08 -1.30753e-07 -3.11046e-07  3.27375e-08 -1.85306e-07 -2.81774e-07  -1.03673e-09 -1.9807e-07 -2.78099e-07  1.50287e-08 -1.79313e-07 -2.82525e-07  2.01841e-08 -1.96504e-07 -2.78598e-07  1.3941e-08 -1.87219e-07 -2.8651e-07  -3.79692e-09 -1.5498e-07 -3.20334e-07  -1.0495e-07 -1.04844e-07 -3.33454e-07  
            </DataArray>
            <DataArray type="Float64" Name="Velocity" NumberOfComponents="3" format="ascii">
               7.84013e-08 7.95727e-08 -2.92972e-07  4.4857e-09 8.96952e-08 -3.15226e-07  -7.78308e-08 4.80965e-08 -2.71709e-07  -7.70005e-09 8.39523e-08 -2.39853e-07  -2.46077e-08 8.8209e-08 -2.35905e-07  -3.9007e-08 9.38856e-08 -2.32969e-07  -5.7447e-08 5.51159e-08 -2.54851e-07  -1.04668e-07 1.91397e-08 -2.92117e-07  -5.97822e-08 1.40356e-07 -2.80401e-07  8.88199e-08 5.55874e-09 -3.14922e-07  9.06206e-08 9.17128e-08 -3.30491e-07  -4.43176e-08 1.01911e-07 -3.33949e-07  1.67309e-08 1.14633e-07 -2.95217e-07  -2.38057e-09 1.16437e-07 -2.89375e-07  -2.27673e-08 1.17771e-07 -2.90479e-07  7.62664e-09 1.34712e-07 -3.30361e-07  -8.91844e-08 9.16364e-08 -3.45359e-07  -1.84474e-08 1.51322e-07 -2.85538e-07  4.68425e-08 -7.68594e-08 -2.7142e-07  1.00633e-07 -4.30005e-08 -3.34046e-07  -4.47227e-08 -4.33979e-08 -3.49503e-07  1.93437e-08 -2.21925e-08 -2.90514e-07  -5.65012e-09 -2.11867e-08 -2.80916e-07  -2.46161e-08 -2.20414e-08 -2.89399e-07  2.14932e-08 -8.52372e-09 -3.41984e-07  -1.14984e-07 -1.03885e-08 -3.32682e-07  -3.65203e-08 5.41114e-08 -2.50657e-07  8.23199e-08 -6.48287e-09 -2.39434e-07  1.13179e-07 1.80501e-08 -2.9534e-07  -2.34779e-08 2.07772e-08 -2.90457e-07  3.08844e-08 3.2291e-08 -2.2679e-07  -4.23768e-10 2.584e-08 -2.18513e-07  -2.99367e-08 3.37849e-08 -2.27032e-07  2.5282e-08 3.22064e-08 -2.88512e-07  -1.10351e-07 2.62141e-08 -2.9174e-07  -8.40992e-08 2.03418e-08 -2.31582e-07  8.68645e-08 -2.32218e-08 -2.35488e-07  1.14893e-07 -1.00997e-09 -2.89424e-07  -2.25228e-08 -4.32313e-09 -2.80815e-07  2.44757e-08 6.61e-10 -2.18495e-07  6.31118e-09 7.41075e-09 -2.13693e-07  -1.07241e-08 3.8449e-09 -2.18047e-07  3.59659e-08 1.35104e-08 -2.80592e-07  -9.46159e-08 5.9379e-09 -2.88088e-07  -5.99019e-08 3.84769e-08 -2.3038e-07  9.28762e-08 -3.75773e-08 -2.32832e-07  1.16327e-07 -2.14158e-08 -2.90616e-07  -2.32445e-08 -2.34475e-08 -2.89348e-07  3.25204e-08 -2.87858e-08 -2.27017e-07  2.79389e-09 -9.71264e-09 -2.18051e-07  -2.77519e-08 -2.68499e-08 -2.25388e-07  2.45816e-08 -2.64125e-09 -2.90245e-07  -1.07929e-07 -1.63343e-08 -2.94288e-07  -7.79264e-08 4.25691e-08 -2.3408e-07  5.38371e-08 -5.60984e-08 -2.54695e-07  1.33208e-07 9.18403e-09 -3.30411e-07  -9.99348e-09 2.26363e-08 -3.41909e-07  3.09046e-08 2.59294e-08 -2.88538e-07  1.23366e-08 3.67146e-08 -2.80579e-07  -3.62674e-09 2.52286e-08 -2.90216e-07  5.52245e-08 5.59932e-08 -3.48028e-07  -9.52036e-08 4.31678e-08 -3.35761e-07  -4.41256e-08 8.00276e-08 -2.69793e-07  1.79336e-08 -1.0374e-07 -2.92105e-07  9.01805e-08 -8.80239e-08 -3.4542e-07  -1.21222e-08 -1.13919e-07 -3.32651e-07  2.48746e-08 -1.09632e-07 -2.91789e-07  4.72613e-09 -9.38912e-08 -2.88077e-07  -1.72679e-08 -1.074e-07 -2.94303e-07  4.23121e-08 -9.46507e-08 -3.35845e-07  -8.7614e-08 -8.69773e-08 -3.32995e-07  -8.44131e-08 -1.06152e-08 -3.14759e-07  1.39251e-07 -5.93589e-08 -2.80705e-07  1.50103e-07 -1.77555e-08 -2.8564e-07  5.27986e-08 -3.58462e-08 -2.50631e-07  1.91751e-08 -8.38942e-08 -2.31736e-07  3.73964e-08 -5.9444e-08 -2.30286e-07  4.1768e-08 -7.72445e-08 -2.33948e-07  7.93141e-08 -4.35606e-08 -2.697e-07  -1.1177e-08 -8.38632e-08 -3.14514e-07  -8.27457e-08 -8.23305e-08 -2.92241e-07  
            </DataArray>
            <DataArray type="Float64" Name="Traction" NumberOfComponents="3" format="ascii">
               -1.19276e-06 -1.19095e-06 6.36031e-05  -2.30739e-07 -2.24583e-06 6.36031e-05  3.20392e-08 -2.77432e-06 6.36031e-05  5.67879e-08 -2.8796e-06 6.36031e-05  -1.05473e-08 -2.7585e-06 6.36031e-05  5.15564e-08 -2.89018e-06 6.36031e-05  6.78256e-07 -2.75364e-06 6.36031e-05  6.32772e-07 -1.75561e-06 6.36031e-05  1.2741e-06 -1.54407e-06 6.36031e-05  -2.25065e-06 -2.28738e-07 6.36031e-05  -1.02041e-06 -1.01576e-06 6.36031e-05  -2.74993e-07 -1.41275e-06 6.36031e-05  -2.74602e-08 -1.5302e-06 6.36031e-05  -1.33001e-07 -1.50769e-06 6.36031e-05  6.35566e-09 -1.51329e-06 6.36031e-05  8.91573e-07 -1.55371e-06 6.36031e-05  9.31594e-07 -9.32441e-07 6.36031e-05  1.73683e-06 -7.90631e-07 6.36031e-05  -2.77811e-06 3.53057e-08 6.36031e-05  -1.41709e-06 -2.68922e-07 6.36031e-05  -4.68564e-07 -4.61885e-07 6.36031e-05  -8.07554e-09 -5.87561e-07 6.36031e-05  -1.08394e-07 -5.68194e-07 6.36031e-05  1.59957e-08 -5.68236e-07 6.36031e-05  1.26358e-06 -5.74088e-07 6.36031e-05  1.47308e-06 -3.70982e-07 6.36031e-05  2.65134e-06 -3.80037e-07 6.36031e-05  -2.88475e-06 6.076e-08 6.36031e-05  -1.53728e-06 -2.11439e-08 6.36031e-05  -5.95786e-07 -6.01817e-10 6.36031e-05  -9.61604e-08 -8.85201e-08 6.36031e-05  -1.59509e-07 -4.49868e-08 6.36031e-05  7.61148e-08 -8.4399e-08 6.36031e-05  1.24925e-06 -1.07653e-08 6.36031e-05  1.50023e-06 -2.56799e-08 6.36031e-05  2.86242e-06 6.37341e-08 6.36031e-05  -2.75812e-06 -3.70896e-09 6.36031e-05  -1.50725e-06 -1.24237e-07 6.36031e-05  -5.70427e-07 -9.97581e-08 6.36031e-05  -4.97689e-08 -1.51103e-07 6.36031e-05  -1.86501e-07 -1.80933e-07 6.36031e-05  1.20878e-08 -1.5964e-07 6.36031e-05  1.18033e-06 -1.95765e-07 6.36031e-05  1.42832e-06 -1.19797e-07 6.36031e-05  2.66496e-06 -2.38816e-07 6.36031e-05  -2.90145e-06 5.91297e-08 6.36031e-05  -1.52403e-06 1.52945e-08 6.36031e-05  -5.77944e-07 2.39259e-08 6.36031e-05  -9.32821e-08 8.45992e-08 6.36031e-05  -1.67771e-07 1.63991e-08 6.36031e-05  8.56484e-08 9.18574e-08 6.36031e-05  1.27264e-06 -5.64086e-08 6.36031e-05  1.51029e-06 5.02814e-08 6.36031e-05  2.85269e-06 -1.92552e-07 6.36031e-05  -2.76143e-06 6.87631e-07 6.36031e-05  -1.55966e-06 8.96592e-07 6.36031e-05  -5.80157e-07 1.26583e-06 6.36031e-05  -1.97281e-08 1.25731e-06 6.36031e-05  -2.04665e-07 1.18172e-06 6.36031e-05  -6.36988e-08 1.27896e-06 6.36031e-05  1.08939e-06 1.09592e-06 6.36031e-05  1.391e-06 6.83057e-07 6.36031e-05  2.74286e-06 2.9503e-07 6.36031e-05  -1.76855e-06 6.47913e-07 6.36031e-05  -9.41425e-07 9.3881e-07 6.36031e-05  -3.78786e-07 1.47427e-06 6.36031e-05  -3.51849e-08 1.50815e-06 6.36031e-05  -1.27932e-07 1.42679e-06 6.36031e-05  4.46801e-08 1.51489e-06 6.36031e-05  6.7861e-07 1.39559e-06 6.36031e-05  1.00476e-06 1.00801e-06 6.36031e-05  2.22565e-06 2.64814e-07 6.36031e-05  -1.56359e-06 1.29237e-06 6.36031e-05  -8.06325e-07 1.74801e-06 6.36031e-05  -3.91017e-07 2.65403e-06 6.36031e-05  5.54527e-08 2.87018e-06 6.36031e-05  -2.45296e-07 2.66324e-06 6.36031e-05  -1.9755e-07 2.85489e-06 6.36031e-05  2.91442e-07 2.74592e-06 6.36031e-05  2.62975e-07 2.22773e-06 6.36031e-05  1.2084e-06 1.20861e-06 6.36031e-05  
            </DataArray>
         </PointData> 
      </Piece>
   </UnstructuredGrid> 
</VTKFile>
