<?xml version="1.0"?>
<VTKFile type="UnstructuredGrid" version="0.1" byte_order="LittleEndian">
   <UnstructuredGrid>
      <Piece NumberOfPoints="81" NumberOfCells="0" > 
         <Points> 
            <DataArray type="Float64" Name="Position" NumberOfComponents="3" format="ascii"> 
               0  0  15  
               0.375  0  15  
               0.75  0  15  
               1.125  0  15  
               1.5  0  15  
               1.875  0  15  
               2.25  0  15  
               2.625  0  15  
               3  0  15  
               0  0.375  15  
               0.375  0.375  15  
               0.75  0.375  15  
               1.125  0.375  15  
               1.5  0.375  15  
               1.875  0.375  15  
               2.25  0.375  15  
               2.625  0.375  15  
               3  0.375  15  
               0  0.75  15  
               0.375  0.75  15  
               0.75  0.75  15  
               1.125  0.75  15  
               1.5  0.75  15  
               1.875  0.75  15  
               2.25  0.75  15  
               2.625  0.75  15  
               3  0.75  15  
               0  1.125  15  
               0.375  1.125  15  
               0.75  1.125  15  
               1.125  1.125  15  
               1.5  1.125  15  
               1.875  1.125  15  
               2.25  1.125  15  
               2.625  1.125  15  
               3  1.125  15  
               0  1.5  15  
               0.375  1.5  15  
               0.75  1.5  15  
               1.125  1.5  15  
               1.5  1.5  15  
               1.875  1.5  15  
               2.25  1.5  15  
               2.625  1.5  15  
               3  1.5  15  
               0  1.875  15  
               0.375  1.875  15  
               0.75  1.875  15  
               1.125  1.875  15  
               1.5  1.875  15  
               1.875  1.875  15  
               2.25  1.875  15  
               2.625  1.875  15  
               3  1.875  15  
               0  2.25  15  
               0.375  2.25  15  
               0.75  2.25  15  
               1.125  2.25  15  
               1.5  2.25  15  
               1.875  2.25  15  
               2.25  2.25  15  
               2.625  2.25  15  
               3  2.25  15  
               0  2.625  15  
               0.375  2.625  15  
               0.75  2.625  15  
               1.125  2.625  15  
               1.5  2.625  15  
               1.875  2.625  15  
               2.25  2.625  15  
               2.625  2.625  15  
               3  2.625  15  
               0  3  15  
               0.375  3  15  
               0.75  3  15  
               1.125  3  15  
               1.5  3  15  
               1.875  3  15  
               2.25  3  15  
               2.625  3  15  
               3  3  15  
            </DataArray>
         </Points> 

         <Cells>
            <DataArray type="Int32" Name="connectivity" NumberOfComponents="1" format="ascii">
               
            </DataArray> 
            <DataArray type="Int32" Name="offsets" NumberOfComponents="1" format="ascii">
               
            </DataArray>
            <DataArray type="UInt8"  Name="types" NumberOfComponents="1" format="ascii">
               
            </DataArray>
         </Cells>
         <PointData Scalars="Rank " Vectors="Displacement Velocity Traction ">
            <DataArray type="UInt32" Name="Rank" NumberOfComponents="1" format="ascii">
               0 0 0 0 0 0 0 0 0 0 0 0 0 0 0 0 0 0 0 0 0 0 0 0 0 0 0 0 0 0 0 0 0 0 0 0 0 0 0 0 0 0 0 0 0 0 0 0 0 0 0 0 0 0 0 0 0 0 0 0 0 0 0 0 0 0 0 0 0 0 0 0 0 0 0 0 0 0 0 0 0 
            </DataArray>
            <DataArray type="Float64" Name="Displacement" NumberOfComponents="3" format="ascii">
               0.000164664 9.37247e-05 -0.000126186  0.000159254 2.57797e-05 -0.000131227  0.000137017 1.08808e-05 -0.000123597  0.000105655 7.4051e-07 -0.000120503  7.73324e-05 8.86102e-06 -0.000120191  5.31048e-05 1.8863e-07 -0.000117359  3.54067e-05 8.40358e-06 -0.000122387  2.33831e-05 1.14117e-05 -0.000130225  1.90242e-05 -1.70184e-05 -0.000115755  9.45831e-05 8.77432e-05 -0.000131324  9.68027e-05 2.62351e-05 -0.000130917  8.49349e-05 1.83984e-05 -0.000120469  6.51352e-05 8.69914e-06 -0.000117741  4.35337e-05 1.56791e-05 -0.000117537  2.15582e-05 6.09048e-06 -0.000115584  -4.18316e-09 1.20518e-05 -0.000120994  -1.30793e-05 1.08922e-05 -0.000134811  -1.28891e-05 -2.23253e-05 -0.000127723  7.65731e-05 6.32409e-05 -0.000123697  8.70325e-05 1.04609e-05 -0.000120466  7.80531e-05 4.80118e-06 -0.00010358  5.88621e-05 -1.2804e-06 -9.86188e-05  3.77287e-05 3.53287e-06 -9.87227e-05  1.61085e-05 -2.71573e-06 -9.80213e-05  -4.54556e-06 1.08426e-06 -0.000103704  -1.46937e-05 -3.02342e-06 -0.000121292  -9.94212e-06 -3.68896e-05 -0.000121405  6.24405e-05 2.79265e-05 -0.000120587  7.44632e-05 -1.53138e-05 -0.000117728  6.93565e-05 -1.952e-05 -9.86088e-05  5.36675e-05 -2.14531e-05 -9.16236e-05  3.49095e-05 -1.89952e-05 -9.16395e-05  1.49895e-05 -2.14843e-05 -9.17216e-05  -3.08757e-06 -2.08296e-05 -9.84021e-05  -1.12803e-05 -2.6036e-05 -0.000116284  -4.28969e-06 -5.76536e-05 -0.000117319  7.19562e-05 -5.83934e-06 -0.000120275  8.36395e-05 -4.49053e-05 -0.000117522  7.70536e-05 -4.63916e-05 -9.87122e-05  5.88216e-05 -4.50101e-05 -9.16414e-05  3.69129e-05 -4.29538e-05 -9.21081e-05  1.33409e-05 -4.23966e-05 -9.16123e-05  -8.76476e-06 -4.40275e-05 -9.85869e-05  -2.01067e-05 -5.03017e-05 -0.000117217  -1.18936e-05 -8.48708e-05 -0.00011901  7.45212e-05 -3.73138e-05 -0.000117456  8.52775e-05 -7.50524e-05 -0.000115574  7.889e-05 -7.20902e-05 -9.80178e-05  6.00023e-05 -6.75773e-05 -9.17301e-05  3.72089e-05 -6.51725e-05 -9.16214e-05  1.32698e-05 -6.22953e-05 -9.13939e-05  -7.42088e-06 -6.6848e-05 -9.83156e-05  -1.74756e-05 -7.47624e-05 -0.000117114  -7.99182e-06 -0.000117094 -0.000118884  8.98261e-05 -6.34877e-05 -0.000122487  9.78531e-05 -0.000103423 -0.00012098  8.85131e-05 -9.40546e-05 -0.000103693  6.5995e-05 -8.64841e-05 -9.83954e-05  3.94431e-05 -8.35991e-05 -9.85844e-05  1.15793e-05 -7.91716e-05 -9.83058e-05  -1.3694e-05 -8.7626e-05 -0.00010354  -2.7665e-05 -9.75639e-05 -0.000120598  -1.83314e-05 -0.000153729 -0.000122752  0.000114851 -8.26459e-05 -0.000130313  0.000115386 -0.00012019 -0.000134773  9.81893e-05 -0.000102984 -0.000121278  6.9015e-05 -9.26952e-05 -0.000116271  3.72606e-05 -8.97542e-05 -0.00011721  5.46965e-06 -8.47631e-05 -0.0001171  -2.27122e-05 -9.73931e-05 -0.000120592  -4.01832e-05 -0.000111552 -0.000131301  -3.92024e-05 -0.000180307 -0.000130714  8.86375e-05 -8.96737e-05 -0.000116026  8.08424e-05 -0.00011905 -0.000127849  5.9578e-05 -9.39114e-05 -0.00012154  3.08481e-05 -8.08917e-05 -0.000117451  -3.04987e-06 -7.66798e-05 -0.000119147  -4.01652e-05 -7.11896e-05 -0.000119014  -8.02462e-05 -8.5065e-05 -0.000122893  -0.000108744 -0.000108874 -0.000130857  -0.000116021 -0.000187089 -0.000125197  
            </DataArray>
            <DataArray type="Float64" Name="Velocity" NumberOfComponents="3" format="ascii">
               0.000171423 0.000132759 -0.000157547  0.000164841 6.76843e-05 -0.000165576  0.000140192 3.85837e-05 -0.000157084  0.000105308 2.13764e-05 -0.000153729  7.08365e-05 2.20901e-05 -0.000153333  3.89325e-05 1.76158e-05 -0.000149634  1.3476e-05 2.9105e-05 -0.000155956  -4.37725e-06 4.80938e-05 -0.000164497  -1.06972e-05 2.27223e-05 -0.00014328  0.000105612 0.000126275 -0.000165562  0.000106789 6.9335e-05 -0.000167779  9.05013e-05 4.92927e-05 -0.000156022  6.37463e-05 3.34928e-05 -0.000153075  3.34218e-05 3.4661e-05 -0.000152835  2.57889e-06 2.88715e-05 -0.0001503  -2.57987e-05 3.70601e-05 -0.000156865  -4.21248e-05 4.8769e-05 -0.000172774  -4.11099e-05 1.54185e-05 -0.000161303  7.44073e-05 0.000101803 -0.000157169  8.43388e-05 5.3809e-05 -0.00015608  7.35422e-05 3.93928e-05 -0.000137177  5.06211e-05 2.77042e-05 -0.000131611  2.46824e-05 2.82057e-05 -0.000131699  -7.06522e-07 2.3407e-05 -0.000130913  -2.26246e-05 2.82544e-05 -0.000137462  -3.14439e-05 3.25274e-05 -0.000157262  -2.30408e-05 -4.43678e-06 -0.000154919  5.57168e-05 6.79132e-05 -0.00015374  6.63745e-05 2.85344e-05 -0.000153085  5.96893e-05 1.72192e-05 -0.000131556  4.18338e-05 1.01018e-05 -0.000123543  1.98825e-05 9.36699e-06 -0.000123509  -1.79162e-06 5.16063e-06 -0.000123789  -1.99074e-05 6.21734e-06 -0.000131431  -2.55588e-05 4.35842e-06 -0.000151211  -1.43841e-05 -3.15159e-05 -0.000149821  5.63082e-05 3.53913e-05 -0.000153334  6.67397e-05 1.1194e-06 -0.000152846  5.84312e-05 -7.47227e-06 -0.000131647  3.88068e-05 -1.10817e-05 -0.000123523  1.67088e-05 -1.2964e-05 -0.000124039  -4.72992e-06 -1.69608e-05 -0.000123502  -2.28305e-05 -1.93844e-05 -0.000131518  -2.88364e-05 -2.63472e-05 -0.000152372  -1.63661e-05 -6.3782e-05 -0.000151978  4.76925e-05 6.60111e-06 -0.00014967  5.65337e-05 -2.62166e-05 -0.000150345  5.07211e-05 -3.21376e-05 -0.000130878  3.39038e-05 -3.26691e-05 -0.000123817  1.38768e-05 -3.60886e-05 -0.000123527  -5.99424e-06 -3.9631e-05 -0.000123248  -2.29186e-05 -4.56194e-05 -0.000131188  -2.86781e-05 -5.68405e-05 -0.000152137  -1.60126e-05 -9.93529e-05 -0.000151693  5.98262e-05 -1.46985e-05 -0.000155971  6.54822e-05 -5.12743e-05 -0.000156854  5.63694e-05 -5.44828e-05 -0.000137374  3.54989e-05 -5.11012e-05 -0.000131396  1.23461e-05 -5.6661e-05 -0.000131478  -1.09595e-05 -5.85352e-05 -0.000131134  -3.21167e-05 -6.89053e-05 -0.000137126  -4.20222e-05 -8.38173e-05 -0.000156108  -3.04246e-05 -0.000137679 -0.00015596  6.75162e-05 -2.90872e-05 -0.000164588  6.78548e-05 -6.5832e-05 -0.000172813  5.42971e-05 -6.46983e-05 -0.000157254  3.07809e-05 -5.82979e-05 -0.000151265  5.16161e-06 -6.56623e-05 -0.000152409  -2.08254e-05 -6.63957e-05 -0.000152155  -4.49908e-05 -8.06289e-05 -0.000156172  -5.9917e-05 -0.000100294 -0.000168251  -5.7664e-05 -0.000165273 -0.000164928  4.13089e-05 -3.41533e-05 -0.000143539  3.5667e-05 -6.56017e-05 -0.000161432  2.02935e-05 -5.91481e-05 -0.000154945  -1.3677e-06 -5.01141e-05 -0.00014989  -2.91537e-05 -5.58758e-05 -0.000152031  -6.15306e-05 -5.56916e-05 -0.000151748  -9.78389e-05 -7.01185e-05 -0.000156121  -0.000124613 -9.86868e-05 -0.000164978  -0.000131761 -0.000172605 -0.000156361  
            </DataArray>
            <DataArray type="Float64" Name="Traction" NumberOfComponents="3" format="ascii">
               0 0 0  0 0 0  0 0 0  0 0 0  0 0 0  0 0 0  0 0 0  0 0 0  0 0 0  0 0 0  0 0 0  0 0 0  0 0 0  0 0 0  0 0 0  0 0 0  0 0 0  0 0 0  0 0 0  0 0 0  0 0 0  0 0 0  0 0 0  0 0 0  0 0 0  0 0 0  0 0 0  0 0 0  0 0 0  0 0 0  0 0 0  0 0 0  0 0 0  0 0 0  0 0 0  0 0 0  0 0 0  0 0 0  0 0 0  0 0 0  0 0 0  0 0 0  0 0 0  0 0 0  0 0 0  0 0 0  0 0 0  0 0 0  0 0 0  0 0 0  0 0 0  0 0 0  0 0 0  0 0 0  0 0 0  0 0 0  0 0 0  0 0 0  0 0 0  0 0 0  0 0 0  0 0 0  0 0 0  0 0 0  0 0 0  0 0 0  0 0 0  0 0 0  0 0 0  0 0 0  0 0 0  0 0 0  0 0 0  0 0 0  0 0 0  0 0 0  0 0 0  0 0 0  0 0 0  0 0 0  0 0 0  
            </DataArray>
         </PointData> 
      </Piece>
   </UnstructuredGrid> 
</VTKFile>
