<?xml version="1.0"?>
<VTKFile type="UnstructuredGrid" version="0.1" byte_order="LittleEndian">
   <UnstructuredGrid>
      <Piece NumberOfPoints="81" NumberOfCells="0" > 
         <Points> 
            <DataArray type="Float64" Name="Position" NumberOfComponents="3" format="ascii"> 
               0  0  20  
               0.375  0  20  
               0.75  0  20  
               1.125  0  20  
               1.5  0  20  
               1.875  0  20  
               2.25  0  20  
               2.625  0  20  
               3  0  20  
               0  0.375  20  
               0.375  0.375  20  
               0.75  0.375  20  
               1.125  0.375  20  
               1.5  0.375  20  
               1.875  0.375  20  
               2.25  0.375  20  
               2.625  0.375  20  
               3  0.375  20  
               0  0.75  20  
               0.375  0.75  20  
               0.75  0.75  20  
               1.125  0.75  20  
               1.5  0.75  20  
               1.875  0.75  20  
               2.25  0.75  20  
               2.625  0.75  20  
               3  0.75  20  
               0  1.125  20  
               0.375  1.125  20  
               0.75  1.125  20  
               1.125  1.125  20  
               1.5  1.125  20  
               1.875  1.125  20  
               2.25  1.125  20  
               2.625  1.125  20  
               3  1.125  20  
               0  1.5  20  
               0.375  1.5  20  
               0.75  1.5  20  
               1.125  1.5  20  
               1.5  1.5  20  
               1.875  1.5  20  
               2.25  1.5  20  
               2.625  1.5  20  
               3  1.5  20  
               0  1.875  20  
               0.375  1.875  20  
               0.75  1.875  20  
               1.125  1.875  20  
               1.5  1.875  20  
               1.875  1.875  20  
               2.25  1.875  20  
               2.625  1.875  20  
               3  1.875  20  
               0  2.25  20  
               0.375  2.25  20  
               0.75  2.25  20  
               1.125  2.25  20  
               1.5  2.25  20  
               1.875  2.25  20  
               2.25  2.25  20  
               2.625  2.25  20  
               3  2.25  20  
               0  2.625  20  
               0.375  2.625  20  
               0.75  2.625  20  
               1.125  2.625  20  
               1.5  2.625  20  
               1.875  2.625  20  
               2.25  2.625  20  
               2.625  2.625  20  
               3  2.625  20  
               0  3  20  
               0.375  3  20  
               0.75  3  20  
               1.125  3  20  
               1.5  3  20  
               1.875  3  20  
               2.25  3  20  
               2.625  3  20  
               3  3  20  
            </DataArray>
         </Points> 

         <Cells>
            <DataArray type="Int32" Name="connectivity" NumberOfComponents="1" format="ascii">
               
            </DataArray> 
            <DataArray type="Int32" Name="offsets" NumberOfComponents="1" format="ascii">
               
            </DataArray>
            <DataArray type="UInt8"  Name="types" NumberOfComponents="1" format="ascii">
               
            </DataArray>
         </Cells>
         <PointData Scalars="Rank " Vectors="Displacement Velocity Traction ">
            <DataArray type="UInt32" Name="Rank" NumberOfComponents="1" format="ascii">
               0 0 0 0 0 0 0 0 0 0 0 0 0 0 0 0 0 0 0 0 0 0 0 0 0 0 0 0 0 0 0 0 0 0 0 0 0 0 0 0 0 0 0 0 0 0 0 0 0 0 0 0 0 0 0 0 0 0 0 0 0 0 0 0 0 0 0 0 0 0 0 0 0 0 0 0 0 0 0 0 0 
            </DataArray>
            <DataArray type="Float64" Name="Displacement" NumberOfComponents="3" format="ascii">
               0 0 0  0 0 0  0 0 0  0 0 0  0 0 0  0 0 0  0 0 0  0 0 0  0 0 0  0 0 0  0 0 0  0 0 0  0 0 0  0 0 0  0 0 0  0 0 0  0 0 0  0 0 0  0 0 0  0 0 0  0 0 0  0 0 0  0 0 0  0 0 0  0 0 0  0 0 0  0 0 0  0 0 0  0 0 0  0 0 0  0 0 0  0 0 0  0 0 0  0 0 0  0 0 0  0 0 0  0 0 0  0 0 0  0 0 0  0 0 0  0 0 0  0 0 0  0 0 0  0 0 0  0 0 0  0 0 0  0 0 0  0 0 0  0 0 0  0 0 0  0 0 0  0 0 0  0 0 0  0 0 0  0 0 0  0 0 0  0 0 0  0 0 0  0 0 0  0 0 0  0 0 0  0 0 0  0 0 0  0 0 0  0 0 0  0 0 0  0 0 0  0 0 0  0 0 0  0 0 0  0 0 0  0 0 0  0 0 0  0 0 0  0 0 0  0 0 0  0 0 0  0 0 0  0 0 0  0 0 0  0 0 0  
            </DataArray>
            <DataArray type="Float64" Name="Velocity" NumberOfComponents="3" format="ascii">
               0 0 0  0 0 0  0 0 0  0 0 0  0 0 0  0 0 0  0 0 0  0 0 0  0 0 0  0 0 0  0 0 0  0 0 0  0 0 0  0 0 0  0 0 0  0 0 0  0 0 0  0 0 0  0 0 0  0 0 0  0 0 0  0 0 0  0 0 0  0 0 0  0 0 0  0 0 0  0 0 0  0 0 0  0 0 0  0 0 0  0 0 0  0 0 0  0 0 0  0 0 0  0 0 0  0 0 0  0 0 0  0 0 0  0 0 0  0 0 0  0 0 0  0 0 0  0 0 0  0 0 0  0 0 0  0 0 0  0 0 0  0 0 0  0 0 0  0 0 0  0 0 0  0 0 0  0 0 0  0 0 0  0 0 0  0 0 0  0 0 0  0 0 0  0 0 0  0 0 0  0 0 0  0 0 0  0 0 0  0 0 0  0 0 0  0 0 0  0 0 0  0 0 0  0 0 0  0 0 0  0 0 0  0 0 0  0 0 0  0 0 0  0 0 0  0 0 0  0 0 0  0 0 0  0 0 0  0 0 0  0 0 0  
            </DataArray>
            <DataArray type="Float64" Name="Traction" NumberOfComponents="3" format="ascii">
               -0.000210756 -0.000209704 -0.00182752  -0.0001472 -0.000372874 -0.00182752  -9.02261e-05 -0.000477078 -0.00182752  -1.22374e-05 -0.000461855 -0.00182752  -3.13517e-05 -0.000462198 -0.00182752  0.000102722 -0.000472426 -0.00182752  0.00034544 -0.000422092 -0.00182752  7.94917e-05 -0.000194766 -0.00182752  -5.02521e-05 -0.000136179 -0.00182752  -0.000374842 -0.000146838 -0.00182752  -0.000247979 -0.00024696 -0.00182752  -0.000125975 -0.000347862 -0.00182752  -4.14097e-05 -0.000363976 -0.00182752  -6.22631e-05 -0.000378535 -0.00182752  4.50505e-05 -0.000351615 -0.00182752  0.000373659 -0.000357324 -0.00182752  0.000221528 -0.000234768 -0.00182752  0.000148624 -0.000175087 -0.00182752  -0.000479205 -9.01811e-05 -0.00182752  -0.000349019 -0.000125693 -0.00182752  -0.000196313 -0.000195891 -0.00182752  -3.65829e-05 -0.000248383 -0.00182752  -3.63552e-05 -0.000255306 -0.00182752  4.32164e-05 -0.000238919 -0.00182752  0.000408691 -0.000239171 -0.00182752  0.000345177 -0.000206692 -0.00182752  0.000392444 -0.000224472 -0.00182752  -0.000464062 -1.17696e-05 -0.00182752  -0.000365218 -4.09143e-05 -0.00182752  -0.000248869 -3.59336e-05 -0.00182752  -7.33681e-05 -7.26618e-05 -0.00182752  -2.92931e-05 -6.15534e-05 -0.00182752  6.9348e-05 -7.25343e-05 -0.00182752  0.000391712 -5.59812e-05 -0.00182752  0.000342492 -5.41046e-05 -0.00182752  0.000447415 -6.2983e-05 -0.00182752  -0.000464427 -3.07285e-05 -0.00182752  -0.000379798 -6.15253e-05 -0.00182752  -0.000255847 -3.55004e-05 -0.00182752  -6.23515e-05 -2.82995e-05 -0.00182752  -4.54807e-05 -4.4364e-05 -0.00182752  4.88683e-05 -3.95961e-05 -0.00182752  0.000392073 -4.12251e-05 -0.00182752  0.000350083 -1.94806e-05 -0.00182752  0.000418653 -6.60239e-05 -0.00182752  -0.000474543 0.000103038 -0.00182752  -0.000352872 4.55602e-05 -0.00182752  -0.000239416 4.37125e-05 -0.00182752  -7.32643e-05 6.99133e-05 -0.00182752  -4.0593e-05 4.966e-05 -0.00182752  6.65694e-05 6.71892e-05 -0.00182752  0.000401788 2.36893e-05 -0.00182752  0.000351237 4.29839e-05 -0.00182752  0.000444236 -3.20395e-05 -0.00182752  -0.000424011 0.000345149 -0.00182752  -0.000358445 0.000373316 -0.00182752  -0.000239639 0.000408382 -0.00182752  -5.65381e-05 0.000391426 -0.00182752  -4.20792e-05 0.00039188 -0.00182752  2.30859e-05 0.000401479 -0.00182752  0.0003459 0.000345496 -0.00182752  0.000335043 0.00024393 -0.00182752  0.00045292 0.000186593 -0.00182752  -0.000196586 8.09308e-05 -0.00182752  -0.000235663 0.000222321 -0.00182752  -0.000207152 0.000345978 -0.00182752  -5.46331e-05 0.000343418 -0.00182752  -2.01327e-05 0.00035113 -0.00182752  4.26066e-05 0.000352209 -0.00182752  0.000244395 0.000335767 -0.00182752  0.000239293 0.000240022 -0.00182752  0.000349391 0.000155601 -0.00182752  -0.000137857 -4.72808e-05 -0.00182752  -0.000175938 0.000150723 -0.00182752  -0.000224894 0.000394477 -0.00182752  -6.32905e-05 0.000449675 -0.00182752  -6.67399e-05 0.000421149 -0.00182752  -3.26666e-05 0.000446817 -0.00182752  0.000187194 0.000455207 -0.00182752  0.00015575 0.000351517 -0.00182752  0.000205651 0.000206583 -0.00182752  
            </DataArray>
         </PointData> 
      </Piece>
   </UnstructuredGrid> 
</VTKFile>
