<?xml version="1.0"?>
<VTKFile type="UnstructuredGrid" version="0.1" byte_order="LittleEndian">
   <UnstructuredGrid>
      <Piece NumberOfPoints="81" NumberOfCells="0" > 
         <Points> 
            <DataArray type="Float64" Name="Position" NumberOfComponents="3" format="ascii"> 
               0  0  20  
               0.375  0  20  
               0.75  0  20  
               1.125  0  20  
               1.5  0  20  
               1.875  0  20  
               2.25  0  20  
               2.625  0  20  
               3  0  20  
               0  0.375  20  
               0.375  0.375  20  
               0.75  0.375  20  
               1.125  0.375  20  
               1.5  0.375  20  
               1.875  0.375  20  
               2.25  0.375  20  
               2.625  0.375  20  
               3  0.375  20  
               0  0.75  20  
               0.375  0.75  20  
               0.75  0.75  20  
               1.125  0.75  20  
               1.5  0.75  20  
               1.875  0.75  20  
               2.25  0.75  20  
               2.625  0.75  20  
               3  0.75  20  
               0  1.125  20  
               0.375  1.125  20  
               0.75  1.125  20  
               1.125  1.125  20  
               1.5  1.125  20  
               1.875  1.125  20  
               2.25  1.125  20  
               2.625  1.125  20  
               3  1.125  20  
               0  1.5  20  
               0.375  1.5  20  
               0.75  1.5  20  
               1.125  1.5  20  
               1.5  1.5  20  
               1.875  1.5  20  
               2.25  1.5  20  
               2.625  1.5  20  
               3  1.5  20  
               0  1.875  20  
               0.375  1.875  20  
               0.75  1.875  20  
               1.125  1.875  20  
               1.5  1.875  20  
               1.875  1.875  20  
               2.25  1.875  20  
               2.625  1.875  20  
               3  1.875  20  
               0  2.25  20  
               0.375  2.25  20  
               0.75  2.25  20  
               1.125  2.25  20  
               1.5  2.25  20  
               1.875  2.25  20  
               2.25  2.25  20  
               2.625  2.25  20  
               3  2.25  20  
               0  2.625  20  
               0.375  2.625  20  
               0.75  2.625  20  
               1.125  2.625  20  
               1.5  2.625  20  
               1.875  2.625  20  
               2.25  2.625  20  
               2.625  2.625  20  
               3  2.625  20  
               0  3  20  
               0.375  3  20  
               0.75  3  20  
               1.125  3  20  
               1.5  3  20  
               1.875  3  20  
               2.25  3  20  
               2.625  3  20  
               3  3  20  
            </DataArray>
         </Points> 

         <Cells>
            <DataArray type="Int32" Name="connectivity" NumberOfComponents="1" format="ascii">
               
            </DataArray> 
            <DataArray type="Int32" Name="offsets" NumberOfComponents="1" format="ascii">
               
            </DataArray>
            <DataArray type="UInt8"  Name="types" NumberOfComponents="1" format="ascii">
               
            </DataArray>
         </Cells>
         <PointData Scalars="Rank " Vectors="Displacement Velocity Traction ">
            <DataArray type="UInt32" Name="Rank" NumberOfComponents="1" format="ascii">
               0 0 0 0 0 0 0 0 0 0 0 0 0 0 0 0 0 0 0 0 0 0 0 0 0 0 0 0 0 0 0 0 0 0 0 0 0 0 0 0 0 0 0 0 0 0 0 0 0 0 0 0 0 0 0 0 0 0 0 0 0 0 0 0 0 0 0 0 0 0 0 0 0 0 0 0 0 0 0 0 0 
            </DataArray>
            <DataArray type="Float64" Name="Displacement" NumberOfComponents="3" format="ascii">
               0 0 0  0 0 0  0 0 0  0 0 0  0 0 0  0 0 0  0 0 0  0 0 0  0 0 0  0 0 0  0 0 0  0 0 0  0 0 0  0 0 0  0 0 0  0 0 0  0 0 0  0 0 0  0 0 0  0 0 0  0 0 0  0 0 0  0 0 0  0 0 0  0 0 0  0 0 0  0 0 0  0 0 0  0 0 0  0 0 0  0 0 0  0 0 0  0 0 0  0 0 0  0 0 0  0 0 0  0 0 0  0 0 0  0 0 0  0 0 0  0 0 0  0 0 0  0 0 0  0 0 0  0 0 0  0 0 0  0 0 0  0 0 0  0 0 0  0 0 0  0 0 0  0 0 0  0 0 0  0 0 0  0 0 0  0 0 0  0 0 0  0 0 0  0 0 0  0 0 0  0 0 0  0 0 0  0 0 0  0 0 0  0 0 0  0 0 0  0 0 0  0 0 0  0 0 0  0 0 0  0 0 0  0 0 0  0 0 0  0 0 0  0 0 0  0 0 0  0 0 0  0 0 0  0 0 0  0 0 0  0 0 0  
            </DataArray>
            <DataArray type="Float64" Name="Velocity" NumberOfComponents="3" format="ascii">
               0 0 0  0 0 0  0 0 0  0 0 0  0 0 0  0 0 0  0 0 0  0 0 0  0 0 0  0 0 0  0 0 0  0 0 0  0 0 0  0 0 0  0 0 0  0 0 0  0 0 0  0 0 0  0 0 0  0 0 0  0 0 0  0 0 0  0 0 0  0 0 0  0 0 0  0 0 0  0 0 0  0 0 0  0 0 0  0 0 0  0 0 0  0 0 0  0 0 0  0 0 0  0 0 0  0 0 0  0 0 0  0 0 0  0 0 0  0 0 0  0 0 0  0 0 0  0 0 0  0 0 0  0 0 0  0 0 0  0 0 0  0 0 0  0 0 0  0 0 0  0 0 0  0 0 0  0 0 0  0 0 0  0 0 0  0 0 0  0 0 0  0 0 0  0 0 0  0 0 0  0 0 0  0 0 0  0 0 0  0 0 0  0 0 0  0 0 0  0 0 0  0 0 0  0 0 0  0 0 0  0 0 0  0 0 0  0 0 0  0 0 0  0 0 0  0 0 0  0 0 0  0 0 0  0 0 0  0 0 0  0 0 0  
            </DataArray>
            <DataArray type="Float64" Name="Traction" NumberOfComponents="3" format="ascii">
               -1.85328e-06 -1.86199e-06 -4.86152e-06  -4.239e-07 -3.497e-06 -4.86152e-06  1.85939e-08 -4.13729e-06 -4.86152e-06  5.09211e-08 -4.2371e-06 -4.86152e-06  -1.18651e-08 -4.16013e-06 -4.86152e-06  2.18644e-07 -4.29868e-06 -4.86152e-06  1.36609e-06 -4.03563e-06 -4.86152e-06  1.10919e-06 -2.51366e-06 -4.86152e-06  1.75008e-06 -2.37941e-06 -4.86152e-06  -3.48415e-06 -4.29249e-07 -4.86152e-06  -1.64029e-06 -1.65038e-06 -4.86152e-06  -4.14261e-07 -2.31121e-06 -4.86152e-06  -8.65027e-08 -2.46525e-06 -4.86152e-06  -1.86802e-07 -2.47505e-06 -4.86152e-06  1.07846e-07 -2.4511e-06 -4.86152e-06  1.56218e-06 -2.51783e-06 -4.86152e-06  1.53995e-06 -1.55437e-06 -4.86152e-06  2.44472e-06 -1.43771e-06 -4.86152e-06  -4.12104e-06 1.22159e-08 -4.86152e-06  -2.29818e-06 -4.2344e-07 -4.86152e-06  -7.94514e-07 -8.05265e-07 -4.86152e-06  -9.17076e-08 -1.03508e-06 -4.86152e-06  -1.35334e-07 -1.03297e-06 -4.86152e-06  1.42336e-07 -1.00733e-06 -4.86152e-06  2.06965e-06 -1.02335e-06 -4.86152e-06  2.37859e-06 -6.76241e-07 -4.86152e-06  3.8445e-06 -7.68281e-07 -4.86152e-06  -4.22145e-06 4.29635e-08 -4.86152e-06  -2.45576e-06 -9.59593e-08 -4.86152e-06  -1.02767e-06 -1.0216e-07 -4.86152e-06  -2.43254e-07 -2.52351e-07 -4.86152e-06  -2.03497e-07 -1.91371e-07 -4.86152e-06  2.31754e-07 -2.49734e-07 -4.86152e-06  2.04179e-06 -1.55468e-07 -4.86152e-06  2.41447e-06 -1.28666e-07 -4.86152e-06  4.20706e-06 -1.50193e-08 -4.86152e-06  -4.13867e-06 -1.84565e-08 -4.86152e-06  -2.45637e-06 -1.92836e-07 -4.86152e-06  -1.02027e-06 -1.42606e-07 -4.86152e-06  -1.83465e-07 -2.09265e-07 -4.86152e-06  -2.71078e-07 -2.74864e-07 -4.86152e-06  1.18303e-07 -2.40521e-07 -4.86152e-06  1.96262e-06 -2.75055e-07 -4.86152e-06  2.31887e-06 -1.60139e-07 -4.86152e-06  3.93857e-06 -3.9528e-07 -4.86152e-06  -4.29486e-06 2.11347e-07 -4.86152e-06  -2.44816e-06 1.02093e-07 -4.86152e-06  -1.00434e-06 1.3494e-07 -4.86152e-06  -2.45996e-07 2.27042e-07 -4.86152e-06  -2.37753e-07 1.13482e-07 -4.86152e-06  2.34905e-07 2.30668e-07 -4.86152e-06  2.06934e-06 -5.37802e-09 -4.86152e-06  2.41423e-06 1.24955e-07 -4.86152e-06  4.15736e-06 -2.72604e-07 -4.86152e-06  -4.02336e-06 1.36278e-06 -4.86152e-06  -2.50597e-06 1.55197e-06 -4.86152e-06  -1.01222e-06 2.05655e-06 -4.86152e-06  -1.50616e-07 2.04079e-06 -4.86152e-06  -2.72211e-07 1.95623e-06 -4.86152e-06  -1.94148e-09 2.06862e-06 -4.86152e-06  1.74298e-06 1.74129e-06 -4.86152e-06  2.27994e-06 1.01204e-06 -4.86152e-06  4.07548e-06 4.88931e-07 -4.86152e-06  -2.50997e-06 1.11325e-06 -4.86152e-06  -1.54833e-06 1.53216e-06 -4.86152e-06  -6.68308e-07 2.36355e-06 -4.86152e-06  -1.25733e-07 2.41377e-06 -4.86152e-06  -1.56499e-07 2.30781e-06 -4.86152e-06  1.30065e-07 2.41121e-06 -4.86152e-06  1.01649e-06 2.27575e-06 -4.86152e-06  1.63819e-06 1.63222e-06 -4.86152e-06  3.44424e-06 4.9514e-07 -4.86152e-06  -2.38489e-06 1.75788e-06 -4.86152e-06  -1.44099e-06 2.44116e-06 -4.86152e-06  -7.64207e-07 3.831e-06 -4.86152e-06  -8.76358e-09 4.20685e-06 -4.86152e-06  -3.87273e-07 3.92762e-06 -4.86152e-06  -2.6486e-07 4.15056e-06 -4.86152e-06  4.94706e-07 4.06906e-06 -4.86152e-06  5.01836e-07 3.4368e-06 -4.86152e-06  1.89396e-06 1.88532e-06 -4.86152e-06  
            </DataArray>
         </PointData> 
      </Piece>
   </UnstructuredGrid> 
</VTKFile>
