<?xml version="1.0"?>
<VTKFile type="UnstructuredGrid" version="0.1" byte_order="LittleEndian">
   <UnstructuredGrid>
      <Piece NumberOfPoints="81" NumberOfCells="0" > 
         <Points> 
            <DataArray type="Float64" Name="Position" NumberOfComponents="3" format="ascii"> 
               0  0  15  
               0.375  0  15  
               0.75  0  15  
               1.125  0  15  
               1.5  0  15  
               1.875  0  15  
               2.25  0  15  
               2.625  0  15  
               3  0  15  
               0  0.375  15  
               0.375  0.375  15  
               0.75  0.375  15  
               1.125  0.375  15  
               1.5  0.375  15  
               1.875  0.375  15  
               2.25  0.375  15  
               2.625  0.375  15  
               3  0.375  15  
               0  0.75  15  
               0.375  0.75  15  
               0.75  0.75  15  
               1.125  0.75  15  
               1.5  0.75  15  
               1.875  0.75  15  
               2.25  0.75  15  
               2.625  0.75  15  
               3  0.75  15  
               0  1.125  15  
               0.375  1.125  15  
               0.75  1.125  15  
               1.125  1.125  15  
               1.5  1.125  15  
               1.875  1.125  15  
               2.25  1.125  15  
               2.625  1.125  15  
               3  1.125  15  
               0  1.5  15  
               0.375  1.5  15  
               0.75  1.5  15  
               1.125  1.5  15  
               1.5  1.5  15  
               1.875  1.5  15  
               2.25  1.5  15  
               2.625  1.5  15  
               3  1.5  15  
               0  1.875  15  
               0.375  1.875  15  
               0.75  1.875  15  
               1.125  1.875  15  
               1.5  1.875  15  
               1.875  1.875  15  
               2.25  1.875  15  
               2.625  1.875  15  
               3  1.875  15  
               0  2.25  15  
               0.375  2.25  15  
               0.75  2.25  15  
               1.125  2.25  15  
               1.5  2.25  15  
               1.875  2.25  15  
               2.25  2.25  15  
               2.625  2.25  15  
               3  2.25  15  
               0  2.625  15  
               0.375  2.625  15  
               0.75  2.625  15  
               1.125  2.625  15  
               1.5  2.625  15  
               1.875  2.625  15  
               2.25  2.625  15  
               2.625  2.625  15  
               3  2.625  15  
               0  3  15  
               0.375  3  15  
               0.75  3  15  
               1.125  3  15  
               1.5  3  15  
               1.875  3  15  
               2.25  3  15  
               2.625  3  15  
               3  3  15  
            </DataArray>
         </Points> 

         <Cells>
            <DataArray type="Int32" Name="connectivity" NumberOfComponents="1" format="ascii">
               
            </DataArray> 
            <DataArray type="Int32" Name="offsets" NumberOfComponents="1" format="ascii">
               
            </DataArray>
            <DataArray type="UInt8"  Name="types" NumberOfComponents="1" format="ascii">
               
            </DataArray>
         </Cells>
         <PointData Scalars="Rank " Vectors="Displacement Velocity Traction ">
            <DataArray type="UInt32" Name="Rank" NumberOfComponents="1" format="ascii">
               0 0 0 0 0 0 0 0 0 0 0 0 0 0 0 0 0 0 0 0 0 0 0 0 0 0 0 0 0 0 0 0 0 0 0 0 0 0 0 0 0 0 0 0 0 0 0 0 0 0 0 0 0 0 0 0 0 0 0 0 0 0 0 0 0 0 0 0 0 0 0 0 0 0 0 0 0 0 0 0 0 
            </DataArray>
            <DataArray type="Float64" Name="Displacement" NumberOfComponents="3" format="ascii">
               6.94552e-08 2.38996e-07 -6.17365e-08  5.22733e-08 2.6302e-07 -5.69551e-08  -9.00824e-09 2.63409e-07 -5.06493e-08  -4.57817e-08 1.5963e-07 -4.96619e-08  -6.13146e-08 3.79044e-07 -5.17181e-08  -6.6917e-08 1.80928e-07 -4.95897e-08  -6.92576e-08 4.64707e-07 -5.06379e-08  -1.0746e-07 5.6882e-07 -5.65472e-08  -1.28618e-07 3.43218e-07 -6.15327e-08  -5.40155e-08 2.06611e-07 -5.67536e-08  -4.11827e-08 2.56375e-07 -4.7057e-08  -7.67869e-08 2.93956e-07 -3.63319e-08  -1.55237e-07 1.71109e-07 -3.43739e-08  -2.39657e-07 3.71643e-07 -3.65247e-08  -3.38087e-07 2.01974e-07 -3.43146e-08  -4.63241e-07 4.89487e-07 -3.62519e-08  -5.30857e-07 5.54445e-07 -4.70187e-08  -5.00003e-07 2.84393e-07 -5.64882e-08  -1.57204e-07 1.55757e-07 -5.0416e-08  -1.33208e-07 1.94426e-07 -3.64007e-08  -1.29165e-07 2.58215e-07 -2.0365e-08  -1.8665e-07 1.69967e-07 -1.71565e-08  -2.7864e-07 3.15577e-07 -1.97512e-08  -4.04747e-07 2.15726e-07 -1.715e-08  -5.62136e-07 4.54955e-07 -2.02838e-08  -6.19741e-07 4.45015e-07 -3.63421e-08  -5.61632e-07 1.53489e-07 -5.06768e-08  -1.03801e-07 1.18617e-07 -4.95086e-08  -8.2131e-08 1.08412e-07 -3.43949e-08  -6.6007e-08 1.56531e-07 -1.71276e-08  -8.57973e-08 1.21618e-07 -1.34935e-08  -1.24534e-07 2.13642e-07 -1.59584e-08  -1.79659e-07 1.52278e-07 -1.34656e-08  -2.17073e-07 3.10804e-07 -1.70928e-08  -1.93384e-07 2.77932e-07 -3.43065e-08  -1.26505e-07 2.82532e-08 -4.95724e-08  -8.83773e-08 7.92469e-08 -5.14552e-08  -6.57777e-08 1.40526e-08 -3.65644e-08  -6.29526e-08 5.62056e-08 -1.97036e-08  -8.8606e-08 2.94881e-08 -1.59693e-08  -1.38841e-07 9.99237e-08 -1.81194e-08  -2.15198e-07 5.71254e-08 -1.59256e-08  -2.92521e-07 1.52882e-07 -1.97128e-08  -3.01458e-07 1.21462e-07 -3.64486e-08  -2.18351e-07 -1.32637e-07 -5.15826e-08  2.94164e-08 2.5967e-08 -4.95138e-08  4.27824e-08 -5.70834e-08 -3.4337e-08  1.54575e-08 -1.52093e-08 -1.71467e-08  -3.5377e-08 -5.39159e-08 -1.34651e-08  -1.0583e-07 6.80224e-09 -1.59244e-08  -1.8135e-07 -1.93689e-08 -1.34247e-08  -2.38737e-07 3.32816e-08 -1.7095e-08  -2.55569e-07 -1.76678e-08 -3.43358e-08  -1.85411e-07 -3.35263e-07 -4.96167e-08  -1.72118e-08 -3.66711e-08 -5.03628e-08  -6.44959e-09 -9.45299e-08 -3.62643e-08  -2.3358e-08 -7.37714e-08 -2.02006e-08  -4.76965e-08 -1.33333e-07 -1.71038e-08  -9.94448e-08 -6.60223e-08 -1.96836e-08  -1.63537e-07 -1.12366e-07 -1.70831e-08  -2.19201e-07 -6.92213e-08 -2.02509e-08  -2.37601e-07 -1.59608e-07 -3.63847e-08  -1.602e-07 -5.42252e-07 -5.06511e-08  6.24518e-08 -7.59492e-08 -5.62657e-08  5.45211e-08 -1.20556e-07 -4.70943e-08  2.82427e-08 -1.20843e-07 -3.63374e-08  -1.71923e-08 -1.92924e-07 -3.43128e-08  -1.10839e-07 -9.47147e-08 -3.64535e-08  -2.33431e-07 -1.61645e-07 -3.43392e-08  -3.52147e-07 -1.18304e-07 -3.64041e-08  -4.23254e-07 -2.55181e-07 -4.7051e-08  -3.99703e-07 -7.08177e-07 -5.69455e-08  1.8702e-07 -8.50464e-08 -6.14474e-08  1.57702e-07 -1.1673e-07 -5.62894e-08  6.75492e-08 -9.86397e-08 -5.03968e-08  -8.47537e-08 -1.53351e-07 -4.95855e-08  -2.76024e-07 -2.49003e-08 -5.14577e-08  -4.88728e-07 -9.12851e-08 -4.95488e-08  -7.11451e-07 -4.80283e-08 -5.05953e-08  -8.79856e-07 -2.3857e-07 -5.68369e-08  -9.35157e-07 -7.62156e-07 -6.24248e-08  
            </DataArray>
            <DataArray type="Float64" Name="Velocity" NumberOfComponents="3" format="ascii">
               8.35413e-07 1.41942e-06 -2.63116e-07  7.24011e-07 8.99911e-07 -2.46318e-07  4.23028e-07 1.264e-07 -2.22241e-07  1.67096e-07 -6.83482e-08 -2.19098e-07  -6.67529e-08 2.01518e-07 -2.24269e-07  -2.54865e-07 1.03332e-07 -2.1868e-07  -3.5756e-07 1.08509e-06 -2.21929e-07  -5.00459e-07 1.17875e-06 -2.43081e-07  -5.74734e-07 7.12862e-07 -2.61268e-07  6.70609e-08 1.24216e-06 -2.45805e-07  1.37866e-07 9.38184e-07 -1.98912e-07  -3.98959e-08 3.07212e-07 -1.51268e-07  -3.18192e-07 5.54534e-08 -1.4687e-07  -5.69249e-07 3.52249e-07 -1.51536e-07  -8.05158e-07 1.96591e-07 -1.46552e-07  -1.01466e-06 1.12053e-06 -1.50605e-07  -1.10384e-06 1.14229e-06 -1.99284e-07  -1.02521e-06 5.89645e-07 -2.42938e-07  -8.81339e-07 8.52192e-07 -2.2173e-07  -6.91727e-07 7.75495e-07 -1.51444e-07  -6.53339e-07 3.55657e-07 -7.71807e-08  -7.66236e-07 1.65978e-07 -7.03164e-08  -9.1138e-07 3.90906e-07 -7.54672e-08  -1.07056e-06 2.44006e-07 -7.03179e-08  -1.28627e-06 1.03258e-06 -7.64631e-08  -1.31932e-06 8.8292e-07 -1.51153e-07  -1.14663e-06 2.95641e-07 -2.21623e-07  -7.43512e-07 5.0454e-07 -2.18736e-07  -6.18084e-07 5.52822e-07 -1.46923e-07  -5.36815e-07 2.60845e-07 -7.02513e-08  -4.70988e-07 1.97301e-07 -6.06219e-08  -4.29206e-07 3.46936e-07 -6.536e-08  -4.61056e-07 2.14575e-07 -6.04819e-08  -4.6768e-07 8.24341e-07 -7.0018e-08  -3.34101e-07 5.35536e-07 -1.4649e-07  -1.74214e-07 6.67081e-08 -2.18837e-07  -7.99738e-07 2.39144e-07 -2.23735e-07  -6.65984e-07 3.64874e-07 -1.51606e-07  -5.90297e-07 1.93481e-07 -7.53671e-08  -5.1183e-07 1.30367e-07 -6.53859e-08  -4.28979e-07 3.24862e-07 -6.95809e-08  -4.11619e-07 1.92194e-07 -6.51606e-08  -4.0933e-07 6.33566e-07 -7.54229e-08  -3.13881e-07 2.72143e-07 -1.50989e-07  -1.7043e-07 -1.06122e-07 -2.23978e-07  -4.4018e-07 1.98233e-09 -2.1843e-07  -3.73841e-07 2.4477e-07 -1.46626e-07  -4.01347e-07 2.34443e-07 -7.03052e-08  -4.10921e-07 7.57529e-08 -6.049e-08  -3.81527e-07 3.12667e-07 -6.51603e-08  -3.61753e-07 1.95081e-07 -6.02377e-08  -3.18019e-07 5.03891e-07 -7.00141e-08  -2.34901e-07 9.44202e-08 -1.4666e-07  -1.21199e-07 -2.9731e-07 -2.18884e-07  -6.40373e-07 -1.2461e-07 -2.20936e-07  -6.35043e-07 2.12409e-07 -1.50655e-07  -5.59778e-07 2.44406e-07 -7.62015e-08  -4.04351e-07 -6.88839e-09 -7.00362e-08  -2.86968e-07 2.70847e-07 -7.53491e-08  -2.44127e-07 1.43501e-07 -6.99762e-08  -2.32967e-07 4.00213e-07 -7.65734e-08  -1.76431e-07 -9.15287e-08 -1.51392e-07  -6.57028e-08 -4.85009e-07 -2.22092e-07  -4.062e-07 -8.51229e-08 -2.42283e-07  -4.64081e-07 2.09434e-07 -1.99505e-07  -4.88958e-07 1.93197e-07 -1.51134e-07  -5.08963e-07 -7.20353e-08 -1.46537e-07  -5.691e-07 2.48422e-07 -1.50996e-07  -6.3142e-07 1.12483e-07 -1.46677e-07  -6.86707e-07 3.37882e-07 -1.51454e-07  -6.87299e-07 -2.30058e-07 -1.99147e-07  -6.36075e-07 -6.26076e-07 -2.46052e-07  6.63618e-08 -1.94085e-08 -2.60756e-07  -1.46638e-08 2.42713e-07 -2.42333e-07  -1.75871e-07 2.42092e-07 -2.20798e-07  -3.87803e-07 -6.42075e-09 -2.18731e-07  -5.67258e-07 3.06112e-07 -2.23666e-07  -7.36819e-07 1.81566e-07 -2.18683e-07  -9.54553e-07 3.93967e-07 -2.21879e-07  -1.1374e-06 -2.2456e-07 -2.45799e-07  -1.20787e-06 -6.64982e-07 -2.62204e-07  
            </DataArray>
            <DataArray type="Float64" Name="Traction" NumberOfComponents="3" format="ascii">
               0 0 0  0 0 0  0 0 0  0 0 0  0 0 0  0 0 0  0 0 0  0 0 0  0 0 0  0 0 0  0 0 0  0 0 0  0 0 0  0 0 0  0 0 0  0 0 0  0 0 0  0 0 0  0 0 0  0 0 0  0 0 0  0 0 0  0 0 0  0 0 0  0 0 0  0 0 0  0 0 0  0 0 0  0 0 0  0 0 0  0 0 0  0 0 0  0 0 0  0 0 0  0 0 0  0 0 0  0 0 0  0 0 0  0 0 0  0 0 0  0 0 0  0 0 0  0 0 0  0 0 0  0 0 0  0 0 0  0 0 0  0 0 0  0 0 0  0 0 0  0 0 0  0 0 0  0 0 0  0 0 0  0 0 0  0 0 0  0 0 0  0 0 0  0 0 0  0 0 0  0 0 0  0 0 0  0 0 0  0 0 0  0 0 0  0 0 0  0 0 0  0 0 0  0 0 0  0 0 0  0 0 0  0 0 0  0 0 0  0 0 0  0 0 0  0 0 0  0 0 0  0 0 0  0 0 0  0 0 0  0 0 0  
            </DataArray>
         </PointData> 
      </Piece>
   </UnstructuredGrid> 
</VTKFile>
