<?xml version="1.0"?>
<VTKFile type="UnstructuredGrid" version="0.1" byte_order="LittleEndian">
   <UnstructuredGrid>
      <Piece NumberOfPoints="81" NumberOfCells="0" > 
         <Points> 
            <DataArray type="Float64" Name="Position" NumberOfComponents="3" format="ascii"> 
               0  0  20  
               0.375  0  20  
               0.75  0  20  
               1.125  0  20  
               1.5  0  20  
               1.875  0  20  
               2.25  0  20  
               2.625  0  20  
               3  0  20  
               0  0.375  20  
               0.375  0.375  20  
               0.75  0.375  20  
               1.125  0.375  20  
               1.5  0.375  20  
               1.875  0.375  20  
               2.25  0.375  20  
               2.625  0.375  20  
               3  0.375  20  
               0  0.75  20  
               0.375  0.75  20  
               0.75  0.75  20  
               1.125  0.75  20  
               1.5  0.75  20  
               1.875  0.75  20  
               2.25  0.75  20  
               2.625  0.75  20  
               3  0.75  20  
               0  1.125  20  
               0.375  1.125  20  
               0.75  1.125  20  
               1.125  1.125  20  
               1.5  1.125  20  
               1.875  1.125  20  
               2.25  1.125  20  
               2.625  1.125  20  
               3  1.125  20  
               0  1.5  20  
               0.375  1.5  20  
               0.75  1.5  20  
               1.125  1.5  20  
               1.5  1.5  20  
               1.875  1.5  20  
               2.25  1.5  20  
               2.625  1.5  20  
               3  1.5  20  
               0  1.875  20  
               0.375  1.875  20  
               0.75  1.875  20  
               1.125  1.875  20  
               1.5  1.875  20  
               1.875  1.875  20  
               2.25  1.875  20  
               2.625  1.875  20  
               3  1.875  20  
               0  2.25  20  
               0.375  2.25  20  
               0.75  2.25  20  
               1.125  2.25  20  
               1.5  2.25  20  
               1.875  2.25  20  
               2.25  2.25  20  
               2.625  2.25  20  
               3  2.25  20  
               0  2.625  20  
               0.375  2.625  20  
               0.75  2.625  20  
               1.125  2.625  20  
               1.5  2.625  20  
               1.875  2.625  20  
               2.25  2.625  20  
               2.625  2.625  20  
               3  2.625  20  
               0  3  20  
               0.375  3  20  
               0.75  3  20  
               1.125  3  20  
               1.5  3  20  
               1.875  3  20  
               2.25  3  20  
               2.625  3  20  
               3  3  20  
            </DataArray>
         </Points> 

         <Cells>
            <DataArray type="Int32" Name="connectivity" NumberOfComponents="1" format="ascii">
               
            </DataArray> 
            <DataArray type="Int32" Name="offsets" NumberOfComponents="1" format="ascii">
               
            </DataArray>
            <DataArray type="UInt8"  Name="types" NumberOfComponents="1" format="ascii">
               
            </DataArray>
         </Cells>
         <PointData Scalars="Rank " Vectors="Displacement Velocity Traction ">
            <DataArray type="UInt32" Name="Rank" NumberOfComponents="1" format="ascii">
               0 0 0 0 0 0 0 0 0 0 0 0 0 0 0 0 0 0 0 0 0 0 0 0 0 0 0 0 0 0 0 0 0 0 0 0 0 0 0 0 0 0 0 0 0 0 0 0 0 0 0 0 0 0 0 0 0 0 0 0 0 0 0 0 0 0 0 0 0 0 0 0 0 0 0 0 0 0 0 0 0 
            </DataArray>
            <DataArray type="Float64" Name="Displacement" NumberOfComponents="3" format="ascii">
               0 0 0  0 0 0  0 0 0  0 0 0  0 0 0  0 0 0  0 0 0  0 0 0  0 0 0  0 0 0  0 0 0  0 0 0  0 0 0  0 0 0  0 0 0  0 0 0  0 0 0  0 0 0  0 0 0  0 0 0  0 0 0  0 0 0  0 0 0  0 0 0  0 0 0  0 0 0  0 0 0  0 0 0  0 0 0  0 0 0  0 0 0  0 0 0  0 0 0  0 0 0  0 0 0  0 0 0  0 0 0  0 0 0  0 0 0  0 0 0  0 0 0  0 0 0  0 0 0  0 0 0  0 0 0  0 0 0  0 0 0  0 0 0  0 0 0  0 0 0  0 0 0  0 0 0  0 0 0  0 0 0  0 0 0  0 0 0  0 0 0  0 0 0  0 0 0  0 0 0  0 0 0  0 0 0  0 0 0  0 0 0  0 0 0  0 0 0  0 0 0  0 0 0  0 0 0  0 0 0  0 0 0  0 0 0  0 0 0  0 0 0  0 0 0  0 0 0  0 0 0  0 0 0  0 0 0  0 0 0  0 0 0  
            </DataArray>
            <DataArray type="Float64" Name="Velocity" NumberOfComponents="3" format="ascii">
               0 0 0  0 0 0  0 0 0  0 0 0  0 0 0  0 0 0  0 0 0  0 0 0  0 0 0  0 0 0  0 0 0  0 0 0  0 0 0  0 0 0  0 0 0  0 0 0  0 0 0  0 0 0  0 0 0  0 0 0  0 0 0  0 0 0  0 0 0  0 0 0  0 0 0  0 0 0  0 0 0  0 0 0  0 0 0  0 0 0  0 0 0  0 0 0  0 0 0  0 0 0  0 0 0  0 0 0  0 0 0  0 0 0  0 0 0  0 0 0  0 0 0  0 0 0  0 0 0  0 0 0  0 0 0  0 0 0  0 0 0  0 0 0  0 0 0  0 0 0  0 0 0  0 0 0  0 0 0  0 0 0  0 0 0  0 0 0  0 0 0  0 0 0  0 0 0  0 0 0  0 0 0  0 0 0  0 0 0  0 0 0  0 0 0  0 0 0  0 0 0  0 0 0  0 0 0  0 0 0  0 0 0  0 0 0  0 0 0  0 0 0  0 0 0  0 0 0  0 0 0  0 0 0  0 0 0  0 0 0  0 0 0  
            </DataArray>
            <DataArray type="Float64" Name="Traction" NumberOfComponents="3" format="ascii">
               -0.00148011 -0.00148196 -0.0135877  -0.00133972 -0.00264508 -0.0135877  -0.000882478 -0.00356416 -0.0135877  -7.9628e-05 -0.00344401 -0.0135877  -0.000302591 -0.00342311 -0.0135877  0.00095384 -0.00355655 -0.0135877  0.00306018 -0.00310477 -0.0135877  0.000346124 -0.00107391 -0.0135877  -0.00126672 -0.000436341 -0.0135877  -0.00263906 -0.00134423 -0.0135877  -0.00198257 -0.00198888 -0.0135877  -0.00115955 -0.00276577 -0.0135877  -0.000368108 -0.00289897 -0.0135877  -0.000568714 -0.00301617 -0.0135877  0.000433403 -0.00277625 -0.0135877  0.0033767 -0.00288739 -0.0135877  0.00175041 -0.00187046 -0.0135877  0.000627644 -0.00121778 -0.0135877  -0.00355743 -0.000885772 -0.0135877  -0.00275868 -0.0011626 -0.0135877  -0.00170551 -0.00170883 -0.0135877  -0.000311532 -0.0021205 -0.0135877  -0.000309234 -0.00217824 -0.0135877  0.000374669 -0.00201031 -0.0135877  0.00351771 -0.00207851 -0.0135877  0.00282323 -0.00190067 -0.0135877  0.00288327 -0.00200361 -0.0135877  -0.00343916 -8.7256e-05 -0.0135877  -0.00289348 -0.00037395 -0.0135877  -0.00211746 -0.000316645 -0.0135877  -0.000620146 -0.000625275 -0.0135877  -0.000205053 -0.000542148 -0.0135877  0.000621426 -0.000635703 -0.0135877  0.00324444 -0.000499719 -0.0135877  0.0027068 -0.000508488 -0.0135877  0.00335031 -0.000573675 -0.0135877  -0.00341856 -0.000313018 -0.0135877  -0.00301101 -0.000578059 -0.0135877  -0.00217578 -0.000316785 -0.0135877  -0.000537128 -0.000211794 -0.0135877  -0.000361577 -0.000368517 -0.0135877  0.000446766 -0.000351128 -0.0135877  0.00328277 -0.000373745 -0.0135877  0.00278553 -0.000219048 -0.0135877  0.00306104 -0.000591165 -0.0135877  -0.00355198 0.000947246 -0.0135877  -0.00277018 0.000426386 -0.0135877  -0.00200712 0.000368058 -0.0135877  -0.000630637 0.00061527 -0.0135877  -0.000343767 0.000441266 -0.0135877  0.000575167 0.000568552 -0.0135877  0.00334936 0.000236254 -0.0135877  0.00279587 0.0003843 -0.0135877  0.00331601 -0.00032136 -0.0135877  -0.00309725 0.00305103 -0.0135877  -0.00288133 0.00336849 -0.0135877  -0.00207605 0.00350799 -0.0135877  -0.000493821 0.00323296 -0.0135877  -0.000366075 0.00327241 -0.0135877  0.00024258 0.00333816 -0.0135877  0.00294708 0.00293607 -0.0135877  0.00263967 0.00223408 -0.0135877  0.00332284 0.00178034 -0.0135877  -0.00106022 0.000334007 -0.0135877  -0.00186156 0.00174039 -0.0135877  -0.00189826 0.00281502 -0.0135877  -0.000501649 0.00269815 -0.0135877  -0.000209941 0.00277777 -0.0135877  0.000391721 0.00278703 -0.0135877  0.00224424 0.00262788 -0.0135877  0.00192251 0.00191301 -0.0135877  0.00240992 0.0014181 -0.0135877  -0.00041638 -0.00128043 -0.0135877  -0.00120296 0.000615687 -0.0135877  -0.00199943 0.00287692 -0.0135877  -0.000566848 0.00334654 -0.0135877  -0.000582068 0.00305706 -0.0135877  -0.000314698 0.00331126 -0.0135877  0.00179198 0.00331368 -0.0135877  0.00142516 0.00240134 -0.0135877  0.00143782 0.00143478 -0.0135877  
            </DataArray>
         </PointData> 
      </Piece>
   </UnstructuredGrid> 
</VTKFile>
