<?xml version="1.0"?>
<VTKFile type="UnstructuredGrid" version="0.1" byte_order="LittleEndian">
   <UnstructuredGrid>
      <Piece NumberOfPoints="81" NumberOfCells="0" > 
         <Points> 
            <DataArray type="Float64" Name="Position" NumberOfComponents="3" format="ascii"> 
               0  0  20  
               0.375  0  20  
               0.75  0  20  
               1.125  0  20  
               1.5  0  20  
               1.875  0  20  
               2.25  0  20  
               2.625  0  20  
               3  0  20  
               0  0.375  20  
               0.375  0.375  20  
               0.75  0.375  20  
               1.125  0.375  20  
               1.5  0.375  20  
               1.875  0.375  20  
               2.25  0.375  20  
               2.625  0.375  20  
               3  0.375  20  
               0  0.75  20  
               0.375  0.75  20  
               0.75  0.75  20  
               1.125  0.75  20  
               1.5  0.75  20  
               1.875  0.75  20  
               2.25  0.75  20  
               2.625  0.75  20  
               3  0.75  20  
               0  1.125  20  
               0.375  1.125  20  
               0.75  1.125  20  
               1.125  1.125  20  
               1.5  1.125  20  
               1.875  1.125  20  
               2.25  1.125  20  
               2.625  1.125  20  
               3  1.125  20  
               0  1.5  20  
               0.375  1.5  20  
               0.75  1.5  20  
               1.125  1.5  20  
               1.5  1.5  20  
               1.875  1.5  20  
               2.25  1.5  20  
               2.625  1.5  20  
               3  1.5  20  
               0  1.875  20  
               0.375  1.875  20  
               0.75  1.875  20  
               1.125  1.875  20  
               1.5  1.875  20  
               1.875  1.875  20  
               2.25  1.875  20  
               2.625  1.875  20  
               3  1.875  20  
               0  2.25  20  
               0.375  2.25  20  
               0.75  2.25  20  
               1.125  2.25  20  
               1.5  2.25  20  
               1.875  2.25  20  
               2.25  2.25  20  
               2.625  2.25  20  
               3  2.25  20  
               0  2.625  20  
               0.375  2.625  20  
               0.75  2.625  20  
               1.125  2.625  20  
               1.5  2.625  20  
               1.875  2.625  20  
               2.25  2.625  20  
               2.625  2.625  20  
               3  2.625  20  
               0  3  20  
               0.375  3  20  
               0.75  3  20  
               1.125  3  20  
               1.5  3  20  
               1.875  3  20  
               2.25  3  20  
               2.625  3  20  
               3  3  20  
            </DataArray>
         </Points> 

         <Cells>
            <DataArray type="Int32" Name="connectivity" NumberOfComponents="1" format="ascii">
               
            </DataArray> 
            <DataArray type="Int32" Name="offsets" NumberOfComponents="1" format="ascii">
               
            </DataArray>
            <DataArray type="UInt8"  Name="types" NumberOfComponents="1" format="ascii">
               
            </DataArray>
         </Cells>
         <PointData Scalars="Rank " Vectors="Displacement Velocity Traction ">
            <DataArray type="UInt32" Name="Rank" NumberOfComponents="1" format="ascii">
               0 0 0 0 0 0 0 0 0 0 0 0 0 0 0 0 0 0 0 0 0 0 0 0 0 0 0 0 0 0 0 0 0 0 0 0 0 0 0 0 0 0 0 0 0 0 0 0 0 0 0 0 0 0 0 0 0 0 0 0 0 0 0 0 0 0 0 0 0 0 0 0 0 0 0 0 0 0 0 0 0 
            </DataArray>
            <DataArray type="Float64" Name="Displacement" NumberOfComponents="3" format="ascii">
               0 0 0  0 0 0  0 0 0  0 0 0  0 0 0  0 0 0  0 0 0  0 0 0  0 0 0  0 0 0  0 0 0  0 0 0  0 0 0  0 0 0  0 0 0  0 0 0  0 0 0  0 0 0  0 0 0  0 0 0  0 0 0  0 0 0  0 0 0  0 0 0  0 0 0  0 0 0  0 0 0  0 0 0  0 0 0  0 0 0  0 0 0  0 0 0  0 0 0  0 0 0  0 0 0  0 0 0  0 0 0  0 0 0  0 0 0  0 0 0  0 0 0  0 0 0  0 0 0  0 0 0  0 0 0  0 0 0  0 0 0  0 0 0  0 0 0  0 0 0  0 0 0  0 0 0  0 0 0  0 0 0  0 0 0  0 0 0  0 0 0  0 0 0  0 0 0  0 0 0  0 0 0  0 0 0  0 0 0  0 0 0  0 0 0  0 0 0  0 0 0  0 0 0  0 0 0  0 0 0  0 0 0  0 0 0  0 0 0  0 0 0  0 0 0  0 0 0  0 0 0  0 0 0  0 0 0  0 0 0  0 0 0  
            </DataArray>
            <DataArray type="Float64" Name="Velocity" NumberOfComponents="3" format="ascii">
               0 0 0  0 0 0  0 0 0  0 0 0  0 0 0  0 0 0  0 0 0  0 0 0  0 0 0  0 0 0  0 0 0  0 0 0  0 0 0  0 0 0  0 0 0  0 0 0  0 0 0  0 0 0  0 0 0  0 0 0  0 0 0  0 0 0  0 0 0  0 0 0  0 0 0  0 0 0  0 0 0  0 0 0  0 0 0  0 0 0  0 0 0  0 0 0  0 0 0  0 0 0  0 0 0  0 0 0  0 0 0  0 0 0  0 0 0  0 0 0  0 0 0  0 0 0  0 0 0  0 0 0  0 0 0  0 0 0  0 0 0  0 0 0  0 0 0  0 0 0  0 0 0  0 0 0  0 0 0  0 0 0  0 0 0  0 0 0  0 0 0  0 0 0  0 0 0  0 0 0  0 0 0  0 0 0  0 0 0  0 0 0  0 0 0  0 0 0  0 0 0  0 0 0  0 0 0  0 0 0  0 0 0  0 0 0  0 0 0  0 0 0  0 0 0  0 0 0  0 0 0  0 0 0  0 0 0  0 0 0  0 0 0  
            </DataArray>
            <DataArray type="Float64" Name="Traction" NumberOfComponents="3" format="ascii">
               -1.51491e-06 -1.51719e-06 -1.12591e-05  -3.0471e-07 -2.86707e-06 -1.12591e-05  4.83381e-08 -3.44908e-06 -1.12591e-05  6.15982e-08 -3.57218e-06 -1.12591e-05  -8.2541e-09 -3.45185e-06 -1.12591e-05  1.1678e-07 -3.60044e-06 -1.12591e-05  9.83086e-07 -3.39977e-06 -1.12591e-05  8.63754e-07 -2.14313e-06 -1.12591e-05  1.55033e-06 -1.98037e-06 -1.12591e-05  -2.86473e-06 -3.05672e-07 -1.12591e-05  -1.32163e-06 -1.32324e-06 -1.12591e-05  -3.39238e-07 -1.83361e-06 -1.12591e-05  -5.05447e-08 -1.979e-06 -1.12591e-05  -1.64433e-07 -1.96424e-06 -1.12591e-05  4.75423e-08 -1.96136e-06 -1.12591e-05  1.19942e-06 -2.01749e-06 -1.12591e-05  1.22221e-06 -1.22758e-06 -1.12591e-05  2.10556e-06 -1.09982e-06 -1.12591e-05  -3.44437e-06 4.79956e-08 -1.12591e-05  -1.83049e-06 -3.39627e-07 -1.12591e-05  -6.14118e-07 -6.14811e-07 -1.12591e-05  -4.13304e-08 -7.88902e-07 -1.12591e-05  -1.29282e-07 -7.72366e-07 -1.12591e-05  6.62703e-08 -7.63769e-07 -1.12591e-05  1.64059e-06 -7.77191e-07 -1.12591e-05  1.90577e-06 -5.07697e-07 -1.12591e-05  3.25304e-06 -5.47033e-07 -1.12591e-05  -3.56826e-06 6.13749e-08 -1.12591e-05  -1.97902e-06 -5.06787e-08 -1.12591e-05  -7.90706e-07 -4.11452e-08 -1.12591e-05  -1.59903e-07 -1.58825e-07 -1.12591e-05  -1.92998e-07 -1.05232e-07 -1.12591e-05  1.42044e-07 -1.54298e-07 -1.12591e-05  1.61785e-06 -6.9529e-08 -1.12591e-05  1.93827e-06 -6.65299e-08 -1.12591e-05  3.54684e-06 4.04819e-08 -1.12591e-05  -3.4423e-06 -5.70808e-09 -1.12591e-05  -1.95579e-06 -1.61328e-07 -1.12591e-05  -7.68192e-07 -1.26706e-07 -1.12591e-05  -1.04951e-07 -1.89538e-07 -1.12591e-05  -2.38361e-07 -2.3604e-07 -1.12591e-05  5.13438e-08 -2.07967e-07 -1.12591e-05  1.53804e-06 -2.48033e-07 -1.12591e-05  1.84741e-06 -1.4847e-07 -1.12591e-05  3.29961e-06 -3.18555e-07 -1.12591e-05  -3.60658e-06 1.19575e-07 -1.12591e-05  -1.96728e-06 5.10597e-08 -1.12591e-05  -7.69018e-07 6.86652e-08 -1.12591e-05  -1.58848e-07 1.46256e-07 -1.12591e-05  -2.12586e-07 5.27111e-08 -1.12591e-05  1.49943e-07 1.52775e-07 -1.12591e-05  1.64497e-06 -4.19612e-08 -1.12591e-05  1.94548e-06 8.48554e-08 -1.12591e-05  3.5239e-06 -2.40818e-07 -1.12591e-05  -3.40045e-06 9.88728e-07 -1.12591e-05  -2.01698e-06 1.19868e-06 -1.12591e-05  -7.7692e-07 1.63723e-06 -1.12591e-05  -7.38818e-08 1.6236e-06 -1.12591e-05  -2.53285e-07 1.53683e-06 -1.12591e-05  -4.59676e-08 1.64928e-06 -1.12591e-05  1.38897e-06 1.39322e-06 -1.12591e-05  1.8066e-06 8.43925e-07 -1.12591e-05  3.40448e-06 3.83665e-07 -1.12591e-05  -2.15021e-06 8.76273e-07 -1.12591e-05  -1.23111e-06 1.224e-06 -1.12591e-05  -5.09601e-07 1.9011e-06 -1.12591e-05  -7.17189e-08 1.9444e-06 -1.12591e-05  -1.52515e-07 1.84255e-06 -1.12591e-05  8.29959e-08 1.94794e-06 -1.12591e-05  8.42553e-07 1.80857e-06 -1.12591e-05  1.31432e-06 1.31424e-06 -1.12591e-05  2.83758e-06 3.60104e-07 -1.12591e-05  -1.99599e-06 1.56677e-06 -1.12591e-05  -1.11189e-06 2.11178e-06 -1.12591e-05  -5.52903e-07 3.25018e-06 -1.12591e-05  3.73228e-08 3.55359e-06 -1.12591e-05  -3.19577e-07 3.29478e-06 -1.12591e-05  -2.40912e-07 3.52327e-06 -1.12591e-05  3.83658e-07 3.40451e-06 -1.12591e-05  3.61578e-07 2.83607e-06 -1.12591e-05  1.54753e-06 1.54429e-06 -1.12591e-05  
            </DataArray>
         </PointData> 
      </Piece>
   </UnstructuredGrid> 
</VTKFile>
