<?xml version="1.0"?>
<VTKFile type="UnstructuredGrid" version="0.1" byte_order="LittleEndian">
   <UnstructuredGrid>
      <Piece NumberOfPoints="81" NumberOfCells="0" > 
         <Points> 
            <DataArray type="Float64" Name="Position" NumberOfComponents="3" format="ascii"> 
               0  0  20  
               0.375  0  20  
               0.75  0  20  
               1.125  0  20  
               1.5  0  20  
               1.875  0  20  
               2.25  0  20  
               2.625  0  20  
               3  0  20  
               0  0.375  20  
               0.375  0.375  20  
               0.75  0.375  20  
               1.125  0.375  20  
               1.5  0.375  20  
               1.875  0.375  20  
               2.25  0.375  20  
               2.625  0.375  20  
               3  0.375  20  
               0  0.75  20  
               0.375  0.75  20  
               0.75  0.75  20  
               1.125  0.75  20  
               1.5  0.75  20  
               1.875  0.75  20  
               2.25  0.75  20  
               2.625  0.75  20  
               3  0.75  20  
               0  1.125  20  
               0.375  1.125  20  
               0.75  1.125  20  
               1.125  1.125  20  
               1.5  1.125  20  
               1.875  1.125  20  
               2.25  1.125  20  
               2.625  1.125  20  
               3  1.125  20  
               0  1.5  20  
               0.375  1.5  20  
               0.75  1.5  20  
               1.125  1.5  20  
               1.5  1.5  20  
               1.875  1.5  20  
               2.25  1.5  20  
               2.625  1.5  20  
               3  1.5  20  
               0  1.875  20  
               0.375  1.875  20  
               0.75  1.875  20  
               1.125  1.875  20  
               1.5  1.875  20  
               1.875  1.875  20  
               2.25  1.875  20  
               2.625  1.875  20  
               3  1.875  20  
               0  2.25  20  
               0.375  2.25  20  
               0.75  2.25  20  
               1.125  2.25  20  
               1.5  2.25  20  
               1.875  2.25  20  
               2.25  2.25  20  
               2.625  2.25  20  
               3  2.25  20  
               0  2.625  20  
               0.375  2.625  20  
               0.75  2.625  20  
               1.125  2.625  20  
               1.5  2.625  20  
               1.875  2.625  20  
               2.25  2.625  20  
               2.625  2.625  20  
               3  2.625  20  
               0  3  20  
               0.375  3  20  
               0.75  3  20  
               1.125  3  20  
               1.5  3  20  
               1.875  3  20  
               2.25  3  20  
               2.625  3  20  
               3  3  20  
            </DataArray>
         </Points> 

         <Cells>
            <DataArray type="Int32" Name="connectivity" NumberOfComponents="1" format="ascii">
               
            </DataArray> 
            <DataArray type="Int32" Name="offsets" NumberOfComponents="1" format="ascii">
               
            </DataArray>
            <DataArray type="UInt8"  Name="types" NumberOfComponents="1" format="ascii">
               
            </DataArray>
         </Cells>
         <PointData Scalars="Rank " Vectors="Displacement Velocity Traction ">
            <DataArray type="UInt32" Name="Rank" NumberOfComponents="1" format="ascii">
               0 0 0 0 0 0 0 0 0 0 0 0 0 0 0 0 0 0 0 0 0 0 0 0 0 0 0 0 0 0 0 0 0 0 0 0 0 0 0 0 0 0 0 0 0 0 0 0 0 0 0 0 0 0 0 0 0 0 0 0 0 0 0 0 0 0 0 0 0 0 0 0 0 0 0 0 0 0 0 0 0 
            </DataArray>
            <DataArray type="Float64" Name="Displacement" NumberOfComponents="3" format="ascii">
               3.87568e-06 3.8972e-06 -1.37566e-05  1.30502e-06 5.24268e-06 -1.40389e-05  3.22694e-07 6.34332e-06 -1.30446e-05  -7.86514e-08 6.43588e-06 -1.26491e-05  -4.01358e-07 6.44039e-06 -1.26119e-05  -9.97446e-07 6.65069e-06 -1.23573e-05  -1.96451e-06 6.18326e-06 -1.28631e-05  -1.61416e-06 4.30059e-06 -1.38912e-05  -2.88689e-06 4.467e-06 -1.2935e-05  5.22251e-06 1.32262e-06 -1.40285e-05  2.28208e-06 2.30006e-06 -1.34615e-05  9.16903e-07 2.98981e-06 -1.20446e-05  2.59049e-07 3.13235e-06 -1.16903e-05  4.46987e-08 3.30363e-06 -1.16551e-05  -3.66404e-07 3.16875e-06 -1.14841e-05  -1.6244e-06 3.27835e-06 -1.20687e-05  -2.27697e-06 2.36186e-06 -1.38437e-05  -4.1546e-06 2.63196e-06 -1.36612e-05  6.32348e-06 3.37552e-07 -1.30389e-05  2.97491e-06 9.34054e-07 -1.20475e-05  1.40268e-06 1.41856e-06 -9.7464e-06  1.51988e-07 1.73011e-06 -9.13976e-06  -3.70468e-08 1.77938e-06 -9.13807e-06  -2.71803e-07 1.77139e-06 -9.07523e-06  -1.84423e-06 1.91984e-06 -9.73735e-06  -3.10658e-06 1.52571e-06 -1.20966e-05  -5.98093e-06 1.95737e-06 -1.27673e-05  6.41306e-06 -6.25095e-08 -1.26405e-05  3.11413e-06 2.75966e-07 -1.16918e-05  1.71355e-06 1.703e-07 -9.13846e-06  4.53317e-07 4.71086e-07 -8.31043e-06  -4.68424e-09 3.96984e-07 -8.29086e-06  -4.27848e-07 5.27612e-07 -8.30727e-06  -1.68651e-06 4.36688e-07 -9.10453e-06  -3.03453e-06 4.7456e-07 -1.15459e-05  -6.45319e-06 6.62551e-07 -1.23427e-05  6.41912e-06 -3.86451e-07 -1.26026e-05  3.2855e-06 5.9232e-08 -1.16561e-05  1.76195e-06 -2.10346e-08 -9.13622e-06  3.77863e-07 1.12283e-08 -8.29053e-06  9.69363e-08 1.13688e-07 -8.31494e-06  -1.82994e-07 9.93987e-08 -8.28634e-06  -1.55494e-06 2.30109e-07 -9.12377e-06  -2.95865e-06 1.21152e-07 -1.163e-05  -6.00443e-06 6.46999e-07 -1.24908e-05  6.6269e-06 -9.79481e-07 -1.23494e-05  3.1491e-06 -3.49809e-07 -1.14865e-05  1.75306e-06 -2.53772e-07 -9.0741e-06  5.08184e-07 -4.10452e-07 -8.30739e-06  8.30589e-08 -1.64677e-07 -8.28688e-06  -3.74315e-07 -3.57484e-07 -8.28625e-06  -1.66353e-06 6.30753e-08 -9.11243e-06  -3.0028e-06 -2.1704e-07 -1.16401e-05  -6.30848e-06 6.2899e-07 -1.24939e-05  6.16308e-06 -1.94561e-06 -1.28538e-05  3.25966e-06 -1.60697e-06 -1.20688e-05  1.90124e-06 -1.82584e-06 -9.73465e-06  4.17954e-07 -1.67072e-06 -9.1029e-06  2.14348e-07 -1.53905e-06 -9.12237e-06  4.64027e-08 -1.6478e-06 -9.11092e-06  -1.27866e-06 -1.26406e-06 -9.74065e-06  -2.85529e-06 -9.17846e-07 -1.20613e-05  -6.21033e-06 -2.74842e-07 -1.29682e-05  4.28206e-06 -1.59974e-06 -1.38853e-05  2.3439e-06 -2.2624e-06 -1.38459e-05  1.50768e-06 -3.08971e-06 -1.2097e-05  4.57542e-07 -3.01956e-06 -1.15484e-05  1.071e-07 -2.94502e-06 -1.16322e-05  -2.3177e-07 -2.98831e-06 -1.16418e-05  -9.32981e-07 -2.84347e-06 -1.20644e-05  -2.20267e-06 -2.18918e-06 -1.35072e-05  -5.10206e-06 -1.35714e-06 -1.4e-05  4.44801e-06 -2.87284e-06 -1.2926e-05  2.61457e-06 -4.14163e-06 -1.36584e-05  1.93877e-06 -5.96463e-06 -1.27602e-05  6.45393e-07 -6.43464e-06 -1.23377e-05  6.33317e-07 -5.98908e-06 -1.24865e-05  6.13224e-07 -6.29303e-06 -1.24897e-05  -2.89848e-07 -6.19619e-06 -1.29672e-05  -1.3728e-06 -5.08911e-06 -1.39946e-05  -3.89599e-06 -3.87765e-06 -1.36698e-05  
            </DataArray>
            <DataArray type="Float64" Name="Velocity" NumberOfComponents="3" format="ascii">
               6.46272e-06 6.47954e-06 -2.29942e-05  2.26371e-06 8.69275e-06 -2.35309e-05  7.9266e-07 1.05815e-05 -2.19827e-05  -8.04763e-08 1.0674e-05 -2.13863e-05  -5.64547e-07 1.06822e-05 -2.13258e-05  -1.54324e-06 1.10219e-05 -2.09071e-05  -3.17741e-06 1.03043e-05 -2.1728e-05  -2.42898e-06 7.1851e-06 -2.33357e-05  -4.6007e-06 7.18103e-06 -2.15364e-05  8.64595e-06 2.27285e-06 -2.34957e-05  3.71789e-06 3.74851e-06 -2.26385e-05  1.75644e-06 4.8506e-06 -2.03067e-05  4.61025e-07 5.06293e-06 -1.97631e-05  1.22925e-07 5.34299e-06 -1.97176e-05  -5.28836e-07 5.11102e-06 -1.94275e-05  -2.8068e-06 5.30548e-06 -2.03524e-05  -3.65721e-06 3.8574e-06 -2.32912e-05  -6.87572e-06 4.14203e-06 -2.29165e-05  1.05387e-05 8.08439e-07 -2.19514e-05  4.82743e-06 1.77817e-06 -2.03065e-05  2.56438e-06 2.58272e-06 -1.64626e-05  2.8052e-07 3.05197e-06 -1.55255e-05  -3.05249e-08 3.1072e-06 -1.55677e-05  -3.91517e-07 3.09682e-06 -1.54353e-05  -3.22228e-06 3.37851e-06 -1.64376e-05  -5.02801e-06 2.70328e-06 -2.03994e-05  -9.97604e-06 3.27869e-06 -2.15495e-05  1.06287e-05 -5.21668e-08 -2.13571e-05  5.03625e-06 4.8716e-07 -1.97652e-05  3.03527e-06 3.09773e-07 -1.55269e-05  7.64022e-07 7.89452e-07 -1.42504e-05  1.65887e-08 6.81035e-07 -1.42687e-05  -6.42526e-07 8.73754e-07 -1.42789e-05  -2.91273e-06 7.63964e-07 -1.54883e-05  -4.8827e-06 8.14194e-07 -1.95457e-05  -1.0715e-05 1.15929e-06 -2.09075e-05  1.06385e-05 -5.39592e-07 -2.12931e-05  5.31693e-06 1.49705e-07 -1.97192e-05  3.08814e-06 -1.04477e-09 -1.55678e-05  6.5002e-07 4.21783e-08 -1.42682e-05  1.74951e-07 2.07101e-07 -1.43321e-05  -2.86337e-07 1.77719e-07 -1.42662e-05  -2.72915e-06 4.14196e-07 -1.5544e-05  -4.78942e-06 2.35806e-07 -1.96914e-05  -1.00088e-05 1.03219e-06 -2.11392e-05  1.09702e-05 -1.51612e-06 -2.08719e-05  5.07814e-06 -5.01979e-07 -1.94288e-05  3.07528e-06 -3.60316e-07 -1.54349e-05  8.41115e-07 -6.14965e-07 -1.42774e-05  1.45584e-07 -2.48831e-07 -1.42663e-05  -5.88806e-07 -5.53563e-07 -1.42324e-05  -2.91348e-06 1.21487e-07 -1.54888e-05  -4.8412e-06 -3.29262e-07 -1.96903e-05  -1.04597e-05 9.53459e-07 -2.11284e-05  1.0264e-05 -3.14578e-06 -2.16966e-05  5.2765e-06 -2.79063e-06 -2.03536e-05  3.35783e-06 -3.20296e-06 -1.64391e-05  7.30978e-07 -2.89646e-06 -1.54881e-05  3.79415e-07 -2.70531e-06 -1.5544e-05  8.16475e-08 -2.88547e-06 -1.54893e-05  -2.33282e-06 -2.30416e-06 -1.64472e-05  -4.6159e-06 -1.71671e-06 -2.03334e-05  -1.03296e-05 -7.13898e-07 -2.18451e-05  7.13811e-06 -2.3853e-06 -2.33073e-05  3.82574e-06 -3.63389e-06 -2.32936e-05  2.68085e-06 -4.99948e-06 -2.04022e-05  7.80669e-07 -4.85534e-06 -1.95501e-05  2.02387e-07 -4.76208e-06 -1.96975e-05  -3.65154e-07 -4.80618e-06 -1.96952e-05  -1.749e-06 -4.58634e-06 -2.03373e-05  -3.57416e-06 -3.5369e-06 -2.27172e-05  -8.42524e-06 -2.3343e-06 -2.34468e-05  7.13094e-06 -4.53921e-06 -2.14695e-05  4.10036e-06 -6.84043e-06 -2.28888e-05  3.24237e-06 -9.93508e-06 -2.15168e-05  1.12433e-06 -1.06649e-05 -2.08717e-05  9.94421e-07 -9.9622e-06 -2.11056e-05  9.08956e-07 -1.04041e-05 -2.10937e-05  -7.39128e-07 -1.02772e-05 -2.18151e-05  -2.35024e-06 -8.37375e-06 -2.34118e-05  -6.45053e-06 -6.42168e-06 -2.27961e-05  
            </DataArray>
            <DataArray type="Float64" Name="Traction" NumberOfComponents="3" format="ascii">
               -3.18115e-05 -3.19266e-05 -0.000695287  -1.59795e-05 -5.76141e-05 -0.000695287  -7.97486e-06 -7.18718e-05 -0.000695287  -9.0522e-07 -7.0619e-05 -0.000695287  -2.58423e-06 -7.07012e-05 -0.000695287  1.06568e-05 -7.21532e-05 -0.000695287  3.96569e-05 -6.6068e-05 -0.000695287  1.52846e-05 -3.61633e-05 -0.000695287  9.61615e-06 -2.93884e-05 -0.000695287  -5.75052e-05 -1.59162e-05 -0.000695287  -3.30057e-05 -3.29715e-05 -0.000695287  -1.3659e-05 -4.70665e-05 -0.000695287  -4.0862e-06 -4.93328e-05 -0.000695287  -6.30211e-06 -5.09277e-05 -0.000695287  4.80489e-06 -4.83028e-05 -0.000695287  4.35004e-05 -4.8794e-05 -0.000695287  3.05178e-05 -3.15434e-05 -0.000695287  3.20158e-05 -2.53446e-05 -0.000695287  -7.18061e-05 -7.92575e-06 -0.000695287  -4.71545e-05 -1.36256e-05 -0.000695287  -2.28426e-05 -2.27802e-05 -0.000695287  -3.75561e-06 -2.9177e-05 -0.000695287  -3.95185e-06 -3.00536e-05 -0.000695287  4.83673e-06 -2.8401e-05 -0.000695287  5.05706e-05 -2.82069e-05 -0.000695287  4.7079e-05 -2.26088e-05 -0.000695287  6.26437e-05 -2.50177e-05 -0.000695287  -7.04944e-05 -8.72369e-07 -0.000695287  -4.93791e-05 -4.06438e-06 -0.000695287  -2.92318e-05 -3.74308e-06 -0.000695287  -8.05357e-06 -8.03635e-06 -0.000695287  -3.60675e-06 -6.88382e-06 -0.000695287  7.78182e-06 -8.04865e-06 -0.000695287  4.94683e-05 -6.02182e-06 -0.000695287  4.73616e-05 -5.45803e-06 -0.000695287  6.94843e-05 -5.90055e-06 -0.000695287  -7.0578e-05 -2.51547e-06 -0.000695287  -5.0963e-05 -6.22212e-06 -0.000695287  -3.01033e-05 -3.90492e-06 -0.000695287  -6.91868e-06 -3.55696e-06 -0.000695287  -5.44494e-06 -5.369e-06 -0.000695287  5.22896e-06 -4.64365e-06 -0.000695287  4.89165e-05 -5.08722e-06 -0.000695287  4.7486e-05 -2.25183e-06 -0.000695287  6.54214e-05 -7.86765e-06 -0.000695287  -7.20464e-05 1.06464e-05 -0.000695287  -4.83833e-05 4.82109e-06 -0.000695287  -2.8485e-05 4.81324e-06 -0.000695287  -8.09713e-06 7.77765e-06 -0.000695287  -4.72619e-06 5.23766e-06 -0.000695287  7.50284e-06 7.53115e-06 -0.000695287  5.04833e-05 2.04923e-06 -0.000695287  4.79897e-05 4.52007e-06 -0.000695287  6.85391e-05 -4.12856e-06 -0.000695287  -6.59413e-05 3.97158e-05 -0.000695287  -4.88166e-05 4.35632e-05 -0.000695287  -2.82397e-05 5.05908e-05 -0.000695287  -6.05959e-06 4.95791e-05 -0.000695287  -5.16066e-06 4.90151e-05 -0.000695287  2.0206e-06 5.0598e-05 -0.000695287  4.31063e-05 4.32217e-05 -0.000695287  4.59067e-05 2.84534e-05 -0.000695287  6.96346e-05 1.96357e-05 -0.000695287  -3.61559e-05 1.53364e-05 -0.000695287  -3.16393e-05 3.05401e-05 -0.000695287  -2.26779e-05 4.69805e-05 -0.000695287  -5.53141e-06 4.7356e-05 -0.000695287  -2.35327e-06 4.74834e-05 -0.000695287  4.46868e-06 4.80207e-05 -0.000695287  2.83391e-05 4.59714e-05 -0.000695287  3.22737e-05 3.23187e-05 -0.000695287  5.53201e-05 1.71648e-05 -0.000695287  -2.9393e-05 9.59111e-06 -0.000695287  -2.54689e-05 3.1974e-05 -0.000695287  -2.50788e-05 6.242e-05 -0.000695287  -5.95674e-06 6.93022e-05 -0.000695287  -7.97694e-06 6.52931e-05 -0.000695287  -4.18025e-06 6.84623e-05 -0.000695287  1.94709e-05 6.96004e-05 -0.000695287  1.71024e-05 5.52875e-05 -0.000695287  3.15881e-05 3.15229e-05 -0.000695287  
            </DataArray>
         </PointData> 
      </Piece>
   </UnstructuredGrid> 
</VTKFile>
