<?xml version="1.0"?>
<VTKFile type="UnstructuredGrid" version="0.1" byte_order="LittleEndian">
   <UnstructuredGrid>
      <Piece NumberOfPoints="81" NumberOfCells="0" > 
         <Points> 
            <DataArray type="Float64" Name="Position" NumberOfComponents="3" format="ascii"> 
               0  0  20  
               0.375  0  20  
               0.75  0  20  
               1.125  0  20  
               1.5  0  20  
               1.875  0  20  
               2.25  0  20  
               2.625  0  20  
               3  0  20  
               0  0.375  20  
               0.375  0.375  20  
               0.75  0.375  20  
               1.125  0.375  20  
               1.5  0.375  20  
               1.875  0.375  20  
               2.25  0.375  20  
               2.625  0.375  20  
               3  0.375  20  
               0  0.75  20  
               0.375  0.75  20  
               0.75  0.75  20  
               1.125  0.75  20  
               1.5  0.75  20  
               1.875  0.75  20  
               2.25  0.75  20  
               2.625  0.75  20  
               3  0.75  20  
               0  1.125  20  
               0.375  1.125  20  
               0.75  1.125  20  
               1.125  1.125  20  
               1.5  1.125  20  
               1.875  1.125  20  
               2.25  1.125  20  
               2.625  1.125  20  
               3  1.125  20  
               0  1.5  20  
               0.375  1.5  20  
               0.75  1.5  20  
               1.125  1.5  20  
               1.5  1.5  20  
               1.875  1.5  20  
               2.25  1.5  20  
               2.625  1.5  20  
               3  1.5  20  
               0  1.875  20  
               0.375  1.875  20  
               0.75  1.875  20  
               1.125  1.875  20  
               1.5  1.875  20  
               1.875  1.875  20  
               2.25  1.875  20  
               2.625  1.875  20  
               3  1.875  20  
               0  2.25  20  
               0.375  2.25  20  
               0.75  2.25  20  
               1.125  2.25  20  
               1.5  2.25  20  
               1.875  2.25  20  
               2.25  2.25  20  
               2.625  2.25  20  
               3  2.25  20  
               0  2.625  20  
               0.375  2.625  20  
               0.75  2.625  20  
               1.125  2.625  20  
               1.5  2.625  20  
               1.875  2.625  20  
               2.25  2.625  20  
               2.625  2.625  20  
               3  2.625  20  
               0  3  20  
               0.375  3  20  
               0.75  3  20  
               1.125  3  20  
               1.5  3  20  
               1.875  3  20  
               2.25  3  20  
               2.625  3  20  
               3  3  20  
            </DataArray>
         </Points> 

         <Cells>
            <DataArray type="Int32" Name="connectivity" NumberOfComponents="1" format="ascii">
               
            </DataArray> 
            <DataArray type="Int32" Name="offsets" NumberOfComponents="1" format="ascii">
               
            </DataArray>
            <DataArray type="UInt8"  Name="types" NumberOfComponents="1" format="ascii">
               
            </DataArray>
         </Cells>
         <PointData Scalars="Rank " Vectors="Displacement Velocity Traction ">
            <DataArray type="UInt32" Name="Rank" NumberOfComponents="1" format="ascii">
               0 0 0 0 0 0 0 0 0 0 0 0 0 0 0 0 0 0 0 0 0 0 0 0 0 0 0 0 0 0 0 0 0 0 0 0 0 0 0 0 0 0 0 0 0 0 0 0 0 0 0 0 0 0 0 0 0 0 0 0 0 0 0 0 0 0 0 0 0 0 0 0 0 0 0 0 0 0 0 0 0 
            </DataArray>
            <DataArray type="Float64" Name="Displacement" NumberOfComponents="3" format="ascii">
               0 0 0  0 0 0  0 0 0  0 0 0  0 0 0  0 0 0  0 0 0  0 0 0  0 0 0  0 0 0  0 0 0  0 0 0  0 0 0  0 0 0  0 0 0  0 0 0  0 0 0  0 0 0  0 0 0  0 0 0  0 0 0  0 0 0  0 0 0  0 0 0  0 0 0  0 0 0  0 0 0  0 0 0  0 0 0  0 0 0  0 0 0  0 0 0  0 0 0  0 0 0  0 0 0  0 0 0  0 0 0  0 0 0  0 0 0  0 0 0  0 0 0  0 0 0  0 0 0  0 0 0  0 0 0  0 0 0  0 0 0  0 0 0  0 0 0  0 0 0  0 0 0  0 0 0  0 0 0  0 0 0  0 0 0  0 0 0  0 0 0  0 0 0  0 0 0  0 0 0  0 0 0  0 0 0  0 0 0  0 0 0  0 0 0  0 0 0  0 0 0  0 0 0  0 0 0  0 0 0  0 0 0  0 0 0  0 0 0  0 0 0  0 0 0  0 0 0  0 0 0  0 0 0  0 0 0  0 0 0  0 0 0  
            </DataArray>
            <DataArray type="Float64" Name="Velocity" NumberOfComponents="3" format="ascii">
               0 0 0  0 0 0  0 0 0  0 0 0  0 0 0  0 0 0  0 0 0  0 0 0  0 0 0  0 0 0  0 0 0  0 0 0  0 0 0  0 0 0  0 0 0  0 0 0  0 0 0  0 0 0  0 0 0  0 0 0  0 0 0  0 0 0  0 0 0  0 0 0  0 0 0  0 0 0  0 0 0  0 0 0  0 0 0  0 0 0  0 0 0  0 0 0  0 0 0  0 0 0  0 0 0  0 0 0  0 0 0  0 0 0  0 0 0  0 0 0  0 0 0  0 0 0  0 0 0  0 0 0  0 0 0  0 0 0  0 0 0  0 0 0  0 0 0  0 0 0  0 0 0  0 0 0  0 0 0  0 0 0  0 0 0  0 0 0  0 0 0  0 0 0  0 0 0  0 0 0  0 0 0  0 0 0  0 0 0  0 0 0  0 0 0  0 0 0  0 0 0  0 0 0  0 0 0  0 0 0  0 0 0  0 0 0  0 0 0  0 0 0  0 0 0  0 0 0  0 0 0  0 0 0  0 0 0  0 0 0  0 0 0  
            </DataArray>
            <DataArray type="Float64" Name="Traction" NumberOfComponents="3" format="ascii">
               -0.00249877 -0.00249683 -0.0252873  -0.00215995 -0.00446969 -0.0252873  -0.00139357 -0.00602836 -0.0252873  -0.000113204 -0.00585197 -0.0252873  -0.000494313 -0.00579757 -0.0252873  0.00151305 -0.00605031 -0.0252873  0.00493339 -0.00530586 -0.0252873  0.000577388 -0.001914 -0.0252873  -0.00191944 -0.000827086 -0.0252873  -0.00447754 -0.00216647 -0.0252873  -0.00327596 -0.00327752 -0.0252873  -0.00187581 -0.00456255 -0.0252873  -0.000582951 -0.00478714 -0.0252873  -0.000932853 -0.00496271 -0.0252873  0.000682435 -0.00459041 -0.0252873  0.00549102 -0.0047811 -0.0252873  0.00288269 -0.00307537 -0.0252873  0.00119998 -0.00198349 -0.0252873  -0.00603679 -0.00140222 -0.0252873  -0.00456118 -0.00188275 -0.0252873  -0.00275982 -0.00276641 -0.0252873  -0.000486239 -0.0034259 -0.0252873  -0.000513254 -0.00351093 -0.0252873  0.000580163 -0.00324119 -0.0252873  0.00575276 -0.0033651 -0.0252873  0.00467713 -0.0030704 -0.0252873  0.00495733 -0.00321822 -0.0252873  -0.00586229 -0.000119336 -0.0252873  -0.00478726 -0.000588589 -0.0252873  -0.00341936 -0.000490277 -0.0252873  -0.000983844 -0.000987995 -0.0252873  -0.000346409 -0.000854371 -0.0252873  0.000980528 -0.00100548 -0.0252873  0.00529221 -0.000781607 -0.0252873  0.00447589 -0.000803247 -0.0252873  0.00572087 -0.000889099 -0.0252873  -0.00580725 -0.000500552 -0.0252873  -0.00496283 -0.000938035 -0.0252873  -0.0035046 -0.000516167 -0.0252873  -0.000850372 -0.000347995 -0.0252873  -0.000599059 -0.000600625 -0.0252873  0.000697414 -0.000576217 -0.0252873  0.00535068 -0.000617904 -0.0252873  0.00458394 -0.000368436 -0.0252873  0.00521205 -0.00096207 -0.0252873  -0.00605951 0.00150506 -0.0252873  -0.00458992 0.000676016 -0.0252873  -0.00323392 0.000573676 -0.0252873  -0.00100117 0.000974456 -0.0252873  -0.000574058 0.000692486 -0.0252873  0.000903644 0.000897436 -0.0252873  0.00546954 0.00036391 -0.0252873  0.00461688 0.000608736 -0.0252873  0.00564773 -0.00054487 -0.0252873  -0.00531352 0.0049186 -0.0252873  -0.00478195 0.00547674 -0.0252873  -0.00336008 0.00573787 -0.0252873  -0.000776016 0.00527533 -0.0252873  -0.000614842 0.00533466 -0.0252873  0.000369796 0.00545252 -0.0252873  0.00482764 0.00481014 -0.0252873  0.00435294 0.00365564 -0.0252873  0.00563478 0.00287107 -0.0252873  -0.0019137 0.000575723 -0.0252873  -0.00307102 0.00287687 -0.0252873  -0.00306559 0.00467325 -0.0252873  -0.000797414 0.00447132 -0.0252873  -0.000363936 0.00458033 -0.0252873  0.000615985 0.00461259 -0.0252873  0.00367293 0.00434669 -0.0252873  0.0031676 0.0031626 -0.0252873  0.00408661 0.00228485 -0.0252873  -0.000822332 -0.00190962 -0.0252873  -0.00197521 0.00120397 -0.0252873  -0.00321224 0.00496572 -0.0252873  -0.000881327 0.00573135 -0.0252873  -0.000958131 0.00522297 -0.0252873  -0.000541524 0.00565947 -0.0252873  0.00288857 0.00564457 -0.0252873  0.00229647 0.00409584 -0.0252873  0.00242603 0.00242644 -0.0252873  
            </DataArray>
         </PointData> 
      </Piece>
   </UnstructuredGrid> 
</VTKFile>
