<?xml version="1.0"?>
<VTKFile type="UnstructuredGrid" version="0.1" byte_order="LittleEndian">
   <UnstructuredGrid>
      <Piece NumberOfPoints="81" NumberOfCells="0" > 
         <Points> 
            <DataArray type="Float64" Name="Position" NumberOfComponents="3" format="ascii"> 
               0  0  20  
               0.375  0  20  
               0.75  0  20  
               1.125  0  20  
               1.5  0  20  
               1.875  0  20  
               2.25  0  20  
               2.625  0  20  
               3  0  20  
               0  0.375  20  
               0.375  0.375  20  
               0.75  0.375  20  
               1.125  0.375  20  
               1.5  0.375  20  
               1.875  0.375  20  
               2.25  0.375  20  
               2.625  0.375  20  
               3  0.375  20  
               0  0.75  20  
               0.375  0.75  20  
               0.75  0.75  20  
               1.125  0.75  20  
               1.5  0.75  20  
               1.875  0.75  20  
               2.25  0.75  20  
               2.625  0.75  20  
               3  0.75  20  
               0  1.125  20  
               0.375  1.125  20  
               0.75  1.125  20  
               1.125  1.125  20  
               1.5  1.125  20  
               1.875  1.125  20  
               2.25  1.125  20  
               2.625  1.125  20  
               3  1.125  20  
               0  1.5  20  
               0.375  1.5  20  
               0.75  1.5  20  
               1.125  1.5  20  
               1.5  1.5  20  
               1.875  1.5  20  
               2.25  1.5  20  
               2.625  1.5  20  
               3  1.5  20  
               0  1.875  20  
               0.375  1.875  20  
               0.75  1.875  20  
               1.125  1.875  20  
               1.5  1.875  20  
               1.875  1.875  20  
               2.25  1.875  20  
               2.625  1.875  20  
               3  1.875  20  
               0  2.25  20  
               0.375  2.25  20  
               0.75  2.25  20  
               1.125  2.25  20  
               1.5  2.25  20  
               1.875  2.25  20  
               2.25  2.25  20  
               2.625  2.25  20  
               3  2.25  20  
               0  2.625  20  
               0.375  2.625  20  
               0.75  2.625  20  
               1.125  2.625  20  
               1.5  2.625  20  
               1.875  2.625  20  
               2.25  2.625  20  
               2.625  2.625  20  
               3  2.625  20  
               0  3  20  
               0.375  3  20  
               0.75  3  20  
               1.125  3  20  
               1.5  3  20  
               1.875  3  20  
               2.25  3  20  
               2.625  3  20  
               3  3  20  
            </DataArray>
         </Points> 

         <Cells>
            <DataArray type="Int32" Name="connectivity" NumberOfComponents="1" format="ascii">
               
            </DataArray> 
            <DataArray type="Int32" Name="offsets" NumberOfComponents="1" format="ascii">
               
            </DataArray>
            <DataArray type="UInt8"  Name="types" NumberOfComponents="1" format="ascii">
               
            </DataArray>
         </Cells>
         <PointData Scalars="Rank " Vectors="Displacement Velocity Traction ">
            <DataArray type="UInt32" Name="Rank" NumberOfComponents="1" format="ascii">
               0 0 0 0 0 0 0 0 0 0 0 0 0 0 0 0 0 0 0 0 0 0 0 0 0 0 0 0 0 0 0 0 0 0 0 0 0 0 0 0 0 0 0 0 0 0 0 0 0 0 0 0 0 0 0 0 0 0 0 0 0 0 0 0 0 0 0 0 0 0 0 0 0 0 0 0 0 0 0 0 0 
            </DataArray>
            <DataArray type="Float64" Name="Displacement" NumberOfComponents="3" format="ascii">
               0 0 0  0 0 0  0 0 0  0 0 0  0 0 0  0 0 0  0 0 0  0 0 0  0 0 0  0 0 0  0 0 0  0 0 0  0 0 0  0 0 0  0 0 0  0 0 0  0 0 0  0 0 0  0 0 0  0 0 0  0 0 0  0 0 0  0 0 0  0 0 0  0 0 0  0 0 0  0 0 0  0 0 0  0 0 0  0 0 0  0 0 0  0 0 0  0 0 0  0 0 0  0 0 0  0 0 0  0 0 0  0 0 0  0 0 0  0 0 0  0 0 0  0 0 0  0 0 0  0 0 0  0 0 0  0 0 0  0 0 0  0 0 0  0 0 0  0 0 0  0 0 0  0 0 0  0 0 0  0 0 0  0 0 0  0 0 0  0 0 0  0 0 0  0 0 0  0 0 0  0 0 0  0 0 0  0 0 0  0 0 0  0 0 0  0 0 0  0 0 0  0 0 0  0 0 0  0 0 0  0 0 0  0 0 0  0 0 0  0 0 0  0 0 0  0 0 0  0 0 0  0 0 0  0 0 0  0 0 0  0 0 0  
            </DataArray>
            <DataArray type="Float64" Name="Velocity" NumberOfComponents="3" format="ascii">
               0 0 0  0 0 0  0 0 0  0 0 0  0 0 0  0 0 0  0 0 0  0 0 0  0 0 0  0 0 0  0 0 0  0 0 0  0 0 0  0 0 0  0 0 0  0 0 0  0 0 0  0 0 0  0 0 0  0 0 0  0 0 0  0 0 0  0 0 0  0 0 0  0 0 0  0 0 0  0 0 0  0 0 0  0 0 0  0 0 0  0 0 0  0 0 0  0 0 0  0 0 0  0 0 0  0 0 0  0 0 0  0 0 0  0 0 0  0 0 0  0 0 0  0 0 0  0 0 0  0 0 0  0 0 0  0 0 0  0 0 0  0 0 0  0 0 0  0 0 0  0 0 0  0 0 0  0 0 0  0 0 0  0 0 0  0 0 0  0 0 0  0 0 0  0 0 0  0 0 0  0 0 0  0 0 0  0 0 0  0 0 0  0 0 0  0 0 0  0 0 0  0 0 0  0 0 0  0 0 0  0 0 0  0 0 0  0 0 0  0 0 0  0 0 0  0 0 0  0 0 0  0 0 0  0 0 0  0 0 0  0 0 0  
            </DataArray>
            <DataArray type="Float64" Name="Traction" NumberOfComponents="3" format="ascii">
               -0.000417635 -0.000417 -0.00375964  -0.000331636 -0.000740819 -0.00375964  -0.000212124 -0.000968919 -0.00375964  -2.53625e-05 -0.000936699 -0.00375964  -7.13233e-05 -0.000935823 -0.00375964  0.000234814 -0.000961914 -0.00375964  0.000766542 -0.000850892 -0.00375964  0.000138831 -0.000352286 -0.00375964  -0.000201589 -0.00020939 -0.00375964  -0.000742384 -0.000329477 -0.00375964  -0.000522177 -0.000519657 -0.00375964  -0.000284177 -0.000729242 -0.00375964  -9.25492e-05 -0.00076436 -0.00375964  -0.00013826 -0.00079674 -0.00375964  0.000105339 -0.00073643 -0.00375964  0.000833192 -0.000754515 -0.00375964  0.000466357 -0.000493913 -0.00375964  0.000248438 -0.000348336 -0.00375964  -0.000970832 -0.000210224 -0.00375964  -0.000732406 -0.000282206 -0.00375964  -0.000431743 -0.000429505 -0.00375964  -8.05537e-05 -0.000541029 -0.00375964  -7.79155e-05 -0.00055732 -0.00375964  9.66196e-05 -0.000518497 -0.00375964  0.000890546 -0.000525333 -0.00375964  0.00073514 -0.000465279 -0.00375964  0.000794482 -0.000500033 -0.00375964  -0.000937719 -2.30809e-05 -0.00375964  -0.000766912 -9.0372e-05 -0.00375964  -0.000543142 -7.84991e-05 -0.00375964  -0.000160552 -0.000158425 -0.00375964  -5.76113e-05 -0.00013644 -0.00375964  0.000155927 -0.000160289 -0.00375964  0.00084067 -0.000125091 -0.00375964  0.000718927 -0.000122639 -0.00375964  0.000912404 -0.000142537 -0.00375964  -0.000936875 -6.83154e-05 -0.00375964  -0.000799268 -0.00013528 -0.00375964  -0.000559255 -7.53553e-05 -0.00375964  -0.000138461 -5.52158e-05 -0.00375964  -9.54062e-05 -9.30096e-05 -0.00375964  0.000111169 -8.55002e-05 -0.00375964  0.000845754 -8.98696e-05 -0.00375964  0.000737157 -4.53477e-05 -0.00375964  0.00084477 -0.000143912 -0.00375964  -0.00096294 0.000236483 -0.00375964  -0.000739179 0.000107262 -0.00375964  -0.000520665 9.83238e-05 -0.00375964  -0.000162422 0.000157523 -0.00375964  -8.80703e-05 0.000112511 -0.00375964  0.000146455 0.000148157 -0.00375964  0.000863883 5.74824e-05 -0.00375964  0.000738615 9.78076e-05 -0.00375964  0.000903644 -7.16847e-05 -0.00375964  -0.000853036 0.000768531 -0.00375964  -0.000757638 0.000834873 -0.00375964  -0.000527614 0.00089247 -0.00375964  -0.000127458 0.000843312 -0.00375964  -9.25634e-05 0.000848001 -0.00375964  5.57648e-05 0.000866261 -0.00375964  0.000749503 0.000751952 -0.00375964  0.000700935 0.000550041 -0.00375964  0.000915521 0.00043208 -0.00375964  -0.000355229 0.000142312 -0.00375964  -0.000497176 0.000468643 -0.00375964  -0.000467359 0.000736386 -0.00375964  -0.000125234 0.000720518 -0.00375964  -4.85414e-05 0.000738586 -0.00375964  9.5612e-05 0.000740254 -0.00375964  0.000547462 0.000703315 -0.00375964  0.000504688 0.000506808 -0.00375964  0.000688593 0.00035193 -0.00375964  -0.000212969 -0.00019757 -0.00375964  -0.000352237 0.000251384 -0.00375964  -0.000502122 0.000795294 -0.00375964  -0.000145024 0.000912591 -0.00375964  -0.000147181 0.000845105 -0.00375964  -7.40634e-05 0.000904255 -0.00375964  0.000428679 0.000917113 -0.00375964  0.000350038 0.000690202 -0.00375964  0.000408457 0.00040891 -0.00375964  
            </DataArray>
         </PointData> 
      </Piece>
   </UnstructuredGrid> 
</VTKFile>
