<?xml version="1.0"?>
<VTKFile type="UnstructuredGrid" version="0.1" byte_order="LittleEndian">
   <UnstructuredGrid>
      <Piece NumberOfPoints="81" NumberOfCells="0" > 
         <Points> 
            <DataArray type="Float64" Name="Position" NumberOfComponents="3" format="ascii"> 
               0  0  15  
               0.375  0  15  
               0.75  0  15  
               1.125  0  15  
               1.5  0  15  
               1.875  0  15  
               2.25  0  15  
               2.625  0  15  
               3  0  15  
               0  0.375  15  
               0.375  0.375  15  
               0.75  0.375  15  
               1.125  0.375  15  
               1.5  0.375  15  
               1.875  0.375  15  
               2.25  0.375  15  
               2.625  0.375  15  
               3  0.375  15  
               0  0.75  15  
               0.375  0.75  15  
               0.75  0.75  15  
               1.125  0.75  15  
               1.5  0.75  15  
               1.875  0.75  15  
               2.25  0.75  15  
               2.625  0.75  15  
               3  0.75  15  
               0  1.125  15  
               0.375  1.125  15  
               0.75  1.125  15  
               1.125  1.125  15  
               1.5  1.125  15  
               1.875  1.125  15  
               2.25  1.125  15  
               2.625  1.125  15  
               3  1.125  15  
               0  1.5  15  
               0.375  1.5  15  
               0.75  1.5  15  
               1.125  1.5  15  
               1.5  1.5  15  
               1.875  1.5  15  
               2.25  1.5  15  
               2.625  1.5  15  
               3  1.5  15  
               0  1.875  15  
               0.375  1.875  15  
               0.75  1.875  15  
               1.125  1.875  15  
               1.5  1.875  15  
               1.875  1.875  15  
               2.25  1.875  15  
               2.625  1.875  15  
               3  1.875  15  
               0  2.25  15  
               0.375  2.25  15  
               0.75  2.25  15  
               1.125  2.25  15  
               1.5  2.25  15  
               1.875  2.25  15  
               2.25  2.25  15  
               2.625  2.25  15  
               3  2.25  15  
               0  2.625  15  
               0.375  2.625  15  
               0.75  2.625  15  
               1.125  2.625  15  
               1.5  2.625  15  
               1.875  2.625  15  
               2.25  2.625  15  
               2.625  2.625  15  
               3  2.625  15  
               0  3  15  
               0.375  3  15  
               0.75  3  15  
               1.125  3  15  
               1.5  3  15  
               1.875  3  15  
               2.25  3  15  
               2.625  3  15  
               3  3  15  
            </DataArray>
         </Points> 

         <Cells>
            <DataArray type="Int32" Name="connectivity" NumberOfComponents="1" format="ascii">
               
            </DataArray> 
            <DataArray type="Int32" Name="offsets" NumberOfComponents="1" format="ascii">
               
            </DataArray>
            <DataArray type="UInt8"  Name="types" NumberOfComponents="1" format="ascii">
               
            </DataArray>
         </Cells>
         <PointData Scalars="Rank " Vectors="Displacement Velocity Traction ">
            <DataArray type="UInt32" Name="Rank" NumberOfComponents="1" format="ascii">
               0 0 0 0 0 0 0 0 0 0 0 0 0 0 0 0 0 0 0 0 0 0 0 0 0 0 0 0 0 0 0 0 0 0 0 0 0 0 0 0 0 0 0 0 0 0 0 0 0 0 0 0 0 0 0 0 0 0 0 0 0 0 0 0 0 0 0 0 0 0 0 0 0 0 0 0 0 0 0 0 0 
            </DataArray>
            <DataArray type="Float64" Name="Displacement" NumberOfComponents="3" format="ascii">
               0.000279896 0.000189323 -0.000246785  0.000269958 7.75384e-05 -0.000258153  0.000231005 4.18235e-05 -0.000244192  0.000176023 1.91916e-05 -0.000238762  0.000124244 2.67196e-05 -0.000238231  7.82704e-05 1.53316e-05 -0.000232538  4.32243e-05 3.14646e-05 -0.000242247  1.91299e-05 4.75412e-05 -0.000256308  1.05429e-05 2.05722e-06 -0.000225105  0.000165966 0.000178968 -0.000258142  0.000168912 7.92595e-05 -0.000259968  0.000145879 5.6785e-05 -0.000240838  0.000107717 3.56253e-05 -0.000235927  6.52274e-05 4.24079e-05 -0.000235661  2.205e-05 2.9092e-05 -0.000231694  -1.88593e-05 4.06409e-05 -0.000242056  -4.29342e-05 4.75318e-05 -0.000267698  -4.1982e-05 -8.19462e-06 -0.000251358  0.000126081 0.000138081 -0.000244223  0.000143128 5.32712e-05 -0.000240862  0.000126774 3.69405e-05 -0.000210073  9.20089e-05 2.21729e-05 -0.000200938  5.32226e-05 2.64616e-05 -0.000201296  1.44082e-05 1.68826e-05 -0.000199863  -2.09398e-05 2.39018e-05 -0.000210402  -3.68212e-05 2.26589e-05 -0.000242638  -2.62212e-05 -3.61957e-05 -0.000240466  9.91825e-05 8.01361e-05 -0.000238751  0.000118245 1.08157e-05 -0.000235935  0.000108481 -1.81466e-06 -0.000200918  8.06202e-05 -9.45555e-06 -0.000187965  4.69176e-05 -8.27275e-06 -0.000188139  1.2367e-05 -1.40299e-05 -0.000188316  -1.77789e-05 -1.27624e-05 -0.000200645  -2.95338e-05 -1.94442e-05 -0.000233102  -1.48797e-05 -7.52261e-05 -0.000232619  0.000107462 2.46973e-05 -0.000238212  0.000126022 -3.67448e-05 -0.000235666  0.000113813 -4.47415e-05 -0.000201272  8.24942e-05 -4.68849e-05 -0.000188141  4.59639e-05 -4.68955e-05 -0.000189119  8.3828e-06 -4.98072e-05 -0.000188118  -2.53716e-05 -5.31723e-05 -0.000200985  -4.02003e-05 -6.45215e-05 -0.00023503  -2.34337e-05 -0.000123905 -0.00023604  0.000103174 -2.56736e-05 -0.000232547  0.000119589 -8.46897e-05 -0.000231715  0.000109352 -8.65408e-05 -0.000199844  7.94774e-05 -8.37186e-05 -0.000188318  4.36399e-05 -8.45061e-05 -0.000188125  6.89885e-06 -8.50395e-05 -0.000187515  -2.46021e-05 -9.36888e-05 -0.000200259  -3.79985e-05 -0.000109626 -0.000234565  -1.98547e-05 -0.000179667 -0.00023557  0.000125428 -6.5376e-05 -0.000242254  0.000136917 -0.000129229 -0.000242052  0.00012161 -0.000123162 -0.000210366  8.55434e-05 -0.000114808 -0.000200629  4.41068e-05 -0.000116706 -0.00020097  1.3486e-06 -0.00011469 -0.000200242  -3.7416e-05 -0.000130125 -0.000209995  -5.75141e-05 -0.000150517 -0.000241028  -4.03407e-05 -0.000241661 -0.000242438  0.000153639 -9.33323e-05 -0.000256364  0.000154368 -0.000155263 -0.000267704  0.000128609 -0.000138848 -0.000242634  8.44657e-05 -0.000125899 -0.000233132  3.63877e-05 -0.000129005 -0.000235055  -1.20309e-05 -0.000125674 -0.000234583  -5.56794e-05 -0.000147856 -0.000241061  -8.26067e-05 -0.000175487 -0.000260748  -7.99964e-05 -0.000286477 -0.000257104  0.000110231 -0.00010338 -0.000225323  9.89465e-05 -0.000153982 -0.000251472  6.81411e-05 -0.000126384 -0.000240514  2.57593e-05 -0.000109034 -0.000232685  -2.58476e-05 -0.00010976 -0.000236091  -8.38424e-05 -0.000105245 -0.000235626  -0.000147542 -0.000128803 -0.000242539  -0.000193494 -0.00017184 -0.000257147  -0.000205449 -0.000298119 -0.000244642  
            </DataArray>
            <DataArray type="Float64" Name="Velocity" NumberOfComponents="3" format="ascii">
               0.000247424 0.000214426 -0.000289854  0.000237604 0.000120344 -0.000305882  0.000201481 7.45457e-05 -0.000290832  0.000150375 4.64572e-05 -0.000285548  9.95041e-05 4.36615e-05 -0.000285228  5.24184e-05 3.80343e-05 -0.000278192  1.49981e-05 5.54196e-05 -0.000289275  -1.08166e-05 8.33695e-05 -0.000303596  -1.97858e-05 4.65153e-05 -0.000262271  0.000153438 0.000205035 -0.000305509  0.000154898 0.000123317 -0.000311831  0.000130689 9.09217e-05 -0.000291689  9.07977e-05 6.52171e-05 -0.000286483  4.53095e-05 6.33251e-05 -0.000286537  -7.84885e-07 5.52974e-05 -0.000281575  -4.26248e-05 6.75016e-05 -0.000293398  -6.62015e-05 8.45847e-05 -0.000321175  -6.44492e-05 3.59201e-05 -0.00029765  0.000105487 0.000170065 -0.000290459  0.000119401 0.000101902 -0.000291703  0.000103311 7.81695e-05 -0.000259705  6.95954e-05 5.84791e-05 -0.000249701  3.13975e-05 5.5964e-05 -0.000250567  -5.70794e-06 4.84732e-05 -0.000248664  -3.72661e-05 5.54038e-05 -0.000260036  -4.93526e-05 6.11665e-05 -0.00029415  -3.65759e-05 7.06964e-06 -0.000287144  7.75401e-05 0.000121782 -0.000285184  9.24285e-05 6.67687e-05 -0.000286545  8.22018e-05 4.79686e-05 -0.000249748  5.58619e-05 3.45391e-05 -0.000235507  2.35555e-05 3.04402e-05 -0.000236157  -7.92365e-06 2.27117e-05 -0.000236247  -3.36591e-05 2.38826e-05 -0.00024961  -4.09093e-05 2.00681e-05 -0.000283317  -2.42476e-05 -3.2129e-05 -0.000278411  7.22203e-05 7.56575e-05 -0.000284846  8.67304e-05 2.90067e-05 -0.000286592  7.46586e-05 1.43264e-05 -0.000250595  4.67935e-05 5.33138e-06 -0.000236132  1.58008e-05 -5.12393e-07 -0.000237629  -1.36801e-05 -9.08506e-06 -0.000236183  -3.79357e-05 -1.30347e-05 -0.000250112  -4.45601e-05 -2.48029e-05 -0.000285805  -2.59272e-05 -7.77951e-05 -0.000282808  5.55992e-05 3.59742e-05 -0.000277815  6.73121e-05 -8.3045e-06 -0.000281621  5.92983e-05 -1.96155e-05 -0.000248664  3.63444e-05 -2.49479e-05 -0.00023618  9.0574e-06 -3.33193e-05 -0.00023614  -1.75335e-05 -4.20755e-05 -0.000234998  -3.97847e-05 -5.11189e-05 -0.000248723  -4.60235e-05 -6.93159e-05 -0.000284735  -2.71454e-05 -0.000127767 -0.000281686  6.89116e-05 8.35127e-06 -0.000288908  7.58241e-05 -4.20319e-05 -0.000293454  6.33949e-05 -5.06812e-05 -0.000260085  3.50931e-05 -5.07894e-05 -0.000249626  4.16356e-06 -6.27948e-05 -0.00025013  -2.66118e-05 -6.95802e-05 -0.000248777  -5.43985e-05 -8.48129e-05 -0.000259496  -6.66901e-05 -0.000108054 -0.000291863  -4.97665e-05 -0.000181645 -0.000288522  7.31359e-05 -9.02731e-06 -0.000303329  7.35305e-05 -6.11362e-05 -0.000321276  5.60947e-05 -6.5091e-05 -0.000294203  2.52482e-05 -6.12524e-05 -0.00028339  -8.46234e-06 -7.60491e-05 -0.000285872  -4.28469e-05 -8.1292e-05 -0.000284824  -7.47147e-05 -0.000102123 -0.00029191  -9.39833e-05 -0.000131437 -0.000312824  -9.02811e-05 -0.000220333 -0.000304429  3.69651e-05 -1.48637e-05 -0.000261691  2.99397e-05 -6.08282e-05 -0.000297429  1.06691e-05 -5.83412e-05 -0.000286815  -1.71921e-05 -5.10311e-05 -0.000278087  -5.36034e-05 -6.34264e-05 -0.000282455  -9.69351e-05 -6.71291e-05 -0.000281369  -0.00014629 -8.831e-05 -0.000288163  -0.00018278 -0.000129552 -0.00030403  -0.000192582 -0.000230624 -0.000286709  
            </DataArray>
            <DataArray type="Float64" Name="Traction" NumberOfComponents="3" format="ascii">
               0 0 0  0 0 0  0 0 0  0 0 0  0 0 0  0 0 0  0 0 0  0 0 0  0 0 0  0 0 0  0 0 0  0 0 0  0 0 0  0 0 0  0 0 0  0 0 0  0 0 0  0 0 0  0 0 0  0 0 0  0 0 0  0 0 0  0 0 0  0 0 0  0 0 0  0 0 0  0 0 0  0 0 0  0 0 0  0 0 0  0 0 0  0 0 0  0 0 0  0 0 0  0 0 0  0 0 0  0 0 0  0 0 0  0 0 0  0 0 0  0 0 0  0 0 0  0 0 0  0 0 0  0 0 0  0 0 0  0 0 0  0 0 0  0 0 0  0 0 0  0 0 0  0 0 0  0 0 0  0 0 0  0 0 0  0 0 0  0 0 0  0 0 0  0 0 0  0 0 0  0 0 0  0 0 0  0 0 0  0 0 0  0 0 0  0 0 0  0 0 0  0 0 0  0 0 0  0 0 0  0 0 0  0 0 0  0 0 0  0 0 0  0 0 0  0 0 0  0 0 0  0 0 0  0 0 0  0 0 0  0 0 0  
            </DataArray>
         </PointData> 
      </Piece>
   </UnstructuredGrid> 
</VTKFile>
