<?xml version="1.0"?>
<VTKFile type="UnstructuredGrid" version="0.1" byte_order="LittleEndian">
   <UnstructuredGrid>
      <Piece NumberOfPoints="81" NumberOfCells="0" > 
         <Points> 
            <DataArray type="Float64" Name="Position" NumberOfComponents="3" format="ascii"> 
               0  0  20  
               0.375  0  20  
               0.75  0  20  
               1.125  0  20  
               1.5  0  20  
               1.875  0  20  
               2.25  0  20  
               2.625  0  20  
               3  0  20  
               0  0.375  20  
               0.375  0.375  20  
               0.75  0.375  20  
               1.125  0.375  20  
               1.5  0.375  20  
               1.875  0.375  20  
               2.25  0.375  20  
               2.625  0.375  20  
               3  0.375  20  
               0  0.75  20  
               0.375  0.75  20  
               0.75  0.75  20  
               1.125  0.75  20  
               1.5  0.75  20  
               1.875  0.75  20  
               2.25  0.75  20  
               2.625  0.75  20  
               3  0.75  20  
               0  1.125  20  
               0.375  1.125  20  
               0.75  1.125  20  
               1.125  1.125  20  
               1.5  1.125  20  
               1.875  1.125  20  
               2.25  1.125  20  
               2.625  1.125  20  
               3  1.125  20  
               0  1.5  20  
               0.375  1.5  20  
               0.75  1.5  20  
               1.125  1.5  20  
               1.5  1.5  20  
               1.875  1.5  20  
               2.25  1.5  20  
               2.625  1.5  20  
               3  1.5  20  
               0  1.875  20  
               0.375  1.875  20  
               0.75  1.875  20  
               1.125  1.875  20  
               1.5  1.875  20  
               1.875  1.875  20  
               2.25  1.875  20  
               2.625  1.875  20  
               3  1.875  20  
               0  2.25  20  
               0.375  2.25  20  
               0.75  2.25  20  
               1.125  2.25  20  
               1.5  2.25  20  
               1.875  2.25  20  
               2.25  2.25  20  
               2.625  2.25  20  
               3  2.25  20  
               0  2.625  20  
               0.375  2.625  20  
               0.75  2.625  20  
               1.125  2.625  20  
               1.5  2.625  20  
               1.875  2.625  20  
               2.25  2.625  20  
               2.625  2.625  20  
               3  2.625  20  
               0  3  20  
               0.375  3  20  
               0.75  3  20  
               1.125  3  20  
               1.5  3  20  
               1.875  3  20  
               2.25  3  20  
               2.625  3  20  
               3  3  20  
            </DataArray>
         </Points> 

         <Cells>
            <DataArray type="Int32" Name="connectivity" NumberOfComponents="1" format="ascii">
               
            </DataArray> 
            <DataArray type="Int32" Name="offsets" NumberOfComponents="1" format="ascii">
               
            </DataArray>
            <DataArray type="UInt8"  Name="types" NumberOfComponents="1" format="ascii">
               
            </DataArray>
         </Cells>
         <PointData Scalars="Rank " Vectors="Displacement Velocity Traction ">
            <DataArray type="UInt32" Name="Rank" NumberOfComponents="1" format="ascii">
               0 0 0 0 0 0 0 0 0 0 0 0 0 0 0 0 0 0 0 0 0 0 0 0 0 0 0 0 0 0 0 0 0 0 0 0 0 0 0 0 0 0 0 0 0 0 0 0 0 0 0 0 0 0 0 0 0 0 0 0 0 0 0 0 0 0 0 0 0 0 0 0 0 0 0 0 0 0 0 0 0 
            </DataArray>
            <DataArray type="Float64" Name="Displacement" NumberOfComponents="3" format="ascii">
               0 0 0  0 0 0  0 0 0  0 0 0  0 0 0  0 0 0  0 0 0  0 0 0  0 0 0  0 0 0  0 0 0  0 0 0  0 0 0  0 0 0  0 0 0  0 0 0  0 0 0  0 0 0  0 0 0  0 0 0  0 0 0  0 0 0  0 0 0  0 0 0  0 0 0  0 0 0  0 0 0  0 0 0  0 0 0  0 0 0  0 0 0  0 0 0  0 0 0  0 0 0  0 0 0  0 0 0  0 0 0  0 0 0  0 0 0  0 0 0  0 0 0  0 0 0  0 0 0  0 0 0  0 0 0  0 0 0  0 0 0  0 0 0  0 0 0  0 0 0  0 0 0  0 0 0  0 0 0  0 0 0  0 0 0  0 0 0  0 0 0  0 0 0  0 0 0  0 0 0  0 0 0  0 0 0  0 0 0  0 0 0  0 0 0  0 0 0  0 0 0  0 0 0  0 0 0  0 0 0  0 0 0  0 0 0  0 0 0  0 0 0  0 0 0  0 0 0  0 0 0  0 0 0  0 0 0  0 0 0  0 0 0  
            </DataArray>
            <DataArray type="Float64" Name="Velocity" NumberOfComponents="3" format="ascii">
               0 0 0  0 0 0  0 0 0  0 0 0  0 0 0  0 0 0  0 0 0  0 0 0  0 0 0  0 0 0  0 0 0  0 0 0  0 0 0  0 0 0  0 0 0  0 0 0  0 0 0  0 0 0  0 0 0  0 0 0  0 0 0  0 0 0  0 0 0  0 0 0  0 0 0  0 0 0  0 0 0  0 0 0  0 0 0  0 0 0  0 0 0  0 0 0  0 0 0  0 0 0  0 0 0  0 0 0  0 0 0  0 0 0  0 0 0  0 0 0  0 0 0  0 0 0  0 0 0  0 0 0  0 0 0  0 0 0  0 0 0  0 0 0  0 0 0  0 0 0  0 0 0  0 0 0  0 0 0  0 0 0  0 0 0  0 0 0  0 0 0  0 0 0  0 0 0  0 0 0  0 0 0  0 0 0  0 0 0  0 0 0  0 0 0  0 0 0  0 0 0  0 0 0  0 0 0  0 0 0  0 0 0  0 0 0  0 0 0  0 0 0  0 0 0  0 0 0  0 0 0  0 0 0  0 0 0  0 0 0  0 0 0  
            </DataArray>
            <DataArray type="Float64" Name="Traction" NumberOfComponents="3" format="ascii">
               -0.000105302 -0.00010529 -0.0009107  -6.37948e-05 -0.000186756 -0.0009107  -3.70268e-05 -0.000234969 -0.0009107  -4.9314e-06 -0.000228213 -0.0009107  -1.19742e-05 -0.000228076 -0.0009107  4.34612e-05 -0.000233229 -0.0009107  0.000152076 -0.000211211 -0.0009107  4.43845e-05 -0.000106849 -0.0009107  4.38567e-07 -8.14428e-05 -0.0009107  -0.000186471 -6.41347e-05 -0.0009107  -0.000115568 -0.000116022 -0.0009107  -5.42822e-05 -0.000164089 -0.0009107  -1.7338e-05 -0.000171468 -0.0009107  -2.57208e-05 -0.000177493 -0.0009107  1.91567e-05 -0.000166525 -0.0009107  0.000164791 -0.000168702 -0.0009107  0.000104693 -0.000110707 -0.0009107  8.64643e-05 -8.59661e-05 -0.0009107  -0.000234606 -3.73393e-05 -0.0009107  -0.000163575 -5.45646e-05 -0.0009107  -8.69404e-05 -8.72025e-05 -0.0009107  -1.55166e-05 -0.000110843 -0.0009107  -1.49673e-05 -0.000113579 -0.0009107  1.92248e-05 -0.000107004 -0.0009107  0.000185059 -0.000106612 -0.0009107  0.000162459 -8.96741e-05 -0.0009107  0.000196956 -9.86185e-05 -0.0009107  -0.000227871 -5.49325e-06 -0.0009107  -0.000171 -1.7801e-05 -0.0009107  -0.000110577 -1.59324e-05 -0.0009107  -3.15474e-05 -3.20032e-05 -0.0009107  -1.27519e-05 -2.67705e-05 -0.0009107  3.05112e-05 -3.18509e-05 -0.0009107  0.000179373 -2.44937e-05 -0.0009107  0.000162501 -2.33222e-05 -0.0009107  0.000221896 -2.67889e-05 -0.0009107  -0.000227685 -1.27362e-05 -0.0009107  -0.000176953 -2.6431e-05 -0.0009107  -0.000113285 -1.56037e-05 -0.0009107  -2.63068e-05 -1.34416e-05 -0.0009107  -1.96804e-05 -2.03855e-05 -0.0009107  2.14554e-05 -1.80645e-05 -0.0009107  0.000178927 -1.87696e-05 -0.0009107  0.000165178 -8.81815e-06 -0.0009107  0.000208956 -3.01441e-05 -0.0009107  -0.000232943 4.2922e-05 -0.0009107  -0.00016604 1.8623e-05 -0.0009107  -0.000106722 1.87539e-05 -0.0009107  -3.1372e-05 3.00062e-05 -0.0009107  -1.73139e-05 2.09436e-05 -0.0009107  2.9737e-05 2.91445e-05 -0.0009107  0.000183745 9.19676e-06 -0.0009107  0.000166136 1.79097e-05 -0.0009107  0.000220469 -1.45953e-05 -0.0009107  -0.000210658 0.00015136 -0.0009107  -0.000168103 0.000164069 -0.0009107  -0.000106254 0.000184253 -0.0009107  -2.40032e-05 0.000178551 -0.0009107  -1.80679e-05 0.000178071 -0.0009107  9.74703e-06 0.00018289 -0.0009107  0.000157275 0.000156481 -0.0009107  0.000158928 0.000106592 -0.0009107  0.000224996 7.85745e-05 -0.0009107  -0.000106211 4.36425e-05 -0.0009107  -0.000110117 0.000104028 -0.0009107  -8.93127e-05 0.000161766 -0.0009107  -2.27649e-05 0.000161868 -0.0009107  -8.06919e-06 0.000164426 -0.0009107  1.85319e-05 0.000165406 -0.0009107  0.000107363 0.000158066 -0.0009107  0.000112567 0.000111831 -0.0009107  0.000176569 6.70949e-05 -0.0009107  -8.05852e-05 -2.46744e-07 -0.0009107  -8.51381e-05 8.58923e-05 -0.0009107  -9.81551e-05 0.000196471 -0.0009107  -2.62192e-05 0.000221605 -0.0009107  -2.93587e-05 0.000208477 -0.0009107  -1.40325e-05 0.000219965 -0.0009107  7.94103e-05 0.000224267 -0.0009107  6.75528e-05 0.000175843 -0.0009107  0.000102786 0.000102613 -0.0009107  
            </DataArray>
         </PointData> 
      </Piece>
   </UnstructuredGrid> 
</VTKFile>
