<?xml version="1.0"?>
<VTKFile type="UnstructuredGrid" version="0.1" byte_order="LittleEndian">
   <UnstructuredGrid>
      <Piece NumberOfPoints="81" NumberOfCells="0" > 
         <Points> 
            <DataArray type="Float64" Name="Position" NumberOfComponents="3" format="ascii"> 
               0  0  15  
               0.375  0  15  
               0.75  0  15  
               1.125  0  15  
               1.5  0  15  
               1.875  0  15  
               2.25  0  15  
               2.625  0  15  
               3  0  15  
               0  0.375  15  
               0.375  0.375  15  
               0.75  0.375  15  
               1.125  0.375  15  
               1.5  0.375  15  
               1.875  0.375  15  
               2.25  0.375  15  
               2.625  0.375  15  
               3  0.375  15  
               0  0.75  15  
               0.375  0.75  15  
               0.75  0.75  15  
               1.125  0.75  15  
               1.5  0.75  15  
               1.875  0.75  15  
               2.25  0.75  15  
               2.625  0.75  15  
               3  0.75  15  
               0  1.125  15  
               0.375  1.125  15  
               0.75  1.125  15  
               1.125  1.125  15  
               1.5  1.125  15  
               1.875  1.125  15  
               2.25  1.125  15  
               2.625  1.125  15  
               3  1.125  15  
               0  1.5  15  
               0.375  1.5  15  
               0.75  1.5  15  
               1.125  1.5  15  
               1.5  1.5  15  
               1.875  1.5  15  
               2.25  1.5  15  
               2.625  1.5  15  
               3  1.5  15  
               0  1.875  15  
               0.375  1.875  15  
               0.75  1.875  15  
               1.125  1.875  15  
               1.5  1.875  15  
               1.875  1.875  15  
               2.25  1.875  15  
               2.625  1.875  15  
               3  1.875  15  
               0  2.25  15  
               0.375  2.25  15  
               0.75  2.25  15  
               1.125  2.25  15  
               1.5  2.25  15  
               1.875  2.25  15  
               2.25  2.25  15  
               2.625  2.25  15  
               3  2.25  15  
               0  2.625  15  
               0.375  2.625  15  
               0.75  2.625  15  
               1.125  2.625  15  
               1.5  2.625  15  
               1.875  2.625  15  
               2.25  2.625  15  
               2.625  2.625  15  
               3  2.625  15  
               0  3  15  
               0.375  3  15  
               0.75  3  15  
               1.125  3  15  
               1.5  3  15  
               1.875  3  15  
               2.25  3  15  
               2.625  3  15  
               3  3  15  
            </DataArray>
         </Points> 

         <Cells>
            <DataArray type="Int32" Name="connectivity" NumberOfComponents="1" format="ascii">
               
            </DataArray> 
            <DataArray type="Int32" Name="offsets" NumberOfComponents="1" format="ascii">
               
            </DataArray>
            <DataArray type="UInt8"  Name="types" NumberOfComponents="1" format="ascii">
               
            </DataArray>
         </Cells>
         <PointData Scalars="Rank " Vectors="Displacement Velocity Traction ">
            <DataArray type="UInt32" Name="Rank" NumberOfComponents="1" format="ascii">
               0 0 0 0 0 0 0 0 0 0 0 0 0 0 0 0 0 0 0 0 0 0 0 0 0 0 0 0 0 0 0 0 0 0 0 0 0 0 0 0 0 0 0 0 0 0 0 0 0 0 0 0 0 0 0 0 0 0 0 0 0 0 0 0 0 0 0 0 0 0 0 0 0 0 0 0 0 0 0 0 0 
            </DataArray>
            <DataArray type="Float64" Name="Displacement" NumberOfComponents="3" format="ascii">
               6.83626e-05 2.88109e-05 -4.6275e-05  6.6453e-05 -3.15395e-06 -4.75982e-05  5.78278e-05 -4.20982e-06 -4.45618e-05  4.58551e-05 -6.29462e-06 -4.3263e-05  3.64216e-05 -1.99296e-07 -4.31275e-05  2.94836e-05 -6.06013e-06 -4.21898e-05  2.55024e-05 -4.17918e-06 -4.40001e-05  2.31451e-05 -1.03382e-05 -4.71878e-05  2.2242e-05 -2.39427e-05 -4.28597e-05  3.60744e-05 2.63707e-05 -4.76244e-05  3.75788e-05 -3.45659e-06 -4.66161e-05  3.44717e-05 -2.38049e-06 -4.23914e-05  2.90916e-05 -4.74514e-06 -4.12611e-05  2.37431e-05 1.53424e-07 -4.11564e-05  1.83121e-05 -5.99343e-06 -4.05191e-05  1.22037e-05 -4.68229e-06 -4.2505e-05  8.19263e-06 -1.11862e-05 -4.79957e-05  7.94376e-06 -2.52805e-05 -4.62972e-05  3.43982e-05 1.5457e-05 -4.45652e-05  3.93023e-05 -1.04118e-05 -4.23751e-05  3.6252e-05 -9.89559e-06 -3.5499e-05  2.96538e-05 -1.09717e-05 -3.35196e-05  2.2666e-05 -7.63679e-06 -3.35181e-05  1.49668e-05 -1.135e-05 -3.3307e-05  6.57689e-06 -1.04928e-05 -3.54846e-05  1.59347e-06 -1.61381e-05 -4.26219e-05  1.94207e-06 -2.90153e-05 -4.36385e-05  3.0551e-05 -8.73398e-07 -4.32777e-05  3.64727e-05 -2.17742e-05 -4.1256e-05  3.48681e-05 -2.12165e-05 -3.35301e-05  2.89294e-05 -2.07891e-05 -3.08124e-05  2.21543e-05 -1.89617e-05 -3.07859e-05  1.42592e-05 -1.9711e-05 -3.08348e-05  6.47483e-06 -1.99418e-05 -3.34169e-05  1.74379e-06 -2.36116e-05 -4.07516e-05  2.72389e-06 -3.48764e-05 -4.21499e-05  3.77881e-05 -1.63942e-05 -4.31424e-05  4.34776e-05 -3.54572e-05 -4.115e-05  4.14047e-05 -3.35967e-05 -3.35266e-05  3.41731e-05 -3.19406e-05 -3.07829e-05  2.47991e-05 -2.99579e-05 -3.09306e-05  1.36838e-05 -2.82269e-05 -3.0775e-05  2.37119e-06 -2.88406e-05 -3.34776e-05  -4.94088e-06 -3.09657e-05 -4.10489e-05  -3.46972e-06 -4.39473e-05 -4.27057e-05  4.37568e-05 -3.14061e-05 -4.2205e-05  4.92027e-05 -4.95475e-05 -4.05044e-05  4.60545e-05 -4.49133e-05 -3.33124e-05  3.69174e-05 -4.20223e-05 -3.08277e-05  2.58063e-05 -3.90447e-05 -3.07713e-05  1.36669e-05 -3.55448e-05 -3.07304e-05  3.10403e-06 -3.70418e-05 -3.34284e-05  -3.16693e-06 -3.85388e-05 -4.10666e-05  -6.65529e-07 -5.58678e-05 -4.27057e-05  5.03564e-05 -4.48717e-05 -4.40302e-05  5.47452e-05 -6.296e-05 -4.25037e-05  5.05628e-05 -5.39147e-05 -3.55021e-05  4.02262e-05 -5.02671e-05 -3.34235e-05  2.74172e-05 -4.59175e-05 -3.34864e-05  1.35329e-05 -4.18608e-05 -3.34397e-05  9.6258e-07 -4.4728e-05 -3.54805e-05  -6.83989e-06 -4.61939e-05 -4.24495e-05  -4.00215e-06 -7.04463e-05 -4.42874e-05  6.8054e-05 -5.50452e-05 -4.72035e-05  6.83144e-05 -7.08968e-05 -4.79673e-05  5.93642e-05 -5.70184e-05 -4.26198e-05  4.44613e-05 -5.25082e-05 -4.07381e-05  2.8244e-05 -4.72661e-05 -4.10421e-05  1.21231e-05 -4.32224e-05 -4.10621e-05  -1.64521e-06 -4.79766e-05 -4.24348e-05  -1.01875e-05 -5.08824e-05 -4.67645e-05  -1.03722e-05 -8.1129e-05 -4.74336e-05  5.70512e-05 -5.88243e-05 -4.29238e-05  5.28188e-05 -6.99464e-05 -4.63218e-05  4.12094e-05 -5.15585e-05 -4.36784e-05  2.57455e-05 -4.58643e-05 -4.21757e-05  8.45644e-06 -4.01958e-05 -4.27276e-05  -9.62216e-06 -3.60746e-05 -4.27265e-05  -2.85637e-05 -4.18589e-05 -4.42922e-05  -4.15641e-05 -4.92137e-05 -4.74579e-05  -4.47287e-05 -8.37357e-05 -4.59047e-05  
            </DataArray>
            <DataArray type="Float64" Name="Velocity" NumberOfComponents="3" format="ascii">
               8.62906e-05 4.46641e-05 -6.42915e-05  8.34056e-05 1.26229e-05 -6.67456e-05  7.15411e-05 4.37225e-06 -6.28933e-05  5.4471e-05 -3.34256e-07 -6.12758e-05  3.82725e-05 3.91722e-06 -6.10323e-05  2.37674e-05 1.10156e-06 -5.96641e-05  1.24215e-05 6.48229e-06 -6.22017e-05  4.40564e-06 1.18405e-05 -6.62477e-05  1.49844e-06 -2.75439e-06 -5.88664e-05  5.08257e-05 4.16812e-05 -6.68531e-05  5.15226e-05 1.31059e-05 -6.65235e-05  4.43059e-05 8.96608e-06 -6.11425e-05  3.2438e-05 4.78734e-06 -5.98327e-05  1.91873e-05 8.80046e-06 -5.96213e-05  5.67425e-06 5.52616e-06 -5.87127e-05  -7.28011e-06 9.61027e-06 -6.14235e-05  -1.5083e-05 1.20107e-05 -6.85268e-05  -1.48479e-05 -6.05586e-06 -6.4953e-05  3.81068e-05 2.97258e-05 -6.29618e-05  4.30451e-05 5.16002e-06 -6.11201e-05  3.79569e-05 2.73384e-06 -5.23913e-05  2.72037e-05 6.29203e-07 -4.99523e-05  1.52511e-05 3.79447e-06 -4.99022e-05  3.32511e-06 1.78862e-06 -4.96211e-05  -7.56061e-06 4.53192e-06 -5.24853e-05  -1.24677e-05 4.19273e-06 -6.15499e-05  -9.02829e-06 -1.51423e-05 -6.16633e-05  2.92192e-05 1.27117e-05 -6.13553e-05  3.48712e-05 -7.94806e-06 -5.98176e-05  3.21044e-05 -9.63942e-06 -4.99631e-05  2.38335e-05 -9.33555e-06 -4.64614e-05  1.36948e-05 -7.17976e-06 -4.6349e-05  3.21105e-06 -7.82609e-06 -4.64788e-05  -6.13124e-06 -6.8528e-06 -4.98311e-05  -9.68015e-06 -9.24727e-06 -5.90671e-05  -4.79512e-06 -2.78709e-05 -5.95505e-05  3.41041e-05 -3.6857e-06 -6.11177e-05  3.96725e-05 -2.28018e-05 -5.96032e-05  3.58618e-05 -2.34161e-05 -4.99113e-05  2.61058e-05 -2.11666e-05 -4.63449e-05  1.4778e-05 -1.94308e-05 -4.65027e-05  3.07344e-06 -1.89258e-05 -4.63358e-05  -7.48349e-06 -1.95677e-05 -4.98114e-05  -1.20812e-05 -2.37387e-05 -5.94797e-05  -6.55132e-06 -4.38978e-05 -6.03729e-05  3.33631e-05 -1.88999e-05 -5.97467e-05  3.85679e-05 -3.80203e-05 -5.86892e-05  3.56521e-05 -3.69347e-05 -4.96296e-05  2.65189e-05 -3.28588e-05 -4.64763e-05  1.5517e-05 -3.1433e-05 -4.63329e-05  4.09701e-06 -2.99594e-05 -4.63179e-05  -5.83186e-06 -3.24596e-05 -4.97821e-05  -1.00271e-05 -3.83225e-05 -5.95048e-05  -4.05751e-06 -6.22848e-05 -6.04085e-05  4.38124e-05 -3.13111e-05 -6.22847e-05  4.76508e-05 -5.24733e-05 -6.14121e-05  4.29348e-05 -4.89934e-05 -5.25016e-05  3.14427e-05 -4.28549e-05 -4.9838e-05  1.81822e-05 -4.18027e-05 -4.98231e-05  4.45045e-06 -3.93047e-05 -4.97942e-05  -8.0621e-06 -4.41378e-05 -5.24141e-05  -1.4499e-05 -5.16528e-05 -6.12154e-05  -8.83418e-06 -8.25833e-05 -6.24471e-05  5.4605e-05 -4.05544e-05 -6.62901e-05  5.49599e-05 -6.112e-05 -6.8487e-05  4.66911e-05 -5.42416e-05 -6.15355e-05  3.24744e-05 -4.6358e-05 -5.90365e-05  1.70525e-05 -4.57795e-05 -5.94554e-05  1.58201e-06 -4.27815e-05 -5.9485e-05  -1.23808e-05 -4.9893e-05 -6.11862e-05  -2.10175e-05 -5.99122e-05 -6.67251e-05  -2.01311e-05 -9.72018e-05 -6.64596e-05  4.006e-05 -4.39985e-05 -5.90111e-05  3.63585e-05 -6.08006e-05 -6.50211e-05  2.63521e-05 -5.02935e-05 -6.17796e-05  1.29591e-05 -4.09881e-05 -5.96625e-05  -3.26583e-06 -3.974e-05 -6.0492e-05  -2.14172e-05 -3.64464e-05 -6.05245e-05  -4.12827e-05 -4.3997e-05 -6.25296e-05  -5.56726e-05 -5.88961e-05 -6.65842e-05  -5.94312e-05 -0.000100962 -6.3689e-05  
            </DataArray>
            <DataArray type="Float64" Name="Traction" NumberOfComponents="3" format="ascii">
               0 0 0  0 0 0  0 0 0  0 0 0  0 0 0  0 0 0  0 0 0  0 0 0  0 0 0  0 0 0  0 0 0  0 0 0  0 0 0  0 0 0  0 0 0  0 0 0  0 0 0  0 0 0  0 0 0  0 0 0  0 0 0  0 0 0  0 0 0  0 0 0  0 0 0  0 0 0  0 0 0  0 0 0  0 0 0  0 0 0  0 0 0  0 0 0  0 0 0  0 0 0  0 0 0  0 0 0  0 0 0  0 0 0  0 0 0  0 0 0  0 0 0  0 0 0  0 0 0  0 0 0  0 0 0  0 0 0  0 0 0  0 0 0  0 0 0  0 0 0  0 0 0  0 0 0  0 0 0  0 0 0  0 0 0  0 0 0  0 0 0  0 0 0  0 0 0  0 0 0  0 0 0  0 0 0  0 0 0  0 0 0  0 0 0  0 0 0  0 0 0  0 0 0  0 0 0  0 0 0  0 0 0  0 0 0  0 0 0  0 0 0  0 0 0  0 0 0  0 0 0  0 0 0  0 0 0  0 0 0  0 0 0  
            </DataArray>
         </PointData> 
      </Piece>
   </UnstructuredGrid> 
</VTKFile>
