<?xml version="1.0"?>
<VTKFile type="UnstructuredGrid" version="0.1" byte_order="LittleEndian">
   <UnstructuredGrid>
      <Piece NumberOfPoints="81" NumberOfCells="0" > 
         <Points> 
            <DataArray type="Float64" Name="Position" NumberOfComponents="3" format="ascii"> 
               0  0  20  
               0.375  0  20  
               0.75  0  20  
               1.125  0  20  
               1.5  0  20  
               1.875  0  20  
               2.25  0  20  
               2.625  0  20  
               3  0  20  
               0  0.375  20  
               0.375  0.375  20  
               0.75  0.375  20  
               1.125  0.375  20  
               1.5  0.375  20  
               1.875  0.375  20  
               2.25  0.375  20  
               2.625  0.375  20  
               3  0.375  20  
               0  0.75  20  
               0.375  0.75  20  
               0.75  0.75  20  
               1.125  0.75  20  
               1.5  0.75  20  
               1.875  0.75  20  
               2.25  0.75  20  
               2.625  0.75  20  
               3  0.75  20  
               0  1.125  20  
               0.375  1.125  20  
               0.75  1.125  20  
               1.125  1.125  20  
               1.5  1.125  20  
               1.875  1.125  20  
               2.25  1.125  20  
               2.625  1.125  20  
               3  1.125  20  
               0  1.5  20  
               0.375  1.5  20  
               0.75  1.5  20  
               1.125  1.5  20  
               1.5  1.5  20  
               1.875  1.5  20  
               2.25  1.5  20  
               2.625  1.5  20  
               3  1.5  20  
               0  1.875  20  
               0.375  1.875  20  
               0.75  1.875  20  
               1.125  1.875  20  
               1.5  1.875  20  
               1.875  1.875  20  
               2.25  1.875  20  
               2.625  1.875  20  
               3  1.875  20  
               0  2.25  20  
               0.375  2.25  20  
               0.75  2.25  20  
               1.125  2.25  20  
               1.5  2.25  20  
               1.875  2.25  20  
               2.25  2.25  20  
               2.625  2.25  20  
               3  2.25  20  
               0  2.625  20  
               0.375  2.625  20  
               0.75  2.625  20  
               1.125  2.625  20  
               1.5  2.625  20  
               1.875  2.625  20  
               2.25  2.625  20  
               2.625  2.625  20  
               3  2.625  20  
               0  3  20  
               0.375  3  20  
               0.75  3  20  
               1.125  3  20  
               1.5  3  20  
               1.875  3  20  
               2.25  3  20  
               2.625  3  20  
               3  3  20  
            </DataArray>
         </Points> 

         <Cells>
            <DataArray type="Int32" Name="connectivity" NumberOfComponents="1" format="ascii">
               
            </DataArray> 
            <DataArray type="Int32" Name="offsets" NumberOfComponents="1" format="ascii">
               
            </DataArray>
            <DataArray type="UInt8"  Name="types" NumberOfComponents="1" format="ascii">
               
            </DataArray>
         </Cells>
         <PointData Scalars="Rank " Vectors="Displacement Velocity Traction ">
            <DataArray type="UInt32" Name="Rank" NumberOfComponents="1" format="ascii">
               0 0 0 0 0 0 0 0 0 0 0 0 0 0 0 0 0 0 0 0 0 0 0 0 0 0 0 0 0 0 0 0 0 0 0 0 0 0 0 0 0 0 0 0 0 0 0 0 0 0 0 0 0 0 0 0 0 0 0 0 0 0 0 0 0 0 0 0 0 0 0 0 0 0 0 0 0 0 0 0 0 
            </DataArray>
            <DataArray type="Float64" Name="Displacement" NumberOfComponents="3" format="ascii">
               0 0 0  0 0 0  0 0 0  0 0 0  0 0 0  0 0 0  0 0 0  0 0 0  0 0 0  0 0 0  0 0 0  0 0 0  0 0 0  0 0 0  0 0 0  0 0 0  0 0 0  0 0 0  0 0 0  0 0 0  0 0 0  0 0 0  0 0 0  0 0 0  0 0 0  0 0 0  0 0 0  0 0 0  0 0 0  0 0 0  0 0 0  0 0 0  0 0 0  0 0 0  0 0 0  0 0 0  0 0 0  0 0 0  0 0 0  0 0 0  0 0 0  0 0 0  0 0 0  0 0 0  0 0 0  0 0 0  0 0 0  0 0 0  0 0 0  0 0 0  0 0 0  0 0 0  0 0 0  0 0 0  0 0 0  0 0 0  0 0 0  0 0 0  0 0 0  0 0 0  0 0 0  0 0 0  0 0 0  0 0 0  0 0 0  0 0 0  0 0 0  0 0 0  0 0 0  0 0 0  0 0 0  0 0 0  0 0 0  0 0 0  0 0 0  0 0 0  0 0 0  0 0 0  0 0 0  0 0 0  0 0 0  
            </DataArray>
            <DataArray type="Float64" Name="Velocity" NumberOfComponents="3" format="ascii">
               0 0 0  0 0 0  0 0 0  0 0 0  0 0 0  0 0 0  0 0 0  0 0 0  0 0 0  0 0 0  0 0 0  0 0 0  0 0 0  0 0 0  0 0 0  0 0 0  0 0 0  0 0 0  0 0 0  0 0 0  0 0 0  0 0 0  0 0 0  0 0 0  0 0 0  0 0 0  0 0 0  0 0 0  0 0 0  0 0 0  0 0 0  0 0 0  0 0 0  0 0 0  0 0 0  0 0 0  0 0 0  0 0 0  0 0 0  0 0 0  0 0 0  0 0 0  0 0 0  0 0 0  0 0 0  0 0 0  0 0 0  0 0 0  0 0 0  0 0 0  0 0 0  0 0 0  0 0 0  0 0 0  0 0 0  0 0 0  0 0 0  0 0 0  0 0 0  0 0 0  0 0 0  0 0 0  0 0 0  0 0 0  0 0 0  0 0 0  0 0 0  0 0 0  0 0 0  0 0 0  0 0 0  0 0 0  0 0 0  0 0 0  0 0 0  0 0 0  0 0 0  0 0 0  0 0 0  0 0 0  0 0 0  
            </DataArray>
            <DataArray type="Float64" Name="Traction" NumberOfComponents="3" format="ascii">
               -0.0011345 -0.00113721 -0.0109507  -0.00102243 -0.00202869 -0.0109507  -0.000674849 -0.00272272 -0.0109507  -6.43542e-05 -0.00262876 -0.0109507  -0.000225929 -0.00261593 -0.0109507  0.000730442 -0.00271075 -0.0109507  0.00233991 -0.0023678 -0.0109507  0.000282083 -0.000831618 -0.0109507  -0.00094021 -0.000354375 -0.0109507  -0.00202009 -0.00102456 -0.0109507  -0.00151497 -0.00152037 -0.0109507  -0.000883778 -0.0021166 -0.0109507  -0.000282421 -0.00221797 -0.0109507  -0.000428304 -0.00231009 -0.0109507  0.00033332 -0.0021251 -0.0109507  0.00257336 -0.00220528 -0.0109507  0.00134275 -0.00143331 -0.0109507  0.000492927 -0.000943968 -0.0109507  -0.00271337 -0.00067532 -0.0109507  -0.00211073 -0.000884348 -0.0109507  -0.00130413 -0.00130482 -0.0109507  -0.000240958 -0.00162239 -0.0109507  -0.000232534 -0.00166883 -0.0109507  0.000290679 -0.00154067 -0.0109507  0.00268467 -0.00158911 -0.0109507  0.00215696 -0.00144862 -0.0109507  0.00220011 -0.00153363 -0.0109507  -0.0026199 -6.98421e-05 -0.0109507  -0.00221271 -0.000286251 -0.0109507  -0.00162187 -0.000244681 -0.0109507  -0.000477368 -0.00048107 -0.0109507  -0.000153067 -0.000418107 -0.0109507  0.000478995 -0.000488653 -0.0109507  0.002485 -0.000385944 -0.0109507  0.00207331 -0.000389317 -0.0109507  0.00255453 -0.000443873 -0.0109507  -0.00260764 -0.000233934 -0.0109507  -0.00230507 -0.000435544 -0.0109507  -0.00166868 -0.000238992 -0.0109507  -0.000414375 -0.000159354 -0.0109507  -0.000272446 -0.000278954 -0.0109507  0.000345464 -0.000264227 -0.0109507  0.00251417 -0.000281761 -0.0109507  0.00213587 -0.000162549 -0.0109507  0.00234051 -0.000448834 -0.0109507  -0.00270284 0.000726158 -0.0109507  -0.00211959 0.000328282 -0.0109507  -0.00154024 0.000285969 -0.0109507  -0.00048507 0.000474452 -0.0109507  -0.000257561 0.000341178 -0.0109507  0.000444078 0.000439217 -0.0109507  0.00256276 0.000182895 -0.0109507  0.00214049 0.00029511 -0.0109507  0.00253045 -0.00023903 -0.0109507  -0.00235785 0.0023353 -0.0109507  -0.00219954 0.00256922 -0.0109507  -0.00158878 0.00267918 -0.0109507  -0.0003821 0.00247869 -0.0109507  -0.00027524 0.00250861 -0.0109507  0.00018756 0.00255677 -0.0109507  0.00224983 0.0022443 -0.0109507  0.00202271 0.00169988 -0.0109507  0.00254203 0.00135689 -0.0109507  -0.000818253 0.000271184 -0.0109507  -0.00142644 0.00133452 -0.0109507  -0.00144809 0.00214926 -0.0109507  -0.000384685 0.00206554 -0.0109507  -0.000155424 0.00212863 -0.0109507  0.000300178 0.00213252 -0.0109507  0.00170445 0.00201272 -0.0109507  0.00147077 0.00146274 -0.0109507  0.00185175 0.00108316 -0.0109507  -0.000336323 -0.000955922 -0.0109507  -0.000932541 0.000480204 -0.0109507  -0.00153163 0.00219047 -0.0109507  -0.000439825 0.00254653 -0.0109507  -0.000441663 0.00233218 -0.0109507  -0.000233795 0.00252126 -0.0109507  0.00136245 0.00252931 -0.0109507  0.00108647 0.00183982 -0.0109507  0.00110323 0.00109966 -0.0109507  
            </DataArray>
         </PointData> 
      </Piece>
   </UnstructuredGrid> 
</VTKFile>
