<?xml version="1.0"?>
<VTKFile type="UnstructuredGrid" version="0.1" byte_order="LittleEndian">
   <UnstructuredGrid>
      <Piece NumberOfPoints="81" NumberOfCells="0" > 
         <Points> 
            <DataArray type="Float64" Name="Position" NumberOfComponents="3" format="ascii"> 
               0  0  15  
               0.375  0  15  
               0.75  0  15  
               1.125  0  15  
               1.5  0  15  
               1.875  0  15  
               2.25  0  15  
               2.625  0  15  
               3  0  15  
               0  0.375  15  
               0.375  0.375  15  
               0.75  0.375  15  
               1.125  0.375  15  
               1.5  0.375  15  
               1.875  0.375  15  
               2.25  0.375  15  
               2.625  0.375  15  
               3  0.375  15  
               0  0.75  15  
               0.375  0.75  15  
               0.75  0.75  15  
               1.125  0.75  15  
               1.5  0.75  15  
               1.875  0.75  15  
               2.25  0.75  15  
               2.625  0.75  15  
               3  0.75  15  
               0  1.125  15  
               0.375  1.125  15  
               0.75  1.125  15  
               1.125  1.125  15  
               1.5  1.125  15  
               1.875  1.125  15  
               2.25  1.125  15  
               2.625  1.125  15  
               3  1.125  15  
               0  1.5  15  
               0.375  1.5  15  
               0.75  1.5  15  
               1.125  1.5  15  
               1.5  1.5  15  
               1.875  1.5  15  
               2.25  1.5  15  
               2.625  1.5  15  
               3  1.5  15  
               0  1.875  15  
               0.375  1.875  15  
               0.75  1.875  15  
               1.125  1.875  15  
               1.5  1.875  15  
               1.875  1.875  15  
               2.25  1.875  15  
               2.625  1.875  15  
               3  1.875  15  
               0  2.25  15  
               0.375  2.25  15  
               0.75  2.25  15  
               1.125  2.25  15  
               1.5  2.25  15  
               1.875  2.25  15  
               2.25  2.25  15  
               2.625  2.25  15  
               3  2.25  15  
               0  2.625  15  
               0.375  2.625  15  
               0.75  2.625  15  
               1.125  2.625  15  
               1.5  2.625  15  
               1.875  2.625  15  
               2.25  2.625  15  
               2.625  2.625  15  
               3  2.625  15  
               0  3  15  
               0.375  3  15  
               0.75  3  15  
               1.125  3  15  
               1.5  3  15  
               1.875  3  15  
               2.25  3  15  
               2.625  3  15  
               3  3  15  
            </DataArray>
         </Points> 

         <Cells>
            <DataArray type="Int32" Name="connectivity" NumberOfComponents="1" format="ascii">
               
            </DataArray> 
            <DataArray type="Int32" Name="offsets" NumberOfComponents="1" format="ascii">
               
            </DataArray>
            <DataArray type="UInt8"  Name="types" NumberOfComponents="1" format="ascii">
               
            </DataArray>
         </Cells>
         <PointData Scalars="Rank " Vectors="Displacement Velocity Traction ">
            <DataArray type="UInt32" Name="Rank" NumberOfComponents="1" format="ascii">
               0 0 0 0 0 0 0 0 0 0 0 0 0 0 0 0 0 0 0 0 0 0 0 0 0 0 0 0 0 0 0 0 0 0 0 0 0 0 0 0 0 0 0 0 0 0 0 0 0 0 0 0 0 0 0 0 0 0 0 0 0 0 0 0 0 0 0 0 0 0 0 0 0 0 0 0 0 0 0 0 0 
            </DataArray>
            <DataArray type="Float64" Name="Displacement" NumberOfComponents="3" format="ascii">
               0 0 0  0 0 0  0 0 0  0 0 0  0 0 0  0 0 0  0 0 0  0 0 0  0 0 0  0 0 0  0 0 0  0 0 0  0 0 0  0 0 0  0 0 0  0 0 0  0 0 0  0 0 0  0 0 0  0 0 0  0 0 0  0 0 0  0 0 0  0 0 0  0 0 0  0 0 0  0 0 0  0 0 0  0 0 0  0 0 0  0 0 0  0 0 0  0 0 0  0 0 0  0 0 0  0 0 0  0 0 0  0 0 0  0 0 0  0 0 0  0 0 0  0 0 0  0 0 0  0 0 0  0 0 0  0 0 0  0 0 0  0 0 0  0 0 0  0 0 0  0 0 0  0 0 0  0 0 0  0 0 0  0 0 0  0 0 0  0 0 0  0 0 0  0 0 0  0 0 0  0 0 0  0 0 0  0 0 0  0 0 0  0 0 0  0 0 0  0 0 0  0 0 0  0 0 0  0 0 0  0 0 0  0 0 0  0 0 0  0 0 0  0 0 0  0 0 0  0 0 0  0 0 0  0 0 0  0 0 0  0 0 0  
            </DataArray>
            <DataArray type="Float64" Name="Velocity" NumberOfComponents="3" format="ascii">
               0 0 0  0 0 0  0 0 0  0 0 0  0 0 0  0 0 0  0 0 0  0 0 0  0 0 0  0 0 0  0 0 0  0 0 0  0 0 0  0 0 0  0 0 0  0 0 0  0 0 0  0 0 0  0 0 0  0 0 0  0 0 0  0 0 0  0 0 0  0 0 0  0 0 0  0 0 0  0 0 0  0 0 0  0 0 0  0 0 0  0 0 0  0 0 0  0 0 0  0 0 0  0 0 0  0 0 0  0 0 0  0 0 0  0 0 0  0 0 0  0 0 0  0 0 0  0 0 0  0 0 0  0 0 0  0 0 0  0 0 0  0 0 0  0 0 0  0 0 0  0 0 0  0 0 0  0 0 0  0 0 0  0 0 0  0 0 0  0 0 0  0 0 0  0 0 0  0 0 0  0 0 0  0 0 0  0 0 0  0 0 0  0 0 0  0 0 0  0 0 0  0 0 0  0 0 0  0 0 0  0 0 0  0 0 0  0 0 0  0 0 0  0 0 0  0 0 0  0 0 0  0 0 0  0 0 0  0 0 0  0 0 0  
            </DataArray>
            <DataArray type="Float64" Name="Traction" NumberOfComponents="3" format="ascii">
               6.88275e-09 7.02163e-09 -1.28502e-09  -4.35792e-09 1.89691e-09 -1.28502e-09  6.88712e-10 -6.2788e-09 -1.28502e-09  2.58776e-09 -5.7639e-10 -1.28502e-09  4.01725e-11 6.45608e-09 -1.28502e-09  -2.00996e-09 1.67052e-09 -1.28502e-09  -9.89185e-10 -4.53528e-09 -1.28502e-09  2.88405e-09 2.57586e-09 -1.28502e-09  -7.54671e-09 8.06471e-09 -1.28502e-09  2.11499e-09 -4.00911e-09 -1.28502e-09  -1.13406e-09 -8.45757e-10 -1.28502e-09  1.0412e-10 1.68937e-09 -1.28502e-09  5.08966e-10 -3.01601e-10 -1.28502e-09  7.6657e-11 -2.43238e-09 -1.28502e-09  -4.58366e-10 -8.27663e-10 -1.28502e-09  -4.03186e-10 7.6352e-10 -1.28502e-09  1.17505e-09 -5.20061e-10 -1.28502e-09  -4.07799e-09 -2.32797e-09 -1.28502e-09  -5.11038e-09 7.06982e-11 -1.28502e-09  1.36534e-09 4.90333e-12 -1.28502e-09  -7.66334e-10 -6.33777e-10 -1.28502e-09  -6.16848e-10 1.97218e-11 -1.28502e-09  -5.04416e-11 5.79745e-10 -1.28502e-09  3.41549e-10 3.35169e-11 -1.28502e-09  2.21343e-10 -5.54439e-10 -1.28502e-09  1.76407e-10 2.27859e-10 -1.28502e-09  -6.1597e-10 8.11011e-10 -1.28502e-09  -3.70341e-09 6.14729e-10 -1.28502e-09  9.20912e-10 -1.53157e-12 -1.28502e-09  -3.64726e-10 -3.41355e-10 -1.28502e-09  -2.37223e-10 2.40922e-10 -1.28502e-09  -1.94796e-10 7.0942e-10 -1.28502e-09  6.09882e-11 2.48624e-10 -1.28502e-09  9.1098e-11 -7.63304e-11 -1.28502e-09  5.04405e-10 1.18737e-10 -1.28502e-09  -8.81853e-10 6.62177e-10 -1.28502e-09  -2.61837e-09 1.55412e-10 -1.28502e-09  2.45644e-10 1.03591e-10 -1.28502e-09  -1.64848e-10 -8.05189e-11 -1.28502e-09  4.34522e-10 -9.27357e-12 -1.28502e-09  -2.09156e-10 1.82003e-10 -1.28502e-09  -4.42905e-10 1.11015e-10 -1.28502e-09  -1.24031e-10 -2.70432e-11 -1.28502e-09  1.06285e-09 8.00617e-11 -1.28502e-09  -2.45117e-09 4.53078e-11 -1.28502e-09  -3.2267e-09 -3.71924e-10 -1.28502e-09  8.23208e-10 1.82447e-10 -1.28502e-09  -3.41042e-10 7.39718e-10 -1.28502e-09  -2.36704e-10 1.54156e-11 -1.28502e-09  -1.40877e-10 -6.69269e-10 -1.28502e-09  4.23881e-11 -1.07423e-10 -1.28502e-09  -3.75576e-11 3.58175e-10 -1.28502e-09  5.97158e-10 1.35277e-11 -1.28502e-09  -1.99513e-09 -4.31697e-10 -1.28502e-09  -3.48611e-09 3.70095e-10 -1.28502e-09  1.4254e-09 2.61309e-10 -1.28502e-09  -3.62985e-10 2.57294e-10 -1.28502e-09  -9.70093e-10 -2.04144e-12 -1.28502e-09  -1.43673e-10 -2.12248e-10 -1.28502e-09  5.90998e-10 2.57515e-12 -1.28502e-09  1.63944e-10 1.1079e-10 -1.28502e-09  3.15138e-11 -2.14495e-10 -1.28502e-09  3.18154e-10 -3.20283e-10 -1.28502e-09  -3.11846e-09 -3.98136e-11 -1.28502e-09  9.19424e-10 -4.10562e-10 -1.28502e-09  -2.65413e-10 -7.89432e-10 -1.28502e-09  -2.68077e-10 1.39274e-10 -1.28502e-09  -3.65653e-11 1.05466e-09 -1.28502e-09  2.63996e-10 6.0562e-10 -1.28502e-09  -1.94462e-10 2.17537e-10 -1.28502e-09  3.58795e-10 4.89641e-10 -1.28502e-09  -1.4392e-09 9.75307e-10 -1.28502e-09  -2.80553e-09 3.07161e-09 -1.28502e-09  5.41525e-10 2.10883e-09 -1.28502e-09  -9.15337e-11 1.86223e-09 -1.28502e-09  4.81831e-10 -6.26682e-10 -1.28502e-09  1.66424e-10 -2.23467e-09 -1.28502e-09  -9.18109e-11 -9.71386e-10 -1.28502e-09  -3.00842e-10 -4.37655e-10 -1.28502e-09  8.51996e-10 -1.31911e-09 -1.28502e-09  -3.45574e-09 -3.25011e-09 -1.28502e-09  
            </DataArray>
         </PointData> 
      </Piece>
   </UnstructuredGrid> 
</VTKFile>
