<?xml version="1.0"?>
<VTKFile type="UnstructuredGrid" version="0.1" byte_order="LittleEndian">
   <UnstructuredGrid>
      <Piece NumberOfPoints="81" NumberOfCells="0" > 
         <Points> 
            <DataArray type="Float64" Name="Position" NumberOfComponents="3" format="ascii"> 
               0  0  20  
               0.375  0  20  
               0.75  0  20  
               1.125  0  20  
               1.5  0  20  
               1.875  0  20  
               2.25  0  20  
               2.625  0  20  
               3  0  20  
               0  0.375  20  
               0.375  0.375  20  
               0.75  0.375  20  
               1.125  0.375  20  
               1.5  0.375  20  
               1.875  0.375  20  
               2.25  0.375  20  
               2.625  0.375  20  
               3  0.375  20  
               0  0.75  20  
               0.375  0.75  20  
               0.75  0.75  20  
               1.125  0.75  20  
               1.5  0.75  20  
               1.875  0.75  20  
               2.25  0.75  20  
               2.625  0.75  20  
               3  0.75  20  
               0  1.125  20  
               0.375  1.125  20  
               0.75  1.125  20  
               1.125  1.125  20  
               1.5  1.125  20  
               1.875  1.125  20  
               2.25  1.125  20  
               2.625  1.125  20  
               3  1.125  20  
               0  1.5  20  
               0.375  1.5  20  
               0.75  1.5  20  
               1.125  1.5  20  
               1.5  1.5  20  
               1.875  1.5  20  
               2.25  1.5  20  
               2.625  1.5  20  
               3  1.5  20  
               0  1.875  20  
               0.375  1.875  20  
               0.75  1.875  20  
               1.125  1.875  20  
               1.5  1.875  20  
               1.875  1.875  20  
               2.25  1.875  20  
               2.625  1.875  20  
               3  1.875  20  
               0  2.25  20  
               0.375  2.25  20  
               0.75  2.25  20  
               1.125  2.25  20  
               1.5  2.25  20  
               1.875  2.25  20  
               2.25  2.25  20  
               2.625  2.25  20  
               3  2.25  20  
               0  2.625  20  
               0.375  2.625  20  
               0.75  2.625  20  
               1.125  2.625  20  
               1.5  2.625  20  
               1.875  2.625  20  
               2.25  2.625  20  
               2.625  2.625  20  
               3  2.625  20  
               0  3  20  
               0.375  3  20  
               0.75  3  20  
               1.125  3  20  
               1.5  3  20  
               1.875  3  20  
               2.25  3  20  
               2.625  3  20  
               3  3  20  
            </DataArray>
         </Points> 

         <Cells>
            <DataArray type="Int32" Name="connectivity" NumberOfComponents="1" format="ascii">
               
            </DataArray> 
            <DataArray type="Int32" Name="offsets" NumberOfComponents="1" format="ascii">
               
            </DataArray>
            <DataArray type="UInt8"  Name="types" NumberOfComponents="1" format="ascii">
               
            </DataArray>
         </Cells>
         <PointData Scalars="Rank " Vectors="Displacement Velocity Traction ">
            <DataArray type="UInt32" Name="Rank" NumberOfComponents="1" format="ascii">
               0 0 0 0 0 0 0 0 0 0 0 0 0 0 0 0 0 0 0 0 0 0 0 0 0 0 0 0 0 0 0 0 0 0 0 0 0 0 0 0 0 0 0 0 0 0 0 0 0 0 0 0 0 0 0 0 0 0 0 0 0 0 0 0 0 0 0 0 0 0 0 0 0 0 0 0 0 0 0 0 0 
            </DataArray>
            <DataArray type="Float64" Name="Displacement" NumberOfComponents="3" format="ascii">
               0 0 0  0 0 0  0 0 0  0 0 0  0 0 0  0 0 0  0 0 0  0 0 0  0 0 0  0 0 0  0 0 0  0 0 0  0 0 0  0 0 0  0 0 0  0 0 0  0 0 0  0 0 0  0 0 0  0 0 0  0 0 0  0 0 0  0 0 0  0 0 0  0 0 0  0 0 0  0 0 0  0 0 0  0 0 0  0 0 0  0 0 0  0 0 0  0 0 0  0 0 0  0 0 0  0 0 0  0 0 0  0 0 0  0 0 0  0 0 0  0 0 0  0 0 0  0 0 0  0 0 0  0 0 0  0 0 0  0 0 0  0 0 0  0 0 0  0 0 0  0 0 0  0 0 0  0 0 0  0 0 0  0 0 0  0 0 0  0 0 0  0 0 0  0 0 0  0 0 0  0 0 0  0 0 0  0 0 0  0 0 0  0 0 0  0 0 0  0 0 0  0 0 0  0 0 0  0 0 0  0 0 0  0 0 0  0 0 0  0 0 0  0 0 0  0 0 0  0 0 0  0 0 0  0 0 0  0 0 0  0 0 0  
            </DataArray>
            <DataArray type="Float64" Name="Velocity" NumberOfComponents="3" format="ascii">
               0 0 0  0 0 0  0 0 0  0 0 0  0 0 0  0 0 0  0 0 0  0 0 0  0 0 0  0 0 0  0 0 0  0 0 0  0 0 0  0 0 0  0 0 0  0 0 0  0 0 0  0 0 0  0 0 0  0 0 0  0 0 0  0 0 0  0 0 0  0 0 0  0 0 0  0 0 0  0 0 0  0 0 0  0 0 0  0 0 0  0 0 0  0 0 0  0 0 0  0 0 0  0 0 0  0 0 0  0 0 0  0 0 0  0 0 0  0 0 0  0 0 0  0 0 0  0 0 0  0 0 0  0 0 0  0 0 0  0 0 0  0 0 0  0 0 0  0 0 0  0 0 0  0 0 0  0 0 0  0 0 0  0 0 0  0 0 0  0 0 0  0 0 0  0 0 0  0 0 0  0 0 0  0 0 0  0 0 0  0 0 0  0 0 0  0 0 0  0 0 0  0 0 0  0 0 0  0 0 0  0 0 0  0 0 0  0 0 0  0 0 0  0 0 0  0 0 0  0 0 0  0 0 0  0 0 0  0 0 0  0 0 0  
            </DataArray>
            <DataArray type="Float64" Name="Traction" NumberOfComponents="3" format="ascii">
               -1.94002e-06 -1.95063e-06 -1.66593e-05  -4.59641e-07 -3.65308e-06 -1.66593e-05  3.3007e-09 -4.31316e-06 -1.66593e-05  4.57269e-08 -4.40093e-06 -1.66593e-05  -1.32404e-08 -4.33977e-06 -1.66593e-05  2.48175e-07 -4.47278e-06 -1.66593e-05  1.46901e-06 -4.19521e-06 -1.66593e-05  1.16778e-06 -2.60624e-06 -1.66593e-05  1.78803e-06 -2.4709e-06 -1.66593e-05  -3.63749e-06 -4.66292e-07 -1.66593e-05  -1.72034e-06 -1.73257e-06 -1.66593e-05  -4.35745e-07 -2.43617e-06 -1.66593e-05  -9.7041e-08 -2.58965e-06 -1.66593e-05  -1.90938e-07 -2.6077e-06 -1.66593e-05  1.24495e-07 -2.57678e-06 -1.66593e-05  1.65999e-06 -2.64436e-06 -1.66593e-05  1.62057e-06 -1.63801e-06 -1.66593e-05  2.52731e-06 -1.52072e-06 -1.66593e-05  -4.29398e-06 -4.79159e-09 -1.66593e-05  -2.42064e-06 -4.47132e-07 -1.66593e-05  -8.44981e-07 -8.58244e-07 -1.66593e-05  -1.06208e-07 -1.10294e-06 -1.66593e-05  -1.34539e-07 -1.10611e-06 -1.66593e-05  1.63557e-07 -1.07509e-06 -1.66593e-05  2.18509e-06 -1.0907e-06 -1.66593e-05  2.49957e-06 -7.23096e-07 -1.66593e-05  3.99374e-06 -8.30197e-07 -1.66593e-05  -4.38239e-06 3.55633e-08 -1.66593e-05  -2.57778e-06 -1.08933e-07 -1.66593e-05  -1.09319e-06 -1.19402e-07 -1.66593e-05  -2.66049e-07 -2.77802e-07 -1.66593e-05  -2.02081e-07 -2.15825e-07 -1.66593e-05  2.56496e-07 -2.7589e-07 -1.66593e-05  2.1571e-06 -1.79532e-07 -1.66593e-05  2.5364e-06 -1.46283e-07 -1.66593e-05  4.37022e-06 -3.32546e-08 -1.66593e-05  -4.31538e-06 -2.24436e-08 -1.66593e-05  -2.58651e-06 -1.99452e-07 -1.66593e-05  -1.09122e-06 -1.44494e-07 -1.66593e-05  -2.05832e-07 -2.1047e-07 -1.66593e-05  -2.7557e-07 -2.81231e-07 -1.66593e-05  1.3843e-07 -2.4489e-07 -1.66593e-05  2.07916e-06 -2.77719e-07 -1.66593e-05  2.44214e-06 -1.59707e-07 -1.66593e-05  4.10068e-06 -4.1226e-07 -1.66593e-05  -4.4661e-06 2.3795e-07 -1.66593e-05  -2.57136e-06 1.16127e-07 -1.66593e-05  -1.06978e-06 1.53362e-07 -1.66593e-05  -2.69775e-07 2.49158e-07 -1.66593e-05  -2.39895e-07 1.31663e-07 -1.66593e-05  2.58281e-07 2.51884e-07 -1.66593e-05  2.18461e-06 6.17403e-09 -1.66593e-05  2.53402e-06 1.35237e-07 -1.66593e-05  4.31215e-06 -2.77411e-07 -1.66593e-05  -4.17924e-06 1.46295e-06 -1.66593e-05  -2.6293e-06 1.64715e-06 -1.66593e-05  -1.07658e-06 2.16919e-06 -1.66593e-05  -1.72014e-07 2.15392e-06 -1.66593e-05  -2.72411e-07 2.07112e-06 -1.66593e-05  1.19394e-08 2.18227e-06 -1.66593e-05  1.84134e-06 1.83773e-06 -1.66593e-05  2.40376e-06 1.05752e-06 -1.66593e-05  4.24641e-06 5.1779e-07 -1.66593e-05  -2.59959e-06 1.16907e-06 -1.66593e-05  -1.62934e-06 1.61012e-06 -1.66593e-05  -7.12496e-07 2.48148e-06 -1.66593e-05  -1.4098e-07 2.53336e-06 -1.66593e-05  -1.53816e-07 2.42918e-06 -1.66593e-05  1.42415e-07 2.52922e-06 -1.66593e-05  1.06371e-06 2.39761e-06 -1.66593e-05  1.71854e-06 1.71083e-06 -1.66593e-05  3.59261e-06 5.33434e-07 -1.66593e-05  -2.47332e-06 1.79288e-06 -1.66593e-05  -1.52138e-06 2.521e-06 -1.66593e-05  -8.23334e-07 3.97701e-06 -1.66593e-05  -2.43734e-08 4.36743e-06 -1.66593e-05  -4.01837e-07 4.08781e-06 -1.66593e-05  -2.67532e-07 4.30341e-06 -1.66593e-05  5.25236e-07 4.23798e-06 -1.66593e-05  5.41664e-07 3.58347e-06 -1.66593e-05  1.98055e-06 1.97033e-06 -1.66593e-05  
            </DataArray>
         </PointData> 
      </Piece>
   </UnstructuredGrid> 
</VTKFile>
