<?xml version="1.0"?>
<VTKFile type="UnstructuredGrid" version="0.1" byte_order="LittleEndian">
   <UnstructuredGrid>
      <Piece NumberOfPoints="81" NumberOfCells="0" > 
         <Points> 
            <DataArray type="Float64" Name="Position" NumberOfComponents="3" format="ascii"> 
               0  0  20  
               0.375  0  20  
               0.75  0  20  
               1.125  0  20  
               1.5  0  20  
               1.875  0  20  
               2.25  0  20  
               2.625  0  20  
               3  0  20  
               0  0.375  20  
               0.375  0.375  20  
               0.75  0.375  20  
               1.125  0.375  20  
               1.5  0.375  20  
               1.875  0.375  20  
               2.25  0.375  20  
               2.625  0.375  20  
               3  0.375  20  
               0  0.75  20  
               0.375  0.75  20  
               0.75  0.75  20  
               1.125  0.75  20  
               1.5  0.75  20  
               1.875  0.75  20  
               2.25  0.75  20  
               2.625  0.75  20  
               3  0.75  20  
               0  1.125  20  
               0.375  1.125  20  
               0.75  1.125  20  
               1.125  1.125  20  
               1.5  1.125  20  
               1.875  1.125  20  
               2.25  1.125  20  
               2.625  1.125  20  
               3  1.125  20  
               0  1.5  20  
               0.375  1.5  20  
               0.75  1.5  20  
               1.125  1.5  20  
               1.5  1.5  20  
               1.875  1.5  20  
               2.25  1.5  20  
               2.625  1.5  20  
               3  1.5  20  
               0  1.875  20  
               0.375  1.875  20  
               0.75  1.875  20  
               1.125  1.875  20  
               1.5  1.875  20  
               1.875  1.875  20  
               2.25  1.875  20  
               2.625  1.875  20  
               3  1.875  20  
               0  2.25  20  
               0.375  2.25  20  
               0.75  2.25  20  
               1.125  2.25  20  
               1.5  2.25  20  
               1.875  2.25  20  
               2.25  2.25  20  
               2.625  2.25  20  
               3  2.25  20  
               0  2.625  20  
               0.375  2.625  20  
               0.75  2.625  20  
               1.125  2.625  20  
               1.5  2.625  20  
               1.875  2.625  20  
               2.25  2.625  20  
               2.625  2.625  20  
               3  2.625  20  
               0  3  20  
               0.375  3  20  
               0.75  3  20  
               1.125  3  20  
               1.5  3  20  
               1.875  3  20  
               2.25  3  20  
               2.625  3  20  
               3  3  20  
            </DataArray>
         </Points> 

         <Cells>
            <DataArray type="Int32" Name="connectivity" NumberOfComponents="1" format="ascii">
               
            </DataArray> 
            <DataArray type="Int32" Name="offsets" NumberOfComponents="1" format="ascii">
               
            </DataArray>
            <DataArray type="UInt8"  Name="types" NumberOfComponents="1" format="ascii">
               
            </DataArray>
         </Cells>
         <PointData Scalars="Rank " Vectors="Displacement Velocity Traction ">
            <DataArray type="UInt32" Name="Rank" NumberOfComponents="1" format="ascii">
               0 0 0 0 0 0 0 0 0 0 0 0 0 0 0 0 0 0 0 0 0 0 0 0 0 0 0 0 0 0 0 0 0 0 0 0 0 0 0 0 0 0 0 0 0 0 0 0 0 0 0 0 0 0 0 0 0 0 0 0 0 0 0 0 0 0 0 0 0 0 0 0 0 0 0 0 0 0 0 0 0 
            </DataArray>
            <DataArray type="Float64" Name="Displacement" NumberOfComponents="3" format="ascii">
               0 0 0  0 0 0  0 0 0  0 0 0  0 0 0  0 0 0  0 0 0  0 0 0  0 0 0  0 0 0  0 0 0  0 0 0  0 0 0  0 0 0  0 0 0  0 0 0  0 0 0  0 0 0  0 0 0  0 0 0  0 0 0  0 0 0  0 0 0  0 0 0  0 0 0  0 0 0  0 0 0  0 0 0  0 0 0  0 0 0  0 0 0  0 0 0  0 0 0  0 0 0  0 0 0  0 0 0  0 0 0  0 0 0  0 0 0  0 0 0  0 0 0  0 0 0  0 0 0  0 0 0  0 0 0  0 0 0  0 0 0  0 0 0  0 0 0  0 0 0  0 0 0  0 0 0  0 0 0  0 0 0  0 0 0  0 0 0  0 0 0  0 0 0  0 0 0  0 0 0  0 0 0  0 0 0  0 0 0  0 0 0  0 0 0  0 0 0  0 0 0  0 0 0  0 0 0  0 0 0  0 0 0  0 0 0  0 0 0  0 0 0  0 0 0  0 0 0  0 0 0  0 0 0  0 0 0  0 0 0  0 0 0  
            </DataArray>
            <DataArray type="Float64" Name="Velocity" NumberOfComponents="3" format="ascii">
               0 0 0  0 0 0  0 0 0  0 0 0  0 0 0  0 0 0  0 0 0  0 0 0  0 0 0  0 0 0  0 0 0  0 0 0  0 0 0  0 0 0  0 0 0  0 0 0  0 0 0  0 0 0  0 0 0  0 0 0  0 0 0  0 0 0  0 0 0  0 0 0  0 0 0  0 0 0  0 0 0  0 0 0  0 0 0  0 0 0  0 0 0  0 0 0  0 0 0  0 0 0  0 0 0  0 0 0  0 0 0  0 0 0  0 0 0  0 0 0  0 0 0  0 0 0  0 0 0  0 0 0  0 0 0  0 0 0  0 0 0  0 0 0  0 0 0  0 0 0  0 0 0  0 0 0  0 0 0  0 0 0  0 0 0  0 0 0  0 0 0  0 0 0  0 0 0  0 0 0  0 0 0  0 0 0  0 0 0  0 0 0  0 0 0  0 0 0  0 0 0  0 0 0  0 0 0  0 0 0  0 0 0  0 0 0  0 0 0  0 0 0  0 0 0  0 0 0  0 0 0  0 0 0  0 0 0  0 0 0  0 0 0  
            </DataArray>
            <DataArray type="Float64" Name="Traction" NumberOfComponents="3" format="ascii">
               -0.00531865 -0.00531393 -0.0574173  -0.00383168 -0.00954335 -0.0574173  -0.00231187 -0.012694 -0.0574173  -0.000127153 -0.0124517 -0.0574173  -0.000868658 -0.0122697 -0.0574173  0.00254257 -0.0128382 -0.0574173  0.00880762 -0.011479 -0.0574173  0.00146628 -0.00490374 -0.0574173  -0.00205111 -0.00276695 -0.0574173  -0.00956815 -0.00383315 -0.0574173  -0.00637838 -0.00636674 -0.0574173  -0.0033744 -0.00891126 -0.0574173  -0.000970907 -0.00936588 -0.0574173  -0.00170092 -0.00963365 -0.0574173  0.00112311 -0.00903241 -0.0574173  0.0100034 -0.0093882 -0.0574173  0.0056538 -0.00597724 -0.0574173  0.00369134 -0.00394688 -0.0574173  -0.012723 -0.00232017 -0.0574173  -0.00892771 -0.00337865 -0.0574173  -0.00503858 -0.00503957 -0.0574173  -0.000778867 -0.00622977 -0.0574173  -0.000986332 -0.00635573 -0.0574173  0.000934337 -0.00590246 -0.0574173  0.0108006 -0.00613409 -0.0574173  0.00916084 -0.00547939 -0.0574173  0.0108347 -0.00568596 -0.0574173  -0.0124757 -0.000122701 -0.0574173  -0.00937912 -0.000968445 -0.0574173  -0.00622852 -0.000775448 -0.0574173  -0.00167999 -0.00167605 -0.0574173  -0.000731172 -0.00142871 -0.0574173  0.00165405 -0.00170837 -0.0574173  0.00999671 -0.00127521 -0.0574173  0.0088356 -0.00134369 -0.0574173  0.0122817 -0.00141139 -0.0574173  -0.0122927 -0.000857559 -0.0574173  -0.00964561 -0.00168991 -0.0574173  -0.00635285 -0.000976558 -0.0574173  -0.00143222 -0.000721587 -0.0574173  -0.00117199 -0.00116199 -0.0574173  0.00113169 -0.00111774 -0.0574173  0.0100377 -0.00121527 -0.0574173  0.00893599 -0.000726666 -0.0574173  0.0112251 -0.00180372 -0.0574173  -0.0128625 0.00254033 -0.0574173  -0.00904695 0.0011249 -0.0574173  -0.00590072 0.000934967 -0.0574173  -0.00171207 0.00165391 -0.0574173  -0.00112774 0.00113209 -0.0574173  0.0015258 0.00152638 -0.0574173  0.0103274 0.000523618 -0.0574173  0.00906391 0.00102522 -0.0574173  0.0120933 -0.00108963 -0.0574173  -0.0115082 0.00879792 -0.0574173  -0.00940557 0.00998984 -0.0574173  -0.00613433 0.0107892 -0.0574173  -0.00127907 0.00998805 -0.0574173  -0.00122521 0.0100276 -0.0574173  0.000522987 0.0103173 -0.0574173  0.00912084 0.0091103 -0.0574173  0.0085421 0.00676852 -0.0574173  0.0120128 0.00506818 -0.0574173  -0.00493279 0.00149279 -0.0574173  -0.00599086 0.00566288 -0.0574173  -0.00547774 0.00916509 -0.0574173  -0.00134853 0.0088413 -0.0574173  -0.000738108 0.00894105 -0.0574173  0.00102404 0.00907009 -0.0574173  0.00677909 0.00855116 -0.0574173  0.00617073 0.00617826 -0.0574173  0.00888145 0.00406188 -0.0574173  -0.00280072 -0.00199564 -0.0574173  -0.00396556 0.00372736 -0.0574173  -0.00568498 0.0108594 -0.0574173  -0.00141288 0.0123037 -0.0574173  -0.00181694 0.0112484 -0.0574173  -0.00109754 0.0121194 -0.0574173  0.00507376 0.0120435 -0.0574173  0.00406851 0.00891018 -0.0574173  0.005199 0.00520288 -0.0574173  
            </DataArray>
         </PointData> 
      </Piece>
   </UnstructuredGrid> 
</VTKFile>
