<?xml version="1.0"?>
<VTKFile type="UnstructuredGrid" version="0.1" byte_order="LittleEndian">
   <UnstructuredGrid>
      <Piece NumberOfPoints="81" NumberOfCells="0" > 
         <Points> 
            <DataArray type="Float64" Name="Position" NumberOfComponents="3" format="ascii"> 
               0  0  20  
               0.375  0  20  
               0.75  0  20  
               1.125  0  20  
               1.5  0  20  
               1.875  0  20  
               2.25  0  20  
               2.625  0  20  
               3  0  20  
               0  0.375  20  
               0.375  0.375  20  
               0.75  0.375  20  
               1.125  0.375  20  
               1.5  0.375  20  
               1.875  0.375  20  
               2.25  0.375  20  
               2.625  0.375  20  
               3  0.375  20  
               0  0.75  20  
               0.375  0.75  20  
               0.75  0.75  20  
               1.125  0.75  20  
               1.5  0.75  20  
               1.875  0.75  20  
               2.25  0.75  20  
               2.625  0.75  20  
               3  0.75  20  
               0  1.125  20  
               0.375  1.125  20  
               0.75  1.125  20  
               1.125  1.125  20  
               1.5  1.125  20  
               1.875  1.125  20  
               2.25  1.125  20  
               2.625  1.125  20  
               3  1.125  20  
               0  1.5  20  
               0.375  1.5  20  
               0.75  1.5  20  
               1.125  1.5  20  
               1.5  1.5  20  
               1.875  1.5  20  
               2.25  1.5  20  
               2.625  1.5  20  
               3  1.5  20  
               0  1.875  20  
               0.375  1.875  20  
               0.75  1.875  20  
               1.125  1.875  20  
               1.5  1.875  20  
               1.875  1.875  20  
               2.25  1.875  20  
               2.625  1.875  20  
               3  1.875  20  
               0  2.25  20  
               0.375  2.25  20  
               0.75  2.25  20  
               1.125  2.25  20  
               1.5  2.25  20  
               1.875  2.25  20  
               2.25  2.25  20  
               2.625  2.25  20  
               3  2.25  20  
               0  2.625  20  
               0.375  2.625  20  
               0.75  2.625  20  
               1.125  2.625  20  
               1.5  2.625  20  
               1.875  2.625  20  
               2.25  2.625  20  
               2.625  2.625  20  
               3  2.625  20  
               0  3  20  
               0.375  3  20  
               0.75  3  20  
               1.125  3  20  
               1.5  3  20  
               1.875  3  20  
               2.25  3  20  
               2.625  3  20  
               3  3  20  
            </DataArray>
         </Points> 

         <Cells>
            <DataArray type="Int32" Name="connectivity" NumberOfComponents="1" format="ascii">
               
            </DataArray> 
            <DataArray type="Int32" Name="offsets" NumberOfComponents="1" format="ascii">
               
            </DataArray>
            <DataArray type="UInt8"  Name="types" NumberOfComponents="1" format="ascii">
               
            </DataArray>
         </Cells>
         <PointData Scalars="Rank " Vectors="Displacement Velocity Traction ">
            <DataArray type="UInt32" Name="Rank" NumberOfComponents="1" format="ascii">
               0 0 0 0 0 0 0 0 0 0 0 0 0 0 0 0 0 0 0 0 0 0 0 0 0 0 0 0 0 0 0 0 0 0 0 0 0 0 0 0 0 0 0 0 0 0 0 0 0 0 0 0 0 0 0 0 0 0 0 0 0 0 0 0 0 0 0 0 0 0 0 0 0 0 0 0 0 0 0 0 0 
            </DataArray>
            <DataArray type="Float64" Name="Displacement" NumberOfComponents="3" format="ascii">
               0.00439697 0.00439819 -0.0155226  0.000825457 0.00633527 -0.0152794  0.000333612 0.00801575 -0.014104  -0.000150523 0.00806363 -0.0139741  -0.000317374 0.0077686 -0.0141115  -0.000589907 0.00824187 -0.0138304  -0.00165099 0.00799586 -0.0141043  -0.00120954 0.0055321 -0.0151989  -0.00374285 0.00497022 -0.0150337  0.00633375 0.000826631 -0.0152784  0.00199574 0.00199737 -0.0137737  0.0010846 0.00266637 -0.0115856  0.000125729 0.00281896 -0.0114029  4.78347e-05 0.00285589 -0.0115757  -0.000139257 0.00283115 -0.0112571  -0.00156394 0.00302622 -0.0116373  -0.00190358 0.00195799 -0.0139973  -0.00542405 0.00200777 -0.0150491  0.00801385 0.000334559 -0.0141034  0.00266514 0.0010861 -0.0115859  0.00158216 0.00158337 -0.00811304  -5.49101e-05 0.00182371 -0.00773259  -5.06215e-05 0.0017712 -0.00798296  -9.90743e-06 0.00182342 -0.0077119  -0.00191313 0.00202615 -0.00813202  -0.00283551 0.00150884 -0.0116629  -0.0077906 0.00164219 -0.0140424  0.00806077 -0.000149338 -0.0139731  0.00281703 0.000126946 -0.0114032  0.00182252 -5.3443e-05 -0.0077326  0.000212687 0.0002139 -0.00720132  1.11894e-05 0.000111269 -0.00740657  -0.00016931 0.000254166 -0.00721082  -0.00174872 0.000113044 -0.00772589  -0.00272802 0.000238404 -0.0112985  -0.008104 0.000276919 -0.013832  0.00776614 -0.000316446 -0.0141104  0.00285393 4.85815e-05 -0.0115759  0.00176983 -4.97071e-05 -0.00798276  0.000109972 1.20567e-05 -0.00740637  9.01611e-05 9.10418e-05 -0.00760101  6.68741e-05 6.96359e-05 -0.00740163  -0.00156869 0.000191097 -0.00796955  -0.00255493 7.85354e-05 -0.0115474  -0.00741821 0.000554476 -0.0140331  0.00823927 -0.000589091 -0.0138296  0.00282916 -0.000138735 -0.0112574  0.00182196 -9.59217e-06 -0.00771172  0.000252811 -0.000168941 -0.00721047  6.86942e-05 6.72439e-05 -0.00740153  -0.000136574 -0.000136292 -0.00718133  -0.00176327 0.000262891 -0.00770813  -0.00271765 -0.0001035 -0.0113594  -0.00797368 0.000675141 -0.0138685  0.00799371 -0.00165033 -0.0141035  0.00302436 -0.001563 -0.0116375  0.00202459 -0.00191249 -0.00813195  0.000111802 -0.00174914 -0.00772577  0.000190267 -0.00156892 -0.00796959  0.000262313 -0.00176363 -0.00770829  -0.0014244 -0.00142443 -0.00810233  -0.00253385 -0.00108127 -0.0115961  -0.00789387 -0.000287624 -0.0140495  0.00553081 -0.00121055 -0.0151991  0.00195662 -0.00190374 -0.0139978  0.00150739 -0.002835 -0.0116632  0.00023711 -0.00272858 -0.0112992  7.76991e-05 -0.00255543 -0.011548  -0.000104297 -0.00271829 -0.0113601  -0.00108162 -0.00253408 -0.0115968  -0.00191201 -0.00191164 -0.0138042  -0.00622247 -0.000874284 -0.0152461  0.00496915 -0.00374484 -0.0150356  0.00200646 -0.00542558 -0.0150505  0.00164078 -0.00779073 -0.0140427  0.000275846 -0.0081041 -0.0138325  0.000553684 -0.00741869 -0.0140335  0.000673916 -0.00797427 -0.013869  -0.000288535 -0.00789367 -0.0140499  -0.000874899 -0.00622147 -0.0152456  -0.00440493 -0.00440377 -0.0154476  
            </DataArray>
            <DataArray type="Float64" Name="Velocity" NumberOfComponents="3" format="ascii">
               0.0191105 0.019107 -0.0625128  0.000729478 0.029249 -0.0591416  0.000665413 0.0380186 -0.0537495  -0.000985584 0.0380271 -0.0539844  -0.00098044 0.0361586 -0.0548294  -0.000668237 0.0384712 -0.0540483  -0.00505436 0.0383522 -0.0543706  -0.00360294 0.0269028 -0.0593999  -0.0189009 0.0219045 -0.0633243  0.0292442 0.000727248 -0.0591381  0.00636192 0.00636611 -0.0490758  0.00435547 0.00917528 -0.0372877  -0.000342012 0.00979632 -0.0371554  8.6766e-05 0.00963367 -0.0381764  0.000441899 0.00976891 -0.0367649  -0.00547597 0.0104948 -0.0375453  -0.00592859 0.00596668 -0.049174  -0.0267776 0.00552511 -0.0591757  0.0380127 0.00066671 -0.0537447  0.00917093 0.00435832 -0.0372874  0.00665117 0.00665411 -0.0185965  -0.00116114 0.00736284 -0.0178992  -0.00027782 0.00692663 -0.019378  0.000994336 0.00728294 -0.017909  -0.00744995 0.00798621 -0.0188637  -0.00968625 0.00540047 -0.037598  -0.0375371 0.00499671 -0.0542483  0.0380198 -0.000979897 -0.0539809  0.00979141 -0.000337788 -0.0371565  0.00735972 -0.00115662 -0.0179004  -0.000296243 -0.000291988 -0.0167665  6.41948e-05 -0.000701524 -0.0179297  0.000448397 -0.000241816 -0.0167266  -0.0071262 -0.000863819 -0.017905  -0.00953821 -0.000194068 -0.0368255  -0.0381843 -0.000262638 -0.0540456  0.0361527 -0.000974937 -0.0548257  0.0096297 9.2067e-05 -0.0381771  0.00692396 -0.000272575 -0.0193788  -0.000705852 6.89391e-05 -0.0179293  0.000271067 0.000275784 -0.0189038  0.00125704 0.000121236 -0.0179068  -0.00627266 0.000593925 -0.0193416  -0.00870655 0.000116568 -0.0381081  -0.0351821 0.00172942 -0.0546618  0.0384648 -0.000665263 -0.0540438  0.00976371 0.000445871 -0.0367652  0.00727949 0.000997787 -0.0179096  -0.000246225 0.000451705 -0.0167258  0.000116198 0.00126011 -0.0179064  0.000450597 0.000453981 -0.0167152  -0.00724541 0.00194348 -0.017856  -0.00956348 0.000301018 -0.0370953  -0.0378029 0.00265141 -0.0538037  0.0383448 -0.00505128 -0.054367  0.01049 -0.00547261 -0.0375465  0.00798331 -0.00744716 -0.0188654  -0.000868426 -0.00712499 -0.0179056  0.000588997 -0.00627123 -0.0193426  0.00193982 -0.00724345 -0.0178573  -0.00603365 -0.00603093 -0.0185782  -0.00882096 -0.004338 -0.0373334  -0.0377579 -0.000542747 -0.053679  0.0268948 -0.00359789 -0.0593964  0.00596203 -0.00592439 -0.049175  0.00539778 -0.00968184 -0.0375992  -0.000199149 -0.00953583 -0.036826  0.000111002 -0.00870423 -0.0381091  0.000296674 -0.00956094 -0.0370966  -0.00433974 -0.0088158 -0.0373335  -0.00614951 -0.00614505 -0.04916  -0.029026 -0.000934007 -0.0591073  0.021895 -0.0188949 -0.0633161  0.00551727 -0.0267726 -0.0591733  0.00499257 -0.0375317 -0.0542461  -0.000266444 -0.03818 -0.0540427  0.00172352 -0.0351785 -0.0546594  0.0026449 -0.0377993 -0.0538014  -0.000545734 -0.0377506 -0.0536743  -0.000934572 -0.0290171 -0.0591029  -0.0191785 -0.019176 -0.0623927  
            </DataArray>
            <DataArray type="Float64" Name="Traction" NumberOfComponents="3" format="ascii">
               -0.0465423 -0.046607 -1.07574  -0.0149794 -0.082781 -1.07574  -0.00541963 -0.110044 -1.07574  0.00203937 -0.110056 -1.07574  -0.00230468 -0.106479 -1.07574  0.00566298 -0.112492 -1.07574  0.0339034 -0.107608 -1.07574  0.0161587 -0.0673406 -1.07574  0.0322281 -0.0482974 -1.07574  -0.082753 -0.0149853 -1.07574  -0.0395157 -0.0395004 -1.07574  -0.0146033 -0.0577144 -1.07574  -0.000890505 -0.0603674 -1.07574  -0.00734873 -0.0602354 -1.07574  0.00114207 -0.0595473 -1.07574  0.0461421 -0.060771 -1.07574  0.0368602 -0.0376522 -1.07574  0.0640408 -0.0248242 -1.07574  -0.110036 -0.00541337 -1.07574  -0.0577475 -0.0145795 -1.07574  -0.0230507 -0.0230167 -1.07574  0.000882015 -0.0274963 -1.07574  -0.00565611 -0.0274922 -1.07574  -0.000193423 -0.0266543 -1.07574  0.0603932 -0.0276936 -1.07574  0.0590841 -0.0220037 -1.07574  0.104683 -0.0204487 -1.07574  -0.110029 0.00204786 -1.07574  -0.0603902 -0.000870568 -1.07574  -0.0275306 0.000900117 -1.07574  -0.00288485 -0.00286371 -1.07574  -0.00551941 -0.00185766 -1.07574  0.00259838 -0.00295061 -1.07574  0.0584162 -0.000569573 -1.07574  0.0589282 -0.0019956 -1.07574  0.110777 -0.00135129 -1.07574  -0.106452 -0.00228815 -1.07574  -0.0602534 -0.00732515 -1.07574  -0.0275209 -0.00563913 -1.07574  -0.00187585 -0.00550638 -1.07574  -0.00650641 -0.0064931 -1.07574  0.000495342 -0.00630337 -1.07574  0.0571756 -0.00731295 -1.07574  0.0573029 -0.00429225 -1.07574  0.102614 -0.00863003 -1.07574  -0.112473 0.00567567 -1.07574  -0.0595743 0.00115821 -1.07574  -0.0266899 -0.000177645 -1.07574  -0.00297183 0.00261134 -1.07574  -0.0063178 0.000508337 -1.07574  0.00242919 0.00244367 -1.07574  0.0601463 -0.00250661 -1.07574  0.0593638 0.00126369 -1.07574  0.108731 -0.00741818 -1.07574  -0.1076 0.0339271 -1.07574  -0.0608014 0.0461469 -1.07574  -0.0277283 0.0603971 -1.07574  -0.000593912 0.0584375 -1.07574  -0.00733168 0.0571946 -1.07574  -0.00252249 0.0601636 -1.07574  0.0546309 0.0546521 -1.07574  0.0564913 0.037169 -1.07574  0.107994 0.0196517 -1.07574  -0.0673296 0.0162233 -1.07574  -0.0376775 0.036885 -1.07574  -0.022027 0.0590776 -1.07574  -0.0020192 0.0589341 -1.07574  -0.00431586 0.0573114 -1.07574  0.00124552 0.0593692 -1.07574  0.0371402 0.0564969 -1.07574  0.0387838 0.0387999 -1.07574  0.080861 0.0159915 -1.07574  -0.0482613 0.032356 -1.07574  -0.0248357 0.0641162 -1.07574  -0.0204583 0.104697 -1.07574  -0.00137218 0.110787 -1.07574  -0.00865474 0.102632 -1.07574  -0.00744133 0.108746 -1.07574  0.0196064 0.108001 -1.07574  0.0159449 0.0808865 -1.07574  0.0463126 0.046384 -1.07574  
            </DataArray>
         </PointData> 
      </Piece>
   </UnstructuredGrid> 
</VTKFile>
