<?xml version="1.0"?>
<VTKFile type="UnstructuredGrid" version="0.1" byte_order="LittleEndian">
   <UnstructuredGrid>
      <Piece NumberOfPoints="81" NumberOfCells="0" > 
         <Points> 
            <DataArray type="Float64" Name="Position" NumberOfComponents="3" format="ascii"> 
               0  0  15  
               0.375  0  15  
               0.75  0  15  
               1.125  0  15  
               1.5  0  15  
               1.875  0  15  
               2.25  0  15  
               2.625  0  15  
               3  0  15  
               0  0.375  15  
               0.375  0.375  15  
               0.75  0.375  15  
               1.125  0.375  15  
               1.5  0.375  15  
               1.875  0.375  15  
               2.25  0.375  15  
               2.625  0.375  15  
               3  0.375  15  
               0  0.75  15  
               0.375  0.75  15  
               0.75  0.75  15  
               1.125  0.75  15  
               1.5  0.75  15  
               1.875  0.75  15  
               2.25  0.75  15  
               2.625  0.75  15  
               3  0.75  15  
               0  1.125  15  
               0.375  1.125  15  
               0.75  1.125  15  
               1.125  1.125  15  
               1.5  1.125  15  
               1.875  1.125  15  
               2.25  1.125  15  
               2.625  1.125  15  
               3  1.125  15  
               0  1.5  15  
               0.375  1.5  15  
               0.75  1.5  15  
               1.125  1.5  15  
               1.5  1.5  15  
               1.875  1.5  15  
               2.25  1.5  15  
               2.625  1.5  15  
               3  1.5  15  
               0  1.875  15  
               0.375  1.875  15  
               0.75  1.875  15  
               1.125  1.875  15  
               1.5  1.875  15  
               1.875  1.875  15  
               2.25  1.875  15  
               2.625  1.875  15  
               3  1.875  15  
               0  2.25  15  
               0.375  2.25  15  
               0.75  2.25  15  
               1.125  2.25  15  
               1.5  2.25  15  
               1.875  2.25  15  
               2.25  2.25  15  
               2.625  2.25  15  
               3  2.25  15  
               0  2.625  15  
               0.375  2.625  15  
               0.75  2.625  15  
               1.125  2.625  15  
               1.5  2.625  15  
               1.875  2.625  15  
               2.25  2.625  15  
               2.625  2.625  15  
               3  2.625  15  
               0  3  15  
               0.375  3  15  
               0.75  3  15  
               1.125  3  15  
               1.5  3  15  
               1.875  3  15  
               2.25  3  15  
               2.625  3  15  
               3  3  15  
            </DataArray>
         </Points> 

         <Cells>
            <DataArray type="Int32" Name="connectivity" NumberOfComponents="1" format="ascii">
               
            </DataArray> 
            <DataArray type="Int32" Name="offsets" NumberOfComponents="1" format="ascii">
               
            </DataArray>
            <DataArray type="UInt8"  Name="types" NumberOfComponents="1" format="ascii">
               
            </DataArray>
         </Cells>
         <PointData Scalars="Rank " Vectors="Displacement Velocity Traction ">
            <DataArray type="UInt32" Name="Rank" NumberOfComponents="1" format="ascii">
               0 0 0 0 0 0 0 0 0 0 0 0 0 0 0 0 0 0 0 0 0 0 0 0 0 0 0 0 0 0 0 0 0 0 0 0 0 0 0 0 0 0 0 0 0 0 0 0 0 0 0 0 0 0 0 0 0 0 0 0 0 0 0 0 0 0 0 0 0 0 0 0 0 0 0 0 0 0 0 0 0 
            </DataArray>
            <DataArray type="Float64" Name="Displacement" NumberOfComponents="3" format="ascii">
               2.85699e-05 1.32073e-05 -1.77904e-05  2.79361e-05 -3.56816e-06 -1.81428e-05  2.46366e-05 -2.60085e-06 -1.68949e-05  2.0341e-05 -3.71154e-06 -1.63821e-05  1.79493e-05 -6.8581e-07 -1.63365e-05  1.71224e-05 -4.8751e-06 -1.60027e-05  1.77667e-05 -4.98594e-06 -1.66643e-05  1.86395e-05 -1.2045e-05 -1.79632e-05  1.89219e-05 -1.81336e-05 -1.66582e-05  1.33293e-05 1.20452e-05 -1.81386e-05  1.44635e-05 -4.02781e-06 -1.74621e-05  1.43247e-05 -2.61241e-06 -1.56786e-05  1.38057e-05 -4.16456e-06 -1.52166e-05  1.38104e-05 -2.08382e-06 -1.51742e-05  1.38636e-05 -6.38949e-06 -1.49503e-05  1.31871e-05 -6.53511e-06 -1.57093e-05  1.24871e-05 -1.28266e-05 -1.79602e-05  1.21663e-05 -1.81057e-05 -1.76575e-05  1.65384e-05 6.68497e-06 -1.68939e-05  1.90857e-05 -7.27902e-06 -1.56777e-05  1.82246e-05 -6.83564e-06 -1.27765e-05  1.62473e-05 -7.99125e-06 -1.19874e-05  1.43083e-05 -6.93657e-06 -1.19918e-05  1.17444e-05 -9.62493e-06 -1.19069e-05  8.23702e-06 -9.67292e-06 -1.27611e-05  5.55911e-06 -1.42188e-05 -1.57468e-05  4.56816e-06 -1.8064e-05 -1.65363e-05  1.65645e-05 -1.56894e-06 -1.6381e-05  1.96814e-05 -1.24372e-05 -1.52165e-05  1.91297e-05 -1.21037e-05 -1.19886e-05  1.67456e-05 -1.2807e-05 -1.09184e-05  1.42872e-05 -1.26576e-05 -1.09038e-05  1.10204e-05 -1.33312e-05 -1.0921e-05  7.54804e-06 -1.37074e-05 -1.19449e-05  4.67967e-06 -1.57726e-05 -1.50327e-05  3.75245e-06 -1.85491e-05 -1.599e-05  2.01274e-05 -9.31783e-06 -1.63348e-05  2.30776e-05 -1.89421e-05 -1.51738e-05  2.26013e-05 -1.77883e-05 -1.19921e-05  1.97845e-05 -1.81394e-05 -1.09029e-05  1.5642e-05 -1.76632e-05 -1.09413e-05  1.01572e-05 -1.67084e-05 -1.08984e-05  4.14791e-06 -1.68379e-05 -1.19749e-05  -5.18964e-07 -1.69133e-05 -1.5142e-05  -1.21263e-06 -2.06458e-05 -1.61837e-05  2.52183e-05 -1.6959e-05 -1.60056e-05  2.80252e-05 -2.5635e-05 -1.49484e-05  2.62704e-05 -2.26727e-05 -1.19077e-05  2.15805e-05 -2.26261e-05 -1.09194e-05  1.58125e-05 -2.11322e-05 -1.08986e-05  9.35636e-06 -1.91085e-05 -1.08907e-05  3.80444e-06 -1.93163e-05 -1.19546e-05  -9.7351e-08 -1.82222e-05 -1.51524e-05  -8.1988e-08 -2.4342e-05 -1.61838e-05  2.60617e-05 -2.4159e-05 -1.66727e-05  2.84352e-05 -3.19634e-05 -1.57105e-05  2.65391e-05 -2.60848e-05 -1.27641e-05  2.17877e-05 -2.61159e-05 -1.1945e-05  1.55106e-05 -2.32874e-05 -1.19755e-05  8.52176e-06 -2.12741e-05 -1.19553e-05  2.25879e-06 -2.17897e-05 -1.27675e-05  -2.11105e-06 -2.00603e-05 -1.57003e-05  -1.69176e-06 -2.96103e-05 -1.67983e-05  3.68755e-05 -2.9521e-05 -1.79755e-05  3.69494e-05 -3.56771e-05 -1.7952e-05  3.22916e-05 -2.6927e-05 -1.57489e-05  2.46649e-05 -2.68227e-05 -1.50318e-05  1.62753e-05 -2.30343e-05 -1.51438e-05  7.98642e-06 -2.13038e-05 -1.51533e-05  1.17459e-06 -2.2557e-05 -1.57005e-05  -3.08616e-06 -2.11358e-05 -1.75196e-05  -3.57271e-06 -3.35669e-05 -1.80925e-05  3.31275e-05 -3.14733e-05 -1.66966e-05  3.08251e-05 -3.49928e-05 -1.76717e-05  2.44587e-05 -2.36994e-05 -1.65453e-05  1.59251e-05 -2.30504e-05 -1.59937e-05  6.76993e-06 -1.90908e-05 -1.61846e-05  -2.42897e-06 -1.74218e-05 -1.6184e-05  -1.1736e-05 -1.93855e-05 -1.68005e-05  -1.78335e-05 -2.00286e-05 -1.80922e-05  -1.92447e-05 -3.44615e-05 -1.76756e-05  
            </DataArray>
            <DataArray type="Float64" Name="Velocity" NumberOfComponents="3" format="ascii">
               3.95338e-05 8.96768e-06 -2.75888e-05  3.83509e-05 -7.26246e-06 -2.83331e-05  3.33615e-05 -6.44729e-06 -2.65228e-05  2.61652e-05 -5.71291e-06 -2.57254e-05  1.99834e-05 -1.16608e-06 -2.56741e-05  1.49656e-05 -3.56742e-06 -2.50996e-05  1.15339e-05 -2.86634e-06 -2.62016e-05  9.29653e-06 -4.78681e-06 -2.81159e-05  8.46792e-06 -1.32515e-05 -2.56036e-05  2.1565e-05 7.84342e-06 -2.83253e-05  2.20617e-05 -7.23893e-06 -2.7698e-05  1.97974e-05 -5.15742e-06 -2.51819e-05  1.6113e-05 -4.41335e-06 -2.44514e-05  1.21871e-05 -3.39955e-07 -2.44272e-05  8.11252e-06 -2.86794e-06 -2.40236e-05  3.75958e-06 -2.61702e-06 -2.52311e-05  1.05935e-06 -5.17017e-06 -2.85209e-05  1.08838e-06 -1.43365e-05 -2.75604e-05  1.87254e-05 2.13738e-06 -2.6498e-05  2.12887e-05 -1.10433e-05 -2.51695e-05  1.94377e-05 -9.21386e-06 -2.10492e-05  1.54922e-05 -7.73271e-06 -1.9798e-05  1.13156e-05 -4.40648e-06 -1.98501e-05  6.86535e-06 -5.76726e-06 -1.96874e-05  2.25693e-06 -5.89811e-06 -2.10099e-05  -1.50471e-07 -8.59907e-06 -2.53141e-05  7.01236e-07 -1.73264e-05 -2.59724e-05  1.53739e-05 -6.46791e-06 -2.57107e-05  1.85828e-05 -1.75586e-05 -2.44502e-05  1.79284e-05 -1.58709e-05 -1.98056e-05  1.4832e-05 -1.34933e-05 -1.81394e-05  1.11159e-05 -1.0939e-05 -1.81956e-05  6.82632e-06 -1.08617e-05 -1.8179e-05  2.52911e-06 -1.15762e-05 -1.9742e-05  2.29278e-07 -1.39008e-05 -2.41701e-05  1.44761e-06 -2.17241e-05 -2.51098e-05  2.12557e-05 -1.47413e-05 -2.56561e-05  2.43487e-05 -2.53347e-05 -2.44253e-05  2.30676e-05 -2.31609e-05 -1.98563e-05  1.88285e-05 -1.99776e-05 -1.81944e-05  1.35689e-05 -1.74996e-05 -1.83264e-05  7.517e-06 -1.60859e-05 -1.81905e-05  1.44223e-06 -1.71345e-05 -1.98373e-05  -2.1795e-06 -1.91732e-05 -2.43677e-05  -7.85137e-07 -2.77957e-05 -2.54408e-05  2.4282e-05 -2.28325e-05 -2.50775e-05  2.73481e-05 -3.34059e-05 -2.40152e-05  2.5837e-05 -2.99264e-05 -1.96896e-05  2.09038e-05 -2.5905e-05 -1.81728e-05  1.49612e-05 -2.32042e-05 -1.81878e-05  8.43534e-06 -2.07036e-05 -1.81128e-05  2.59418e-06 -2.23848e-05 -1.97614e-05  -6.22545e-07 -2.44862e-05 -2.43555e-05  1.27138e-06 -3.53426e-05 -2.54101e-05  3.1177e-05 -3.00685e-05 -2.61972e-05  3.35715e-05 -4.11736e-05 -2.52316e-05  3.1033e-05 -3.55022e-05 -2.10236e-05  2.48779e-05 -3.08125e-05 -1.97467e-05  1.75327e-05 -2.77142e-05 -1.98433e-05  9.59687e-06 -2.45074e-05 -1.97693e-05  2.31846e-06 -2.71965e-05 -2.10153e-05  -1.96582e-06 -2.95754e-05 -2.52193e-05  5.14151e-10 -4.4306e-05 -2.63648e-05  4.10363e-05 -3.57767e-05 -2.81036e-05  4.12237e-05 -4.57405e-05 -2.85049e-05  3.6076e-05 -3.7431e-05 -2.53149e-05  2.75028e-05 -3.21089e-05 -2.41656e-05  1.83557e-05 -2.88471e-05 -2.43686e-05  9.2615e-06 -2.53133e-05 -2.43572e-05  1.36036e-06 -2.92895e-05 -2.52121e-05  -3.48156e-06 -3.27386e-05 -2.77895e-05  -3.40914e-06 -5.08372e-05 -2.82321e-05  3.30125e-05 -3.79781e-05 -2.55831e-05  3.06855e-05 -4.5244e-05 -2.75493e-05  2.43193e-05 -3.44527e-05 -2.59681e-05  1.59957e-05 -2.84801e-05 -2.50898e-05  6.63902e-06 -2.50739e-05 -2.54189e-05  -3.20278e-06 -2.14078e-05 -2.53865e-05  -1.37226e-05 -2.5894e-05 -2.63362e-05  -2.11275e-05 -3.19748e-05 -2.82148e-05  -2.2914e-05 -5.24884e-05 -2.73598e-05  
            </DataArray>
            <DataArray type="Float64" Name="Traction" NumberOfComponents="3" format="ascii">
               0.00083878 0.0008368 -0.00212641  4.78409e-05 0.000955645 -0.00212641  1.02748e-05 0.000996813 -0.00212641  -5.58729e-05 0.00110133 -0.00212641  1.97514e-06 0.00103907 -0.00212641  3.97932e-05 0.00122936 -0.00212641  -4.38525e-05 0.00111423 -0.00212641  -3.67024e-05 0.00121507 -0.00212641  -0.00153467 0.00152093 -0.00212641  0.000897741 7.57098e-05 -0.00212641  0.000214664 0.000244648 -0.00212641  7.6582e-05 0.000326234 -0.00212641  1.22202e-05 0.000435277 -0.00212641  4.42692e-05 0.000424651 -0.00212641  0.000120761 0.000387078 -0.00212641  0.00012147 0.000183658 -0.00212641  -3.3325e-05 5.76675e-05 -0.00212641  -0.0012247 5.85703e-05 -0.00212641  0.000955667 0.000116427 -0.00212641  0.000337955 0.000114688 -0.00212641  0.000139886 0.000132391 -0.00212641  3.81513e-05 0.000208344 -0.00212641  6.23327e-05 0.000200845 -0.00212641  0.000124934 0.000134438 -0.00212641  6.66963e-05 -2.79952e-05 -0.00212641  -0.000173714 -6.93749e-05 -0.00212641  -0.00115921 0.000117258 -0.00212641  0.00121782 6.68568e-05 -0.00212641  0.000549695 4.11452e-05 -0.00212641  0.000276083 1.31278e-05 -0.00212641  0.000117547 6.56338e-05 -0.00212641  4.51033e-05 7.89041e-05 -0.00212641  5.33929e-06 -3.59755e-06 -0.00212641  -0.000120559 -0.000120577 -0.00212641  -0.000425059 -0.00010158 -0.00212641  -0.00129214 7.0969e-06 -0.00212641  0.00125243 -0.000127797 -0.00212641  0.000677225 -7.8752e-05 -0.00212641  0.000382864 -0.000134765 -0.00212641  0.000181024 -6.98254e-05 -0.00212641  2.46718e-05 -2.60684e-05 -0.00212641  -9.3417e-05 -5.14282e-05 -0.00212641  -0.000221705 -8.55061e-05 -0.00212641  -0.000512088 -5.44788e-05 -0.00212641  -0.0010986 3.56289e-06 -0.00212641  0.00108091 -0.000278046 -0.00212641  0.000755752 -0.000268973 -0.00212641  0.000481326 -0.000340327 -0.00212641  0.000277125 -0.000247738 -0.00212641  6.40374e-05 -0.000164176 -0.00212641  -0.000106458 -0.00013099 -0.00212641  -0.000262845 -8.84309e-05 -0.00212641  -0.000558493 -5.75212e-05 -0.00212641  -0.00117115 4.84485e-05 -0.00212641  0.00109444 -0.000469347 -0.00212641  0.000901975 -0.00047721 -0.00212641  0.000600405 -0.000533829 -0.00212641  0.000369901 -0.000424333 -0.00212641  0.000112574 -0.000349987 -0.00212641  -8.88673e-05 -0.000285537 -0.00212641  -0.000235759 -0.000209045 -0.00212641  -0.000516157 -0.000172413 -0.00212641  -0.00116617 -8.1107e-05 -0.00212641  0.000807009 -0.000959177 -0.00212641  0.000879165 -0.000838326 -0.00212641  0.000543508 -0.000863948 -0.00212641  0.000304625 -0.000739027 -0.00212641  6.7836e-05 -0.000689564 -0.00212641  -0.000103694 -0.0006122 -0.00212641  -0.000225734 -0.000487869 -0.00212641  -0.000462627 -0.00041646 -0.00212641  -0.00104877 -0.000299123 -0.00212641  0.000549054 -0.000537937 -0.00212641  0.000990334 -0.000781372 -0.00212641  0.000546668 -0.00108504 -0.00212641  0.000346941 -0.00112201 -0.00212641  0.000133337 -0.00132882 -0.00212641  -8.90931e-05 -0.00126466 -0.00212641  -0.000175593 -0.00106491 -0.00212641  -0.000317223 -0.000964278 -0.00212641  -0.000831371 -0.000829605 -0.00212641  
            </DataArray>
         </PointData> 
      </Piece>
   </UnstructuredGrid> 
</VTKFile>
