<?xml version="1.0"?>
<VTKFile type="UnstructuredGrid" version="0.1" byte_order="LittleEndian">
   <UnstructuredGrid>
      <Piece NumberOfPoints="81" NumberOfCells="0" > 
         <Points> 
            <DataArray type="Float64" Name="Position" NumberOfComponents="3" format="ascii"> 
               0  0  15  
               0.375  0  15  
               0.75  0  15  
               1.125  0  15  
               1.5  0  15  
               1.875  0  15  
               2.25  0  15  
               2.625  0  15  
               3  0  15  
               0  0.375  15  
               0.375  0.375  15  
               0.75  0.375  15  
               1.125  0.375  15  
               1.5  0.375  15  
               1.875  0.375  15  
               2.25  0.375  15  
               2.625  0.375  15  
               3  0.375  15  
               0  0.75  15  
               0.375  0.75  15  
               0.75  0.75  15  
               1.125  0.75  15  
               1.5  0.75  15  
               1.875  0.75  15  
               2.25  0.75  15  
               2.625  0.75  15  
               3  0.75  15  
               0  1.125  15  
               0.375  1.125  15  
               0.75  1.125  15  
               1.125  1.125  15  
               1.5  1.125  15  
               1.875  1.125  15  
               2.25  1.125  15  
               2.625  1.125  15  
               3  1.125  15  
               0  1.5  15  
               0.375  1.5  15  
               0.75  1.5  15  
               1.125  1.5  15  
               1.5  1.5  15  
               1.875  1.5  15  
               2.25  1.5  15  
               2.625  1.5  15  
               3  1.5  15  
               0  1.875  15  
               0.375  1.875  15  
               0.75  1.875  15  
               1.125  1.875  15  
               1.5  1.875  15  
               1.875  1.875  15  
               2.25  1.875  15  
               2.625  1.875  15  
               3  1.875  15  
               0  2.25  15  
               0.375  2.25  15  
               0.75  2.25  15  
               1.125  2.25  15  
               1.5  2.25  15  
               1.875  2.25  15  
               2.25  2.25  15  
               2.625  2.25  15  
               3  2.25  15  
               0  2.625  15  
               0.375  2.625  15  
               0.75  2.625  15  
               1.125  2.625  15  
               1.5  2.625  15  
               1.875  2.625  15  
               2.25  2.625  15  
               2.625  2.625  15  
               3  2.625  15  
               0  3  15  
               0.375  3  15  
               0.75  3  15  
               1.125  3  15  
               1.5  3  15  
               1.875  3  15  
               2.25  3  15  
               2.625  3  15  
               3  3  15  
            </DataArray>
         </Points> 

         <Cells>
            <DataArray type="Int32" Name="connectivity" NumberOfComponents="1" format="ascii">
               
            </DataArray> 
            <DataArray type="Int32" Name="offsets" NumberOfComponents="1" format="ascii">
               
            </DataArray>
            <DataArray type="UInt8"  Name="types" NumberOfComponents="1" format="ascii">
               
            </DataArray>
         </Cells>
         <PointData Scalars="Rank " Vectors="Displacement Velocity Traction ">
            <DataArray type="UInt32" Name="Rank" NumberOfComponents="1" format="ascii">
               0 0 0 0 0 0 0 0 0 0 0 0 0 0 0 0 0 0 0 0 0 0 0 0 0 0 0 0 0 0 0 0 0 0 0 0 0 0 0 0 0 0 0 0 0 0 0 0 0 0 0 0 0 0 0 0 0 0 0 0 0 0 0 0 0 0 0 0 0 0 0 0 0 0 0 0 0 0 0 0 0 
            </DataArray>
            <DataArray type="Float64" Name="Displacement" NumberOfComponents="3" format="ascii">
               1.2248e-05 1.04661e-05 -6.5848e-06  1.20405e-05 1.28416e-06 -6.65136e-06  1.06351e-05 8.47132e-07 -6.14993e-06  9.06162e-06 -8.15267e-07 -5.95316e-06  8.75358e-06 7.30469e-08 -5.95375e-06  9.40748e-06 -2.66427e-06 -5.8124e-06  1.08115e-05 -2.26089e-06 -6.05351e-06  1.20396e-05 -7.24296e-06 -6.57615e-06  1.24524e-05 -9.75335e-06 -6.19659e-06  4.86022e-06 9.73438e-06 -6.65581e-06  5.67536e-06 9.19074e-07 -6.31285e-06  6.08303e-06 6.03406e-07 -5.59616e-06  6.49183e-06 -1.42735e-06 -5.42684e-06  7.3981e-06 -1.15482e-06 -5.43229e-06  8.39959e-06 -3.97532e-06 -5.33043e-06  8.93098e-06 -3.47932e-06 -5.60258e-06  9.01795e-06 -7.69333e-06 -6.48497e-06  8.71516e-06 -9.42435e-06 -6.47043e-06  7.82068e-06 6.88376e-06 -6.15647e-06  9.17713e-06 -6.54617e-07 -5.59604e-06  8.92801e-06 -1.50954e-06 -4.44473e-06  8.2963e-06 -3.3916e-06 -4.1494e-06  7.72919e-06 -3.72062e-06 -4.16515e-06  6.72151e-06 -5.57872e-06 -4.1162e-06  5.02982e-06 -4.9781e-06 -4.43574e-06  3.46194e-06 -7.79078e-06 -5.62093e-06  2.40314e-06 -8.55778e-06 -6.00773e-06  8.88599e-06 2.56442e-06 -5.96e-06  1.04673e-05 -2.93859e-06 -5.42623e-06  1.00718e-05 -3.69218e-06 -4.14977e-06  8.85122e-06 -5.43515e-06 -3.74723e-06  7.77026e-06 -6.28616e-06 -3.75996e-06  6.2208e-06 -6.953e-06 -3.74032e-06  4.56302e-06 -6.57262e-06 -4.12571e-06  2.8848e-06 -7.52244e-06 -5.3555e-06  1.79343e-06 -7.70856e-06 -5.80532e-06  9.40953e-06 -1.39057e-06 -5.96096e-06  1.08898e-05 -5.90319e-06 -5.43189e-06  1.083e-05 -6.02477e-06 -4.16539e-06  9.73853e-06 -7.72962e-06 -3.75979e-06  7.88379e-06 -8.31244e-06 -3.80118e-06  5.18614e-06 -8.10046e-06 -3.75619e-06  2.08853e-06 -7.51068e-06 -4.16297e-06  -6.05517e-07 -6.94269e-06 -5.41363e-06  -1.52426e-06 -7.70093e-06 -5.89652e-06  1.23537e-05 -5.22226e-06 -5.82318e-06  1.36756e-05 -8.89112e-06 -5.32927e-06  1.26576e-05 -7.9032e-06 -4.11694e-06  1.03392e-05 -9.59402e-06 -3.73974e-06  7.47811e-06 -9.43775e-06 -3.75638e-06  4.25594e-06 -8.72074e-06 -3.73283e-06  1.5679e-06 -8.04974e-06 -4.13924e-06  -5.69495e-07 -6.51664e-06 -5.40418e-06  -1.03939e-06 -8.58913e-06 -5.88596e-06  1.02979e-05 -8.86841e-06 -6.0651e-06  1.14813e-05 -1.16529e-05 -5.60346e-06  1.07653e-05 -9.00003e-06 -4.43695e-06  8.89988e-06 -1.10395e-05 -4.12607e-06  6.19579e-06 -9.95228e-06 -4.16335e-06  3.10569e-06 -9.51031e-06 -4.13948e-06  3.78359e-07 -8.76554e-06 -4.43827e-06  -1.76981e-06 -6.62314e-06 -5.60564e-06  -1.91847e-06 -1.03441e-05 -6.12244e-06  1.5747e-05 -1.14053e-05 -6.59e-06  1.57633e-05 -1.3304e-05 -6.48058e-06  1.36892e-05 -9.20973e-06 -5.62187e-06  1.03252e-05 -1.14133e-05 -5.3543e-06  6.5132e-06 -9.59128e-06 -5.41331e-06  2.72276e-06 -9.50159e-06 -5.40352e-06  -2.7677e-07 -8.9265e-06 -5.60529e-06  -2.19215e-06 -6.65645e-06 -6.3318e-06  -2.56551e-06 -1.1716e-05 -6.63865e-06  1.54915e-05 -1.22676e-05 -6.23566e-06  1.43771e-05 -1.29565e-05 -6.48529e-06  1.1286e-05 -7.62796e-06 -6.01968e-06  7.02916e-06 -9.6127e-06 -5.81611e-06  2.5322e-06 -7.65434e-06 -5.90453e-06  -1.93709e-06 -7.61667e-06 -5.89395e-06  -6.33911e-06 -7.44207e-06 -6.12995e-06  -9.06895e-06 -6.00981e-06 -6.64475e-06  -9.69873e-06 -1.19611e-05 -6.55507e-06  
            </DataArray>
            <DataArray type="Float64" Name="Velocity" NumberOfComponents="3" format="ascii">
               1.62464e-05 2.80242e-06 -1.11196e-05  1.59734e-05 -6.55285e-06 -1.13463e-05  1.44102e-05 -3.97261e-06 -1.05788e-05  1.21715e-05 -3.39333e-06 -1.02554e-05  1.09626e-05 -1.25374e-06 -1.02073e-05  1.0574e-05 -3.56981e-06 -1.00305e-05  1.1029e-05 -5.28092e-06 -1.04249e-05  1.17235e-05 -9.54397e-06 -1.12144e-05  1.19869e-05 -1.28924e-05 -1.04115e-05  7.80202e-06 2.37544e-06 -1.13434e-05  8.37791e-06 -6.85466e-06 -1.09082e-05  8.55348e-06 -4.26069e-06 -9.78355e-06  8.67353e-06 -3.87919e-06 -9.50033e-06  9.03651e-06 -2.29197e-06 -9.43794e-06  9.39345e-06 -4.64399e-06 -9.33844e-06  9.27031e-06 -6.37868e-06 -9.80679e-06  9.06779e-06 -1.01555e-05 -1.12097e-05  8.96721e-06 -1.29151e-05 -1.10489e-05  1.05993e-05 -4.5027e-07 -1.0582e-05  1.20358e-05 -8.70738e-06 -9.78661e-06  1.16909e-05 -7.06834e-06 -7.97429e-06  1.08567e-05 -6.52995e-06 -7.50351e-06  1.0104e-05 -5.53041e-06 -7.45273e-06  9.0347e-06 -6.9779e-06 -7.45347e-06  7.37923e-06 -8.45509e-06 -7.97914e-06  6.0307e-06 -1.11289e-05 -9.82297e-06  5.54616e-06 -1.29689e-05 -1.03669e-05  1.0315e-05 -5.11375e-06 -1.02535e-05  1.22399e-05 -1.18616e-05 -9.50144e-06  1.22344e-05 -1.06133e-05 -7.50204e-06  1.12084e-05 -9.87703e-06 -6.85013e-06  1.00423e-05 -9.3223e-06 -6.76999e-06  8.34481e-06 -9.58171e-06 -6.84364e-06  6.40377e-06 -1.09475e-05 -7.4784e-06  4.73752e-06 -1.21806e-05 -9.3842e-06  4.28205e-06 -1.34314e-05 -1.001e-05  1.39238e-05 -9.65238e-06 -1.02064e-05  1.57917e-05 -1.59782e-05 -9.43871e-06  1.56119e-05 -1.44447e-05 -7.45083e-06  1.39473e-05 -1.3442e-05 -6.76917e-06  1.14552e-05 -1.26221e-05 -6.71469e-06  8.13809e-06 -1.18165e-05 -6.76613e-06  4.47381e-06 -1.28229e-05 -7.43661e-06  1.6197e-06 -1.30183e-05 -9.41651e-06  1.23735e-06 -1.48616e-05 -1.01094e-05  1.74153e-05 -1.43472e-05 -1.00347e-05  1.93192e-05 -2.03693e-05 -9.33958e-06  1.84042e-05 -1.77499e-05 -7.45292e-06  1.5457e-05 -1.63147e-05 -6.84376e-06  1.17595e-05 -1.48529e-05 -6.76686e-06  7.57113e-06 -1.32917e-05 -6.82252e-06  3.90592e-06 -1.42627e-05 -7.472e-06  1.37766e-06 -1.39184e-05 -9.44744e-06  1.35855e-06 -1.7174e-05 -1.01279e-05  2.00345e-05 -1.89283e-05 -1.04312e-05  2.16101e-05 -2.45974e-05 -9.80758e-06  2.0252e-05 -2.00335e-05 -7.9778e-06  1.67972e-05 -1.83518e-05 -7.4766e-06  1.23222e-05 -1.60715e-05 -7.43521e-06  7.38741e-06 -1.42985e-05 -7.47019e-06  2.96437e-06 -1.55832e-05 -7.97512e-06  -1.49733e-08 -1.50224e-05 -9.79195e-06  1.46859e-07 -2.03766e-05 -1.05082e-05  2.75701e-05 -2.25578e-05 -1.12261e-05  2.76019e-05 -2.70057e-05 -1.12071e-05  2.42542e-05 -2.03655e-05 -9.82422e-06  1.87366e-05 -1.83026e-05 -9.38489e-06  1.27213e-05 -1.55225e-05 -9.41821e-06  6.88117e-06 -1.38154e-05 -9.44853e-06  2.08258e-06 -1.57292e-05 -9.79421e-06  -8.84845e-07 -1.56085e-05 -1.09449e-05  -1.26058e-06 -2.27668e-05 -1.13206e-05  2.40787e-05 -2.39435e-05 -1.04451e-05  2.2478e-05 -2.64503e-05 -1.10635e-05  1.80456e-05 -1.79841e-05 -1.03759e-05  1.22385e-05 -1.54629e-05 -1.00177e-05  6.07907e-06 -1.26603e-05 -1.01158e-05  5.34397e-08 -1.10995e-05 -1.01346e-05  -5.9038e-06 -1.35269e-05 -1.0518e-05  -9.84111e-06 -1.4869e-05 -1.1326e-05  -1.07324e-05 -2.33484e-05 -1.10742e-05  
            </DataArray>
            <DataArray type="Float64" Name="Traction" NumberOfComponents="3" format="ascii">
               0 0 0  0 0 0  0 0 0  0 0 0  0 0 0  0 0 0  0 0 0  0 0 0  0 0 0  0 0 0  0 0 0  0 0 0  0 0 0  0 0 0  0 0 0  0 0 0  0 0 0  0 0 0  0 0 0  0 0 0  0 0 0  0 0 0  0 0 0  0 0 0  0 0 0  0 0 0  0 0 0  0 0 0  0 0 0  0 0 0  0 0 0  0 0 0  0 0 0  0 0 0  0 0 0  0 0 0  0 0 0  0 0 0  0 0 0  0 0 0  0 0 0  0 0 0  0 0 0  0 0 0  0 0 0  0 0 0  0 0 0  0 0 0  0 0 0  0 0 0  0 0 0  0 0 0  0 0 0  0 0 0  0 0 0  0 0 0  0 0 0  0 0 0  0 0 0  0 0 0  0 0 0  0 0 0  0 0 0  0 0 0  0 0 0  0 0 0  0 0 0  0 0 0  0 0 0  0 0 0  0 0 0  0 0 0  0 0 0  0 0 0  0 0 0  0 0 0  0 0 0  0 0 0  0 0 0  0 0 0  0 0 0  
            </DataArray>
         </PointData> 
      </Piece>
   </UnstructuredGrid> 
</VTKFile>
