<?xml version="1.0"?>
<VTKFile type="UnstructuredGrid" version="0.1" byte_order="LittleEndian">
   <UnstructuredGrid>
      <Piece NumberOfPoints="81" NumberOfCells="0" > 
         <Points> 
            <DataArray type="Float64" Name="Position" NumberOfComponents="3" format="ascii"> 
               0  0  20  
               0.375  0  20  
               0.75  0  20  
               1.125  0  20  
               1.5  0  20  
               1.875  0  20  
               2.25  0  20  
               2.625  0  20  
               3  0  20  
               0  0.375  20  
               0.375  0.375  20  
               0.75  0.375  20  
               1.125  0.375  20  
               1.5  0.375  20  
               1.875  0.375  20  
               2.25  0.375  20  
               2.625  0.375  20  
               3  0.375  20  
               0  0.75  20  
               0.375  0.75  20  
               0.75  0.75  20  
               1.125  0.75  20  
               1.5  0.75  20  
               1.875  0.75  20  
               2.25  0.75  20  
               2.625  0.75  20  
               3  0.75  20  
               0  1.125  20  
               0.375  1.125  20  
               0.75  1.125  20  
               1.125  1.125  20  
               1.5  1.125  20  
               1.875  1.125  20  
               2.25  1.125  20  
               2.625  1.125  20  
               3  1.125  20  
               0  1.5  20  
               0.375  1.5  20  
               0.75  1.5  20  
               1.125  1.5  20  
               1.5  1.5  20  
               1.875  1.5  20  
               2.25  1.5  20  
               2.625  1.5  20  
               3  1.5  20  
               0  1.875  20  
               0.375  1.875  20  
               0.75  1.875  20  
               1.125  1.875  20  
               1.5  1.875  20  
               1.875  1.875  20  
               2.25  1.875  20  
               2.625  1.875  20  
               3  1.875  20  
               0  2.25  20  
               0.375  2.25  20  
               0.75  2.25  20  
               1.125  2.25  20  
               1.5  2.25  20  
               1.875  2.25  20  
               2.25  2.25  20  
               2.625  2.25  20  
               3  2.25  20  
               0  2.625  20  
               0.375  2.625  20  
               0.75  2.625  20  
               1.125  2.625  20  
               1.5  2.625  20  
               1.875  2.625  20  
               2.25  2.625  20  
               2.625  2.625  20  
               3  2.625  20  
               0  3  20  
               0.375  3  20  
               0.75  3  20  
               1.125  3  20  
               1.5  3  20  
               1.875  3  20  
               2.25  3  20  
               2.625  3  20  
               3  3  20  
            </DataArray>
         </Points> 

         <Cells>
            <DataArray type="Int32" Name="connectivity" NumberOfComponents="1" format="ascii">
               
            </DataArray> 
            <DataArray type="Int32" Name="offsets" NumberOfComponents="1" format="ascii">
               
            </DataArray>
            <DataArray type="UInt8"  Name="types" NumberOfComponents="1" format="ascii">
               
            </DataArray>
         </Cells>
         <PointData Scalars="Rank " Vectors="Displacement Velocity Traction ">
            <DataArray type="UInt32" Name="Rank" NumberOfComponents="1" format="ascii">
               0 0 0 0 0 0 0 0 0 0 0 0 0 0 0 0 0 0 0 0 0 0 0 0 0 0 0 0 0 0 0 0 0 0 0 0 0 0 0 0 0 0 0 0 0 0 0 0 0 0 0 0 0 0 0 0 0 0 0 0 0 0 0 0 0 0 0 0 0 0 0 0 0 0 0 0 0 0 0 0 0 
            </DataArray>
            <DataArray type="Float64" Name="Displacement" NumberOfComponents="3" format="ascii">
               0 0 0  0 0 0  0 0 0  0 0 0  0 0 0  0 0 0  0 0 0  0 0 0  0 0 0  0 0 0  0 0 0  0 0 0  0 0 0  0 0 0  0 0 0  0 0 0  0 0 0  0 0 0  0 0 0  0 0 0  0 0 0  0 0 0  0 0 0  0 0 0  0 0 0  0 0 0  0 0 0  0 0 0  0 0 0  0 0 0  0 0 0  0 0 0  0 0 0  0 0 0  0 0 0  0 0 0  0 0 0  0 0 0  0 0 0  0 0 0  0 0 0  0 0 0  0 0 0  0 0 0  0 0 0  0 0 0  0 0 0  0 0 0  0 0 0  0 0 0  0 0 0  0 0 0  0 0 0  0 0 0  0 0 0  0 0 0  0 0 0  0 0 0  0 0 0  0 0 0  0 0 0  0 0 0  0 0 0  0 0 0  0 0 0  0 0 0  0 0 0  0 0 0  0 0 0  0 0 0  0 0 0  0 0 0  0 0 0  0 0 0  0 0 0  0 0 0  0 0 0  0 0 0  0 0 0  0 0 0  0 0 0  
            </DataArray>
            <DataArray type="Float64" Name="Velocity" NumberOfComponents="3" format="ascii">
               0 0 0  0 0 0  0 0 0  0 0 0  0 0 0  0 0 0  0 0 0  0 0 0  0 0 0  0 0 0  0 0 0  0 0 0  0 0 0  0 0 0  0 0 0  0 0 0  0 0 0  0 0 0  0 0 0  0 0 0  0 0 0  0 0 0  0 0 0  0 0 0  0 0 0  0 0 0  0 0 0  0 0 0  0 0 0  0 0 0  0 0 0  0 0 0  0 0 0  0 0 0  0 0 0  0 0 0  0 0 0  0 0 0  0 0 0  0 0 0  0 0 0  0 0 0  0 0 0  0 0 0  0 0 0  0 0 0  0 0 0  0 0 0  0 0 0  0 0 0  0 0 0  0 0 0  0 0 0  0 0 0  0 0 0  0 0 0  0 0 0  0 0 0  0 0 0  0 0 0  0 0 0  0 0 0  0 0 0  0 0 0  0 0 0  0 0 0  0 0 0  0 0 0  0 0 0  0 0 0  0 0 0  0 0 0  0 0 0  0 0 0  0 0 0  0 0 0  0 0 0  0 0 0  0 0 0  0 0 0  0 0 0  
            </DataArray>
            <DataArray type="Float64" Name="Traction" NumberOfComponents="3" format="ascii">
               -0.000118938 -0.000118752 -0.000973252  -7.37383e-05 -0.000210476 -0.000973252  -4.3231e-05 -0.000265665 -0.000973252  -5.88912e-06 -0.000257605 -0.000973252  -1.41093e-05 -0.000257714 -0.000973252  5.02989e-05 -0.000263317 -0.000973252  0.000174921 -0.00023802 -0.000973252  4.90442e-05 -0.000118882 -0.000973252  -4.10594e-06 -8.94558e-05 -0.000973252  -0.000210451 -7.40488e-05 -0.000973252  -0.000131752 -0.000132103 -0.000973252  -6.26102e-05 -0.00018681 -0.000973252  -2.0121e-05 -0.000195081 -0.000973252  -2.98238e-05 -0.000202189 -0.000973252  2.21442e-05 -0.000189274 -0.000973252  0.000189612 -0.000191795 -0.000973252  0.000118953 -0.000125919 -0.000973252  9.53411e-05 -9.71587e-05 -0.000973252  -0.000265567 -4.35517e-05 -0.000973252  -0.000186394 -6.28692e-05 -0.000973252  -9.99083e-05 -0.000100135 -0.000973252  -1.80327e-05 -0.000127174 -0.000973252  -1.74806e-05 -0.000130487 -0.000973252  2.19186e-05 -0.000122695 -0.000973252  0.000211993 -0.000122337 -0.000973252  0.000184697 -0.000103343 -0.000973252  0.000221727 -0.000113561 -0.000973252  -0.000257559 -6.41355e-06 -0.000973252  -0.000194734 -2.05417e-05 -0.000973252  -0.000126954 -1.83813e-05 -0.000973252  -3.64153e-05 -3.68028e-05 -0.000973252  -1.46013e-05 -3.09204e-05 -0.000973252  3.50449e-05 -3.65885e-05 -0.000973252  0.000205289 -2.82021e-05 -0.000973252  0.000184537 -2.68765e-05 -0.000973252  0.00025007 -3.12007e-05 -0.000973252  -0.000257623 -1.48349e-05 -0.000973252  -0.000201768 -3.04895e-05 -0.000973252  -0.000130248 -1.80447e-05 -0.000973252  -3.05365e-05 -1.5204e-05 -0.000973252  -2.25584e-05 -2.31653e-05 -0.000973252  2.46514e-05 -2.04967e-05 -0.000973252  0.000204978 -2.13534e-05 -0.000973252  0.00018792 -9.99521e-06 -0.000973252  0.000235473 -3.44261e-05 -0.000973252  -0.000263333 4.97996e-05 -0.000973252  -0.000188906 2.16599e-05 -0.000973252  -0.000122455 2.15113e-05 -0.000973252  -3.61819e-05 3.46124e-05 -0.000973252  -1.98311e-05 2.42531e-05 -0.000973252  3.41049e-05 3.35985e-05 -0.000973252  0.000210341 1.0847e-05 -0.000973252  0.000188847 2.07175e-05 -0.000973252  0.000248576 -1.66316e-05 -0.000973252  -0.000237678 0.000174163 -0.000973252  -0.00019127 0.000188828 -0.000973252  -0.000122 0.000211129 -0.000973252  -2.77498e-05 0.000204385 -0.000973252  -2.07132e-05 0.000204071 -0.000973252  1.13161e-05 0.000209429 -0.000973252  0.000180211 0.000179345 -0.000973252  0.000180692 0.000122836 -0.000973252  0.00025398 9.0987e-05 -0.000973252  -0.000118413 4.84437e-05 -0.000973252  -0.000125368 0.000118362 -0.000973252  -0.000102998 0.000184126 -0.000973252  -2.63422e-05 0.000184031 -0.000973252  -9.26213e-06 0.000187315 -0.000973252  2.13099e-05 0.000188263 -0.000973252  0.000123696 0.000179906 -0.000973252  0.000128011 0.00012736 -0.000973252  0.000198567 7.74196e-05 -0.000973252  -8.87557e-05 -4.45721e-06 -0.000973252  -9.63671e-05 9.49976e-05 -0.000973252  -0.000113126 0.000221554 -0.000973252  -3.0641e-05 0.000250156 -0.000973252  -3.36659e-05 0.00023539 -0.000973252  -1.61264e-05 0.000248482 -0.000973252  9.19718e-05 0.000253566 -0.000973252  7.78984e-05 0.000198127 -0.000973252  0.000115744 0.000115758 -0.000973252  
            </DataArray>
         </PointData> 
      </Piece>
   </UnstructuredGrid> 
</VTKFile>
