<?xml version="1.0"?>
<VTKFile type="UnstructuredGrid" version="0.1" byte_order="LittleEndian">
   <UnstructuredGrid>
      <Piece NumberOfPoints="81" NumberOfCells="0" > 
         <Points> 
            <DataArray type="Float64" Name="Position" NumberOfComponents="3" format="ascii"> 
               0  0  20  
               0.375  0  20  
               0.75  0  20  
               1.125  0  20  
               1.5  0  20  
               1.875  0  20  
               2.25  0  20  
               2.625  0  20  
               3  0  20  
               0  0.375  20  
               0.375  0.375  20  
               0.75  0.375  20  
               1.125  0.375  20  
               1.5  0.375  20  
               1.875  0.375  20  
               2.25  0.375  20  
               2.625  0.375  20  
               3  0.375  20  
               0  0.75  20  
               0.375  0.75  20  
               0.75  0.75  20  
               1.125  0.75  20  
               1.5  0.75  20  
               1.875  0.75  20  
               2.25  0.75  20  
               2.625  0.75  20  
               3  0.75  20  
               0  1.125  20  
               0.375  1.125  20  
               0.75  1.125  20  
               1.125  1.125  20  
               1.5  1.125  20  
               1.875  1.125  20  
               2.25  1.125  20  
               2.625  1.125  20  
               3  1.125  20  
               0  1.5  20  
               0.375  1.5  20  
               0.75  1.5  20  
               1.125  1.5  20  
               1.5  1.5  20  
               1.875  1.5  20  
               2.25  1.5  20  
               2.625  1.5  20  
               3  1.5  20  
               0  1.875  20  
               0.375  1.875  20  
               0.75  1.875  20  
               1.125  1.875  20  
               1.5  1.875  20  
               1.875  1.875  20  
               2.25  1.875  20  
               2.625  1.875  20  
               3  1.875  20  
               0  2.25  20  
               0.375  2.25  20  
               0.75  2.25  20  
               1.125  2.25  20  
               1.5  2.25  20  
               1.875  2.25  20  
               2.25  2.25  20  
               2.625  2.25  20  
               3  2.25  20  
               0  2.625  20  
               0.375  2.625  20  
               0.75  2.625  20  
               1.125  2.625  20  
               1.5  2.625  20  
               1.875  2.625  20  
               2.25  2.625  20  
               2.625  2.625  20  
               3  2.625  20  
               0  3  20  
               0.375  3  20  
               0.75  3  20  
               1.125  3  20  
               1.5  3  20  
               1.875  3  20  
               2.25  3  20  
               2.625  3  20  
               3  3  20  
            </DataArray>
         </Points> 

         <Cells>
            <DataArray type="Int32" Name="connectivity" NumberOfComponents="1" format="ascii">
               
            </DataArray> 
            <DataArray type="Int32" Name="offsets" NumberOfComponents="1" format="ascii">
               
            </DataArray>
            <DataArray type="UInt8"  Name="types" NumberOfComponents="1" format="ascii">
               
            </DataArray>
         </Cells>
         <PointData Scalars="Rank " Vectors="Displacement Velocity Traction ">
            <DataArray type="UInt32" Name="Rank" NumberOfComponents="1" format="ascii">
               0 0 0 0 0 0 0 0 0 0 0 0 0 0 0 0 0 0 0 0 0 0 0 0 0 0 0 0 0 0 0 0 0 0 0 0 0 0 0 0 0 0 0 0 0 0 0 0 0 0 0 0 0 0 0 0 0 0 0 0 0 0 0 0 0 0 0 0 0 0 0 0 0 0 0 0 0 0 0 0 0 
            </DataArray>
            <DataArray type="Float64" Name="Displacement" NumberOfComponents="3" format="ascii">
               0 0 0  0 0 0  0 0 0  0 0 0  0 0 0  0 0 0  0 0 0  0 0 0  0 0 0  0 0 0  0 0 0  0 0 0  0 0 0  0 0 0  0 0 0  0 0 0  0 0 0  0 0 0  0 0 0  0 0 0  0 0 0  0 0 0  0 0 0  0 0 0  0 0 0  0 0 0  0 0 0  0 0 0  0 0 0  0 0 0  0 0 0  0 0 0  0 0 0  0 0 0  0 0 0  0 0 0  0 0 0  0 0 0  0 0 0  0 0 0  0 0 0  0 0 0  0 0 0  0 0 0  0 0 0  0 0 0  0 0 0  0 0 0  0 0 0  0 0 0  0 0 0  0 0 0  0 0 0  0 0 0  0 0 0  0 0 0  0 0 0  0 0 0  0 0 0  0 0 0  0 0 0  0 0 0  0 0 0  0 0 0  0 0 0  0 0 0  0 0 0  0 0 0  0 0 0  0 0 0  0 0 0  0 0 0  0 0 0  0 0 0  0 0 0  0 0 0  0 0 0  0 0 0  0 0 0  0 0 0  0 0 0  
            </DataArray>
            <DataArray type="Float64" Name="Velocity" NumberOfComponents="3" format="ascii">
               0 0 0  0 0 0  0 0 0  0 0 0  0 0 0  0 0 0  0 0 0  0 0 0  0 0 0  0 0 0  0 0 0  0 0 0  0 0 0  0 0 0  0 0 0  0 0 0  0 0 0  0 0 0  0 0 0  0 0 0  0 0 0  0 0 0  0 0 0  0 0 0  0 0 0  0 0 0  0 0 0  0 0 0  0 0 0  0 0 0  0 0 0  0 0 0  0 0 0  0 0 0  0 0 0  0 0 0  0 0 0  0 0 0  0 0 0  0 0 0  0 0 0  0 0 0  0 0 0  0 0 0  0 0 0  0 0 0  0 0 0  0 0 0  0 0 0  0 0 0  0 0 0  0 0 0  0 0 0  0 0 0  0 0 0  0 0 0  0 0 0  0 0 0  0 0 0  0 0 0  0 0 0  0 0 0  0 0 0  0 0 0  0 0 0  0 0 0  0 0 0  0 0 0  0 0 0  0 0 0  0 0 0  0 0 0  0 0 0  0 0 0  0 0 0  0 0 0  0 0 0  0 0 0  0 0 0  0 0 0  0 0 0  
            </DataArray>
            <DataArray type="Float64" Name="Traction" NumberOfComponents="3" format="ascii">
               -4.1584e-05 -4.18539e-05 -0.00037776  -2.13304e-05 -7.51702e-05 -0.00037776  -1.10277e-05 -9.38027e-05 -0.00037776  -1.20344e-06 -9.21459e-05 -0.00037776  -3.61069e-06 -9.22342e-05 -0.00037776  1.43327e-05 -9.41616e-05 -0.00037776  5.29941e-05 -8.61061e-05 -0.00037776  1.95483e-05 -4.66709e-05 -0.00037776  1.07685e-05 -3.74742e-05 -0.00037776  -7.48302e-05 -2.13682e-05 -0.00037776  -4.33188e-05 -4.34371e-05 -0.00037776  -1.85079e-05 -6.18789e-05 -0.00037776  -5.50122e-06 -6.49035e-05 -0.00037776  -8.51742e-06 -6.70173e-05 -0.00037776  6.45992e-06 -6.34878e-05 -0.00037776  5.8178e-05 -6.42352e-05 -0.00037776  4.01371e-05 -4.16297e-05 -0.00037776  4.07977e-05 -3.31418e-05 -0.00037776  -9.35176e-05 -1.10545e-05 -0.00037776  -6.18293e-05 -1.85643e-05 -0.00037776  -3.06614e-05 -3.06857e-05 -0.00037776  -4.98761e-06 -3.91504e-05 -0.00037776  -5.2188e-06 -4.01892e-05 -0.00037776  6.55789e-06 -3.80008e-05 -0.00037776  6.73342e-05 -3.78474e-05 -0.00037776  6.20024e-05 -3.05754e-05 -0.00037776  8.14602e-05 -3.35804e-05 -0.00037776  -9.17912e-05 -1.30136e-06 -0.00037776  -6.48042e-05 -5.59868e-06 -0.00037776  -3.91158e-05 -5.10409e-06 -0.00037776  -1.07113e-05 -1.08226e-05 -0.00037776  -4.7636e-06 -9.25483e-06 -0.00037776  1.04553e-05 -1.08744e-05 -0.00037776  6.56704e-05 -8.23381e-06 -0.00037776  6.23478e-05 -7.53902e-06 -0.00037776  9.07498e-05 -8.18019e-06 -0.00037776  -9.18663e-05 -3.69348e-06 -0.00037776  -6.68993e-05 -8.58328e-06 -0.00037776  -4.01395e-05 -5.32964e-06 -0.00037776  -9.14869e-06 -4.87433e-06 -0.00037776  -7.23075e-06 -7.32405e-06 -0.00037776  7.10707e-06 -6.41748e-06 -0.00037776  6.49629e-05 -7.02565e-06 -0.00037776  6.25635e-05 -3.16997e-06 -0.00037776  8.54091e-05 -1.05924e-05 -0.00037776  -9.38035e-05 1.41929e-05 -0.00037776  -6.34118e-05 6.34175e-06 -0.00037776  -3.7994e-05 6.38528e-06 -0.00037776  -1.07853e-05 1.02975e-05 -0.00037776  -6.33581e-06 6.93878e-06 -0.00037776  1.01123e-05 9.97256e-06 -0.00037776  6.70668e-05 2.64126e-06 -0.00037776  6.31656e-05 6.02518e-06 -0.00037776  8.94252e-05 -5.4367e-06 -0.00037776  -8.57689e-05 5.29437e-05 -0.00037776  -6.41206e-05 5.81479e-05 -0.00037776  -3.78028e-05 6.72412e-05 -0.00037776  -8.15046e-06 6.56791e-05 -0.00037776  -6.94697e-06 6.49432e-05 -0.00037776  2.77512e-06 6.70594e-05 -0.00037776  5.73234e-05 5.73242e-05 -0.00037776  6.03727e-05 3.79477e-05 -0.00037776  9.07486e-05 2.6459e-05 -0.00037776  -4.64604e-05 1.93839e-05 -0.00037776  -4.16044e-05 3.99943e-05 -0.00037776  -3.05741e-05 6.17008e-05 -0.00037776  -7.50013e-06 6.21311e-05 -0.00037776  -3.14558e-06 6.23405e-05 -0.00037776  6.10631e-06 6.29692e-05 -0.00037776  3.79298e-05 6.0234e-05 -0.00037776  4.25389e-05 4.23953e-05 -0.00037776  7.20498e-05 2.29494e-05 -0.00037776  -3.72343e-05 1.04138e-05 -0.00037776  -3.31098e-05 4.0513e-05 -0.00037776  -3.35537e-05 8.09457e-05 -0.00037776  -8.13234e-06 9.02357e-05 -0.00037776  -1.05779e-05 8.49374e-05 -0.00037776  -5.34992e-06 8.89916e-05 -0.00037776  2.63547e-05 9.03875e-05 -0.00037776  2.29866e-05 7.17185e-05 -0.00037776  4.13902e-05 4.11334e-05 -0.00037776  
            </DataArray>
         </PointData> 
      </Piece>
   </UnstructuredGrid> 
</VTKFile>
