<?xml version="1.0"?>
<VTKFile type="UnstructuredGrid" version="0.1" byte_order="LittleEndian">
   <UnstructuredGrid>
      <Piece NumberOfPoints="81" NumberOfCells="0" > 
         <Points> 
            <DataArray type="Float64" Name="Position" NumberOfComponents="3" format="ascii"> 
               0  0  20  
               0.375  0  20  
               0.75  0  20  
               1.125  0  20  
               1.5  0  20  
               1.875  0  20  
               2.25  0  20  
               2.625  0  20  
               3  0  20  
               0  0.375  20  
               0.375  0.375  20  
               0.75  0.375  20  
               1.125  0.375  20  
               1.5  0.375  20  
               1.875  0.375  20  
               2.25  0.375  20  
               2.625  0.375  20  
               3  0.375  20  
               0  0.75  20  
               0.375  0.75  20  
               0.75  0.75  20  
               1.125  0.75  20  
               1.5  0.75  20  
               1.875  0.75  20  
               2.25  0.75  20  
               2.625  0.75  20  
               3  0.75  20  
               0  1.125  20  
               0.375  1.125  20  
               0.75  1.125  20  
               1.125  1.125  20  
               1.5  1.125  20  
               1.875  1.125  20  
               2.25  1.125  20  
               2.625  1.125  20  
               3  1.125  20  
               0  1.5  20  
               0.375  1.5  20  
               0.75  1.5  20  
               1.125  1.5  20  
               1.5  1.5  20  
               1.875  1.5  20  
               2.25  1.5  20  
               2.625  1.5  20  
               3  1.5  20  
               0  1.875  20  
               0.375  1.875  20  
               0.75  1.875  20  
               1.125  1.875  20  
               1.5  1.875  20  
               1.875  1.875  20  
               2.25  1.875  20  
               2.625  1.875  20  
               3  1.875  20  
               0  2.25  20  
               0.375  2.25  20  
               0.75  2.25  20  
               1.125  2.25  20  
               1.5  2.25  20  
               1.875  2.25  20  
               2.25  2.25  20  
               2.625  2.25  20  
               3  2.25  20  
               0  2.625  20  
               0.375  2.625  20  
               0.75  2.625  20  
               1.125  2.625  20  
               1.5  2.625  20  
               1.875  2.625  20  
               2.25  2.625  20  
               2.625  2.625  20  
               3  2.625  20  
               0  3  20  
               0.375  3  20  
               0.75  3  20  
               1.125  3  20  
               1.5  3  20  
               1.875  3  20  
               2.25  3  20  
               2.625  3  20  
               3  3  20  
            </DataArray>
         </Points> 

         <Cells>
            <DataArray type="Int32" Name="connectivity" NumberOfComponents="1" format="ascii">
               
            </DataArray> 
            <DataArray type="Int32" Name="offsets" NumberOfComponents="1" format="ascii">
               
            </DataArray>
            <DataArray type="UInt8"  Name="types" NumberOfComponents="1" format="ascii">
               
            </DataArray>
         </Cells>
         <PointData Scalars="Rank " Vectors="Displacement Velocity Traction ">
            <DataArray type="UInt32" Name="Rank" NumberOfComponents="1" format="ascii">
               0 0 0 0 0 0 0 0 0 0 0 0 0 0 0 0 0 0 0 0 0 0 0 0 0 0 0 0 0 0 0 0 0 0 0 0 0 0 0 0 0 0 0 0 0 0 0 0 0 0 0 0 0 0 0 0 0 0 0 0 0 0 0 0 0 0 0 0 0 0 0 0 0 0 0 0 0 0 0 0 0 
            </DataArray>
            <DataArray type="Float64" Name="Displacement" NumberOfComponents="3" format="ascii">
               0 0 0  0 0 0  0 0 0  0 0 0  0 0 0  0 0 0  0 0 0  0 0 0  0 0 0  0 0 0  0 0 0  0 0 0  0 0 0  0 0 0  0 0 0  0 0 0  0 0 0  0 0 0  0 0 0  0 0 0  0 0 0  0 0 0  0 0 0  0 0 0  0 0 0  0 0 0  0 0 0  0 0 0  0 0 0  0 0 0  0 0 0  0 0 0  0 0 0  0 0 0  0 0 0  0 0 0  0 0 0  0 0 0  0 0 0  0 0 0  0 0 0  0 0 0  0 0 0  0 0 0  0 0 0  0 0 0  0 0 0  0 0 0  0 0 0  0 0 0  0 0 0  0 0 0  0 0 0  0 0 0  0 0 0  0 0 0  0 0 0  0 0 0  0 0 0  0 0 0  0 0 0  0 0 0  0 0 0  0 0 0  0 0 0  0 0 0  0 0 0  0 0 0  0 0 0  0 0 0  0 0 0  0 0 0  0 0 0  0 0 0  0 0 0  0 0 0  0 0 0  0 0 0  0 0 0  0 0 0  0 0 0  
            </DataArray>
            <DataArray type="Float64" Name="Velocity" NumberOfComponents="3" format="ascii">
               0 0 0  0 0 0  0 0 0  0 0 0  0 0 0  0 0 0  0 0 0  0 0 0  0 0 0  0 0 0  0 0 0  0 0 0  0 0 0  0 0 0  0 0 0  0 0 0  0 0 0  0 0 0  0 0 0  0 0 0  0 0 0  0 0 0  0 0 0  0 0 0  0 0 0  0 0 0  0 0 0  0 0 0  0 0 0  0 0 0  0 0 0  0 0 0  0 0 0  0 0 0  0 0 0  0 0 0  0 0 0  0 0 0  0 0 0  0 0 0  0 0 0  0 0 0  0 0 0  0 0 0  0 0 0  0 0 0  0 0 0  0 0 0  0 0 0  0 0 0  0 0 0  0 0 0  0 0 0  0 0 0  0 0 0  0 0 0  0 0 0  0 0 0  0 0 0  0 0 0  0 0 0  0 0 0  0 0 0  0 0 0  0 0 0  0 0 0  0 0 0  0 0 0  0 0 0  0 0 0  0 0 0  0 0 0  0 0 0  0 0 0  0 0 0  0 0 0  0 0 0  0 0 0  0 0 0  0 0 0  0 0 0  
            </DataArray>
            <DataArray type="Float64" Name="Traction" NumberOfComponents="3" format="ascii">
               -9.41728e-05 -9.42992e-05 -0.000769649  -5.58253e-05 -0.000167417 -0.000769649  -3.2054e-05 -0.000210035 -0.000769649  -4.15018e-06 -0.000204401 -0.000769649  -1.03524e-05 -0.000204065 -0.000769649  3.79906e-05 -0.000208844 -0.000769649  0.000133793 -0.00018941 -0.000769649  4.04633e-05 -9.68992e-05 -0.000769649  3.72856e-06 -7.46775e-05 -0.000769649  -0.000166959 -5.61698e-05 -0.000769649  -0.000102538 -0.000103039 -0.000769649  -4.76815e-05 -0.000145717 -0.000769649  -1.51185e-05 -0.000152412 -0.000769649  -2.25407e-05 -0.000157585 -0.000769649  1.67678e-05 -0.000148148 -0.000769649  0.000144981 -0.000150064 -0.000769649  9.3198e-05 -9.84106e-05 -0.000769649  7.91033e-05 -7.68156e-05 -0.000769649  -0.000209507 -3.23472e-05 -0.000769649  -0.000145172 -4.79683e-05 -0.000769649  -7.66006e-05 -7.68742e-05 -0.000769649  -1.34947e-05 -9.7792e-05 -0.000769649  -1.30615e-05 -0.000100064 -0.000769649  1.70268e-05 -9.44532e-05 -0.000769649  0.000163487 -9.40574e-05 -0.000769649  0.000144523 -7.87946e-05 -0.000769649  0.000176826 -8.66226e-05 -0.000769649  -0.000203868 -4.70943e-06 -0.000769649  -0.000151892 -1.55881e-05 -0.000769649  -9.75091e-05 -1.39379e-05 -0.000769649  -2.76667e-05 -2.81459e-05 -0.000769649  -1.13633e-05 -2.34552e-05 -0.000769649  2.6862e-05 -2.80528e-05 -0.000769649  0.000158573 -2.15059e-05 -0.000769649  0.000144717 -2.04737e-05 -0.000769649  0.00019909 -2.32266e-05 -0.000769649  -0.000203481 -1.10961e-05 -0.000769649  -0.000156998 -2.32386e-05 -0.000769649  -9.97484e-05 -1.37124e-05 -0.000769649  -2.29607e-05 -1.20714e-05 -0.000769649  -1.7466e-05 -1.81943e-05 -0.000769649  1.88564e-05 -1.61594e-05 -0.000769649  0.000157986 -1.67804e-05 -0.000769649  0.000146808 -7.91399e-06 -0.000769649  0.000187431 -2.6713e-05 -0.000769649  -0.000208355 3.74465e-05 -0.000769649  -0.000147614 1.62264e-05 -0.000769649  -9.41594e-05 1.65292e-05 -0.000769649  -2.75498e-05 2.63277e-05 -0.000769649  -1.53979e-05 1.8288e-05 -0.000769649  2.62061e-05 2.55814e-05 -0.000769649  0.000162397 7.85668e-06 -0.000769649  0.000147794 1.56927e-05 -0.000769649  0.000197666 -1.29858e-05 -0.000769649  -0.000188741 0.00013314 -0.000769649  -0.000149453 0.00014434 -0.000769649  -9.37073e-05 0.000162759 -0.000769649  -2.10156e-05 0.000157853 -0.000769649  -1.60801e-05 0.000157212 -0.000769649  8.43827e-06 0.000161625 -0.000769649  0.000138897 0.000138192 -0.000769649  0.000141318 9.3692e-05 -0.000769649  0.000201417 6.87432e-05 -0.000769649  -9.61876e-05 3.96647e-05 -0.000769649  -9.78362e-05 9.25176e-05 -0.000769649  -7.84483e-05 0.000143772 -0.000769649  -1.99345e-05 0.00014402 -0.000769649  -7.20364e-06 0.00014599 -0.000769649  1.63034e-05 0.000146994 -0.000769649  9.43623e-05 0.000140447 -0.000769649  0.000100109 9.935e-05 -0.000769649  0.000158625 5.88708e-05 -0.000769649  -7.37581e-05 2.84996e-06 -0.000769649  -7.60147e-05 7.84061e-05 -0.000769649  -8.61697e-05 0.000176134 -0.000769649  -2.26823e-05 0.000198528 -0.000769649  -2.5964e-05 0.000186688 -0.000769649  -1.24134e-05 0.000196889 -0.000769649  6.94257e-05 0.000200501 -0.000769649  5.92968e-05 0.000157735 -0.000769649  9.22569e-05 9.19461e-05 -0.000769649  
            </DataArray>
         </PointData> 
      </Piece>
   </UnstructuredGrid> 
</VTKFile>
