<?xml version="1.0"?>
<VTKFile type="UnstructuredGrid" version="0.1" byte_order="LittleEndian">
   <UnstructuredGrid>
      <Piece NumberOfPoints="81" NumberOfCells="0" > 
         <Points> 
            <DataArray type="Float64" Name="Position" NumberOfComponents="3" format="ascii"> 
               0  0  20  
               0.375  0  20  
               0.75  0  20  
               1.125  0  20  
               1.5  0  20  
               1.875  0  20  
               2.25  0  20  
               2.625  0  20  
               3  0  20  
               0  0.375  20  
               0.375  0.375  20  
               0.75  0.375  20  
               1.125  0.375  20  
               1.5  0.375  20  
               1.875  0.375  20  
               2.25  0.375  20  
               2.625  0.375  20  
               3  0.375  20  
               0  0.75  20  
               0.375  0.75  20  
               0.75  0.75  20  
               1.125  0.75  20  
               1.5  0.75  20  
               1.875  0.75  20  
               2.25  0.75  20  
               2.625  0.75  20  
               3  0.75  20  
               0  1.125  20  
               0.375  1.125  20  
               0.75  1.125  20  
               1.125  1.125  20  
               1.5  1.125  20  
               1.875  1.125  20  
               2.25  1.125  20  
               2.625  1.125  20  
               3  1.125  20  
               0  1.5  20  
               0.375  1.5  20  
               0.75  1.5  20  
               1.125  1.5  20  
               1.5  1.5  20  
               1.875  1.5  20  
               2.25  1.5  20  
               2.625  1.5  20  
               3  1.5  20  
               0  1.875  20  
               0.375  1.875  20  
               0.75  1.875  20  
               1.125  1.875  20  
               1.5  1.875  20  
               1.875  1.875  20  
               2.25  1.875  20  
               2.625  1.875  20  
               3  1.875  20  
               0  2.25  20  
               0.375  2.25  20  
               0.75  2.25  20  
               1.125  2.25  20  
               1.5  2.25  20  
               1.875  2.25  20  
               2.25  2.25  20  
               2.625  2.25  20  
               3  2.25  20  
               0  2.625  20  
               0.375  2.625  20  
               0.75  2.625  20  
               1.125  2.625  20  
               1.5  2.625  20  
               1.875  2.625  20  
               2.25  2.625  20  
               2.625  2.625  20  
               3  2.625  20  
               0  3  20  
               0.375  3  20  
               0.75  3  20  
               1.125  3  20  
               1.5  3  20  
               1.875  3  20  
               2.25  3  20  
               2.625  3  20  
               3  3  20  
            </DataArray>
         </Points> 

         <Cells>
            <DataArray type="Int32" Name="connectivity" NumberOfComponents="1" format="ascii">
               
            </DataArray> 
            <DataArray type="Int32" Name="offsets" NumberOfComponents="1" format="ascii">
               
            </DataArray>
            <DataArray type="UInt8"  Name="types" NumberOfComponents="1" format="ascii">
               
            </DataArray>
         </Cells>
         <PointData Scalars="Rank " Vectors="Displacement Velocity Traction ">
            <DataArray type="UInt32" Name="Rank" NumberOfComponents="1" format="ascii">
               0 0 0 0 0 0 0 0 0 0 0 0 0 0 0 0 0 0 0 0 0 0 0 0 0 0 0 0 0 0 0 0 0 0 0 0 0 0 0 0 0 0 0 0 0 0 0 0 0 0 0 0 0 0 0 0 0 0 0 0 0 0 0 0 0 0 0 0 0 0 0 0 0 0 0 0 0 0 0 0 0 
            </DataArray>
            <DataArray type="Float64" Name="Displacement" NumberOfComponents="3" format="ascii">
               0 0 0  0 0 0  0 0 0  0 0 0  0 0 0  0 0 0  0 0 0  0 0 0  0 0 0  0 0 0  0 0 0  0 0 0  0 0 0  0 0 0  0 0 0  0 0 0  0 0 0  0 0 0  0 0 0  0 0 0  0 0 0  0 0 0  0 0 0  0 0 0  0 0 0  0 0 0  0 0 0  0 0 0  0 0 0  0 0 0  0 0 0  0 0 0  0 0 0  0 0 0  0 0 0  0 0 0  0 0 0  0 0 0  0 0 0  0 0 0  0 0 0  0 0 0  0 0 0  0 0 0  0 0 0  0 0 0  0 0 0  0 0 0  0 0 0  0 0 0  0 0 0  0 0 0  0 0 0  0 0 0  0 0 0  0 0 0  0 0 0  0 0 0  0 0 0  0 0 0  0 0 0  0 0 0  0 0 0  0 0 0  0 0 0  0 0 0  0 0 0  0 0 0  0 0 0  0 0 0  0 0 0  0 0 0  0 0 0  0 0 0  0 0 0  0 0 0  0 0 0  0 0 0  0 0 0  0 0 0  0 0 0  
            </DataArray>
            <DataArray type="Float64" Name="Velocity" NumberOfComponents="3" format="ascii">
               0 0 0  0 0 0  0 0 0  0 0 0  0 0 0  0 0 0  0 0 0  0 0 0  0 0 0  0 0 0  0 0 0  0 0 0  0 0 0  0 0 0  0 0 0  0 0 0  0 0 0  0 0 0  0 0 0  0 0 0  0 0 0  0 0 0  0 0 0  0 0 0  0 0 0  0 0 0  0 0 0  0 0 0  0 0 0  0 0 0  0 0 0  0 0 0  0 0 0  0 0 0  0 0 0  0 0 0  0 0 0  0 0 0  0 0 0  0 0 0  0 0 0  0 0 0  0 0 0  0 0 0  0 0 0  0 0 0  0 0 0  0 0 0  0 0 0  0 0 0  0 0 0  0 0 0  0 0 0  0 0 0  0 0 0  0 0 0  0 0 0  0 0 0  0 0 0  0 0 0  0 0 0  0 0 0  0 0 0  0 0 0  0 0 0  0 0 0  0 0 0  0 0 0  0 0 0  0 0 0  0 0 0  0 0 0  0 0 0  0 0 0  0 0 0  0 0 0  0 0 0  0 0 0  0 0 0  0 0 0  0 0 0  
            </DataArray>
            <DataArray type="Float64" Name="Traction" NumberOfComponents="3" format="ascii">
               -0.00237176 -0.00237021 -0.0239353  -0.00206681 -0.0042418 -0.0239353  -0.00133767 -0.00572317 -0.0239353  -0.000110143 -0.00555229 -0.0239353  -0.000472842 -0.00550252 -0.0239353  0.00145141 -0.00574065 -0.0239353  0.00471991 -0.00502982 -0.0239353  0.000545084 -0.0017993 -0.0239353  -0.00186322 -0.000765917 -0.0239353  -0.00424805 -0.00207334 -0.0239353  -0.00312183 -0.00312419 -0.0239353  -0.00179392 -0.00434797 -0.0239353  -0.000559304 -0.00456147 -0.0239353  -0.000891249 -0.0047308 -0.0239353  0.000655109 -0.00437294 -0.0239353  0.00524738 -0.00455443 -0.0239353  0.00274696 -0.00293176 -0.0239353  0.00111476 -0.00189076 -0.0239353  -0.0057298 -0.00134592 -0.0239353  -0.0043456 -0.00180064 -0.0239353  -0.00263805 -0.00264456 -0.0239353  -0.000467302 -0.0032757 -0.0239353  -0.00048903 -0.00335756 -0.0239353  0.000558096 -0.00309937 -0.0239353  0.00549124 -0.00321669 -0.0239353  0.00445546 -0.00293719 -0.0239353  0.00469577 -0.00308044 -0.0239353  -0.00556105 -0.000116761 -0.0239353  -0.00456076 -0.000565228 -0.0239353  -0.00326929 -0.000471665 -0.0239353  -0.000943252 -0.000947732 -0.0239353  -0.000329141 -0.00081976 -0.0239353  0.000940668 -0.000964393 -0.0239353  0.00505148 -0.000750789 -0.0239353  0.00426332 -0.000770812 -0.0239353  0.00542457 -0.000855056 -0.0239353  -0.00551072 -0.000479998 -0.0239353  -0.00473016 -0.000897297 -0.0239353  -0.00335145 -0.000492726 -0.0239353  -0.000815447 -0.000331496 -0.0239353  -0.000570805 -0.000573168 -0.0239353  0.000670252 -0.000549716 -0.0239353  0.00510841 -0.000588674 -0.0239353  0.00436909 -0.000350729 -0.0239353  0.0049424 -0.000918865 -0.0239353  -0.00574835 0.00144333 -0.0239353  -0.00437156 0.000648361 -0.0239353  -0.00309227 0.000551358 -0.0239353  -0.000959772 0.000934386 -0.0239353  -0.000546749 0.000665101 -0.0239353  0.000867218 0.000860743 -0.0239353  0.00522037 0.000350892 -0.0239353  0.00439877 0.000583865 -0.0239353  0.00535671 -0.000518229 -0.0239353  -0.00503565 0.00470534 -0.0239353  -0.00455425 0.00523347 -0.0239353  -0.00321172 0.00547657 -0.0239353  -0.000744872 0.00503469 -0.0239353  -0.000584824 0.00509259 -0.0239353  0.000357036 0.00520352 -0.0239353  0.00460688 0.0045896 -0.0239353  0.00414776 0.00349054 -0.0239353  0.00534651 0.00274731 -0.0239353  -0.00179703 0.000541738 -0.0239353  -0.00292648 0.00274031 -0.0239353  -0.00293246 0.00445095 -0.0239353  -0.000764544 0.00425808 -0.0239353  -0.000345327 0.00436486 -0.0239353  0.000591427 0.00439378 -0.0239353  0.00350755 0.00414053 -0.0239353  0.00301915 0.00301336 -0.0239353  0.00387515 0.00218628 -0.0239353  -0.000758719 -0.00185657 -0.0239353  -0.00188107 0.00111655 -0.0239353  -0.00307442 0.00470254 -0.0239353  -0.000847048 0.00543362 -0.0239353  -0.000913945 0.00495182 -0.0239353  -0.000514244 0.00536674 -0.0239353  0.0027648 0.00535415 -0.0239353  0.00219773 0.00388237 -0.0239353  0.00230243 0.00230249 -0.0239353  
            </DataArray>
         </PointData> 
      </Piece>
   </UnstructuredGrid> 
</VTKFile>
