<?xml version="1.0"?>
<VTKFile type="UnstructuredGrid" version="0.1" byte_order="LittleEndian">
   <UnstructuredGrid>
      <Piece NumberOfPoints="81" NumberOfCells="0" > 
         <Points> 
            <DataArray type="Float64" Name="Position" NumberOfComponents="3" format="ascii"> 
               0  0  15  
               0.375  0  15  
               0.75  0  15  
               1.125  0  15  
               1.5  0  15  
               1.875  0  15  
               2.25  0  15  
               2.625  0  15  
               3  0  15  
               0  0.375  15  
               0.375  0.375  15  
               0.75  0.375  15  
               1.125  0.375  15  
               1.5  0.375  15  
               1.875  0.375  15  
               2.25  0.375  15  
               2.625  0.375  15  
               3  0.375  15  
               0  0.75  15  
               0.375  0.75  15  
               0.75  0.75  15  
               1.125  0.75  15  
               1.5  0.75  15  
               1.875  0.75  15  
               2.25  0.75  15  
               2.625  0.75  15  
               3  0.75  15  
               0  1.125  15  
               0.375  1.125  15  
               0.75  1.125  15  
               1.125  1.125  15  
               1.5  1.125  15  
               1.875  1.125  15  
               2.25  1.125  15  
               2.625  1.125  15  
               3  1.125  15  
               0  1.5  15  
               0.375  1.5  15  
               0.75  1.5  15  
               1.125  1.5  15  
               1.5  1.5  15  
               1.875  1.5  15  
               2.25  1.5  15  
               2.625  1.5  15  
               3  1.5  15  
               0  1.875  15  
               0.375  1.875  15  
               0.75  1.875  15  
               1.125  1.875  15  
               1.5  1.875  15  
               1.875  1.875  15  
               2.25  1.875  15  
               2.625  1.875  15  
               3  1.875  15  
               0  2.25  15  
               0.375  2.25  15  
               0.75  2.25  15  
               1.125  2.25  15  
               1.5  2.25  15  
               1.875  2.25  15  
               2.25  2.25  15  
               2.625  2.25  15  
               3  2.25  15  
               0  2.625  15  
               0.375  2.625  15  
               0.75  2.625  15  
               1.125  2.625  15  
               1.5  2.625  15  
               1.875  2.625  15  
               2.25  2.625  15  
               2.625  2.625  15  
               3  2.625  15  
               0  3  15  
               0.375  3  15  
               0.75  3  15  
               1.125  3  15  
               1.5  3  15  
               1.875  3  15  
               2.25  3  15  
               2.625  3  15  
               3  3  15  
            </DataArray>
         </Points> 

         <Cells>
            <DataArray type="Int32" Name="connectivity" NumberOfComponents="1" format="ascii">
               
            </DataArray> 
            <DataArray type="Int32" Name="offsets" NumberOfComponents="1" format="ascii">
               
            </DataArray>
            <DataArray type="UInt8"  Name="types" NumberOfComponents="1" format="ascii">
               
            </DataArray>
         </Cells>
         <PointData Scalars="Rank " Vectors="Displacement Velocity Traction ">
            <DataArray type="UInt32" Name="Rank" NumberOfComponents="1" format="ascii">
               0 0 0 0 0 0 0 0 0 0 0 0 0 0 0 0 0 0 0 0 0 0 0 0 0 0 0 0 0 0 0 0 0 0 0 0 0 0 0 0 0 0 0 0 0 0 0 0 0 0 0 0 0 0 0 0 0 0 0 0 0 0 0 0 0 0 0 0 0 0 0 0 0 0 0 0 0 0 0 0 0 
            </DataArray>
            <DataArray type="Float64" Name="Displacement" NumberOfComponents="3" format="ascii">
               2.72351e-06 4.22308e-06 -7.69306e-07  2.55499e-06 2.46245e-06 -7.54791e-07  1.9963e-06 1.16822e-06 -6.8601e-07  1.53454e-06 2.83088e-07 -6.5494e-07  1.31301e-06 6.9581e-07 -6.54854e-07  1.2607e-06 1.85819e-08 -6.45955e-07  1.35649e-06 1.42555e-06 -6.6964e-07  1.35668e-06 6.4042e-07 -7.39516e-07  1.32501e-06 -3.52782e-07 -7.43173e-07  8.87797e-07 3.9408e-06 -7.53412e-07  1.07258e-06 2.45328e-06 -6.73052e-07  9.30949e-07 1.34777e-06 -5.75628e-07  6.75353e-07 3.27321e-07 -5.4749e-07  5.30966e-07 6.73207e-07 -5.44712e-07  3.62821e-07 3.73147e-10 -5.40605e-07  1.31284e-07 1.37049e-06 -5.72436e-07  -2.91894e-08 6.21241e-07 -6.90202e-07  -8.11266e-08 -3.40015e-07 -7.29831e-07  2.78256e-07 3.21835e-06 -6.85334e-07  6.10166e-07 2.08232e-06 -5.75923e-07  5.63743e-07 1.17946e-06 -4.16895e-07  2.8211e-07 2.48193e-07 -3.73729e-07  -5.67109e-08 4.37359e-07 -3.70932e-07  -5.42514e-07 2.51039e-08 -3.71455e-07  -1.16795e-06 1.18172e-06 -4.12696e-07  -1.55377e-06 5.17119e-07 -5.74328e-07  -1.68361e-06 -3.0605e-07 -6.65203e-07  5.86448e-07 2.35894e-06 -6.5471e-07  8.65349e-07 1.62679e-06 -5.47515e-07  7.53051e-07 9.58529e-07 -3.73722e-07  4.43097e-07 1.58787e-07 -3.19912e-07  1.68399e-07 1.3575e-07 -3.16013e-07  -1.83617e-07 -5.39547e-08 -3.19756e-07  -4.77113e-07 7.79582e-07 -3.71122e-07  -6.75648e-07 4.0937e-07 -5.42455e-07  -8.13059e-07 -2.00797e-07 -6.44623e-07  1.10297e-07 1.62582e-06 -6.54171e-07  3.64457e-07 1.16281e-06 -5.44815e-07  3.79163e-07 7.37451e-07 -3.70796e-07  2.62795e-07 -8.138e-08 -3.15988e-07  1.54549e-08 -1.27828e-07 -3.13842e-07  -4.02816e-07 -2.20021e-07 -3.15457e-07  -8.83075e-07 4.32478e-07 -3.70487e-07  -1.24869e-06 4.06903e-07 -5.437e-07  -1.34042e-06 -2.09162e-07 -6.4894e-07  6.56325e-07 9.66974e-07 -6.46106e-07  8.14224e-07 8.10137e-07 -5.40639e-07  6.16999e-07 6.21966e-07 -3.71542e-07  3.34185e-07 -3.27497e-07 -3.19704e-07  -7.13469e-10 -2.99115e-07 -3.15481e-07  -3.72138e-07 -3.58224e-07 -3.18711e-07  -6.31875e-07 1.85772e-07 -3.73214e-07  -8.70814e-07 4.23581e-07 -5.46441e-07  -8.96659e-07 -4.05891e-07 -6.48621e-07  -6.60897e-07 4.30823e-07 -6.68306e-07  -5.38003e-07 5.86755e-07 -5.72628e-07  -5.20694e-07 5.80705e-07 -4.12273e-07  -4.54196e-07 -6.27992e-07 -3.71147e-07  -5.01868e-07 -4.59202e-07 -3.70358e-07  -6.43362e-07 -6.83752e-07 -3.73173e-07  -7.68696e-07 -1.07152e-07 -4.1567e-07  -9.37691e-07 3.22317e-07 -5.76633e-07  -8.73803e-07 -7.77049e-07 -6.82756e-07  -1.95845e-07 1.99724e-07 -7.38782e-07  -1.90817e-07 4.30351e-07 -6.90314e-07  -2.23348e-07 4.49695e-07 -5.74436e-07  -2.48539e-07 -9.82752e-07 -5.42506e-07  -3.64106e-07 -6.32532e-07 -5.43772e-07  -5.75958e-07 -9.55405e-07 -5.46466e-07  -7.61438e-07 -3.32366e-07 -5.76836e-07  -8.91088e-07 2.25073e-07 -6.75915e-07  -8.80642e-07 -1.09955e-06 -7.52851e-07  5.90206e-07 1.6251e-07 -7.44456e-07  5.21884e-07 4.07107e-07 -7.29477e-07  3.14089e-07 4.75098e-07 -6.63909e-07  -1.08811e-07 -9.74422e-07 -6.4465e-07  -6.03612e-07 -5.53681e-07 -6.48326e-07  -1.159e-06 -8.13763e-07 -6.48385e-07  -1.79897e-06 -2.05606e-07 -6.82345e-07  -2.19814e-06 2.9199e-07 -7.51908e-07  -2.29856e-06 -1.16705e-06 -7.64846e-07  
            </DataArray>
            <DataArray type="Float64" Name="Velocity" NumberOfComponents="3" format="ascii">
               4.20998e-06 6.25647e-06 -1.39899e-06  4.12161e-06 2.79792e-06 -1.41159e-06  3.55953e-06 1.35331e-06 -1.32951e-06  3.0152e-06 1.67534e-07 -1.24929e-06  3.01159e-06 -6.0594e-08 -1.22066e-06  3.47683e-06 -1.08556e-06 -1.21837e-06  4.23608e-06 -7.87881e-08 -1.29287e-06  4.82933e-06 -1.97386e-06 -1.41204e-06  5.01775e-06 -2.45401e-06 -1.30866e-06  1.48463e-06 5.90265e-06 -1.40986e-06  1.84703e-06 2.65867e-06 -1.35261e-06  2.00017e-06 1.34152e-06 -1.22969e-06  2.14496e-06 -6.09357e-09 -1.17894e-06  2.5522e-06 -4.7273e-07 -1.13784e-06  3.03805e-06 -1.58648e-06 -1.15276e-06  3.40344e-06 -5.61259e-07 -1.22624e-06  3.53539e-06 -2.08737e-06 -1.40452e-06  3.3752e-06 -2.22536e-06 -1.37658e-06  2.39098e-06 4.80087e-06 -1.32959e-06  2.89803e-06 2.14138e-06 -1.22968e-06  2.7749e-06 8.37084e-07 -9.96323e-07  2.53661e-06 -4.70668e-07 -9.21163e-07  2.35994e-06 -1.09851e-06 -8.82331e-07  1.99825e-06 -1.8872e-06 -9.11348e-07  1.40652e-06 -9.29551e-07 -9.98611e-07  8.24022e-07 -1.88219e-06 -1.22782e-06  3.12111e-07 -1.66767e-06 -1.27925e-06  2.99496e-06 3.21841e-06 -1.25008e-06  3.50786e-06 1.54158e-06 -1.17862e-06  3.20698e-06 5.54703e-07 -9.21526e-07  2.65301e-06 -7.62984e-07 -8.15059e-07  2.28594e-06 -1.56196e-06 -7.73589e-07  1.77479e-06 -1.93187e-06 -8.13217e-07  1.23927e-06 -1.17328e-06 -9.13842e-07  6.23682e-07 -1.4336e-06 -1.1607e-06  1.03393e-07 -1.09017e-06 -1.21248e-06  1.97388e-06 1.88576e-06 -1.22108e-06  2.42151e-06 8.02503e-07 -1.13775e-06  2.46502e-06 2.39782e-07 -8.82527e-07  2.26437e-06 -1.1226e-06 -7.73408e-07  1.81774e-06 -1.82616e-06 -7.38461e-07  1.07277e-06 -1.95192e-06 -7.72747e-07  1.57272e-07 -1.15932e-06 -8.8101e-07  -7.25523e-07 -8.5898e-07 -1.13806e-06  -1.12942e-06 -8.3059e-07 -1.20352e-06  2.80597e-06 7.69125e-07 -1.21969e-06  3.09614e-06 1.46933e-07 -1.15233e-06  2.7257e-06 3.23258e-09 -9.11798e-07  2.14322e-06 -1.44876e-06 -8.12971e-07  1.44815e-06 -1.86325e-06 -7.72761e-07  6.66961e-07 -1.91398e-06 -8.14009e-07  3.29077e-08 -1.04942e-06 -9.20019e-07  -5.96011e-07 -3.59578e-07 -1.17643e-06  -8.39059e-07 -8.77954e-07 -1.22983e-06  9.22353e-07 -2.06237e-07 -1.29316e-06  1.17586e-06 -3.8849e-07 -1.22657e-06  1.069e-06 -4.53268e-08 -9.98814e-07  9.17204e-07 -1.813e-06 -9.13846e-07  5.84763e-07 -1.87329e-06 -8.80984e-07  1.54801e-07 -2.18503e-06 -9.20161e-07  -2.21125e-07 -1.13392e-06 -9.96691e-07  -7.06118e-07 -1.13307e-07 -1.23051e-06  -8.28876e-07 -1.17204e-06 -1.31806e-06  2.3137e-06 -7.43585e-07 -1.4131e-06  2.28676e-06 -7.00361e-07 -1.40358e-06  1.87958e-06 -7.57748e-08 -1.22827e-06  1.31689e-06 -2.12362e-06 -1.16055e-06  6.56049e-07 -1.84357e-06 -1.1382e-06  -3.57308e-08 -2.37418e-06 -1.17643e-06  -5.18058e-07 -1.22864e-06 -1.23056e-06  -8.52354e-07 3.97412e-08 -1.3592e-06  -9.71981e-07 -1.38745e-06 -1.40597e-06  3.37914e-06 -8.80235e-07 -1.31433e-06  3.12123e-06 -5.96519e-07 -1.37794e-06  2.40491e-06 2.68828e-07 -1.27923e-06  1.32038e-06 -1.80355e-06 -1.21281e-06  1.63704e-07 -1.41805e-06 -1.20319e-06  -1.01504e-06 -1.94951e-06 -1.23001e-06  -2.1201e-06 -9.39612e-07 -1.31791e-06  -2.66636e-06 2.22445e-07 -1.40503e-06  -2.76708e-06 -1.38246e-06 -1.38386e-06  
            </DataArray>
            <DataArray type="Float64" Name="Traction" NumberOfComponents="3" format="ascii">
               0.000115856 0.000149683 -0.000145193  -3.42569e-06 0.000121336 -0.000145193  -2.16589e-05 8.34677e-05 -0.000145193  -2.15479e-05 6.91544e-05 -0.000145193  1.87408e-06 6.15851e-05 -0.000145193  1.60228e-05 0.000110587 -0.000145193  1.13392e-05 0.000112794 -0.000145193  2.23122e-05 0.000184996 -0.000145193  -0.000276918 0.000284414 -0.000145193  0.00011337 3.63405e-05 -0.000145193  3.64317e-05 4.49347e-05 -0.000145193  1.33068e-05 3.00476e-05 -0.000145193  1.33012e-06 1.32419e-05 -0.000145193  8.56484e-06 -5.05799e-06 -0.000145193  2.46359e-05 8.14125e-06 -0.000145193  2.35215e-05 -3.14428e-06 -0.000145193  9.50642e-06 2.52457e-07 -0.000145193  -0.000191846 -4.16319e-06 -0.000145193  9.94618e-05 2.11301e-05 -0.000145193  4.89098e-05 2.18618e-05 -0.000145193  2.69166e-05 1.0534e-05 -0.000145193  1.19743e-05 7.61151e-06 -0.000145193  2.13645e-05 -3.03872e-06 -0.000145193  3.83776e-05 -5.52876e-06 -0.000145193  2.70679e-05 -2.50187e-05 -0.000145193  5.95686e-06 -1.55347e-05 -0.000145193  -0.000141203 7.38704e-06 -0.000145193  8.13368e-05 1.13012e-05 -0.000145193  5.25908e-05 6.90514e-06 -0.000145193  3.23116e-05 -3.26845e-06 -0.000145193  1.85544e-05 4.75457e-06 -0.000145193  1.32772e-05 4.12904e-06 -0.000145193  1.34097e-05 -1.17299e-05 -0.000145193  -1.33794e-06 -3.85063e-05 -0.000145193  -2.45171e-05 -2.33939e-05 -0.000145193  -0.000119229 -1.41203e-05 -0.000145193  6.80323e-05 -8.96122e-08 -0.000145193  6.36787e-05 -1.80273e-06 -0.000145193  4.40722e-05 -1.06985e-05 -0.000145193  2.90857e-05 5.05281e-07 -0.000145193  9.13681e-06 3.36824e-06 -0.000145193  -5.09277e-06 -8.76409e-07 -0.000145193  -1.30704e-05 -1.20488e-05 -0.000145193  -2.89032e-05 -2.18762e-06 -0.000145193  -4.94558e-05 9.04643e-06 -0.000145193  2.09142e-05 -2.42433e-05 -0.000145193  5.54514e-05 -1.93276e-05 -0.000145193  4.3543e-05 -3.06757e-05 -0.000145193  3.37918e-05 -1.98923e-05 -0.000145193  1.22175e-05 -1.56512e-05 -0.000145193  -3.92338e-06 -5.90753e-06 -0.000145193  -1.7713e-05 1.69143e-06 -0.000145193  -3.60196e-05 8.92947e-06 -0.000145193  -7.51813e-05 2.75039e-05 -0.000145193  -1.24811e-05 -3.16277e-05 -0.000145193  5.27273e-05 -2.47507e-05 -0.000145193  4.7582e-05 -3.65111e-05 -0.000145193  4.18442e-05 -3.40715e-05 -0.000145193  2.11948e-05 -3.87627e-05 -0.000145193  6.96201e-06 -2.6639e-05 -0.000145193  -6.37211e-06 -1.35279e-05 -0.000145193  -2.40848e-05 -1.50194e-06 -0.000145193  -8.12476e-05 8.89299e-06 -0.000145193  -5.95559e-05 -3.50917e-05 -0.000145193  2.60034e-05 -2.53326e-05 -0.000145193  2.84982e-05 -4.33406e-05 -0.000145193  2.43182e-05 -5.19257e-05 -0.000145193  8.84678e-06 -6.85599e-05 -0.000145193  3.09248e-07 -5.62259e-05 -0.000145193  -5.92912e-06 -3.53324e-05 -0.000145193  -1.55011e-05 -1.4567e-05 -0.000145193  -8.36701e-05 1.14129e-05 -0.000145193  -0.000115149 9.37095e-05 -0.000145193  2.28049e-05 4.52744e-05 -0.000145193  3.0104e-05 -7.26013e-06 -0.000145193  2.92495e-05 -4.36727e-05 -0.000145193  1.09448e-05 -9.59922e-05 -0.000145193  -1.0127e-05 -0.00010094 -0.000145193  -1.74461e-05 -8.06453e-05 -0.000145193  -5.79469e-06 -7.74242e-05 -0.000145193  -9.18053e-05 -7.52284e-05 -0.000145193  
            </DataArray>
         </PointData> 
      </Piece>
   </UnstructuredGrid> 
</VTKFile>
