<?xml version="1.0"?>
<VTKFile type="UnstructuredGrid" version="0.1" byte_order="LittleEndian">
   <UnstructuredGrid>
      <Piece NumberOfPoints="81" NumberOfCells="0" > 
         <Points> 
            <DataArray type="Float64" Name="Position" NumberOfComponents="3" format="ascii"> 
               0  0  15  
               0.375  0  15  
               0.75  0  15  
               1.125  0  15  
               1.5  0  15  
               1.875  0  15  
               2.25  0  15  
               2.625  0  15  
               3  0  15  
               0  0.375  15  
               0.375  0.375  15  
               0.75  0.375  15  
               1.125  0.375  15  
               1.5  0.375  15  
               1.875  0.375  15  
               2.25  0.375  15  
               2.625  0.375  15  
               3  0.375  15  
               0  0.75  15  
               0.375  0.75  15  
               0.75  0.75  15  
               1.125  0.75  15  
               1.5  0.75  15  
               1.875  0.75  15  
               2.25  0.75  15  
               2.625  0.75  15  
               3  0.75  15  
               0  1.125  15  
               0.375  1.125  15  
               0.75  1.125  15  
               1.125  1.125  15  
               1.5  1.125  15  
               1.875  1.125  15  
               2.25  1.125  15  
               2.625  1.125  15  
               3  1.125  15  
               0  1.5  15  
               0.375  1.5  15  
               0.75  1.5  15  
               1.125  1.5  15  
               1.5  1.5  15  
               1.875  1.5  15  
               2.25  1.5  15  
               2.625  1.5  15  
               3  1.5  15  
               0  1.875  15  
               0.375  1.875  15  
               0.75  1.875  15  
               1.125  1.875  15  
               1.5  1.875  15  
               1.875  1.875  15  
               2.25  1.875  15  
               2.625  1.875  15  
               3  1.875  15  
               0  2.25  15  
               0.375  2.25  15  
               0.75  2.25  15  
               1.125  2.25  15  
               1.5  2.25  15  
               1.875  2.25  15  
               2.25  2.25  15  
               2.625  2.25  15  
               3  2.25  15  
               0  2.625  15  
               0.375  2.625  15  
               0.75  2.625  15  
               1.125  2.625  15  
               1.5  2.625  15  
               1.875  2.625  15  
               2.25  2.625  15  
               2.625  2.625  15  
               3  2.625  15  
               0  3  15  
               0.375  3  15  
               0.75  3  15  
               1.125  3  15  
               1.5  3  15  
               1.875  3  15  
               2.25  3  15  
               2.625  3  15  
               3  3  15  
            </DataArray>
         </Points> 

         <Cells>
            <DataArray type="Int32" Name="connectivity" NumberOfComponents="1" format="ascii">
               
            </DataArray> 
            <DataArray type="Int32" Name="offsets" NumberOfComponents="1" format="ascii">
               
            </DataArray>
            <DataArray type="UInt8"  Name="types" NumberOfComponents="1" format="ascii">
               
            </DataArray>
         </Cells>
         <PointData Scalars="Rank " Vectors="Displacement Velocity Traction ">
            <DataArray type="UInt32" Name="Rank" NumberOfComponents="1" format="ascii">
               0 0 0 0 0 0 0 0 0 0 0 0 0 0 0 0 0 0 0 0 0 0 0 0 0 0 0 0 0 0 0 0 0 0 0 0 0 0 0 0 0 0 0 0 0 0 0 0 0 0 0 0 0 0 0 0 0 0 0 0 0 0 0 0 0 0 0 0 0 0 0 0 0 0 0 0 0 0 0 0 0 
            </DataArray>
            <DataArray type="Float64" Name="Displacement" NumberOfComponents="3" format="ascii">
               0.000651349 0.000530376 -0.000893559  0.000626931 0.000278756 -0.000941055  0.000533895 0.00017702 -0.00089611  0.0004013 0.000110616 -0.000880462  0.000271803 0.000109584 -0.000879661  0.000154928 8.84751e-05 -0.000858118  6.5489e-05 0.000131589 -0.000891374  5.77282e-06 0.000185664 -0.000934422  -1.47152e-05 8.31428e-05 -0.000807602  0.000395725 0.0005061 -0.000940937  0.000400766 0.000285314 -0.000958513  0.000341626 0.000217082 -0.000896236  0.000243092 0.000156692 -0.000881172  0.000131115 0.000156208 -0.000881492  1.76386e-05 0.000128677 -0.000866099  -8.65218e-05 0.000158616 -0.000901605  -0.000145107 0.000187727 -0.000986844  -0.000140949 5.7342e-05 -0.000915906  0.000285009 0.000413738 -0.000895763  0.000322243 0.000228684 -0.000896091  0.000281016 0.000179038 -0.000796907  0.000194719 0.000134708 -0.000767619  9.77414e-05 0.000130755 -0.000770336  2.28873e-06 0.000107653 -0.000764431  -8.13049e-05 0.000124575 -0.000798489  -0.000115241 0.000129127 -0.000903754  -8.54436e-05 -1.29349e-05 -0.000884672  0.000213033 0.000284011 -0.000880259  0.000254677 0.000134675 -0.000881132  0.000229749 9.56774e-05 -0.000767719  0.000161766 6.7769e-05 -0.000725653  7.84458e-05 5.86885e-05 -0.000727543  -4.48292e-06 3.87675e-05 -0.000727811  -7.32632e-05 4.03851e-05 -0.000767522  -9.47119e-05 2.54057e-05 -0.00087155  -5.45121e-05 -0.000110046 -0.0008584  0.000206599 0.000159777 -0.000879438  0.000247457 3.04763e-05 -0.000881427  0.000218172 2.49356e-06 -0.000770415  0.000145626 -1.38517e-05 -0.000727511  6.28605e-05 -2.57556e-05 -0.000731778  -1.87301e-05 -4.51121e-05 -0.00072751  -8.83016e-05 -5.57921e-05 -0.000769001  -0.000111463 -8.79931e-05 -0.000879184  -6.57068e-05 -0.000226426 -0.000871681  0.000174644 5.11452e-05 -0.000857816  0.000208798 -7.39882e-05 -0.000865994  0.000187873 -9.066e-05 -0.000764511  0.000124051 -9.67331e-05 -0.000727787  4.67008e-05 -0.00011206 -0.0007275  -3.04518e-05 -0.00013048 -0.000723993  -9.46741e-05 -0.000153978 -0.000764827  -0.000115572 -0.000201107 -0.000875743  -6.7905e-05 -0.000356931 -0.000868279  0.00021687 -2.72782e-05 -0.000891163  0.000238263 -0.000169427 -0.000901628  0.000205188 -0.000174386 -0.00079867  0.00012648 -0.000166247 -0.000767607  3.84813e-05 -0.000187833 -0.000769115  -5.01187e-05 -0.000201513 -0.000764942  -0.000129793 -0.000241706 -0.00079665  -0.000167079 -0.000300573 -0.000896759  -0.000123981 -0.000499889 -0.0008889  0.000250621 -7.76778e-05 -0.000933998  0.000252048 -0.000223063 -0.000986787  0.000201478 -0.000211286 -0.000903786  0.000111114 -0.000191634 -0.00087146  1.1825e-05 -0.000218695 -0.000879154  -8.83735e-05 -0.000229367 -0.000875724  -0.000178761 -0.000285753 -0.000896631  -0.000232983 -0.00036032 -0.00096121  -0.000224359 -0.000602377 -0.000936368  0.00015267 -9.47356e-05 -0.0008068  0.000131079 -0.000220589 -0.000915686  7.24297e-05 -0.000188617 -0.000884702  -1.0369e-05 -0.000159091 -0.000858357  -0.00011453 -0.000180206 -0.000871731  -0.00023573 -0.000187597 -0.000868305  -0.000372056 -0.000246652 -0.000888701  -0.000471337 -0.000354043 -0.000936383  -0.000497581 -0.000629266 -0.000884375  
            </DataArray>
            <DataArray type="Float64" Name="Velocity" NumberOfComponents="3" format="ascii">
               0.00039495 0.000375235 -0.000982334  0.00037972 0.00022896 -0.00103476  0.000322766 0.000160232 -0.000987665  0.000240251 0.000112106 -0.000973689  0.000157197 0.000100244 -0.000974569  8.24695e-05 8.85111e-05 -0.000950044  2.78559e-05 0.000118988 -0.000984671  -5.09917e-06 0.000154232 -0.00102742  -1.54029e-05 9.21666e-05 -0.000885638  0.000245277 0.000360588 -0.00103557  0.000247628 0.000234224 -0.00105626  0.000210037 0.000187025 -0.000989902  0.000145902 0.00014468 -0.000975414  7.1358e-05 0.000134211 -0.000977363  -4.11663e-06 0.000116943 -0.000959169  -7.15726e-05 0.000137089 -0.000996327  -0.000106662 0.000156409 -0.00108665  -0.000102293 7.60085e-05 -0.00100734  0.000170194 0.000306591 -0.000988247  0.000191728 0.000202396 -0.000989708  0.000165728 0.000167931 -0.000885201  0.0001106 0.000136996 -0.000855625  4.83468e-05 0.000125329 -0.000860425  -1.25059e-05 0.000109157 -0.000852601  -6.45108e-05 0.000119286 -0.000887171  -8.31456e-05 0.000122181 -0.000998775  -6.26601e-05 3.2512e-05 -0.000977137  0.000119069 0.000230376 -0.00097432  0.000144431 0.000147166 -0.000975147  0.000130001 0.000119775 -0.00085553  8.74565e-05 9.9402e-05 -0.000812823  3.39516e-05 8.60556e-05 -0.000816686  -1.82834e-05 6.91103e-05 -0.000815541  -5.89236e-05 6.78267e-05 -0.000856017  -6.74604e-05 5.66429e-05 -0.00096517  -3.97655e-05 -2.79145e-05 -0.000950544  0.00010039 0.000156581 -0.000975195  0.000125864 8.49851e-05 -0.000977106  0.000109648 6.5292e-05 -0.00086039  6.63721e-05 5.13681e-05 -0.000816765  1.72124e-05 3.76955e-05 -0.000822832  -2.96225e-05 1.71247e-05 -0.000816595  -6.75414e-05 7.98007e-06 -0.000858946  -7.49682e-05 -1.71404e-05 -0.000974565  -4.32472e-05 -9.83795e-05 -0.000965879  7.21975e-05 9.4254e-05 -0.000950607  9.24172e-05 2.23656e-05 -0.000958951  8.27295e-05 9.62928e-06 -0.00085265  4.60446e-05 1.72764e-06 -0.000815753  -2.25689e-07 -1.30746e-05 -0.000816716  -4.53873e-05 -3.66937e-05 -0.000810906  -8.08585e-05 -5.34211e-05 -0.000852503  -8.76565e-05 -9.06518e-05 -0.000969108  -5.52982e-05 -0.00017729 -0.000960224  9.72083e-05 5.43343e-05 -0.000985251  0.000107928 -3.38105e-05 -0.00099617  8.95427e-05 -4.10906e-05 -0.000887132  4.23845e-05 -3.83832e-05 -0.000856066  -9.14557e-06 -5.78614e-05 -0.00085898  -5.96571e-05 -8.00182e-05 -0.000852413  -0.000104457 -0.000108083 -0.000884746  -0.000122526 -0.000153384 -0.000990298  -9.44608e-05 -0.000263801 -0.00097953  0.000104752 3.34743e-05 -0.00102755  0.000105574 -6.25222e-05 -0.0010864  7.93168e-05 -6.23976e-05 -0.00099863  2.77344e-05 -5.08763e-05 -0.000964953  -3.02235e-05 -7.4633e-05 -0.000974373  -8.84033e-05 -9.55865e-05 -0.000968828  -0.000139608 -0.00013515 -0.00099006  -0.000168473 -0.000189908 -0.00105897  -0.000161829 -0.000325264 -0.00102926  4.48482e-05 2.76405e-05 -0.000886233  3.33779e-05 -5.98677e-05 -0.00100775  3.03576e-06 -5.00294e-05 -0.000978006  -4.07942e-05 -3.22803e-05 -0.000951419  -9.64231e-05 -5.22425e-05 -0.000966884  -0.000163548 -7.12016e-05 -0.000961141  -0.000241365 -0.000113071 -0.000980412  -0.000298144 -0.000186897 -0.00103042  -0.000313332 -0.000341641 -0.000972178  
            </DataArray>
            <DataArray type="Float64" Name="Traction" NumberOfComponents="3" format="ascii">
               0 0 0  0 0 0  0 0 0  0 0 0  0 0 0  0 0 0  0 0 0  0 0 0  0 0 0  0 0 0  0 0 0  0 0 0  0 0 0  0 0 0  0 0 0  0 0 0  0 0 0  0 0 0  0 0 0  0 0 0  0 0 0  0 0 0  0 0 0  0 0 0  0 0 0  0 0 0  0 0 0  0 0 0  0 0 0  0 0 0  0 0 0  0 0 0  0 0 0  0 0 0  0 0 0  0 0 0  0 0 0  0 0 0  0 0 0  0 0 0  0 0 0  0 0 0  0 0 0  0 0 0  0 0 0  0 0 0  0 0 0  0 0 0  0 0 0  0 0 0  0 0 0  0 0 0  0 0 0  0 0 0  0 0 0  0 0 0  0 0 0  0 0 0  0 0 0  0 0 0  0 0 0  0 0 0  0 0 0  0 0 0  0 0 0  0 0 0  0 0 0  0 0 0  0 0 0  0 0 0  0 0 0  0 0 0  0 0 0  0 0 0  0 0 0  0 0 0  0 0 0  0 0 0  0 0 0  0 0 0  0 0 0  
            </DataArray>
         </PointData> 
      </Piece>
   </UnstructuredGrid> 
</VTKFile>
