<?xml version="1.0"?>
<VTKFile type="UnstructuredGrid" version="0.1" byte_order="LittleEndian">
   <UnstructuredGrid>
      <Piece NumberOfPoints="81" NumberOfCells="0" > 
         <Points> 
            <DataArray type="Float64" Name="Position" NumberOfComponents="3" format="ascii"> 
               0  0  20  
               0.375  0  20  
               0.75  0  20  
               1.125  0  20  
               1.5  0  20  
               1.875  0  20  
               2.25  0  20  
               2.625  0  20  
               3  0  20  
               0  0.375  20  
               0.375  0.375  20  
               0.75  0.375  20  
               1.125  0.375  20  
               1.5  0.375  20  
               1.875  0.375  20  
               2.25  0.375  20  
               2.625  0.375  20  
               3  0.375  20  
               0  0.75  20  
               0.375  0.75  20  
               0.75  0.75  20  
               1.125  0.75  20  
               1.5  0.75  20  
               1.875  0.75  20  
               2.25  0.75  20  
               2.625  0.75  20  
               3  0.75  20  
               0  1.125  20  
               0.375  1.125  20  
               0.75  1.125  20  
               1.125  1.125  20  
               1.5  1.125  20  
               1.875  1.125  20  
               2.25  1.125  20  
               2.625  1.125  20  
               3  1.125  20  
               0  1.5  20  
               0.375  1.5  20  
               0.75  1.5  20  
               1.125  1.5  20  
               1.5  1.5  20  
               1.875  1.5  20  
               2.25  1.5  20  
               2.625  1.5  20  
               3  1.5  20  
               0  1.875  20  
               0.375  1.875  20  
               0.75  1.875  20  
               1.125  1.875  20  
               1.5  1.875  20  
               1.875  1.875  20  
               2.25  1.875  20  
               2.625  1.875  20  
               3  1.875  20  
               0  2.25  20  
               0.375  2.25  20  
               0.75  2.25  20  
               1.125  2.25  20  
               1.5  2.25  20  
               1.875  2.25  20  
               2.25  2.25  20  
               2.625  2.25  20  
               3  2.25  20  
               0  2.625  20  
               0.375  2.625  20  
               0.75  2.625  20  
               1.125  2.625  20  
               1.5  2.625  20  
               1.875  2.625  20  
               2.25  2.625  20  
               2.625  2.625  20  
               3  2.625  20  
               0  3  20  
               0.375  3  20  
               0.75  3  20  
               1.125  3  20  
               1.5  3  20  
               1.875  3  20  
               2.25  3  20  
               2.625  3  20  
               3  3  20  
            </DataArray>
         </Points> 

         <Cells>
            <DataArray type="Int32" Name="connectivity" NumberOfComponents="1" format="ascii">
               
            </DataArray> 
            <DataArray type="Int32" Name="offsets" NumberOfComponents="1" format="ascii">
               
            </DataArray>
            <DataArray type="UInt8"  Name="types" NumberOfComponents="1" format="ascii">
               
            </DataArray>
         </Cells>
         <PointData Scalars="Rank " Vectors="Displacement Velocity Traction ">
            <DataArray type="UInt32" Name="Rank" NumberOfComponents="1" format="ascii">
               0 0 0 0 0 0 0 0 0 0 0 0 0 0 0 0 0 0 0 0 0 0 0 0 0 0 0 0 0 0 0 0 0 0 0 0 0 0 0 0 0 0 0 0 0 0 0 0 0 0 0 0 0 0 0 0 0 0 0 0 0 0 0 0 0 0 0 0 0 0 0 0 0 0 0 0 0 0 0 0 0 
            </DataArray>
            <DataArray type="Float64" Name="Displacement" NumberOfComponents="3" format="ascii">
               0 0 0  0 0 0  0 0 0  0 0 0  0 0 0  0 0 0  0 0 0  0 0 0  0 0 0  0 0 0  0 0 0  0 0 0  0 0 0  0 0 0  0 0 0  0 0 0  0 0 0  0 0 0  0 0 0  0 0 0  0 0 0  0 0 0  0 0 0  0 0 0  0 0 0  0 0 0  0 0 0  0 0 0  0 0 0  0 0 0  0 0 0  0 0 0  0 0 0  0 0 0  0 0 0  0 0 0  0 0 0  0 0 0  0 0 0  0 0 0  0 0 0  0 0 0  0 0 0  0 0 0  0 0 0  0 0 0  0 0 0  0 0 0  0 0 0  0 0 0  0 0 0  0 0 0  0 0 0  0 0 0  0 0 0  0 0 0  0 0 0  0 0 0  0 0 0  0 0 0  0 0 0  0 0 0  0 0 0  0 0 0  0 0 0  0 0 0  0 0 0  0 0 0  0 0 0  0 0 0  0 0 0  0 0 0  0 0 0  0 0 0  0 0 0  0 0 0  0 0 0  0 0 0  0 0 0  0 0 0  0 0 0  
            </DataArray>
            <DataArray type="Float64" Name="Velocity" NumberOfComponents="3" format="ascii">
               0 0 0  0 0 0  0 0 0  0 0 0  0 0 0  0 0 0  0 0 0  0 0 0  0 0 0  0 0 0  0 0 0  0 0 0  0 0 0  0 0 0  0 0 0  0 0 0  0 0 0  0 0 0  0 0 0  0 0 0  0 0 0  0 0 0  0 0 0  0 0 0  0 0 0  0 0 0  0 0 0  0 0 0  0 0 0  0 0 0  0 0 0  0 0 0  0 0 0  0 0 0  0 0 0  0 0 0  0 0 0  0 0 0  0 0 0  0 0 0  0 0 0  0 0 0  0 0 0  0 0 0  0 0 0  0 0 0  0 0 0  0 0 0  0 0 0  0 0 0  0 0 0  0 0 0  0 0 0  0 0 0  0 0 0  0 0 0  0 0 0  0 0 0  0 0 0  0 0 0  0 0 0  0 0 0  0 0 0  0 0 0  0 0 0  0 0 0  0 0 0  0 0 0  0 0 0  0 0 0  0 0 0  0 0 0  0 0 0  0 0 0  0 0 0  0 0 0  0 0 0  0 0 0  0 0 0  0 0 0  0 0 0  
            </DataArray>
            <DataArray type="Float64" Name="Traction" NumberOfComponents="3" format="ascii">
               -6.05163e-07 -6.01167e-07 3.36195e-05  -1.56567e-07 -1.07477e-06 3.36195e-05  -3.31201e-08 -1.40982e-06 3.36195e-05  3.62681e-08 -1.44668e-06 3.36195e-05  -2.56648e-08 -1.38815e-06 3.36195e-05  -6.64521e-09 -1.44835e-06 3.36195e-05  2.68281e-07 -1.41068e-06 3.36195e-05  2.77613e-07 -9.28199e-07 3.36195e-05  6.53587e-07 -7.13994e-07 3.36195e-05  -1.08091e-06 -1.52931e-07 3.36195e-05  -4.81153e-07 -4.75081e-07 3.36195e-05  -1.49561e-07 -6.87706e-07 3.36195e-05  -8.95968e-11 -7.30815e-07 3.36195e-05  -7.16939e-08 -7.19046e-07 3.36195e-05  -2.40051e-08 -7.2389e-07 3.36195e-05  3.96723e-07 -7.38247e-07 3.36195e-05  4.39412e-07 -4.36712e-07 3.36195e-05  9.26764e-07 -3.2045e-07 3.36195e-05  -1.41691e-06 -2.98624e-08 3.36195e-05  -6.94147e-07 -1.42952e-07 3.36195e-05  -2.37275e-07 -2.29997e-07 3.36195e-05  1.88682e-08 -2.74291e-07 3.36195e-05  -6.51482e-08 -2.63931e-07 3.36195e-05  -1.75017e-08 -2.68941e-07 3.36195e-05  6.05322e-07 -2.64085e-07 3.36195e-05  7.11643e-07 -1.62169e-07 3.36195e-05  1.38062e-06 -1.52679e-07 3.36195e-05  -1.45526e-06 3.90239e-08 3.36195e-05  -7.38858e-07 6.04816e-09 3.36195e-05  -2.81965e-07 2.58505e-08 3.36195e-05  -1.76681e-08 -1.18843e-08 3.36195e-05  -8.747e-08 9.02135e-09 3.36195e-05  6.55163e-09 -1.12333e-08 3.36195e-05  6.03927e-07 2.81151e-08 3.36195e-05  7.23836e-07 1.10664e-08 3.36195e-05  1.44856e-06 5.38052e-08 3.36195e-05  -1.39218e-06 -2.25145e-08 3.36195e-05  -7.22442e-07 -6.50592e-08 3.36195e-05  -2.68649e-07 -5.84731e-08 3.36195e-05  3.63691e-09 -8.28853e-08 3.36195e-05  -8.80733e-08 -8.31591e-08 3.36195e-05  -1.13564e-08 -8.31722e-08 3.36195e-05  5.75669e-07 -9.21808e-08 3.36195e-05  6.97743e-07 -6.31905e-08 3.36195e-05  1.37218e-06 -1.06303e-07 3.36195e-05  -1.45611e-06 -3.13285e-09 3.36195e-05  -7.30873e-07 -1.7515e-08 3.36195e-05  -2.74987e-07 -1.16693e-08 3.36195e-05  -1.65306e-08 1.02765e-08 3.36195e-05  -8.76793e-08 -8.00782e-09 3.36195e-05  1.06633e-08 1.38416e-08 3.36195e-05  6.12967e-07 -4.04593e-08 3.36195e-05  7.28673e-07 1.00086e-09 3.36195e-05  1.44545e-06 -9.16476e-08 3.36195e-05  -1.41618e-06 2.72608e-07 3.36195e-05  -7.42279e-07 4.00168e-07 3.36195e-05  -2.67685e-07 6.07506e-07 3.36195e-05  2.33156e-08 6.07083e-07 3.36195e-05  -9.66863e-08 5.76868e-07 3.36195e-05  -4.40522e-08 6.16198e-07 3.36195e-05  5.56476e-07 5.59484e-07 3.36195e-05  6.8231e-07 3.51482e-07 3.36195e-05  1.40187e-06 1.54185e-07 3.36195e-05  -9.35454e-07 2.84803e-07 3.36195e-05  -4.42001e-07 4.43611e-07 3.36195e-05  -1.67418e-07 7.12997e-07 3.36195e-05  4.65133e-09 7.26636e-07 3.36195e-05  -6.87568e-08 6.96815e-07 3.36195e-05  -3.19147e-09 7.30963e-07 3.36195e-05  3.4824e-07 6.84365e-07 3.36195e-05  4.62981e-07 4.65772e-07 3.36195e-05  1.05998e-06 1.55085e-07 3.36195e-05  -7.24352e-07 6.62082e-07 3.36195e-05  -3.29082e-07 9.33163e-07 3.36195e-05  -1.59356e-07 1.38281e-06 3.36195e-05  4.89996e-08 1.45072e-06 3.36195e-05  -1.10171e-07 1.37097e-06 3.36195e-05  -9.50802e-08 1.447e-06 3.36195e-05  1.51024e-07 1.4037e-06 3.36195e-05  1.51619e-07 1.06277e-06 3.36195e-05  5.92258e-07 5.95807e-07 3.36195e-05  
            </DataArray>
         </PointData> 
      </Piece>
   </UnstructuredGrid> 
</VTKFile>
