<?xml version="1.0"?>
<VTKFile type="UnstructuredGrid" version="0.1" byte_order="LittleEndian">
   <UnstructuredGrid>
      <Piece NumberOfPoints="81" NumberOfCells="0" > 
         <Points> 
            <DataArray type="Float64" Name="Position" NumberOfComponents="3" format="ascii"> 
               0  0  15  
               0.375  0  15  
               0.75  0  15  
               1.125  0  15  
               1.5  0  15  
               1.875  0  15  
               2.25  0  15  
               2.625  0  15  
               3  0  15  
               0  0.375  15  
               0.375  0.375  15  
               0.75  0.375  15  
               1.125  0.375  15  
               1.5  0.375  15  
               1.875  0.375  15  
               2.25  0.375  15  
               2.625  0.375  15  
               3  0.375  15  
               0  0.75  15  
               0.375  0.75  15  
               0.75  0.75  15  
               1.125  0.75  15  
               1.5  0.75  15  
               1.875  0.75  15  
               2.25  0.75  15  
               2.625  0.75  15  
               3  0.75  15  
               0  1.125  15  
               0.375  1.125  15  
               0.75  1.125  15  
               1.125  1.125  15  
               1.5  1.125  15  
               1.875  1.125  15  
               2.25  1.125  15  
               2.625  1.125  15  
               3  1.125  15  
               0  1.5  15  
               0.375  1.5  15  
               0.75  1.5  15  
               1.125  1.5  15  
               1.5  1.5  15  
               1.875  1.5  15  
               2.25  1.5  15  
               2.625  1.5  15  
               3  1.5  15  
               0  1.875  15  
               0.375  1.875  15  
               0.75  1.875  15  
               1.125  1.875  15  
               1.5  1.875  15  
               1.875  1.875  15  
               2.25  1.875  15  
               2.625  1.875  15  
               3  1.875  15  
               0  2.25  15  
               0.375  2.25  15  
               0.75  2.25  15  
               1.125  2.25  15  
               1.5  2.25  15  
               1.875  2.25  15  
               2.25  2.25  15  
               2.625  2.25  15  
               3  2.25  15  
               0  2.625  15  
               0.375  2.625  15  
               0.75  2.625  15  
               1.125  2.625  15  
               1.5  2.625  15  
               1.875  2.625  15  
               2.25  2.625  15  
               2.625  2.625  15  
               3  2.625  15  
               0  3  15  
               0.375  3  15  
               0.75  3  15  
               1.125  3  15  
               1.5  3  15  
               1.875  3  15  
               2.25  3  15  
               2.625  3  15  
               3  3  15  
            </DataArray>
         </Points> 

         <Cells>
            <DataArray type="Int32" Name="connectivity" NumberOfComponents="1" format="ascii">
               
            </DataArray> 
            <DataArray type="Int32" Name="offsets" NumberOfComponents="1" format="ascii">
               
            </DataArray>
            <DataArray type="UInt8"  Name="types" NumberOfComponents="1" format="ascii">
               
            </DataArray>
         </Cells>
         <PointData Scalars="Rank " Vectors="Displacement Velocity Traction ">
            <DataArray type="UInt32" Name="Rank" NumberOfComponents="1" format="ascii">
               0 0 0 0 0 0 0 0 0 0 0 0 0 0 0 0 0 0 0 0 0 0 0 0 0 0 0 0 0 0 0 0 0 0 0 0 0 0 0 0 0 0 0 0 0 0 0 0 0 0 0 0 0 0 0 0 0 0 0 0 0 0 0 0 0 0 0 0 0 0 0 0 0 0 0 0 0 0 0 0 0 
            </DataArray>
            <DataArray type="Float64" Name="Displacement" NumberOfComponents="3" format="ascii">
               0.000683291 0.000560779 -0.000976343  0.000657644 0.000297362 -0.0010282  0.000560009 0.000190056 -0.000979271  0.000420751 0.000119739 -0.000962449  0.000284545 0.000117743 -0.000961728  0.000161639 9.56718e-05 -0.000938127  6.78209e-05 0.00014128 -0.000974283  5.49118e-06 0.000198158 -0.00102094  -1.58042e-05 9.05981e-05 -0.000882282  0.00041559 0.000535321 -0.00102815  0.000420825 0.000304346 -0.00104737  0.000358653 0.000232283 -0.000979446  0.000254937 0.000168456 -0.000963166  0.00013693 0.000167121 -0.000963654  1.73443e-05 0.000138177 -0.000946731  -9.22718e-05 0.000169762 -0.000985354  -0.000153676 0.000200395 -0.00107825  -0.000149153 6.34957e-05 -0.00100075  0.000298786 0.000438597 -0.000978982  0.000337767 0.000245141 -0.000979288  0.000294449 0.000192694 -0.000871214  0.000203697 0.000145862 -0.000839442  0.000101688 0.00014096 -0.000842561  1.31467e-06 0.00011654 -0.000836001  -8.64884e-05 0.000134287 -0.00087296  -0.000121922 0.000139041 -0.00098771  -9.04656e-05 -1.0283e-05 -0.000966958  0.00022265 0.000302707 -0.000962304  0.000266363 0.000146654 -0.000963104  0.000240292 0.000105429 -0.000839532  0.000168878 7.58827e-05 -0.000793878  8.12293e-05 6.57192e-05 -0.000796092  -5.92518e-06 4.442e-05 -0.000796264  -7.79821e-05 4.59252e-05 -0.000839375  -0.000100101 3.00197e-05 -0.000952683  -5.76559e-05 -0.000112263 -0.000938454  0.000214709 0.000172497 -0.000961562  0.000257649 3.74029e-05 -0.000963567  0.000227074 7.82689e-06 -0.000842635  0.000151036 -9.63144e-06 -0.000796068  6.42973e-05 -2.26318e-05 -0.000800838  -2.10799e-05 -4.36697e-05 -0.000796051  -9.37161e-05 -5.50956e-05 -0.000841102  -0.000117466 -8.93559e-05 -0.000961107  -6.91387e-05 -0.000234319 -0.000953019  0.000180502 5.88159e-05 -0.000937879  0.00021631 -7.21551e-05 -0.000946608  0.00019462 -8.98357e-05 -0.000836082  0.000127827 -9.65303e-05 -0.000796259  4.67148e-05 -0.00011303 -0.000796053  -3.41111e-05 -0.000133391 -0.000792057  -0.000101209 -0.000158244 -0.000836387  -0.000122649 -0.000208421 -0.000957205  -7.23581e-05 -0.000371192 -0.00094914  0.000224804 -2.28258e-05 -0.000974124  0.000247069 -0.000172159 -0.000985363  0.000212512 -0.000177667 -0.000873133  0.000129972 -0.000169275 -0.000839462  3.77837e-05 -0.000192406 -0.000841217  -5.49239e-05 -0.000207913 -0.000836491  -0.00013824 -0.000250388 -0.000870915  -0.000176992 -0.00031296 -0.000980001  -0.000131623 -0.000521144 -0.00097138  0.000259182 -7.48843e-05 -0.00102054  0.000260675 -0.00022811 -0.00107817  0.00020798 -0.000216275 -0.000987728  0.000113417 -0.000195643 -0.000952576  9.40012e-06 -0.000224591 -0.000961062  -9.55401e-05 -0.000236997 -0.000957163  -0.00019009 -0.00029661 -0.000979856  -0.000246653 -0.000375654 -0.00105029  -0.00023749 -0.000628603 -0.00102305  0.000156361 -9.23969e-05 -0.000881552  0.000133838 -0.000225405 -0.00100057  7.27239e-05 -0.000192586 -0.000967065  -1.36327e-05 -0.000161571 -0.000938491  -0.000122295 -0.000184268 -0.000953158  -0.000248927 -0.000193232 -0.000949248  -0.000391557 -0.000255711 -0.000971265  -0.000495436 -0.000369129 -0.00102317  -0.000522907 -0.000656817 -0.000966311  
            </DataArray>
            <DataArray type="Float64" Name="Velocity" NumberOfComponents="3" format="ascii">
               0.000402563 0.000383666 -0.00107605  0.000387078 0.000235316 -0.00113228  0.000329217 0.000165007 -0.00108045  0.000245383 0.000115486 -0.00106519  0.000160877 0.000103293 -0.00106624  8.50128e-05 9.10479e-05 -0.0010396  3.021e-05 0.000122787 -0.00107715  -2.20936e-06 0.000157643 -0.0011242  -1.2131e-05 9.39588e-05 -0.000971082  0.000250635 0.000368794 -0.00113327  0.000253141 0.000240725 -0.00115389  0.00021501 0.000192294 -0.00108029  0.000149741 0.000148859 -0.00106447  7.37521e-05 0.0001381 -0.00106664  -3.31053e-06 0.000120134 -0.0010468  -7.20639e-05 0.000141055 -0.00108727  -0.000107409 0.000159818 -0.00118689  -0.000102711 7.75983e-05 -0.00110241  0.000173738 0.000313873 -0.00108127  0.000195835 0.000208269 -0.00108013  0.000169601 0.000172803 -0.000964202  0.000113514 0.000141275 -0.000931938  5.01313e-05 0.00012926 -0.000937084  -1.18865e-05 0.000112558 -0.00092864  -6.49716e-05 0.000123029 -0.00096633  -8.37677e-05 0.000125262 -0.00108993  -6.2811e-05 3.36156e-05 -0.00106919  0.00012107 0.000236235 -0.00106597  0.000147354 0.000151707 -0.00106417  0.000133182 0.000123491 -0.000931771  9.00272e-05 0.000102954 -0.000885163  3.54742e-05 8.92856e-05 -0.000889329  -1.7797e-05 7.1841e-05 -0.000888134  -5.89901e-05 7.03499e-05 -0.000932289  -6.72488e-05 5.846e-05 -0.00105328  -3.88798e-05 -2.7557e-05 -0.00104023  0.000102131 0.00016083 -0.00106702  0.000128592 8.77994e-05 -0.00106636  0.000112568 6.77033e-05 -0.000936994  6.864e-05 5.37964e-05 -0.000889435  1.85897e-05 4.00857e-05 -0.000895852  -2.91226e-05 1.87198e-05 -0.000889218  -6.77224e-05 9.26844e-06 -0.000935483  -7.5013e-05 -1.6976e-05 -0.00106351  -4.25486e-05 -9.88599e-05 -0.00105681  7.4054e-05 9.71172e-05 -0.00104036  9.50832e-05 2.33027e-05 -0.0010466  8.56252e-05 1.07983e-05 -0.000928654  4.81426e-05 3.13181e-06 -0.000888393  5.35367e-07 -1.13878e-05 -0.000889365  -4.59657e-05 -3.6143e-05 -0.000883078  -8.22819e-05 -5.32465e-05 -0.000928499  -8.9034e-05 -9.20335e-05 -0.00105754  -5.58894e-05 -0.00017896 -0.00105063  0.000100752 5.66713e-05 -0.00107788  0.000111787 -3.44306e-05 -0.00108707  9.31719e-05 -4.09768e-05 -0.00096619  4.46814e-05 -3.74668e-05 -0.000932304  -8.33161e-06 -5.65979e-05 -0.000935467  -6.03165e-05 -7.99812e-05 -0.000928336  -0.000106398 -0.00010884 -0.000963625  -0.000124926 -0.000155955 -0.00108068  -9.62818e-05 -0.000267062 -0.00107163  0.000108812 3.60524e-05 -0.00112453  0.000109646 -6.35246e-05 -0.00118663  8.28449e-05 -6.2345e-05 -0.00108974  2.96477e-05 -4.95199e-05 -0.00105308  -3.03445e-05 -7.29319e-05 -0.00106331  -9.04548e-05 -9.51763e-05 -0.00105723  -0.000143146 -0.000136103 -0.00108048  -0.0001727 -0.000193044 -0.00115682  -0.000165874 -0.000329707 -0.00112631  4.72101e-05 3.0489e-05 -0.00097222  3.54042e-05 -6.04639e-05 -0.00110306  4.22535e-06 -4.92735e-05 -0.00107022  -4.07439e-05 -3.00096e-05 -0.00104131  -9.74961e-05 -4.95655e-05 -0.001058  -0.00016599 -6.97879e-05 -0.00105174  -0.000245522 -0.000113311 -0.00107282  -0.000303509 -0.000189833 -0.0011277  -0.000318986 -0.000346417 -0.00106509  
            </DataArray>
            <DataArray type="Float64" Name="Traction" NumberOfComponents="3" format="ascii">
               0.0157333 0.0154884 -0.0315585  0.00832256 0.0181865 -0.0315585  0.00362636 0.0192873 -0.0315585  0.00117017 0.0201578 -0.0315585  -0.00150771 0.0203497 -0.0315585  -0.00336393 0.0205496 -0.0315585  -0.0053412 0.0201169 -0.0315585  -0.01207 0.0198733 -0.0315585  -0.0214922 0.0212192 -0.0315585  0.0184867 0.00797986 -0.0315585  0.0102239 0.00994657 -0.0315585  0.00556629 0.0100312 -0.0315585  0.00267564 0.0103726 -0.0315585  -0.000144905 0.0102793 -0.0315585  -0.00209466 0.0105267 -0.0315585  -0.00362652 0.010195 -0.0315585  -0.0101288 0.0102 -0.0315585  -0.0199967 0.0121225 -0.0315585  0.0195801 0.00303168 -0.0315585  0.0101836 0.00517447 -0.0315585  0.00555044 0.00529234 -0.0315585  0.00281171 0.00534117 -0.0315585  5.7562e-05 0.00517436 -0.0315585  -0.00220112 0.00540539 -0.0315585  -0.00389408 0.00524355 -0.0315585  -0.0101962 0.00496725 -0.0315585  -0.0201966 0.00634766 -0.0315585  0.0201026 0.000427194 -0.0315585  0.0102692 0.00220328 -0.0315585  0.00543185 0.00247438 -0.0315585  0.00271131 0.0024683 -0.0315585  8.21791e-05 0.00234122 -0.0315585  -0.00220859 0.0024307 -0.0315585  -0.00411735 0.00235799 -0.0315585  -0.0104115 0.00228464 -0.0315585  -0.02054 0.00357388 -0.0315585  0.0200055 -0.00194721 -0.0315585  0.00988155 -0.000442989 -0.0315585  0.00506256 -0.000101121 -0.0315585  0.00249916 -0.000134835 -0.0315585  -6.16595e-05 -0.000359837 -0.0315585  -0.00216282 -0.00030134 -0.0315585  -0.00394244 -0.000279786 -0.0315585  -0.0102137 -0.000143067 -0.0315585  -0.0204663 0.00113105 -0.0315585  0.0203378 -0.00344003 -0.0315585  0.00984922 -0.00197622 -0.0315585  0.00502062 -0.00196782 -0.0315585  0.00235027 -0.00220112 -0.0315585  -8.17966e-05 -0.00239746 -0.0315585  -0.00209251 -0.00240999 -0.0315585  -0.00385111 -0.00237954 -0.0315585  -0.0101175 -0.00221142 -0.0315585  -0.0204415 -0.000811014 -0.0315585  0.0195015 -0.00495989 -0.0315585  0.00900869 -0.00301007 -0.0315585  0.004491 -0.00324974 -0.0315585  0.00205287 -0.003848 -0.0315585  -0.000110905 -0.00395017 -0.0315585  -0.0019576 -0.0040561 -0.0315585  -0.00362399 -0.00399796 -0.0315585  -0.00959187 -0.00415717 -0.0315585  -0.0196567 -0.00239104 -0.0315585  0.0198119 -0.0106947 -0.0315585  0.00889795 -0.00892393 -0.0315585  0.00425859 -0.00912067 -0.0315585  0.00210527 -0.00986513 -0.0315585  0.000162663 -0.0099625 -0.0315585  -0.00166384 -0.010147 -0.0315585  -0.00366359 -0.00986521 -0.0315585  -0.00936371 -0.00974043 -0.0315585  -0.0188261 -0.00756031 -0.0315585  0.0218809 -0.0222611 -0.0315585  0.0106481 -0.0200082 -0.0315585  0.00587165 -0.0196642 -0.0315585  0.00355871 -0.0203044 -0.0315585  0.00157422 -0.020021 -0.0315585  2.39603e-05 -0.0204014 -0.0315585  -0.00170891 -0.0200504 -0.0315585  -0.0071311 -0.0192076 -0.0315585  -0.0163112 -0.0166576 -0.0315585  
            </DataArray>
         </PointData> 
      </Piece>
   </UnstructuredGrid> 
</VTKFile>
