<?xml version="1.0"?>
<VTKFile type="UnstructuredGrid" version="0.1" byte_order="LittleEndian">
   <UnstructuredGrid>
      <Piece NumberOfPoints="81" NumberOfCells="0" > 
         <Points> 
            <DataArray type="Float64" Name="Position" NumberOfComponents="3" format="ascii"> 
               0  0  20  
               0.375  0  20  
               0.75  0  20  
               1.125  0  20  
               1.5  0  20  
               1.875  0  20  
               2.25  0  20  
               2.625  0  20  
               3  0  20  
               0  0.375  20  
               0.375  0.375  20  
               0.75  0.375  20  
               1.125  0.375  20  
               1.5  0.375  20  
               1.875  0.375  20  
               2.25  0.375  20  
               2.625  0.375  20  
               3  0.375  20  
               0  0.75  20  
               0.375  0.75  20  
               0.75  0.75  20  
               1.125  0.75  20  
               1.5  0.75  20  
               1.875  0.75  20  
               2.25  0.75  20  
               2.625  0.75  20  
               3  0.75  20  
               0  1.125  20  
               0.375  1.125  20  
               0.75  1.125  20  
               1.125  1.125  20  
               1.5  1.125  20  
               1.875  1.125  20  
               2.25  1.125  20  
               2.625  1.125  20  
               3  1.125  20  
               0  1.5  20  
               0.375  1.5  20  
               0.75  1.5  20  
               1.125  1.5  20  
               1.5  1.5  20  
               1.875  1.5  20  
               2.25  1.5  20  
               2.625  1.5  20  
               3  1.5  20  
               0  1.875  20  
               0.375  1.875  20  
               0.75  1.875  20  
               1.125  1.875  20  
               1.5  1.875  20  
               1.875  1.875  20  
               2.25  1.875  20  
               2.625  1.875  20  
               3  1.875  20  
               0  2.25  20  
               0.375  2.25  20  
               0.75  2.25  20  
               1.125  2.25  20  
               1.5  2.25  20  
               1.875  2.25  20  
               2.25  2.25  20  
               2.625  2.25  20  
               3  2.25  20  
               0  2.625  20  
               0.375  2.625  20  
               0.75  2.625  20  
               1.125  2.625  20  
               1.5  2.625  20  
               1.875  2.625  20  
               2.25  2.625  20  
               2.625  2.625  20  
               3  2.625  20  
               0  3  20  
               0.375  3  20  
               0.75  3  20  
               1.125  3  20  
               1.5  3  20  
               1.875  3  20  
               2.25  3  20  
               2.625  3  20  
               3  3  20  
            </DataArray>
         </Points> 

         <Cells>
            <DataArray type="Int32" Name="connectivity" NumberOfComponents="1" format="ascii">
               
            </DataArray> 
            <DataArray type="Int32" Name="offsets" NumberOfComponents="1" format="ascii">
               
            </DataArray>
            <DataArray type="UInt8"  Name="types" NumberOfComponents="1" format="ascii">
               
            </DataArray>
         </Cells>
         <PointData Scalars="Rank " Vectors="Displacement Velocity Traction ">
            <DataArray type="UInt32" Name="Rank" NumberOfComponents="1" format="ascii">
               0 0 0 0 0 0 0 0 0 0 0 0 0 0 0 0 0 0 0 0 0 0 0 0 0 0 0 0 0 0 0 0 0 0 0 0 0 0 0 0 0 0 0 0 0 0 0 0 0 0 0 0 0 0 0 0 0 0 0 0 0 0 0 0 0 0 0 0 0 0 0 0 0 0 0 0 0 0 0 0 0 
            </DataArray>
            <DataArray type="Float64" Name="Displacement" NumberOfComponents="3" format="ascii">
               0 0 0  0 0 0  0 0 0  0 0 0  0 0 0  0 0 0  0 0 0  0 0 0  0 0 0  0 0 0  0 0 0  0 0 0  0 0 0  0 0 0  0 0 0  0 0 0  0 0 0  0 0 0  0 0 0  0 0 0  0 0 0  0 0 0  0 0 0  0 0 0  0 0 0  0 0 0  0 0 0  0 0 0  0 0 0  0 0 0  0 0 0  0 0 0  0 0 0  0 0 0  0 0 0  0 0 0  0 0 0  0 0 0  0 0 0  0 0 0  0 0 0  0 0 0  0 0 0  0 0 0  0 0 0  0 0 0  0 0 0  0 0 0  0 0 0  0 0 0  0 0 0  0 0 0  0 0 0  0 0 0  0 0 0  0 0 0  0 0 0  0 0 0  0 0 0  0 0 0  0 0 0  0 0 0  0 0 0  0 0 0  0 0 0  0 0 0  0 0 0  0 0 0  0 0 0  0 0 0  0 0 0  0 0 0  0 0 0  0 0 0  0 0 0  0 0 0  0 0 0  0 0 0  0 0 0  0 0 0  0 0 0  
            </DataArray>
            <DataArray type="Float64" Name="Velocity" NumberOfComponents="3" format="ascii">
               0 0 0  0 0 0  0 0 0  0 0 0  0 0 0  0 0 0  0 0 0  0 0 0  0 0 0  0 0 0  0 0 0  0 0 0  0 0 0  0 0 0  0 0 0  0 0 0  0 0 0  0 0 0  0 0 0  0 0 0  0 0 0  0 0 0  0 0 0  0 0 0  0 0 0  0 0 0  0 0 0  0 0 0  0 0 0  0 0 0  0 0 0  0 0 0  0 0 0  0 0 0  0 0 0  0 0 0  0 0 0  0 0 0  0 0 0  0 0 0  0 0 0  0 0 0  0 0 0  0 0 0  0 0 0  0 0 0  0 0 0  0 0 0  0 0 0  0 0 0  0 0 0  0 0 0  0 0 0  0 0 0  0 0 0  0 0 0  0 0 0  0 0 0  0 0 0  0 0 0  0 0 0  0 0 0  0 0 0  0 0 0  0 0 0  0 0 0  0 0 0  0 0 0  0 0 0  0 0 0  0 0 0  0 0 0  0 0 0  0 0 0  0 0 0  0 0 0  0 0 0  0 0 0  0 0 0  0 0 0  0 0 0  
            </DataArray>
            <DataArray type="Float64" Name="Traction" NumberOfComponents="3" format="ascii">
               -0.00104465 -0.00104737 -0.0100286  -0.000937229 -0.00186788 -0.0100286  -0.000618613 -0.00250299 -0.0100286  -6.01522e-05 -0.00241632 -0.0100286  -0.000205526 -0.00240527 -0.0100286  0.000670223 -0.00249057 -0.0100286  0.00214678 -0.00217636 -0.0100286  0.000266313 -0.000770721 -0.0100286  -0.000848635 -0.000336172 -0.0100286  -0.00185929 -0.000938587 -0.0100286  -0.00139146 -0.00139619 -0.0100286  -0.000809653 -0.00194467 -0.0100286  -0.000259375 -0.00203776 -0.0100286  -0.000391057 -0.00212293 -0.0100286  0.000306086 -0.00195303 -0.0100286  0.00235786 -0.00202496 -0.0100286  0.00123473 -0.00131734 -0.0100286  0.00046114 -0.00087158 -0.0100286  -0.00249371 -0.00061835 -0.0100286  -0.00193963 -0.00080954 -0.0100286  -0.00119648 -0.00119642 -0.0100286  -0.000221936 -0.00148904 -0.0100286  -0.000211954 -0.00153198 -0.0100286  0.000268079 -0.0014148 -0.0100286  0.00246212 -0.00145797 -0.0100286  0.00198092 -0.00132714 -0.0100286  0.00202331 -0.00140727 -0.0100286  -0.00240708 -6.47234e-05 -0.0100286  -0.00203298 -0.000262419 -0.0100286  -0.00148922 -0.000225033 -0.0100286  -0.000439056 -0.000442135 -0.0100286  -0.000139566 -0.000384444 -0.0100286  0.000440425 -0.000448951 -0.0100286  0.00228189 -0.000354965 -0.0100286  0.00190585 -0.000356994 -0.0100286  0.0023479 -0.000408127 -0.0100286  -0.0023966 -0.000212345 -0.0100286  -0.00211833 -0.000397225 -0.0100286  -0.00153242 -0.000217662 -0.0100286  -0.000381289 -0.000145297 -0.0100286  -0.000248804 -0.000254752 -0.0100286  0.00031806 -0.000241004 -0.0100286  0.00230848 -0.000256953 -0.0100286  0.00196359 -0.000147361 -0.0100286  0.00215311 -0.000410678 -0.0100286  -0.00248238 0.00066674 -0.0100286  -0.00194809 0.000301855 -0.0100286  -0.0014151 0.00026412 -0.0100286  -0.00044599 0.000436527 -0.0100286  -0.000234987 0.000314299 -0.0100286  0.000408543 0.0004044 -0.0100286  0.00235234 0.000168491 -0.0100286  0.00196704 0.000271137 -0.0100286  0.00232612 -0.000217323 -0.0100286  -0.00216654 0.0021435 -0.0100286  -0.00201982 0.00235489 -0.0100286  -0.00145824 0.00245792 -0.0100286  -0.00035192 0.00227718 -0.0100286  -0.000251206 0.00230437 -0.0100286  0.000172465 0.00234795 -0.0100286  0.0020635 0.00205962 -0.0100286  0.00185935 0.00155698 -0.0100286  0.0023385 0.00124251 -0.0100286  -0.000758357 0.000256536 -0.0100286  -0.00131152 0.00122749 -0.0100286  -0.00132716 0.00197377 -0.0100286  -0.000353265 0.00189874 -0.0100286  -0.000141298 0.00195689 -0.0100286  0.000275281 0.00195977 -0.0100286  0.00155993 0.00185045 -0.0100286  0.00135101 0.00134387 -0.0100286  0.00170644 0.000993248 -0.0100286  -0.000319813 -0.000863604 -0.0100286  -0.00086183 0.000449169 -0.0100286  -0.00140599 0.0020135 -0.0100286  -0.000405066 0.00233934 -0.0100286  -0.000404571 0.00214423 -0.0100286  -0.000212866 0.00231646 -0.0100286  0.00124619 0.00232579 -0.0100286  0.000995418 0.00169453 -0.0100286  0.00101635 0.00101289 -0.0100286  
            </DataArray>
         </PointData> 
      </Piece>
   </UnstructuredGrid> 
</VTKFile>
