<?xml version="1.0"?>
<VTKFile type="UnstructuredGrid" version="0.1" byte_order="LittleEndian">
   <UnstructuredGrid>
      <Piece NumberOfPoints="81" NumberOfCells="0" > 
         <Points> 
            <DataArray type="Float64" Name="Position" NumberOfComponents="3" format="ascii"> 
               0  0  20  
               0.375  0  20  
               0.75  0  20  
               1.125  0  20  
               1.5  0  20  
               1.875  0  20  
               2.25  0  20  
               2.625  0  20  
               3  0  20  
               0  0.375  20  
               0.375  0.375  20  
               0.75  0.375  20  
               1.125  0.375  20  
               1.5  0.375  20  
               1.875  0.375  20  
               2.25  0.375  20  
               2.625  0.375  20  
               3  0.375  20  
               0  0.75  20  
               0.375  0.75  20  
               0.75  0.75  20  
               1.125  0.75  20  
               1.5  0.75  20  
               1.875  0.75  20  
               2.25  0.75  20  
               2.625  0.75  20  
               3  0.75  20  
               0  1.125  20  
               0.375  1.125  20  
               0.75  1.125  20  
               1.125  1.125  20  
               1.5  1.125  20  
               1.875  1.125  20  
               2.25  1.125  20  
               2.625  1.125  20  
               3  1.125  20  
               0  1.5  20  
               0.375  1.5  20  
               0.75  1.5  20  
               1.125  1.5  20  
               1.5  1.5  20  
               1.875  1.5  20  
               2.25  1.5  20  
               2.625  1.5  20  
               3  1.5  20  
               0  1.875  20  
               0.375  1.875  20  
               0.75  1.875  20  
               1.125  1.875  20  
               1.5  1.875  20  
               1.875  1.875  20  
               2.25  1.875  20  
               2.625  1.875  20  
               3  1.875  20  
               0  2.25  20  
               0.375  2.25  20  
               0.75  2.25  20  
               1.125  2.25  20  
               1.5  2.25  20  
               1.875  2.25  20  
               2.25  2.25  20  
               2.625  2.25  20  
               3  2.25  20  
               0  2.625  20  
               0.375  2.625  20  
               0.75  2.625  20  
               1.125  2.625  20  
               1.5  2.625  20  
               1.875  2.625  20  
               2.25  2.625  20  
               2.625  2.625  20  
               3  2.625  20  
               0  3  20  
               0.375  3  20  
               0.75  3  20  
               1.125  3  20  
               1.5  3  20  
               1.875  3  20  
               2.25  3  20  
               2.625  3  20  
               3  3  20  
            </DataArray>
         </Points> 

         <Cells>
            <DataArray type="Int32" Name="connectivity" NumberOfComponents="1" format="ascii">
               
            </DataArray> 
            <DataArray type="Int32" Name="offsets" NumberOfComponents="1" format="ascii">
               
            </DataArray>
            <DataArray type="UInt8"  Name="types" NumberOfComponents="1" format="ascii">
               
            </DataArray>
         </Cells>
         <PointData Scalars="Rank " Vectors="Displacement Velocity Traction ">
            <DataArray type="UInt32" Name="Rank" NumberOfComponents="1" format="ascii">
               0 0 0 0 0 0 0 0 0 0 0 0 0 0 0 0 0 0 0 0 0 0 0 0 0 0 0 0 0 0 0 0 0 0 0 0 0 0 0 0 0 0 0 0 0 0 0 0 0 0 0 0 0 0 0 0 0 0 0 0 0 0 0 0 0 0 0 0 0 0 0 0 0 0 0 0 0 0 0 0 0 
            </DataArray>
            <DataArray type="Float64" Name="Displacement" NumberOfComponents="3" format="ascii">
               0 0 0  0 0 0  0 0 0  0 0 0  0 0 0  0 0 0  0 0 0  0 0 0  0 0 0  0 0 0  0 0 0  0 0 0  0 0 0  0 0 0  0 0 0  0 0 0  0 0 0  0 0 0  0 0 0  0 0 0  0 0 0  0 0 0  0 0 0  0 0 0  0 0 0  0 0 0  0 0 0  0 0 0  0 0 0  0 0 0  0 0 0  0 0 0  0 0 0  0 0 0  0 0 0  0 0 0  0 0 0  0 0 0  0 0 0  0 0 0  0 0 0  0 0 0  0 0 0  0 0 0  0 0 0  0 0 0  0 0 0  0 0 0  0 0 0  0 0 0  0 0 0  0 0 0  0 0 0  0 0 0  0 0 0  0 0 0  0 0 0  0 0 0  0 0 0  0 0 0  0 0 0  0 0 0  0 0 0  0 0 0  0 0 0  0 0 0  0 0 0  0 0 0  0 0 0  0 0 0  0 0 0  0 0 0  0 0 0  0 0 0  0 0 0  0 0 0  0 0 0  0 0 0  0 0 0  0 0 0  0 0 0  
            </DataArray>
            <DataArray type="Float64" Name="Velocity" NumberOfComponents="3" format="ascii">
               0 0 0  0 0 0  0 0 0  0 0 0  0 0 0  0 0 0  0 0 0  0 0 0  0 0 0  0 0 0  0 0 0  0 0 0  0 0 0  0 0 0  0 0 0  0 0 0  0 0 0  0 0 0  0 0 0  0 0 0  0 0 0  0 0 0  0 0 0  0 0 0  0 0 0  0 0 0  0 0 0  0 0 0  0 0 0  0 0 0  0 0 0  0 0 0  0 0 0  0 0 0  0 0 0  0 0 0  0 0 0  0 0 0  0 0 0  0 0 0  0 0 0  0 0 0  0 0 0  0 0 0  0 0 0  0 0 0  0 0 0  0 0 0  0 0 0  0 0 0  0 0 0  0 0 0  0 0 0  0 0 0  0 0 0  0 0 0  0 0 0  0 0 0  0 0 0  0 0 0  0 0 0  0 0 0  0 0 0  0 0 0  0 0 0  0 0 0  0 0 0  0 0 0  0 0 0  0 0 0  0 0 0  0 0 0  0 0 0  0 0 0  0 0 0  0 0 0  0 0 0  0 0 0  0 0 0  0 0 0  0 0 0  
            </DataArray>
            <DataArray type="Float64" Name="Traction" NumberOfComponents="3" format="ascii">
               -5.8267e-05 -5.86466e-05 -0.00043177  -3.13925e-05 -0.000104535 -0.00043177  -1.70021e-05 -0.000130345 -0.00043177  -1.9084e-06 -0.000127856 -0.00043177  -5.64455e-06 -0.000127585 -0.00043177  2.12132e-05 -0.000130581 -0.00043177  7.71796e-05 -0.000119045 -0.00043177  2.65934e-05 -6.33881e-05 -0.00043177  1.06096e-05 -5.04186e-05 -0.00043177  -0.000103945 -3.159e-05 -0.00043177  -6.14756e-05 -6.18247e-05 -0.00043177  -2.73462e-05 -8.76448e-05 -0.00043177  -8.29565e-06 -9.19785e-05 -0.00043177  -1.28265e-05 -9.49001e-05 -0.00043177  9.47716e-06 -8.97481e-05 -0.00043177  8.41963e-05 -9.08906e-05 -0.00043177  5.66825e-05 -5.92406e-05 -0.00043177  5.39706e-05 -4.68786e-05 -0.00043177  -0.000129776 -1.71468e-05 -0.00043177  -8.73413e-05 -2.75277e-05 -0.00043177  -4.46309e-05 -4.47913e-05 -0.00043177  -7.38643e-06 -5.70675e-05 -0.00043177  -7.59594e-06 -5.8279e-05 -0.00043177  9.78756e-06 -5.52367e-05 -0.00043177  9.65768e-05 -5.50364e-05 -0.00043177  8.76413e-05 -4.51448e-05 -0.00043177  0.000111958 -4.93762e-05 -0.00043177  -0.000127221 -2.226e-06 -0.00043177  -9.16382e-05 -8.58021e-06 -0.00043177  -5.68953e-05 -7.69203e-06 -0.00043177  -1.57146e-05 -1.60239e-05 -0.00043177  -6.99853e-06 -1.34318e-05 -0.00043177  1.53817e-05 -1.60875e-05 -0.00043177  9.39508e-05 -1.22096e-05 -0.00043177  8.8076e-05 -1.14726e-05 -0.00043177  0.000125548 -1.24501e-05 -0.00043177  -0.000126913 -6.01456e-06 -0.00043177  -9.4524e-05 -1.31691e-05 -0.00043177  -5.8077e-05 -7.97511e-06 -0.00043177  -1.31085e-05 -7.39836e-06 -0.00043177  -1.05376e-05 -1.09394e-05 -0.00043177  1.06045e-05 -9.74965e-06 -0.00043177  9.30674e-05 -1.04003e-05 -0.00043177  8.86241e-05 -4.85439e-06 -0.00043177  0.000118058 -1.56783e-05 -0.00043177  -0.000129933 2.08703e-05 -0.00043177  -8.94115e-05 9.14697e-06 -0.00043177  -5.50813e-05 9.41553e-06 -0.00043177  -1.57777e-05 1.50023e-05 -0.00043177  -9.3541e-06 1.01771e-05 -0.00043177  1.49802e-05 1.45711e-05 -0.00043177  9.60516e-05 3.92188e-06 -0.00043177  8.94496e-05 8.89923e-06 -0.00043177  0.000123995 -7.8358e-06 -0.00043177  -0.000118438 7.69014e-05 -0.00043177  -9.05436e-05 8.39588e-05 -0.00043177  -5.48632e-05 9.62592e-05 -0.00043177  -1.19333e-05 9.37224e-05 -0.00043177  -1.00422e-05 9.27809e-05 -0.00043177  4.30936e-06 9.57698e-05 -0.00043177  8.20579e-05 8.18087e-05 -0.00043177  8.54033e-05 5.45992e-05 -0.00043177  0.000125715 3.88836e-05 -0.00043177  -6.28789e-05 2.60742e-05 -0.00043177  -5.89864e-05 5.6271e-05 -0.00043177  -4.50079e-05 8.70544e-05 -0.00043177  -1.12233e-05 8.75528e-05 -0.00043177  -4.56425e-06 8.80498e-05 -0.00043177  9.21871e-06 8.88882e-05 -0.00043177  5.48072e-05 8.49052e-05 -0.00043177  6.04384e-05 5.99757e-05 -0.00043177  9.98656e-05 3.36188e-05 -0.00043177  -4.97982e-05 9.80764e-06 -0.00043177  -4.65268e-05 5.33654e-05 -0.00043177  -4.91713e-05 0.000111123 -0.00043177  -1.21978e-05 0.000124689 -0.00043177  -1.53796e-05 0.000117165 -0.00043177  -7.51015e-06 0.000123097 -0.00043177  3.8987e-05 0.000124889 -0.00043177  3.38253e-05 9.90988e-05 -0.00043177  5.79086e-05 5.74484e-05 -0.00043177  
            </DataArray>
         </PointData> 
      </Piece>
   </UnstructuredGrid> 
</VTKFile>
