<?xml version="1.0"?>
<VTKFile type="UnstructuredGrid" version="0.1" byte_order="LittleEndian">
   <UnstructuredGrid>
      <Piece NumberOfPoints="81" NumberOfCells="0" > 
         <Points> 
            <DataArray type="Float64" Name="Position" NumberOfComponents="3" format="ascii"> 
               0  0  20  
               0.375  0  20  
               0.75  0  20  
               1.125  0  20  
               1.5  0  20  
               1.875  0  20  
               2.25  0  20  
               2.625  0  20  
               3  0  20  
               0  0.375  20  
               0.375  0.375  20  
               0.75  0.375  20  
               1.125  0.375  20  
               1.5  0.375  20  
               1.875  0.375  20  
               2.25  0.375  20  
               2.625  0.375  20  
               3  0.375  20  
               0  0.75  20  
               0.375  0.75  20  
               0.75  0.75  20  
               1.125  0.75  20  
               1.5  0.75  20  
               1.875  0.75  20  
               2.25  0.75  20  
               2.625  0.75  20  
               3  0.75  20  
               0  1.125  20  
               0.375  1.125  20  
               0.75  1.125  20  
               1.125  1.125  20  
               1.5  1.125  20  
               1.875  1.125  20  
               2.25  1.125  20  
               2.625  1.125  20  
               3  1.125  20  
               0  1.5  20  
               0.375  1.5  20  
               0.75  1.5  20  
               1.125  1.5  20  
               1.5  1.5  20  
               1.875  1.5  20  
               2.25  1.5  20  
               2.625  1.5  20  
               3  1.5  20  
               0  1.875  20  
               0.375  1.875  20  
               0.75  1.875  20  
               1.125  1.875  20  
               1.5  1.875  20  
               1.875  1.875  20  
               2.25  1.875  20  
               2.625  1.875  20  
               3  1.875  20  
               0  2.25  20  
               0.375  2.25  20  
               0.75  2.25  20  
               1.125  2.25  20  
               1.5  2.25  20  
               1.875  2.25  20  
               2.25  2.25  20  
               2.625  2.25  20  
               3  2.25  20  
               0  2.625  20  
               0.375  2.625  20  
               0.75  2.625  20  
               1.125  2.625  20  
               1.5  2.625  20  
               1.875  2.625  20  
               2.25  2.625  20  
               2.625  2.625  20  
               3  2.625  20  
               0  3  20  
               0.375  3  20  
               0.75  3  20  
               1.125  3  20  
               1.5  3  20  
               1.875  3  20  
               2.25  3  20  
               2.625  3  20  
               3  3  20  
            </DataArray>
         </Points> 

         <Cells>
            <DataArray type="Int32" Name="connectivity" NumberOfComponents="1" format="ascii">
               
            </DataArray> 
            <DataArray type="Int32" Name="offsets" NumberOfComponents="1" format="ascii">
               
            </DataArray>
            <DataArray type="UInt8"  Name="types" NumberOfComponents="1" format="ascii">
               
            </DataArray>
         </Cells>
         <PointData Scalars="Rank " Vectors="Displacement Velocity Traction ">
            <DataArray type="UInt32" Name="Rank" NumberOfComponents="1" format="ascii">
               0 0 0 0 0 0 0 0 0 0 0 0 0 0 0 0 0 0 0 0 0 0 0 0 0 0 0 0 0 0 0 0 0 0 0 0 0 0 0 0 0 0 0 0 0 0 0 0 0 0 0 0 0 0 0 0 0 0 0 0 0 0 0 0 0 0 0 0 0 0 0 0 0 0 0 0 0 0 0 0 0 
            </DataArray>
            <DataArray type="Float64" Name="Displacement" NumberOfComponents="3" format="ascii">
               0 0 0  0 0 0  0 0 0  0 0 0  0 0 0  0 0 0  0 0 0  0 0 0  0 0 0  0 0 0  0 0 0  0 0 0  0 0 0  0 0 0  0 0 0  0 0 0  0 0 0  0 0 0  0 0 0  0 0 0  0 0 0  0 0 0  0 0 0  0 0 0  0 0 0  0 0 0  0 0 0  0 0 0  0 0 0  0 0 0  0 0 0  0 0 0  0 0 0  0 0 0  0 0 0  0 0 0  0 0 0  0 0 0  0 0 0  0 0 0  0 0 0  0 0 0  0 0 0  0 0 0  0 0 0  0 0 0  0 0 0  0 0 0  0 0 0  0 0 0  0 0 0  0 0 0  0 0 0  0 0 0  0 0 0  0 0 0  0 0 0  0 0 0  0 0 0  0 0 0  0 0 0  0 0 0  0 0 0  0 0 0  0 0 0  0 0 0  0 0 0  0 0 0  0 0 0  0 0 0  0 0 0  0 0 0  0 0 0  0 0 0  0 0 0  0 0 0  0 0 0  0 0 0  0 0 0  0 0 0  0 0 0  
            </DataArray>
            <DataArray type="Float64" Name="Velocity" NumberOfComponents="3" format="ascii">
               0 0 0  0 0 0  0 0 0  0 0 0  0 0 0  0 0 0  0 0 0  0 0 0  0 0 0  0 0 0  0 0 0  0 0 0  0 0 0  0 0 0  0 0 0  0 0 0  0 0 0  0 0 0  0 0 0  0 0 0  0 0 0  0 0 0  0 0 0  0 0 0  0 0 0  0 0 0  0 0 0  0 0 0  0 0 0  0 0 0  0 0 0  0 0 0  0 0 0  0 0 0  0 0 0  0 0 0  0 0 0  0 0 0  0 0 0  0 0 0  0 0 0  0 0 0  0 0 0  0 0 0  0 0 0  0 0 0  0 0 0  0 0 0  0 0 0  0 0 0  0 0 0  0 0 0  0 0 0  0 0 0  0 0 0  0 0 0  0 0 0  0 0 0  0 0 0  0 0 0  0 0 0  0 0 0  0 0 0  0 0 0  0 0 0  0 0 0  0 0 0  0 0 0  0 0 0  0 0 0  0 0 0  0 0 0  0 0 0  0 0 0  0 0 0  0 0 0  0 0 0  0 0 0  0 0 0  0 0 0  0 0 0  
            </DataArray>
            <DataArray type="Float64" Name="Traction" NumberOfComponents="3" format="ascii">
               -0.000381486 -0.000380636 -0.00341141  -0.000297778 -0.000675207 -0.00341141  -0.000189918 -0.000881299 -0.00341141  -2.32429e-05 -0.000851765 -0.00341141  -6.39398e-05 -0.000851103 -0.00341141  0.000210592 -0.000874285 -0.00341141  0.00068937 -0.000774601 -0.00341141  0.000128931 -0.000326064 -0.00341141  -0.000170896 -0.000198405 -0.00341141  -0.000677324 -0.000295827 -0.00341141  -0.000472505 -0.000469944 -0.00341141  -0.000254945 -0.000660328 -0.00341141  -8.3109e-05 -0.000691835 -0.00341141  -0.0001243 -0.000721012 -0.00341141  9.40424e-05 -0.000666821 -0.00341141  0.000748598 -0.000682269 -0.00341141  0.000422002 -0.000446958 -0.00341141  0.000232943 -0.000317158 -0.00341141  -0.000883779 -0.000188312 -0.00341141  -0.000663482 -0.000253214 -0.00341141  -0.000388569 -0.000386582 -0.00341141  -7.24647e-05 -0.000487488 -0.00341141  -7.02953e-05 -0.000502128 -0.00341141  8.68027e-05 -0.000467526 -0.00341141  0.000802574 -0.000472954 -0.00341141  0.000664355 -0.000417505 -0.00341141  0.000723542 -0.000449471 -0.00341141  -0.000853538 -2.10436e-05 -0.00341141  -0.000694506 -8.10368e-05 -0.00341141  -0.000489386 -7.04442e-05 -0.00341141  -0.000144612 -0.0001425 -0.00341141  -5.25578e-05 -0.000122577 -0.00341141  0.000139803 -0.000143988 -0.00341141  0.000759326 -0.000112283 -0.00341141  0.000650724 -0.000109703 -0.00341141  0.000829255 -0.000127952 -0.00341141  -0.000852912 -6.10033e-05 -0.00341141  -0.000723703 -0.000121367 -0.00341141  -0.000503907 -6.76746e-05 -0.00341141  -0.000124633 -5.00002e-05 -0.00341141  -8.62811e-05 -8.36862e-05 -0.00341141  9.95845e-05 -7.66956e-05 -0.00341141  0.000763607 -8.04329e-05 -0.00341141  0.000667049 -4.0062e-05 -0.00341141  0.000768737 -0.000129113 -0.00341141  -0.000875998 0.000212201 -0.00341141  -0.000669682 9.59415e-05 -0.00341141  -0.000469483 8.8496e-05 -0.00341141  -0.000146113 0.000141443 -0.00341141  -7.93997e-05 0.000101055 -0.00341141  0.000131566 0.000133298 -0.00341141  0.000779961 5.13009e-05 -0.00341141  0.000668351 8.77431e-05 -0.00341141  0.000821495 -6.37051e-05 -0.00341141  -0.00077731 0.000691066 -0.00341141  -0.000685459 0.000750036 -0.00341141  -0.000475039 0.000804269 -0.00341141  -0.000114552 0.000761647 -0.00341141  -8.31718e-05 0.000765587 -0.00341141  4.95653e-05 0.000781995 -0.00341141  0.000676141 0.000678196 -0.00341141  0.000634888 0.000493965 -0.00341141  0.000833534 0.000386641 -0.00341141  -0.000329433 0.000132573 -0.00341141  -0.000450175 0.000424377 -0.00341141  -0.000419433 0.000665867 -0.00341141  -0.000112184 0.000652555 -0.00341141  -4.31759e-05 0.000668779 -0.00341141  8.56466e-05 0.000670216 -0.00341141  0.000491828 0.000637382 -0.00341141  0.000456486 0.000458703 -0.00341141  0.000628685 0.000315962 -0.00341141  -0.00020234 -0.000166223 -0.00341141  -0.00032097 0.000236355 -0.00341141  -0.000451405 0.000725086 -0.00341141  -0.00013024 0.000830288 -0.00341141  -0.000132308 0.000769988 -0.00341141  -6.60319e-05 0.000823 -0.00341141  0.000383803 0.000835922 -0.00341141  0.00031439 0.000631025 -0.00341141  0.000373295 0.000373944 -0.00341141  
            </DataArray>
         </PointData> 
      </Piece>
   </UnstructuredGrid> 
</VTKFile>
