<?xml version="1.0"?>
<VTKFile type="UnstructuredGrid" version="0.1" byte_order="LittleEndian">
   <UnstructuredGrid>
      <Piece NumberOfPoints="81" NumberOfCells="0" > 
         <Points> 
            <DataArray type="Float64" Name="Position" NumberOfComponents="3" format="ascii"> 
               0  0  20  
               0.375  0  20  
               0.75  0  20  
               1.125  0  20  
               1.5  0  20  
               1.875  0  20  
               2.25  0  20  
               2.625  0  20  
               3  0  20  
               0  0.375  20  
               0.375  0.375  20  
               0.75  0.375  20  
               1.125  0.375  20  
               1.5  0.375  20  
               1.875  0.375  20  
               2.25  0.375  20  
               2.625  0.375  20  
               3  0.375  20  
               0  0.75  20  
               0.375  0.75  20  
               0.75  0.75  20  
               1.125  0.75  20  
               1.5  0.75  20  
               1.875  0.75  20  
               2.25  0.75  20  
               2.625  0.75  20  
               3  0.75  20  
               0  1.125  20  
               0.375  1.125  20  
               0.75  1.125  20  
               1.125  1.125  20  
               1.5  1.125  20  
               1.875  1.125  20  
               2.25  1.125  20  
               2.625  1.125  20  
               3  1.125  20  
               0  1.5  20  
               0.375  1.5  20  
               0.75  1.5  20  
               1.125  1.5  20  
               1.5  1.5  20  
               1.875  1.5  20  
               2.25  1.5  20  
               2.625  1.5  20  
               3  1.5  20  
               0  1.875  20  
               0.375  1.875  20  
               0.75  1.875  20  
               1.125  1.875  20  
               1.5  1.875  20  
               1.875  1.875  20  
               2.25  1.875  20  
               2.625  1.875  20  
               3  1.875  20  
               0  2.25  20  
               0.375  2.25  20  
               0.75  2.25  20  
               1.125  2.25  20  
               1.5  2.25  20  
               1.875  2.25  20  
               2.25  2.25  20  
               2.625  2.25  20  
               3  2.25  20  
               0  2.625  20  
               0.375  2.625  20  
               0.75  2.625  20  
               1.125  2.625  20  
               1.5  2.625  20  
               1.875  2.625  20  
               2.25  2.625  20  
               2.625  2.625  20  
               3  2.625  20  
               0  3  20  
               0.375  3  20  
               0.75  3  20  
               1.125  3  20  
               1.5  3  20  
               1.875  3  20  
               2.25  3  20  
               2.625  3  20  
               3  3  20  
            </DataArray>
         </Points> 

         <Cells>
            <DataArray type="Int32" Name="connectivity" NumberOfComponents="1" format="ascii">
               
            </DataArray> 
            <DataArray type="Int32" Name="offsets" NumberOfComponents="1" format="ascii">
               
            </DataArray>
            <DataArray type="UInt8"  Name="types" NumberOfComponents="1" format="ascii">
               
            </DataArray>
         </Cells>
         <PointData Scalars="Rank " Vectors="Displacement Velocity Traction ">
            <DataArray type="UInt32" Name="Rank" NumberOfComponents="1" format="ascii">
               0 0 0 0 0 0 0 0 0 0 0 0 0 0 0 0 0 0 0 0 0 0 0 0 0 0 0 0 0 0 0 0 0 0 0 0 0 0 0 0 0 0 0 0 0 0 0 0 0 0 0 0 0 0 0 0 0 0 0 0 0 0 0 0 0 0 0 0 0 0 0 0 0 0 0 0 0 0 0 0 0 
            </DataArray>
            <DataArray type="Float64" Name="Displacement" NumberOfComponents="3" format="ascii">
               3.65416e-05 3.65838e-05 -0.00013916  1.72752e-05 4.68252e-05 -0.000145133  7.20503e-06 5.70109e-05 -0.000136714  1.32718e-07 5.72607e-05 -0.000133375  -3.89623e-06 5.74962e-05 -0.000133021  -1.19711e-05 5.95981e-05 -0.000129867  -2.12927e-05 5.47894e-05 -0.000135394  -1.45551e-05 3.77485e-05 -0.000143997  -2.21033e-05 3.96897e-05 -0.000127557  4.68901e-05 1.7318e-05 -0.000145182  2.37328e-05 2.37045e-05 -0.000145055  1.158e-05 3.00363e-05 -0.000133551  3.79064e-06 3.1172e-05 -0.000130613  8.76681e-07 3.32112e-05 -0.000130386  -4.69985e-06 3.15284e-05 -0.000128212  -1.89719e-05 3.25867e-05 -0.000134141  -2.3501e-05 2.45646e-05 -0.000149399  -3.57269e-05 2.60216e-05 -0.000141199  5.70611e-05 7.202e-06 -0.000136785  3.00623e-05 1.15711e-05 -0.000133562  1.58032e-05 1.57951e-05 -0.000114992  2.4606e-06 1.88332e-05 -0.000109604  -5.70133e-08 1.95041e-05 -0.000109714  -3.51689e-06 1.93542e-05 -0.000108945  -2.0484e-05 2.08747e-05 -0.000115135  -3.13373e-05 1.77912e-05 -0.000134477  -5.30905e-05 2.13101e-05 -0.000134321  5.73012e-05 7.87453e-08 -0.000133421  3.11843e-05 3.74911e-06 -0.000130605  1.88317e-05 2.42169e-06 -0.000109584  5.70586e-06 5.67389e-06 -0.000101962  5.92609e-08 4.95779e-06 -0.000101974  -5.23426e-06 6.4357e-06 -0.000102082  -1.8278e-05 5.43194e-06 -0.00010937  -3.00224e-05 5.9928e-06 -0.000128994  -5.74031e-05 8.34497e-06 -0.000129837  5.75353e-05 -3.96321e-06 -0.000133066  3.32251e-05 8.08328e-07 -0.000130377  1.95042e-05 -1.24325e-07 -0.000109696  4.98982e-06 -6.79433e-09 -0.000101979  1.12118e-06 1.05434e-06 -0.000102496  -2.84947e-06 1.15073e-06 -0.000101947  -1.72663e-05 2.23531e-06 -0.00010956  -2.97003e-05 1.22561e-06 -0.000130027  -5.30209e-05 6.50219e-06 -0.000131718  5.96291e-05 -1.20135e-05 -0.000129926  3.15466e-05 -4.76735e-06 -0.000128218  1.93582e-05 -3.57691e-06 -0.000108938  6.47193e-06 -5.29299e-06 -0.000102097  1.2193e-06 -2.91212e-06 -0.00010196  -4.47885e-06 -4.54074e-06 -0.000101707  -1.79344e-05 -5.4035e-07 -0.000109263  -2.97069e-05 -3.21051e-06 -0.000129906  -5.59281e-05 5.5375e-06 -0.000131573  5.48527e-05 -2.13429e-05 -0.000135443  3.26264e-05 -1.90107e-05 -0.000134132  2.08956e-05 -2.05167e-05 -0.000115109  5.47575e-06 -1.83162e-05 -0.00010936  2.31365e-06 -1.73056e-05 -0.00010955  -4.60502e-07 -1.79708e-05 -0.000109243  -1.44822e-05 -1.45347e-05 -0.000114945  -2.83931e-05 -1.16534e-05 -0.000133689  -5.52229e-05 -6.73312e-06 -0.000135761  3.78375e-05 -1.47007e-05 -0.000144053  2.4615e-05 -2.35869e-05 -0.000149396  1.78305e-05 -3.14183e-05 -0.00013447  6.05943e-06 -3.01054e-05 -0.000128999  1.31535e-06 -2.97853e-05 -0.00013003  -3.12679e-06 -2.97914e-05 -0.0001299  -1.15993e-05 -2.84911e-05 -0.0001337  -2.2627e-05 -2.27284e-05 -0.000145488  -4.51453e-05 -1.77701e-05 -0.000144561  3.97701e-05 -2.23101e-05 -0.000127736  2.60897e-05 -3.5871e-05 -0.000141295  2.13625e-05 -5.32223e-05 -0.000134405  8.40473e-06 -5.75232e-05 -0.000129935  6.60897e-06 -5.31494e-05 -0.000131821  5.65595e-06 -5.60729e-05 -0.000131669  -6.6897e-06 -5.53775e-05 -0.000135882  -1.77808e-05 -4.5306e-05 -0.00014466  -3.65556e-05 -3.65552e-05 -0.000138044  
            </DataArray>
            <DataArray type="Float64" Name="Velocity" NumberOfComponents="3" format="ascii">
               4.3371e-05 4.37372e-05 -0.000172535  2.32879e-05 5.47394e-05 -0.00018159  1.11164e-05 6.71629e-05 -0.000172324  4.69352e-07 6.70221e-05 -0.000168763  -4.76129e-06 6.72254e-05 -0.000168317  -1.56064e-05 7.00569e-05 -0.000164269  -2.69651e-05 6.42755e-05 -0.000171086  -1.69918e-05 4.39604e-05 -0.000180387  -2.39147e-05 4.57048e-05 -0.00015666  5.45369e-05 2.35982e-05 -0.000181507  2.91641e-05 2.93869e-05 -0.000184225  1.55054e-05 3.66895e-05 -0.000171315  5.01687e-06 3.7878e-05 -0.000168193  1.07553e-06 4.04235e-05 -0.000167933  -6.43625e-06 3.83254e-05 -0.000165151  -2.48699e-05 3.98335e-05 -0.000172246  -2.9085e-05 3.05351e-05 -0.000189727  -4.11439e-05 3.14233e-05 -0.000176857  6.69444e-05 1.13312e-05 -0.000172349  3.6517e-05 1.57675e-05 -0.000171381  2.02608e-05 2.04982e-05 -0.000150649  3.24673e-06 2.3976e-05 -0.000144682  -9.88848e-08 2.48763e-05 -0.000144803  -4.83659e-06 2.46439e-05 -0.000143928  -2.64946e-05 2.68114e-05 -0.000150971  -3.87678e-05 2.34046e-05 -0.000172669  -6.27005e-05 2.713e-05 -0.000169989  6.67456e-05 6.23634e-07 -0.000168708  3.76347e-05 5.23458e-06 -0.000168211  2.37146e-05 3.48133e-06 -0.000144626  7.12715e-06 7.36314e-06 -0.000136009  -1.56241e-07 6.65446e-06 -0.000135987  -7.05021e-06 8.41791e-06 -0.000136302  -2.32575e-05 7.31159e-06 -0.000144502  -3.65168e-05 8.05917e-06 -0.000166151  -6.75242e-05 1.10354e-05 -0.000164477  6.69513e-05 -4.64243e-06 -0.000168253  4.01813e-05 1.21763e-06 -0.000167955  2.46011e-05 6.4827e-08 -0.00014475  6.40044e-06 1.44798e-08 -0.000136002  1.18122e-06 1.38157e-06 -0.000136561  -4.31508e-06 1.6068e-06 -0.000135988  -2.22726e-05 2.82651e-06 -0.000144583  -3.62518e-05 1.77174e-06 -0.000167442  -6.18771e-05 8.0557e-06 -0.000166844  6.97439e-05 -1.53631e-05 -0.000164246  3.80768e-05 -6.24725e-06 -0.000165207  2.43724e-05 -4.61849e-06 -0.000143891  8.17101e-06 -6.82944e-06 -0.000136326  1.42724e-06 -4.0394e-06 -0.000136009  -5.97838e-06 -5.74651e-06 -0.000135681  -2.28659e-05 -1.21088e-06 -0.000144198  -3.61552e-05 -4.15811e-06 -0.00016714  -6.55497e-05 6.59242e-06 -0.000166528  6.40985e-05 -2.67171e-05 -0.000171044  3.96399e-05 -2.46342e-05 -0.000172245  2.65616e-05 -2.62339e-05 -0.000150883  7.08143e-06 -2.30481e-05 -0.000144469  2.65498e-06 -2.2012e-05 -0.000144541  -1.45185e-06 -2.26314e-05 -0.000144145  -1.90945e-05 -1.88878e-05 -0.000150611  -3.45752e-05 -1.55771e-05 -0.000171397  -6.48072e-05 -1.0407e-05 -0.000171078  4.38371e-05 -1.69326e-05 -0.000180451  3.0366e-05 -2.89573e-05 -0.000189786  2.31818e-05 -3.85581e-05 -0.000172672  7.87373e-06 -3.63412e-05 -0.000166225  1.6534e-06 -3.60628e-05 -0.000167493  -4.35064e-06 -3.5975e-05 -0.000167172  -1.58221e-05 -3.44865e-05 -0.000171476  -2.8004e-05 -2.78419e-05 -0.000184759  -5.25449e-05 -2.36953e-05 -0.000180882  4.56271e-05 -2.39161e-05 -0.00015685  3.13069e-05 -4.11152e-05 -0.000176955  2.68971e-05 -6.25348e-05 -0.000169953  1.08175e-05 -6.72931e-05 -0.000164486  7.94501e-06 -6.16725e-05 -0.000166824  6.43956e-06 -6.53411e-05 -0.000166513  -1.06184e-05 -6.46888e-05 -0.000171174  -2.40059e-05 -5.24572e-05 -0.000180849  -4.36553e-05 -4.328e-05 -0.000171148  
            </DataArray>
            <DataArray type="Float64" Name="Traction" NumberOfComponents="3" format="ascii">
               -0.000250474 -0.000249302 -0.00218999  -0.000180978 -0.000443154 -0.00218999  -0.000112906 -0.000570617 -0.00218999  -1.49827e-05 -0.000551767 -0.00218999  -3.88344e-05 -0.000551944 -0.00218999  0.000127283 -0.000564817 -0.00218999  0.0004234 -0.000503575 -0.00218999  9.16348e-05 -0.000226483 -0.00218999  -7.52811e-05 -0.000152562 -0.00218999  -0.000445634 -0.000180207 -0.00218999  -0.000299299 -0.000297684 -0.00218999  -0.000154993 -0.000419395 -0.00218999  -5.08752e-05 -0.000438883 -0.00218999  -7.64061e-05 -0.000456758 -0.00218999  5.57919e-05 -0.000423658 -0.00218999  0.000458045 -0.000431231 -0.00218999  0.000267211 -0.000283201 -0.00218999  0.000169877 -0.00020805 -0.00218999  -0.000573351 -0.000112532 -0.00218999  -0.00042128 -0.000154368 -0.00218999  -0.000239847 -0.000239045 -0.00218999  -4.47296e-05 -0.000302765 -0.00218999  -4.3872e-05 -0.000311383 -0.00218999  5.32506e-05 -0.000291021 -0.00218999  0.000498124 -0.000292025 -0.00218999  0.000417693 -0.000254051 -0.00218999  0.000469035 -0.000275301 -0.00218999  -0.000554461 -1.39655e-05 -0.00218999  -0.000440761 -4.98928e-05 -0.00218999  -0.000303616 -4.36115e-05 -0.00218999  -8.97389e-05 -8.85277e-05 -0.00218999  -3.47476e-05 -7.52895e-05 -0.00218999  8.5069e-05 -8.8677e-05 -0.00218999  0.00047546 -6.86506e-05 -0.00218999  0.000412808 -6.64816e-05 -0.00218999  0.000535178 -7.76357e-05 -0.00218999  -0.000554683 -3.74531e-05 -0.00218999  -0.000458702 -7.49186e-05 -0.00218999  -0.000312289 -4.23317e-05 -0.00218999  -7.6593e-05 -3.30477e-05 -0.00218999  -5.48689e-05 -5.30312e-05 -0.00218999  6.03064e-05 -4.76794e-05 -0.00218999  0.000476654 -4.94578e-05 -0.00218999  0.00042238 -2.3585e-05 -0.00218999  0.000499534 -7.98477e-05 -0.00218999  -0.000567374 0.000128016 -0.00218999  -0.000425603 5.67907e-05 -0.00218999  -0.000291905 5.41751e-05 -0.00218999  -8.99182e-05 8.60696e-05 -0.00218999  -4.9413e-05 6.14899e-05 -0.00218999  8.11369e-05 8.2208e-05 -0.00218999  0.000487757 2.99686e-05 -0.00218999  0.000423491 5.30942e-05 -0.00218999  0.000531032 -3.86557e-05 -0.00218999  -0.000506246 0.00042357 -0.00218999  -0.000433162 0.000458144 -0.00218999  -0.000292952 0.000498334 -0.00218999  -6.97504e-05 0.000475822 -0.00218999  -5.10354e-05 0.000477029 -0.00218999  2.89214e-05 0.000488001 -0.00218999  0.000420993 0.000421133 -0.00218999  0.000403712 0.000300138 -0.00218999  0.000541098 0.000231401 -0.00218999  -0.000229202 9.39819e-05 -0.00218999  -0.000284895 0.000268644 -0.00218999  -0.000254955 0.00041897 -0.00218999  -6.76219e-05 0.000414255 -0.00218999  -2.50487e-05 0.00042395 -0.00218999  5.21775e-05 0.000424983 -0.00218999  0.000300047 0.000405147 -0.00218999  0.000288793 0.000290133 -0.00218999  0.0004147 0.000191746 -0.00218999  -0.000155294 -7.11677e-05 -0.00218999  -0.000209861 0.000172831 -0.00218999  -0.000276171 0.000471512 -0.00218999  -7.8493e-05 0.000537713 -0.00218999  -8.13899e-05 0.000502397 -0.00218999  -3.98486e-05 0.00053402 -0.00218999  0.000231268 0.000544085 -0.00218999  0.000191546 0.000417515 -0.00218999  0.000245052 0.000246072 -0.00218999  
            </DataArray>
         </PointData> 
      </Piece>
   </UnstructuredGrid> 
</VTKFile>
