<?xml version="1.0"?>
<VTKFile type="UnstructuredGrid" version="0.1" byte_order="LittleEndian">
   <UnstructuredGrid>
      <Piece NumberOfPoints="81" NumberOfCells="0" > 
         <Points> 
            <DataArray type="Float64" Name="Position" NumberOfComponents="3" format="ascii"> 
               0  0  15  
               0.375  0  15  
               0.75  0  15  
               1.125  0  15  
               1.5  0  15  
               1.875  0  15  
               2.25  0  15  
               2.625  0  15  
               3  0  15  
               0  0.375  15  
               0.375  0.375  15  
               0.75  0.375  15  
               1.125  0.375  15  
               1.5  0.375  15  
               1.875  0.375  15  
               2.25  0.375  15  
               2.625  0.375  15  
               3  0.375  15  
               0  0.75  15  
               0.375  0.75  15  
               0.75  0.75  15  
               1.125  0.75  15  
               1.5  0.75  15  
               1.875  0.75  15  
               2.25  0.75  15  
               2.625  0.75  15  
               3  0.75  15  
               0  1.125  15  
               0.375  1.125  15  
               0.75  1.125  15  
               1.125  1.125  15  
               1.5  1.125  15  
               1.875  1.125  15  
               2.25  1.125  15  
               2.625  1.125  15  
               3  1.125  15  
               0  1.5  15  
               0.375  1.5  15  
               0.75  1.5  15  
               1.125  1.5  15  
               1.5  1.5  15  
               1.875  1.5  15  
               2.25  1.5  15  
               2.625  1.5  15  
               3  1.5  15  
               0  1.875  15  
               0.375  1.875  15  
               0.75  1.875  15  
               1.125  1.875  15  
               1.5  1.875  15  
               1.875  1.875  15  
               2.25  1.875  15  
               2.625  1.875  15  
               3  1.875  15  
               0  2.25  15  
               0.375  2.25  15  
               0.75  2.25  15  
               1.125  2.25  15  
               1.5  2.25  15  
               1.875  2.25  15  
               2.25  2.25  15  
               2.625  2.25  15  
               3  2.25  15  
               0  2.625  15  
               0.375  2.625  15  
               0.75  2.625  15  
               1.125  2.625  15  
               1.5  2.625  15  
               1.875  2.625  15  
               2.25  2.625  15  
               2.625  2.625  15  
               3  2.625  15  
               0  3  15  
               0.375  3  15  
               0.75  3  15  
               1.125  3  15  
               1.5  3  15  
               1.875  3  15  
               2.25  3  15  
               2.625  3  15  
               3  3  15  
            </DataArray>
         </Points> 

         <Cells>
            <DataArray type="Int32" Name="connectivity" NumberOfComponents="1" format="ascii">
               
            </DataArray> 
            <DataArray type="Int32" Name="offsets" NumberOfComponents="1" format="ascii">
               
            </DataArray>
            <DataArray type="UInt8"  Name="types" NumberOfComponents="1" format="ascii">
               
            </DataArray>
         </Cells>
         <PointData Scalars="Rank " Vectors="Displacement Velocity Traction ">
            <DataArray type="UInt32" Name="Rank" NumberOfComponents="1" format="ascii">
               0 0 0 0 0 0 0 0 0 0 0 0 0 0 0 0 0 0 0 0 0 0 0 0 0 0 0 0 0 0 0 0 0 0 0 0 0 0 0 0 0 0 0 0 0 0 0 0 0 0 0 0 0 0 0 0 0 0 0 0 0 0 0 0 0 0 0 0 0 0 0 0 0 0 0 0 0 0 0 0 0 
            </DataArray>
            <DataArray type="Float64" Name="Displacement" NumberOfComponents="3" format="ascii">
               0.000184392 0.000109272 -0.000144775  0.00017822 3.38269e-05 -0.000150763  0.000153141 1.5518e-05 -0.000142144  0.00011776 3.35732e-06 -0.00013866  8.54581e-05 1.1515e-05 -0.000138301  5.75439e-05 2.34094e-06 -0.000135035  3.69022e-05 1.18842e-05 -0.000140802  2.28178e-05 1.70999e-05 -0.000149637  1.77317e-05 -1.42452e-05 -0.00013265  0.000106758 0.000102543 -0.000150855  0.00010911 3.44778e-05 -0.000150724  9.53579e-05 2.42773e-05 -0.000138895  7.24623e-05 1.27225e-05 -0.000135824  4.73491e-05 1.97964e-05 -0.000135593  2.18037e-05 9.55099e-06 -0.000133342  -3.03661e-06 1.64553e-05 -0.000139521  -1.79926e-05 1.66596e-05 -0.000155206  -1.76823e-05 -2.03956e-05 -0.000146759  8.51188e-05 7.52251e-05 -0.000142249  9.67193e-05 1.69225e-05 -0.000138898  8.64938e-05 9.55632e-06 -0.00011979  6.4658e-05 2.09152e-06 -0.000114181  4.05292e-05 6.92763e-06 -0.000114297  1.59806e-05 1.25729e-07 -0.000113502  -7.1944e-06 4.47788e-06 -0.00011995  -1.835e-05 8.71005e-07 -0.000139864  -1.26227e-05 -3.72511e-05 -0.000139702  6.883e-05 3.60144e-05 -0.000138742  8.2075e-05 -1.17523e-05 -0.000135813  7.61915e-05 -1.72996e-05 -0.000114165  5.84396e-05 -2.00935e-05 -0.000106246  3.7146e-05 -1.77502e-05 -0.000106259  1.47279e-05 -2.07396e-05 -0.000106375  -5.43007e-06 -1.99707e-05 -0.000113945  -1.42644e-05 -2.5391e-05 -0.000134149  -5.98118e-06 -6.11366e-05 -0.000135018  7.8352e-05 -1.49081e-06 -0.000138381  9.12307e-05 -4.44824e-05 -0.00013558  8.36846e-05 -4.69923e-05 -0.000114281  6.31967e-05 -4.60745e-05 -0.000106263  3.87525e-05 -4.42655e-05 -0.000106789  1.27286e-05 -4.41998e-05 -0.000106232  -1.14399e-05 -4.61159e-05 -0.000114139  -2.34532e-05 -5.31981e-05 -0.00013522  -1.37986e-05 -9.20605e-05 -0.000136962  7.98862e-05 -3.62657e-05 -0.000135132  9.16491e-05 -7.77524e-05 -0.000133337  8.45923e-05 -7.55101e-05 -0.000113495  6.37792e-05 -7.11167e-05 -0.000106386  3.86954e-05 -6.914e-05 -0.000106243  1.24899e-05 -6.67127e-05 -0.000105981  -1.01282e-05 -7.19584e-05 -0.000113826  -2.08273e-05 -8.11749e-05 -0.000135085  -9.88104e-06 -0.000128364 -0.000136801  9.65355e-05 -6.4865e-05 -0.000140901  0.000105199 -0.000108979 -0.000139506  9.48128e-05 -0.00010003 -0.000119929  6.991e-05 -9.21364e-05 -0.000113934  4.07199e-05 -8.99328e-05 -0.000114132  1.02033e-05 -8.57676e-05 -0.000113811  -1.74779e-05 -9.5416e-05 -0.000119746  -3.25698e-05 -0.00010708 -0.000139033  -2.19012e-05 -0.000169393 -0.000141164  0.000122359 -8.56477e-05 -0.000149733  0.000122931 -0.0001274 -0.000155174  0.000104195 -0.000110131 -0.000139849  7.2347e-05 -9.91784e-05 -0.000134143  3.76803e-05 -9.71303e-05 -0.000135217  2.93092e-06 -9.22689e-05 -0.000135074  -2.80039e-05 -0.000106535 -0.000139035  -4.71721e-05 -0.000122961 -0.000151164  -4.59281e-05 -0.000199134 -0.000150174  9.31442e-05 -9.32438e-05 -0.000132943  8.47114e-05 -0.000126235 -0.000146896  6.17088e-05 -0.000100434 -0.000139836  3.05204e-05 -8.64507e-05 -0.000135154  -6.54018e-06 -8.29461e-05 -0.0001371  -4.73506e-05 -7.74761e-05 -0.000136933  -9.15822e-05 -9.30101e-05 -0.00014132  -0.000123143 -0.000120102 -0.000150317  -0.000131238 -0.000206758 -0.00014364  
            </DataArray>
            <DataArray type="Float64" Name="Velocity" NumberOfComponents="3" format="ascii">
               0.000186004 0.000148536 -0.000178866  0.000178781 7.77699e-05 -0.000187966  0.000151954 4.51787e-05 -0.000178521  0.000114018 2.58406e-05 -0.000174831  7.6418e-05 2.58597e-05 -0.000174383  4.15567e-05 2.12328e-05 -0.000170219  1.37097e-05 3.3802e-05 -0.000177292  -5.76095e-06 5.47646e-05 -0.000186802  -1.26166e-05 2.73042e-05 -0.000162456  0.000114943 0.000141486 -0.000187886  0.000116174 7.96559e-05 -0.000190674  9.8331e-05 5.69545e-05 -0.000177449  6.90176e-05 3.91939e-05 -0.000174196  3.57465e-05 3.978e-05 -0.000173945  1.93619e-06 3.36591e-05 -0.000171071  -2.90583e-05 4.25611e-05 -0.000178438  -4.68056e-05 5.55229e-05 -0.000196329  -4.56495e-05 1.93339e-05 -0.000183179  8.04348e-05 0.000114954 -0.000178543  9.11762e-05 6.29106e-05 -0.000177512  7.94013e-05 4.64774e-05 -0.000156238  5.44137e-05 3.31665e-05 -0.000150044  2.61e-05 3.31243e-05 -0.000150194  -1.55216e-06 2.78948e-05 -0.000149275  -2.53073e-05 3.30714e-05 -0.000156589  -3.47467e-05 3.78381e-05 -0.000178862  -2.54835e-05 -2.30848e-06 -0.000176171  6.0064e-05 7.82523e-05 -0.000174778  7.15564e-05 3.56357e-05 -0.000174217  6.41808e-05 2.27084e-05 -0.000149994  4.4672e-05 1.42931e-05 -0.000141078  2.06977e-05 1.29909e-05 -0.000141079  -2.8796e-06 8.15055e-06 -0.000141389  -2.24683e-05 9.18319e-06 -0.00014987  -2.84522e-05 7.14612e-06 -0.000172101  -1.62179e-05 -3.1774e-05 -0.000170436  5.96573e-05 4.30323e-05 -0.00017432  7.08904e-05 6.16834e-06 -0.000173968  6.1815e-05 -3.73391e-06 -0.000150145  4.05674e-05 -8.4599e-06 -0.000141091  1.67241e-05 -1.10131e-05 -0.000141665  -6.27667e-06 -1.58821e-05 -0.000141082  -2.55746e-05 -1.86079e-05 -0.000149964  -3.17492e-05 -2.6302e-05 -0.00017345  -1.81086e-05 -6.66664e-05 -0.000172871  4.96483e-05 1.20218e-05 -0.000170193  5.90562e-05 -2.31064e-05 -0.000171125  5.27461e-05 -3.01663e-05 -0.000149238  3.46721e-05 -3.17229e-05 -0.000141408  1.3189e-05 -3.60108e-05 -0.000141099  -8.02646e-06 -4.0569e-05 -0.000140739  -2.60443e-05 -4.71217e-05 -0.000149538  -3.19767e-05 -5.95007e-05 -0.000173105  -1.81509e-05 -0.000105032 -0.000172527  6.19419e-05 -1.06415e-05 -0.000177245  6.78429e-05 -4.98266e-05 -0.000178435  5.80046e-05 -5.41457e-05 -0.000156505  3.56514e-05 -5.15818e-05 -0.000149837  1.09773e-05 -5.83095e-05 -0.000149924  -1.38129e-05 -6.1134e-05 -0.000149491  -3.6312e-05 -7.23862e-05 -0.000156208  -4.67311e-05 -8.87523e-05 -0.000177531  -3.41361e-05 -0.000146338 -0.000177232  6.88473e-05 -2.57181e-05 -0.000186854  6.91803e-05 -6.5273e-05 -0.000196387  5.48152e-05 -6.51539e-05 -0.000178861  2.98577e-05 -5.9435e-05 -0.000172173  2.66569e-06 -6.8177e-05 -0.000173498  -2.49847e-05 -6.97459e-05 -0.000173138  -5.07283e-05 -8.51531e-05 -0.000177606  -6.65752e-05 -0.000106575 -0.00019123  -6.40623e-05 -0.000176067 -0.000187229  4.0657e-05 -3.09662e-05 -0.000162624  3.47335e-05 -6.50394e-05 -0.000183266  1.85785e-05 -5.9365e-05 -0.000176129  -4.34305e-06 -5.08519e-05 -0.000170441  -3.3894e-05 -5.78339e-05 -0.000172848  -6.84913e-05 -5.83464e-05 -0.000172514  -0.000107411 -7.39571e-05 -0.000177324  -0.000136142 -0.000104901 -0.000187196  -0.000143828 -0.000183985 -0.000177395  
            </DataArray>
            <DataArray type="Float64" Name="Traction" NumberOfComponents="3" format="ascii">
               0.00426552 0.00428509 -0.0106297  0.00199504 0.00520823 -0.0106297  0.000801198 0.0056647 -0.0106297  0.000177581 0.00597085 -0.0106297  -0.000243603 0.00596188 -0.0106297  -0.000614633 0.00623344 -0.0106297  -0.00125874 0.00600583 -0.0106297  -0.0026766 0.00592593 -0.0106297  -0.00640508 0.00649861 -0.0106297  0.0051229 0.00201295 -0.0106297  0.00257797 0.00264595 -0.0106297  0.00131363 0.002769 -0.0106297  0.000593955 0.0029236 -0.0106297  9.14215e-05 0.00284434 -0.0106297  -0.000252104 0.00285299 -0.0106297  -0.000736038 0.00256715 -0.0106297  -0.0023021 0.00239688 -0.0106297  -0.00590596 0.00283168 -0.0106297  0.00555337 0.000849063 -0.0106297  0.00269987 0.00137238 -0.0106297  0.00138864 0.00143974 -0.0106297  0.000652695 0.00150267 -0.0106297  0.000137073 0.00141136 -0.0106297  -0.000280308 0.00137339 -0.0106297  -0.000869288 0.00116358 -0.0106297  -0.00253537 0.00106042 -0.0106297  -0.00605225 0.00159128 -0.0106297  0.00601577 0.00025758 -0.0106297  0.00294131 0.000620864 -0.0106297  0.00151234 0.00065683 -0.0106297  0.000702191 0.000671119 -0.0106297  0.000102661 0.000612359 -0.0106297  -0.000424558 0.000537653 -0.0106297  -0.00112386 0.000403797 -0.0106297  -0.00286695 0.000407011 -0.0106297  -0.00633747 0.000841354 -0.0106297  0.00615776 -0.000380506 -0.0106297  0.00299748 -5.18003e-05 -0.0106297  0.00153327 -5.42749e-05 -0.0106297  0.000690544 -2.56497e-05 -0.0106297  3.18139e-05 -3.51884e-05 -0.0106297  -0.000536333 -6.25868e-05 -0.0106297  -0.00122879 -8.94726e-05 -0.0106297  -0.00295513 -2.99942e-05 -0.0106297  -0.00618467 0.000372419 -0.0106297  0.00617846 -0.0009528 -0.0106297  0.00318144 -0.000657756 -0.0106297  0.00168873 -0.000736557 -0.0106297  0.000791901 -0.000692696 -0.0106297  6.61837e-05 -0.00062803 -0.0106297  -0.000572921 -0.000617193 -0.0106297  -0.00131993 -0.000565144 -0.0106297  -0.00307685 -0.000496055 -0.0106297  -0.00633613 3.9105e-06 -0.0106297  0.00606262 -0.00171036 -0.0106297  0.00324454 -0.00134912 -0.0106297  0.00175305 -0.00148014 -0.0106297  0.000844774 -0.00145568 -0.0106297  0.000102922 -0.00136388 -0.0106297  -0.000555577 -0.00134133 -0.0106297  -0.00128635 -0.00124749 -0.0106297  -0.00298824 -0.00121151 -0.0106297  -0.00620512 -0.000639131 -0.0106297  0.00571897 -0.00353291 -0.0106297  0.00317636 -0.00309135 -0.0106297  0.00165507 -0.00322981 -0.0106297  0.000799587 -0.00320669 -0.0106297  0.00011092 -0.00311488 -0.0106297  -0.000515151 -0.00309812 -0.0106297  -0.00126206 -0.00292171 -0.0106297  -0.0028662 -0.0027964 -0.0106297  -0.00578242 -0.00212328 -0.0106297  0.00591904 -0.00582225 -0.0106297  0.00368131 -0.00566848 -0.0106297  0.00202864 -0.00606663 -0.0106297  0.00116795 -0.00623147 -0.0106297  0.000508042 -0.00633287 -0.0106297  -6.76579e-05 -0.0063478 -0.0106297  -0.000680345 -0.00606173 -0.0106297  -0.00213261 -0.0056698 -0.0106297  -0.00481144 -0.00480118 -0.0106297  
            </DataArray>
         </PointData> 
      </Piece>
   </UnstructuredGrid> 
</VTKFile>
