<?xml version="1.0"?>
<VTKFile type="UnstructuredGrid" version="0.1" byte_order="LittleEndian">
   <UnstructuredGrid>
      <Piece NumberOfPoints="81" NumberOfCells="0" > 
         <Points> 
            <DataArray type="Float64" Name="Position" NumberOfComponents="3" format="ascii"> 
               0  0  15  
               0.375  0  15  
               0.75  0  15  
               1.125  0  15  
               1.5  0  15  
               1.875  0  15  
               2.25  0  15  
               2.625  0  15  
               3  0  15  
               0  0.375  15  
               0.375  0.375  15  
               0.75  0.375  15  
               1.125  0.375  15  
               1.5  0.375  15  
               1.875  0.375  15  
               2.25  0.375  15  
               2.625  0.375  15  
               3  0.375  15  
               0  0.75  15  
               0.375  0.75  15  
               0.75  0.75  15  
               1.125  0.75  15  
               1.5  0.75  15  
               1.875  0.75  15  
               2.25  0.75  15  
               2.625  0.75  15  
               3  0.75  15  
               0  1.125  15  
               0.375  1.125  15  
               0.75  1.125  15  
               1.125  1.125  15  
               1.5  1.125  15  
               1.875  1.125  15  
               2.25  1.125  15  
               2.625  1.125  15  
               3  1.125  15  
               0  1.5  15  
               0.375  1.5  15  
               0.75  1.5  15  
               1.125  1.5  15  
               1.5  1.5  15  
               1.875  1.5  15  
               2.25  1.5  15  
               2.625  1.5  15  
               3  1.5  15  
               0  1.875  15  
               0.375  1.875  15  
               0.75  1.875  15  
               1.125  1.875  15  
               1.5  1.875  15  
               1.875  1.875  15  
               2.25  1.875  15  
               2.625  1.875  15  
               3  1.875  15  
               0  2.25  15  
               0.375  2.25  15  
               0.75  2.25  15  
               1.125  2.25  15  
               1.5  2.25  15  
               1.875  2.25  15  
               2.25  2.25  15  
               2.625  2.25  15  
               3  2.25  15  
               0  2.625  15  
               0.375  2.625  15  
               0.75  2.625  15  
               1.125  2.625  15  
               1.5  2.625  15  
               1.875  2.625  15  
               2.25  2.625  15  
               2.625  2.625  15  
               3  2.625  15  
               0  3  15  
               0.375  3  15  
               0.75  3  15  
               1.125  3  15  
               1.5  3  15  
               1.875  3  15  
               2.25  3  15  
               2.625  3  15  
               3  3  15  
            </DataArray>
         </Points> 

         <Cells>
            <DataArray type="Int32" Name="connectivity" NumberOfComponents="1" format="ascii">
               
            </DataArray> 
            <DataArray type="Int32" Name="offsets" NumberOfComponents="1" format="ascii">
               
            </DataArray>
            <DataArray type="UInt8"  Name="types" NumberOfComponents="1" format="ascii">
               
            </DataArray>
         </Cells>
         <PointData Scalars="Rank " Vectors="Displacement Velocity Traction ">
            <DataArray type="UInt32" Name="Rank" NumberOfComponents="1" format="ascii">
               0 0 0 0 0 0 0 0 0 0 0 0 0 0 0 0 0 0 0 0 0 0 0 0 0 0 0 0 0 0 0 0 0 0 0 0 0 0 0 0 0 0 0 0 0 0 0 0 0 0 0 0 0 0 0 0 0 0 0 0 0 0 0 0 0 0 0 0 0 0 0 0 0 0 0 0 0 0 0 0 0 
            </DataArray>
            <DataArray type="Float64" Name="Displacement" NumberOfComponents="3" format="ascii">
               0.00111305 0.000965738 -0.00397647  0.00107075 0.000580563 -0.00411513  0.000919061 0.000377236 -0.00389011  0.000700547 0.000242636 -0.00382847  0.000477138 0.000224187 -0.00383664  0.000278261 0.000186649 -0.00374671  0.000142667 0.000297656 -0.0038725  7.00517e-05 0.000371435 -0.00408176  4.969e-05 0.000191623 -0.0036585  0.000719778 0.000924034 -0.00411588  0.000727314 0.000591861 -0.00407379  0.000626006 0.000447595 -0.0037362  0.000450441 0.00033073 -0.00367074  0.00024599 0.000317153 -0.00368385  3.71809e-05 0.000264157 -0.00361323  -0.00015041 0.00034313 -0.00375593  -0.000242692 0.000376505 -0.00418262  -0.000226966 0.000146656 -0.00401263  0.00049916 0.000774809 -0.0038912  0.000562787 0.000497231 -0.00373637  0.000497486 0.000390536 -0.00320065  0.000345778 0.000309627 -0.00307433  0.000175921 0.000289384 -0.0030994  8.7065e-06 0.000245813 -0.00306323  -0.000137764 0.000292109 -0.00320437  -0.00018722 0.000284277 -0.00376493  -0.000129067 2.84018e-05 -0.00384775  0.000355306 0.000563459 -0.00382892  0.000433371 0.000332723 -0.00367056  0.000404445 0.000246753 -0.00307399  0.000291094 0.000200606 -0.00289702  0.000144414 0.000174782 -0.00291713  -6.04514e-07 0.000133456 -0.0029058  -0.000112374 0.000141673 -0.00307355  -0.000130969 9.93669e-05 -0.00363327  -5.37814e-05 -0.000134491 -0.00374921  0.000325233 0.000352287 -0.00383707  0.000405398 0.00014596 -0.00368366  0.000368206 8.68144e-05 -0.00309906  0.000250537 5.98484e-05 -0.00291718  0.000115765 3.90239e-05 -0.0029438  -1.5163e-05 -1.31677e-05 -0.00291664  -0.000124639 -2.56191e-05 -0.00309404  -0.000145172 -0.000108966 -0.0036738  -5.78515e-05 -0.000319899 -0.00380646  0.000266863 0.000171577 -0.00374748  0.000331312 -4.28758e-05 -0.00361332  0.000311539 -7.33337e-05 -0.00306302  0.000207275 -8.25365e-05 -0.00290592  7.1636e-05 -9.90293e-05 -0.00291676  -6.3219e-05 -0.000162353 -0.00289013  -0.000167862 -0.000194668 -0.00306313  -0.000186534 -0.000315774 -0.00364929  -9.63302e-05 -0.000532474 -0.00378199  0.000374059 5.94265e-05 -0.00387305  0.000407365 -0.000211527 -0.00375575  0.000357001 -0.000217767 -0.00320389  0.000216222 -0.000193532 -0.00307337  6.37745e-05 -0.000218913 -0.00309385  -8.77125e-05 -0.000278612 -0.00306284  -0.000224982 -0.000346764 -0.00319798  -0.000282491 -0.000490614 -0.00373792  -0.000205993 -0.000773216 -0.00386298  0.000407354 6.77211e-06 -0.00408279  0.000410439 -0.00029257 -0.00418268  0.000333102 -0.000271509 -0.00376479  0.000173627 -0.000218292 -0.0036335  -7.49072e-06 -0.000253475 -0.00367389  -0.000189308 -0.000309814 -0.00364927  -0.000346559 -0.000417248 -0.00373824  -0.000435194 -0.000590456 -0.00408411  -0.000419249 -0.000946717 -0.00409755  0.000236635 -6.15473e-06 -0.00366196  0.000199704 -0.000279487 -0.00401441  0.000103861 -0.000226852 -0.00384895  -3.12978e-05 -0.000155718 -0.00375075  -0.000192847 -0.000180378 -0.00380788  -0.000387043 -0.000231103 -0.00378342  -0.00061461 -0.000348887 -0.00386497  -0.000781394 -0.000579716 -0.00409895  -0.000827463 -0.000994621 -0.00394184  
            </DataArray>
            <DataArray type="Float64" Name="Velocity" NumberOfComponents="3" format="ascii">
               0.00019267 0.00015437 -0.00618253  0.000183547 0.000214612 -0.00622795  0.000180115 0.000106965 -0.00580333  0.000172129 4.89602e-05 -0.00570719  0.000135948 2.60289e-05 -0.00573973  0.000108518 1.81831e-05 -0.00561436  0.000125246 0.000135553 -0.00577195  0.000175562 0.00010001 -0.00617069  0.000202525 6.79034e-05 -0.00584326  0.000250369 0.000144666 -0.00622665  0.00024802 0.000211958 -0.00587588  0.000229068 0.000117703 -0.0051881  0.000184563 7.83891e-05 -0.00508041  0.000124737 6.5419e-05 -0.00512198  6.00047e-05 4.63819e-05 -0.00501004  7.98481e-06 0.000140165 -0.00520642  7.22525e-06 0.000104 -0.00600929  2.8052e-05 5.56687e-05 -0.00608871  0.000136909 0.000140208 -0.00580277  0.000147599 0.000192705 -0.00518862  0.000150405 0.000120986 -0.00409615  0.000115988 0.000105741 -0.00389625  8.08142e-05 8.64894e-05 -0.00395921  4.64698e-05 7.71764e-05 -0.00388304  1.41952e-05 0.000141617 -0.00409415  2.33575e-05 0.00010279 -0.00521993  4.96912e-05 3.37386e-05 -0.00574132  7.7014e-05 0.000131793 -0.00570608  0.000105509 0.000148766 -0.00508092  0.000132387 8.7098e-05 -0.00389626  0.000121088 9.41561e-05 -0.00362594  8.86829e-05 7.89865e-05 -0.00367858  5.69233e-05 6.72169e-05 -0.00363461  4.80404e-05 9.68434e-05 -0.00389168  8.06606e-05 5.21747e-05 -0.00503272  0.000109788 9.54351e-06 -0.00561675  5.06266e-05 9.61424e-05 -0.00573845  8.81328e-05 9.16013e-05 -0.00512235  0.000108508 5.3485e-05 -0.00395897  0.000101892 6.23802e-05 -0.00367832  9.49584e-05 7.18617e-05 -0.0037352  9.07021e-05 3.42935e-05 -0.00367682  8.75572e-05 6.32919e-05 -0.00395296  0.000119538 -1.54609e-05 -0.00510829  0.000150894 9.92113e-06 -0.00570132  4.45685e-05 7.09779e-05 -0.00561353  7.02967e-05 3.10576e-05 -0.00501061  0.000100933 2.14373e-05 -0.00388274  9.28807e-05 3.18709e-05 -0.00363407  6.14447e-05 6.78641e-05 -0.0036766  2.92691e-05 1.17784e-06 -0.00361646  1.88367e-05 3.28082e-05 -0.00388323  4.88527e-05 -8.10193e-05 -0.0050562  8.10327e-05 -2.29954e-06 -0.0056516  0.000161974 9.24638e-05 -0.00577101  0.000163699 -1.5743e-05 -0.0052067  0.000165616 -8.14647e-06 -0.00409394  0.000123713 2.52486e-05 -0.00389143  9.2377e-05 6.5642e-05 -0.00395286  6.34596e-05 -8.82984e-06 -0.00388334  3.09287e-05 -4.13329e-07 -0.00409025  2.7172e-05 -0.000123064 -0.00519171  4.32566e-05 -3.63061e-05 -0.00577374  0.000123849 0.000147989 -0.00617127  0.000127019 -1.22795e-05 -0.00601003  0.000128849 2.21692e-06 -0.00522028  8.35825e-05 5.88787e-05 -0.00503354  2.05498e-05 9.78506e-05 -0.00510899  -4.18595e-05 2.1628e-05 -0.00505706  -8.28608e-05 -4.33436e-06 -0.00519262  -9.77362e-05 -0.000138034 -0.00589017  -9.61861e-05 -6.5366e-05 -0.00620938  9.89823e-05 0.00017716 -0.00584552  8.80626e-05 9.07527e-06 -0.00608991  6.99893e-05 2.68041e-05 -0.0057409  4.99379e-05 8.64698e-05 -0.00561663  5.26218e-05 0.000128205 -0.00570085  4.14743e-05 5.35184e-05 -0.00565137  7.75327e-06 1.19369e-05 -0.00577369  -2.15966e-05 -0.000136483 -0.00620812  -3.69612e-05 -8.08153e-05 -0.00614254  
            </DataArray>
            <DataArray type="Float64" Name="Traction" NumberOfComponents="3" format="ascii">
               0 0 0  0 0 0  0 0 0  0 0 0  0 0 0  0 0 0  0 0 0  0 0 0  0 0 0  0 0 0  0 0 0  0 0 0  0 0 0  0 0 0  0 0 0  0 0 0  0 0 0  0 0 0  0 0 0  0 0 0  0 0 0  0 0 0  0 0 0  0 0 0  0 0 0  0 0 0  0 0 0  0 0 0  0 0 0  0 0 0  0 0 0  0 0 0  0 0 0  0 0 0  0 0 0  0 0 0  0 0 0  0 0 0  0 0 0  0 0 0  0 0 0  0 0 0  0 0 0  0 0 0  0 0 0  0 0 0  0 0 0  0 0 0  0 0 0  0 0 0  0 0 0  0 0 0  0 0 0  0 0 0  0 0 0  0 0 0  0 0 0  0 0 0  0 0 0  0 0 0  0 0 0  0 0 0  0 0 0  0 0 0  0 0 0  0 0 0  0 0 0  0 0 0  0 0 0  0 0 0  0 0 0  0 0 0  0 0 0  0 0 0  0 0 0  0 0 0  0 0 0  0 0 0  0 0 0  0 0 0  0 0 0  
            </DataArray>
         </PointData> 
      </Piece>
   </UnstructuredGrid> 
</VTKFile>
