<?xml version="1.0"?>
<VTKFile type="UnstructuredGrid" version="0.1" byte_order="LittleEndian">
   <UnstructuredGrid>
      <Piece NumberOfPoints="81" NumberOfCells="0" > 
         <Points> 
            <DataArray type="Float64" Name="Position" NumberOfComponents="3" format="ascii"> 
               0  0  20  
               0.375  0  20  
               0.75  0  20  
               1.125  0  20  
               1.5  0  20  
               1.875  0  20  
               2.25  0  20  
               2.625  0  20  
               3  0  20  
               0  0.375  20  
               0.375  0.375  20  
               0.75  0.375  20  
               1.125  0.375  20  
               1.5  0.375  20  
               1.875  0.375  20  
               2.25  0.375  20  
               2.625  0.375  20  
               3  0.375  20  
               0  0.75  20  
               0.375  0.75  20  
               0.75  0.75  20  
               1.125  0.75  20  
               1.5  0.75  20  
               1.875  0.75  20  
               2.25  0.75  20  
               2.625  0.75  20  
               3  0.75  20  
               0  1.125  20  
               0.375  1.125  20  
               0.75  1.125  20  
               1.125  1.125  20  
               1.5  1.125  20  
               1.875  1.125  20  
               2.25  1.125  20  
               2.625  1.125  20  
               3  1.125  20  
               0  1.5  20  
               0.375  1.5  20  
               0.75  1.5  20  
               1.125  1.5  20  
               1.5  1.5  20  
               1.875  1.5  20  
               2.25  1.5  20  
               2.625  1.5  20  
               3  1.5  20  
               0  1.875  20  
               0.375  1.875  20  
               0.75  1.875  20  
               1.125  1.875  20  
               1.5  1.875  20  
               1.875  1.875  20  
               2.25  1.875  20  
               2.625  1.875  20  
               3  1.875  20  
               0  2.25  20  
               0.375  2.25  20  
               0.75  2.25  20  
               1.125  2.25  20  
               1.5  2.25  20  
               1.875  2.25  20  
               2.25  2.25  20  
               2.625  2.25  20  
               3  2.25  20  
               0  2.625  20  
               0.375  2.625  20  
               0.75  2.625  20  
               1.125  2.625  20  
               1.5  2.625  20  
               1.875  2.625  20  
               2.25  2.625  20  
               2.625  2.625  20  
               3  2.625  20  
               0  3  20  
               0.375  3  20  
               0.75  3  20  
               1.125  3  20  
               1.5  3  20  
               1.875  3  20  
               2.25  3  20  
               2.625  3  20  
               3  3  20  
            </DataArray>
         </Points> 

         <Cells>
            <DataArray type="Int32" Name="connectivity" NumberOfComponents="1" format="ascii">
               
            </DataArray> 
            <DataArray type="Int32" Name="offsets" NumberOfComponents="1" format="ascii">
               
            </DataArray>
            <DataArray type="UInt8"  Name="types" NumberOfComponents="1" format="ascii">
               
            </DataArray>
         </Cells>
         <PointData Scalars="Rank " Vectors="Displacement Velocity Traction ">
            <DataArray type="UInt32" Name="Rank" NumberOfComponents="1" format="ascii">
               0 0 0 0 0 0 0 0 0 0 0 0 0 0 0 0 0 0 0 0 0 0 0 0 0 0 0 0 0 0 0 0 0 0 0 0 0 0 0 0 0 0 0 0 0 0 0 0 0 0 0 0 0 0 0 0 0 0 0 0 0 0 0 0 0 0 0 0 0 0 0 0 0 0 0 0 0 0 0 0 0 
            </DataArray>
            <DataArray type="Float64" Name="Displacement" NumberOfComponents="3" format="ascii">
               2.29155e-06 2.30143e-06 -8.0284e-06  7.28008e-07 3.1093e-06 -8.14975e-06  1.65023e-07 3.76854e-06 -7.54269e-06  -5.37917e-08 3.82772e-06 -7.30668e-06  -2.46349e-07 3.80835e-06 -7.29875e-06  -5.8933e-07 3.94408e-06 -7.13619e-06  -1.14927e-06 3.67401e-06 -7.42999e-06  -9.54977e-07 2.56614e-06 -8.05932e-06  -1.75809e-06 2.66836e-06 -7.57303e-06  3.10504e-06 7.36918e-07 -8.14962e-06  1.32478e-06 1.33064e-06 -7.75536e-06  5.1585e-07 1.74152e-06 -6.88936e-06  1.42057e-07 1.82899e-06 -6.68397e-06  2.47727e-08 1.9232e-06 -6.6799e-06  -2.11668e-07 1.85015e-06 -6.56512e-06  -9.28831e-07 1.90499e-06 -6.8999e-06  -1.32399e-06 1.36457e-06 -7.96897e-06  -2.49098e-06 1.53093e-06 -7.93071e-06  3.76302e-06 1.71008e-07 -7.54411e-06  1.73585e-06 5.22596e-07 -6.89089e-06  8.0105e-07 8.07725e-07 -5.49576e-06  6.95772e-08 9.98519e-07 -5.1402e-06  -2.8118e-08 1.02393e-06 -5.14897e-06  -1.57708e-07 1.02549e-06 -5.10043e-06  -1.05853e-06 1.09459e-06 -5.48857e-06  -1.8019e-06 8.68825e-07 -6.9201e-06  -3.55363e-06 1.12363e-06 -7.37563e-06  3.82039e-06 -4.90119e-08 -7.30601e-06  1.82173e-06 1.47634e-07 -6.68453e-06  9.91171e-07 7.56391e-08 -5.13927e-06  2.54046e-07 2.6041e-07 -4.65235e-06  -1.31855e-10 2.06565e-07 -4.65402e-06  -2.43228e-07 2.93814e-07 -4.64485e-06  -9.79979e-07 2.24149e-07 -5.11368e-06  -1.77129e-06 2.61091e-07 -6.5971e-06  -3.82523e-06 3.61769e-07 -7.12593e-06  3.80206e-06 -2.41775e-07 -7.29826e-06  1.91589e-06 2.89122e-08 -6.6803e-06  1.01645e-06 -2.35295e-08 -5.14789e-06  2.00268e-07 5.03662e-09 -4.65392e-06  5.24107e-08 5.69381e-08 -4.68772e-06  -9.71924e-08 5.55535e-08 -4.65005e-06  -8.98774e-07 1.23288e-07 -5.14409e-06  -1.72342e-06 5.7096e-08 -6.6594e-06  -3.55249e-06 3.74461e-07 -7.22739e-06  3.93765e-06 -5.83662e-07 -7.13705e-06  1.84314e-06 -2.066e-07 -6.56629e-06  1.01805e-06 -1.52852e-07 -5.09973e-06  2.87714e-07 -2.38089e-07 -4.64488e-06  5.14007e-08 -9.31468e-08 -4.65032e-06  -2.08082e-07 -2.04838e-07 -4.63482e-06  -9.61172e-07 4.65921e-08 -5.12566e-06  -1.75415e-06 -1.2825e-07 -6.65491e-06  -3.75517e-06 3.75697e-07 -7.22049e-06  3.66783e-06 -1.1435e-06 -7.42973e-06  1.89757e-06 -9.21211e-07 -6.89987e-06  1.08649e-06 -1.05147e-06 -5.48693e-06  2.1846e-07 -9.74627e-07 -5.11284e-06  1.19914e-07 -8.94481e-07 -5.14343e-06  4.40094e-08 -9.57896e-07 -5.12487e-06  -7.27437e-07 -7.24661e-07 -5.48965e-06  -1.66441e-06 -5.22169e-07 -6.90014e-06  -3.69523e-06 -1.37495e-07 -7.5042e-06  2.56263e-06 -9.54476e-07 -8.06062e-06  1.35828e-06 -1.31962e-06 -7.96947e-06  8.61218e-07 -1.79704e-06 -6.91986e-06  2.56379e-07 -1.76811e-06 -6.59789e-06  5.45995e-08 -1.72103e-06 -6.65975e-06  -1.30461e-07 -1.75281e-06 -6.65518e-06  -5.24871e-07 -1.66345e-06 -6.90122e-06  -1.27817e-06 -1.27721e-06 -7.78007e-06  -3.03682e-06 -7.62301e-07 -8.13166e-06  2.66519e-06 -1.76152e-06 -7.58022e-06  1.52687e-06 -2.49064e-06 -7.93433e-06  1.11834e-06 -3.55182e-06 -7.37757e-06  3.57749e-07 -3.82408e-06 -7.12941e-06  3.73098e-07 -3.55253e-06 -7.23059e-06  3.746e-07 -3.75637e-06 -7.22397e-06  -1.41041e-07 -3.6966e-06 -7.50855e-06  -7.67612e-07 -3.03828e-06 -8.13446e-06  -2.30849e-06 -2.30384e-06 -7.99009e-06  
            </DataArray>
            <DataArray type="Float64" Name="Velocity" NumberOfComponents="3" format="ascii">
               3.62096e-06 3.66411e-06 -1.32141e-05  1.29606e-06 4.93556e-06 -1.35648e-05  2.84782e-07 5.96681e-06 -1.26577e-05  -8.09322e-08 6.04708e-06 -1.22827e-05  -3.93092e-07 6.11405e-06 -1.22013e-05  -9.6569e-07 6.29025e-06 -1.20109e-05  -1.90288e-06 5.83331e-06 -1.24869e-05  -1.58791e-06 4.00715e-06 -1.34142e-05  -2.65683e-06 4.19522e-06 -1.23915e-05  4.89471e-06 1.33107e-06 -1.35427e-05  2.20741e-06 2.24295e-06 -1.30981e-05  8.50545e-07 2.90474e-06 -1.18017e-05  2.39726e-07 3.03004e-06 -1.14585e-05  1.28417e-08 3.21044e-06 -1.13637e-05  -3.89612e-07 3.07395e-06 -1.12591e-05  -1.58618e-06 3.20446e-06 -1.18343e-05  -2.22797e-06 2.30378e-06 -1.34763e-05  -3.87401e-06 2.58453e-06 -1.3203e-05  5.92981e-06 3.15249e-07 -1.26471e-05  2.87687e-06 8.84394e-07 -1.1808e-05  1.31945e-06 1.35038e-06 -9.69049e-06  1.7548e-07 1.62421e-06 -9.1198e-06  -2.56221e-08 1.69906e-06 -9.05905e-06  -2.72354e-07 1.66897e-06 -9.05988e-06  -1.77895e-06 1.8588e-06 -9.69846e-06  -3.05873e-06 1.46641e-06 -1.18461e-05  -5.65671e-06 1.90559e-06 -1.24094e-05  6.00591e-06 -4.74969e-08 -1.22661e-05  2.99651e-06 2.75026e-07 -1.14612e-05  1.5917e-06 2.12394e-07 -9.1171e-06  4.2696e-07 4.63019e-07 -8.331e-06  -3.29885e-08 4.30642e-07 -8.23317e-06  -4.47477e-07 5.20876e-07 -8.32979e-06  -1.60233e-06 4.74042e-07 -9.09777e-06  -2.9527e-06 4.67342e-07 -1.13213e-05  -6.10415e-06 6.58217e-07 -1.19886e-05  6.07447e-06 -3.6206e-07 -1.2184e-05  3.17709e-06 4.29135e-08 -1.13658e-05  1.66477e-06 7.01421e-09 -9.05547e-06  3.92357e-07 -5.50248e-11 -8.23238e-06  9.41277e-08 1.2876e-07 -8.15995e-06  -2.04906e-07 9.60703e-08 -8.23096e-06  -1.47413e-06 2.31563e-07 -9.03334e-06  -2.87708e-06 1.46956e-07 -1.13502e-05  -5.68206e-06 6.36828e-07 -1.20839e-05  6.24598e-06 -9.27433e-07 -1.19958e-05  3.03747e-06 -3.54177e-07 -1.12638e-05  1.63208e-06 -2.33322e-07 -9.05803e-06  4.81582e-07 -4.09809e-07 -8.33099e-06  6.16493e-08 -1.65713e-07 -8.23203e-06  -3.85556e-07 -3.48097e-07 -8.30606e-06  -1.57335e-06 1.90085e-08 -9.08239e-06  -2.91137e-06 -1.97375e-07 -1.14005e-05  -5.9224e-06 6.16872e-07 -1.21222e-05  5.79489e-06 -1.86451e-06 -1.24673e-05  3.17071e-06 -1.55064e-06 -1.18345e-05  1.82265e-06 -1.73945e-06 -9.69249e-06  4.36032e-07 -1.56501e-06 -9.0944e-06  1.98499e-07 -1.43729e-06 -9.03008e-06  -1.76687e-08 -1.53661e-06 -9.07895e-06  -1.23326e-06 -1.19962e-06 -9.69794e-06  -2.77962e-06 -8.55942e-07 -1.18124e-05  -5.84477e-06 -2.35847e-07 -1.25664e-05  3.96907e-06 -1.55456e-06 -1.34014e-05  2.27021e-06 -2.19616e-06 -1.34824e-05  1.43195e-06 -3.0228e-06 -1.18472e-05  4.32873e-07 -2.9179e-06 -1.13261e-05  1.16765e-07 -2.8448e-06 -1.13545e-05  -2.30003e-07 -2.87672e-06 -1.14038e-05  -8.8969e-07 -2.75088e-06 -1.18186e-05  -2.14056e-06 -2.10971e-06 -1.31466e-05  -4.78713e-06 -1.33429e-06 -1.35225e-05  4.15618e-06 -2.62087e-06 -1.2366e-05  2.55102e-06 -3.84019e-06 -1.31937e-05  1.86899e-06 -5.61885e-06 -1.23922e-05  6.21581e-07 -6.06093e-06 -1.19764e-05  6.06564e-07 -5.64532e-06 -1.20739e-05  5.80926e-07 -5.88705e-06 -1.21131e-05  -2.70316e-07 -5.81199e-06 -1.25634e-05  -1.36996e-06 -4.75796e-06 -1.35104e-05  -3.64717e-06 -3.60615e-06 -1.31238e-05  
            </DataArray>
            <DataArray type="Float64" Name="Traction" NumberOfComponents="3" format="ascii">
               -1.96316e-05 -1.95093e-05 -0.000200632  -9.49667e-06 -3.49758e-05 -0.000200632  -4.72851e-06 -4.36009e-05 -0.000200632  -5.65127e-07 -4.27568e-05 -0.000200632  -1.73617e-06 -4.24174e-05 -0.000200632  6.06023e-06 -4.34416e-05 -0.000200632  2.30896e-05 -4.01e-05 -0.000200632  9.38694e-06 -2.26232e-05 -0.000200632  7.19428e-06 -1.87437e-05 -0.000200632  -3.51483e-05 -9.35754e-06 -0.000200632  -1.9865e-05 -1.97023e-05 -0.000200632  -7.98517e-06 -2.81374e-05 -0.000200632  -2.35567e-06 -2.94388e-05 -0.000200632  -4.02138e-06 -3.02613e-05 -0.000200632  2.51043e-06 -2.87751e-05 -0.000200632  2.5181e-05 -2.89976e-05 -0.000200632  1.81046e-05 -1.87773e-05 -0.000200632  2.01514e-05 -1.52928e-05 -0.000200632  -4.37656e-05 -4.61624e-06 -0.000200632  -2.83074e-05 -7.86721e-06 -0.000200632  -1.33531e-05 -1.32238e-05 -0.000200632  -2.07614e-06 -1.70686e-05 -0.000200632  -2.56333e-06 -1.7463e-05 -0.000200632  2.62191e-06 -1.66541e-05 -0.000200632  2.97023e-05 -1.63653e-05 -0.000200632  2.78215e-05 -1.30977e-05 -0.000200632  3.78616e-05 -1.45578e-05 -0.000200632  -4.28961e-05 -4.34838e-07 -0.000200632  -2.96014e-05 -2.22905e-06 -0.000200632  -1.72003e-05 -1.94276e-06 -0.000200632  -4.65447e-06 -4.5206e-06 -0.000200632  -2.56523e-06 -3.61803e-06 -0.000200632  4.25362e-06 -4.4614e-06 -0.000200632  2.9256e-05 -3.09686e-06 -0.000200632  2.81025e-05 -2.98537e-06 -0.000200632  4.17402e-05 -3.15441e-06 -0.000200632  -4.25545e-05 -1.58376e-06 -0.000200632  -3.04061e-05 -3.8557e-06 -0.000200632  -1.75904e-05 -2.40165e-06 -0.000200632  -3.77159e-06 -2.40761e-06 -0.000200632  -3.54369e-06 -3.35952e-06 -0.000200632  2.78468e-06 -2.93326e-06 -0.000200632  2.88422e-05 -2.9962e-06 -0.000200632  2.81674e-05 -1.33299e-06 -0.000200632  3.9347e-05 -4.7644e-06 -0.000200632  -4.36174e-05 6.16728e-06 -0.000200632  -2.89695e-05 2.64889e-06 -0.000200632  -1.68089e-05 2.75729e-06 -0.000200632  -4.6169e-06 4.39639e-06 -0.000200632  -3.10736e-06 2.94655e-06 -0.000200632  4.18395e-06 4.33764e-06 -0.000200632  2.97995e-05 1.03615e-06 -0.000200632  2.85822e-05 2.60251e-06 -0.000200632  4.15243e-05 -2.53031e-06 -0.000200632  -4.02276e-05 2.32014e-05 -0.000200632  -2.91368e-05 2.52853e-05 -0.000200632  -1.64752e-05 2.97988e-05 -0.000200632  -3.24283e-06 2.9408e-05 -0.000200632  -3.16938e-06 2.89805e-05 -0.000200632  8.78197e-07 2.99505e-05 -0.000200632  2.54086e-05 2.55581e-05 -0.000200632  2.74107e-05 1.66774e-05 -0.000200632  4.22828e-05 1.13483e-05 -0.000200632  -2.28355e-05 9.61246e-06 -0.000200632  -1.8957e-05 1.82714e-05 -0.000200632  -1.32211e-05 2.79326e-05 -0.000200632  -3.13649e-06 2.82857e-05 -0.000200632  -1.4962e-06 2.83267e-05 -0.000200632  2.46224e-06 2.87721e-05 -0.000200632  1.65434e-05 2.75922e-05 -0.000200632  1.92502e-05 1.94183e-05 -0.000200632  3.37419e-05 1.01011e-05 -0.000200632  -1.89798e-05 7.49888e-06 -0.000200632  -1.54973e-05 2.03817e-05 -0.000200632  -1.46724e-05 3.79975e-05 -0.000200632  -3.27155e-06 4.19431e-05 -0.000200632  -4.90849e-06 3.955e-05 -0.000200632  -2.67035e-06 4.17604e-05 -0.000200632  1.12209e-05 4.25112e-05 -0.000200632  9.97659e-06 3.39547e-05 -0.000200632  1.94086e-05 1.95528e-05 -0.000200632  
            </DataArray>
         </PointData> 
      </Piece>
   </UnstructuredGrid> 
</VTKFile>
