<?xml version="1.0"?>
<VTKFile type="UnstructuredGrid" version="0.1" byte_order="LittleEndian">
   <UnstructuredGrid>
      <Piece NumberOfPoints="81" NumberOfCells="0" > 
         <Points> 
            <DataArray type="Float64" Name="Position" NumberOfComponents="3" format="ascii"> 
               0  0  15  
               0.375  0  15  
               0.75  0  15  
               1.125  0  15  
               1.5  0  15  
               1.875  0  15  
               2.25  0  15  
               2.625  0  15  
               3  0  15  
               0  0.375  15  
               0.375  0.375  15  
               0.75  0.375  15  
               1.125  0.375  15  
               1.5  0.375  15  
               1.875  0.375  15  
               2.25  0.375  15  
               2.625  0.375  15  
               3  0.375  15  
               0  0.75  15  
               0.375  0.75  15  
               0.75  0.75  15  
               1.125  0.75  15  
               1.5  0.75  15  
               1.875  0.75  15  
               2.25  0.75  15  
               2.625  0.75  15  
               3  0.75  15  
               0  1.125  15  
               0.375  1.125  15  
               0.75  1.125  15  
               1.125  1.125  15  
               1.5  1.125  15  
               1.875  1.125  15  
               2.25  1.125  15  
               2.625  1.125  15  
               3  1.125  15  
               0  1.5  15  
               0.375  1.5  15  
               0.75  1.5  15  
               1.125  1.5  15  
               1.5  1.5  15  
               1.875  1.5  15  
               2.25  1.5  15  
               2.625  1.5  15  
               3  1.5  15  
               0  1.875  15  
               0.375  1.875  15  
               0.75  1.875  15  
               1.125  1.875  15  
               1.5  1.875  15  
               1.875  1.875  15  
               2.25  1.875  15  
               2.625  1.875  15  
               3  1.875  15  
               0  2.25  15  
               0.375  2.25  15  
               0.75  2.25  15  
               1.125  2.25  15  
               1.5  2.25  15  
               1.875  2.25  15  
               2.25  2.25  15  
               2.625  2.25  15  
               3  2.25  15  
               0  2.625  15  
               0.375  2.625  15  
               0.75  2.625  15  
               1.125  2.625  15  
               1.5  2.625  15  
               1.875  2.625  15  
               2.25  2.625  15  
               2.625  2.625  15  
               3  2.625  15  
               0  3  15  
               0.375  3  15  
               0.75  3  15  
               1.125  3  15  
               1.5  3  15  
               1.875  3  15  
               2.25  3  15  
               2.625  3  15  
               3  3  15  
            </DataArray>
         </Points> 

         <Cells>
            <DataArray type="Int32" Name="connectivity" NumberOfComponents="1" format="ascii">
               
            </DataArray> 
            <DataArray type="Int32" Name="offsets" NumberOfComponents="1" format="ascii">
               
            </DataArray>
            <DataArray type="UInt8"  Name="types" NumberOfComponents="1" format="ascii">
               
            </DataArray>
         </Cells>
         <PointData Scalars="Rank " Vectors="Displacement Velocity Traction ">
            <DataArray type="UInt32" Name="Rank" NumberOfComponents="1" format="ascii">
               0 0 0 0 0 0 0 0 0 0 0 0 0 0 0 0 0 0 0 0 0 0 0 0 0 0 0 0 0 0 0 0 0 0 0 0 0 0 0 0 0 0 0 0 0 0 0 0 0 0 0 0 0 0 0 0 0 0 0 0 0 0 0 0 0 0 0 0 0 0 0 0 0 0 0 0 0 0 0 0 0 
            </DataArray>
            <DataArray type="Float64" Name="Displacement" NumberOfComponents="3" format="ascii">
               5.45895e-07 8.99654e-07 -1.82828e-07  4.71854e-07 6.7681e-07 -1.72007e-07  2.73539e-07 2.94902e-07 -1.54462e-07  1.27636e-07 9.23384e-08 -1.51744e-07  2.5336e-08 4.16214e-07 -1.55058e-07  -5.61068e-08 1.49207e-07 -1.51251e-07  -1.09058e-07 8.23522e-07 -1.53737e-07  -1.9912e-07 8.562e-07 -1.68903e-07  -2.42718e-07 4.18445e-07 -1.81284e-07  5.18575e-08 8.19275e-07 -1.7163e-07  8.93335e-08 6.93845e-07 -1.40891e-07  -3.06177e-09 4.05865e-07 -1.09342e-07  -1.6746e-07 1.5413e-07 -1.05206e-07  -3.18943e-07 4.6367e-07 -1.08523e-07  -5.01377e-07 2.30363e-07 -1.049e-07  -7.11988e-07 8.79601e-07 -1.08814e-07  -8.19191e-07 8.42824e-07 -1.41473e-07  -7.85837e-07 3.48655e-07 -1.68694e-07  -4.34419e-07 6.48637e-07 -1.54087e-07  -3.3605e-07 5.75299e-07 -1.09473e-07  -3.02392e-07 4.07295e-07 -6.07549e-08  -3.88903e-07 2.06279e-07 -5.41719e-08  -5.23841e-07 4.29919e-07 -5.78941e-08  -7.19876e-07 3.11091e-07 -5.41596e-08  -9.68798e-07 8.36974e-07 -6.00306e-08  -1.05233e-06 6.84195e-07 -1.09257e-07  -9.78365e-07 1.9482e-07 -1.53459e-07  -3.22265e-07 4.86949e-07 -1.51523e-07  -2.44525e-07 4.11933e-07 -1.05239e-07  -2.02283e-07 3.1067e-07 -5.41296e-08  -2.26427e-07 2.01705e-07 -4.59256e-08  -2.73939e-07 3.2393e-07 -4.91827e-08  -3.5272e-07 2.68683e-07 -4.58474e-08  -3.99854e-07 6.22096e-07 -5.39457e-08  -3.54751e-07 4.50977e-07 -1.04878e-07  -2.79436e-07 7.39345e-08 -1.51362e-07  -3.70072e-07 3.34125e-07 -1.54619e-07  -2.87524e-07 2.54177e-07 -1.08581e-07  -2.37572e-07 2.06297e-07 -5.78139e-08  -2.19499e-07 1.08041e-07 -4.92026e-08  -2.50273e-07 2.03692e-07 -5.23615e-08  -3.48157e-07 1.67972e-07 -4.90431e-08  -4.58865e-07 3.89415e-07 -5.7924e-08  -4.80901e-07 2.54763e-07 -1.08083e-07  -3.98296e-07 -7.59805e-08 -1.54766e-07  -1.39283e-07 1.68732e-07 -1.51127e-07  -8.5192e-08 1.4113e-07 -1.04947e-07  -1.03148e-07 1.43696e-07 -5.4159e-08  -1.38432e-07 1.8673e-09 -4.58529e-08  -2.01794e-07 1.04429e-07 -4.90441e-08  -2.86721e-07 8.0997e-08 -4.56209e-08  -3.39206e-07 2.12532e-07 -5.39928e-08  -3.57156e-07 9.8186e-08 -1.05022e-07  -2.80422e-07 -2.94494e-07 -1.51497e-07  -3.28373e-07 2.25798e-08 -1.53101e-07  -2.93334e-07 9.10715e-08 -1.08849e-07  -2.772e-07 1.0289e-07 -5.98446e-08  -2.41679e-07 -1.16433e-07 -5.39642e-08  -2.52312e-07 2.07792e-08 -5.78649e-08  -3.01865e-07 -5.27429e-08 -5.39684e-08  -3.44695e-07 5.53607e-08 -6.03677e-08  -3.61477e-07 -6.99081e-08 -1.09531e-07  -2.5609e-07 -5.6464e-07 -1.54406e-07  -2.23558e-07 -4.21222e-08 -1.68351e-07  -2.28489e-07 5.62421e-08 -1.4162e-07  -2.32294e-07 4.73046e-08 -1.09251e-07  -2.32845e-07 -2.35146e-07 -1.04906e-07  -2.89677e-07 -3.70284e-08 -1.08096e-07  -3.93689e-07 -1.44238e-07 -1.05031e-07  -5.039e-07 -3.35436e-08 -1.09581e-07  -5.71011e-07 -1.89222e-07 -1.41127e-07  -5.29363e-07 -8.07306e-07 -1.71836e-07  5.68949e-08 -4.97836e-08 -1.81132e-07  3.0179e-08 4.95182e-08 -1.68299e-07  -5.37547e-08 5.80435e-08 -1.52852e-07  -2.19696e-07 -2.19242e-07 -1.51334e-07  -4.25609e-07 1.43104e-08 -1.545e-07  -6.57601e-07 -7.76616e-08 -1.51361e-07  -9.33312e-07 4.3024e-08 -1.54261e-07  -1.15068e-06 -1.68343e-07 -1.71608e-07  -1.22065e-06 -8.88565e-07 -1.82802e-07  
            </DataArray>
            <DataArray type="Float64" Name="Velocity" NumberOfComponents="3" format="ascii">
               2.02652e-06 2.79486e-06 -4.95918e-07  1.85739e-06 1.81057e-06 -4.74961e-07  1.39801e-06 4.86818e-07 -4.25543e-07  1.00406e-06 -2.84129e-08 -4.16141e-07  7.06053e-07 3.14217e-07 -4.2e-07  4.80894e-07 -9.81792e-09 -4.13616e-07  3.34437e-07 1.32028e-06 -4.20132e-07  1.37878e-07 5.85072e-07 -4.60445e-07  3.16884e-08 -2.58807e-07 -4.88756e-07  6.67455e-07 2.6368e-06 -4.74278e-07  7.60037e-07 1.85138e-06 -3.95854e-07  5.95098e-07 6.98032e-07 -3.16619e-07  3.31343e-07 8.52579e-08 -3.03777e-07  1.22574e-07 4.46265e-07 -3.08886e-07  -1.70844e-07 1.49553e-07 -3.02326e-07  -4.52942e-07 1.36941e-06 -3.14494e-07  -6.09452e-07 6.39695e-07 -4.00222e-07  -6.93657e-07 -1.97979e-07 -4.59176e-07  -4.01617e-07 2.25608e-06 -4.2516e-07  -2.04547e-07 1.62616e-06 -3.16839e-07  -1.94084e-07 7.24825e-07 -1.93556e-07  -3.52627e-07 1.42891e-07 -1.7306e-07  -5.38453e-07 4.12877e-07 -1.78133e-07  -8.54622e-07 3.31328e-07 -1.72973e-07  -1.23037e-06 1.23405e-06 -1.89852e-07  -1.42137e-06 6.06722e-07 -3.16123e-07  -1.54872e-06 -5.4837e-08 -4.18305e-07  -2.20693e-07 1.83524e-06 -4.16067e-07  -7.03899e-08 1.35565e-06 -3.03808e-07  -1.22856e-07 7.22032e-07 -1.73041e-07  -3.00503e-07 2.18394e-07 -1.48675e-07  -4.41934e-07 3.01449e-07 -1.52104e-07  -6.14159e-07 3.76225e-07 -1.48574e-07  -7.0903e-07 9.18919e-07 -1.7233e-07  -7.32801e-07 5.67094e-07 -3.02431e-07  -8.32684e-07 1.71016e-07 -4.13949e-07  -5.70394e-07 1.41371e-06 -4.19469e-07  -3.66204e-07 1.094e-06 -3.08936e-07  -2.90139e-07 7.14286e-07 -1.78021e-07  -2.90872e-07 1.96512e-07 -1.52122e-07  -3.51815e-07 2.20374e-07 -1.56976e-07  -5.19339e-07 3.41768e-07 -1.51684e-07  -7.29584e-07 6.62679e-07 -1.78511e-07  -8.87093e-07 5.93047e-07 -3.07309e-07  -9.4507e-07 2.84512e-07 -4.18775e-07  -2.86351e-07 9.59284e-07 -4.13567e-07  -1.40621e-07 8.90714e-07 -3.02416e-07  -1.63814e-07 7.20342e-07 -1.72992e-07  -1.86053e-07 1.09275e-07 -1.48599e-07  -2.37896e-07 1.64387e-07 -1.51692e-07  -3.39795e-07 2.86459e-07 -1.47633e-07  -3.96334e-07 5.0281e-07 -1.72724e-07  -4.92208e-07 6.4181e-07 -3.0312e-07  -5.19519e-07 2.25009e-07 -4.14611e-07  -1.02747e-06 5.62865e-07 -4.18907e-07  -9.72663e-07 8.49964e-07 -3.1459e-07  -9.83987e-07 7.89449e-07 -1.89461e-07  -8.42203e-07 -3.95759e-08 -1.72359e-07  -7.15526e-07 9.90536e-08 -1.78401e-07  -6.50327e-07 7.79707e-08 -1.72687e-07  -5.98536e-07 2.95268e-07 -1.92526e-07  -6.57342e-07 6.26749e-07 -3.17522e-07  -6.56024e-07 6.2669e-08 -4.25095e-07  -1.21532e-06 3.45298e-07 -4.59625e-07  -1.13397e-06 8.1805e-07 -4.00444e-07  -9.58977e-07 7.29203e-07 -3.16143e-07  -6.83772e-07 -3.00478e-07 -3.02515e-07  -4.66857e-07 -4.29125e-08 -3.07346e-07  -3.56606e-07 -1.53079e-07 -3.0313e-07  -2.9195e-07 8.40298e-08 -3.17668e-07  -2.80435e-07 5.86133e-07 -3.97214e-07  -2.7535e-07 -6.28473e-08 -4.7421e-07  -7.33272e-07 2.6665e-07 -4.88987e-07  -6.37096e-07 7.13684e-07 -4.58607e-07  -4.63685e-07 5.77267e-07 -4.17136e-07  -3.94891e-07 -4.56546e-07 -4.13828e-07  -4.12733e-07 -1.29689e-07 -4.18263e-07  -4.96109e-07 -1.94271e-07 -4.14405e-07  -6.62909e-07 4.1926e-08 -4.24759e-07  -7.26749e-07 5.76273e-07 -4.73649e-07  -7.0881e-07 -8.5613e-08 -4.92593e-07  
            </DataArray>
            <DataArray type="Float64" Name="Traction" NumberOfComponents="3" format="ascii">
               0 0 0  0 0 0  0 0 0  0 0 0  0 0 0  0 0 0  0 0 0  0 0 0  0 0 0  0 0 0  0 0 0  0 0 0  0 0 0  0 0 0  0 0 0  0 0 0  0 0 0  0 0 0  0 0 0  0 0 0  0 0 0  0 0 0  0 0 0  0 0 0  0 0 0  0 0 0  0 0 0  0 0 0  0 0 0  0 0 0  0 0 0  0 0 0  0 0 0  0 0 0  0 0 0  0 0 0  0 0 0  0 0 0  0 0 0  0 0 0  0 0 0  0 0 0  0 0 0  0 0 0  0 0 0  0 0 0  0 0 0  0 0 0  0 0 0  0 0 0  0 0 0  0 0 0  0 0 0  0 0 0  0 0 0  0 0 0  0 0 0  0 0 0  0 0 0  0 0 0  0 0 0  0 0 0  0 0 0  0 0 0  0 0 0  0 0 0  0 0 0  0 0 0  0 0 0  0 0 0  0 0 0  0 0 0  0 0 0  0 0 0  0 0 0  0 0 0  0 0 0  0 0 0  0 0 0  0 0 0  0 0 0  
            </DataArray>
         </PointData> 
      </Piece>
   </UnstructuredGrid> 
</VTKFile>
