<?xml version="1.0"?>
<VTKFile type="UnstructuredGrid" version="0.1" byte_order="LittleEndian">
   <UnstructuredGrid>
      <Piece NumberOfPoints="81" NumberOfCells="0" > 
         <Points> 
            <DataArray type="Float64" Name="Position" NumberOfComponents="3" format="ascii"> 
               0  0  15  
               0.375  0  15  
               0.75  0  15  
               1.125  0  15  
               1.5  0  15  
               1.875  0  15  
               2.25  0  15  
               2.625  0  15  
               3  0  15  
               0  0.375  15  
               0.375  0.375  15  
               0.75  0.375  15  
               1.125  0.375  15  
               1.5  0.375  15  
               1.875  0.375  15  
               2.25  0.375  15  
               2.625  0.375  15  
               3  0.375  15  
               0  0.75  15  
               0.375  0.75  15  
               0.75  0.75  15  
               1.125  0.75  15  
               1.5  0.75  15  
               1.875  0.75  15  
               2.25  0.75  15  
               2.625  0.75  15  
               3  0.75  15  
               0  1.125  15  
               0.375  1.125  15  
               0.75  1.125  15  
               1.125  1.125  15  
               1.5  1.125  15  
               1.875  1.125  15  
               2.25  1.125  15  
               2.625  1.125  15  
               3  1.125  15  
               0  1.5  15  
               0.375  1.5  15  
               0.75  1.5  15  
               1.125  1.5  15  
               1.5  1.5  15  
               1.875  1.5  15  
               2.25  1.5  15  
               2.625  1.5  15  
               3  1.5  15  
               0  1.875  15  
               0.375  1.875  15  
               0.75  1.875  15  
               1.125  1.875  15  
               1.5  1.875  15  
               1.875  1.875  15  
               2.25  1.875  15  
               2.625  1.875  15  
               3  1.875  15  
               0  2.25  15  
               0.375  2.25  15  
               0.75  2.25  15  
               1.125  2.25  15  
               1.5  2.25  15  
               1.875  2.25  15  
               2.25  2.25  15  
               2.625  2.25  15  
               3  2.25  15  
               0  2.625  15  
               0.375  2.625  15  
               0.75  2.625  15  
               1.125  2.625  15  
               1.5  2.625  15  
               1.875  2.625  15  
               2.25  2.625  15  
               2.625  2.625  15  
               3  2.625  15  
               0  3  15  
               0.375  3  15  
               0.75  3  15  
               1.125  3  15  
               1.5  3  15  
               1.875  3  15  
               2.25  3  15  
               2.625  3  15  
               3  3  15  
            </DataArray>
         </Points> 

         <Cells>
            <DataArray type="Int32" Name="connectivity" NumberOfComponents="1" format="ascii">
               
            </DataArray> 
            <DataArray type="Int32" Name="offsets" NumberOfComponents="1" format="ascii">
               
            </DataArray>
            <DataArray type="UInt8"  Name="types" NumberOfComponents="1" format="ascii">
               
            </DataArray>
         </Cells>
         <PointData Scalars="Rank " Vectors="Displacement Velocity Traction ">
            <DataArray type="UInt32" Name="Rank" NumberOfComponents="1" format="ascii">
               0 0 0 0 0 0 0 0 0 0 0 0 0 0 0 0 0 0 0 0 0 0 0 0 0 0 0 0 0 0 0 0 0 0 0 0 0 0 0 0 0 0 0 0 0 0 0 0 0 0 0 0 0 0 0 0 0 0 0 0 0 0 0 0 0 0 0 0 0 0 0 0 0 0 0 0 0 0 0 0 0 
            </DataArray>
            <DataArray type="Float64" Name="Displacement" NumberOfComponents="3" format="ascii">
               2.35344e-06 3.66638e-06 -6.51922e-07  2.19402e-06 2.20564e-06 -6.36335e-07  1.68727e-06 1.0462e-06 -5.7489e-07  1.27488e-06 2.6729e-07 -5.50807e-07  1.05587e-06 6.94907e-07 -5.52934e-07  9.66141e-07 1.06101e-07 -5.44318e-07  9.99386e-07 1.41916e-06 -5.61821e-07  9.51448e-07 7.90121e-07 -6.21393e-07  9.04966e-07 -1.53791e-07 -6.33178e-07  7.56159e-07 3.41657e-06 -6.35126e-07  9.09565e-07 2.20733e-06 -5.5988e-07  7.57645e-07 1.2239e-06 -4.72817e-07  4.93174e-07 3.24439e-07 -4.49238e-07  3.17015e-07 7.05443e-07 -4.49832e-07  1.10891e-07 1.28216e-07 -4.44449e-07  -1.48217e-07 1.40321e-06 -4.69994e-07  -3.18394e-07 7.80581e-07 -5.72655e-07  -3.57184e-07 -1.60149e-07 -6.14623e-07  8.22772e-08 2.79243e-06 -5.74229e-07  3.69148e-07 1.88122e-06 -4.73105e-07  3.33319e-07 1.09609e-06 -3.33541e-07  7.36731e-08 2.82005e-07 -2.97077e-07  -2.47657e-07 5.20531e-07 -2.97579e-07  -6.99264e-07 1.75305e-07 -2.95597e-07  -1.27018e-06 1.24365e-06 -3.29298e-07  -1.60521e-06 6.6097e-07 -4.71726e-07  -1.69294e-06 -1.71964e-07 -5.58495e-07  3.40115e-07 2.07054e-06 -5.50534e-07  5.74986e-07 1.47746e-06 -4.49284e-07  4.88376e-07 8.97435e-07 -2.97046e-07  2.26147e-07 2.14526e-07 -2.52545e-07  -1.64594e-08 2.56515e-07 -2.52125e-07  -3.23868e-07 9.81189e-08 -2.52508e-07  -5.70163e-07 8.60971e-07 -2.95107e-07  -7.15547e-07 5.16949e-07 -4.45663e-07  -8.08859e-07 -1.14669e-07 -5.43476e-07  -4.66899e-08 1.45123e-06 -5.5224e-07  1.70006e-07 1.07557e-06 -4.49937e-07  1.81276e-07 7.01364e-07 -2.97433e-07  8.1827e-08 2.88771e-09 -2.52115e-07  -1.27697e-07 1.42702e-08 -2.529e-07  -4.83287e-07 -6.60158e-08 -2.51646e-07  -8.85902e-07 5.13031e-07 -2.97265e-07  -1.17532e-06 4.65894e-07 -4.48799e-07  -1.23135e-06 -1.45975e-07 -5.48487e-07  4.29333e-07 8.86792e-07 -5.44374e-07  5.63352e-07 7.76805e-07 -4.44513e-07  3.97618e-07 6.04343e-07 -2.9565e-07  1.63279e-07 -2.16395e-07 -2.52477e-07  -1.13371e-07 -1.54073e-07 -2.51666e-07  -4.19219e-07 -2.05613e-07 -2.51447e-07  -6.25986e-07 2.59356e-07 -2.9666e-07  -8.11424e-07 4.40183e-07 -4.48392e-07  -8.16001e-07 -3.39929e-07 -5.46122e-07  -7.17899e-07 4.32079e-07 -5.60497e-07  -6.15568e-07 5.96688e-07 -4.70157e-07  -5.91132e-07 5.67108e-07 -3.28869e-07  -5.16748e-07 -4.84073e-07 -2.95134e-07  -5.4107e-07 -3.11243e-07 -2.97141e-07  -6.48965e-07 -5.04826e-07 -2.96611e-07  -7.43849e-07 -2.28828e-08 -3.3233e-07  -8.7206e-07 3.19112e-07 -4.7376e-07  -7.97726e-07 -6.86419e-07 -5.72593e-07  -3.69255e-07 2.43883e-07 -6.20596e-07  -3.61211e-07 4.65035e-07 -5.72832e-07  -3.61479e-07 4.40576e-07 -4.71799e-07  -3.44099e-07 -8.07785e-07 -4.45723e-07  -4.09248e-07 -4.82397e-07 -4.48858e-07  -5.66985e-07 -7.55991e-07 -4.48415e-07  -7.1465e-07 -2.36227e-07 -4.73952e-07  -8.17274e-07 2.10314e-07 -5.62169e-07  -7.96716e-07 -9.9058e-07 -6.34866e-07  3.19517e-07 2.16722e-07 -6.34024e-07  2.7236e-07 4.32963e-07 -6.14175e-07  1.23107e-07 4.3883e-07 -5.5723e-07  -2.09881e-07 -8.23143e-07 -5.43482e-07  -6.09541e-07 -4.35663e-07 -5.47911e-07  -1.0688e-06 -6.46839e-07 -5.45879e-07  -1.61842e-06 -1.31078e-07 -5.72205e-07  -1.97324e-06 2.6264e-07 -6.3402e-07  -2.06532e-06 -1.0588e-06 -6.48653e-07  
            </DataArray>
            <DataArray type="Float64" Name="Velocity" NumberOfComponents="3" format="ascii">
               3.98989e-06 6.08671e-06 -1.19341e-06  3.87292e-06 2.90162e-06 -1.20414e-06  3.27899e-06 1.36528e-06 -1.12244e-06  2.72853e-06 1.90143e-07 -1.04893e-06  2.67309e-06 1.04575e-07 -1.02955e-06  3.02525e-06 -8.17361e-07 -1.02498e-06  3.63404e-06 2.46705e-07 -1.08616e-06  4.0932e-06 -1.29231e-06 -1.19521e-06  4.23029e-06 -1.92441e-06 -1.12167e-06  1.43595e-06 5.71805e-06 -1.20211e-06  1.76714e-06 2.80506e-06 -1.14504e-06  1.83514e-06 1.42341e-06 -1.03823e-06  1.87824e-06 8.29537e-08 -9.87956e-07  2.16309e-06 -2.09707e-07 -9.55861e-07  2.50669e-06 -1.20176e-06 -9.68136e-07  2.73867e-06 -1.24905e-07 -1.03349e-06  2.81204e-06 -1.39127e-06 -1.1894e-06  2.68343e-06 -1.73722e-06 -1.1667e-06  1.92793e-06 4.63562e-06 -1.12204e-06  2.41867e-06 2.33339e-06 -1.0384e-06  2.30571e-06 1.03596e-06 -8.41546e-07  2.05301e-06 -2.56918e-07 -7.67894e-07  1.8323e-06 -7.03837e-07 -7.35143e-07  1.42728e-06 -1.39423e-06 -7.60311e-07  8.03642e-07 -3.95758e-07 -8.39805e-07  2.59188e-07 -1.25979e-06 -1.0355e-06  -1.54233e-07 -1.29449e-06 -1.07537e-06  2.42819e-06 3.17247e-06 -1.04909e-06  2.88934e-06 1.7881e-06 -9.87817e-07  2.62424e-06 8.22362e-07 -7.68064e-07  2.12059e-06 -4.48588e-07 -6.68526e-07  1.76959e-06 -1.07186e-06 -6.34571e-07  1.28777e-06 -1.39568e-06 -6.67784e-07  7.76372e-07 -5.83864e-07 -7.61232e-07  2.16166e-07 -9.1195e-07 -9.74142e-07  -2.39519e-07 -8.14795e-07 -1.02016e-06  1.48997e-06 1.99061e-06 -1.02939e-06  1.86556e-06 1.15557e-06 -9.5591e-07  1.89012e-06 5.80284e-07 -7.35165e-07  1.70889e-06 -7.23964e-07 -6.34429e-07  1.31492e-06 -1.28539e-06 -6.05853e-07  6.74223e-07 -1.4264e-06 -6.33738e-07  -1.25052e-07 -5.87619e-07 -7.3357e-07  -9.29271e-07 -4.12629e-07 -9.56046e-07  -1.32236e-06 -5.57867e-07 -1.01443e-06  2.20119e-06 1.02433e-06 -1.02577e-06  2.43461e-06 6.23961e-07 -9.67923e-07  2.1046e-06 4.08355e-07 -7.60608e-07  1.6121e-06 -9.9571e-07 -6.67576e-07  1.0173e-06 -1.32034e-06 -6.33785e-07  3.48165e-07 -1.4414e-06 -6.67268e-07  -1.86801e-07 -5.54926e-07 -7.66905e-07  -7.37424e-07 2.21425e-08 -9.85995e-07  -9.64442e-07 -5.64091e-07 -1.03248e-06  2.93583e-07 2.06065e-07 -1.08563e-06  4.96602e-07 2.03485e-07 -1.03382e-06  4.55388e-07 3.65113e-07 -8.39694e-07  4.38768e-07 -1.36075e-06 -7.61194e-07  2.58499e-07 -1.38173e-06 -7.33482e-07  -5.37102e-08 -1.75751e-06 -7.66927e-07  -3.524e-07 -7.16876e-07 -8.40799e-07  -7.6913e-07 2.07293e-07 -1.03888e-06  -8.76598e-07 -8.15132e-07 -1.11294e-06  1.47259e-06 -1.96909e-07 -1.19551e-06  1.43343e-06 -3.5513e-08 -1.18892e-06  1.13376e-06 2.93795e-07 -1.03583e-06  7.64376e-07 -1.74141e-06 -9.741e-07  3.25044e-07 -1.47288e-06 -9.56187e-07  -1.67337e-07 -2.02812e-06 -9.86041e-07  -5.1531e-07 -8.93612e-07 -1.03906e-06  -7.75561e-07 3.04651e-07 -1.15111e-06  -8.79103e-07 -1.00557e-06 -1.19941e-06  2.55057e-06 -2.78364e-07 -1.12564e-06  2.34237e-06 5.24051e-08 -1.1674e-06  1.77188e-06 5.45913e-07 -1.07473e-06  8.8177e-07 -1.54636e-06 -1.02033e-06  -4.56261e-08 -1.20446e-06 -1.0139e-06  -9.75757e-07 -1.7426e-06 -1.03244e-06  -1.86264e-06 -7.0984e-07 -1.11258e-06  -2.29774e-06 4.42766e-07 -1.19819e-06  -2.38301e-06 -9.93482e-07 -1.18242e-06  
            </DataArray>
            <DataArray type="Float64" Name="Traction" NumberOfComponents="3" format="ascii">
               0 0 0  0 0 0  0 0 0  0 0 0  0 0 0  0 0 0  0 0 0  0 0 0  0 0 0  0 0 0  0 0 0  0 0 0  0 0 0  0 0 0  0 0 0  0 0 0  0 0 0  0 0 0  0 0 0  0 0 0  0 0 0  0 0 0  0 0 0  0 0 0  0 0 0  0 0 0  0 0 0  0 0 0  0 0 0  0 0 0  0 0 0  0 0 0  0 0 0  0 0 0  0 0 0  0 0 0  0 0 0  0 0 0  0 0 0  0 0 0  0 0 0  0 0 0  0 0 0  0 0 0  0 0 0  0 0 0  0 0 0  0 0 0  0 0 0  0 0 0  0 0 0  0 0 0  0 0 0  0 0 0  0 0 0  0 0 0  0 0 0  0 0 0  0 0 0  0 0 0  0 0 0  0 0 0  0 0 0  0 0 0  0 0 0  0 0 0  0 0 0  0 0 0  0 0 0  0 0 0  0 0 0  0 0 0  0 0 0  0 0 0  0 0 0  0 0 0  0 0 0  0 0 0  0 0 0  0 0 0  0 0 0  
            </DataArray>
         </PointData> 
      </Piece>
   </UnstructuredGrid> 
</VTKFile>
