<?xml version="1.0"?>
<VTKFile type="UnstructuredGrid" version="0.1" byte_order="LittleEndian">
   <UnstructuredGrid>
      <Piece NumberOfPoints="81" NumberOfCells="0" > 
         <Points> 
            <DataArray type="Float64" Name="Position" NumberOfComponents="3" format="ascii"> 
               0  0  20  
               0.375  0  20  
               0.75  0  20  
               1.125  0  20  
               1.5  0  20  
               1.875  0  20  
               2.25  0  20  
               2.625  0  20  
               3  0  20  
               0  0.375  20  
               0.375  0.375  20  
               0.75  0.375  20  
               1.125  0.375  20  
               1.5  0.375  20  
               1.875  0.375  20  
               2.25  0.375  20  
               2.625  0.375  20  
               3  0.375  20  
               0  0.75  20  
               0.375  0.75  20  
               0.75  0.75  20  
               1.125  0.75  20  
               1.5  0.75  20  
               1.875  0.75  20  
               2.25  0.75  20  
               2.625  0.75  20  
               3  0.75  20  
               0  1.125  20  
               0.375  1.125  20  
               0.75  1.125  20  
               1.125  1.125  20  
               1.5  1.125  20  
               1.875  1.125  20  
               2.25  1.125  20  
               2.625  1.125  20  
               3  1.125  20  
               0  1.5  20  
               0.375  1.5  20  
               0.75  1.5  20  
               1.125  1.5  20  
               1.5  1.5  20  
               1.875  1.5  20  
               2.25  1.5  20  
               2.625  1.5  20  
               3  1.5  20  
               0  1.875  20  
               0.375  1.875  20  
               0.75  1.875  20  
               1.125  1.875  20  
               1.5  1.875  20  
               1.875  1.875  20  
               2.25  1.875  20  
               2.625  1.875  20  
               3  1.875  20  
               0  2.25  20  
               0.375  2.25  20  
               0.75  2.25  20  
               1.125  2.25  20  
               1.5  2.25  20  
               1.875  2.25  20  
               2.25  2.25  20  
               2.625  2.25  20  
               3  2.25  20  
               0  2.625  20  
               0.375  2.625  20  
               0.75  2.625  20  
               1.125  2.625  20  
               1.5  2.625  20  
               1.875  2.625  20  
               2.25  2.625  20  
               2.625  2.625  20  
               3  2.625  20  
               0  3  20  
               0.375  3  20  
               0.75  3  20  
               1.125  3  20  
               1.5  3  20  
               1.875  3  20  
               2.25  3  20  
               2.625  3  20  
               3  3  20  
            </DataArray>
         </Points> 

         <Cells>
            <DataArray type="Int32" Name="connectivity" NumberOfComponents="1" format="ascii">
               
            </DataArray> 
            <DataArray type="Int32" Name="offsets" NumberOfComponents="1" format="ascii">
               
            </DataArray>
            <DataArray type="UInt8"  Name="types" NumberOfComponents="1" format="ascii">
               
            </DataArray>
         </Cells>
         <PointData Scalars="Rank " Vectors="Displacement Velocity Traction ">
            <DataArray type="UInt32" Name="Rank" NumberOfComponents="1" format="ascii">
               0 0 0 0 0 0 0 0 0 0 0 0 0 0 0 0 0 0 0 0 0 0 0 0 0 0 0 0 0 0 0 0 0 0 0 0 0 0 0 0 0 0 0 0 0 0 0 0 0 0 0 0 0 0 0 0 0 0 0 0 0 0 0 0 0 0 0 0 0 0 0 0 0 0 0 0 0 0 0 0 0 
            </DataArray>
            <DataArray type="Float64" Name="Displacement" NumberOfComponents="3" format="ascii">
               0 0 0  0 0 0  0 0 0  0 0 0  0 0 0  0 0 0  0 0 0  0 0 0  0 0 0  0 0 0  0 0 0  0 0 0  0 0 0  0 0 0  0 0 0  0 0 0  0 0 0  0 0 0  0 0 0  0 0 0  0 0 0  0 0 0  0 0 0  0 0 0  0 0 0  0 0 0  0 0 0  0 0 0  0 0 0  0 0 0  0 0 0  0 0 0  0 0 0  0 0 0  0 0 0  0 0 0  0 0 0  0 0 0  0 0 0  0 0 0  0 0 0  0 0 0  0 0 0  0 0 0  0 0 0  0 0 0  0 0 0  0 0 0  0 0 0  0 0 0  0 0 0  0 0 0  0 0 0  0 0 0  0 0 0  0 0 0  0 0 0  0 0 0  0 0 0  0 0 0  0 0 0  0 0 0  0 0 0  0 0 0  0 0 0  0 0 0  0 0 0  0 0 0  0 0 0  0 0 0  0 0 0  0 0 0  0 0 0  0 0 0  0 0 0  0 0 0  0 0 0  0 0 0  0 0 0  0 0 0  0 0 0  
            </DataArray>
            <DataArray type="Float64" Name="Velocity" NumberOfComponents="3" format="ascii">
               0 0 0  0 0 0  0 0 0  0 0 0  0 0 0  0 0 0  0 0 0  0 0 0  0 0 0  0 0 0  0 0 0  0 0 0  0 0 0  0 0 0  0 0 0  0 0 0  0 0 0  0 0 0  0 0 0  0 0 0  0 0 0  0 0 0  0 0 0  0 0 0  0 0 0  0 0 0  0 0 0  0 0 0  0 0 0  0 0 0  0 0 0  0 0 0  0 0 0  0 0 0  0 0 0  0 0 0  0 0 0  0 0 0  0 0 0  0 0 0  0 0 0  0 0 0  0 0 0  0 0 0  0 0 0  0 0 0  0 0 0  0 0 0  0 0 0  0 0 0  0 0 0  0 0 0  0 0 0  0 0 0  0 0 0  0 0 0  0 0 0  0 0 0  0 0 0  0 0 0  0 0 0  0 0 0  0 0 0  0 0 0  0 0 0  0 0 0  0 0 0  0 0 0  0 0 0  0 0 0  0 0 0  0 0 0  0 0 0  0 0 0  0 0 0  0 0 0  0 0 0  0 0 0  0 0 0  0 0 0  0 0 0  
            </DataArray>
            <DataArray type="Float64" Name="Traction" NumberOfComponents="3" format="ascii">
               -5.51601e-05 -5.55334e-05 -0.00041284  -2.9447e-05 -9.90722e-05 -0.00041284  -1.58328e-05 -0.000123527 -0.00041284  -1.76047e-06 -0.000121223 -0.00041284  -5.25895e-06 -0.000121025 -0.00041284  1.98839e-05 -0.000123816 -0.00041284  7.2565e-05 -0.000112933 -0.00041284  2.53094e-05 -6.03316e-05 -0.00041284  1.07961e-05 -4.80822e-05 -0.00041284  -9.85125e-05 -2.96183e-05 -0.00041284  -5.80435e-05 -5.83559e-05 -0.00041284  -2.56661e-05 -8.27829e-05 -0.00041284  -7.75232e-06 -8.68811e-05 -0.00041284  -1.20072e-05 -8.96504e-05 -0.00041284  8.89946e-06 -8.48115e-05 -0.00041284  7.92468e-05 -8.58853e-05 -0.00041284  5.35841e-05 -5.59279e-05 -0.00041284  5.16061e-05 -4.4304e-05 -0.00041284  -0.000122998 -1.59576e-05 -0.00041284  -8.25235e-05 -2.5828e-05 -0.00041284  -4.19877e-05 -4.21259e-05 -0.00041284  -6.91681e-06 -5.36762e-05 -0.00041284  -7.1482e-06 -5.48466e-05 -0.00041284  9.17286e-06 -5.19722e-05 -0.00041284  9.1042e-05 -5.17912e-05 -0.00041284  8.28308e-05 -4.23726e-05 -0.00041284  0.000106315 -4.63513e-05 -0.00041284  -0.000120625 -2.04072e-06 -0.00041284  -8.6581e-05 -8.00569e-06 -0.00041284  -5.35264e-05 -7.19236e-06 -0.00041284  -1.47504e-05 -1.50272e-05 -0.00041284  -6.58838e-06 -1.26358e-05 -0.00041284  1.44385e-05 -1.50943e-05 -0.00041284  8.85985e-05 -1.14554e-05 -0.00041284  8.32572e-05 -1.07237e-05 -0.00041284  0.000119119 -1.1622e-05 -0.00041284  -0.000120394 -5.57761e-06 -0.00041284  -8.93175e-05 -1.23002e-05 -0.00041284  -5.4669e-05 -7.48177e-06 -0.00041284  -1.23479e-05 -6.93787e-06 -0.00041284  -9.92388e-06 -1.02718e-05 -0.00041284  9.93014e-06 -9.13866e-06 -0.00041284  8.77295e-05 -9.79542e-06 -0.00041284  8.37231e-05 -4.5502e-06 -0.00041284  0.000112019 -1.47217e-05 -0.00041284  -0.000123204 1.95749e-05 -0.00041284  -8.45181e-05 8.60463e-06 -0.00041284  -5.18418e-05 8.83102e-06 -0.00041284  -1.4821e-05 1.40938e-05 -0.00041284  -8.79906e-06 9.54288e-06 -0.00041284  1.40485e-05 1.36834e-05 -0.00041284  9.05615e-05 3.65343e-06 -0.00041284  8.45091e-05 8.34805e-06 -0.00041284  0.000117579 -7.38297e-06 -0.00041284  -0.000112366 7.23294e-05 -0.00041284  -8.55787e-05 7.90497e-05 -0.00041284  -5.1641e-05 9.07667e-05 -0.00041284  -1.12119e-05 8.8417e-05 -0.00041284  -9.48701e-06 8.74946e-05 -0.00041284  3.99995e-06 9.03324e-05 -0.00041284  7.7369e-05 7.71674e-05 -0.00041284  8.06922e-05 5.14318e-05 -0.00041284  0.000119204 3.64952e-05 -0.00041284  -5.98706e-05 2.48489e-05 -0.00041284  -5.57154e-05 5.32179e-05 -0.00041284  -4.22611e-05 8.2288e-05 -0.00041284  -1.05127e-05 8.27814e-05 -0.00041284  -4.31032e-06 8.32056e-05 -0.00041284  8.62559e-06 8.40065e-05 -0.00041284  5.15953e-05 8.02556e-05 -0.00041284  5.70745e-05 5.66654e-05 -0.00041284  9.47075e-05 3.15758e-05 -0.00041284  -4.75242e-05 1.00597e-05 -0.00041284  -4.40112e-05 5.10483e-05 -0.00041284  -4.61795e-05 0.00010552 -0.00041284  -1.14071e-05 0.000118299 -0.00041284  -1.44774e-05 0.000111182 -0.00041284  -7.09822e-06 0.000116744 -0.00041284  3.65531e-05 0.000118446 -0.00041284  3.17532e-05 9.40065e-05 -0.00041284  5.48618e-05 5.44248e-05 -0.00041284  
            </DataArray>
         </PointData> 
      </Piece>
   </UnstructuredGrid> 
</VTKFile>
