<?xml version="1.0"?>
<VTKFile type="UnstructuredGrid" version="0.1" byte_order="LittleEndian">
   <UnstructuredGrid>
      <Piece NumberOfPoints="81" NumberOfCells="0" > 
         <Points> 
            <DataArray type="Float64" Name="Position" NumberOfComponents="3" format="ascii"> 
               0  0  15  
               0.375  0  15  
               0.75  0  15  
               1.125  0  15  
               1.5  0  15  
               1.875  0  15  
               2.25  0  15  
               2.625  0  15  
               3  0  15  
               0  0.375  15  
               0.375  0.375  15  
               0.75  0.375  15  
               1.125  0.375  15  
               1.5  0.375  15  
               1.875  0.375  15  
               2.25  0.375  15  
               2.625  0.375  15  
               3  0.375  15  
               0  0.75  15  
               0.375  0.75  15  
               0.75  0.75  15  
               1.125  0.75  15  
               1.5  0.75  15  
               1.875  0.75  15  
               2.25  0.75  15  
               2.625  0.75  15  
               3  0.75  15  
               0  1.125  15  
               0.375  1.125  15  
               0.75  1.125  15  
               1.125  1.125  15  
               1.5  1.125  15  
               1.875  1.125  15  
               2.25  1.125  15  
               2.625  1.125  15  
               3  1.125  15  
               0  1.5  15  
               0.375  1.5  15  
               0.75  1.5  15  
               1.125  1.5  15  
               1.5  1.5  15  
               1.875  1.5  15  
               2.25  1.5  15  
               2.625  1.5  15  
               3  1.5  15  
               0  1.875  15  
               0.375  1.875  15  
               0.75  1.875  15  
               1.125  1.875  15  
               1.5  1.875  15  
               1.875  1.875  15  
               2.25  1.875  15  
               2.625  1.875  15  
               3  1.875  15  
               0  2.25  15  
               0.375  2.25  15  
               0.75  2.25  15  
               1.125  2.25  15  
               1.5  2.25  15  
               1.875  2.25  15  
               2.25  2.25  15  
               2.625  2.25  15  
               3  2.25  15  
               0  2.625  15  
               0.375  2.625  15  
               0.75  2.625  15  
               1.125  2.625  15  
               1.5  2.625  15  
               1.875  2.625  15  
               2.25  2.625  15  
               2.625  2.625  15  
               3  2.625  15  
               0  3  15  
               0.375  3  15  
               0.75  3  15  
               1.125  3  15  
               1.5  3  15  
               1.875  3  15  
               2.25  3  15  
               2.625  3  15  
               3  3  15  
            </DataArray>
         </Points> 

         <Cells>
            <DataArray type="Int32" Name="connectivity" NumberOfComponents="1" format="ascii">
               
            </DataArray> 
            <DataArray type="Int32" Name="offsets" NumberOfComponents="1" format="ascii">
               
            </DataArray>
            <DataArray type="UInt8"  Name="types" NumberOfComponents="1" format="ascii">
               
            </DataArray>
         </Cells>
         <PointData Scalars="Rank " Vectors="Displacement Velocity Traction ">
            <DataArray type="UInt32" Name="Rank" NumberOfComponents="1" format="ascii">
               0 0 0 0 0 0 0 0 0 0 0 0 0 0 0 0 0 0 0 0 0 0 0 0 0 0 0 0 0 0 0 0 0 0 0 0 0 0 0 0 0 0 0 0 0 0 0 0 0 0 0 0 0 0 0 0 0 0 0 0 0 0 0 0 0 0 0 0 0 0 0 0 0 0 0 0 0 0 0 0 0 
            </DataArray>
            <DataArray type="Float64" Name="Displacement" NumberOfComponents="3" format="ascii">
               0 0 0  0 0 0  0 0 0  0 0 0  0 0 0  0 0 0  0 0 0  0 0 0  0 0 0  0 0 0  0 0 0  0 0 0  0 0 0  0 0 0  0 0 0  0 0 0  0 0 0  0 0 0  0 0 0  0 0 0  0 0 0  0 0 0  0 0 0  0 0 0  0 0 0  0 0 0  0 0 0  0 0 0  0 0 0  0 0 0  0 0 0  0 0 0  0 0 0  0 0 0  0 0 0  0 0 0  0 0 0  0 0 0  0 0 0  0 0 0  0 0 0  0 0 0  0 0 0  0 0 0  0 0 0  0 0 0  0 0 0  0 0 0  0 0 0  0 0 0  0 0 0  0 0 0  0 0 0  0 0 0  0 0 0  0 0 0  0 0 0  0 0 0  0 0 0  0 0 0  0 0 0  0 0 0  0 0 0  0 0 0  0 0 0  0 0 0  0 0 0  0 0 0  0 0 0  0 0 0  0 0 0  0 0 0  0 0 0  0 0 0  0 0 0  0 0 0  0 0 0  0 0 0  0 0 0  0 0 0  0 0 0  
            </DataArray>
            <DataArray type="Float64" Name="Velocity" NumberOfComponents="3" format="ascii">
               0 0 0  0 0 0  0 0 0  0 0 0  0 0 0  0 0 0  0 0 0  0 0 0  0 0 0  0 0 0  0 0 0  0 0 0  0 0 0  0 0 0  0 0 0  0 0 0  0 0 0  0 0 0  0 0 0  0 0 0  0 0 0  0 0 0  0 0 0  0 0 0  0 0 0  0 0 0  0 0 0  0 0 0  0 0 0  0 0 0  0 0 0  0 0 0  0 0 0  0 0 0  0 0 0  0 0 0  0 0 0  0 0 0  0 0 0  0 0 0  0 0 0  0 0 0  0 0 0  0 0 0  0 0 0  0 0 0  0 0 0  0 0 0  0 0 0  0 0 0  0 0 0  0 0 0  0 0 0  0 0 0  0 0 0  0 0 0  0 0 0  0 0 0  0 0 0  0 0 0  0 0 0  0 0 0  0 0 0  0 0 0  0 0 0  0 0 0  0 0 0  0 0 0  0 0 0  0 0 0  0 0 0  0 0 0  0 0 0  0 0 0  0 0 0  0 0 0  0 0 0  0 0 0  0 0 0  0 0 0  0 0 0  
            </DataArray>
            <DataArray type="Float64" Name="Traction" NumberOfComponents="3" format="ascii">
               4.99789e-07 5.13457e-07 -1.77833e-07  -1.60398e-07 9.35918e-08 -1.77833e-07  1.15435e-08 -2.79594e-07 -1.77833e-07  1.30224e-07 1.50971e-08 -1.77833e-07  1.2485e-08 2.91622e-07 -1.77833e-07  -1.06708e-07 9.15961e-08 -1.77833e-07  -1.73572e-08 -1.52425e-07 -1.77833e-07  1.2551e-07 1.52902e-07 -1.77833e-07  -3.81234e-07 4.17847e-07 -1.77833e-07  1.39637e-07 -1.38956e-07 -1.77833e-07  -1.4635e-08 -2.63622e-09 -1.77833e-07  2.53372e-09 4.05974e-08 -1.77833e-07  2.29407e-08 7.63588e-09 -1.77833e-07  2.95841e-09 -3.51309e-08 -1.77833e-07  -2.32777e-08 -3.22135e-09 -1.77833e-07  -1.29983e-08 2.42848e-08 -1.77833e-07  2.42925e-08 -2.77284e-09 -1.77833e-07  -2.31223e-07 -8.04162e-08 -1.77833e-07  -2.06347e-07 -1.51646e-08 -1.77833e-07  2.95213e-08 1.82005e-09 -1.77833e-07  -4.42246e-09 3.20491e-09 -1.77833e-07  -5.99578e-09 1.85681e-08 -1.77833e-07  -1.54447e-09 2.08374e-08 -1.77833e-07  -5.3078e-09 9.63649e-09 -1.77833e-07  1.18585e-09 -6.4853e-10 -1.77833e-07  -2.79819e-10 1.14179e-08 -1.77833e-07  -4.29828e-08 2.34695e-09 -1.77833e-07  -1.09726e-07 4.06957e-08 -1.77833e-07  3.25898e-08 7.7018e-09 -1.77833e-07  1.10658e-08 1.06979e-10 -1.77833e-07  6.75998e-10 2.02172e-08 -1.77833e-07  -7.55406e-09 3.90425e-08 -1.77833e-07  -1.17135e-08 2.18221e-08 -1.77833e-07  -6.71903e-09 6.84223e-09 -1.77833e-07  -3.00897e-09 7.90338e-09 -1.77833e-07  -7.80324e-08 2.6899e-08 -1.77833e-07  -3.9138e-08 4.95382e-09 -1.77833e-07  1.73948e-08 4.24846e-09 -1.77833e-07  1.84048e-08 1.80673e-09 -1.77833e-07  2.35048e-08 1.92845e-09 -1.77833e-07  -6.27377e-09 4.95232e-09 -1.77833e-07  -2.89675e-08 7.75598e-09 -1.77833e-07  -1.45749e-08 7.24089e-09 -1.77833e-07  1.56047e-09 3.61261e-09 -1.77833e-07  -1.24468e-07 3.65264e-09 -1.77833e-07  -6.71571e-08 -1.41814e-08 -1.77833e-07  3.0798e-08 4.03806e-09 -1.77833e-07  1.03412e-08 1.55107e-08 -1.77833e-07  -2.27038e-09 -1.24687e-08 -1.77833e-07  -3.96032e-09 -3.92102e-08 -1.77833e-07  -5.50534e-09 -1.46906e-08 -1.77833e-07  -1.0801e-08 6.44785e-09 -1.77833e-07  -9.15997e-09 1.78982e-10 -1.77833e-07  -9.04492e-08 -2.09298e-08 -1.77833e-07  -9.35887e-08 9.55926e-10 -1.77833e-07  4.7548e-08 -3.18492e-09 -1.77833e-07  7.40756e-09 -5.60746e-09 -1.77833e-07  -3.04432e-08 -1.2367e-08 -1.77833e-07  -5.01331e-09 -1.9283e-08 -1.77833e-07  1.83249e-08 -1.13638e-08 -1.77833e-07  -4.7633e-09 -7.62681e-09 -1.77833e-07  -1.50522e-08 -1.07264e-08 -1.77833e-07  -1.42135e-08 -1.16019e-08 -1.77833e-07  -1.05879e-07 1.58608e-10 -1.77833e-07  2.605e-08 -1.25024e-08 -1.77833e-07  5.22808e-09 -3.25792e-08 -1.77833e-07  -1.08376e-08 -1.03029e-08 -1.77833e-07  8.77956e-10 1.56491e-08 -1.77833e-07  6.1858e-09 2.78658e-09 -1.77833e-07  -1.21117e-08 -1.157e-08 -1.77833e-07  -3.07086e-09 -8.1723e-10 -1.77833e-07  -6.41786e-08 2.50482e-08 -1.77833e-07  -1.2935e-07 1.47018e-07 -1.77833e-07  2.35767e-08 6.91759e-08 -1.77833e-07  1.82841e-08 -4.34537e-10 -1.77833e-07  2.65483e-08 -8.17644e-08 -1.77833e-07  3.60136e-09 -1.27066e-07 -1.77833e-07  -1.97331e-08 -6.60451e-08 -1.77833e-07  -9.51215e-09 -3.32592e-08 -1.77833e-07  1.88516e-08 -8.28426e-08 -1.77833e-07  -1.21237e-07 -1.14622e-07 -1.77833e-07  
            </DataArray>
         </PointData> 
      </Piece>
   </UnstructuredGrid> 
</VTKFile>
