<?xml version="1.0"?>
<VTKFile type="UnstructuredGrid" version="0.1" byte_order="LittleEndian">
   <UnstructuredGrid>
      <Piece NumberOfPoints="81" NumberOfCells="0" > 
         <Points> 
            <DataArray type="Float64" Name="Position" NumberOfComponents="3" format="ascii"> 
               0  0  15  
               0.375  0  15  
               0.75  0  15  
               1.125  0  15  
               1.5  0  15  
               1.875  0  15  
               2.25  0  15  
               2.625  0  15  
               3  0  15  
               0  0.375  15  
               0.375  0.375  15  
               0.75  0.375  15  
               1.125  0.375  15  
               1.5  0.375  15  
               1.875  0.375  15  
               2.25  0.375  15  
               2.625  0.375  15  
               3  0.375  15  
               0  0.75  15  
               0.375  0.75  15  
               0.75  0.75  15  
               1.125  0.75  15  
               1.5  0.75  15  
               1.875  0.75  15  
               2.25  0.75  15  
               2.625  0.75  15  
               3  0.75  15  
               0  1.125  15  
               0.375  1.125  15  
               0.75  1.125  15  
               1.125  1.125  15  
               1.5  1.125  15  
               1.875  1.125  15  
               2.25  1.125  15  
               2.625  1.125  15  
               3  1.125  15  
               0  1.5  15  
               0.375  1.5  15  
               0.75  1.5  15  
               1.125  1.5  15  
               1.5  1.5  15  
               1.875  1.5  15  
               2.25  1.5  15  
               2.625  1.5  15  
               3  1.5  15  
               0  1.875  15  
               0.375  1.875  15  
               0.75  1.875  15  
               1.125  1.875  15  
               1.5  1.875  15  
               1.875  1.875  15  
               2.25  1.875  15  
               2.625  1.875  15  
               3  1.875  15  
               0  2.25  15  
               0.375  2.25  15  
               0.75  2.25  15  
               1.125  2.25  15  
               1.5  2.25  15  
               1.875  2.25  15  
               2.25  2.25  15  
               2.625  2.25  15  
               3  2.25  15  
               0  2.625  15  
               0.375  2.625  15  
               0.75  2.625  15  
               1.125  2.625  15  
               1.5  2.625  15  
               1.875  2.625  15  
               2.25  2.625  15  
               2.625  2.625  15  
               3  2.625  15  
               0  3  15  
               0.375  3  15  
               0.75  3  15  
               1.125  3  15  
               1.5  3  15  
               1.875  3  15  
               2.25  3  15  
               2.625  3  15  
               3  3  15  
            </DataArray>
         </Points> 

         <Cells>
            <DataArray type="Int32" Name="connectivity" NumberOfComponents="1" format="ascii">
               
            </DataArray> 
            <DataArray type="Int32" Name="offsets" NumberOfComponents="1" format="ascii">
               
            </DataArray>
            <DataArray type="UInt8"  Name="types" NumberOfComponents="1" format="ascii">
               
            </DataArray>
         </Cells>
         <PointData Scalars="Rank " Vectors="Displacement Velocity Traction ">
            <DataArray type="UInt32" Name="Rank" NumberOfComponents="1" format="ascii">
               0 0 0 0 0 0 0 0 0 0 0 0 0 0 0 0 0 0 0 0 0 0 0 0 0 0 0 0 0 0 0 0 0 0 0 0 0 0 0 0 0 0 0 0 0 0 0 0 0 0 0 0 0 0 0 0 0 0 0 0 0 0 0 0 0 0 0 0 0 0 0 0 0 0 0 0 0 0 0 0 0 
            </DataArray>
            <DataArray type="Float64" Name="Displacement" NumberOfComponents="3" format="ascii">
               1.58695e-05 1.09955e-05 -9.04899e-06  1.55888e-05 -1.17186e-07 -9.17287e-06  1.38121e-05 -3.16827e-08 -8.50401e-06  1.17041e-05 -1.55059e-06 -8.2372e-06  1.10577e-05 -1.64081e-07 -8.22388e-06  1.15374e-05 -3.34824e-06 -8.04644e-06  1.29465e-05 -3.24699e-06 -8.37549e-06  1.42472e-05 -9.01166e-06 -9.07025e-06  1.46882e-05 -1.2304e-05 -8.50451e-06  6.6433e-06 1.01734e-05 -9.17561e-06  7.56331e-06 -5.33456e-07 -8.74499e-06  7.95388e-06 -3.02305e-07 -7.7854e-06  8.30949e-06 -2.22286e-06 -7.55234e-06  9.19977e-06 -1.5582e-06 -7.54116e-06  1.01802e-05 -4.83158e-06 -7.41929e-06  1.05988e-05 -4.65176e-06 -7.79759e-06  1.05958e-05 -9.57866e-06 -8.98619e-06  1.02786e-05 -1.20028e-05 -8.92624e-06  1.00331e-05 6.72581e-06 -8.51029e-06  1.1688e-05 -2.50705e-06 -7.78589e-06  1.13425e-05 -2.99158e-06 -6.23884e-06  1.0486e-05 -4.72078e-06 -5.83775e-06  9.70502e-06 -4.77984e-06 -5.84274e-06  8.42346e-06 -6.90512e-06 -5.79351e-06  6.35009e-06 -6.58312e-06 -6.2311e-06  4.50066e-06 -9.92325e-06 -7.81827e-06  3.37809e-06 -1.121e-05 -8.31555e-06  1.09672e-05 1.43164e-06 -8.24279e-06  1.29464e-05 -5.47468e-06 -7.55199e-06  1.25419e-05 -5.93568e-06 -5.83789e-06  1.10864e-05 -7.4715e-06 -5.28967e-06  9.7332e-06 -8.15095e-06 -5.28483e-06  7.80793e-06 -8.84554e-06 -5.2824e-06  5.73017e-06 -8.735e-06 -5.80977e-06  3.72072e-06 -9.95555e-06 -7.45561e-06  2.57763e-06 -1.05321e-05 -8.03521e-06  1.22738e-05 -3.4725e-06 -8.2299e-06  1.4138e-05 -9.31301e-06 -7.5409e-06  1.40184e-05 -9.09028e-06 -5.84258e-06  1.25509e-05 -1.0525e-05 -5.28446e-06  1.01574e-05 -1.08957e-05 -5.313e-06  6.76264e-06 -1.04965e-05 -5.28057e-06  2.90879e-06 -1.0123e-05 -5.83605e-06  -3.49726e-07 -9.63709e-06 -7.51962e-06  -1.30533e-06 -1.08949e-05 -8.14506e-06  1.5908e-05 -8.28129e-06 -8.0569e-06  1.76201e-05 -1.3225e-05 -7.4184e-06  1.64098e-05 -1.16849e-05 -5.79413e-06  1.34778e-05 -1.30131e-05 -5.28185e-06  9.85265e-06 -1.25307e-05 -5.28092e-06  5.77061e-06 -1.14731e-05 -5.27043e-06  2.32814e-06 -1.10265e-05 -5.82071e-06  -3.13364e-07 -9.47947e-06 -7.51875e-06  -7.48873e-07 -1.23355e-05 -8.14086e-06  1.44764e-05 -1.28696e-05 -8.38723e-06  1.59793e-05 -1.68758e-05 -7.79858e-06  1.49713e-05 -1.32971e-05 -6.23205e-06  1.2378e-05 -1.49151e-05 -5.80973e-06  8.74136e-06 -1.33486e-05 -5.83612e-06  4.62656e-06 -1.25166e-05 -5.82058e-06  9.78705e-07 -1.20709e-05 -6.23368e-06  -1.77835e-06 -9.8793e-06 -7.79686e-06  -1.8619e-06 -1.48268e-05 -8.46046e-06  2.14436e-05 -1.61558e-05 -9.08541e-06  2.14683e-05 -1.9035e-05 -8.98134e-06  1.87048e-05 -1.36075e-05 -7.81952e-06  1.42058e-05 -1.53081e-05 -7.45469e-06  9.16168e-06 -1.29135e-05 -7.51985e-06  4.17177e-06 -1.24398e-05 -7.51845e-06  1.78144e-07 -1.22984e-05 -7.79709e-06  -2.35125e-06 -1.00766e-05 -8.77244e-06  -2.7883e-06 -1.67452e-05 -9.15338e-06  2.03933e-05 -1.7306e-05 -8.54771e-06  1.89544e-05 -1.85798e-05 -8.94289e-06  1.49643e-05 -1.15528e-05 -8.32803e-06  9.53161e-06 -1.29417e-05 -8.0462e-06  3.77971e-06 -1.04049e-05 -8.1532e-06  -1.92816e-06 -1.00065e-05 -8.14895e-06  -7.573e-06 -1.03632e-05 -8.46905e-06  -1.11339e-05 -9.28742e-06 -9.15949e-06  -1.19517e-05 -1.71254e-05 -9.00522e-06  
            </DataArray>
            <DataArray type="Float64" Name="Velocity" NumberOfComponents="3" format="ascii">
               2.18274e-05 2.96645e-06 -1.48194e-05  2.13261e-05 -8.00458e-06 -1.51861e-05  1.89671e-05 -5.18246e-06 -1.41875e-05  1.5571e-05 -4.28685e-06 -1.37747e-05  1.32184e-05 -1.23074e-06 -1.36866e-05  1.17797e-05 -3.61139e-06 -1.34721e-05  1.13759e-05 -5.04027e-06 -1.40039e-05  1.1436e-05 -8.98483e-06 -1.50307e-05  1.14629e-05 -1.38186e-05 -1.38806e-05  1.09523e-05 2.42908e-06 -1.51722e-05  1.1485e-05 -8.23697e-06 -1.46719e-05  1.11205e-05 -5.16203e-06 -1.32283e-05  1.04265e-05 -4.42401e-06 -1.28437e-05  9.88213e-06 -1.93237e-06 -1.27428e-05  9.29333e-06 -4.34238e-06 -1.26212e-05  8.22616e-06 -5.89041e-06 -1.32646e-05  7.47664e-06 -9.58976e-06 -1.50956e-05  7.42215e-06 -1.4087e-05 -1.47912e-05  1.26366e-05 -1.04674e-06 -1.41815e-05  1.4344e-05 -1.05856e-05 -1.3231e-05  1.36672e-05 -8.39601e-06 -1.0863e-05  1.21261e-05 -7.36836e-06 -1.02227e-05  1.06153e-05 -5.56411e-06 -1.0171e-05  8.79389e-06 -6.93414e-06 -1.01572e-05  6.43874e-06 -8.34621e-06 -1.08678e-05  4.83357e-06 -1.1203e-05 -1.32762e-05  4.65194e-06 -1.48088e-05 -1.39103e-05  1.1563e-05 -6.64991e-06 -1.3764e-05  1.38146e-05 -1.46071e-05 -1.28452e-05  1.37088e-05 -1.28356e-05 -1.02219e-05  1.22485e-05 -1.14371e-05 -9.34447e-06  1.05391e-05 -1.02129e-05 -9.25362e-06  8.27775e-06 -1.02625e-05 -9.34822e-06  5.80334e-06 -1.16967e-05 -1.02012e-05  3.98907e-06 -1.33005e-05 -1.26935e-05  3.90122e-06 -1.61492e-05 -1.34516e-05  1.61327e-05 -1.20871e-05 -1.36754e-05  1.82893e-05 -1.96588e-05 -1.27435e-05  1.78346e-05 -1.76298e-05 -1.01689e-05  1.55448e-05 -1.58337e-05 -9.25245e-06  1.23731e-05 -1.44445e-05 -9.18823e-06  8.36864e-06 -1.33067e-05 -9.25193e-06  4.09284e-06 -1.4535e-05 -1.01421e-05  1.01751e-06 -1.5196e-05 -1.2732e-05  1.0099e-06 -1.86086e-05 -1.3558e-05  1.98321e-05 -1.76426e-05 -1.34649e-05  2.20245e-05 -2.49678e-05 -1.26225e-05  2.09235e-05 -2.18432e-05 -1.01566e-05  1.74308e-05 -1.95059e-05 -9.34815e-06  1.31093e-05 -1.75601e-05 -9.25275e-06  8.2747e-06 -1.55692e-05 -9.32157e-06  4.02336e-06 -1.69167e-05 -1.01837e-05  1.2622e-06 -1.71088e-05 -1.27828e-05  1.64503e-06 -2.20985e-05 -1.35973e-05  2.37181e-05 -2.29424e-05 -1.40001e-05  2.5499e-05 -3.00761e-05 -1.3265e-05  2.3799e-05 -2.49616e-05 -1.08669e-05  1.96166e-05 -2.22572e-05 -1.0199e-05  1.43176e-05 -1.95324e-05 -1.01404e-05  8.51326e-06 -1.72314e-05 -1.01819e-05  3.28706e-06 -1.905e-05 -1.08725e-05  -1.12526e-07 -1.90896e-05 -1.32412e-05  4.1928e-07 -2.66337e-05 -1.4091e-05  3.20934e-05 -2.71675e-05 -1.50331e-05  3.21511e-05 -3.30049e-05 -1.50928e-05  2.82664e-05 -2.56738e-05 -1.32781e-05  2.18814e-05 -2.25094e-05 -1.26954e-05  1.49836e-05 -1.93172e-05 -1.27358e-05  8.24971e-06 -1.70073e-05 -1.27854e-05  2.62417e-06 -1.96113e-05 -1.32447e-05  -8.45555e-07 -2.02335e-05 -1.47241e-05  -1.13363e-06 -2.99894e-05 -1.51407e-05  2.72703e-05 -2.87973e-05 -1.38912e-05  2.54647e-05 -3.24313e-05 -1.47957e-05  2.04691e-05 -2.30882e-05 -1.39077e-05  1.39464e-05 -1.94187e-05 -1.34463e-05  6.94574e-06 -1.61897e-05 -1.3553e-05  -2.89602e-08 -1.39684e-05 -1.35917e-05  -7.12493e-06 -1.70835e-05 -1.40918e-05  -1.19186e-05 -1.94775e-05 -1.51356e-05  -1.30051e-05 -3.08283e-05 -1.47176e-05  
            </DataArray>
            <DataArray type="Float64" Name="Traction" NumberOfComponents="3" format="ascii">
               0.000522361 0.00055891 -0.001226  -5.57742e-05 0.000582969 -0.001226  -3.42189e-05 0.000574332 -0.001226  -6.09693e-05 0.000634385 -0.001226  7.31991e-06 0.000579689 -0.001226  5.41043e-05 0.000727066 -0.001226  1.86435e-05 0.000634137 -0.001226  0.000104289 0.000745003 -0.001226  -0.00101268 0.00100862 -0.001226  0.000543195 1.63937e-06 -0.001226  8.21923e-05 0.000100418 -0.001226  1.67668e-05 0.000152325 -0.001226  -1.22406e-05 0.000225517 -0.001226  3.17704e-05 0.000215082 -0.001226  0.000109741 0.000184709 -0.001226  0.000133735 2.56057e-05 -0.001226  7.95879e-05 -6.73432e-05 -0.001226  -0.000763957 -8.54642e-05 -0.001226  0.000574257 7.34868e-05 -0.001226  0.000191355 4.42382e-05 -0.001226  7.51329e-05 4.90812e-05 -0.001226  1.08038e-05 0.000104327 -0.001226  4.8652e-05 9.9829e-05 -0.001226  0.000118673 4.6604e-05 -0.001226  9.62573e-05 -8.06877e-05 -0.001226  -2.52069e-05 -0.000105945 -0.001226  -0.00068483 2.44631e-05 -0.001226  0.000746032 4.40009e-05 -0.001226  0.000349485 1.05231e-05 -0.001226  0.0001806 -1.86149e-05 -0.001226  7.58449e-05 2.40684e-05 -0.001226  3.5716e-05 3.81158e-05 -0.001226  2.38727e-05 -2.78904e-05 -0.001226  -4.82614e-05 -0.000121396 -0.001226  -0.000217261 -0.000100712 -0.001226  -0.000767076 -3.38429e-05 -0.001226  0.000750216 -8.95769e-05 -0.001226  0.000448418 -5.93514e-05 -0.001226  0.000267643 -0.00010802 -0.001226  0.000132847 -5.69852e-05 -0.001226  2.43624e-05 -2.18949e-05 -0.001226  -5.28291e-05 -3.89753e-05 -0.001226  -0.000124369 -6.54248e-05 -0.001226  -0.000279239 -3.92491e-05 -0.001226  -0.000592321 -9.71438e-06 -0.001226  0.000585686 -0.00018997 -0.001226  0.000484726 -0.000186837 -0.001226  0.000328639 -0.000246107 -0.001226  0.000201633 -0.000175949 -0.001226  5.45196e-05 -0.000114687 -0.001226  -5.89312e-05 -8.24357e-05 -0.001226  -0.000151414 -4.62655e-05 -0.001226  -0.000310336 -2.11584e-05 -0.001226  -0.000650952 4.71145e-05 -0.001226  0.000573786 -0.000305827 -0.001226  0.000581471 -0.00031709 -0.001226  0.000412523 -0.000362651 -0.001226  0.000272086 -0.000282675 -0.001226  9.40253e-05 -0.00023557 -0.001226  -4.10757e-05 -0.000181327 -0.001226  -0.000126857 -0.000120314 -0.001226  -0.000276085 -8.48417e-05 -0.001226  -0.000655713 -3.19414e-05 -0.001226  0.000342142 -0.000599516 -0.001226  0.000547125 -0.000521182 -0.001226  0.000358337 -0.000543007 -0.001226  0.000212791 -0.00045439 -0.001226  5.3395e-05 -0.000433282 -0.001226  -5.69477e-05 -0.000372573 -0.001226  -0.000120362 -0.000276663 -0.001226  -0.000236265 -0.000210806 -0.001226  -0.000587383 -0.000131008 -0.001226  0.000114203 -0.00012143 -0.001226  0.000605323 -0.000336551 -0.001226  0.000340019 -0.000569293 -0.001226  0.000230534 -0.000604148 -0.001226  9.27312e-05 -0.000786256 -0.001226  -6.69551e-05 -0.000747723 -0.001226  -0.000117438 -0.000600527 -0.001226  -0.000158327 -0.000531301 -0.001226  -0.000473965 -0.000458657 -0.001226  
            </DataArray>
         </PointData> 
      </Piece>
   </UnstructuredGrid> 
</VTKFile>
