<?xml version="1.0"?>
<VTKFile type="UnstructuredGrid" version="0.1" byte_order="LittleEndian">
   <UnstructuredGrid>
      <Piece NumberOfPoints="81" NumberOfCells="0" > 
         <Points> 
            <DataArray type="Float64" Name="Position" NumberOfComponents="3" format="ascii"> 
               0  0  15  
               0.375  0  15  
               0.75  0  15  
               1.125  0  15  
               1.5  0  15  
               1.875  0  15  
               2.25  0  15  
               2.625  0  15  
               3  0  15  
               0  0.375  15  
               0.375  0.375  15  
               0.75  0.375  15  
               1.125  0.375  15  
               1.5  0.375  15  
               1.875  0.375  15  
               2.25  0.375  15  
               2.625  0.375  15  
               3  0.375  15  
               0  0.75  15  
               0.375  0.75  15  
               0.75  0.75  15  
               1.125  0.75  15  
               1.5  0.75  15  
               1.875  0.75  15  
               2.25  0.75  15  
               2.625  0.75  15  
               3  0.75  15  
               0  1.125  15  
               0.375  1.125  15  
               0.75  1.125  15  
               1.125  1.125  15  
               1.5  1.125  15  
               1.875  1.125  15  
               2.25  1.125  15  
               2.625  1.125  15  
               3  1.125  15  
               0  1.5  15  
               0.375  1.5  15  
               0.75  1.5  15  
               1.125  1.5  15  
               1.5  1.5  15  
               1.875  1.5  15  
               2.25  1.5  15  
               2.625  1.5  15  
               3  1.5  15  
               0  1.875  15  
               0.375  1.875  15  
               0.75  1.875  15  
               1.125  1.875  15  
               1.5  1.875  15  
               1.875  1.875  15  
               2.25  1.875  15  
               2.625  1.875  15  
               3  1.875  15  
               0  2.25  15  
               0.375  2.25  15  
               0.75  2.25  15  
               1.125  2.25  15  
               1.5  2.25  15  
               1.875  2.25  15  
               2.25  2.25  15  
               2.625  2.25  15  
               3  2.25  15  
               0  2.625  15  
               0.375  2.625  15  
               0.75  2.625  15  
               1.125  2.625  15  
               1.5  2.625  15  
               1.875  2.625  15  
               2.25  2.625  15  
               2.625  2.625  15  
               3  2.625  15  
               0  3  15  
               0.375  3  15  
               0.75  3  15  
               1.125  3  15  
               1.5  3  15  
               1.875  3  15  
               2.25  3  15  
               2.625  3  15  
               3  3  15  
            </DataArray>
         </Points> 

         <Cells>
            <DataArray type="Int32" Name="connectivity" NumberOfComponents="1" format="ascii">
               
            </DataArray> 
            <DataArray type="Int32" Name="offsets" NumberOfComponents="1" format="ascii">
               
            </DataArray>
            <DataArray type="UInt8"  Name="types" NumberOfComponents="1" format="ascii">
               
            </DataArray>
         </Cells>
         <PointData Scalars="Rank " Vectors="Displacement Velocity Traction ">
            <DataArray type="UInt32" Name="Rank" NumberOfComponents="1" format="ascii">
               0 0 0 0 0 0 0 0 0 0 0 0 0 0 0 0 0 0 0 0 0 0 0 0 0 0 0 0 0 0 0 0 0 0 0 0 0 0 0 0 0 0 0 0 0 0 0 0 0 0 0 0 0 0 0 0 0 0 0 0 0 0 0 0 0 0 0 0 0 0 0 0 0 0 0 0 0 0 0 0 0 
            </DataArray>
            <DataArray type="Float64" Name="Displacement" NumberOfComponents="3" format="ascii">
               0.000215997 0.000135029 -0.00017632  0.000208589 4.75548e-05 -0.00018392  0.000178939 2.35979e-05 -0.000173645  0.0001371 8.07615e-06 -0.00016953  9.8388e-05 1.61475e-05 -0.0001691  6.45266e-05 6.21608e-06 -0.000165097  3.91345e-05 1.79096e-05 -0.000172098  2.17346e-05 2.67153e-05 -0.000182589  1.54836e-05 -9.29573e-06 -0.000161275  0.000126326 0.000127101 -0.000183989  0.000128882 4.85391e-05 -0.000184393  0.000112079 3.43783e-05 -0.000170255  8.41712e-05 1.97371e-05 -0.000166616  5.33619e-05 2.68299e-05 -0.000166353  2.2031e-05 1.55614e-05 -0.000163586  -8.09963e-06 2.39851e-05 -0.00017106  -2.60738e-05 2.64086e-05 -0.000189872  -2.55603e-05 -1.68034e-05 -0.000179072  9.87432e-05 9.52799e-05 -0.000173744  0.000112162 2.81554e-05 -0.000170268  9.99268e-05 1.79099e-05 -0.000147451  7.38321e-05 8.11607e-06 -0.000140754  4.48755e-05 1.28761e-05 -0.000140916  1.56186e-05 5.1778e-06 -0.000139944  -1.15881e-05 1.04087e-05 -0.000147673  -2.43297e-05 7.61025e-06 -0.000171475  -1.70109e-05 -3.73439e-05 -0.000170801  7.89791e-05 4.98461e-05 -0.000169594  9.41669e-05 -5.13003e-06 -0.00016661  8.70171e-05 -1.29464e-05 -0.000140732  6.5936e-05 -1.72459e-05 -0.000131251  4.05528e-05 -1.51854e-05 -0.000131284  1.41237e-05 -1.90338e-05 -0.00013144  -9.35386e-06 -1.80942e-05 -0.000140492  -1.91861e-05 -2.38812e-05 -0.000164576  -8.81161e-06 -6.62413e-05 -0.000165115  8.82976e-05 6.37289e-06 -0.000169161  0.000103075 -4.28308e-05 -0.000166344  9.39852e-05 -4.70867e-05 -0.000140893  6.98954e-05 -4.70634e-05 -0.000131289  4.14192e-05 -4.57507e-05 -0.000131927  1.15206e-05 -4.65778e-05 -0.000131258  -1.58838e-05 -4.89627e-05 -0.000140713  -2.88996e-05 -5.73872e-05 -0.000165897  -1.69123e-05 -0.000103076 -0.000167496  8.80489e-05 -3.36338e-05 -0.00016518  0.000101387 -8.10289e-05 -0.000163591  9.32609e-05 -8.00549e-05 -0.000139931  6.94017e-05 -7.6038e-05 -0.000131452  4.07017e-05 -7.48602e-05 -0.000131271  1.09367e-05 -7.32941e-05 -0.000130928  -1.4697e-05 -7.96551e-05 -0.000140306  -2.63612e-05 -9.10169e-05 -0.000165682  -1.30541e-05 -0.000145867 -0.000167265  0.000106686 -6.60187e-05 -0.00017218  0.000116325 -0.000116741 -0.000171047  0.000104282 -0.000108618 -0.00014764  7.56203e-05 -0.000100415 -0.000140477  4.2293e-05 -9.94371e-05 -0.000140701  7.62774e-06 -9.58494e-05 -0.000140285  -2.38162e-05 -0.000107405 -0.000147403  -4.0634e-05 -0.000121889 -0.000170407  -2.78204e-05 -0.000193881 -0.000172435  0.000133519 -8.92926e-05 -0.000182686  0.000134145 -0.000137744 -0.000189851  0.000113012 -0.000120578 -0.000171462  7.69919e-05 -0.000108796 -0.000164583  3.7778e-05 -0.000108318 -0.000165903  -1.60052e-06 -0.000103823 -0.000165679  -3.68469e-05 -0.000120699 -0.000170422  -5.86624e-05 -0.000140792 -0.000184935  -5.69823e-05 -0.000228648 -0.000183198  9.95481e-05 -9.77502e-05 -0.000161579  9.01339e-05 -0.00013654 -0.000179217  6.44518e-05 -0.000109924 -0.000170919  2.94432e-05 -9.46463e-05 -0.000165243  -1.25601e-05 -9.24085e-05 -0.00016762  -5.91765e-05 -8.71207e-05 -0.000167385  -0.000109957 -0.000105297 -0.000172594  -0.000146355 -0.000137658 -0.000183324  -0.000155746 -0.000237612 -0.000174904  
            </DataArray>
            <DataArray type="Float64" Name="Velocity" NumberOfComponents="3" format="ascii">
               0.000207817 0.000172064 -0.000214102  0.000199641 9.29625e-05 -0.000225129  0.000169513 5.52923e-05 -0.000213917  0.000126971 3.28018e-05 -0.000209747  8.47114e-05 3.17704e-05 -0.000209319  4.54953e-05 2.69286e-05 -0.000204281  1.41784e-05 4.11573e-05 -0.000212589  -7.64506e-06 6.48663e-05 -0.000223717  -1.52978e-05 3.41694e-05 -0.000194159  0.000128836 0.00016417 -0.00022494  0.000130149 9.52255e-05 -0.000228811  0.000110001 6.86892e-05 -0.000213292  7.68819e-05 4.80433e-05 -0.000209435  3.9209e-05 4.77469e-05 -0.0002093  9.63377e-07 4.1093e-05 -0.000205741  -3.39417e-05 5.11331e-05 -0.000214527  -5.37983e-05 6.57742e-05 -0.000235585  -5.24264e-05 2.52349e-05 -0.000219383  8.93449e-05 0.00013459 -0.000213814  0.000101256 7.67342e-05 -0.000213351  8.79862e-05 5.73774e-05 -0.000188445  5.99168e-05 4.17221e-05 -0.000181061  2.80876e-05 4.08602e-05 -0.000181491  -2.91499e-06 3.49119e-05 -0.000180197  -2.94011e-05 4.0699e-05 -0.000188857  -3.97342e-05 4.59687e-05 -0.000215005  -2.9178e-05 9.74413e-07 -0.000211234  6.64038e-05 9.37493e-05 -0.000209583  7.91198e-05 4.65646e-05 -0.000209473  7.07265e-05 3.12881e-05 -0.000181034  4.87682e-05 2.1004e-05 -0.000170472  2.18062e-05 1.88123e-05 -0.000170726  -4.58859e-06 1.29618e-05 -0.000170904  -2.63685e-05 1.40747e-05 -0.000180919  -3.28232e-05 1.1513e-05 -0.000206987  -1.90074e-05 -3.19958e-05 -0.000204509  6.43377e-05 5.46118e-05 -0.000209143  7.6768e-05 1.40832e-05 -0.000209339  6.66165e-05 2.28897e-06 -0.000181458  4.29861e-05 -4.05407e-06 -0.00017073  1.65829e-05 -7.66464e-06 -0.000171586  -8.71413e-06 -1.38829e-05 -0.000170739  -2.97557e-05 -1.69858e-05 -0.000181177  -3.60926e-05 -2.60318e-05 -0.000208757  -2.06768e-05 -7.07473e-05 -0.000207532  5.21547e-05 2.04382e-05 -0.000204138  6.23838e-05 -1.80724e-05 -0.000205803  5.53878e-05 -2.67587e-05 -0.000180163  3.55016e-05 -2.98024e-05 -0.000170897  1.19157e-05 -3.54412e-05 -0.000170738  -1.12349e-05 -4.15546e-05 -0.000170077  -3.08061e-05 -4.88996e-05 -0.0001804  -3.6913e-05 -6.3262e-05 -0.000208117  -2.13242e-05 -0.000113234 -0.000206973  6.47069e-05 -4.08313e-06 -0.00021243  7.0982e-05 -4.7277e-05 -0.000214542  6.01761e-05 -5.3179e-05 -0.000188797  3.56836e-05 -5.17903e-05 -0.000180897  8.77867e-06 -6.02904e-05 -0.000181147  -1.81555e-05 -6.45979e-05 -0.000180377  -4.25633e-05 -7.71213e-05 -0.000188415  -5.36672e-05 -9.59025e-05 -0.00021339  -3.95367e-05 -0.000158983 -0.000212327  7.05038e-05 -2.0072e-05 -0.00022368  7.08492e-05 -6.40321e-05 -0.000235668  5.53345e-05 -6.53492e-05 -0.000215019  2.82625e-05 -6.06108e-05 -0.000207075  -1.24405e-06 -7.13817e-05 -0.000208819  -3.13095e-05 -7.43231e-05 -0.000208175  -5.93116e-05 -9.14496e-05 -0.00021347  -7.64616e-05 -0.000115733 -0.000229512  -7.35423e-05 -0.000191898 -0.00022421  3.94246e-05 -2.55707e-05 -0.000194119  3.31065e-05 -6.37815e-05 -0.000219381  1.58376e-05 -5.92025e-05 -0.000211081  -8.87402e-06 -5.14545e-05 -0.000204402  -4.09354e-05 -6.02161e-05 -0.000207381  -7.87088e-05 -6.19218e-05 -0.000206845  -0.000121407 -7.92621e-05 -0.000212279  -0.000152966 -0.000113976 -0.00022404  -0.000161427 -0.000200677 -0.000212081  
            </DataArray>
            <DataArray type="Float64" Name="Traction" NumberOfComponents="3" format="ascii">
               0 0 0  0 0 0  0 0 0  0 0 0  0 0 0  0 0 0  0 0 0  0 0 0  0 0 0  0 0 0  0 0 0  0 0 0  0 0 0  0 0 0  0 0 0  0 0 0  0 0 0  0 0 0  0 0 0  0 0 0  0 0 0  0 0 0  0 0 0  0 0 0  0 0 0  0 0 0  0 0 0  0 0 0  0 0 0  0 0 0  0 0 0  0 0 0  0 0 0  0 0 0  0 0 0  0 0 0  0 0 0  0 0 0  0 0 0  0 0 0  0 0 0  0 0 0  0 0 0  0 0 0  0 0 0  0 0 0  0 0 0  0 0 0  0 0 0  0 0 0  0 0 0  0 0 0  0 0 0  0 0 0  0 0 0  0 0 0  0 0 0  0 0 0  0 0 0  0 0 0  0 0 0  0 0 0  0 0 0  0 0 0  0 0 0  0 0 0  0 0 0  0 0 0  0 0 0  0 0 0  0 0 0  0 0 0  0 0 0  0 0 0  0 0 0  0 0 0  0 0 0  0 0 0  0 0 0  0 0 0  0 0 0  
            </DataArray>
         </PointData> 
      </Piece>
   </UnstructuredGrid> 
</VTKFile>
