<?xml version="1.0"?>
<VTKFile type="UnstructuredGrid" version="0.1" byte_order="LittleEndian">
   <UnstructuredGrid>
      <Piece NumberOfPoints="81" NumberOfCells="0" > 
         <Points> 
            <DataArray type="Float64" Name="Position" NumberOfComponents="3" format="ascii"> 
               0  0  20  
               0.375  0  20  
               0.75  0  20  
               1.125  0  20  
               1.5  0  20  
               1.875  0  20  
               2.25  0  20  
               2.625  0  20  
               3  0  20  
               0  0.375  20  
               0.375  0.375  20  
               0.75  0.375  20  
               1.125  0.375  20  
               1.5  0.375  20  
               1.875  0.375  20  
               2.25  0.375  20  
               2.625  0.375  20  
               3  0.375  20  
               0  0.75  20  
               0.375  0.75  20  
               0.75  0.75  20  
               1.125  0.75  20  
               1.5  0.75  20  
               1.875  0.75  20  
               2.25  0.75  20  
               2.625  0.75  20  
               3  0.75  20  
               0  1.125  20  
               0.375  1.125  20  
               0.75  1.125  20  
               1.125  1.125  20  
               1.5  1.125  20  
               1.875  1.125  20  
               2.25  1.125  20  
               2.625  1.125  20  
               3  1.125  20  
               0  1.5  20  
               0.375  1.5  20  
               0.75  1.5  20  
               1.125  1.5  20  
               1.5  1.5  20  
               1.875  1.5  20  
               2.25  1.5  20  
               2.625  1.5  20  
               3  1.5  20  
               0  1.875  20  
               0.375  1.875  20  
               0.75  1.875  20  
               1.125  1.875  20  
               1.5  1.875  20  
               1.875  1.875  20  
               2.25  1.875  20  
               2.625  1.875  20  
               3  1.875  20  
               0  2.25  20  
               0.375  2.25  20  
               0.75  2.25  20  
               1.125  2.25  20  
               1.5  2.25  20  
               1.875  2.25  20  
               2.25  2.25  20  
               2.625  2.25  20  
               3  2.25  20  
               0  2.625  20  
               0.375  2.625  20  
               0.75  2.625  20  
               1.125  2.625  20  
               1.5  2.625  20  
               1.875  2.625  20  
               2.25  2.625  20  
               2.625  2.625  20  
               3  2.625  20  
               0  3  20  
               0.375  3  20  
               0.75  3  20  
               1.125  3  20  
               1.5  3  20  
               1.875  3  20  
               2.25  3  20  
               2.625  3  20  
               3  3  20  
            </DataArray>
         </Points> 

         <Cells>
            <DataArray type="Int32" Name="connectivity" NumberOfComponents="1" format="ascii">
               
            </DataArray> 
            <DataArray type="Int32" Name="offsets" NumberOfComponents="1" format="ascii">
               
            </DataArray>
            <DataArray type="UInt8"  Name="types" NumberOfComponents="1" format="ascii">
               
            </DataArray>
         </Cells>
         <PointData Scalars="Rank " Vectors="Displacement Velocity Traction ">
            <DataArray type="UInt32" Name="Rank" NumberOfComponents="1" format="ascii">
               0 0 0 0 0 0 0 0 0 0 0 0 0 0 0 0 0 0 0 0 0 0 0 0 0 0 0 0 0 0 0 0 0 0 0 0 0 0 0 0 0 0 0 0 0 0 0 0 0 0 0 0 0 0 0 0 0 0 0 0 0 0 0 0 0 0 0 0 0 0 0 0 0 0 0 0 0 0 0 0 0 
            </DataArray>
            <DataArray type="Float64" Name="Displacement" NumberOfComponents="3" format="ascii">
               0 0 0  0 0 0  0 0 0  0 0 0  0 0 0  0 0 0  0 0 0  0 0 0  0 0 0  0 0 0  0 0 0  0 0 0  0 0 0  0 0 0  0 0 0  0 0 0  0 0 0  0 0 0  0 0 0  0 0 0  0 0 0  0 0 0  0 0 0  0 0 0  0 0 0  0 0 0  0 0 0  0 0 0  0 0 0  0 0 0  0 0 0  0 0 0  0 0 0  0 0 0  0 0 0  0 0 0  0 0 0  0 0 0  0 0 0  0 0 0  0 0 0  0 0 0  0 0 0  0 0 0  0 0 0  0 0 0  0 0 0  0 0 0  0 0 0  0 0 0  0 0 0  0 0 0  0 0 0  0 0 0  0 0 0  0 0 0  0 0 0  0 0 0  0 0 0  0 0 0  0 0 0  0 0 0  0 0 0  0 0 0  0 0 0  0 0 0  0 0 0  0 0 0  0 0 0  0 0 0  0 0 0  0 0 0  0 0 0  0 0 0  0 0 0  0 0 0  0 0 0  0 0 0  0 0 0  0 0 0  0 0 0  
            </DataArray>
            <DataArray type="Float64" Name="Velocity" NumberOfComponents="3" format="ascii">
               0 0 0  0 0 0  0 0 0  0 0 0  0 0 0  0 0 0  0 0 0  0 0 0  0 0 0  0 0 0  0 0 0  0 0 0  0 0 0  0 0 0  0 0 0  0 0 0  0 0 0  0 0 0  0 0 0  0 0 0  0 0 0  0 0 0  0 0 0  0 0 0  0 0 0  0 0 0  0 0 0  0 0 0  0 0 0  0 0 0  0 0 0  0 0 0  0 0 0  0 0 0  0 0 0  0 0 0  0 0 0  0 0 0  0 0 0  0 0 0  0 0 0  0 0 0  0 0 0  0 0 0  0 0 0  0 0 0  0 0 0  0 0 0  0 0 0  0 0 0  0 0 0  0 0 0  0 0 0  0 0 0  0 0 0  0 0 0  0 0 0  0 0 0  0 0 0  0 0 0  0 0 0  0 0 0  0 0 0  0 0 0  0 0 0  0 0 0  0 0 0  0 0 0  0 0 0  0 0 0  0 0 0  0 0 0  0 0 0  0 0 0  0 0 0  0 0 0  0 0 0  0 0 0  0 0 0  0 0 0  0 0 0  
            </DataArray>
            <DataArray type="Float64" Name="Traction" NumberOfComponents="3" format="ascii">
               -9.83099e-08 -9.88947e-08 3.06594e-06  -3.95859e-08 -1.3211e-07 3.06594e-06  -1.10325e-08 -1.79644e-07 3.06594e-06  8.03411e-09 -1.87828e-07 3.06594e-06  -1.18641e-08 -1.75448e-07 3.06594e-06  -6.01447e-09 -1.88201e-07 3.06594e-06  3.46697e-08 -1.81238e-07 3.06594e-06  4.56845e-08 -1.26843e-07 3.06594e-06  1.0068e-07 -1.05449e-07 3.06594e-06  -1.30824e-07 -3.99213e-08 3.06594e-06  -6.73455e-08 -6.83413e-08 3.06594e-06  -2.30913e-08 -1.01718e-07 3.06594e-06  2.0928e-09 -1.05082e-07 3.06594e-06  -1.93442e-08 -1.04023e-07 3.06594e-06  -1.40068e-09 -1.04741e-07 3.06594e-06  4.97689e-08 -1.0563e-07 3.06594e-06  6.80478e-08 -6.77494e-08 3.06594e-06  1.26442e-07 -4.94437e-08 3.06594e-06  -1.78031e-07 -1.16019e-08 3.06594e-06  -9.97676e-08 -2.38529e-08 3.06594e-06  -3.86706e-08 -4.01734e-08 3.06594e-06  3.79413e-09 -4.2684e-08 3.06594e-06  -2.47186e-08 -4.22739e-08 3.06594e-06  -1.5669e-09 -4.2749e-08 3.06594e-06  7.57155e-08 -4.34899e-08 3.06594e-06  1.04447e-07 -2.67974e-08 3.06594e-06  1.79943e-07 -1.92277e-08 3.06594e-06  -1.87152e-07 7.33282e-09 3.06594e-06  -1.04291e-07 1.23229e-09 3.06594e-06  -4.20734e-08 2.54106e-09 3.06594e-06  7.30409e-10 -1.1393e-11 3.06594e-06  -2.61457e-08 1.53071e-10 3.06594e-06  -1.17094e-10 -2.26428e-10 3.06594e-06  8.00634e-08 2.20563e-09 3.06594e-06  1.04774e-07 8.56778e-10 3.06594e-06  1.88185e-07 8.39627e-09 3.06594e-06  -1.73279e-07 -1.23546e-08 3.06594e-06  -1.01853e-07 -2.01148e-08 3.06594e-06  -4.06624e-08 -2.5866e-08 3.06594e-06  1.30106e-09 -2.65712e-08 3.06594e-06  -2.42934e-08 -2.50362e-08 3.06594e-06  -9.87057e-10 -2.64987e-08 3.06594e-06  7.57598e-08 -2.88433e-08 3.06594e-06  1.02156e-07 -2.08454e-08 3.06594e-06  1.73397e-07 -1.74131e-08 3.06594e-06  -1.8814e-07 -6.40077e-09 3.06594e-06  -1.04307e-07 -2.27801e-09 3.06594e-06  -4.20894e-08 -2.97035e-09 3.06594e-06  3.87363e-10 -5.20982e-10 3.06594e-06  -2.6024e-08 -1.81208e-09 3.06594e-06  1.863e-10 -4.38038e-10 3.06594e-06  8.09331e-08 -4.99308e-09 3.06594e-06  1.05437e-07 -9.98061e-10 3.06594e-06  1.88036e-07 -9.64174e-09 3.06594e-06  -1.79413e-07 3.47656e-08 3.06594e-06  -1.03606e-07 4.80646e-08 3.06594e-06  -4.14156e-08 7.34898e-08 3.06594e-06  3.53756e-09 8.0026e-08 3.06594e-06  -2.79683e-08 7.47813e-08 3.06594e-06  -4.28408e-09 8.05916e-08 3.06594e-06  7.15134e-08 7.10018e-08 3.06594e-06  1.0105e-07 4.60775e-08 3.06594e-06  1.78819e-07 3.07413e-08 3.06594e-06  -1.24769e-07 4.60906e-08 3.06594e-06  -6.55907e-08 6.62086e-08 3.06594e-06  -2.50379e-08 1.02026e-07 3.06594e-06  1.74561e-09 1.04917e-07 3.06594e-06  -2.01149e-08 1.00934e-07 3.06594e-06  -2.55147e-10 1.05087e-07 3.06594e-06  4.68286e-08 1.00586e-07 3.06594e-06  6.85623e-08 6.79396e-08 3.06594e-06  1.31559e-07 4.3614e-08 3.06594e-06  -1.05394e-07 1.01196e-07 3.06594e-06  -4.94839e-08 1.25079e-07 3.06594e-06  -1.92743e-08 1.7785e-07 3.06594e-06  8.74365e-09 1.88507e-07 3.06594e-06  -1.68766e-08 1.72326e-07 3.06594e-06  -9.07813e-09 1.87562e-07 3.06594e-06  3.14158e-08 1.78381e-07 3.06594e-06  4.4174e-08 1.30925e-07 3.06594e-06  1.02224e-07 1.01641e-07 3.06594e-06  
            </DataArray>
         </PointData> 
      </Piece>
   </UnstructuredGrid> 
</VTKFile>
