<?xml version="1.0"?>
<VTKFile type="UnstructuredGrid" version="0.1" byte_order="LittleEndian">
   <UnstructuredGrid>
      <Piece NumberOfPoints="81" NumberOfCells="0" > 
         <Points> 
            <DataArray type="Float64" Name="Position" NumberOfComponents="3" format="ascii"> 
               0  0  15  
               0.375  0  15  
               0.75  0  15  
               1.125  0  15  
               1.5  0  15  
               1.875  0  15  
               2.25  0  15  
               2.625  0  15  
               3  0  15  
               0  0.375  15  
               0.375  0.375  15  
               0.75  0.375  15  
               1.125  0.375  15  
               1.5  0.375  15  
               1.875  0.375  15  
               2.25  0.375  15  
               2.625  0.375  15  
               3  0.375  15  
               0  0.75  15  
               0.375  0.75  15  
               0.75  0.75  15  
               1.125  0.75  15  
               1.5  0.75  15  
               1.875  0.75  15  
               2.25  0.75  15  
               2.625  0.75  15  
               3  0.75  15  
               0  1.125  15  
               0.375  1.125  15  
               0.75  1.125  15  
               1.125  1.125  15  
               1.5  1.125  15  
               1.875  1.125  15  
               2.25  1.125  15  
               2.625  1.125  15  
               3  1.125  15  
               0  1.5  15  
               0.375  1.5  15  
               0.75  1.5  15  
               1.125  1.5  15  
               1.5  1.5  15  
               1.875  1.5  15  
               2.25  1.5  15  
               2.625  1.5  15  
               3  1.5  15  
               0  1.875  15  
               0.375  1.875  15  
               0.75  1.875  15  
               1.125  1.875  15  
               1.5  1.875  15  
               1.875  1.875  15  
               2.25  1.875  15  
               2.625  1.875  15  
               3  1.875  15  
               0  2.25  15  
               0.375  2.25  15  
               0.75  2.25  15  
               1.125  2.25  15  
               1.5  2.25  15  
               1.875  2.25  15  
               2.25  2.25  15  
               2.625  2.25  15  
               3  2.25  15  
               0  2.625  15  
               0.375  2.625  15  
               0.75  2.625  15  
               1.125  2.625  15  
               1.5  2.625  15  
               1.875  2.625  15  
               2.25  2.625  15  
               2.625  2.625  15  
               3  2.625  15  
               0  3  15  
               0.375  3  15  
               0.75  3  15  
               1.125  3  15  
               1.5  3  15  
               1.875  3  15  
               2.25  3  15  
               2.625  3  15  
               3  3  15  
            </DataArray>
         </Points> 

         <Cells>
            <DataArray type="Int32" Name="connectivity" NumberOfComponents="1" format="ascii">
               
            </DataArray> 
            <DataArray type="Int32" Name="offsets" NumberOfComponents="1" format="ascii">
               
            </DataArray>
            <DataArray type="UInt8"  Name="types" NumberOfComponents="1" format="ascii">
               
            </DataArray>
         </Cells>
         <PointData Scalars="Rank " Vectors="Displacement Velocity Traction ">
            <DataArray type="UInt32" Name="Rank" NumberOfComponents="1" format="ascii">
               0 0 0 0 0 0 0 0 0 0 0 0 0 0 0 0 0 0 0 0 0 0 0 0 0 0 0 0 0 0 0 0 0 0 0 0 0 0 0 0 0 0 0 0 0 0 0 0 0 0 0 0 0 0 0 0 0 0 0 0 0 0 0 0 0 0 0 0 0 0 0 0 0 0 0 0 0 0 0 0 0 
            </DataArray>
            <DataArray type="Float64" Name="Displacement" NumberOfComponents="3" format="ascii">
               0.000782305 0.000655484 -0.00127645  0.000752845 0.00035599 -0.00134338  0.0006411 0.000231189 -0.00127983  0.000481393 0.000148472 -0.00125878  0.000324491 0.000143463 -0.00125834  0.000183072 0.000118251 -0.00122747  7.61756e-05 0.00017208 -0.00127389  6.43781e-06 0.000237011 -0.00133384  -1.70358e-05 0.00011363 -0.00115374  0.000477623 0.000626369 -0.00134362  0.00048349 0.000364286 -0.00136752  0.000412038 0.000280097 -0.00127861  0.000292312 0.000205438 -0.00125791  0.000155599 0.000201486 -0.001259  1.70115e-05 0.000167947 -0.00123663  -0.000109534 0.000204955 -0.00128642  -0.000179438 0.000239774 -0.00140746  -0.000173636 8.25295e-05 -0.0013077  0.000341668 0.000516212 -0.00127982  0.000386139 0.0002971 -0.00127843  0.000336525 0.000235737 -0.00113723  0.000232014 0.000181125 -0.0010965  0.000114461 0.000173265 -0.001101  -1.15307e-06 0.00014465 -0.00109215  -0.000102044 0.00016512 -0.00113956  -0.000141992 0.00017008 -0.00128948  -0.000105352 -1.91068e-06 -0.0012645  0.000252345 0.000361283 -0.00125887  0.000302686 0.000184578 -0.00125777  0.000273405 0.000136231 -0.00109653  0.000191477 0.000101721 -0.00103795  9.04206e-05 8.82169e-05 -0.00104126  -9.83545e-06 6.25619e-05 -0.00104115  -9.19226e-05 6.36994e-05 -0.00109651  -0.000115837 4.4607e-05 -0.00124434  -6.63657e-05 -0.000118752 -0.00122801  0.000239827 0.000212461 -0.0012584  0.000289495 5.93738e-05 -0.00125884  0.000255221 2.48131e-05 -0.00110103  0.000168472 4.03824e-06 -0.00104127  6.94784e-05 -1.21737e-05 -0.00104772  -2.75921e-05 -3.86344e-05 -0.00104119  -0.000109692 -5.23642e-05 -0.0010991  -0.000135081 -9.34125e-05 -0.00125557  -7.87171e-05 -0.000258076 -0.00124705  0.000198988 8.30445e-05 -0.00122747  0.000240139 -6.63136e-05 -0.00123647  0.000216351 -8.69059e-05 -0.00109222  0.000140318 -9.53397e-05 -0.00104122  4.73356e-05 -0.000115088 -0.00104123  -4.51106e-05 -0.000141839 -0.00103556  -0.000121198 -0.000170837 -0.00109248  -0.000144175 -0.00023101 -0.00125003  -8.56868e-05 -0.00041446 -0.0012415  0.00025047 -8.39616e-06 -0.00127395  0.000275467 -0.000180721 -0.00128637  0.000236411 -0.0001875 -0.00113965  0.00014177 -0.000177945 -0.00109659  3.63609e-05 -0.000205389 -0.00109919  -6.9317e-05 -0.000226999 -0.00109251  -0.000164151 -0.00027661 -0.00113677  -0.000207489 -0.000351251 -0.00127925  -0.00015508 -0.000586021 -0.00126953  0.000286889 -6.51687e-05 -0.0013336  0.000288594 -0.000243727 -0.00140732  0.000229322 -0.000231186 -0.00128944  0.00012141 -0.000206942 -0.0012442  2.26646e-06 -0.000241232 -0.00125548  -0.000117815 -0.000259484 -0.0012499  -0.000225529 -0.000329375 -0.00127908  -0.000289396 -0.000422974 -0.00137124  -0.000278566 -0.000708868 -0.00133661  0.000168749 -8.38651e-05 -0.00115351  0.000143259 -0.000240102 -0.00130777  7.43872e-05 -0.000204096 -0.0012649  -2.31433e-05 -0.000167847 -0.00122837  -0.000145749 -0.000194933 -0.00124754  -0.000289229 -0.000209266 -0.00124193  -0.0004515 -0.00028276 -0.00126981  -0.000569684 -0.000415626 -0.00133713  -0.000600989 -0.000741222 -0.00126342  
            </DataArray>
            <DataArray type="Float64" Name="Velocity" NumberOfComponents="3" format="ascii">
               0.000419951 0.000402621 -0.00143341  0.00040384 0.000251618 -0.00150227  0.000344552 0.000176311 -0.00143134  0.000258541 0.000122489 -0.00141139  0.000171209 0.000109873 -0.00141266  9.34032e-05 9.58546e-05 -0.0013787  3.97391e-05 0.000132894 -0.00142668  1.08249e-05 0.000164854 -0.00149119  2.79455e-06 9.70243e-05 -0.00129983  0.000265067 0.000387177 -0.00150363  0.000267813 0.000257083 -0.0015204  0.000228831 0.0002045 -0.0014173  0.000161119 0.000157737 -0.00139625  8.17263e-05 0.000146911 -0.00139913  8.7918e-07 0.0001266 -0.00137351  -7.10247e-05 0.000151165 -0.00142624  -0.000106209 0.000167062 -0.00156299  -0.000100231 8.02185e-05 -0.0014635  0.000182636 0.000330547 -0.00143283  0.000206139 0.000223207 -0.00141733  0.000180039 0.000184319 -0.00125427  0.000121843 0.000151144 -0.00121175  5.61589e-05 0.000138718 -0.00121836  -8.33853e-06 0.000120513 -0.00120745  -6.396e-05 0.000133064 -0.00125697  -8.25711e-05 0.000132396 -0.00142938  -6.03673e-05 3.5698e-05 -0.00141737  0.000125459 0.000250038 -0.00141248  0.000154334 0.00016319 -0.0013959  0.000141952 0.000131986 -0.00121136  9.79031e-05 0.000111303 -0.00115008  4.11819e-05 9.73025e-05 -0.0011552  -1.4265e-05 7.85433e-05 -0.0011539  -5.62773e-05 7.72988e-05 -0.00121204  -6.28047e-05 6.25132e-05 -0.00138165  -3.2711e-05 -2.65073e-05 -0.00137978  0.000106598 0.000170882 -0.00141376  0.000136048 9.45977e-05 -0.00139884  0.000121431 7.30629e-05 -0.00121809  7.64902e-05 5.94648e-05 -0.00115537  2.49143e-05 4.66373e-05 -0.00116311  -2.43602e-05 2.29056e-05 -0.00115506  -6.42794e-05 1.35024e-05 -0.00121622  -7.04854e-05 -1.69761e-05 -0.00139503  -3.61708e-05 -9.84981e-05 -0.00140066  7.94209e-05 0.000104018 -0.00137997  0.00010284 2.50901e-05 -0.00137342  9.50054e-05 1.32964e-05 -0.00120733  5.58748e-05 6.56351e-06 -0.00115425  5.01214e-06 -5.72482e-06 -0.00115526  -4.48776e-05 -3.41219e-05 -0.00114739  -8.30936e-05 -5.12368e-05 -0.00120708  -8.89765e-05 -9.58688e-05 -0.00138716  -5.39188e-05 -0.000180349 -0.00139278  0.000112746 6.32736e-05 -0.00142776  0.000124425 -3.68002e-05 -0.00142594  0.000105769 -4.09102e-05 -0.0012565  5.38116e-05 -3.46334e-05 -0.00121192  -2.89213e-06 -5.11768e-05 -0.00121603  -5.8571e-05 -7.85339e-05 -0.0012067  -0.000108107 -0.000108826 -0.00125354  -0.000127716 -0.000162354 -0.00141768  -9.78904e-05 -0.00027174 -0.00142007  0.000121474 4.49871e-05 -0.0014922  0.000122412 -6.62086e-05 -0.00156278  9.46727e-05 -6.16448e-05 -0.00142911  3.70171e-05 -4.43034e-05 -0.00138159  -2.86567e-05 -6.51346e-05 -0.00139487  -9.42988e-05 -9.14832e-05 -0.00138681  -0.000150919 -0.000135958 -0.00141767  -0.000182047 -0.00020026 -0.00152414  -0.000175018 -0.000336922 -0.00149473  5.58362e-05 4.08761e-05 -0.00130273  4.30636e-05 -6.15823e-05 -0.0014649  9.90239e-06 -4.63842e-05 -0.00141876  -3.78541e-05 -2.20094e-05 -0.0013814  -9.67793e-05 -3.88378e-05 -0.00140228  -0.000168145 -6.31592e-05 -0.00139433  -0.000251778 -0.000111277 -0.00142213  -0.000312647 -0.000196616 -0.00149663  -0.000328985 -0.000354568 -0.00141932  
            </DataArray>
            <DataArray type="Float64" Name="Traction" NumberOfComponents="3" format="ascii">
               0 0 0  0 0 0  0 0 0  0 0 0  0 0 0  0 0 0  0 0 0  0 0 0  0 0 0  0 0 0  0 0 0  0 0 0  0 0 0  0 0 0  0 0 0  0 0 0  0 0 0  0 0 0  0 0 0  0 0 0  0 0 0  0 0 0  0 0 0  0 0 0  0 0 0  0 0 0  0 0 0  0 0 0  0 0 0  0 0 0  0 0 0  0 0 0  0 0 0  0 0 0  0 0 0  0 0 0  0 0 0  0 0 0  0 0 0  0 0 0  0 0 0  0 0 0  0 0 0  0 0 0  0 0 0  0 0 0  0 0 0  0 0 0  0 0 0  0 0 0  0 0 0  0 0 0  0 0 0  0 0 0  0 0 0  0 0 0  0 0 0  0 0 0  0 0 0  0 0 0  0 0 0  0 0 0  0 0 0  0 0 0  0 0 0  0 0 0  0 0 0  0 0 0  0 0 0  0 0 0  0 0 0  0 0 0  0 0 0  0 0 0  0 0 0  0 0 0  0 0 0  0 0 0  0 0 0  0 0 0  0 0 0  
            </DataArray>
         </PointData> 
      </Piece>
   </UnstructuredGrid> 
</VTKFile>
