<?xml version="1.0"?>
<VTKFile type="UnstructuredGrid" version="0.1" byte_order="LittleEndian">
   <UnstructuredGrid>
      <Piece NumberOfPoints="81" NumberOfCells="0" > 
         <Points> 
            <DataArray type="Float64" Name="Position" NumberOfComponents="3" format="ascii"> 
               0  0  15  
               0.375  0  15  
               0.75  0  15  
               1.125  0  15  
               1.5  0  15  
               1.875  0  15  
               2.25  0  15  
               2.625  0  15  
               3  0  15  
               0  0.375  15  
               0.375  0.375  15  
               0.75  0.375  15  
               1.125  0.375  15  
               1.5  0.375  15  
               1.875  0.375  15  
               2.25  0.375  15  
               2.625  0.375  15  
               3  0.375  15  
               0  0.75  15  
               0.375  0.75  15  
               0.75  0.75  15  
               1.125  0.75  15  
               1.5  0.75  15  
               1.875  0.75  15  
               2.25  0.75  15  
               2.625  0.75  15  
               3  0.75  15  
               0  1.125  15  
               0.375  1.125  15  
               0.75  1.125  15  
               1.125  1.125  15  
               1.5  1.125  15  
               1.875  1.125  15  
               2.25  1.125  15  
               2.625  1.125  15  
               3  1.125  15  
               0  1.5  15  
               0.375  1.5  15  
               0.75  1.5  15  
               1.125  1.5  15  
               1.5  1.5  15  
               1.875  1.5  15  
               2.25  1.5  15  
               2.625  1.5  15  
               3  1.5  15  
               0  1.875  15  
               0.375  1.875  15  
               0.75  1.875  15  
               1.125  1.875  15  
               1.5  1.875  15  
               1.875  1.875  15  
               2.25  1.875  15  
               2.625  1.875  15  
               3  1.875  15  
               0  2.25  15  
               0.375  2.25  15  
               0.75  2.25  15  
               1.125  2.25  15  
               1.5  2.25  15  
               1.875  2.25  15  
               2.25  2.25  15  
               2.625  2.25  15  
               3  2.25  15  
               0  2.625  15  
               0.375  2.625  15  
               0.75  2.625  15  
               1.125  2.625  15  
               1.5  2.625  15  
               1.875  2.625  15  
               2.25  2.625  15  
               2.625  2.625  15  
               3  2.625  15  
               0  3  15  
               0.375  3  15  
               0.75  3  15  
               1.125  3  15  
               1.5  3  15  
               1.875  3  15  
               2.25  3  15  
               2.625  3  15  
               3  3  15  
            </DataArray>
         </Points> 

         <Cells>
            <DataArray type="Int32" Name="connectivity" NumberOfComponents="1" format="ascii">
               
            </DataArray> 
            <DataArray type="Int32" Name="offsets" NumberOfComponents="1" format="ascii">
               
            </DataArray>
            <DataArray type="UInt8"  Name="types" NumberOfComponents="1" format="ascii">
               
            </DataArray>
         </Cells>
         <PointData Scalars="Rank " Vectors="Displacement Velocity Traction ">
            <DataArray type="UInt32" Name="Rank" NumberOfComponents="1" format="ascii">
               0 0 0 0 0 0 0 0 0 0 0 0 0 0 0 0 0 0 0 0 0 0 0 0 0 0 0 0 0 0 0 0 0 0 0 0 0 0 0 0 0 0 0 0 0 0 0 0 0 0 0 0 0 0 0 0 0 0 0 0 0 0 0 0 0 0 0 0 0 0 0 0 0 0 0 0 0 0 0 0 0 
            </DataArray>
            <DataArray type="Float64" Name="Displacement" NumberOfComponents="3" format="ascii">
               0.00014339 7.75592e-05 -0.000107072  0.000138791 1.76706e-05 -0.000111142  0.000119606 6.31273e-06 -0.000104559  9.25686e-05 -1.73941e-06 -0.000101877  6.85098e-05 6.24128e-06 -0.00010161  4.82222e-05 -1.86218e-06 -9.92317e-05  3.3666e-05 4.93255e-06 -0.000103487  2.38492e-05 5.61467e-06 -0.000110275  2.02732e-05 -1.96567e-05 -9.83609e-05  8.14984e-05 7.23807e-05 -0.000111237  8.35691e-05 1.79272e-05 -0.000110576  7.37104e-05 1.25117e-05 -0.00010156  5.72127e-05 4.72799e-06 -9.91974e-05  3.93512e-05 1.15177e-05 -9.902e-05  2.11801e-05 2.65766e-06 -9.73784e-05  3.12597e-06 7.60137e-06 -0.000101984  -7.92485e-06 5.01303e-06 -0.000113863  -7.8566e-06 -2.40614e-05 -0.000108161  6.73215e-05 5.09139e-05 -0.000104644  7.65476e-05 4.08475e-06 -0.00010155  6.89037e-05 1.59573e-07 -8.69655e-05  5.25496e-05 -4.51748e-06 -8.26913e-05  3.46235e-05 1.95168e-07 -8.27812e-05  1.61444e-05 -5.45947e-06 -8.21798e-05  -1.78953e-06 -2.26953e-06 -8.70568e-05  -1.08352e-05 -6.89131e-06 -0.000102233  -7.11713e-06 -3.617e-05 -0.000102636  5.55027e-05 1.98068e-05 -0.000101956  6.6198e-05 -1.85443e-05 -9.91841e-05  6.19122e-05 -2.13909e-05 -8.26884e-05  4.84306e-05 -2.24903e-05 -7.66898e-05  3.23862e-05 -1.99751e-05 -7.67056e-05  1.51515e-05 -2.19601e-05 -7.67598e-05  -6.73317e-07 -2.14477e-05 -8.24977e-05  -8.15536e-06 -2.64165e-05 -9.79679e-05  -2.54411e-06 -5.35801e-05 -9.91703e-05  6.48785e-05 -9.92148e-06 -0.00010169  7.52617e-05 -4.47144e-05 -9.90038e-05  6.97015e-05 -4.51755e-05 -8.27773e-05  5.39061e-05 -4.34025e-05 -7.67057e-05  3.47468e-05 -4.11482e-05 -7.71041e-05  1.38515e-05 -4.01296e-05 -7.668e-05  -5.98643e-06 -4.14708e-05 -8.26664e-05  -1.6562e-05 -4.68807e-05 -9.87571e-05  -9.88972e-06 -7.67876e-05 -0.000100596  6.84687e-05 -3.78123e-05 -9.93198e-05  7.8116e-05 -7.14434e-05 -9.73633e-05  7.24486e-05 -6.77933e-05 -8.21805e-05  5.56584e-05 -6.328e-05 -7.67643e-05  3.53656e-05 -6.04916e-05 -7.66857e-05  1.39148e-05 -5.72206e-05 -7.64952e-05  -4.65359e-06 -6.10379e-05 -8.24386e-05  -1.39745e-05 -6.75634e-05 -9.86818e-05  -6.05801e-06 -0.000104582 -0.000100506  8.2208e-05 -6.13163e-05 -0.000103582  8.95164e-05 -9.66728e-05 -0.000101972  8.13086e-05 -8.69683e-05 -8.70564e-05  6.13977e-05 -7.98899e-05 -8.24955e-05  3.77465e-05 -7.63649e-05 -8.26688e-05  1.28074e-05 -7.17534e-05 -8.24359e-05  -9.81115e-06 -7.89252e-05 -8.69333e-05  -2.25339e-05 -8.7015e-05 -0.000101678  -1.46406e-05 -0.000136442 -0.000103849  0.000106179 -7.8656e-05 -0.00011035  0.00010667 -0.000111609 -0.000113822  9.11778e-05 -9.46258e-05 -0.00010222  6.49586e-05 -8.52111e-05 -9.79488e-05  3.64234e-05 -8.14115e-05 -9.87457e-05  7.89424e-06 -7.63754e-05 -9.86671e-05  -1.72578e-05 -8.72417e-05 -0.000101664  -3.2855e-05 -9.89552e-05 -0.000110903  -3.21502e-05 -0.000159582 -0.000110709  8.32337e-05 -8.50401e-05 -9.85934e-05  7.61513e-05 -0.000110499 -0.000108268  5.68289e-05 -8.6258e-05 -0.000102764  3.08252e-05 -7.44427e-05 -9.92903e-05  4.12284e-07 -6.957e-05 -0.000100721  -3.26528e-05 -6.41444e-05 -0.000100624  -6.81996e-05 -7.62316e-05 -0.000103967  -9.33564e-05 -9.64807e-05 -0.00011084  -9.97414e-05 -0.000165452 -0.000106223  
            </DataArray>
            <DataArray type="Float64" Name="Velocity" NumberOfComponents="3" format="ascii">
               0.000154672 0.000114664 -0.000135153  0.000148837 5.63037e-05 -0.000142014  0.00012671 3.12069e-05 -0.000134474  9.53285e-05 1.64701e-05 -0.000131511  6.44525e-05 1.79616e-05 -0.000131219  3.59884e-05 1.36998e-05 -0.000127965  1.33057e-05 2.39913e-05 -0.000133478  -2.64789e-06 4.05884e-05 -0.000141019  -8.31671e-06 1.7513e-05 -0.000123066  9.49464e-05 0.000108849 -0.000142064  9.60521e-05 5.76961e-05 -0.000143829  8.15556e-05 4.07036e-05 -0.000133704  5.77117e-05 2.72043e-05 -0.000131032  3.0726e-05 2.89987e-05 -0.000130876  3.27954e-06 2.36157e-05 -0.000128628  -2.2104e-05 3.1034e-05 -0.000134412  -3.68097e-05 4.11703e-05 -0.000148129  -3.59635e-05 1.09901e-05 -0.000138275  6.74146e-05 8.68088e-05 -0.000134608  7.63868e-05 4.36109e-05 -0.00013375  6.67152e-05 3.15004e-05 -0.00011751  4.61592e-05 2.17225e-05 -0.000112524  2.29509e-05 2.2801e-05 -0.000112662  2.06522e-07 1.85069e-05 -0.000111903  -1.95607e-05 2.30194e-05 -0.000117733  -2.76476e-05 2.65851e-05 -0.000134761  -2.02199e-05 -6.7863e-06 -0.000132507  5.06487e-05 5.62176e-05 -0.000131579  6.03445e-05 2.06556e-05 -0.000131031  5.4452e-05 1.11847e-05 -0.000112472  3.84806e-05 5.58953e-06 -0.000105339  1.8847e-05 5.47842e-06 -0.000105386  -6.37828e-07 1.98101e-06 -0.000105519  -1.70521e-05 3.12701e-06 -0.000112351  -2.23005e-05 1.30747e-06 -0.000129422  -1.23358e-05 -3.11046e-05 -0.000128091  5.22645e-05 2.68582e-05 -0.000131279  6.17603e-05 -4.39791e-06 -0.000130875  5.43521e-05 -1.14643e-05 -0.000112614  3.66329e-05 -1.37879e-05 -0.0001054  1.65878e-05 -1.48988e-05 -0.000105935  -3.01303e-06 -1.79436e-05 -0.000105367  -1.96904e-05 -1.99315e-05 -0.000112519  -2.54516e-05 -2.62471e-05 -0.000130469  -1.43145e-05 -6.02975e-05 -0.000130012  4.52035e-05 7.1564e-07 -0.000128055  5.33795e-05 -2.94811e-05 -0.000128659  4.81585e-05 -3.40379e-05 -0.000111875  3.28118e-05 -3.34477e-05 -0.000105552  1.44923e-05 -3.585e-05 -0.000105395  -3.79805e-06 -3.83066e-05 -0.000105095  -1.94245e-05 -4.35627e-05 -0.000112171  -2.49303e-05 -5.36667e-05 -0.000130261  -1.35678e-05 -9.26203e-05 -0.000129742  5.71495e-05 -1.89308e-05 -0.000133548  6.2522e-05 -5.26115e-05 -0.000134395  5.42787e-05 -5.44577e-05 -0.000117655  3.51784e-05 -5.02354e-05 -0.000112317  1.38478e-05 -5.44106e-05 -0.000112485  -7.70666e-06 -5.53244e-05 -0.000112118  -2.72671e-05 -6.45886e-05 -0.000117443  -3.65113e-05 -7.80471e-05 -0.0001338  -2.60285e-05 -0.000127505 -0.00013351  6.57273e-05 -3.24418e-05 -0.000141134  6.60707e-05 -6.61404e-05 -0.000148145  5.34699e-05 -6.37489e-05 -0.000134747  3.16526e-05 -5.66754e-05 -0.000129454  7.88792e-06 -6.23892e-05 -0.000130491  -1.61674e-05 -6.23204e-05 -0.000130263  -3.84776e-05 -7.50978e-05 -0.000133846  -5.2287e-05 -9.29634e-05 -0.000144222  -5.03076e-05 -0.000152638 -0.000141447  4.18241e-05 -3.72475e-05 -0.000123383  3.65241e-05 -6.59153e-05 -0.000138431  2.20894e-05 -5.84724e-05 -0.000132599  1.92603e-06 -4.89685e-05 -0.000128214  -2.37346e-05 -5.32632e-05 -0.000130137  -5.34648e-05 -5.2428e-05 -0.00012986  -8.66766e-05 -6.53968e-05 -0.000133719  -0.000111133 -9.14366e-05 -0.000141573  -0.000117651 -0.000159297 -0.000134192  
            </DataArray>
            <DataArray type="Float64" Name="Traction" NumberOfComponents="3" format="ascii">
               0 0 0  0 0 0  0 0 0  0 0 0  0 0 0  0 0 0  0 0 0  0 0 0  0 0 0  0 0 0  0 0 0  0 0 0  0 0 0  0 0 0  0 0 0  0 0 0  0 0 0  0 0 0  0 0 0  0 0 0  0 0 0  0 0 0  0 0 0  0 0 0  0 0 0  0 0 0  0 0 0  0 0 0  0 0 0  0 0 0  0 0 0  0 0 0  0 0 0  0 0 0  0 0 0  0 0 0  0 0 0  0 0 0  0 0 0  0 0 0  0 0 0  0 0 0  0 0 0  0 0 0  0 0 0  0 0 0  0 0 0  0 0 0  0 0 0  0 0 0  0 0 0  0 0 0  0 0 0  0 0 0  0 0 0  0 0 0  0 0 0  0 0 0  0 0 0  0 0 0  0 0 0  0 0 0  0 0 0  0 0 0  0 0 0  0 0 0  0 0 0  0 0 0  0 0 0  0 0 0  0 0 0  0 0 0  0 0 0  0 0 0  0 0 0  0 0 0  0 0 0  0 0 0  0 0 0  0 0 0  0 0 0  
            </DataArray>
         </PointData> 
      </Piece>
   </UnstructuredGrid> 
</VTKFile>
