<?xml version="1.0"?>
<VTKFile type="UnstructuredGrid" version="0.1" byte_order="LittleEndian">
   <UnstructuredGrid>
      <Piece NumberOfPoints="81" NumberOfCells="0" > 
         <Points> 
            <DataArray type="Float64" Name="Position" NumberOfComponents="3" format="ascii"> 
               0  0  15  
               0.375  0  15  
               0.75  0  15  
               1.125  0  15  
               1.5  0  15  
               1.875  0  15  
               2.25  0  15  
               2.625  0  15  
               3  0  15  
               0  0.375  15  
               0.375  0.375  15  
               0.75  0.375  15  
               1.125  0.375  15  
               1.5  0.375  15  
               1.875  0.375  15  
               2.25  0.375  15  
               2.625  0.375  15  
               3  0.375  15  
               0  0.75  15  
               0.375  0.75  15  
               0.75  0.75  15  
               1.125  0.75  15  
               1.5  0.75  15  
               1.875  0.75  15  
               2.25  0.75  15  
               2.625  0.75  15  
               3  0.75  15  
               0  1.125  15  
               0.375  1.125  15  
               0.75  1.125  15  
               1.125  1.125  15  
               1.5  1.125  15  
               1.875  1.125  15  
               2.25  1.125  15  
               2.625  1.125  15  
               3  1.125  15  
               0  1.5  15  
               0.375  1.5  15  
               0.75  1.5  15  
               1.125  1.5  15  
               1.5  1.5  15  
               1.875  1.5  15  
               2.25  1.5  15  
               2.625  1.5  15  
               3  1.5  15  
               0  1.875  15  
               0.375  1.875  15  
               0.75  1.875  15  
               1.125  1.875  15  
               1.5  1.875  15  
               1.875  1.875  15  
               2.25  1.875  15  
               2.625  1.875  15  
               3  1.875  15  
               0  2.25  15  
               0.375  2.25  15  
               0.75  2.25  15  
               1.125  2.25  15  
               1.5  2.25  15  
               1.875  2.25  15  
               2.25  2.25  15  
               2.625  2.25  15  
               3  2.25  15  
               0  2.625  15  
               0.375  2.625  15  
               0.75  2.625  15  
               1.125  2.625  15  
               1.5  2.625  15  
               1.875  2.625  15  
               2.25  2.625  15  
               2.625  2.625  15  
               3  2.625  15  
               0  3  15  
               0.375  3  15  
               0.75  3  15  
               1.125  3  15  
               1.5  3  15  
               1.875  3  15  
               2.25  3  15  
               2.625  3  15  
               3  3  15  
            </DataArray>
         </Points> 

         <Cells>
            <DataArray type="Int32" Name="connectivity" NumberOfComponents="1" format="ascii">
               
            </DataArray> 
            <DataArray type="Int32" Name="offsets" NumberOfComponents="1" format="ascii">
               
            </DataArray>
            <DataArray type="UInt8"  Name="types" NumberOfComponents="1" format="ascii">
               
            </DataArray>
         </Cells>
         <PointData Scalars="Rank " Vectors="Displacement Velocity Traction ">
            <DataArray type="UInt32" Name="Rank" NumberOfComponents="1" format="ascii">
               0 0 0 0 0 0 0 0 0 0 0 0 0 0 0 0 0 0 0 0 0 0 0 0 0 0 0 0 0 0 0 0 0 0 0 0 0 0 0 0 0 0 0 0 0 0 0 0 0 0 0 0 0 0 0 0 0 0 0 0 0 0 0 0 0 0 0 0 0 0 0 0 0 0 0 0 0 0 0 0 0 
            </DataArray>
            <DataArray type="Float64" Name="Displacement" NumberOfComponents="3" format="ascii">
               2.0125e-05 1.16023e-05 -1.19279e-05  1.97358e-05 -1.53899e-06 -1.21285e-05  1.74747e-05 -9.97301e-07 -1.12674e-05  1.46717e-05 -2.34732e-06 -1.09197e-05  1.35104e-05 -3.73798e-07 -1.08906e-05  1.36402e-05 -3.96484e-06 -1.06685e-05  1.48915e-05 -4.05689e-06 -1.11043e-05  1.61343e-05 -1.04453e-05 -1.19975e-05  1.65539e-05 -1.46864e-05 -1.11967e-05  8.82022e-06 1.06724e-05 -1.21283e-05  9.82879e-06 -1.98599e-06 -1.16123e-05  1.01003e-05 -1.22702e-06 -1.03797e-05  1.02509e-05 -3.00278e-06 -1.00703e-05  1.09514e-05 -1.84639e-06 -1.00417e-05  1.17308e-05 -5.53261e-06 -9.8933e-06  1.18707e-05 -5.57544e-06 -1.03988e-05  1.1683e-05 -1.11102e-05 -1.19378e-05  1.136e-05 -1.44551e-05 -1.18039e-05  1.2366e-05 6.56314e-06 -1.12718e-05  1.43391e-05 -4.40455e-06 -1.03803e-05  1.38434e-05 -4.49684e-06 -8.38432e-06  1.26525e-05 -6.01995e-06 -7.85537e-06  1.15353e-05 -5.70784e-06 -7.85372e-06  9.86573e-06 -8.0617e-06 -7.79861e-06  7.32419e-06 -7.95391e-06 -8.376e-06  5.1791e-06 -1.17878e-05 -1.04226e-05  4.05792e-06 -1.38528e-05 -1.10238e-05  1.30465e-05 2.21421e-07 -1.09228e-05  1.54382e-05 -8.13476e-06 -1.00702e-05  1.50009e-05 -8.27143e-06 -7.85554e-06  1.32502e-05 -9.5222e-06 -7.13399e-06  1.15487e-05 -9.9369e-06 -7.11657e-06  9.18085e-06 -1.06289e-05 -7.12876e-06  6.62947e-06 -1.07515e-05 -7.82327e-06  4.29723e-06 -1.22761e-05 -9.94453e-06  3.17692e-06 -1.3493e-05 -1.06548e-05  1.51976e-05 -5.69272e-06 -1.0894e-05  1.74544e-05 -1.29166e-05 -1.00415e-05  1.72308e-05 -1.23258e-05 -7.85333e-06  1.53139e-05 -1.33944e-05 -7.116e-06  1.23162e-05 -1.34807e-05 -7.1377e-06  8.17736e-06 -1.28698e-05 -7.11205e-06  3.5412e-06 -1.27092e-05 -7.84196e-06  -2.59053e-07 -1.23806e-05 -1.00182e-05  -1.17773e-06 -1.43777e-05 -1.07869e-05  1.94541e-05 -1.15221e-05 -1.06767e-05  2.15656e-05 -1.78161e-05 -9.89248e-06  2.01546e-05 -1.57199e-05 -7.79917e-06  1.6582e-05 -1.65791e-05 -7.12808e-06  1.21693e-05 -1.5728e-05 -7.1125e-06  7.21034e-06 -1.43051e-05 -7.11134e-06  2.99386e-06 -1.4107e-05 -7.83165e-06  -1.34514e-07 -1.26474e-05 -1.00258e-05  -4.62641e-07 -1.65289e-05 -1.07887e-05  1.87895e-05 -1.70717e-05 -1.11148e-05  2.06142e-05 -2.24177e-05 -1.03998e-05  1.92888e-05 -1.79381e-05 -8.37707e-06  1.59204e-05 -1.90155e-05 -7.82296e-06  1.1316e-05 -1.69586e-05 -7.84186e-06  6.1437e-06 -1.56958e-05 -7.83137e-06  1.53993e-06 -1.55953e-05 -8.38005e-06  -1.82613e-06 -1.34741e-05 -1.0394e-05  -1.778e-06 -1.9923e-05 -1.12054e-05  2.72392e-05 -2.11244e-05 -1.20123e-05  2.72771e-05 -2.51242e-05 -1.19323e-05  2.38095e-05 -1.84033e-05 -1.04242e-05  1.81534e-05 -1.94826e-05 -9.94392e-06  1.18662e-05 -1.65277e-05 -1.00192e-05  5.65782e-06 -1.56103e-05 -1.0026e-05  6.36664e-07 -1.59639e-05 -1.03947e-05  -2.52535e-06 -1.39254e-05 -1.165e-05  -3.00051e-06 -2.25078e-05 -1.20994e-05  2.52575e-05 -2.25708e-05 -1.12398e-05  2.34947e-05 -2.45721e-05 -1.18204e-05  1.86106e-05 -1.58932e-05 -1.10351e-05  1.20118e-05 -1.65732e-05 -1.06637e-05  4.99901e-06 -1.34691e-05 -1.07931e-05  -1.97964e-06 -1.26333e-05 -1.07947e-05  -8.93617e-06 -1.35712e-05 -1.1213e-05  -1.33933e-05 -1.30075e-05 -1.21036e-05  -1.44162e-05 -2.30557e-05 -1.18617e-05  
            </DataArray>
            <DataArray type="Float64" Name="Velocity" NumberOfComponents="3" format="ascii">
               2.80653e-05 4.30335e-06 -1.89514e-05  2.73015e-05 -8.54198e-06 -1.94784e-05  2.39893e-05 -6.08302e-06 -1.82229e-05  1.92427e-05 -5.03113e-06 -1.76837e-05  1.55686e-05 -1.25007e-06 -1.75922e-05  1.2913e-05 -3.64723e-06 -1.72763e-05  1.1477e-05 -4.4632e-06 -1.79988e-05  1.07475e-05 -7.83791e-06 -1.93019e-05  1.0476e-05 -1.40927e-05 -1.76929e-05  1.45804e-05 3.57116e-06 -1.94589e-05  1.50933e-05 -8.67322e-06 -1.89545e-05  1.40707e-05 -5.62556e-06 -1.71929e-05  1.23698e-05 -4.69798e-06 -1.66839e-05  1.06967e-05 -1.46671e-06 -1.65859e-05  8.93655e-06 -3.90912e-06 -1.63917e-05  6.74416e-06 -4.95158e-06 -1.72368e-05  5.33275e-06 -8.38167e-06 -1.95187e-05  5.31634e-06 -1.46397e-05 -1.89575e-05  1.47363e-05 -7.17081e-07 -1.82068e-05  1.67625e-05 -1.15393e-05 -1.7192e-05  1.56815e-05 -9.1933e-06 -1.42925e-05  1.33112e-05 -7.8372e-06 -1.34354e-05  1.08866e-05 -5.3247e-06 -1.34103e-05  8.16254e-06 -6.65414e-06 -1.33544e-05  5.02984e-06 -7.73467e-06 -1.42798e-05  3.16259e-06 -1.06616e-05 -1.72649e-05  3.35107e-06 -1.61439e-05 -1.7852e-05  1.28537e-05 -7.40601e-06 -1.76668e-05  1.54452e-05 -1.64557e-05 -1.66851e-05  1.51665e-05 -1.44779e-05 -1.34367e-05  1.31647e-05 -1.25701e-05 -1.22838e-05  1.07892e-05 -1.0718e-05 -1.22302e-05  7.85586e-06 -1.06621e-05 -1.23036e-05  4.76889e-06 -1.19435e-05 -1.3407e-05  2.78663e-06 -1.38927e-05 -1.64935e-05  3.1342e-06 -1.85258e-05 -1.72689e-05  1.81422e-05 -1.3825e-05 -1.7573e-05  2.06025e-05 -2.24721e-05 -1.6586e-05  1.98496e-05 -2.02213e-05 -1.34099e-05  1.6875e-05 -1.77624e-05 -1.22291e-05  1.2963e-05 -1.58395e-05 -1.22171e-05  8.2364e-06 -1.45214e-05 -1.22286e-05  3.32705e-06 -1.57694e-05 -1.33818e-05  3.66631e-08 -1.69426e-05 -1.65708e-05  4.74082e-07 -2.21894e-05 -1.74288e-05  2.1731e-05 -2.02507e-05 -1.72584e-05  2.42295e-05 -2.87533e-05 -1.6391e-05  2.29807e-05 -2.53754e-05 -1.33543e-05  1.89633e-05 -2.22524e-05 -1.23021e-05  1.40495e-05 -1.98965e-05 -1.22289e-05  8.59532e-06 -1.76269e-05 -1.22657e-05  3.7619e-06 -1.91704e-05 -1.33969e-05  8.08014e-07 -2.00003e-05 -1.66166e-05  1.68341e-06 -2.7037e-05 -1.74565e-05  2.68131e-05 -2.62329e-05 -1.79891e-05  2.88114e-05 -3.4803e-05 -1.72372e-05  2.67926e-05 -2.93586e-05 -1.42826e-05  2.18869e-05 -2.57677e-05 -1.34063e-05  1.58384e-05 -2.27644e-05 -1.33817e-05  9.24138e-06 -2.00309e-05 -1.33972e-05  3.25491e-06 -2.22396e-05 -1.4291e-05  -4.87353e-07 -2.30268e-05 -1.72141e-05  5.25835e-07 -3.30913e-05 -1.81032e-05  3.58265e-05 -3.10005e-05 -1.92959e-05  3.59252e-05 -3.82992e-05 -1.95128e-05  3.15553e-05 -3.04614e-05 -1.72672e-05  2.43645e-05 -2.63819e-05 -1.64949e-05  1.66725e-05 -2.30277e-05 -1.65754e-05  9.10509e-06 -2.01499e-05 -1.662e-05  2.67104e-06 -2.33316e-05 -1.7216e-05  -1.28384e-06 -2.48611e-05 -1.9022e-05  -1.44589e-06 -3.75493e-05 -1.94111e-05  2.97592e-05 -3.28442e-05 -1.76825e-05  2.77648e-05 -3.77383e-05 -1.89524e-05  2.22673e-05 -2.77046e-05 -1.78417e-05  1.51002e-05 -2.30964e-05 -1.72514e-05  7.29141e-06 -1.96943e-05 -1.74121e-05  -6.5801e-07 -1.68058e-05 -1.74381e-05  -8.95687e-06 -2.04903e-05 -1.80909e-05  -1.46789e-05 -2.41039e-05 -1.93958e-05  -1.60022e-05 -3.86739e-05 -1.87932e-05  
            </DataArray>
            <DataArray type="Float64" Name="Traction" NumberOfComponents="3" format="ascii">
               0 0 0  0 0 0  0 0 0  0 0 0  0 0 0  0 0 0  0 0 0  0 0 0  0 0 0  0 0 0  0 0 0  0 0 0  0 0 0  0 0 0  0 0 0  0 0 0  0 0 0  0 0 0  0 0 0  0 0 0  0 0 0  0 0 0  0 0 0  0 0 0  0 0 0  0 0 0  0 0 0  0 0 0  0 0 0  0 0 0  0 0 0  0 0 0  0 0 0  0 0 0  0 0 0  0 0 0  0 0 0  0 0 0  0 0 0  0 0 0  0 0 0  0 0 0  0 0 0  0 0 0  0 0 0  0 0 0  0 0 0  0 0 0  0 0 0  0 0 0  0 0 0  0 0 0  0 0 0  0 0 0  0 0 0  0 0 0  0 0 0  0 0 0  0 0 0  0 0 0  0 0 0  0 0 0  0 0 0  0 0 0  0 0 0  0 0 0  0 0 0  0 0 0  0 0 0  0 0 0  0 0 0  0 0 0  0 0 0  0 0 0  0 0 0  0 0 0  0 0 0  0 0 0  0 0 0  0 0 0  0 0 0  
            </DataArray>
         </PointData> 
      </Piece>
   </UnstructuredGrid> 
</VTKFile>
