<?xml version="1.0"?>
<VTKFile type="UnstructuredGrid" version="0.1" byte_order="LittleEndian">
   <UnstructuredGrid>
      <Piece NumberOfPoints="81" NumberOfCells="0" > 
         <Points> 
            <DataArray type="Float64" Name="Position" NumberOfComponents="3" format="ascii"> 
               0  0  20  
               0.375  0  20  
               0.75  0  20  
               1.125  0  20  
               1.5  0  20  
               1.875  0  20  
               2.25  0  20  
               2.625  0  20  
               3  0  20  
               0  0.375  20  
               0.375  0.375  20  
               0.75  0.375  20  
               1.125  0.375  20  
               1.5  0.375  20  
               1.875  0.375  20  
               2.25  0.375  20  
               2.625  0.375  20  
               3  0.375  20  
               0  0.75  20  
               0.375  0.75  20  
               0.75  0.75  20  
               1.125  0.75  20  
               1.5  0.75  20  
               1.875  0.75  20  
               2.25  0.75  20  
               2.625  0.75  20  
               3  0.75  20  
               0  1.125  20  
               0.375  1.125  20  
               0.75  1.125  20  
               1.125  1.125  20  
               1.5  1.125  20  
               1.875  1.125  20  
               2.25  1.125  20  
               2.625  1.125  20  
               3  1.125  20  
               0  1.5  20  
               0.375  1.5  20  
               0.75  1.5  20  
               1.125  1.5  20  
               1.5  1.5  20  
               1.875  1.5  20  
               2.25  1.5  20  
               2.625  1.5  20  
               3  1.5  20  
               0  1.875  20  
               0.375  1.875  20  
               0.75  1.875  20  
               1.125  1.875  20  
               1.5  1.875  20  
               1.875  1.875  20  
               2.25  1.875  20  
               2.625  1.875  20  
               3  1.875  20  
               0  2.25  20  
               0.375  2.25  20  
               0.75  2.25  20  
               1.125  2.25  20  
               1.5  2.25  20  
               1.875  2.25  20  
               2.25  2.25  20  
               2.625  2.25  20  
               3  2.25  20  
               0  2.625  20  
               0.375  2.625  20  
               0.75  2.625  20  
               1.125  2.625  20  
               1.5  2.625  20  
               1.875  2.625  20  
               2.25  2.625  20  
               2.625  2.625  20  
               3  2.625  20  
               0  3  20  
               0.375  3  20  
               0.75  3  20  
               1.125  3  20  
               1.5  3  20  
               1.875  3  20  
               2.25  3  20  
               2.625  3  20  
               3  3  20  
            </DataArray>
         </Points> 

         <Cells>
            <DataArray type="Int32" Name="connectivity" NumberOfComponents="1" format="ascii">
               
            </DataArray> 
            <DataArray type="Int32" Name="offsets" NumberOfComponents="1" format="ascii">
               
            </DataArray>
            <DataArray type="UInt8"  Name="types" NumberOfComponents="1" format="ascii">
               
            </DataArray>
         </Cells>
         <PointData Scalars="Rank " Vectors="Displacement Velocity Traction ">
            <DataArray type="UInt32" Name="Rank" NumberOfComponents="1" format="ascii">
               0 0 0 0 0 0 0 0 0 0 0 0 0 0 0 0 0 0 0 0 0 0 0 0 0 0 0 0 0 0 0 0 0 0 0 0 0 0 0 0 0 0 0 0 0 0 0 0 0 0 0 0 0 0 0 0 0 0 0 0 0 0 0 0 0 0 0 0 0 0 0 0 0 0 0 0 0 0 0 0 0 
            </DataArray>
            <DataArray type="Float64" Name="Displacement" NumberOfComponents="3" format="ascii">
               0 0 0  0 0 0  0 0 0  0 0 0  0 0 0  0 0 0  0 0 0  0 0 0  0 0 0  0 0 0  0 0 0  0 0 0  0 0 0  0 0 0  0 0 0  0 0 0  0 0 0  0 0 0  0 0 0  0 0 0  0 0 0  0 0 0  0 0 0  0 0 0  0 0 0  0 0 0  0 0 0  0 0 0  0 0 0  0 0 0  0 0 0  0 0 0  0 0 0  0 0 0  0 0 0  0 0 0  0 0 0  0 0 0  0 0 0  0 0 0  0 0 0  0 0 0  0 0 0  0 0 0  0 0 0  0 0 0  0 0 0  0 0 0  0 0 0  0 0 0  0 0 0  0 0 0  0 0 0  0 0 0  0 0 0  0 0 0  0 0 0  0 0 0  0 0 0  0 0 0  0 0 0  0 0 0  0 0 0  0 0 0  0 0 0  0 0 0  0 0 0  0 0 0  0 0 0  0 0 0  0 0 0  0 0 0  0 0 0  0 0 0  0 0 0  0 0 0  0 0 0  0 0 0  0 0 0  0 0 0  0 0 0  
            </DataArray>
            <DataArray type="Float64" Name="Velocity" NumberOfComponents="3" format="ascii">
               0 0 0  0 0 0  0 0 0  0 0 0  0 0 0  0 0 0  0 0 0  0 0 0  0 0 0  0 0 0  0 0 0  0 0 0  0 0 0  0 0 0  0 0 0  0 0 0  0 0 0  0 0 0  0 0 0  0 0 0  0 0 0  0 0 0  0 0 0  0 0 0  0 0 0  0 0 0  0 0 0  0 0 0  0 0 0  0 0 0  0 0 0  0 0 0  0 0 0  0 0 0  0 0 0  0 0 0  0 0 0  0 0 0  0 0 0  0 0 0  0 0 0  0 0 0  0 0 0  0 0 0  0 0 0  0 0 0  0 0 0  0 0 0  0 0 0  0 0 0  0 0 0  0 0 0  0 0 0  0 0 0  0 0 0  0 0 0  0 0 0  0 0 0  0 0 0  0 0 0  0 0 0  0 0 0  0 0 0  0 0 0  0 0 0  0 0 0  0 0 0  0 0 0  0 0 0  0 0 0  0 0 0  0 0 0  0 0 0  0 0 0  0 0 0  0 0 0  0 0 0  0 0 0  0 0 0  0 0 0  0 0 0  
            </DataArray>
            <DataArray type="Float64" Name="Traction" NumberOfComponents="3" format="ascii">
               -9.87315e-06 -9.77075e-06 -7.94463e-05  -4.43174e-06 -1.72762e-05 -7.94463e-05  -2.22979e-06 -2.12218e-05 -7.94463e-05  -2.9731e-07 -2.08312e-05 -7.94463e-05  -1.0392e-06 -2.05273e-05 -7.94463e-05  2.5872e-06 -2.10416e-05 -7.94463e-05  1.06585e-05 -1.95471e-05 -7.94463e-05  4.52393e-06 -1.16463e-05 -7.94463e-05  4.34426e-06 -9.88053e-06 -7.94463e-05  -1.73984e-05 -4.37712e-06 -7.94463e-05  -9.52918e-06 -9.45486e-06 -7.94463e-05  -3.89596e-06 -1.34437e-05 -7.94463e-05  -1.10072e-06 -1.4117e-05 -7.94463e-05  -2.17269e-06 -1.44238e-05 -7.94463e-05  9.13071e-07 -1.37508e-05 -7.94463e-05  1.1705e-05 -1.37592e-05 -7.94463e-05  8.56942e-06 -9.01364e-06 -7.94463e-05  1.03007e-05 -7.44487e-06 -7.94463e-05  -2.13456e-05 -2.1874e-06 -7.94463e-05  -1.35245e-05 -3.84013e-06 -7.94463e-05  -6.52939e-06 -6.45635e-06 -7.94463e-05  -8.69767e-07 -8.35775e-06 -7.94463e-05  -1.49924e-06 -8.41191e-06 -7.94463e-05  1.04915e-06 -8.11464e-06 -7.94463e-05  1.41983e-05 -7.85378e-06 -7.94463e-05  1.30493e-05 -6.21275e-06 -7.94463e-05  1.82426e-05 -6.77862e-06 -7.94463e-05  -2.0954e-05 -2.47309e-07 -7.94463e-05  -1.42049e-05 -1.04268e-06 -7.94463e-05  -8.43334e-06 -7.95632e-07 -7.94463e-05  -2.13218e-06 -2.06232e-06 -7.94463e-05  -1.6216e-06 -1.50021e-06 -7.94463e-05  1.78919e-06 -1.98896e-06 -7.94463e-05  1.42103e-05 -1.31896e-06 -7.94463e-05  1.34525e-05 -1.34954e-06 -7.94463e-05  2.02625e-05 -1.51753e-06 -7.94463e-05  -2.06247e-05 -9.90411e-07 -7.94463e-05  -1.44798e-05 -2.11286e-06 -7.94463e-05  -8.46817e-06 -1.43112e-06 -7.94463e-05  -1.56596e-06 -1.55963e-06 -7.94463e-05  -2.02707e-06 -1.96497e-06 -7.94463e-05  1.0901e-06 -1.6988e-06 -7.94463e-05  1.39396e-05 -1.70003e-06 -7.94463e-05  1.3455e-05 -6.85608e-07 -7.94463e-05  1.9177e-05 -2.32883e-06 -7.94463e-05  -2.11687e-05 2.63973e-06 -7.94463e-05  -1.38443e-05 9.82725e-07 -7.94463e-05  -8.19671e-06 1.12302e-06 -7.94463e-05  -2.05773e-06 1.8582e-06 -7.94463e-05  -1.7544e-06 1.14913e-06 -7.94463e-05  1.87932e-06 1.92769e-06 -7.94463e-05  1.45468e-05 1.66478e-07 -7.94463e-05  1.37092e-05 1.13847e-06 -7.94463e-05  2.02287e-05 -1.13457e-06 -7.94463e-05  -1.96461e-05 1.06899e-05 -7.94463e-05  -1.3817e-05 1.1729e-05 -7.94463e-05  -7.90648e-06 1.4216e-05 -7.94463e-05  -1.38346e-06 1.42557e-05 -7.94463e-05  -1.75611e-06 1.39526e-05 -7.94463e-05  1.12762e-07 1.45637e-05 -7.94463e-05  1.22143e-05 1.22332e-05 -7.94463e-05  1.31182e-05 7.79247e-06 -7.94463e-05  2.06338e-05 5.28286e-06 -7.94463e-05  -1.18028e-05 4.64074e-06 -7.94463e-05  -9.10292e-06 8.65438e-06 -7.94463e-05  -6.27514e-06 1.30963e-05 -7.94463e-05  -1.41339e-06 1.35306e-05 -7.94463e-05  -7.33924e-07 1.34869e-05 -7.94463e-05  1.09935e-06 1.37553e-05 -7.94463e-05  7.7842e-06 1.31581e-05 -7.94463e-05  9.21314e-06 9.2528e-06 -7.94463e-05  1.67391e-05 4.62828e-06 -7.94463e-05  -1.00384e-05 4.53451e-06 -7.94463e-05  -7.53814e-06 1.04589e-05 -7.94463e-05  -6.83228e-06 1.83386e-05 -7.94463e-05  -1.56149e-06 2.03854e-05 -7.94463e-05  -2.3662e-06 1.92572e-05 -7.94463e-05  -1.17819e-06 2.03115e-05 -7.94463e-05  5.27955e-06 2.07132e-05 -7.94463e-05  4.59793e-06 1.68139e-05 -7.94463e-05  9.67473e-06 9.74268e-06 -7.94463e-05  
            </DataArray>
         </PointData> 
      </Piece>
   </UnstructuredGrid> 
</VTKFile>
