<?xml version="1.0"?>
<VTKFile type="UnstructuredGrid" version="0.1" byte_order="LittleEndian">
   <UnstructuredGrid>
      <Piece NumberOfPoints="81" NumberOfCells="0" > 
         <Points> 
            <DataArray type="Float64" Name="Position" NumberOfComponents="3" format="ascii"> 
               0  0  20  
               0.375  0  20  
               0.75  0  20  
               1.125  0  20  
               1.5  0  20  
               1.875  0  20  
               2.25  0  20  
               2.625  0  20  
               3  0  20  
               0  0.375  20  
               0.375  0.375  20  
               0.75  0.375  20  
               1.125  0.375  20  
               1.5  0.375  20  
               1.875  0.375  20  
               2.25  0.375  20  
               2.625  0.375  20  
               3  0.375  20  
               0  0.75  20  
               0.375  0.75  20  
               0.75  0.75  20  
               1.125  0.75  20  
               1.5  0.75  20  
               1.875  0.75  20  
               2.25  0.75  20  
               2.625  0.75  20  
               3  0.75  20  
               0  1.125  20  
               0.375  1.125  20  
               0.75  1.125  20  
               1.125  1.125  20  
               1.5  1.125  20  
               1.875  1.125  20  
               2.25  1.125  20  
               2.625  1.125  20  
               3  1.125  20  
               0  1.5  20  
               0.375  1.5  20  
               0.75  1.5  20  
               1.125  1.5  20  
               1.5  1.5  20  
               1.875  1.5  20  
               2.25  1.5  20  
               2.625  1.5  20  
               3  1.5  20  
               0  1.875  20  
               0.375  1.875  20  
               0.75  1.875  20  
               1.125  1.875  20  
               1.5  1.875  20  
               1.875  1.875  20  
               2.25  1.875  20  
               2.625  1.875  20  
               3  1.875  20  
               0  2.25  20  
               0.375  2.25  20  
               0.75  2.25  20  
               1.125  2.25  20  
               1.5  2.25  20  
               1.875  2.25  20  
               2.25  2.25  20  
               2.625  2.25  20  
               3  2.25  20  
               0  2.625  20  
               0.375  2.625  20  
               0.75  2.625  20  
               1.125  2.625  20  
               1.5  2.625  20  
               1.875  2.625  20  
               2.25  2.625  20  
               2.625  2.625  20  
               3  2.625  20  
               0  3  20  
               0.375  3  20  
               0.75  3  20  
               1.125  3  20  
               1.5  3  20  
               1.875  3  20  
               2.25  3  20  
               2.625  3  20  
               3  3  20  
            </DataArray>
         </Points> 

         <Cells>
            <DataArray type="Int32" Name="connectivity" NumberOfComponents="1" format="ascii">
               
            </DataArray> 
            <DataArray type="Int32" Name="offsets" NumberOfComponents="1" format="ascii">
               
            </DataArray>
            <DataArray type="UInt8"  Name="types" NumberOfComponents="1" format="ascii">
               
            </DataArray>
         </Cells>
         <PointData Scalars="Rank " Vectors="Displacement Velocity Traction ">
            <DataArray type="UInt32" Name="Rank" NumberOfComponents="1" format="ascii">
               0 0 0 0 0 0 0 0 0 0 0 0 0 0 0 0 0 0 0 0 0 0 0 0 0 0 0 0 0 0 0 0 0 0 0 0 0 0 0 0 0 0 0 0 0 0 0 0 0 0 0 0 0 0 0 0 0 0 0 0 0 0 0 0 0 0 0 0 0 0 0 0 0 0 0 0 0 0 0 0 0 
            </DataArray>
            <DataArray type="Float64" Name="Displacement" NumberOfComponents="3" format="ascii">
               0 0 0  0 0 0  0 0 0  0 0 0  0 0 0  0 0 0  0 0 0  0 0 0  0 0 0  0 0 0  0 0 0  0 0 0  0 0 0  0 0 0  0 0 0  0 0 0  0 0 0  0 0 0  0 0 0  0 0 0  0 0 0  0 0 0  0 0 0  0 0 0  0 0 0  0 0 0  0 0 0  0 0 0  0 0 0  0 0 0  0 0 0  0 0 0  0 0 0  0 0 0  0 0 0  0 0 0  0 0 0  0 0 0  0 0 0  0 0 0  0 0 0  0 0 0  0 0 0  0 0 0  0 0 0  0 0 0  0 0 0  0 0 0  0 0 0  0 0 0  0 0 0  0 0 0  0 0 0  0 0 0  0 0 0  0 0 0  0 0 0  0 0 0  0 0 0  0 0 0  0 0 0  0 0 0  0 0 0  0 0 0  0 0 0  0 0 0  0 0 0  0 0 0  0 0 0  0 0 0  0 0 0  0 0 0  0 0 0  0 0 0  0 0 0  0 0 0  0 0 0  0 0 0  0 0 0  0 0 0  0 0 0  
            </DataArray>
            <DataArray type="Float64" Name="Velocity" NumberOfComponents="3" format="ascii">
               0 0 0  0 0 0  0 0 0  0 0 0  0 0 0  0 0 0  0 0 0  0 0 0  0 0 0  0 0 0  0 0 0  0 0 0  0 0 0  0 0 0  0 0 0  0 0 0  0 0 0  0 0 0  0 0 0  0 0 0  0 0 0  0 0 0  0 0 0  0 0 0  0 0 0  0 0 0  0 0 0  0 0 0  0 0 0  0 0 0  0 0 0  0 0 0  0 0 0  0 0 0  0 0 0  0 0 0  0 0 0  0 0 0  0 0 0  0 0 0  0 0 0  0 0 0  0 0 0  0 0 0  0 0 0  0 0 0  0 0 0  0 0 0  0 0 0  0 0 0  0 0 0  0 0 0  0 0 0  0 0 0  0 0 0  0 0 0  0 0 0  0 0 0  0 0 0  0 0 0  0 0 0  0 0 0  0 0 0  0 0 0  0 0 0  0 0 0  0 0 0  0 0 0  0 0 0  0 0 0  0 0 0  0 0 0  0 0 0  0 0 0  0 0 0  0 0 0  0 0 0  0 0 0  0 0 0  0 0 0  0 0 0  
            </DataArray>
            <DataArray type="Float64" Name="Traction" NumberOfComponents="3" format="ascii">
               -0.000121826 -0.000121603 -0.0010191  -7.58738e-05 -0.00021551 -0.0010191  -4.45636e-05 -0.000272186 -0.0010191  -6.0913e-06 -0.000263864 -0.0010191  -1.45834e-05 -0.00026402 -0.0010191  5.17726e-05 -0.000269723 -0.0010191  0.000179838 -0.000243713 -0.0010191  5.00185e-05 -0.000121405 -0.0010191  -5.14562e-06 -9.11182e-05 -0.0010191  -0.000215545 -7.6175e-05 -0.0010191  -0.000135218 -0.000135541 -0.0010191  -6.44138e-05 -0.000191659 -0.0010191  -2.07225e-05 -0.00020013 -0.0010191  -3.07259e-05 -0.000207471 -0.0010191  2.27881e-05 -0.000194136 -0.0010191  0.000194955 -0.000196732 -0.0010191  0.000122005 -0.00012917 -0.0010191  9.71945e-05 -9.95373e-05 -0.0010191  -0.000272152 -4.4884e-05 -0.0010191  -0.000191271 -6.46656e-05 -0.0010191  -0.000102704 -0.00010292 -0.0010191  -1.85722e-05 -0.000130691 -0.0010191  -1.80369e-05 -0.000134126 -0.0010191  2.24956e-05 -0.000126073 -0.0010191  0.000217775 -0.000125725 -0.0010191  0.000189454 -0.000106296 -0.0010191  0.000226987 -0.000116772 -0.0010191  -0.000263888 -6.60258e-06 -0.0010191  -0.000199816 -2.11298e-05 -0.0010191  -0.000130484 -1.89024e-05 -0.0010191  -3.74663e-05 -3.78344e-05 -0.0010191  -1.50162e-05 -3.18121e-05 -0.0010191  3.60186e-05 -3.7609e-05 -0.0010191  0.000210842 -2.89975e-05 -0.0010191  0.00018925 -2.76433e-05 -0.0010191  0.000256075 -3.21427e-05 -0.0010191  -0.000264001 -1.52935e-05 -0.0010191  -0.000207082 -3.13744e-05 -0.0010191  -0.000133901 -1.85787e-05 -0.0010191  -3.14503e-05 -1.55923e-05 -0.0010191  -2.31955e-05 -2.37727e-05 -0.0010191  2.53332e-05 -2.10309e-05 -0.0010191  0.000210553 -2.1924e-05 -0.0010191  0.000192778 -1.02569e-05 -0.0010191  0.000241112 -3.53487e-05 -0.0010191  -0.000269808 5.12859e-05 -0.0010191  -0.000193799 2.23193e-05 -0.0010191  -0.000125845 2.21055e-05 -0.0010191  -3.7223e-05 3.56059e-05 -0.0010191  -2.03923e-05 2.4964e-05 -0.0010191  3.50405e-05 3.45579e-05 -0.0010191  0.00021604 1.11989e-05 -0.0010191  0.000193701 2.13286e-05 -0.0010191  0.000254558 -1.70742e-05 -0.0010191  -0.000243424 0.000179075 -0.0010191  -0.000196232 0.000194163 -0.0010191  -0.000125397 0.000216904 -0.0010191  -2.85583e-05 0.000209927 -0.0010191  -2.1305e-05 0.000209642 -0.0010191  1.16458e-05 0.000215123 -0.0010191  0.00018513 0.000184253 -0.0010191  0.000185336 0.000126339 -0.0010191  0.000260132 9.3676e-05 -0.0010191  -0.000120982 4.94568e-05 -0.0010191  -0.000128635 0.000121438 -0.0010191  -0.000105959 0.000188915 -0.0010191  -2.71199e-05 0.000188776 -0.0010191  -9.5357e-06 0.000192212 -0.0010191  2.19091e-05 0.000193154 -0.0010191  0.000127213 0.000184574 -0.0010191  0.000131316 0.00013069 -0.0010191  0.000203236 7.96479e-05 -0.0010191  -9.04619e-05 -5.41465e-06 -0.0010191  -9.87626e-05 9.69086e-05 -0.0010191  -0.000116347 0.000226887 -0.0010191  -3.15905e-05 0.000256245 -0.0010191  -3.46032e-05 0.000241119 -0.0010191  -1.65869e-05 0.000254559 -0.0010191  9.46861e-05 0.000259794 -0.0010191  8.01287e-05 0.000202866 -0.0010191  0.0001185 0.000118555 -0.0010191  
            </DataArray>
         </PointData> 
      </Piece>
   </UnstructuredGrid> 
</VTKFile>
