<?xml version="1.0"?>
<VTKFile type="UnstructuredGrid" version="0.1" byte_order="LittleEndian">
   <UnstructuredGrid>
      <Piece NumberOfPoints="81" NumberOfCells="0" > 
         <Points> 
            <DataArray type="Float64" Name="Position" NumberOfComponents="3" format="ascii"> 
               0  0  20  
               0.375  0  20  
               0.75  0  20  
               1.125  0  20  
               1.5  0  20  
               1.875  0  20  
               2.25  0  20  
               2.625  0  20  
               3  0  20  
               0  0.375  20  
               0.375  0.375  20  
               0.75  0.375  20  
               1.125  0.375  20  
               1.5  0.375  20  
               1.875  0.375  20  
               2.25  0.375  20  
               2.625  0.375  20  
               3  0.375  20  
               0  0.75  20  
               0.375  0.75  20  
               0.75  0.75  20  
               1.125  0.75  20  
               1.5  0.75  20  
               1.875  0.75  20  
               2.25  0.75  20  
               2.625  0.75  20  
               3  0.75  20  
               0  1.125  20  
               0.375  1.125  20  
               0.75  1.125  20  
               1.125  1.125  20  
               1.5  1.125  20  
               1.875  1.125  20  
               2.25  1.125  20  
               2.625  1.125  20  
               3  1.125  20  
               0  1.5  20  
               0.375  1.5  20  
               0.75  1.5  20  
               1.125  1.5  20  
               1.5  1.5  20  
               1.875  1.5  20  
               2.25  1.5  20  
               2.625  1.5  20  
               3  1.5  20  
               0  1.875  20  
               0.375  1.875  20  
               0.75  1.875  20  
               1.125  1.875  20  
               1.5  1.875  20  
               1.875  1.875  20  
               2.25  1.875  20  
               2.625  1.875  20  
               3  1.875  20  
               0  2.25  20  
               0.375  2.25  20  
               0.75  2.25  20  
               1.125  2.25  20  
               1.5  2.25  20  
               1.875  2.25  20  
               2.25  2.25  20  
               2.625  2.25  20  
               3  2.25  20  
               0  2.625  20  
               0.375  2.625  20  
               0.75  2.625  20  
               1.125  2.625  20  
               1.5  2.625  20  
               1.875  2.625  20  
               2.25  2.625  20  
               2.625  2.625  20  
               3  2.625  20  
               0  3  20  
               0.375  3  20  
               0.75  3  20  
               1.125  3  20  
               1.5  3  20  
               1.875  3  20  
               2.25  3  20  
               2.625  3  20  
               3  3  20  
            </DataArray>
         </Points> 

         <Cells>
            <DataArray type="Int32" Name="connectivity" NumberOfComponents="1" format="ascii">
               
            </DataArray> 
            <DataArray type="Int32" Name="offsets" NumberOfComponents="1" format="ascii">
               
            </DataArray>
            <DataArray type="UInt8"  Name="types" NumberOfComponents="1" format="ascii">
               
            </DataArray>
         </Cells>
         <PointData Scalars="Rank " Vectors="Displacement Velocity Traction ">
            <DataArray type="UInt32" Name="Rank" NumberOfComponents="1" format="ascii">
               0 0 0 0 0 0 0 0 0 0 0 0 0 0 0 0 0 0 0 0 0 0 0 0 0 0 0 0 0 0 0 0 0 0 0 0 0 0 0 0 0 0 0 0 0 0 0 0 0 0 0 0 0 0 0 0 0 0 0 0 0 0 0 0 0 0 0 0 0 0 0 0 0 0 0 0 0 0 0 0 0 
            </DataArray>
            <DataArray type="Float64" Name="Displacement" NumberOfComponents="3" format="ascii">
               0.00090128 0.000901801 -0.00362995  0.00041272 0.00117049 -0.00376815  0.000187813 0.00144272 -0.00356577  3.56937e-06 0.00144687 -0.00350989  -8.69791e-05 0.00143046 -0.00351624  -0.000268854 0.00150915 -0.00343323  -0.000503842 0.00140342 -0.00354909  -0.000323904 0.000945408 -0.00373609  -0.000537528 0.000959048 -0.00332809  0.00117157 0.000413235 -0.00376887  0.00057012 0.000569579 -0.00374485  0.000297892 0.000712468 -0.00344354  9.38317e-05 0.00073943 -0.00338466  2.21305e-05 0.000775723 -0.0033956  -0.000107687 0.000747071 -0.00333093  -0.000465204 0.000792988 -0.00346211  -0.000553747 0.000580941 -0.00384675  -0.000892979 0.000602493 -0.00367135  0.00144362 0.000187544 -0.00356681  0.000713121 0.000297715 -0.00344368  0.00039087 0.000390596 -0.00296562  5.708e-05 0.000455922 -0.00285113  -1.09252e-06 0.000463541 -0.0028729  -7.44621e-05 0.000463425 -0.00284076  -0.000504551 0.000518671 -0.00296934  -0.000762478 0.000439331 -0.00347039  -0.00136364 0.000507013 -0.00352594  0.00144736 2.38564e-06 -0.00351034  0.000739702 9.3051e-05 -0.00338444  0.000456092 5.63974e-05 -0.00285078  0.000130852 0.0001302 -0.00268951  6.69836e-07 0.000111839 -0.00270682  -0.000119598 0.000149038 -0.00269778  -0.000435314 0.000123225 -0.00285058  -0.000710756 0.000141648 -0.0033497  -0.00145894 0.000179083 -0.00343541  0.00143089 -8.82977e-05 -0.0035167  0.000775858 2.07837e-05 -0.00339539  0.00046358 -2.35271e-06 -0.00287258  0.000112452 -5.27422e-07 -0.00270688  2.72557e-05 2.60843e-05 -0.0027307  -6.12078e-05 2.81117e-05 -0.00270641  -0.00040833 5.36672e-05 -0.00286778  -0.000690275 3.24046e-05 -0.00338613  -0.0013235 0.000155352 -0.00348788  0.00150962 -0.000269584 -0.00343403  0.000747392 -0.00010893 -0.00333097  0.000463547 -7.56751e-05 -0.00284055  0.000149695 -0.000120745 -0.00269793  2.93258e-05 -6.23394e-05 -0.00270654  -0.000100744 -0.000101955 -0.00268308  -0.000431921 -1.13911e-05 -0.00284057  -0.000703776 -7.72437e-05 -0.00336446  -0.00141692 0.000142361 -0.00346634  0.00140445 -0.000504786 -0.00354969  0.000793629 -0.000465884 -0.00346187  0.000518964 -0.000505277 -0.00296884  0.000124007 -0.000436328 -0.00285039  5.49965e-05 -0.000409253 -0.00286759  -1.01421e-05 -0.000433009 -0.00284027  -0.000356791 -0.000357933 -0.00296309  -0.000667698 -0.000297956 -0.00344495  -0.00139416 -0.000173112 -0.00353997  0.000946851 -0.00032658 -0.00373703  0.00058173 -0.000555375 -0.00384668  0.000439777 -0.000763879 -0.0034702  0.000142646 -0.000712373 -0.00334988  3.39179e-05 -0.000691781 -0.0033862  -7.59853e-05 -0.000705479 -0.00336441  -0.00029714 -0.000669675 -0.00344522  -0.000540293 -0.000541914 -0.00375426  -0.00112546 -0.000421456 -0.00375137  0.000960654 -0.000541147 -0.00333138  0.000603758 -0.000895769 -0.003673  0.000507697 -0.00136591 -0.00352714  0.000179879 -0.00146101 -0.00343691  0.000157037 -0.00132558 -0.00348927  0.000144164 -0.00141925 -0.0034677  -0.000172467 -0.00139676 -0.00354186  -0.000421649 -0.0011279 -0.00375271  -0.000898967 -0.000898798 -0.00359742  
            </DataArray>
            <DataArray type="Float64" Name="Velocity" NumberOfComponents="3" format="ascii">
               0.00143388 0.00143638 -0.00541111  0.000446438 0.00196513 -0.00547839  0.000162879 0.00243005 -0.00511914  -2.76045e-05 0.00245479 -0.00503497  -0.00012658 0.00239739 -0.00506073  -0.000309602 0.00253489 -0.00494957  -0.000670068 0.00239865 -0.00509131  -0.00049234 0.00163725 -0.00542514  -0.0010578 0.00159773 -0.00509012  0.00196335 0.000448547 -0.0054774  0.000789659 0.000791421 -0.00520639  0.000380685 0.00101645 -0.00462819  9.37569e-05 0.00106721 -0.00453465  2.2641e-05 0.0010996 -0.00456815  -0.000109418 0.00107693 -0.00447043  -0.000596677 0.00114716 -0.0046459  -0.000763441 0.000794281 -0.00532916  -0.0015803 0.000845052 -0.00535012  0.00242838 0.000164296 -0.00511901  0.00101554 0.000382557 -0.00462876  0.000536289 0.000537574 -0.00370938  3.7973e-05 0.000634131 -0.00353467  -1.30824e-05 0.000630444 -0.00358629  -6.77866e-05 0.000639635 -0.00352278  -0.000684949 0.000717358 -0.00370828  -0.00108685 0.000569121 -0.00465796  -0.00233055 0.000668501 -0.0050631  0.00245219 -2.64053e-05 -0.00503415  0.00106557 9.5284e-05 -0.00453509  0.000633039 3.97111e-05 -0.00353457  0.000141955 0.000143272 -0.0032969  1.80278e-06 0.000109313 -0.00333997  -0.000126891 0.000164268 -0.0033054  -0.000604461 0.000120781 -0.00353109  -0.00103011 0.000153032 -0.00449138  -0.0024718 0.000182366 -0.00495177  0.0023951 -0.000125537 -0.0050598  0.00109774 2.35457e-05 -0.0045685  0.00062902 -1.19174e-05 -0.00358601  0.000107898 2.98321e-06 -0.00333979  3.54219e-05 3.66461e-05 -0.00338763  -3.99848e-05 3.45606e-05 -0.00333856  -0.000552472 7.60032e-05 -0.00358039  -0.000980298 4.07704e-05 -0.00455538  -0.00225151 0.000219211 -0.00502534  0.00253252 -0.00030813 -0.00494917  0.00107523 -0.000108313 -0.00447104  0.000638233 -6.68394e-05 -0.00352246  0.000162753 -0.000125862 -0.00330498  3.33223e-05 -3.8828e-05 -0.0033384  -0.000107218 -0.00010629 -0.00328841  -0.000605297 3.44601e-05 -0.00352255  -0.001022 -7.71204e-05 -0.00451205  -0.00241631 0.000233211 -0.00498392  0.00239689 -0.000668631 -0.00509074  0.00114524 -0.000595033 -0.00464615  0.000715428 -0.00068351 -0.00370795  0.000119385 -0.000604053 -0.00353083  7.47976e-05 -0.000551818 -0.00358021  3.30324e-05 -0.000604973 -0.00352255  -0.000483402 -0.000482714 -0.00370377  -0.000960402 -0.000379764 -0.00463098  -0.00237445 -0.000143107 -0.00509096  0.00163669 -0.000492692 -0.00542608  0.000792936 -0.000763009 -0.00532987  0.000567057 -0.00108544 -0.00465824  0.000151464 -0.00102964 -0.00449219  3.96278e-05 -0.000979686 -0.00455602  -7.86344e-05 -0.00102163 -0.00451279  -0.000381189 -0.000960119 -0.00463187  -0.000754558 -0.000753257 -0.00521897  -0.0019121 -0.000462252 -0.00546061  0.00159797 -0.00105912 -0.00509315  0.000844456 -0.00158135 -0.00535162  0.000666624 -0.0023297 -0.00506293  0.000180781 -0.0024706 -0.00495194  0.000217978 -0.00225068 -0.0050251  0.000231192 -0.00241539 -0.00498388  -0.000144875 -0.00237336 -0.00509131  -0.00046395 -0.00191048 -0.00545968  -0.00143605 -0.00143375 -0.00537449  
            </DataArray>
            <DataArray type="Float64" Name="Traction" NumberOfComponents="3" format="ascii">
               -0.00632043 -0.006316 -0.0686479  -0.00430877 -0.0113455 -0.0686479  -0.00254652 -0.0150369 -0.0686479  -0.000116125 -0.0147833 -0.0686479  -0.000967001 -0.0145458 -0.0686479  0.00280868 -0.0152273 -0.0686479  0.00992413 -0.0136905 -0.0686479  0.00182351 -0.00610359 -0.0686479  -0.00177323 -0.00362044 -0.0686479  -0.0113716 -0.00430842 -0.0686479  -0.00738081 -0.00736659 -0.0686479  -0.00381142 -0.0103317 -0.0686479  -0.00106529 -0.0108605 -0.0686479  -0.00192397 -0.0111462 -0.0686479  0.00122899 -0.0104921 -0.0686479  0.0113414 -0.010892 -0.0686479  0.00656168 -0.00691949 -0.0686479  0.00475937 -0.00460428 -0.0686479  -0.015068 -0.00255328 -0.0686479  -0.0103519 -0.00381366 -0.0686479  -0.00571802 -0.00571629 -0.0686479  -0.000840976 -0.00706366 -0.0686479  -0.001132 -0.00719558 -0.0686479  0.00101736 -0.00669893 -0.0686479  0.0123722 -0.00695773 -0.0686479  0.0106201 -0.00616966 -0.0686479  0.012954 -0.00638512 -0.0686479  -0.0148075 -0.000109309 -0.0686479  -0.0108763 -0.00106057 -0.0686479  -0.00706516 -0.000835625 -0.0686479  -0.00186154 -0.00185541 -0.0686479  -0.000863188 -0.00157204 -0.0686479  0.00182709 -0.0018913 -0.0686479  0.0114838 -0.00139121 -0.0686479  0.0102722 -0.00147916 -0.0686479  0.0146069 -0.00153058 -0.0686479  -0.0145692 -0.000952417 -0.0686479  -0.0111604 -0.00190964 -0.0686479  -0.007195 -0.00111992 -0.0686479  -0.00157755 -0.00085183 -0.0686479  -0.00135335 -0.00134152 -0.0686479  0.00123442 -0.00129022 -0.0686479  0.0115062 -0.00140621 -0.0686479  0.0103543 -0.000840523 -0.0686479  0.0133685 -0.00206075 -0.0686479  -0.0152525 0.00280837 -0.0686479  -0.0105097 0.00123287 -0.0686479  -0.00670009 0.00101995 -0.0686479  -0.00189719 0.00182858 -0.0686479  -0.00130222 0.00123623 -0.0686479  0.00168778 0.00169015 -0.0686479  0.0118581 0.000541145 -0.0686479  0.010522 0.00112928 -0.0686479  0.0143805 -0.00126596 -0.0686479  -0.013722 0.0099171 -0.0686479  -0.0109125 0.0113292 -0.0686479  -0.00696047 0.0123627 -0.0686479  -0.00139773 0.0114785 -0.0686479  -0.00141855 0.0114988 -0.0686479  0.000538784 0.0118512 -0.0686479  0.0104752 0.0104679 -0.0686479  0.00992019 0.00771711 -0.0686479  0.0142801 0.00568707 -0.0686479  -0.00613725 0.00185553 -0.0686479  -0.006937 0.00657378 -0.0686479  -0.00616972 0.0106253 -0.0686479  -0.00148673 0.0102796 -0.0686479  -0.000855065 0.0103607 -0.0686479  0.00112587 0.0105298 -0.0686479  0.00772419 0.00993167 -0.0686479  0.00714638 0.00715607 -0.0686479  0.0106095 0.00457064 -0.0686479  -0.0036605 -0.0017101 -0.0686479  -0.00462845 0.00480071 -0.0686479  -0.00638601 0.0129796 -0.0686479  -0.00153488 0.0146287 -0.0686479  -0.00207727 0.0133917 -0.0686479  -0.00127615 0.0144068 -0.0686479  0.00568807 0.0143117 -0.0686479  0.00457457 0.0106391 -0.0686479  0.00619051 0.00619504 -0.0686479  
            </DataArray>
         </PointData> 
      </Piece>
   </UnstructuredGrid> 
</VTKFile>
