<?xml version="1.0"?>
<VTKFile type="UnstructuredGrid" version="0.1" byte_order="LittleEndian">
   <UnstructuredGrid>
      <Piece NumberOfPoints="81" NumberOfCells="0" > 
         <Points> 
            <DataArray type="Float64" Name="Position" NumberOfComponents="3" format="ascii"> 
               0  0  20  
               0.375  0  20  
               0.75  0  20  
               1.125  0  20  
               1.5  0  20  
               1.875  0  20  
               2.25  0  20  
               2.625  0  20  
               3  0  20  
               0  0.375  20  
               0.375  0.375  20  
               0.75  0.375  20  
               1.125  0.375  20  
               1.5  0.375  20  
               1.875  0.375  20  
               2.25  0.375  20  
               2.625  0.375  20  
               3  0.375  20  
               0  0.75  20  
               0.375  0.75  20  
               0.75  0.75  20  
               1.125  0.75  20  
               1.5  0.75  20  
               1.875  0.75  20  
               2.25  0.75  20  
               2.625  0.75  20  
               3  0.75  20  
               0  1.125  20  
               0.375  1.125  20  
               0.75  1.125  20  
               1.125  1.125  20  
               1.5  1.125  20  
               1.875  1.125  20  
               2.25  1.125  20  
               2.625  1.125  20  
               3  1.125  20  
               0  1.5  20  
               0.375  1.5  20  
               0.75  1.5  20  
               1.125  1.5  20  
               1.5  1.5  20  
               1.875  1.5  20  
               2.25  1.5  20  
               2.625  1.5  20  
               3  1.5  20  
               0  1.875  20  
               0.375  1.875  20  
               0.75  1.875  20  
               1.125  1.875  20  
               1.5  1.875  20  
               1.875  1.875  20  
               2.25  1.875  20  
               2.625  1.875  20  
               3  1.875  20  
               0  2.25  20  
               0.375  2.25  20  
               0.75  2.25  20  
               1.125  2.25  20  
               1.5  2.25  20  
               1.875  2.25  20  
               2.25  2.25  20  
               2.625  2.25  20  
               3  2.25  20  
               0  2.625  20  
               0.375  2.625  20  
               0.75  2.625  20  
               1.125  2.625  20  
               1.5  2.625  20  
               1.875  2.625  20  
               2.25  2.625  20  
               2.625  2.625  20  
               3  2.625  20  
               0  3  20  
               0.375  3  20  
               0.75  3  20  
               1.125  3  20  
               1.5  3  20  
               1.875  3  20  
               2.25  3  20  
               2.625  3  20  
               3  3  20  
            </DataArray>
         </Points> 

         <Cells>
            <DataArray type="Int32" Name="connectivity" NumberOfComponents="1" format="ascii">
               
            </DataArray> 
            <DataArray type="Int32" Name="offsets" NumberOfComponents="1" format="ascii">
               
            </DataArray>
            <DataArray type="UInt8"  Name="types" NumberOfComponents="1" format="ascii">
               
            </DataArray>
         </Cells>
         <PointData Scalars="Rank " Vectors="Displacement Velocity Traction ">
            <DataArray type="UInt32" Name="Rank" NumberOfComponents="1" format="ascii">
               0 0 0 0 0 0 0 0 0 0 0 0 0 0 0 0 0 0 0 0 0 0 0 0 0 0 0 0 0 0 0 0 0 0 0 0 0 0 0 0 0 0 0 0 0 0 0 0 0 0 0 0 0 0 0 0 0 0 0 0 0 0 0 0 0 0 0 0 0 0 0 0 0 0 0 0 0 0 0 0 0 
            </DataArray>
            <DataArray type="Float64" Name="Displacement" NumberOfComponents="3" format="ascii">
               0 0 0  0 0 0  0 0 0  0 0 0  0 0 0  0 0 0  0 0 0  0 0 0  0 0 0  0 0 0  0 0 0  0 0 0  0 0 0  0 0 0  0 0 0  0 0 0  0 0 0  0 0 0  0 0 0  0 0 0  0 0 0  0 0 0  0 0 0  0 0 0  0 0 0  0 0 0  0 0 0  0 0 0  0 0 0  0 0 0  0 0 0  0 0 0  0 0 0  0 0 0  0 0 0  0 0 0  0 0 0  0 0 0  0 0 0  0 0 0  0 0 0  0 0 0  0 0 0  0 0 0  0 0 0  0 0 0  0 0 0  0 0 0  0 0 0  0 0 0  0 0 0  0 0 0  0 0 0  0 0 0  0 0 0  0 0 0  0 0 0  0 0 0  0 0 0  0 0 0  0 0 0  0 0 0  0 0 0  0 0 0  0 0 0  0 0 0  0 0 0  0 0 0  0 0 0  0 0 0  0 0 0  0 0 0  0 0 0  0 0 0  0 0 0  0 0 0  0 0 0  0 0 0  0 0 0  0 0 0  0 0 0  
            </DataArray>
            <DataArray type="Float64" Name="Velocity" NumberOfComponents="3" format="ascii">
               0 0 0  0 0 0  0 0 0  0 0 0  0 0 0  0 0 0  0 0 0  0 0 0  0 0 0  0 0 0  0 0 0  0 0 0  0 0 0  0 0 0  0 0 0  0 0 0  0 0 0  0 0 0  0 0 0  0 0 0  0 0 0  0 0 0  0 0 0  0 0 0  0 0 0  0 0 0  0 0 0  0 0 0  0 0 0  0 0 0  0 0 0  0 0 0  0 0 0  0 0 0  0 0 0  0 0 0  0 0 0  0 0 0  0 0 0  0 0 0  0 0 0  0 0 0  0 0 0  0 0 0  0 0 0  0 0 0  0 0 0  0 0 0  0 0 0  0 0 0  0 0 0  0 0 0  0 0 0  0 0 0  0 0 0  0 0 0  0 0 0  0 0 0  0 0 0  0 0 0  0 0 0  0 0 0  0 0 0  0 0 0  0 0 0  0 0 0  0 0 0  0 0 0  0 0 0  0 0 0  0 0 0  0 0 0  0 0 0  0 0 0  0 0 0  0 0 0  0 0 0  0 0 0  0 0 0  0 0 0  0 0 0  
            </DataArray>
            <DataArray type="Float64" Name="Traction" NumberOfComponents="3" format="ascii">
               -2.71616e-09 -2.89036e-09 -1.21661e-05  -6.13538e-10 -4.56793e-09 -1.21661e-05  -2.81869e-10 -6.6911e-09 -1.21661e-05  4.14954e-10 -6.55287e-09 -1.21661e-05  -9.86302e-11 -6.93581e-09 -1.21661e-05  -2.34262e-10 -6.76449e-09 -1.21661e-05  8.70172e-10 -6.69061e-09 -1.21661e-05  6.44336e-10 -5.09526e-09 -1.21661e-05  2.89211e-09 -3.15543e-09 -1.21661e-05  -4.20499e-09 -5.99706e-10 -1.21661e-05  -1.52115e-09 -1.75544e-09 -1.21661e-05  -7.22491e-10 -3.36261e-09 -1.21661e-05  3.22745e-10 -3.1302e-09 -1.21661e-05  -1.31616e-10 -3.44394e-09 -1.21661e-05  -1.27666e-10 -3.2097e-09 -1.21661e-05  2.40025e-09 -3.39932e-09 -1.21661e-05  2.32041e-09 -2.36362e-09 -1.21661e-05  5.03426e-09 -8.63227e-10 -1.21661e-05  -6.47978e-09 -4.00618e-10 -1.21661e-05  -2.89096e-09 -8.23212e-10 -1.21661e-05  -1.16454e-09 -1.52491e-09 -1.21661e-05  2.99308e-10 -1.3836e-09 -1.21661e-05  -4.22512e-10 -1.35533e-09 -1.21661e-05  -2.36672e-10 -1.41277e-09 -1.21661e-05  3.76834e-09 -1.73666e-09 -1.21661e-05  3.66318e-09 -1.13942e-09 -1.21661e-05  7.13509e-09 -4.89849e-10 -1.21661e-05  -6.47989e-09 1.51631e-10 -1.21661e-05  -3.04099e-09 1.44692e-10 -1.21661e-05  -1.24544e-09 1.73352e-10 -1.21661e-05  2.21736e-10 3.33362e-11 -1.21661e-05  -4.04757e-10 2.94951e-11 -1.21661e-05  -1.82925e-10 5.61546e-11 -1.21661e-05  3.44816e-09 2.26147e-11 -1.21661e-05  3.21313e-09 1.20476e-10 -1.21661e-05  6.77971e-09 1.01462e-10 -1.21661e-05  -6.25433e-09 -2.89277e-10 -1.21661e-05  -2.99592e-09 -2.83136e-10 -1.21661e-05  -1.19691e-09 -5.46045e-10 -1.21661e-05  1.38858e-10 -5.35113e-10 -1.21661e-05  -4.15106e-10 -4.98701e-10 -1.21661e-05  -1.59761e-10 -5.11682e-10 -1.21661e-05  3.52485e-09 -4.98912e-10 -1.21661e-05  3.49761e-09 -4.413e-10 -1.21661e-05  6.68632e-09 -1.92459e-10 -1.21661e-05  -6.74088e-09 -3.96586e-10 -1.21661e-05  -3.20629e-09 -1.47453e-10 -1.21661e-05  -1.34581e-09 -3.86258e-10 -1.21661e-05  1.45724e-10 -2.90606e-10 -1.21661e-05  -3.78461e-10 -2.57892e-10 -1.21661e-05  -1.60231e-10 -3.63319e-10 -1.21661e-05  3.50902e-09 -2.57072e-10 -1.21661e-05  3.41641e-09 -3.36866e-10 -1.21661e-05  6.94572e-09 3.31358e-11 -1.21661e-05  -6.61647e-09 9.00562e-10 -1.21661e-05  -3.21537e-09 2.24535e-09 -1.21661e-05  -1.39682e-09 3.43204e-09 -1.21661e-05  2.01763e-10 3.44358e-09 -1.21661e-05  -3.97489e-10 3.33747e-09 -1.21661e-05  -1.57068e-10 3.47076e-09 -1.21661e-05  3.60799e-09 3.58542e-09 -1.21661e-05  3.56995e-09 2.19488e-09 -1.21661e-05  7.0457e-09 1.65682e-09 -1.21661e-05  -4.86603e-09 8.13885e-10 -1.21661e-05  -2.06089e-09 2.08717e-09 -1.21661e-05  -9.35682e-10 3.28884e-09 -1.21661e-05  1.23342e-10 3.39479e-09 -1.21661e-05  -3.90551e-10 3.31125e-09 -1.21661e-05  -1.48949e-10 3.46113e-09 -1.21661e-05  2.38122e-09 3.5513e-09 -1.21661e-05  2.26932e-09 2.11276e-09 -1.21661e-05  4.99267e-09 2.03342e-09 -1.21661e-05  -3.19232e-09 3.039e-09 -1.21661e-05  -9.48871e-10 4.91485e-09 -1.21661e-05  -5.37473e-10 6.79464e-09 -1.21661e-05  2.70824e-10 6.96725e-09 -1.21661e-05  -3.48032e-11 6.57553e-09 -1.21661e-05  1.71582e-10 6.91649e-09 -1.21661e-05  1.79741e-09 7.01339e-09 -1.21661e-05  2.08267e-09 4.83154e-09 -1.21661e-05  4.51951e-09 4.46228e-09 -1.21661e-05  
            </DataArray>
         </PointData> 
      </Piece>
   </UnstructuredGrid> 
</VTKFile>
