<?xml version="1.0"?>
<VTKFile type="UnstructuredGrid" version="0.1" byte_order="LittleEndian">
   <UnstructuredGrid>
      <Piece NumberOfPoints="81" NumberOfCells="0" > 
         <Points> 
            <DataArray type="Float64" Name="Position" NumberOfComponents="3" format="ascii"> 
               0  0  20  
               0.375  0  20  
               0.75  0  20  
               1.125  0  20  
               1.5  0  20  
               1.875  0  20  
               2.25  0  20  
               2.625  0  20  
               3  0  20  
               0  0.375  20  
               0.375  0.375  20  
               0.75  0.375  20  
               1.125  0.375  20  
               1.5  0.375  20  
               1.875  0.375  20  
               2.25  0.375  20  
               2.625  0.375  20  
               3  0.375  20  
               0  0.75  20  
               0.375  0.75  20  
               0.75  0.75  20  
               1.125  0.75  20  
               1.5  0.75  20  
               1.875  0.75  20  
               2.25  0.75  20  
               2.625  0.75  20  
               3  0.75  20  
               0  1.125  20  
               0.375  1.125  20  
               0.75  1.125  20  
               1.125  1.125  20  
               1.5  1.125  20  
               1.875  1.125  20  
               2.25  1.125  20  
               2.625  1.125  20  
               3  1.125  20  
               0  1.5  20  
               0.375  1.5  20  
               0.75  1.5  20  
               1.125  1.5  20  
               1.5  1.5  20  
               1.875  1.5  20  
               2.25  1.5  20  
               2.625  1.5  20  
               3  1.5  20  
               0  1.875  20  
               0.375  1.875  20  
               0.75  1.875  20  
               1.125  1.875  20  
               1.5  1.875  20  
               1.875  1.875  20  
               2.25  1.875  20  
               2.625  1.875  20  
               3  1.875  20  
               0  2.25  20  
               0.375  2.25  20  
               0.75  2.25  20  
               1.125  2.25  20  
               1.5  2.25  20  
               1.875  2.25  20  
               2.25  2.25  20  
               2.625  2.25  20  
               3  2.25  20  
               0  2.625  20  
               0.375  2.625  20  
               0.75  2.625  20  
               1.125  2.625  20  
               1.5  2.625  20  
               1.875  2.625  20  
               2.25  2.625  20  
               2.625  2.625  20  
               3  2.625  20  
               0  3  20  
               0.375  3  20  
               0.75  3  20  
               1.125  3  20  
               1.5  3  20  
               1.875  3  20  
               2.25  3  20  
               2.625  3  20  
               3  3  20  
            </DataArray>
         </Points> 

         <Cells>
            <DataArray type="Int32" Name="connectivity" NumberOfComponents="1" format="ascii">
               
            </DataArray> 
            <DataArray type="Int32" Name="offsets" NumberOfComponents="1" format="ascii">
               
            </DataArray>
            <DataArray type="UInt8"  Name="types" NumberOfComponents="1" format="ascii">
               
            </DataArray>
         </Cells>
         <PointData Scalars="Rank " Vectors="Displacement Velocity Traction ">
            <DataArray type="UInt32" Name="Rank" NumberOfComponents="1" format="ascii">
               0 0 0 0 0 0 0 0 0 0 0 0 0 0 0 0 0 0 0 0 0 0 0 0 0 0 0 0 0 0 0 0 0 0 0 0 0 0 0 0 0 0 0 0 0 0 0 0 0 0 0 0 0 0 0 0 0 0 0 0 0 0 0 0 0 0 0 0 0 0 0 0 0 0 0 0 0 0 0 0 0 
            </DataArray>
            <DataArray type="Float64" Name="Displacement" NumberOfComponents="3" format="ascii">
               1.40132e-08 1.39862e-08 -3.85603e-08  3.60613e-09 1.8231e-08 -3.52562e-08  5.88901e-10 2.43844e-08 -3.10605e-08  -8.08124e-10 2.54589e-08 -3.04407e-08  -5.99285e-10 2.35776e-08 -3.18731e-08  9.89374e-11 2.5516e-08 -3.03984e-08  -2.70183e-09 2.45772e-08 -3.09911e-08  -5.42491e-09 1.69447e-08 -3.49469e-08  -1.47387e-08 1.55792e-08 -3.83679e-08  1.82411e-08 3.56272e-09 -3.52571e-08  6.50934e-09 6.47283e-09 -2.94521e-08  1.54463e-09 9.58533e-09 -2.28129e-08  2.26761e-10 9.84849e-09 -2.13186e-08  -4.20548e-13 9.70153e-09 -2.30194e-08  5.83291e-12 9.75967e-09 -2.1293e-08  -1.79385e-09 1.03767e-08 -2.27528e-08  -6.12058e-09 6.0627e-09 -2.94555e-08  -1.69251e-08 6.07958e-09 -3.49487e-08  2.44168e-08 5.50933e-10 -3.10601e-08  9.6119e-09 1.5e-09 -2.28123e-08  2.90932e-09 2.86554e-09 -1.30571e-08  -2.57904e-10 3.48444e-09 -1.05961e-08  -2.83154e-10 3.25568e-09 -1.26521e-08  4.70946e-12 3.39512e-09 -1.05977e-08  -3.27889e-09 3.47215e-09 -1.2971e-08  -9.93931e-09 1.79971e-09 -2.27975e-08  -2.41816e-08 2.52068e-09 -3.09716e-08  2.55098e-08 -8.37608e-10 -3.04452e-08  9.88005e-09 1.97286e-10 -2.13184e-08  3.5309e-09 -2.83702e-10 -1.05969e-08  3.39366e-10 3.15355e-10 -7.94179e-09  4.77513e-11 -1.14172e-10 -9.92307e-09  -2.59177e-10 3.08371e-10 -7.92838e-09  -3.35762e-09 -2.46261e-10 -1.05686e-08  -9.72908e-09 1.27035e-10 -2.12837e-08  -2.54856e-08 -8.80167e-10 -3.04073e-08  2.36261e-08 -6.36953e-10 -3.18832e-08  9.72567e-09 -2.42125e-11 -2.30189e-08  3.28794e-09 -3.07243e-10 -1.26503e-08  -9.23275e-11 1.44782e-11 -9.92224e-09  5.74328e-11 2.66581e-11 -1.16455e-08  1.66711e-10 -7.18273e-12 -9.90141e-09  -3.05236e-09 2.34218e-10 -1.26345e-08  -9.32178e-09 1.18981e-11 -2.2966e-08  -2.32854e-08 8.5269e-10 -3.18396e-08  2.55609e-08 7.90865e-11 -3.04075e-08  9.77615e-09 -1.75153e-11 -2.12943e-08  3.4248e-09 -2.46599e-11 -1.05992e-08  3.29119e-10 -2.72974e-10 -7.92689e-09  2.30479e-11 1.51534e-10 -9.89999e-09  -3.12813e-10 -3.32086e-10 -7.90739e-09  -3.47716e-09 5.65673e-10 -1.05618e-08  -9.76979e-09 -3.19822e-10 -2.13009e-08  -2.54152e-08 1.62989e-09 -3.04149e-08  2.46163e-08 -2.71642e-09 -3.10011e-08  1.04149e-08 -1.8081e-09 -2.27562e-08  3.50563e-09 -3.30864e-09 -1.29754e-08  -2.15665e-10 -3.39101e-09 -1.05685e-08  2.53906e-10 -3.07897e-09 -1.2631e-08  5.80591e-10 -3.5015e-09 -1.05606e-08  -2.60293e-09 -2.6209e-09 -1.29904e-08  -9.43152e-09 -1.48893e-09 -2.28182e-08  -2.42532e-08 -4.76172e-10 -3.10575e-08  1.69985e-08 -5.46017e-09 -3.49573e-08  6.11618e-09 -6.16669e-09 -2.94549e-08  1.8234e-09 -9.96275e-09 -2.28015e-08  1.53154e-10 -9.72472e-09 -2.12862e-08  2.70789e-11 -9.3248e-09 -2.29649e-08  -2.95628e-10 -9.77838e-09 -2.13005e-08  -1.47151e-09 -9.44764e-09 -2.28169e-08  -6.34684e-09 -6.36917e-09 -2.94662e-08  -1.80459e-08 -3.64469e-09 -3.52345e-08  1.56365e-08 -1.47931e-08 -3.83859e-08  6.11864e-09 -1.69946e-08 -3.49608e-08  2.52793e-09 -2.42134e-08 -3.09834e-08  -8.64149e-10 -2.5491e-08 -3.04082e-08  8.71826e-10 -2.33005e-08 -3.18386e-08  1.65455e-09 -2.54206e-08 -3.04138e-08  -4.54e-10 -2.42689e-08 -3.10581e-08  -3.62552e-09 -1.80671e-08 -3.52381e-08  -1.39052e-08 -1.3922e-08 -3.84717e-08  
            </DataArray>
            <DataArray type="Float64" Name="Velocity" NumberOfComponents="3" format="ascii">
               7.49125e-08 7.47595e-08 -2.23397e-07  1.20319e-08 1.10525e-07 -2.07908e-07  4.19006e-09 1.45003e-07 -1.86669e-07  -4.56937e-09 1.48231e-07 -1.8411e-07  -4.21665e-09 1.40004e-07 -1.89694e-07  -9.93922e-10 1.48606e-07 -1.83771e-07  -1.87302e-08 1.46029e-07 -1.8612e-07  -2.47889e-08 1.02313e-07 -2.05634e-07  -8.02702e-08 8.49571e-08 -2.22442e-07  1.10603e-07 1.18519e-08 -2.07923e-07  3.02572e-08 3.01057e-08 -1.68756e-07  1.3903e-08 4.40402e-08 -1.27761e-07  -4.46447e-10 4.71191e-08 -1.23066e-07  -9.00885e-11 4.56481e-08 -1.28857e-07  1.6711e-09 4.66669e-08 -1.2287e-07  -1.53721e-08 4.91238e-08 -1.27296e-07  -2.81087e-08 2.79174e-08 -1.69003e-07  -1.0223e-07 2.85182e-08 -2.05622e-07  1.45132e-07 4.02665e-09 -1.8668e-07  4.41739e-08 1.37154e-08 -1.2776e-07  2.28403e-08 2.26696e-08 -6.47858e-08  -3.89722e-09 2.52747e-08 -5.71763e-08  -2.0126e-09 2.39007e-08 -6.39005e-08  1.28084e-09 2.47742e-08 -5.71902e-08  -2.58873e-08 2.63351e-08 -6.40904e-08  -4.67381e-08 1.54666e-08 -1.27654e-07  -1.44132e-07 1.68815e-08 -1.85907e-07  1.48445e-07 -4.70701e-09 -1.8414e-07  4.72766e-08 -5.8616e-10 -1.23064e-07  2.54723e-08 -4.02541e-09 -5.71859e-08  -2.67733e-11 -1.43213e-10 -4.75139e-08  2.41597e-10 -2.80514e-09 -5.39375e-08  5.25296e-10 -1.98375e-10 -4.74206e-08  -2.45487e-08 -3.53978e-09 -5.69701e-08  -4.63853e-08 -8.14147e-10 -1.22815e-07  -1.48278e-07 -4.99016e-09 -1.8385e-07  1.40202e-07 -4.36137e-09 -1.89744e-07  4.57608e-08 -2.06712e-10 -1.28848e-07  2.40656e-08 -2.13636e-09 -6.38985e-08  -2.69385e-09 8.85594e-11 -5.39369e-08  -5.39876e-11 -2.04032e-10 -5.9432e-08  2.30276e-09 3.58304e-11 -5.37843e-08  -2.32345e-08 1.04364e-09 -6.38224e-08  -4.35004e-08 2.55023e-10 -1.28467e-07  -1.38338e-07 4.96169e-09 -1.8948e-07  1.48771e-07 -1.08793e-09 -1.83823e-07  4.67749e-08 1.53239e-09 -1.22875e-07  2.493e-08 1.13326e-09 -5.72046e-08  -9.25638e-11 4.48066e-10 -4.74171e-08  1.78966e-10 2.22024e-09 -5.3781e-08  2.01471e-10 1.15585e-10 -4.72584e-08  -2.52601e-08 5.00734e-09 -5.69388e-08  -4.66749e-08 -1.25869e-10 -1.2293e-07  -1.48069e-07 9.278e-09 -1.83889e-07  1.46258e-07 -1.88026e-08 -1.86191e-07  4.93204e-08 -1.54736e-08 -1.27315e-07  2.65047e-08 -2.60387e-08 -6.41219e-08  -3.38992e-09 -2.46926e-08 -5.69761e-08  1.14833e-09 -2.33517e-08 -6.38135e-08  5.09516e-09 -2.53783e-08 -5.69365e-08  -2.15332e-08 -2.16267e-08 -6.42952e-08  -4.3254e-08 -1.37689e-08 -1.278e-07  -1.44307e-07 -3.54158e-09 -1.86598e-07  1.02626e-07 -2.5e-08 -2.05708e-07  2.81908e-08 -2.83521e-08 -1.68988e-07  1.56095e-08 -4.68589e-08 -1.27673e-07  -6.7073e-10 -4.64144e-08 -1.2283e-07  3.41416e-10 -4.35341e-08 -1.28464e-07  -2.24832e-11 -4.67353e-08 -1.22931e-07  -1.36801e-08 -4.33406e-08 -1.27792e-07  -2.95337e-08 -2.96251e-08 -1.68887e-07  -1.0973e-07 -1.23986e-08 -2.07794e-07  8.52673e-08 -8.0558e-08 -2.22583e-07  2.87325e-08 -1.02582e-07 -2.05701e-07  1.69186e-08 -1.44292e-07 -1.85975e-07  -4.90604e-09 -1.4829e-07 -1.83848e-07  5.05913e-09 -1.38401e-07 -1.8947e-07  9.38739e-09 -1.48115e-07 -1.83883e-07  -3.42276e-09 -1.44382e-07 -1.86605e-07  -1.23105e-08 -1.09836e-07 -2.07823e-07  -7.46716e-08 -7.47678e-08 -2.22874e-07  
            </DataArray>
            <DataArray type="Float64" Name="Traction" NumberOfComponents="3" format="ascii">
               -1.77434e-07 -1.77948e-07 -1.05824e-05  -7.05243e-08 -2.47942e-07 -1.05824e-05  -1.81769e-08 -3.32199e-07 -1.05824e-05  1.42588e-08 -3.47521e-07 -1.05824e-05  -1.96157e-08 -3.25256e-07 -1.05824e-05  -9.41049e-09 -3.48573e-07 -1.05824e-05  6.39183e-08 -3.34225e-07 -1.05824e-05  8.60575e-08 -2.29695e-07 -1.05824e-05  1.84402e-07 -1.92497e-07 -1.05824e-05  -2.47355e-07 -7.05221e-08 -1.05824e-05  -1.25045e-07 -1.25169e-07 -1.05824e-05  -4.19818e-08 -1.82177e-07 -1.05824e-05  1.38032e-09 -1.9011e-07 -1.05824e-05  -3.29068e-08 -1.87316e-07 -1.05824e-05  -3.44177e-09 -1.89225e-07 -1.05824e-05  8.79151e-08 -1.9134e-07 -1.05824e-05  1.20896e-07 -1.20054e-07 -1.05824e-05  2.29143e-07 -9.29669e-08 -1.05824e-05  -3.31646e-07 -1.81382e-08 -1.05824e-05  -1.81186e-07 -4.19963e-08 -1.05824e-05  -6.92469e-08 -6.99624e-08 -1.05824e-05  6.0716e-09 -7.64967e-08 -1.05824e-05  -3.93411e-08 -7.5023e-08 -1.05824e-05  -2.83064e-09 -7.58689e-08 -1.05824e-05  1.34104e-07 -7.62632e-08 -1.05824e-05  1.87325e-07 -4.61102e-08 -1.05824e-05  3.30056e-07 -3.56584e-08 -1.05824e-05  -3.47798e-07 1.41731e-08 -1.05824e-05  -1.90044e-07 9.79262e-10 -1.05824e-05  -7.64888e-08 5.44418e-09 -1.05824e-05  -1.0882e-09 -1.39969e-09 -1.05824e-05  -4.3366e-08 1.50789e-09 -1.05824e-05  8.89997e-10 -1.43587e-09 -1.05824e-05  1.40375e-07 5.60354e-09 -1.05824e-05  1.89518e-07 1.67628e-09 -1.05824e-05  3.49004e-07 1.74779e-08 -1.05824e-05  -3.23978e-07 -1.95523e-08 -1.05824e-05  -1.85814e-07 -3.33649e-08 -1.05824e-05  -7.39906e-08 -4.0017e-08 -1.05824e-05  2.24022e-09 -4.34233e-08 -1.05824e-05  -4.01307e-08 -4.05323e-08 -1.05824e-05  -2.00901e-09 -4.33564e-08 -1.05824e-05  1.33823e-07 -4.60385e-08 -1.05824e-05  1.8352e-07 -3.30503e-08 -1.05824e-05  3.22625e-07 -3.30491e-08 -1.05824e-05  -3.49014e-07 -9.41221e-09 -1.05824e-05  -1.89106e-07 -4.06886e-09 -1.05824e-05  -7.56133e-08 -3.93486e-09 -1.05824e-05  -1.19434e-09 5.73122e-10 -1.05824e-05  -4.3213e-08 -2.65349e-09 -1.05824e-05  1.50371e-09 1.02616e-09 -1.05824e-05  1.42024e-07 -9.5929e-09 -1.05824e-05  1.90109e-07 -3.87061e-10 -1.05824e-05  3.47801e-07 -2.27019e-08 -1.05824e-05  -3.32533e-07 6.41264e-08 -1.05824e-05  -1.8923e-07 8.61444e-08 -1.05824e-05  -7.42514e-08 1.31977e-07 -1.05824e-05  6.61273e-09 1.40383e-07 -1.05824e-05  -4.53935e-08 1.32978e-07 -1.05824e-05  -8.99306e-09 1.41827e-07 -1.05824e-05  1.25458e-07 1.24924e-07 -1.05824e-05  1.81158e-07 8.04109e-08 -1.05824e-05  3.30973e-07 4.78095e-08 -1.05824e-05  -2.27966e-07 8.6524e-08 -1.05824e-05  -1.18066e-07 1.19129e-07 -1.05824e-05  -4.45685e-08 1.84981e-07 -1.05824e-05  2.1675e-09 1.89401e-07 -1.05824e-05  -3.25829e-08 1.82237e-07 -1.05824e-05  6.32666e-11 1.89787e-07 -1.05824e-05  8.08794e-08 1.80573e-07 -1.05824e-05  1.23046e-07 1.22867e-07 -1.05824e-05  2.44607e-07 7.13812e-08 -1.05824e-05  -1.93108e-07 1.84989e-07 -1.05824e-05  -9.3435e-08 2.28142e-07 -1.05824e-05  -3.59278e-08 3.28226e-07 -1.05824e-05  1.76312e-08 3.49e-07 -1.05824e-05  -3.28307e-08 3.21664e-07 -1.05824e-05  -2.26226e-08 3.47358e-07 -1.05824e-05  4.80358e-08 3.3045e-07 -1.05824e-05  7.16249e-08 2.44538e-07 -1.05824e-05  1.76443e-07 1.75993e-07 -1.05824e-05  
            </DataArray>
         </PointData> 
      </Piece>
   </UnstructuredGrid> 
</VTKFile>
