<?xml version="1.0"?>
<VTKFile type="UnstructuredGrid" version="0.1" byte_order="LittleEndian">
   <UnstructuredGrid>
      <Piece NumberOfPoints="81" NumberOfCells="0" > 
         <Points> 
            <DataArray type="Float64" Name="Position" NumberOfComponents="3" format="ascii"> 
               0  0  20  
               0.375  0  20  
               0.75  0  20  
               1.125  0  20  
               1.5  0  20  
               1.875  0  20  
               2.25  0  20  
               2.625  0  20  
               3  0  20  
               0  0.375  20  
               0.375  0.375  20  
               0.75  0.375  20  
               1.125  0.375  20  
               1.5  0.375  20  
               1.875  0.375  20  
               2.25  0.375  20  
               2.625  0.375  20  
               3  0.375  20  
               0  0.75  20  
               0.375  0.75  20  
               0.75  0.75  20  
               1.125  0.75  20  
               1.5  0.75  20  
               1.875  0.75  20  
               2.25  0.75  20  
               2.625  0.75  20  
               3  0.75  20  
               0  1.125  20  
               0.375  1.125  20  
               0.75  1.125  20  
               1.125  1.125  20  
               1.5  1.125  20  
               1.875  1.125  20  
               2.25  1.125  20  
               2.625  1.125  20  
               3  1.125  20  
               0  1.5  20  
               0.375  1.5  20  
               0.75  1.5  20  
               1.125  1.5  20  
               1.5  1.5  20  
               1.875  1.5  20  
               2.25  1.5  20  
               2.625  1.5  20  
               3  1.5  20  
               0  1.875  20  
               0.375  1.875  20  
               0.75  1.875  20  
               1.125  1.875  20  
               1.5  1.875  20  
               1.875  1.875  20  
               2.25  1.875  20  
               2.625  1.875  20  
               3  1.875  20  
               0  2.25  20  
               0.375  2.25  20  
               0.75  2.25  20  
               1.125  2.25  20  
               1.5  2.25  20  
               1.875  2.25  20  
               2.25  2.25  20  
               2.625  2.25  20  
               3  2.25  20  
               0  2.625  20  
               0.375  2.625  20  
               0.75  2.625  20  
               1.125  2.625  20  
               1.5  2.625  20  
               1.875  2.625  20  
               2.25  2.625  20  
               2.625  2.625  20  
               3  2.625  20  
               0  3  20  
               0.375  3  20  
               0.75  3  20  
               1.125  3  20  
               1.5  3  20  
               1.875  3  20  
               2.25  3  20  
               2.625  3  20  
               3  3  20  
            </DataArray>
         </Points> 

         <Cells>
            <DataArray type="Int32" Name="connectivity" NumberOfComponents="1" format="ascii">
               
            </DataArray> 
            <DataArray type="Int32" Name="offsets" NumberOfComponents="1" format="ascii">
               
            </DataArray>
            <DataArray type="UInt8"  Name="types" NumberOfComponents="1" format="ascii">
               
            </DataArray>
         </Cells>
         <PointData Scalars="Rank " Vectors="Displacement Velocity Traction ">
            <DataArray type="UInt32" Name="Rank" NumberOfComponents="1" format="ascii">
               0 0 0 0 0 0 0 0 0 0 0 0 0 0 0 0 0 0 0 0 0 0 0 0 0 0 0 0 0 0 0 0 0 0 0 0 0 0 0 0 0 0 0 0 0 0 0 0 0 0 0 0 0 0 0 0 0 0 0 0 0 0 0 0 0 0 0 0 0 0 0 0 0 0 0 0 0 0 0 0 0 
            </DataArray>
            <DataArray type="Float64" Name="Displacement" NumberOfComponents="3" format="ascii">
               0 0 0  0 0 0  0 0 0  0 0 0  0 0 0  0 0 0  0 0 0  0 0 0  0 0 0  0 0 0  0 0 0  0 0 0  0 0 0  0 0 0  0 0 0  0 0 0  0 0 0  0 0 0  0 0 0  0 0 0  0 0 0  0 0 0  0 0 0  0 0 0  0 0 0  0 0 0  0 0 0  0 0 0  0 0 0  0 0 0  0 0 0  0 0 0  0 0 0  0 0 0  0 0 0  0 0 0  0 0 0  0 0 0  0 0 0  0 0 0  0 0 0  0 0 0  0 0 0  0 0 0  0 0 0  0 0 0  0 0 0  0 0 0  0 0 0  0 0 0  0 0 0  0 0 0  0 0 0  0 0 0  0 0 0  0 0 0  0 0 0  0 0 0  0 0 0  0 0 0  0 0 0  0 0 0  0 0 0  0 0 0  0 0 0  0 0 0  0 0 0  0 0 0  0 0 0  0 0 0  0 0 0  0 0 0  0 0 0  0 0 0  0 0 0  0 0 0  0 0 0  0 0 0  0 0 0  0 0 0  0 0 0  
            </DataArray>
            <DataArray type="Float64" Name="Velocity" NumberOfComponents="3" format="ascii">
               0 0 0  0 0 0  0 0 0  0 0 0  0 0 0  0 0 0  0 0 0  0 0 0  0 0 0  0 0 0  0 0 0  0 0 0  0 0 0  0 0 0  0 0 0  0 0 0  0 0 0  0 0 0  0 0 0  0 0 0  0 0 0  0 0 0  0 0 0  0 0 0  0 0 0  0 0 0  0 0 0  0 0 0  0 0 0  0 0 0  0 0 0  0 0 0  0 0 0  0 0 0  0 0 0  0 0 0  0 0 0  0 0 0  0 0 0  0 0 0  0 0 0  0 0 0  0 0 0  0 0 0  0 0 0  0 0 0  0 0 0  0 0 0  0 0 0  0 0 0  0 0 0  0 0 0  0 0 0  0 0 0  0 0 0  0 0 0  0 0 0  0 0 0  0 0 0  0 0 0  0 0 0  0 0 0  0 0 0  0 0 0  0 0 0  0 0 0  0 0 0  0 0 0  0 0 0  0 0 0  0 0 0  0 0 0  0 0 0  0 0 0  0 0 0  0 0 0  0 0 0  0 0 0  0 0 0  0 0 0  0 0 0  
            </DataArray>
            <DataArray type="Float64" Name="Traction" NumberOfComponents="3" format="ascii">
               -3.431e-05 -3.44703e-05 -0.000125149  -1.73134e-05 -6.21493e-05 -0.000125149  -8.71933e-06 -7.75487e-05 -0.000125149  -9.74441e-07 -7.61964e-05 -0.000125149  -2.82497e-06 -7.63081e-05 -0.000125149  1.15751e-05 -7.78645e-05 -0.000125149  4.30175e-05 -7.12743e-05 -0.000125149  1.63908e-05 -3.89118e-05 -0.000125149  1.0006e-05 -3.14947e-05 -0.000125149  -6.19778e-05 -1.72747e-05 -0.000125149  -3.56279e-05 -3.56315e-05 -0.000125149  -1.4874e-05 -5.0849e-05 -0.000125149  -4.43372e-06 -5.33082e-05 -0.000125149  -6.83443e-06 -5.5043e-05 -0.000125149  5.2274e-06 -5.21881e-05 -0.000125149  4.72328e-05 -5.27426e-05 -0.000125149  3.29795e-05 -3.411e-05 -0.000125149  3.43563e-05 -2.73246e-05 -0.000125149  -7.74266e-05 -8.68893e-06 -0.000125149  -5.09054e-05 -1.48635e-05 -0.000125149  -2.48198e-05 -2.47785e-05 -0.000125149  -4.06535e-06 -3.16918e-05 -0.000125149  -4.26227e-06 -3.26238e-05 -0.000125149  5.26717e-06 -3.08248e-05 -0.000125149  5.48529e-05 -3.06449e-05 -0.000125149  5.09031e-05 -2.46031e-05 -0.000125149  6.756e-05 -2.71599e-05 -0.000125149  -7.60113e-05 -9.73034e-07 -0.000125149  -5.33193e-05 -4.44143e-06 -0.000125149  -3.17246e-05 -4.08519e-06 -0.000125149  -8.71897e-06 -8.73368e-06 -0.000125149  -3.8789e-06 -7.49529e-06 -0.000125149  8.45706e-06 -8.75804e-06 -0.000125149  5.36068e-05 -6.58533e-06 -0.000125149  5.1201e-05 -5.97242e-06 -0.000125149  7.50148e-05 -6.46988e-06 -0.000125149  -7.61214e-05 -2.79083e-06 -0.000125149  -5.50417e-05 -6.78795e-06 -0.000125149  -3.26492e-05 -4.25304e-06 -0.000125149  -7.49532e-06 -3.86668e-06 -0.000125149  -5.88092e-06 -5.84441e-06 -0.000125149  5.70251e-06 -5.06811e-06 -0.000125149  5.30167e-05 -5.56624e-06 -0.000125149  5.13439e-05 -2.47329e-06 -0.000125149  7.06268e-05 -8.53567e-06 -0.000125149  -7.76914e-05 1.15327e-05 -0.000125149  -5.22311e-05 5.21018e-06 -0.000125149  -3.0887e-05 5.20481e-06 -0.000125149  -8.77312e-06 8.41393e-06 -0.000125149  -5.11328e-06 5.66693e-06 -0.000125149  8.15614e-06 8.14372e-06 -0.000125149  5.47186e-05 2.20115e-06 -0.000125149  5.1868e-05 4.89361e-06 -0.000125149  7.39528e-05 -4.45395e-06 -0.000125149  -7.10919e-05 4.30522e-05 -0.000125149  -5.27316e-05 4.72754e-05 -0.000125149  -3.06583e-05 5.48469e-05 -0.000125149  -6.59307e-06 5.36957e-05 -0.000125149  -5.60406e-06 5.30901e-05 -0.000125149  2.21241e-06 5.48074e-05 -0.000125149  4.67452e-05 4.68359e-05 -0.000125149  4.96047e-05 3.08774e-05 -0.000125149  7.51116e-05 2.1357e-05 -0.000125149  -3.88523e-05 1.63903e-05 -0.000125149  -3.41776e-05 3.29613e-05 -0.000125149  -2.46557e-05 5.07526e-05 -0.000125149  -6.01958e-06 5.11425e-05 -0.000125149  -2.54681e-06 5.1288e-05 -0.000125149  4.87345e-06 5.18445e-05 -0.000125149  3.07833e-05 4.96222e-05 -0.000125149  3.48865e-05 3.48868e-05 -0.000125149  5.96462e-05 1.86127e-05 -0.000125149  -3.14381e-05 9.89672e-06 -0.000125149  -2.7414e-05 3.42511e-05 -0.000125149  -2.72014e-05 6.72577e-05 -0.000125149  -6.50241e-06 7.47433e-05 -0.000125149  -8.61912e-06 7.04099e-05 -0.000125149  -4.47305e-06 7.37856e-05 -0.000125149  2.12018e-05 7.49963e-05 -0.000125149  1.85739e-05 5.95397e-05 -0.000125149  3.40961e-05 3.398e-05 -0.000125149  
            </DataArray>
         </PointData> 
      </Piece>
   </UnstructuredGrid> 
</VTKFile>
