<?xml version="1.0"?>
<VTKFile type="UnstructuredGrid" version="0.1" byte_order="LittleEndian">
   <UnstructuredGrid>
      <Piece NumberOfPoints="81" NumberOfCells="0" > 
         <Points> 
            <DataArray type="Float64" Name="Position" NumberOfComponents="3" format="ascii"> 
               0  0  15  
               0.375  0  15  
               0.75  0  15  
               1.125  0  15  
               1.5  0  15  
               1.875  0  15  
               2.25  0  15  
               2.625  0  15  
               3  0  15  
               0  0.375  15  
               0.375  0.375  15  
               0.75  0.375  15  
               1.125  0.375  15  
               1.5  0.375  15  
               1.875  0.375  15  
               2.25  0.375  15  
               2.625  0.375  15  
               3  0.375  15  
               0  0.75  15  
               0.375  0.75  15  
               0.75  0.75  15  
               1.125  0.75  15  
               1.5  0.75  15  
               1.875  0.75  15  
               2.25  0.75  15  
               2.625  0.75  15  
               3  0.75  15  
               0  1.125  15  
               0.375  1.125  15  
               0.75  1.125  15  
               1.125  1.125  15  
               1.5  1.125  15  
               1.875  1.125  15  
               2.25  1.125  15  
               2.625  1.125  15  
               3  1.125  15  
               0  1.5  15  
               0.375  1.5  15  
               0.75  1.5  15  
               1.125  1.5  15  
               1.5  1.5  15  
               1.875  1.5  15  
               2.25  1.5  15  
               2.625  1.5  15  
               3  1.5  15  
               0  1.875  15  
               0.375  1.875  15  
               0.75  1.875  15  
               1.125  1.875  15  
               1.5  1.875  15  
               1.875  1.875  15  
               2.25  1.875  15  
               2.625  1.875  15  
               3  1.875  15  
               0  2.25  15  
               0.375  2.25  15  
               0.75  2.25  15  
               1.125  2.25  15  
               1.5  2.25  15  
               1.875  2.25  15  
               2.25  2.25  15  
               2.625  2.25  15  
               3  2.25  15  
               0  2.625  15  
               0.375  2.625  15  
               0.75  2.625  15  
               1.125  2.625  15  
               1.5  2.625  15  
               1.875  2.625  15  
               2.25  2.625  15  
               2.625  2.625  15  
               3  2.625  15  
               0  3  15  
               0.375  3  15  
               0.75  3  15  
               1.125  3  15  
               1.5  3  15  
               1.875  3  15  
               2.25  3  15  
               2.625  3  15  
               3  3  15  
            </DataArray>
         </Points> 

         <Cells>
            <DataArray type="Int32" Name="connectivity" NumberOfComponents="1" format="ascii">
               
            </DataArray> 
            <DataArray type="Int32" Name="offsets" NumberOfComponents="1" format="ascii">
               
            </DataArray>
            <DataArray type="UInt8"  Name="types" NumberOfComponents="1" format="ascii">
               
            </DataArray>
         </Cells>
         <PointData Scalars="Rank " Vectors="Displacement Velocity Traction ">
            <DataArray type="UInt32" Name="Rank" NumberOfComponents="1" format="ascii">
               0 0 0 0 0 0 0 0 0 0 0 0 0 0 0 0 0 0 0 0 0 0 0 0 0 0 0 0 0 0 0 0 0 0 0 0 0 0 0 0 0 0 0 0 0 0 0 0 0 0 0 0 0 0 0 0 0 0 0 0 0 0 0 0 0 0 0 0 0 0 0 0 0 0 0 0 0 0 0 0 0 
            </DataArray>
            <DataArray type="Float64" Name="Displacement" NumberOfComponents="3" format="ascii">
               7.63609e-06 9.13452e-06 -3.43425e-06  7.47717e-06 3.007e-06 -3.44916e-06  6.484e-06 1.80024e-06 -3.17811e-06  5.49196e-06 8.76277e-08 -3.07348e-06  5.38301e-06 4.52072e-07 -3.07238e-06  5.94215e-06 -1.45514e-06 -2.99927e-06  6.98589e-06 -4.11416e-07 -3.12753e-06  7.82324e-06 -3.80052e-06 -3.4155e-06  8.08978e-06 -5.44864e-06 -3.24857e-06  2.74116e-06 8.55361e-06 -3.45163e-06  3.33331e-06 2.76811e-06 -3.24738e-06  3.57685e-06 1.71446e-06 -2.86349e-06  3.79268e-06 -2.84368e-07 -2.77243e-06  4.38724e-06 -3.26653e-07 -2.77814e-06  5.05655e-06 -2.30059e-06 -2.72062e-06  5.4278e-06 -1.18792e-06 -2.86487e-06  5.47922e-06 -4.04205e-06 -3.338e-06  5.23432e-06 -5.17377e-06 -3.3562e-06  4.45011e-06 6.60478e-06 -3.18185e-06  5.35077e-06 1.75658e-06 -2.8629e-06  5.17918e-06 5.09776e-07 -2.23558e-06  4.72628e-06 -1.37224e-06 -2.07459e-06  4.29454e-06 -1.81937e-06 -2.09207e-06  3.53014e-06 -3.13259e-06 -2.05596e-06  2.29719e-06 -2.04347e-06 -2.22932e-06  1.17242e-06 -3.95557e-06 -2.87398e-06  3.69643e-07 -4.45436e-06 -3.09953e-06  5.41489e-06 3.77816e-06 -3.07858e-06  6.39115e-06 4.02173e-07 -2.77169e-06  6.02027e-06 -6.18239e-07 -2.07532e-06  5.12013e-06 -2.39528e-06 -1.85815e-06  4.37363e-06 -3.23012e-06 -1.87674e-06  3.33248e-06 -3.75499e-06 -1.85393e-06  2.26508e-06 -2.95041e-06 -2.06167e-06  1.15779e-06 -3.56377e-06 -2.73441e-06  3.23094e-07 -3.65776e-06 -2.99596e-06  4.95502e-06 1.25979e-06 -3.07724e-06  5.84951e-06 -1.31739e-06 -2.77761e-06  5.82238e-06 -1.81645e-06 -2.09262e-06  5.20975e-06 -3.61864e-06 -1.87667e-06  4.10954e-06 -4.30137e-06 -1.91056e-06  2.45027e-06 -4.29894e-06 -1.8749e-06  5.25076e-07 -3.44419e-06 -2.0913e-06  -1.19693e-06 -2.9407e-06 -2.76988e-06  -1.88598e-06 -3.39076e-06 -3.04274e-06  6.77179e-06 -1.09866e-06 -3.0061e-06  7.50091e-06 -2.96926e-06 -2.7195e-06  6.7901e-06 -2.73254e-06 -2.05674e-06  5.40729e-06 -4.64325e-06 -1.85348e-06  3.72387e-06 -4.8421e-06 -1.8749e-06  1.83896e-06 -4.57351e-06 -1.85291e-06  3.11472e-07 -3.69041e-06 -2.072e-06  -9.8246e-07 -2.43738e-06 -2.76433e-06  -1.35359e-06 -3.73074e-06 -3.03983e-06  4.21501e-06 -3.2927e-06 -3.13402e-06  4.89279e-06 -4.44078e-06 -2.86537e-06  4.57889e-06 -3.20691e-06 -2.23044e-06  3.76388e-06 -5.51903e-06 -2.06224e-06  2.44263e-06 -5.09274e-06 -2.09178e-06  8.74041e-07 -5.13388e-06 -2.07253e-06  -4.99588e-07 -4.1185e-06 -2.23302e-06  -1.70021e-06 -2.35608e-06 -2.86987e-06  -1.82758e-06 -4.64824e-06 -3.16712e-06  7.24147e-06 -4.69522e-06 -3.42304e-06  7.25427e-06 -5.35517e-06 -3.33506e-06  6.23276e-06 -3.37324e-06 -2.87462e-06  4.60161e-06 -5.95665e-06 -2.73349e-06  2.68489e-06 -4.98257e-06 -2.76955e-06  7.19141e-07 -5.3203e-06 -2.76373e-06  -8.07491e-07 -4.30497e-06 -2.86938e-06  -1.80641e-06 -2.30734e-06 -3.25706e-06  -2.03098e-06 -5.38968e-06 -3.44194e-06  7.90009e-06 -5.13155e-06 -3.271e-06  7.29954e-06 -5.19505e-06 -3.36394e-06  5.62883e-06 -2.57312e-06 -3.10561e-06  3.23521e-06 -5.0789e-06 -3.00163e-06  6.94608e-07 -3.97477e-06 -3.04654e-06  -1.87375e-06 -4.30376e-06 -3.04365e-06  -4.42936e-06 -3.51487e-06 -3.17026e-06  -5.96358e-06 -1.91822e-06 -3.44436e-06  -6.32075e-06 -5.49194e-06 -3.41187e-06  
            </DataArray>
            <DataArray type="Float64" Name="Velocity" NumberOfComponents="3" format="ascii">
               9.25866e-06 4.65646e-06 -6.17697e-06  9.24489e-06 -2.56951e-06 -6.25875e-06  8.48863e-06 -1.03584e-06 -5.76206e-06  7.43463e-06 -1.42649e-06 -5.59448e-06  7.37469e-06 -6.49344e-07 -5.63866e-06  8.08043e-06 -2.77378e-06 -5.45278e-06  9.41833e-06 -4.3979e-06 -5.67488e-06  1.07243e-05 -8.60742e-06 -6.16902e-06  1.12045e-05 -1.02049e-05 -5.78752e-06  3.98288e-06 4.26983e-06 -6.26928e-06  4.58867e-06 -2.93919e-06 -5.96508e-06  5.20192e-06 -1.54206e-06 -5.27779e-06  5.96538e-06 -2.15491e-06 -5.13035e-06  7.10691e-06 -1.94783e-06 -5.18424e-06  8.36367e-06 -4.13196e-06 -5.04344e-06  9.18716e-06 -5.63489e-06 -5.2858e-06  9.48812e-06 -9.10532e-06 -6.11862e-06  9.26729e-06 -9.90043e-06 -6.07565e-06  7.77503e-06 2.21512e-06 -5.77181e-06  8.79366e-06 -4.16495e-06 -5.27709e-06  8.65029e-06 -3.63373e-06 -4.21867e-06  8.3829e-06 -4.20675e-06 -3.9484e-06  8.26563e-06 -4.50786e-06 -3.99963e-06  7.8765e-06 -5.94284e-06 -3.9173e-06  6.90023e-06 -7.04128e-06 -4.20132e-06  5.76759e-06 -9.18335e-06 -5.31314e-06  4.87499e-06 -9.10251e-06 -5.63133e-06  8.47619e-06 -1.21324e-06 -5.60399e-06  9.81834e-06 -6.09435e-06 -5.12986e-06  9.63669e-06 -5.82295e-06 -3.94835e-06  8.82653e-06 -6.38748e-06 -3.57904e-06  8.07664e-06 -7.02075e-06 -3.63548e-06  6.93014e-06 -7.44337e-06 -3.5732e-06  5.58979e-06 -8.32994e-06 -3.92016e-06  4.14154e-06 -8.91419e-06 -5.06368e-06  3.24572e-06 -8.43564e-06 -5.4528e-06  1.01459e-05 -4.4909e-06 -5.64976e-06  1.14403e-05 -8.75089e-06 -5.1839e-06  1.13699e-05 -8.16424e-06 -3.99994e-06  1.03452e-05 -8.64594e-06 -3.63564e-06  8.67188e-06 -8.96521e-06 -3.73463e-06  6.31384e-06 -8.55259e-06 -3.63046e-06  3.60993e-06 -8.9766e-06 -4.00262e-06  1.23381e-06 -8.4504e-06 -5.15678e-06  4.32496e-07 -8.50632e-06 -5.58559e-06  1.26897e-05 -7.81072e-06 -5.46708e-06  1.39563e-05 -1.15874e-05 -5.04208e-06  1.31498e-05 -1.01184e-05 -3.91779e-06  1.10031e-05 -1.03863e-05 -3.57246e-06  8.31402e-06 -1.00008e-05 -3.63074e-06  5.2738e-06 -9.0679e-06 -3.5614e-06  2.66624e-06 -9.25961e-06 -3.93846e-06  6.54989e-07 -8.1097e-06 -5.10652e-06  1.9433e-07 -9.26508e-06 -5.53467e-06  1.26967e-05 -1.10881e-05 -5.69296e-06  1.38129e-05 -1.43205e-05 -5.28681e-06  1.29682e-05 -1.13106e-05 -4.20334e-06  1.07597e-05 -1.15415e-05 -3.92077e-06  7.76423e-06 -1.03203e-05 -4.00347e-06  4.48673e-06 -9.44554e-06 -3.93878e-06  1.60617e-06 -9.61995e-06 -4.20375e-06  -5.37041e-07 -8.12678e-06 -5.28732e-06  -7.80737e-07 -1.06971e-05 -5.74293e-06  1.80832e-05 -1.35747e-05 -6.18847e-06  1.80732e-05 -1.58947e-05 -6.11342e-06  1.57809e-05 -1.13553e-05 -5.31373e-06  1.20155e-05 -1.13728e-05 -5.06189e-06  7.85247e-06 -9.60223e-06 -5.15572e-06  3.89001e-06 -9.00768e-06 -5.10541e-06  7.83838e-07 -9.44249e-06 -5.28617e-06  -1.1816e-06 -8.04714e-06 -5.98022e-06  -1.59781e-06 -1.17796e-05 -6.25092e-06  1.64958e-05 -1.44885e-05 -5.83614e-06  1.53584e-05 -1.5464e-05 -6.09595e-06  1.21972e-05 -9.61337e-06 -5.6503e-06  8.01724e-06 -9.31501e-06 -5.4687e-06  3.67595e-06 -7.50517e-06 -5.59852e-06  -5.00039e-07 -7.11197e-06 -5.54676e-06  -4.46752e-06 -7.95227e-06 -5.75391e-06  -6.96566e-06 -7.41895e-06 -6.26199e-06  -7.54303e-06 -1.19752e-05 -6.16612e-06  
            </DataArray>
            <DataArray type="Float64" Name="Traction" NumberOfComponents="3" format="ascii">
               0 0 0  0 0 0  0 0 0  0 0 0  0 0 0  0 0 0  0 0 0  0 0 0  0 0 0  0 0 0  0 0 0  0 0 0  0 0 0  0 0 0  0 0 0  0 0 0  0 0 0  0 0 0  0 0 0  0 0 0  0 0 0  0 0 0  0 0 0  0 0 0  0 0 0  0 0 0  0 0 0  0 0 0  0 0 0  0 0 0  0 0 0  0 0 0  0 0 0  0 0 0  0 0 0  0 0 0  0 0 0  0 0 0  0 0 0  0 0 0  0 0 0  0 0 0  0 0 0  0 0 0  0 0 0  0 0 0  0 0 0  0 0 0  0 0 0  0 0 0  0 0 0  0 0 0  0 0 0  0 0 0  0 0 0  0 0 0  0 0 0  0 0 0  0 0 0  0 0 0  0 0 0  0 0 0  0 0 0  0 0 0  0 0 0  0 0 0  0 0 0  0 0 0  0 0 0  0 0 0  0 0 0  0 0 0  0 0 0  0 0 0  0 0 0  0 0 0  0 0 0  0 0 0  0 0 0  0 0 0  0 0 0  
            </DataArray>
         </PointData> 
      </Piece>
   </UnstructuredGrid> 
</VTKFile>
