<?xml version="1.0"?>
<VTKFile type="UnstructuredGrid" version="0.1" byte_order="LittleEndian">
   <UnstructuredGrid>
      <Piece NumberOfPoints="81" NumberOfCells="0" > 
         <Points> 
            <DataArray type="Float64" Name="Position" NumberOfComponents="3" format="ascii"> 
               0  0  15  
               0.375  0  15  
               0.75  0  15  
               1.125  0  15  
               1.5  0  15  
               1.875  0  15  
               2.25  0  15  
               2.625  0  15  
               3  0  15  
               0  0.375  15  
               0.375  0.375  15  
               0.75  0.375  15  
               1.125  0.375  15  
               1.5  0.375  15  
               1.875  0.375  15  
               2.25  0.375  15  
               2.625  0.375  15  
               3  0.375  15  
               0  0.75  15  
               0.375  0.75  15  
               0.75  0.75  15  
               1.125  0.75  15  
               1.5  0.75  15  
               1.875  0.75  15  
               2.25  0.75  15  
               2.625  0.75  15  
               3  0.75  15  
               0  1.125  15  
               0.375  1.125  15  
               0.75  1.125  15  
               1.125  1.125  15  
               1.5  1.125  15  
               1.875  1.125  15  
               2.25  1.125  15  
               2.625  1.125  15  
               3  1.125  15  
               0  1.5  15  
               0.375  1.5  15  
               0.75  1.5  15  
               1.125  1.5  15  
               1.5  1.5  15  
               1.875  1.5  15  
               2.25  1.5  15  
               2.625  1.5  15  
               3  1.5  15  
               0  1.875  15  
               0.375  1.875  15  
               0.75  1.875  15  
               1.125  1.875  15  
               1.5  1.875  15  
               1.875  1.875  15  
               2.25  1.875  15  
               2.625  1.875  15  
               3  1.875  15  
               0  2.25  15  
               0.375  2.25  15  
               0.75  2.25  15  
               1.125  2.25  15  
               1.5  2.25  15  
               1.875  2.25  15  
               2.25  2.25  15  
               2.625  2.25  15  
               3  2.25  15  
               0  2.625  15  
               0.375  2.625  15  
               0.75  2.625  15  
               1.125  2.625  15  
               1.5  2.625  15  
               1.875  2.625  15  
               2.25  2.625  15  
               2.625  2.625  15  
               3  2.625  15  
               0  3  15  
               0.375  3  15  
               0.75  3  15  
               1.125  3  15  
               1.5  3  15  
               1.875  3  15  
               2.25  3  15  
               2.625  3  15  
               3  3  15  
            </DataArray>
         </Points> 

         <Cells>
            <DataArray type="Int32" Name="connectivity" NumberOfComponents="1" format="ascii">
               
            </DataArray> 
            <DataArray type="Int32" Name="offsets" NumberOfComponents="1" format="ascii">
               
            </DataArray>
            <DataArray type="UInt8"  Name="types" NumberOfComponents="1" format="ascii">
               
            </DataArray>
         </Cells>
         <PointData Scalars="Rank " Vectors="Displacement Velocity Traction ">
            <DataArray type="UInt32" Name="Rank" NumberOfComponents="1" format="ascii">
               0 0 0 0 0 0 0 0 0 0 0 0 0 0 0 0 0 0 0 0 0 0 0 0 0 0 0 0 0 0 0 0 0 0 0 0 0 0 0 0 0 0 0 0 0 0 0 0 0 0 0 0 0 0 0 0 0 0 0 0 0 0 0 0 0 0 0 0 0 0 0 0 0 0 0 0 0 0 0 0 0 
            </DataArray>
            <DataArray type="Float64" Name="Displacement" NumberOfComponents="3" format="ascii">
               1.28375e-06 2.00019e-06 -3.63726e-07  1.16532e-06 1.35031e-06 -3.47927e-07  8.30379e-07 6.15228e-07 -3.11501e-07  5.70658e-07 1.77013e-07 -3.03422e-07  3.91874e-07 5.7687e-07 -3.07599e-07  2.57423e-07 1.98912e-07 -3.01503e-07  1.86879e-07 1.21252e-06 -3.07279e-07  6.87389e-08 9.46068e-07 -3.38808e-07  4.8069e-09 2.41113e-07 -3.58366e-07  3.47155e-07 1.85407e-06 -3.47263e-07  4.21756e-07 1.3661e-06 -2.92652e-07  2.82132e-07 7.61621e-07 -2.35422e-07  4.46804e-08 2.47517e-07 -2.2487e-07  -1.59315e-07 6.40236e-07 -2.29536e-07  -4.0351e-07 2.89837e-07 -2.23651e-07  -6.74037e-07 1.25837e-06 -2.34022e-07  -8.32114e-07 9.50784e-07 -2.96155e-07  -8.39877e-07 2.01495e-07 -3.37402e-07  -3.36035e-07 1.52073e-06 -3.11005e-07  -1.74703e-07 1.15945e-06 -2.35628e-07  -1.7366e-07 7.19053e-07 -1.46843e-07  -3.43526e-07 2.71932e-07 -1.30009e-07  -5.68488e-07 5.59965e-07 -1.34993e-07  -8.82077e-07 3.73661e-07 -1.29824e-07  -1.2665e-06 1.15421e-06 -1.4438e-07  -1.4504e-06 8.07893e-07 -2.35063e-07  -1.44459e-06 1.08547e-07 -3.06123e-07  -1.7677e-07 1.17323e-06 -3.03184e-07  -5.21731e-08 8.97297e-07 -2.24916e-07  -6.69692e-08 5.82252e-07 -1.29964e-07  -1.91076e-07 2.45902e-07 -1.10029e-07  -3.19501e-07 3.84788e-07 -1.14168e-07  -4.86095e-07 3.10934e-07 -1.09977e-07  -5.98333e-07 8.3615e-07 -1.29397e-07  -6.06794e-07 5.93501e-07 -2.23817e-07  -5.87377e-07 5.72885e-08 -3.0153e-07  -3.5336e-07 8.52884e-07 -3.07025e-07  -2.17216e-07 6.45902e-07 -2.29611e-07  -1.86151e-07 4.50766e-07 -1.34876e-07  -2.20111e-07 1.10676e-07 -1.14185e-07  -3.19657e-07 2.10621e-07 -1.18655e-07  -5.10467e-07 1.78544e-07 -1.13892e-07  -7.18245e-07 5.23955e-07 -1.35051e-07  -8.1882e-07 4.31711e-07 -2.28638e-07  -7.73611e-07 -5.46313e-08 -3.06358e-07  -3.91857e-08 5.22963e-07 -3.01414e-07  5.05433e-08 4.62559e-07 -2.23725e-07  -2.04003e-08 3.87425e-07 -1.29832e-07  -1.23704e-07 -3.34499e-08 -1.09984e-07  -2.5201e-07 7.76019e-08 -1.13898e-07  -3.99844e-07 6.6928e-08 -1.09354e-07  -4.90433e-07 2.98817e-07 -1.2976e-07  -5.56891e-07 3.11378e-07 -2.24444e-07  -5.06113e-07 -2.68328e-07 -3.02118e-07  -6.02562e-07 2.46398e-07 -3.06272e-07  -5.47805e-07 3.76832e-07 -2.34099e-07  -5.36534e-07 3.61041e-07 -1.44062e-07  -4.80964e-07 -2.03806e-07 -1.29427e-07  -4.7949e-07 -4.13824e-08 -1.3496e-07  -5.26274e-07 -1.36013e-07 -1.29724e-07  -5.64419e-07 8.41333e-08 -1.46073e-07  -6.05547e-07 1.54965e-07 -2.3602e-07  -5.08193e-07 -5.63561e-07 -3.11008e-07  -5.00435e-07 1.31046e-07 -3.38071e-07  -4.88111e-07 3.09519e-07 -2.96357e-07  -4.48192e-07 2.66187e-07 -2.35075e-07  -3.87101e-07 -4.12684e-07 -2.23868e-07  -4.01202e-07 -1.55678e-07 -2.28665e-07  -4.8827e-07 -3.00648e-07 -2.24455e-07  -5.83835e-07 -6.46744e-08 -2.36133e-07  -6.44668e-07 3.25916e-08 -2.93534e-07  -6.05954e-07 -8.2312e-07 -3.47411e-07  -7.52361e-08 1.1496e-07 -3.58457e-07  -8.56227e-08 2.71299e-07 -3.36895e-07  -1.34377e-07 2.28203e-07 -3.05169e-07  -3.03833e-07 -4.39858e-07 -3.01495e-07  -5.41202e-07 -1.28125e-07 -3.05945e-07  -8.24084e-07 -2.37061e-07 -3.01922e-07  -1.1768e-06 8.15832e-09 -3.10753e-07  -1.43188e-06 5.86696e-08 -3.4694e-07  -1.50655e-06 -8.94929e-07 -3.62549e-07  
            </DataArray>
            <DataArray type="Float64" Name="Velocity" NumberOfComponents="3" format="ascii">
               3.03588e-06 4.74394e-06 -7.59329e-07  2.90214e-06 2.69514e-06 -7.45584e-07  2.40462e-06 1.4692e-06 -6.66831e-07  1.96223e-06 4.26402e-07 -6.37879e-07  1.74054e-06 6.35252e-07 -6.40059e-07  1.67431e-06 1.46639e-07 -6.30262e-07  1.75905e-06 1.1453e-06 -6.48058e-07  1.78154e-06 4.71764e-08 -7.21426e-07  1.75905e-06 -8.64116e-07 -7.38578e-07  1.27094e-06 4.46278e-06 -7.44262e-07  1.4426e-06 2.66515e-06 -6.58116e-07  1.30139e-06 1.5681e-06 -5.58862e-07  1.0954e-06 4.1363e-07 -5.28165e-07  1.00545e-06 5.91782e-07 -5.3089e-07  9.13868e-07 6.84588e-08 -5.22928e-07  7.86057e-07 1.05593e-06 -5.55059e-07  6.41318e-07 7.45186e-08 -6.74604e-07  5.17844e-07 -7.7774e-07 -7.13612e-07  9.12326e-07 3.7031e-06 -6.66374e-07  1.2119e-06 2.31277e-06 -5.59153e-07  1.06005e-06 1.32817e-06 -4.01969e-07  7.1361e-07 2.44232e-07 -3.53435e-07  3.18743e-07 3.47463e-07 -3.55624e-07  -1.55058e-07 -1.4014e-08 -3.52026e-07  -7.1173e-07 8.67779e-07 -3.94465e-07  -1.16706e-06 1.54603e-07 -5.57373e-07  -1.43627e-06 -5.90062e-07 -6.43875e-07  1.09479e-06 2.74962e-06 -6.37813e-07  1.3364e-06 1.91016e-06 -5.28213e-07  1.08532e-06 1.11069e-06 -3.53436e-07  6.55506e-07 1.10633e-07 -2.97304e-07  2.72102e-07 7.28801e-08 -2.98748e-07  -1.53436e-07 -1.39981e-07 -2.97569e-07  -5.04205e-07 5.62639e-07 -3.51283e-07  -8.31952e-07 3.01341e-07 -5.24262e-07  -1.11134e-06 -3.31198e-07 -6.29253e-07  5.92617e-07 1.95315e-06 -6.39661e-07  7.74131e-07 1.52906e-06 -5.30967e-07  6.30331e-07 9.29768e-07 -3.55491e-07  3.77508e-07 -1.30912e-07 -2.9871e-07  3.65734e-08 -1.7453e-07 -3.01403e-07  -4.33005e-07 -3.06566e-07 -2.9823e-07  -9.22969e-07 3.08401e-07 -3.55248e-07  -1.32862e-06 5.13991e-07 -5.29577e-07  -1.55221e-06 -1.192e-07 -6.34491e-07  9.56701e-07 1.30886e-06 -6.30591e-07  1.05465e-06 1.25244e-06 -5.22991e-07  7.61737e-07 8.82263e-07 -3.52087e-07  3.70174e-07 -3.38718e-07 -2.97535e-07  -1.4356e-08 -3.58264e-07 -2.98261e-07  -3.74975e-07 -4.33422e-07 -2.95893e-07  -6.03679e-07 1.19055e-07 -3.53219e-07  -8.43588e-07 7.05962e-07 -5.27178e-07  -9.82943e-07 -1.88919e-08 -6.31958e-07  -8.43701e-07 8.64569e-07 -6.46813e-07  -7.33899e-07 1.03088e-06 -5.55264e-07  -6.78905e-07 8.82609e-07 -3.93983e-07  -6.16106e-07 -5.81331e-07 -3.51321e-07  -6.54784e-07 -5.24887e-07 -3.5514e-07  -7.49983e-07 -7.11492e-07 -3.53169e-07  -8.06802e-07 -1.00964e-07 -4.00383e-07  -9.42012e-07 7.87914e-07 -5.60472e-07  -9.82074e-07 -9.20634e-08 -6.64076e-07  -4.80299e-07 7.26309e-07 -7.20994e-07  -4.53069e-07 8.39881e-07 -6.74735e-07  -4.05689e-07 7.40408e-07 -5.57485e-07  -3.34949e-07 -9.27295e-07 -5.24328e-07  -2.92074e-07 -7.40278e-07 -5.29645e-07  -3.18459e-07 -9.6758e-07 -5.2719e-07  -3.27565e-07 -2.93663e-07 -5.60744e-07  -3.36466e-07 8.08928e-07 -6.61178e-07  -3.47476e-07 -1.79189e-07 -7.43855e-07  1.25937e-07 7.16311e-07 -7.40091e-07  1.0899e-07 7.71847e-07 -7.13476e-07  5.428e-08 6.86294e-07 -6.42687e-07  -1.3703e-07 -1.02162e-06 -6.29344e-07  -3.52322e-07 -8.05488e-07 -6.33994e-07  -6.48104e-07 -9.15449e-07 -6.31761e-07  -1.08452e-06 -2.34172e-07 -6.63652e-07  -1.31982e-06 8.59153e-07 -7.42784e-07  -1.35029e-06 -1.63754e-07 -7.54796e-07  
            </DataArray>
            <DataArray type="Float64" Name="Traction" NumberOfComponents="3" format="ascii">
               6.34215e-05 7.95689e-05 -7.47216e-05  7.39726e-06 6.29821e-05 -7.47216e-05  -1.16803e-05 3.72022e-05 -7.47216e-05  -7.46442e-06 3.10441e-05 -7.47216e-05  3.12906e-06 3.90994e-05 -7.47216e-05  5.59393e-06 6.73265e-05 -7.47216e-05  1.76248e-06 7.14164e-05 -7.47216e-05  -3.42442e-06 0.000120402 -7.47216e-05  -0.000179911 0.000181948 -7.47216e-05  5.93048e-05 2.8987e-05 -7.47216e-05  2.63424e-05 3.42799e-05 -7.47216e-05  1.09603e-05 2.19959e-05 -7.47216e-05  4.1046e-06 5.06936e-06 -7.47216e-05  4.56742e-06 -7.69835e-06 -7.47216e-05  9.49005e-06 8.14559e-06 -7.47216e-05  5.22738e-06 1.18035e-05 -7.47216e-05  -9.41395e-06 1.86022e-05 -7.47216e-05  -0.000126155 1.43513e-05 -7.47216e-05  4.49581e-05 1.10206e-05 -7.47216e-05  2.69778e-05 1.80946e-05 -7.47216e-05  1.7608e-05 1.15404e-05 -7.47216e-05  1.09216e-05 6.45556e-06 -7.47216e-05  1.28949e-05 -1.51413e-06 -7.47216e-05  1.85871e-05 9.9051e-07 -7.47216e-05  9.2139e-06 -5.33287e-06 -7.47216e-05  -5.24212e-06 1.66041e-06 -7.47216e-05  -9.1398e-05 9.66517e-06 -7.47216e-05  2.20655e-05 8.18647e-06 -7.47216e-05  1.90016e-05 7.95868e-06 -7.47216e-05  1.49723e-05 3.92607e-06 -7.47216e-05  1.11989e-05 7.53223e-06 -7.47216e-05  7.03117e-06 5.7126e-06 -7.47216e-05  5.04004e-06 -2.61875e-06 -7.47216e-05  -4.29404e-06 -1.74692e-05 -7.47216e-05  -1.69599e-05 -8.21555e-06 -7.47216e-05  -6.85513e-05 -5.41289e-06 -7.47216e-05  1.82693e-05 7.97551e-06 -7.47216e-05  2.19811e-05 2.51712e-06 -7.47216e-05  1.82842e-05 9.77838e-08 -7.47216e-05  1.47677e-05 5.83628e-06 -7.47216e-05  3.73428e-06 5.79334e-06 -7.47216e-05  -4.9703e-06 3.49684e-06 -7.47216e-05  -8.90564e-06 -3.22985e-06 -7.47216e-05  -1.64687e-05 1.9865e-06 -7.47216e-05  -2.49482e-05 9.47737e-06 -7.47216e-05  3.53666e-07 -8.71982e-06 -7.47216e-05  2.17271e-05 -7.1027e-06 -7.47216e-05  1.84563e-05 -1.14656e-05 -7.47216e-05  1.55823e-05 -6.59404e-06 -7.47216e-05  4.81651e-06 -6.25534e-06 -7.47216e-05  -3.58946e-06 -5.96175e-07 -7.47216e-05  -1.18747e-05 3.27375e-06 -7.47216e-05  -2.21064e-05 6.45953e-06 -7.47216e-05  -4.24117e-05 1.84006e-05 -7.47216e-05  -2.19461e-05 -1.21943e-05 -7.47216e-05  1.90683e-05 -7.23319e-06 -7.47216e-05  1.96088e-05 -1.43281e-05 -7.47216e-05  1.87433e-05 -1.52763e-05 -7.47216e-05  9.71956e-06 -1.87006e-05 -7.47216e-05  3.37851e-06 -1.32121e-05 -7.47216e-05  -6.11889e-06 -7.65042e-06 -7.47216e-05  -1.75445e-05 -1.36929e-06 -7.47216e-05  -4.9593e-05 5.26664e-06 -7.47216e-05  -4.09203e-05 -1.4539e-06 -7.47216e-05  9.57924e-07 -8.59043e-07 -7.47216e-05  9.44394e-06 -1.65512e-05 -7.47216e-05  1.07872e-05 -2.49603e-05 -7.47216e-05  4.26725e-06 -3.33636e-05 -7.47216e-05  2.89236e-07 -2.89421e-05 -7.47216e-05  -4.75674e-06 -2.10747e-05 -7.47216e-05  -1.17829e-05 -1.0034e-05 -7.47216e-05  -5.41873e-05 5.41625e-06 -7.47216e-05  -6.25161e-05 5.354e-05 -7.47216e-05  -2.37978e-06 2.95747e-05 -7.47216e-05  1.30959e-05 1.39491e-06 -7.47216e-05  1.33317e-05 -2.20893e-05 -7.47216e-05  3.80514e-06 -4.51927e-05 -7.47216e-05  -3.25454e-06 -5.09444e-05 -7.47216e-05  -7.89608e-06 -4.69079e-05 -7.47216e-05  -3.41903e-06 -5.00283e-05 -7.47216e-05  -6.18996e-05 -5.32236e-05 -7.47216e-05  
            </DataArray>
         </PointData> 
      </Piece>
   </UnstructuredGrid> 
</VTKFile>
