<?xml version="1.0"?>
<VTKFile type="UnstructuredGrid" version="0.1" byte_order="LittleEndian">
   <UnstructuredGrid>
      <Piece NumberOfPoints="81" NumberOfCells="0" > 
         <Points> 
            <DataArray type="Float64" Name="Position" NumberOfComponents="3" format="ascii"> 
               0  0  15  
               0.375  0  15  
               0.75  0  15  
               1.125  0  15  
               1.5  0  15  
               1.875  0  15  
               2.25  0  15  
               2.625  0  15  
               3  0  15  
               0  0.375  15  
               0.375  0.375  15  
               0.75  0.375  15  
               1.125  0.375  15  
               1.5  0.375  15  
               1.875  0.375  15  
               2.25  0.375  15  
               2.625  0.375  15  
               3  0.375  15  
               0  0.75  15  
               0.375  0.75  15  
               0.75  0.75  15  
               1.125  0.75  15  
               1.5  0.75  15  
               1.875  0.75  15  
               2.25  0.75  15  
               2.625  0.75  15  
               3  0.75  15  
               0  1.125  15  
               0.375  1.125  15  
               0.75  1.125  15  
               1.125  1.125  15  
               1.5  1.125  15  
               1.875  1.125  15  
               2.25  1.125  15  
               2.625  1.125  15  
               3  1.125  15  
               0  1.5  15  
               0.375  1.5  15  
               0.75  1.5  15  
               1.125  1.5  15  
               1.5  1.5  15  
               1.875  1.5  15  
               2.25  1.5  15  
               2.625  1.5  15  
               3  1.5  15  
               0  1.875  15  
               0.375  1.875  15  
               0.75  1.875  15  
               1.125  1.875  15  
               1.5  1.875  15  
               1.875  1.875  15  
               2.25  1.875  15  
               2.625  1.875  15  
               3  1.875  15  
               0  2.25  15  
               0.375  2.25  15  
               0.75  2.25  15  
               1.125  2.25  15  
               1.5  2.25  15  
               1.875  2.25  15  
               2.25  2.25  15  
               2.625  2.25  15  
               3  2.25  15  
               0  2.625  15  
               0.375  2.625  15  
               0.75  2.625  15  
               1.125  2.625  15  
               1.5  2.625  15  
               1.875  2.625  15  
               2.25  2.625  15  
               2.625  2.625  15  
               3  2.625  15  
               0  3  15  
               0.375  3  15  
               0.75  3  15  
               1.125  3  15  
               1.5  3  15  
               1.875  3  15  
               2.25  3  15  
               2.625  3  15  
               3  3  15  
            </DataArray>
         </Points> 

         <Cells>
            <DataArray type="Int32" Name="connectivity" NumberOfComponents="1" format="ascii">
               
            </DataArray> 
            <DataArray type="Int32" Name="offsets" NumberOfComponents="1" format="ascii">
               
            </DataArray>
            <DataArray type="UInt8"  Name="types" NumberOfComponents="1" format="ascii">
               
            </DataArray>
         </Cells>
         <PointData Scalars="Rank " Vectors="Displacement Velocity Traction ">
            <DataArray type="UInt32" Name="Rank" NumberOfComponents="1" format="ascii">
               0 0 0 0 0 0 0 0 0 0 0 0 0 0 0 0 0 0 0 0 0 0 0 0 0 0 0 0 0 0 0 0 0 0 0 0 0 0 0 0 0 0 0 0 0 0 0 0 0 0 0 0 0 0 0 0 0 0 0 0 0 0 0 0 0 0 0 0 0 0 0 0 0 0 0 0 0 0 0 0 0 
            </DataArray>
            <DataArray type="Float64" Name="Displacement" NumberOfComponents="3" format="ascii">
               1.37704e-06 2.14637e-06 -3.87342e-07  1.25458e-06 1.43212e-06 -3.712e-07  9.04376e-07 6.5963e-07 -3.32341e-07  6.3108e-07 1.8954e-07 -3.23285e-07  4.45928e-07 5.95462e-07 -3.27507e-07  3.10267e-07 2.02159e-07 -3.21109e-07  2.43192e-07 1.24523e-06 -3.27496e-07  1.26369e-07 9.46053e-07 -3.61344e-07  6.1996e-08 2.14074e-07 -3.81281e-07  3.85828e-07 1.99151e-06 -3.70493e-07  4.65927e-07 1.44703e-06 -3.13361e-07  3.22366e-07 8.09129e-07 -2.53147e-07  7.90907e-08 2.59595e-07 -2.41597e-07  -1.27e-07 6.57022e-07 -2.463e-07  -3.732e-07 2.90182e-07 -2.40198e-07  -6.47102e-07 1.28817e-06 -2.51626e-07  -8.09201e-07 9.51293e-07 -3.17421e-07  -8.20413e-07 1.76899e-07 -3.59666e-07  -3.0684e-07 1.63439e-06 -3.3183e-07  -1.35973e-07 1.22973e-06 -2.53363e-07  -1.3935e-07 7.59335e-07 -1.59824e-07  -3.19528e-07 2.78869e-07 -1.41423e-07  -5.56329e-07 5.69115e-07 -1.4642e-07  -8.84268e-07 3.71389e-07 -1.41185e-07  -1.2858e-06 1.1787e-06 -1.57129e-07  -1.48363e-06 8.10678e-07 -2.52738e-07  -1.48587e-06 8.94412e-08 -3.26204e-07  -1.41728e-07 1.25688e-06 -3.23043e-07  -9.34149e-09 9.5525e-07 -2.41645e-07  -3.1577e-08 6.15976e-07 -1.41377e-07  -1.68677e-07 2.48905e-07 -1.19616e-07  -3.08817e-07 3.85808e-07 -1.23754e-07  -4.88559e-07 3.05104e-07 -1.19573e-07  -6.11774e-07 8.51927e-07 -1.40736e-07  -6.30621e-07 6.00972e-07 -2.40412e-07  -6.20021e-07 4.62539e-08 -3.21098e-07  -3.33803e-07 9.1168e-07 -3.26919e-07  -1.92029e-07 6.92046e-07 -2.46378e-07  -1.65221e-07 4.78782e-07 -1.46299e-07  -2.06719e-07 1.06246e-07 -1.2377e-07  -3.16648e-07 2.04205e-07 -1.28277e-07  -5.21974e-07 1.67742e-07 -1.23462e-07  -7.45161e-07 5.325e-07 -1.46462e-07  -8.58733e-07 4.4614e-07 -2.45366e-07  -8.20747e-07 -5.87955e-08 -3.26075e-07  -8.07017e-09 5.621e-07 -3.2103e-07  8.45718e-08 5.00156e-07 -2.40274e-07  4.62209e-09 4.13725e-07 -1.41195e-07  -1.10705e-07 -4.44539e-08 -1.19578e-07  -2.51082e-07 6.56052e-08 -1.23469e-07  -4.10467e-07 5.22015e-08 -1.18898e-07  -5.08498e-07 3.01804e-07 -1.41167e-07  -5.82619e-07 3.31966e-07 -2.4114e-07  -5.36173e-07 -2.69382e-07 -3.2178e-07  -6.26959e-07 2.72117e-07 -3.26452e-07  -5.68699e-07 4.07404e-07 -2.5171e-07  -5.55479e-07 3.87105e-07 -1.56797e-07  -4.97837e-07 -2.22485e-07 -1.40767e-07  -4.97699e-07 -5.83847e-08 -1.46368e-07  -5.47833e-07 -1.59337e-07 -1.41129e-07  -5.88186e-07 8.03082e-08 -1.59005e-07  -6.33911e-07 1.78108e-07 -2.53794e-07  -5.37887e-07 -5.6713e-07 -3.31753e-07  -5.11934e-07 1.52478e-07 -3.60594e-07  -4.98936e-07 3.34156e-07 -3.17628e-07  -4.58286e-07 2.88153e-07 -2.52754e-07  -3.95903e-07 -4.41895e-07 -2.40465e-07  -4.09313e-07 -1.79178e-07 -2.45395e-07  -4.97722e-07 -3.31779e-07 -2.41152e-07  -5.94079e-07 -7.44153e-08 -2.53916e-07  -6.55611e-07 5.64134e-08 -3.14343e-07  -6.17351e-07 -8.29606e-07 -3.70627e-07  -6.7529e-08 1.35988e-07 -3.8142e-07  -7.88614e-08 2.94241e-07 -3.59156e-07  -1.30428e-07 2.49361e-07 -3.25214e-07  -3.06805e-07 -4.7149e-07 -3.21067e-07  -5.51411e-07 -1.53382e-07 -3.25647e-07  -8.44008e-07 -2.66289e-07 -3.21578e-07  -1.21072e-06 4.40123e-10 -3.31485e-07  -1.47327e-06 8.4087e-08 -3.70123e-07  -1.54888e-06 -9.01066e-07 -3.86025e-07  
            </DataArray>
            <DataArray type="Float64" Name="Velocity" NumberOfComponents="3" format="ascii">
               3.14659e-06 4.93643e-06 -8.02231e-07  3.01162e-06 2.74191e-06 -7.91454e-07  2.49703e-06 1.48393e-06 -7.09215e-07  2.03959e-06 4.12133e-07 -6.75186e-07  1.83226e-06 6.10675e-07 -6.76467e-07  1.80511e-06 8.74441e-08 -6.66274e-07  1.93641e-06 1.06209e-06 -6.87694e-07  1.99143e-06 -2.53253e-08 -7.66769e-07  1.98082e-06 -9.20705e-07 -7.77789e-07  1.29743e-06 4.63942e-06 -7.90005e-07  1.48675e-06 2.71322e-06 -7.06186e-07  1.36083e-06 1.58985e-06 -6.06e-07  1.17279e-06 3.96128e-07 -5.71719e-07  1.11322e-06 5.42119e-07 -5.72398e-07  1.05907e-06 -1.86453e-08 -5.65413e-07  9.54571e-07 9.61345e-07 -6.01884e-07  8.26059e-07 -1.2959e-08 -7.25609e-07  7.15164e-07 -8.41452e-07 -7.57178e-07  1.00301e-06 3.83018e-06 -7.08708e-07  1.33001e-06 2.35697e-06 -6.063e-07  1.18515e-06 1.34863e-06 -4.46297e-07  8.43074e-07 2.23929e-07 -3.92573e-07  4.49377e-07 2.82528e-07 -3.92453e-07  -3.08556e-08 -1.08079e-07 -3.90708e-07  -6.07675e-07 7.89161e-07 -4.38478e-07  -1.07623e-06 6.07443e-08 -6.04257e-07  -1.34478e-06 -6.60051e-07 -6.82975e-07  1.20457e-06 2.80698e-06 -6.75062e-07  1.47333e-06 1.94177e-06 -5.71773e-07  1.22715e-06 1.12987e-06 -3.92571e-07  7.92498e-07 9.40954e-08 -3.29827e-07  3.98962e-07 1.31405e-08 -3.29276e-07  -4.51837e-08 -2.22423e-07 -3.30144e-07  -4.18499e-07 5.06392e-07 -3.89987e-07  -7.73798e-07 2.21633e-07 -5.67101e-07  -1.07495e-06 -3.85615e-07 -6.64918e-07  6.8071e-07 1.96316e-06 -6.76036e-07  8.71875e-07 1.54159e-06 -5.72489e-07  7.31696e-07 9.3529e-07 -3.92312e-07  4.8145e-07 -1.56284e-07 -3.29229e-07  1.32985e-07 -2.34652e-07 -3.29974e-07  -3.57481e-07 -3.87166e-07 -3.28735e-07  -8.82644e-07 2.72486e-07 -3.91839e-07  -1.33015e-06 4.63513e-07 -5.71263e-07  -1.57959e-06 -1.48423e-07 -6.69814e-07  1.07684e-06 1.30203e-06 -6.66618e-07  1.17391e-06 1.25229e-06 -5.65474e-07  8.70458e-07 8.7333e-07 -3.90776e-07  4.65571e-07 -3.80754e-07 -3.30093e-07  5.46656e-08 -4.20939e-07 -3.28772e-07  -3.42469e-07 -5.19495e-07 -3.28381e-07  -6.00416e-07 8.98395e-08 -3.92334e-07  -8.64041e-07 6.7573e-07 -5.7067e-07  -1.01098e-06 -4.362e-08 -6.68209e-07  -7.96671e-07 8.52326e-07 -6.86433e-07  -6.76473e-07 1.01196e-06 -6.02107e-07  -6.07099e-07 8.61423e-07 -4.37991e-07  -5.34921e-07 -6.43212e-07 -3.90018e-07  -5.82088e-07 -5.87476e-07 -3.9173e-07  -7.01703e-07 -8.10374e-07 -3.92278e-07  -7.83907e-07 -1.40694e-07 -4.44638e-07  -9.46661e-07 7.6237e-07 -6.07604e-07  -9.93235e-07 -1.33231e-07 -7.05902e-07  -3.33581e-07 7.0656e-07 -7.66348e-07  -3.13554e-07 8.11114e-07 -7.25729e-07  -3.00897e-07 7.27652e-07 -6.04379e-07  -2.71676e-07 -9.96995e-07 -5.67166e-07  -2.58826e-07 -8.04716e-07 -5.71336e-07  -3.13146e-07 -1.07301e-06 -5.70687e-07  -3.48581e-07 -3.40467e-07 -6.0789e-07  -3.79431e-07 7.85686e-07 -7.09597e-07  -3.96958e-07 -2.35519e-07 -7.89492e-07  3.24188e-07 6.91339e-07 -7.79425e-07  2.85321e-07 7.60505e-07 -7.57088e-07  1.71959e-07 7.14301e-07 -6.81781e-07  -7.90271e-08 -1.07065e-06 -6.65028e-07  -3.34178e-07 -8.5957e-07 -6.69308e-07  -6.72673e-07 -1.00396e-06 -6.68006e-07  -1.1541e-06 -2.69439e-07 -7.0546e-07  -1.4098e-06 8.40381e-07 -7.88353e-07  -1.44214e-06 -2.25371e-07 -7.97502e-07  
            </DataArray>
            <DataArray type="Float64" Name="Traction" NumberOfComponents="3" format="ascii">
               0 0 0  0 0 0  0 0 0  0 0 0  0 0 0  0 0 0  0 0 0  0 0 0  0 0 0  0 0 0  0 0 0  0 0 0  0 0 0  0 0 0  0 0 0  0 0 0  0 0 0  0 0 0  0 0 0  0 0 0  0 0 0  0 0 0  0 0 0  0 0 0  0 0 0  0 0 0  0 0 0  0 0 0  0 0 0  0 0 0  0 0 0  0 0 0  0 0 0  0 0 0  0 0 0  0 0 0  0 0 0  0 0 0  0 0 0  0 0 0  0 0 0  0 0 0  0 0 0  0 0 0  0 0 0  0 0 0  0 0 0  0 0 0  0 0 0  0 0 0  0 0 0  0 0 0  0 0 0  0 0 0  0 0 0  0 0 0  0 0 0  0 0 0  0 0 0  0 0 0  0 0 0  0 0 0  0 0 0  0 0 0  0 0 0  0 0 0  0 0 0  0 0 0  0 0 0  0 0 0  0 0 0  0 0 0  0 0 0  0 0 0  0 0 0  0 0 0  0 0 0  0 0 0  0 0 0  0 0 0  0 0 0  
            </DataArray>
         </PointData> 
      </Piece>
   </UnstructuredGrid> 
</VTKFile>
