<?xml version="1.0"?>
<VTKFile type="UnstructuredGrid" version="0.1" byte_order="LittleEndian">
   <UnstructuredGrid>
      <Piece NumberOfPoints="81" NumberOfCells="0" > 
         <Points> 
            <DataArray type="Float64" Name="Position" NumberOfComponents="3" format="ascii"> 
               0  0  20  
               0.375  0  20  
               0.75  0  20  
               1.125  0  20  
               1.5  0  20  
               1.875  0  20  
               2.25  0  20  
               2.625  0  20  
               3  0  20  
               0  0.375  20  
               0.375  0.375  20  
               0.75  0.375  20  
               1.125  0.375  20  
               1.5  0.375  20  
               1.875  0.375  20  
               2.25  0.375  20  
               2.625  0.375  20  
               3  0.375  20  
               0  0.75  20  
               0.375  0.75  20  
               0.75  0.75  20  
               1.125  0.75  20  
               1.5  0.75  20  
               1.875  0.75  20  
               2.25  0.75  20  
               2.625  0.75  20  
               3  0.75  20  
               0  1.125  20  
               0.375  1.125  20  
               0.75  1.125  20  
               1.125  1.125  20  
               1.5  1.125  20  
               1.875  1.125  20  
               2.25  1.125  20  
               2.625  1.125  20  
               3  1.125  20  
               0  1.5  20  
               0.375  1.5  20  
               0.75  1.5  20  
               1.125  1.5  20  
               1.5  1.5  20  
               1.875  1.5  20  
               2.25  1.5  20  
               2.625  1.5  20  
               3  1.5  20  
               0  1.875  20  
               0.375  1.875  20  
               0.75  1.875  20  
               1.125  1.875  20  
               1.5  1.875  20  
               1.875  1.875  20  
               2.25  1.875  20  
               2.625  1.875  20  
               3  1.875  20  
               0  2.25  20  
               0.375  2.25  20  
               0.75  2.25  20  
               1.125  2.25  20  
               1.5  2.25  20  
               1.875  2.25  20  
               2.25  2.25  20  
               2.625  2.25  20  
               3  2.25  20  
               0  2.625  20  
               0.375  2.625  20  
               0.75  2.625  20  
               1.125  2.625  20  
               1.5  2.625  20  
               1.875  2.625  20  
               2.25  2.625  20  
               2.625  2.625  20  
               3  2.625  20  
               0  3  20  
               0.375  3  20  
               0.75  3  20  
               1.125  3  20  
               1.5  3  20  
               1.875  3  20  
               2.25  3  20  
               2.625  3  20  
               3  3  20  
            </DataArray>
         </Points> 

         <Cells>
            <DataArray type="Int32" Name="connectivity" NumberOfComponents="1" format="ascii">
               
            </DataArray> 
            <DataArray type="Int32" Name="offsets" NumberOfComponents="1" format="ascii">
               
            </DataArray>
            <DataArray type="UInt8"  Name="types" NumberOfComponents="1" format="ascii">
               
            </DataArray>
         </Cells>
         <PointData Scalars="Rank " Vectors="Displacement Velocity Traction ">
            <DataArray type="UInt32" Name="Rank" NumberOfComponents="1" format="ascii">
               0 0 0 0 0 0 0 0 0 0 0 0 0 0 0 0 0 0 0 0 0 0 0 0 0 0 0 0 0 0 0 0 0 0 0 0 0 0 0 0 0 0 0 0 0 0 0 0 0 0 0 0 0 0 0 0 0 0 0 0 0 0 0 0 0 0 0 0 0 0 0 0 0 0 0 0 0 0 0 0 0 
            </DataArray>
            <DataArray type="Float64" Name="Displacement" NumberOfComponents="3" format="ascii">
               0.000220159 0.000219913 -0.000902748  0.000122791 0.000274984 -0.000951817  6.00677e-05 0.000337682 -0.00090589  3.99005e-06 0.000336598 -0.000890217  -2.30291e-05 0.000336568 -0.000889374  -7.83992e-05 0.000352789 -0.000867479  -0.000136551 0.000323702 -0.00090087  -8.22227e-05 0.000217588 -0.000944675  -0.000111533 0.000227298 -0.000814998  0.000274724 0.000122564 -0.000951638  0.000150832 0.000150961 -0.000969771  8.23152e-05 0.000186751 -0.000906346  2.82912e-05 0.000192398 -0.0008913  6.56793e-06 0.00020454 -0.000891617  -3.25469e-05 0.000194322 -0.000875985  -0.000128083 0.000204366 -0.000911705  -0.00014736 0.000155458 -0.000998601  -0.000201924 0.000159107 -0.000925815  0.000337358 6.00179e-05 -0.000905495  0.000186504 8.22606e-05 -0.000906209  0.0001049 0.000104922 -0.000805367  1.92027e-05 0.000121875 -0.000775955  8.73316e-07 0.000125742 -0.000778719  -2.34326e-05 0.00012454 -0.000772721  -0.000135116 0.000137679 -0.000806906  -0.000197732 0.000120684 -0.000913906  -0.000313883 0.000138374 -0.000894071  0.000336321 4.16687e-06 -0.000889964  0.000192226 2.83142e-05 -0.000891255  0.000121859 1.92204e-05 -0.000776043  3.88125e-05 3.88327e-05 -0.0007337  1.07189e-07 3.47663e-05 -0.000735617  -3.56179e-05 4.40979e-05 -0.00073589  -0.000116537 3.79814e-05 -0.000775849  -0.000184056 4.20754e-05 -0.000881514  -0.000338304 5.56874e-05 -0.000867743  0.000336324 -2.28758e-05 -0.000889109  0.0002044 6.66356e-06 -0.000891547  0.000125763 9.25318e-07 -0.000778786  3.47547e-05 1.22187e-07 -0.000735584  7.25673e-06 7.25331e-06 -0.000739969  -2.0969e-05 8.24127e-06 -0.00073558  -0.000111145 1.4356e-05 -0.000777337  -0.000181956 9.0997e-06 -0.000889248  -0.000307805 4.12646e-05 -0.000881253  0.000352568 -7.85396e-05 -0.00086714  0.000194151 -3.26262e-05 -0.000875867  0.000124541 -2.35642e-05 -0.000772785  4.4089e-05 -3.57825e-05 -0.000735864  8.21275e-06 -2.11816e-05 -0.000735571  -3.02966e-05 -3.04344e-05 -0.000732006  -0.000114972 -7.64715e-06 -0.000773104  -0.000182341 -2.31245e-05 -0.000885768  -0.000327962 3.39078e-05 -0.00087783  0.000323329 -0.00013674 -0.00090062  0.000204204 -0.000128338 -0.000911707  0.00013773 -0.000135429 -0.000807062  3.79463e-05 -0.000116801 -0.000775922  1.43141e-05 -0.000111455 -0.000777441  -7.49504e-06 -0.000115194 -0.000773209  -9.66384e-05 -9.68204e-05 -0.000805064  -0.000174501 -8.2275e-05 -0.000906847  -0.00032387 -5.61258e-05 -0.000898523  0.000217077 -8.21507e-05 -0.000944212  0.000155247 -0.000147464 -0.000998516  0.000120739 -0.000198003 -0.000913925  4.20014e-05 -0.000184314 -0.000881423  8.98638e-06 -0.000182249 -0.000889227  -2.30421e-05 -0.000182573 -0.000885755  -8.20012e-05 -0.000174543 -0.000906734  -0.000142881 -0.000143042 -0.000972471  -0.000262276 -0.000124812 -0.00094702  0.000226582 -0.000111338 -0.000814132  0.00015866 -0.000201805 -0.000925556  0.000138398 -0.000314069 -0.000894064  5.57148e-05 -0.000338636 -0.000867668  4.11636e-05 -0.000308095 -0.000881266  3.39305e-05 -0.000328247 -0.000877809  -5.58824e-05 -0.000323946 -0.000898277  -0.000124305 -0.000262262 -0.000946966  -0.000218505 -0.000219091 -0.000893391  
            </DataArray>
            <DataArray type="Float64" Name="Velocity" NumberOfComponents="3" format="ascii">
               0.000235774 0.00023479 -0.000994263  0.000133297 0.000293016 -0.00104789  6.74147e-05 0.000361702 -0.000999665  5.31873e-06 0.000359982 -0.00098561  -2.34981e-05 0.000358479 -0.000986478  -8.38259e-05 0.000378732 -0.000961573  -0.000146813 0.000347789 -0.000996313  -8.44173e-05 0.00023103 -0.00103991  -0.000114151 0.000240215 -0.000895247  0.000294503 0.000132505 -0.00104871  0.000162169 0.000161002 -0.00106939  9.06962e-05 0.000198325 -0.00100144  3.15363e-05 0.000204229 -0.000986954  7.88673e-06 0.000216326 -0.00098894  -3.47991e-05 0.000206527 -0.000970454  -0.000138939 0.000219056 -0.00100786  -0.000156816 0.000165537 -0.00110031  -0.00021411 0.000167938 -0.00101949  0.00036299 6.65167e-05 -0.00100027  0.000199146 8.96215e-05 -0.00100124  0.000113498 0.000112639 -0.000894357  2.11341e-05 0.00013045 -0.000864639  1.30248e-06 0.000133814 -0.00086952  -2.48573e-05 0.000133132 -0.00086157  -0.000146355 0.000148591 -0.000896285  -0.000212241 0.000130533 -0.00101036  -0.00033772 0.000147657 -0.000988695  0.000361447 4.08717e-06 -0.000986261  0.000205173 3.02857e-05 -0.000986674  0.000131186 1.985e-05 -0.000864532  4.21204e-05 4.10215e-05 -0.000821513  7.34033e-07 3.64496e-05 -0.000825431  -3.78129e-05 4.71132e-05 -0.000824267  -0.000124367 4.00738e-05 -0.000865018  -0.000195333 4.50567e-05 -0.000976528  -0.000363017 5.76506e-05 -0.000962059  0.000359799 -2.47759e-05 -0.000987135  0.000217289 6.62131e-06 -0.000988667  0.000134619 -5.00554e-08 -0.000869471  3.75757e-05 -6.00016e-07 -0.000825507  8.41729e-06 7.05865e-06 -0.000831705  -2.19689e-05 8.47857e-06 -0.00082533  -0.000118317 1.46381e-05 -0.000867987  -0.000191764 9.28899e-06 -0.00098605  -0.000327221 4.30058e-05 -0.000977625  0.000380069 -8.51371e-05 -0.000962175  0.000207491 -3.62052e-05 -0.000970206  0.000133942 -2.62203e-05 -0.000861597  4.8284e-05 -3.91605e-05 -0.000824472  9.8364e-06 -2.33963e-05 -0.000825449  -3.16357e-05 -3.29665e-05 -0.000819552  -0.000122735 -9.34009e-06 -0.000861442  -0.000193306 -2.60909e-05 -0.000980519  -0.000350927 3.59546e-05 -0.000971932  0.000349138 -0.000148238 -0.000996934  0.000220291 -0.000140264 -0.00100766  0.000149731 -0.000147653 -0.000896212  4.1278e-05 -0.000125437 -0.000865047  1.60633e-05 -0.000119457 -0.000868009  -7.74787e-06 -0.000123785 -0.000861344  -0.000103832 -0.000105045 -0.000893829  -0.000184545 -9.08356e-05 -0.00100179  -0.000346001 -6.31468e-05 -0.000991341  0.000232179 -8.61054e-05 -0.00104006  0.000166677 -0.000158187 -0.00109997  0.000131853 -0.000213898 -0.00101017  4.64539e-05 -0.00019678 -0.000976288  1.07477e-05 -0.000193236 -0.000985853  -2.45141e-05 -0.000194762 -0.000980233  -8.94326e-05 -0.000185957 -0.00100155  -0.000152058 -0.000153775 -0.00107207  -0.000278782 -0.000135398 -0.00104224  0.000241054 -0.00011607 -0.000895953  0.000168968 -0.00021558 -0.00101992  0.000149058 -0.000339682 -0.000989607  5.9045e-05 -0.00036507 -0.000962976  4.46403e-05 -0.000329176 -0.000978667  3.79537e-05 -0.000353057 -0.000972874  -6.17794e-05 -0.000348132 -0.000992251  -0.000134402 -0.000280988 -0.00104341  -0.000233506 -0.000234785 -0.000983927  
            </DataArray>
            <DataArray type="Float64" Name="Traction" NumberOfComponents="3" format="ascii">
               -0.00130043 -0.00130284 -0.0127552  -0.001177 -0.00232481 -0.0127552  -0.000776447 -0.00312724 -0.0127552  -7.18569e-05 -0.00302027 -0.0127552  -0.000263314 -0.00300386 -0.0127552  0.000839489 -0.00311682 -0.0127552  0.00269048 -0.00272131 -0.0127552  0.000312021 -0.000945914 -0.0127552  -0.00110265 -0.00039105 -0.0127552  -0.00231703 -0.00118039 -0.0127552  -0.00174105 -0.00174718 -0.0127552  -0.00101814 -0.0024307 -0.0127552  -0.000324203 -0.00254736 -0.0127552  -0.000496511 -0.00265188 -0.0127552  0.000382289 -0.00243985 -0.0127552  0.00296431 -0.00253513 -0.0127552  0.00154 -0.00164496 -0.0127552  0.000554643 -0.00107637 -0.0127552  -0.00311869 -0.000778299 -0.0127552  -0.00242389 -0.00101995 -0.0127552  -0.00149951 -0.00150155 -0.0127552  -0.000275388 -0.00186471 -0.0127552  -0.000269943 -0.00191695 -0.0127552  0.000331641 -0.00176922 -0.0127552  0.00308931 -0.00182722 -0.0127552  0.00247897 -0.00166887 -0.0127552  0.00252703 -0.00176259 -0.0127552  -0.00301296 -7.86372e-05 -0.0127552  -0.0025417 -0.000329196 -0.0127552  -0.00186292 -0.000279965 -0.0127552  -0.0005469 -0.000551468 -0.0127552  -0.000178214 -0.000478729 -0.0127552  0.000548554 -0.000560449 -0.0127552  0.0028539 -0.000441627 -0.0127552  0.00237952 -0.000447632 -0.0127552  0.00293615 -0.000507675 -0.0127552  -0.00299702 -0.000272885 -0.0127552  -0.00264653 -0.00050514 -0.0127552  -0.00191567 -0.000277249 -0.0127552  -0.000474208 -0.000185011 -0.0127552  -0.000315802 -0.000322816 -0.0127552  0.00039492 -0.000306629 -0.0127552  0.00288755 -0.000326701 -0.0127552  0.00245029 -0.000190102 -0.0127552  0.00268621 -0.000518217 -0.0127552  -0.00311018 0.000833941 -0.0127552  -0.00243376 0.000376085 -0.0127552  -0.00176743 0.00032583 -0.0127552  -0.000555984 0.000543074 -0.0127552  -0.000299315 0.000389901 -0.0127552  0.00050815 0.000502255 -0.0127552  0.0029449 0.000208909 -0.0127552  0.00245746 0.000338601 -0.0127552  0.00290742 -0.000278909 -0.0127552  -0.00271205 0.00268353 -0.0127552  -0.0025289 0.0029581 -0.0127552  -0.0018258 0.00308161 -0.0127552  -0.000436599 0.00284488 -0.0127552  -0.000319301 0.00287949 -0.0127552  0.000214558 0.00293619 -0.0127552  0.00258842 0.00258006 -0.0127552  0.00232117 0.00195954 -0.0127552  0.002917 0.00156358 -0.0127552  -0.000931768 0.000299976 -0.0127552  -0.00163674 0.00153055 -0.0127552  -0.00166738 0.00247075 -0.0127552  -0.000441695 0.00237105 -0.0127552  -0.000181634 0.00244254 -0.0127552  0.000345031 0.00244876 -0.0127552  0.00196697 0.00230988 -0.0127552  0.00168946 0.00168037 -0.0127552  0.00211956 0.00124631 -0.0127552  -0.000371248 -0.00111824 -0.0127552  -0.00106273 0.000541653 -0.0127552  -0.00175943 0.00251857 -0.0127552  -0.000502085 0.00292989 -0.0127552  -0.000509717 0.00267965 -0.0127552  -0.0002727 0.00289998 -0.0127552  0.00157234 0.00290541 -0.0127552  0.00125157 0.00210869 -0.0127552  0.00126382 0.00126035 -0.0127552  
            </DataArray>
         </PointData> 
      </Piece>
   </UnstructuredGrid> 
</VTKFile>
