<?xml version="1.0"?>
<VTKFile type="UnstructuredGrid" version="0.1" byte_order="LittleEndian">
   <UnstructuredGrid>
      <Piece NumberOfPoints="81" NumberOfCells="0" > 
         <Points> 
            <DataArray type="Float64" Name="Position" NumberOfComponents="3" format="ascii"> 
               0  0  20  
               0.375  0  20  
               0.75  0  20  
               1.125  0  20  
               1.5  0  20  
               1.875  0  20  
               2.25  0  20  
               2.625  0  20  
               3  0  20  
               0  0.375  20  
               0.375  0.375  20  
               0.75  0.375  20  
               1.125  0.375  20  
               1.5  0.375  20  
               1.875  0.375  20  
               2.25  0.375  20  
               2.625  0.375  20  
               3  0.375  20  
               0  0.75  20  
               0.375  0.75  20  
               0.75  0.75  20  
               1.125  0.75  20  
               1.5  0.75  20  
               1.875  0.75  20  
               2.25  0.75  20  
               2.625  0.75  20  
               3  0.75  20  
               0  1.125  20  
               0.375  1.125  20  
               0.75  1.125  20  
               1.125  1.125  20  
               1.5  1.125  20  
               1.875  1.125  20  
               2.25  1.125  20  
               2.625  1.125  20  
               3  1.125  20  
               0  1.5  20  
               0.375  1.5  20  
               0.75  1.5  20  
               1.125  1.5  20  
               1.5  1.5  20  
               1.875  1.5  20  
               2.25  1.5  20  
               2.625  1.5  20  
               3  1.5  20  
               0  1.875  20  
               0.375  1.875  20  
               0.75  1.875  20  
               1.125  1.875  20  
               1.5  1.875  20  
               1.875  1.875  20  
               2.25  1.875  20  
               2.625  1.875  20  
               3  1.875  20  
               0  2.25  20  
               0.375  2.25  20  
               0.75  2.25  20  
               1.125  2.25  20  
               1.5  2.25  20  
               1.875  2.25  20  
               2.25  2.25  20  
               2.625  2.25  20  
               3  2.25  20  
               0  2.625  20  
               0.375  2.625  20  
               0.75  2.625  20  
               1.125  2.625  20  
               1.5  2.625  20  
               1.875  2.625  20  
               2.25  2.625  20  
               2.625  2.625  20  
               3  2.625  20  
               0  3  20  
               0.375  3  20  
               0.75  3  20  
               1.125  3  20  
               1.5  3  20  
               1.875  3  20  
               2.25  3  20  
               2.625  3  20  
               3  3  20  
            </DataArray>
         </Points> 

         <Cells>
            <DataArray type="Int32" Name="connectivity" NumberOfComponents="1" format="ascii">
               
            </DataArray> 
            <DataArray type="Int32" Name="offsets" NumberOfComponents="1" format="ascii">
               
            </DataArray>
            <DataArray type="UInt8"  Name="types" NumberOfComponents="1" format="ascii">
               
            </DataArray>
         </Cells>
         <PointData Scalars="Rank " Vectors="Displacement Velocity Traction ">
            <DataArray type="UInt32" Name="Rank" NumberOfComponents="1" format="ascii">
               0 0 0 0 0 0 0 0 0 0 0 0 0 0 0 0 0 0 0 0 0 0 0 0 0 0 0 0 0 0 0 0 0 0 0 0 0 0 0 0 0 0 0 0 0 0 0 0 0 0 0 0 0 0 0 0 0 0 0 0 0 0 0 0 0 0 0 0 0 0 0 0 0 0 0 0 0 0 0 0 0 
            </DataArray>
            <DataArray type="Float64" Name="Displacement" NumberOfComponents="3" format="ascii">
               0 0 0  0 0 0  0 0 0  0 0 0  0 0 0  0 0 0  0 0 0  0 0 0  0 0 0  0 0 0  0 0 0  0 0 0  0 0 0  0 0 0  0 0 0  0 0 0  0 0 0  0 0 0  0 0 0  0 0 0  0 0 0  0 0 0  0 0 0  0 0 0  0 0 0  0 0 0  0 0 0  0 0 0  0 0 0  0 0 0  0 0 0  0 0 0  0 0 0  0 0 0  0 0 0  0 0 0  0 0 0  0 0 0  0 0 0  0 0 0  0 0 0  0 0 0  0 0 0  0 0 0  0 0 0  0 0 0  0 0 0  0 0 0  0 0 0  0 0 0  0 0 0  0 0 0  0 0 0  0 0 0  0 0 0  0 0 0  0 0 0  0 0 0  0 0 0  0 0 0  0 0 0  0 0 0  0 0 0  0 0 0  0 0 0  0 0 0  0 0 0  0 0 0  0 0 0  0 0 0  0 0 0  0 0 0  0 0 0  0 0 0  0 0 0  0 0 0  0 0 0  0 0 0  0 0 0  0 0 0  0 0 0  
            </DataArray>
            <DataArray type="Float64" Name="Velocity" NumberOfComponents="3" format="ascii">
               0 0 0  0 0 0  0 0 0  0 0 0  0 0 0  0 0 0  0 0 0  0 0 0  0 0 0  0 0 0  0 0 0  0 0 0  0 0 0  0 0 0  0 0 0  0 0 0  0 0 0  0 0 0  0 0 0  0 0 0  0 0 0  0 0 0  0 0 0  0 0 0  0 0 0  0 0 0  0 0 0  0 0 0  0 0 0  0 0 0  0 0 0  0 0 0  0 0 0  0 0 0  0 0 0  0 0 0  0 0 0  0 0 0  0 0 0  0 0 0  0 0 0  0 0 0  0 0 0  0 0 0  0 0 0  0 0 0  0 0 0  0 0 0  0 0 0  0 0 0  0 0 0  0 0 0  0 0 0  0 0 0  0 0 0  0 0 0  0 0 0  0 0 0  0 0 0  0 0 0  0 0 0  0 0 0  0 0 0  0 0 0  0 0 0  0 0 0  0 0 0  0 0 0  0 0 0  0 0 0  0 0 0  0 0 0  0 0 0  0 0 0  0 0 0  0 0 0  0 0 0  0 0 0  0 0 0  0 0 0  0 0 0  
            </DataArray>
            <DataArray type="Float64" Name="Traction" NumberOfComponents="3" format="ascii">
               -2.47947e-05 -2.47658e-05 -0.000183032  -1.22269e-05 -4.46566e-05 -0.000183032  -6.01867e-06 -5.57124e-05 -0.000183032  -7.07326e-07 -5.46996e-05 -0.000183032  -2.01964e-06 -5.45692e-05 -0.000183032  8.00854e-06 -5.57779e-05 -0.000183032  3.00741e-05 -5.12437e-05 -0.000183032  1.19762e-05 -2.84294e-05 -0.000183032  8.38312e-06 -2.33404e-05 -0.000183032  -4.47281e-05 -1.21051e-05 -0.000183032  -2.54806e-05 -2.5353e-05 -0.000183032  -1.03093e-05 -3.62241e-05 -0.000183032  -3.08043e-06 -3.79279e-05 -0.000183032  -4.91425e-06 -3.90846e-05 -0.000183032  3.51086e-06 -3.71256e-05 -0.000183032  3.2894e-05 -3.74487e-05 -0.000183032  2.34148e-05 -2.42032e-05 -0.000183032  2.5322e-05 -1.95922e-05 -0.000183032  -5.57991e-05 -5.9224e-06 -0.000183032  -3.63796e-05 -1.02159e-05 -0.000183032  -1.729e-05 -1.71775e-05 -0.000183032  -2.80481e-06 -2.20972e-05 -0.000183032  -3.11953e-06 -2.27349e-05 -0.000183032  3.56151e-06 -2.15556e-05 -0.000183032  3.84753e-05 -2.1307e-05 -0.000183032  3.60627e-05 -1.70341e-05 -0.000183032  4.8559e-05 -1.89456e-05 -0.000183032  -5.47444e-05 -6.00516e-07 -0.000183032  -3.8059e-05 -2.98387e-06 -0.000183032  -2.22074e-05 -2.70851e-06 -0.000183032  -6.09971e-06 -6.00088e-06 -0.000183032  -2.94419e-06 -5.02265e-06 -0.000183032  5.76714e-06 -5.97241e-06 -0.000183032  3.77679e-05 -4.3319e-06 -0.000183032  3.63197e-05 -3.99739e-06 -0.000183032  5.36381e-05 -4.27876e-06 -0.000183032  -5.46182e-05 -1.87852e-06 -0.000183032  -3.92041e-05 -4.76232e-06 -0.000183032  -2.28434e-05 -2.98489e-06 -0.000183032  -5.14421e-06 -2.80988e-06 -0.000183032  -4.28687e-06 -4.12329e-06 -0.000183032  3.82546e-06 -3.57021e-06 -0.000183032  3.73041e-05 -3.8054e-06 -0.000183032  3.64044e-05 -1.6844e-06 -0.000183032  5.05213e-05 -6.03522e-06 -0.000183032  -5.58556e-05 8.07977e-06 -0.000183032  -3.72932e-05 3.61252e-06 -0.000183032  -2.16925e-05 3.64412e-06 -0.000183032  -6.10108e-06 5.86456e-06 -0.000183032  -3.73114e-06 3.94521e-06 -0.000183032  5.58685e-06 5.71109e-06 -0.000183032  3.85012e-05 1.51809e-06 -0.000183032  3.68605e-05 3.41989e-06 -0.000183032  5.31032e-05 -3.21152e-06 -0.000183032  -5.12772e-05 3.01809e-05 -0.000183032  -3.75547e-05 3.29962e-05 -0.000183032  -2.13917e-05 3.8555e-05 -0.000183032  -4.44646e-06 3.79203e-05 -0.000183032  -3.95895e-06 3.74482e-05 -0.000183032  1.39282e-06 3.86612e-05 -0.000183032  3.28584e-05 3.30171e-05 -0.000183032  3.53067e-05 2.16308e-05 -0.000183032  5.40205e-05 1.47989e-05 -0.000183032  -2.85648e-05 1.21547e-05 -0.000183032  -2.43639e-05 2.3539e-05 -0.000183032  -1.71429e-05 3.61041e-05 -0.000183032  -4.13093e-06 3.64483e-05 -0.000183032  -1.84219e-06 3.65266e-05 -0.000183032  3.29764e-06 3.70169e-05 -0.000183032  2.14839e-05 3.5472e-05 -0.000183032  2.47899e-05 2.49351e-05 -0.000183032  4.2973e-05 1.3075e-05 -0.000183032  -2.3503e-05 8.58109e-06 -0.000183032  -1.97867e-05 2.54566e-05 -0.000183032  -1.90495e-05 4.85628e-05 -0.000183032  -4.38545e-06 5.37076e-05 -0.000183032  -6.18758e-06 5.06235e-05 -0.000183032  -3.33551e-06 5.32525e-05 -0.000183032  1.46361e-05 5.41818e-05 -0.000183032  1.29597e-05 4.31207e-05 -0.000183032  2.45573e-05 2.46328e-05 -0.000183032  
            </DataArray>
         </PointData> 
      </Piece>
   </UnstructuredGrid> 
</VTKFile>
