<?xml version="1.0"?>
<VTKFile type="UnstructuredGrid" version="0.1" byte_order="LittleEndian">
   <UnstructuredGrid>
      <Piece NumberOfPoints="81" NumberOfCells="0" > 
         <Points> 
            <DataArray type="Float64" Name="Position" NumberOfComponents="3" format="ascii"> 
               0  0  15  
               0.375  0  15  
               0.75  0  15  
               1.125  0  15  
               1.5  0  15  
               1.875  0  15  
               2.25  0  15  
               2.625  0  15  
               3  0  15  
               0  0.375  15  
               0.375  0.375  15  
               0.75  0.375  15  
               1.125  0.375  15  
               1.5  0.375  15  
               1.875  0.375  15  
               2.25  0.375  15  
               2.625  0.375  15  
               3  0.375  15  
               0  0.75  15  
               0.375  0.75  15  
               0.75  0.75  15  
               1.125  0.75  15  
               1.5  0.75  15  
               1.875  0.75  15  
               2.25  0.75  15  
               2.625  0.75  15  
               3  0.75  15  
               0  1.125  15  
               0.375  1.125  15  
               0.75  1.125  15  
               1.125  1.125  15  
               1.5  1.125  15  
               1.875  1.125  15  
               2.25  1.125  15  
               2.625  1.125  15  
               3  1.125  15  
               0  1.5  15  
               0.375  1.5  15  
               0.75  1.5  15  
               1.125  1.5  15  
               1.5  1.5  15  
               1.875  1.5  15  
               2.25  1.5  15  
               2.625  1.5  15  
               3  1.5  15  
               0  1.875  15  
               0.375  1.875  15  
               0.75  1.875  15  
               1.125  1.875  15  
               1.5  1.875  15  
               1.875  1.875  15  
               2.25  1.875  15  
               2.625  1.875  15  
               3  1.875  15  
               0  2.25  15  
               0.375  2.25  15  
               0.75  2.25  15  
               1.125  2.25  15  
               1.5  2.25  15  
               1.875  2.25  15  
               2.25  2.25  15  
               2.625  2.25  15  
               3  2.25  15  
               0  2.625  15  
               0.375  2.625  15  
               0.75  2.625  15  
               1.125  2.625  15  
               1.5  2.625  15  
               1.875  2.625  15  
               2.25  2.625  15  
               2.625  2.625  15  
               3  2.625  15  
               0  3  15  
               0.375  3  15  
               0.75  3  15  
               1.125  3  15  
               1.5  3  15  
               1.875  3  15  
               2.25  3  15  
               2.625  3  15  
               3  3  15  
            </DataArray>
         </Points> 

         <Cells>
            <DataArray type="Int32" Name="connectivity" NumberOfComponents="1" format="ascii">
               
            </DataArray> 
            <DataArray type="Int32" Name="offsets" NumberOfComponents="1" format="ascii">
               
            </DataArray>
            <DataArray type="UInt8"  Name="types" NumberOfComponents="1" format="ascii">
               
            </DataArray>
         </Cells>
         <PointData Scalars="Rank " Vectors="Displacement Velocity Traction ">
            <DataArray type="UInt32" Name="Rank" NumberOfComponents="1" format="ascii">
               0 0 0 0 0 0 0 0 0 0 0 0 0 0 0 0 0 0 0 0 0 0 0 0 0 0 0 0 0 0 0 0 0 0 0 0 0 0 0 0 0 0 0 0 0 0 0 0 0 0 0 0 0 0 0 0 0 0 0 0 0 0 0 0 0 0 0 0 0 0 0 0 0 0 0 0 0 0 0 0 0 
            </DataArray>
            <DataArray type="Float64" Name="Displacement" NumberOfComponents="3" format="ascii">
               0.0010305 0.000860463 -0.00880377  0.000987299 0.000641656 -0.00886144  0.000869709 0.00037236 -0.00825563  0.000699157 0.00022332 -0.00813525  0.000491149 0.000183111 -0.00818635  0.000307178 0.000152749 -0.00800453  0.000210789 0.00034444 -0.00822283  0.000194437 0.000373464 -0.00879155  0.000201305 0.000221306 -0.00832233  0.000802292 0.000817249 -0.00886119  0.000802547 0.000645039 -0.00835586  0.000701564 0.000434746 -0.00735147  0.000520623 0.000316957 -0.00721257  0.000303011 0.000291165 -0.00727852  7.81404e-05 0.000238105 -0.00711139  -0.000118338 0.000385688 -0.00738172  -0.000194672 0.000382103 -0.00854045  -0.000163275 0.000171249 -0.00867506  0.000513705 0.000701467 -0.00825581  0.000569812 0.000550007 -0.00735176  0.000521564 0.000394519 -0.0057583  0.000371748 0.000323868 -0.00549229  0.000207285 0.000286372 -0.00559206  4.6743e-05 0.000248648 -0.00547374  -9.50565e-05 0.000344296 -0.00576096  -0.000126003 0.000307249 -0.00739975  -5.48984e-05 5.03826e-05 -0.00817889  0.000355021 0.000537601 -0.00813484  0.00043876 0.00037976 -0.00721269  0.000437991 0.000252414 -0.00549213  0.000337585 0.000227363 -0.0051275  0.000190562 0.000190522 -0.00521038  4.53394e-05 0.000150653 -0.00513921  -5.18048e-05 0.000184619 -0.00548755  -3.99551e-05 0.000114572 -0.00714407  4.53192e-05 -0.00010542 -0.00800751  0.000301649 0.000341282 -0.0081858  0.000396711 0.000180274 -0.00727854  0.000382671 9.81524e-05 -0.00559174  0.000284487 8.62618e-05 -0.00521025  0.000174504 7.94712e-05 -0.00529772  7.0873e-05 3.28446e-06 -0.00520807  -1.6558e-05 2.59174e-05 -0.00558295  -4.72399e-06 -0.000112818 -0.0072598  9.10443e-05 -0.000249236 -0.00813214  0.000252214 0.0001756 -0.00800438  0.000323964 -2.34626e-05 -0.00711169  0.000333183 -5.44716e-05 -0.0054735  0.000244077 -5.57945e-05 -0.005139  0.000108119 -3.08249e-05 -0.00520805  -2.76936e-05 -0.000146816 -0.00511412  -0.0001193 -0.000131553 -0.00547375  -0.000108046 -0.000337978 -0.00717809  -9.22648e-06 -0.000425921 -0.00805585  0.000440397 0.00010414 -0.00822254  0.000468528 -0.00019907 -0.00738177  0.0004281 -0.000192851 -0.00576065  0.000279312 -0.000150844 -0.00548734  0.000135913 -0.000127585 -0.00558287  -4.03204e-06 -0.000249262 -0.00547369  -0.000138809 -0.000280785 -0.00575168  -0.000188172 -0.000515403 -0.00735694  -0.000115838 -0.000643777 -0.00821281  0.000429683 0.000109872 -0.00879225  0.000435925 -0.000262213 -0.00854087  0.000376861 -0.000227102 -0.00739989  0.000211352 -0.000144136 -0.00714462  1.23758e-05 -0.000128817 -0.00726026  -0.00018733 -0.000249571 -0.00717855  -0.00034762 -0.00034248 -0.00735758  -0.000433127 -0.00061139 -0.00837619  -0.000421765 -0.000806471 -0.00883445  0.000290183 0.000125187 -0.00832536  0.000248464 -0.000232916 -0.00867683  0.000151115 -0.000169783 -0.0081796  2.40729e-05 -7.36485e-05 -0.00800857  -9.59518e-05 -4.71369e-05 -0.00813304  -0.000254814 -0.000161836 -0.00805683  -0.000460244 -0.00027778 -0.00821408  -0.000616945 -0.000604866 -0.0088348  -0.000669592 -0.000860836 -0.00874573  
            </DataArray>
            <DataArray type="Float64" Name="Velocity" NumberOfComponents="3" format="ascii">
               -0.000893832 -0.000975588 -0.0227572  -0.000890679 8.10317e-05 -0.0219942  -0.000649515 -0.000210114 -0.0200509  -0.000300485 -0.000199467 -0.0198632  -0.000142839 -0.000321687 -0.0201275  -6.40956e-06 -0.000248307 -0.0197172  0.000224653 9.48911e-05 -0.0200401  0.000520262 -0.000144142 -0.0218761  0.00066084 0.000121356 -0.0223425  0.000157978 -0.000975416 -0.0219907  0.000106167 2.61567e-05 -0.0191942  0.000131845 -0.000287551 -0.0155993  0.000165526 -0.00021399 -0.0153193  0.000169005 -0.000284385 -0.0156385  0.000160292 -0.000244165 -0.0151486  0.000181405 5.97096e-05 -0.0156455  0.000286323 -0.000125377 -0.0194457  0.000359431 0.000100366 -0.0217095  -0.000137783 -0.000736272 -0.0200469  -0.000213061 4.87464e-05 -0.0155993  -0.000102392 -0.000177799 -0.00990362  -3.15781e-05 -7.16545e-05 -0.00933976  6.34775e-05 -0.000168199 -0.00978253  0.00016891 -0.000104049 -0.00931668  0.000260617 0.000118419 -0.00991119  0.00037106 -6.53006e-06 -0.0156824  0.000417336 0.00010544 -0.0199673  -0.000127003 -0.000388446 -0.01986  -0.000140433 8.06633e-05 -0.0153203  2.4407e-06 -0.000108175 -0.00934063  0.000108675 3.30682e-05 -0.00857736  0.000152695 -2.54071e-05 -0.00894778  0.000196853 1.04915e-05 -0.00857972  0.000310766 0.000128304 -0.00932338  0.000458548 2.14792e-05 -0.0151918  0.00046049 0.000184491 -0.0197177  -0.000254239 -0.000233611 -0.020124  -0.00021672 8.47943e-05 -0.0156391  -9.97479e-05 -1.25229e-05 -0.00978287  4.54224e-05 7.71718e-05 -0.00894719  0.000228301 0.000157694 -0.0092876  0.000425667 5.28806e-05 -0.00893835  0.000583906 0.00024887 -0.00976836  0.000748421 -3.16465e-06 -0.0156043  0.000751421 0.000470869 -0.0200376  -0.000175564 -9.78903e-05 -0.0197133  -0.000172413 7.90552e-05 -0.0151489  -3.17177e-05 9.56582e-05 -0.00931686  8.53665e-05 0.000123306 -0.00857873  0.000129006 0.000357043 -0.00893796  0.000169719 9.39596e-05 -0.00855065  0.000275995 0.000384896 -0.0093139  0.00042655 -2.61712e-05 -0.0152763  0.000429593 0.000734855 -0.0197442  0.000169274 0.00013768 -0.0200368  0.000131249 0.000106107 -0.0156463  0.000190949 0.000192206 -0.00991224  0.000204721 0.000242432 -0.00932356  0.000325793 0.00051963 -0.00976904  0.000460489 0.000203684 -0.00931489  0.000534846 0.000461609 -0.00988779  0.00059145 2.49709e-05 -0.015619  0.000530132 0.000945717 -0.0200003  -6.62028e-05 0.000440815 -0.0218737  -4.90894e-05 0.000218014 -0.0194466  7.1902e-05 0.000306662 -0.0156834  0.000104671 0.000394771 -0.0151925  8.29721e-05 0.000688464 -0.0156054  6.03231e-05 0.000358698 -0.0152778  0.000108453 0.00052135 -0.0156197  0.000149609 6.96668e-05 -0.0192366  0.000110449 0.00106458 -0.0219655  0.000210314 0.000585233 -0.0223378  0.000189963 0.000293557 -0.0217082  0.00019833 0.000352474 -0.0199655  0.000280256 0.000396469 -0.0197156  0.000564862 0.000692245 -0.0200357  0.000825393 0.000363513 -0.0197424  0.00103209 0.000462026 -0.019997  0.00114735 3.20931e-05 -0.0219617  0.00112241 0.00104013 -0.0226729  
            </DataArray>
            <DataArray type="Float64" Name="Traction" NumberOfComponents="3" format="ascii">
               0.0165904 0.0155184 0.163282  0.0105785 0.00770371 0.163282  0.00468256 -0.000608087 0.163282  0.00425857 0.000501429 0.163282  -0.00491578 0.00248304 0.163282  -0.00695538 0.000942382 0.163282  0.000105829 0.000572395 0.163282  -0.0184581 0.0137399 0.163282  -0.0283263 0.0240233 0.163282  0.00885731 0.00934308 0.163282  0.00723017 0.00610557 0.163282  0.00676453 -0.000475472 0.163282  0.00611989 -0.000883704 0.163282  -0.00329724 -0.00054106 0.163282  -0.00484518 7.43723e-05 0.163282  0.00854666 -0.000555485 0.163282  -0.00835843 0.00788428 0.163282  -0.0155302 0.0163658 0.163282  0.000635686 0.00291794 0.163282  0.000432623 0.00531062 0.163282  0.00404876 0.00279265 0.163282  0.00678156 0.0014812 0.163282  -0.00232938 0.00128867 0.163282  -0.00498973 0.00228287 0.163282  0.0139614 0.00222789 0.163282  -0.000310397 0.00404927 0.163282  -0.00214527 0.00675112 0.163282  0.000968319 0.00213489 0.163282  -0.000465027 0.00445883 0.163282  0.00240017 0.00529258 0.163282  0.00561005 0.00431527 0.163282  -0.00217313 0.00411287 0.163282  -0.00436491 0.00459057 0.163282  0.0135269 0.00473705 0.163282  4.01275e-05 0.00486714 0.163282  -0.00121086 0.00700095 0.163282  0.00221534 -0.00643399 0.163282  -0.000686745 -0.00458116 0.163282  0.00183288 -0.00343928 0.163282  0.0052677 -0.00338914 0.163282  -0.00284611 -0.00423826 0.163282  -0.00462008 -0.00380711 0.163282  0.0132897 -0.00420185 0.163282  -0.000273594 -0.00239118 0.163282  -0.00350396 -0.000955514 0.163282  0.000705263 -0.00767938 0.163282  -0.000693009 -0.00527762 0.163282  0.00224443 -0.00528325 0.163282  0.00525988 -0.00509744 0.163282  -0.00259321 -0.00584825 0.163282  -0.0040517 -0.00541064 0.163282  0.0147085 -0.00680988 0.163282  0.000976364 -0.00539196 0.163282  -0.000960549 -0.00462121 0.163282  -0.000464703 0.000376357 0.163282  -0.00229397 0.00919538 0.163282  0.00147592 0.0146637 0.163282  0.00497082 0.0135005 0.163282  -0.00308336 0.0126712 0.163282  -0.00524487 0.0137141 0.163282  0.0132132 0.0118688 0.163282  0.000587118 0.00470511 0.163282  -0.000249917 0.00308764 0.163282  0.013505 -0.0163513 0.163282  0.00594942 -0.00645789 0.163282  0.0033537 0.00141691 0.163282  0.00525131 0.000754195 0.163282  -0.00110539 -0.000207786 0.163282  -0.00367301 0.000486121 0.163282  0.00623809 -0.000401315 0.163282  -0.00539618 -0.00661955 0.163282  -0.00813969 -0.00978409 0.163282  0.024708 -0.0291679 0.163282  0.0141455 -0.0153194 0.163282  0.00640847 -0.00111957 0.163282  0.00762986 -0.000834281 0.163282  0.000563676 -0.00297557 0.163282  -0.00239664 -0.00129557 0.163282  0.00496656 -0.0014855 0.163282  -0.0083573 -0.00935623 0.163282  -0.0155609 -0.0168501 0.163282  
            </DataArray>
         </PointData> 
      </Piece>
   </UnstructuredGrid> 
</VTKFile>
