<?xml version="1.0"?>
<VTKFile type="UnstructuredGrid" version="0.1" byte_order="LittleEndian">
   <UnstructuredGrid>
      <Piece NumberOfPoints="81" NumberOfCells="0" > 
         <Points> 
            <DataArray type="Float64" Name="Position" NumberOfComponents="3" format="ascii"> 
               0  0  15  
               0.375  0  15  
               0.75  0  15  
               1.125  0  15  
               1.5  0  15  
               1.875  0  15  
               2.25  0  15  
               2.625  0  15  
               3  0  15  
               0  0.375  15  
               0.375  0.375  15  
               0.75  0.375  15  
               1.125  0.375  15  
               1.5  0.375  15  
               1.875  0.375  15  
               2.25  0.375  15  
               2.625  0.375  15  
               3  0.375  15  
               0  0.75  15  
               0.375  0.75  15  
               0.75  0.75  15  
               1.125  0.75  15  
               1.5  0.75  15  
               1.875  0.75  15  
               2.25  0.75  15  
               2.625  0.75  15  
               3  0.75  15  
               0  1.125  15  
               0.375  1.125  15  
               0.75  1.125  15  
               1.125  1.125  15  
               1.5  1.125  15  
               1.875  1.125  15  
               2.25  1.125  15  
               2.625  1.125  15  
               3  1.125  15  
               0  1.5  15  
               0.375  1.5  15  
               0.75  1.5  15  
               1.125  1.5  15  
               1.5  1.5  15  
               1.875  1.5  15  
               2.25  1.5  15  
               2.625  1.5  15  
               3  1.5  15  
               0  1.875  15  
               0.375  1.875  15  
               0.75  1.875  15  
               1.125  1.875  15  
               1.5  1.875  15  
               1.875  1.875  15  
               2.25  1.875  15  
               2.625  1.875  15  
               3  1.875  15  
               0  2.25  15  
               0.375  2.25  15  
               0.75  2.25  15  
               1.125  2.25  15  
               1.5  2.25  15  
               1.875  2.25  15  
               2.25  2.25  15  
               2.625  2.25  15  
               3  2.25  15  
               0  2.625  15  
               0.375  2.625  15  
               0.75  2.625  15  
               1.125  2.625  15  
               1.5  2.625  15  
               1.875  2.625  15  
               2.25  2.625  15  
               2.625  2.625  15  
               3  2.625  15  
               0  3  15  
               0.375  3  15  
               0.75  3  15  
               1.125  3  15  
               1.5  3  15  
               1.875  3  15  
               2.25  3  15  
               2.625  3  15  
               3  3  15  
            </DataArray>
         </Points> 

         <Cells>
            <DataArray type="Int32" Name="connectivity" NumberOfComponents="1" format="ascii">
               
            </DataArray> 
            <DataArray type="Int32" Name="offsets" NumberOfComponents="1" format="ascii">
               
            </DataArray>
            <DataArray type="UInt8"  Name="types" NumberOfComponents="1" format="ascii">
               
            </DataArray>
         </Cells>
         <PointData Scalars="Rank " Vectors="Displacement Velocity Traction ">
            <DataArray type="UInt32" Name="Rank" NumberOfComponents="1" format="ascii">
               0 0 0 0 0 0 0 0 0 0 0 0 0 0 0 0 0 0 0 0 0 0 0 0 0 0 0 0 0 0 0 0 0 0 0 0 0 0 0 0 0 0 0 0 0 0 0 0 0 0 0 0 0 0 0 0 0 0 0 0 0 0 0 0 0 0 0 0 0 0 0 0 0 0 0 0 0 0 0 0 0 
            </DataArray>
            <DataArray type="Float64" Name="Displacement" NumberOfComponents="3" format="ascii">
               -0.00341409 -0.00369286 -0.0958828  -0.00555033 0.00273221 -0.0892094  -0.00437355 -0.00245943 -0.0754976  -0.0010249 -0.00224725 -0.0829202  -0.00109987 -0.00280505 -0.0822444  -0.00102157 -0.00200667 -0.0860918  0.000733586 -0.000898281 -0.0814037  0.00373013 -0.000578213 -0.0997259  0.00702245 0.000459682 -0.0762794  0.00301269 -0.00586273 -0.0892446  0.000841731 0.000546317 -0.0782622  0.000183023 -0.0032655 -0.0594148  0.00123602 -0.0028961 -0.0623786  0.000865853 -0.00287704 -0.0618069  0.000239218 -0.00334539 -0.0604801  -0.000375998 -0.000312037 -0.0624906  0.000991143 -0.00127921 -0.0723982  0.000540103 0.00149088 -0.100243  -0.00221945 -0.00468494 -0.0755211  -0.00301871 -0.000105862 -0.0594154  -0.00223325 -0.00244064 -0.0151407  -0.000848411 -0.00133857 -0.0213758  -0.000371091 -0.00238215 -0.0205741  0.000977621 -0.0019999 -0.0220385  0.00354345 -0.000387916 -0.0194597  0.00445121 0.000628115 -0.0624409  0.00535212 0.00044714 -0.0813263  -0.00200222 -0.00133605 -0.082959  -0.00266462 0.000960972 -0.0623797  -0.00113388 -0.00105185 -0.0213798  0.000971984 0.000764052 -0.0260309  0.000543388 -0.000662211 -0.0234603  0.000119966 0.000522235 -0.0254004  0.00226459 -1.88597e-05 -0.0221153  0.00371335 0.000400703 -0.0605302  0.00206736 0.000562194 -0.0861277  -0.00258729 -0.00140461 -0.08228  -0.00267522 0.000630808 -0.0618079  -0.00221859 -0.000561438 -0.0205759  -0.000496315 0.000351757 -0.0234597  0.00142378 0.00125479 -0.0212156  0.00363715 -5.64703e-05 -0.0235215  0.00524921 0.00227061 -0.0205272  0.00677335 -0.000620237 -0.0618256  0.00612368 0.00486681 -0.0822448  -0.00182937 -0.0012942 -0.0861352  -0.00319342 5.88728e-05 -0.0604791  -0.00185582 0.000802571 -0.0220447  0.00068966 -6.64879e-05 -0.0254008  0.000135064 0.0034573 -0.0235218  -0.000338785 -0.000563463 -0.0259187  0.00170157 0.00464285 -0.0212898  0.00347887 -0.00156085 -0.0623292  0.00333862 0.00660677 -0.0827809  -0.000715668 0.000527976 -0.0814431  -0.000154067 -0.000505127 -0.0624908  -0.000233941 0.00336099 -0.0194603  0.000151676 0.00210532 -0.022111  0.00246204 0.00507144 -0.0205257  0.00485457 0.00147561 -0.021285  0.00582674 0.00560379 -0.0153118  0.00490698 7.83899e-05 -0.0594082  0.00355918 0.00544142 -0.0754159  -0.000506563 0.00360096 -0.0997642  -0.00120445 0.000912417 -0.0724021  0.000739201 0.00428055 -0.0624466  0.000571972 0.00356738 -0.0605333  -0.000385018 0.00658456 -0.0618304  -0.00127181 0.00324447 -0.062333  0.000375855 0.00465871 -0.0594133  0.00028239 -2.85854e-05 -0.0783968  -0.00213438 0.00515469 -0.0892123  0.000579091 0.0068802 -0.0761452  0.00161425 0.000459518 -0.100267  0.000636977 0.00518173 -0.0812482  0.000839316 0.00187051 -0.0860942  0.00516941 0.00589293 -0.0822017  0.00693085 0.00307168 -0.0827416  0.0057714 0.00329111 -0.0753866  0.00548634 -0.00246506 -0.0891663  0.00375366 0.00337966 -0.0955617  
            </DataArray>
            <DataArray type="Float64" Name="Velocity" NumberOfComponents="3" format="ascii">
               -0.0691512 -0.0701211 -1.27976  -0.10793 0.0585582 -1.20177  -0.103508 -0.0685318 -0.761954  -0.0308972 -0.0569875 -1.0333  -0.0307719 -0.0652424 -0.96627  -0.0286149 -0.0486227 -1.13061  0.0208194 -0.047337 -0.853959  0.0689589 0.0319231 -1.62131  0.212934 -0.066358 -0.00557421  0.0602678 -0.109765 -1.20358  0.00934073 0.00726437 -1.10766  -0.000883069 -0.0533776 -1.01276  0.0163637 -0.0520305 -1.07196  0.0139919 -0.0390422 -1.03989  0.00046232 -0.0621706 -1.01485  -0.0297241 0.0145541 -1.12111  0.0154966 -0.0303909 -0.868959  -0.0560865 0.0531496 -1.69069  -0.0678034 -0.104997 -0.763213  -0.0514625 -0.00316335 -1.01279  -0.0615443 -0.0623676 0.0410743  -0.0255788 -0.0387065 -0.231321  -0.0129065 -0.0580758 -0.130669  0.0186816 -0.0500708 -0.254598  0.0915951 -0.0228351 -0.101837  0.0814248 0.0283688 -1.1181  0.148955 -0.00512575 -0.839675  -0.0557891 -0.0329033 -1.03519  -0.0502055 0.0141175 -1.07189  -0.0374101 -0.0262864 -0.231433  0.0170457 0.0158515 -0.441026  0.00612484 -0.0178361 -0.292955  -0.00257346 0.0109164 -0.411277  0.047945 -0.00467821 -0.258099  0.0626364 0.00775418 -1.01348  0.0412131 0.0133011 -1.13183  -0.0636581 -0.0332141 -0.968091  -0.0366276 0.0123146 -1.03988  -0.0571911 -0.0137845 -0.130703  -0.0171238 0.0050655 -0.293025  0.0281355 0.0267678 -0.184282  0.0822606 -0.00177533 -0.302111  0.119302 0.053374 -0.134672  0.12951 -0.0151529 -1.04173  0.133596 0.119542 -0.971607  -0.0474988 -0.0303338 -1.13268  -0.0604946 -0.000295922 -1.01465  -0.0491712 0.0178019 -0.254907  0.0114897 -0.00354331 -0.411395  -0.000793901 0.0807813 -0.301976  -0.0130537 -0.014353 -0.433612  0.0393984 0.115157 -0.229209  0.0590229 -0.0326738 -1.07285  0.0774264 0.161043 -1.03215  -0.0454636 0.0193326 -0.857465  0.01566 -0.0299217 -1.12116  -0.0218695 0.089334 -0.101886  -0.00385136 0.0471424 -0.257866  0.0542604 0.118699 -0.13457  0.116125 0.0381239 -0.228997  0.137636 0.136863 0.0335338  0.0840172 0.00115653 -1.01036  0.08039 0.11556 -0.75934  0.0319093 0.0684406 -1.6219  -0.0302748 0.0157348 -0.869016  0.0284348 0.0801184 -1.11837  0.00851891 0.0619988 -1.01367  -0.0136177 0.1289 -1.04195  -0.0304769 0.0576152 -1.07301  0.00317506 0.0826503 -1.01053  0.00566179 0.00374283 -1.11258  -0.0530428 0.0900094 -1.2032  -0.0645224 0.210432 -0.00791163  0.0533879 -0.0574438 -1.69525  -0.00447032 0.149381 -0.834248  0.015321 0.0401151 -1.13021  0.121603 0.132273 -0.969329  0.163061 0.075765 -1.03017  0.117547 0.0789415 -0.757863  0.0923097 -0.0552864 -1.20116  0.0655228 0.0618915 -1.26915  
            </DataArray>
            <DataArray type="Float64" Name="Traction" NumberOfComponents="3" format="ascii">
               3.71941 3.72402 -65.4829  0.412879 9.03772 -65.4829  -0.396024 15.0789 -65.4829  -1.19587 14.8931 -65.4829  -0.587886 15.1794 -65.4829  0.341876 17.2086 -65.4829  -6.51815 18.1906 -65.4829  0.0787807 13.1739 -65.4829  -1.0229 2.00362 -65.4829  8.96214 0.424939 -65.4829  2.88932 2.89726 -65.4829  0.68696 5.92534 -65.4829  -0.465651 5.17586 -65.4829  0.065647 4.67756 -65.4829  0.369429 5.65509 -65.4829  -3.37507 7.09333 -65.4829  -3.6043 3.50295 -65.4829  -13.2938 0.934357 -65.4829  14.8827 -0.34273 -65.4829  5.87185 0.688868 -65.4829  0.558354 0.577374 -65.4829  -0.837876 0.429249 -65.4829  -0.154354 0.60711 -65.4829  0.596693 0.889572 -65.4829  -9.25461 1.54883 -65.4829  -6.40402 2.14714 -65.4829  -17.3539 0.72597 -65.4829  14.8197 -1.13402 -65.4829  5.26314 -0.510473 -65.4829  0.419863 -0.847686 -65.4829  -0.385657 -0.378898 -65.4829  -0.14732 -0.307588 -65.4829  0.378558 -0.39426 -65.4829  -6.24836 -0.509075 -65.4829  -5.49916 -0.418829 -65.4829  -17.4245 -0.537795 -65.4829  15.0946 -1.01937 -65.4829  4.91062 0.75816 -65.4829  0.624998 -0.297103 -65.4829  -0.341899 -0.130985 -65.4829  -0.107655 -0.108193 -65.4829  0.411043 -0.278765 -65.4829  -3.96934 -0.120006 -65.4829  -4.02293 -0.323641 -65.4829  -13.8623 1.23412 -65.4829  18.8517 0.351639 -65.4829  6.01286 0.404563 -65.4829  1.12389 0.663261 -65.4829  -0.403573 0.413358 -65.4829  -0.279804 0.4219 -65.4829  0.38352 0.390406 -65.4829  -6.41022 0.96056 -65.4829  -5.05132 0.443144 -65.4829  -14.608 2.42766 -65.4829  18.456 -6.74743 -65.4829  7.60502 -3.34466 -65.4829  1.64213 -10.3439 -65.4829  -0.555512 -6.73078 -65.4829  -0.131039 -4.01093 -65.4829  0.947609 -6.42662 -65.4829  -8.85621 -8.84012 -65.4829  -5.9011 -5.22016 -65.4829  -15.0267 -2.3021 -65.4829  12.7033 -0.0690256 -65.4829  3.52646 -3.60809 -65.4829  2.23547 -6.661 -65.4829  -0.437362 -5.65342 -65.4829  -0.340266 -4.05657 -65.4829  0.426122 -5.06821 -65.4829  -5.23963 -5.89205 -65.4829  -2.87929 -2.86438 -65.4829  -9.01714 -0.554521 -65.4829  1.69584 -0.984929 -65.4829  1.05495 -12.6687 -65.4829  0.641777 -17.1284 -65.4829  -0.568662 -17.4371 -65.4829  1.21247 -13.9622 -65.4829  2.39532 -14.6662 -65.4829  -2.32436 -15.0214 -65.4829  -0.570171 -9.00466 -65.4829  -3.56598 -3.55422 -65.4829  
            </DataArray>
         </PointData> 
      </Piece>
   </UnstructuredGrid> 
</VTKFile>
