<?xml version="1.0"?>
<VTKFile type="UnstructuredGrid" version="0.1" byte_order="LittleEndian">
   <UnstructuredGrid>
      <Piece NumberOfPoints="81" NumberOfCells="0" > 
         <Points> 
            <DataArray type="Float64" Name="Position" NumberOfComponents="3" format="ascii"> 
               0  0  20  
               0.375  0  20  
               0.75  0  20  
               1.125  0  20  
               1.5  0  20  
               1.875  0  20  
               2.25  0  20  
               2.625  0  20  
               3  0  20  
               0  0.375  20  
               0.375  0.375  20  
               0.75  0.375  20  
               1.125  0.375  20  
               1.5  0.375  20  
               1.875  0.375  20  
               2.25  0.375  20  
               2.625  0.375  20  
               3  0.375  20  
               0  0.75  20  
               0.375  0.75  20  
               0.75  0.75  20  
               1.125  0.75  20  
               1.5  0.75  20  
               1.875  0.75  20  
               2.25  0.75  20  
               2.625  0.75  20  
               3  0.75  20  
               0  1.125  20  
               0.375  1.125  20  
               0.75  1.125  20  
               1.125  1.125  20  
               1.5  1.125  20  
               1.875  1.125  20  
               2.25  1.125  20  
               2.625  1.125  20  
               3  1.125  20  
               0  1.5  20  
               0.375  1.5  20  
               0.75  1.5  20  
               1.125  1.5  20  
               1.5  1.5  20  
               1.875  1.5  20  
               2.25  1.5  20  
               2.625  1.5  20  
               3  1.5  20  
               0  1.875  20  
               0.375  1.875  20  
               0.75  1.875  20  
               1.125  1.875  20  
               1.5  1.875  20  
               1.875  1.875  20  
               2.25  1.875  20  
               2.625  1.875  20  
               3  1.875  20  
               0  2.25  20  
               0.375  2.25  20  
               0.75  2.25  20  
               1.125  2.25  20  
               1.5  2.25  20  
               1.875  2.25  20  
               2.25  2.25  20  
               2.625  2.25  20  
               3  2.25  20  
               0  2.625  20  
               0.375  2.625  20  
               0.75  2.625  20  
               1.125  2.625  20  
               1.5  2.625  20  
               1.875  2.625  20  
               2.25  2.625  20  
               2.625  2.625  20  
               3  2.625  20  
               0  3  20  
               0.375  3  20  
               0.75  3  20  
               1.125  3  20  
               1.5  3  20  
               1.875  3  20  
               2.25  3  20  
               2.625  3  20  
               3  3  20  
            </DataArray>
         </Points> 

         <Cells>
            <DataArray type="Int32" Name="connectivity" NumberOfComponents="1" format="ascii">
               
            </DataArray> 
            <DataArray type="Int32" Name="offsets" NumberOfComponents="1" format="ascii">
               
            </DataArray>
            <DataArray type="UInt8"  Name="types" NumberOfComponents="1" format="ascii">
               
            </DataArray>
         </Cells>
         <PointData Scalars="Rank " Vectors="Displacement Velocity Traction ">
            <DataArray type="UInt32" Name="Rank" NumberOfComponents="1" format="ascii">
               0 0 0 0 0 0 0 0 0 0 0 0 0 0 0 0 0 0 0 0 0 0 0 0 0 0 0 0 0 0 0 0 0 0 0 0 0 0 0 0 0 0 0 0 0 0 0 0 0 0 0 0 0 0 0 0 0 0 0 0 0 0 0 0 0 0 0 0 0 0 0 0 0 0 0 0 0 0 0 0 0 
            </DataArray>
            <DataArray type="Float64" Name="Displacement" NumberOfComponents="3" format="ascii">
               0 0 0  0 0 0  0 0 0  0 0 0  0 0 0  0 0 0  0 0 0  0 0 0  0 0 0  0 0 0  0 0 0  0 0 0  0 0 0  0 0 0  0 0 0  0 0 0  0 0 0  0 0 0  0 0 0  0 0 0  0 0 0  0 0 0  0 0 0  0 0 0  0 0 0  0 0 0  0 0 0  0 0 0  0 0 0  0 0 0  0 0 0  0 0 0  0 0 0  0 0 0  0 0 0  0 0 0  0 0 0  0 0 0  0 0 0  0 0 0  0 0 0  0 0 0  0 0 0  0 0 0  0 0 0  0 0 0  0 0 0  0 0 0  0 0 0  0 0 0  0 0 0  0 0 0  0 0 0  0 0 0  0 0 0  0 0 0  0 0 0  0 0 0  0 0 0  0 0 0  0 0 0  0 0 0  0 0 0  0 0 0  0 0 0  0 0 0  0 0 0  0 0 0  0 0 0  0 0 0  0 0 0  0 0 0  0 0 0  0 0 0  0 0 0  0 0 0  0 0 0  0 0 0  0 0 0  0 0 0  0 0 0  
            </DataArray>
            <DataArray type="Float64" Name="Velocity" NumberOfComponents="3" format="ascii">
               0 0 0  0 0 0  0 0 0  0 0 0  0 0 0  0 0 0  0 0 0  0 0 0  0 0 0  0 0 0  0 0 0  0 0 0  0 0 0  0 0 0  0 0 0  0 0 0  0 0 0  0 0 0  0 0 0  0 0 0  0 0 0  0 0 0  0 0 0  0 0 0  0 0 0  0 0 0  0 0 0  0 0 0  0 0 0  0 0 0  0 0 0  0 0 0  0 0 0  0 0 0  0 0 0  0 0 0  0 0 0  0 0 0  0 0 0  0 0 0  0 0 0  0 0 0  0 0 0  0 0 0  0 0 0  0 0 0  0 0 0  0 0 0  0 0 0  0 0 0  0 0 0  0 0 0  0 0 0  0 0 0  0 0 0  0 0 0  0 0 0  0 0 0  0 0 0  0 0 0  0 0 0  0 0 0  0 0 0  0 0 0  0 0 0  0 0 0  0 0 0  0 0 0  0 0 0  0 0 0  0 0 0  0 0 0  0 0 0  0 0 0  0 0 0  0 0 0  0 0 0  0 0 0  0 0 0  0 0 0  0 0 0  
            </DataArray>
            <DataArray type="Float64" Name="Traction" NumberOfComponents="3" format="ascii">
               -0.000204056 -0.000203039 -0.00176164  -0.000141552 -0.000360951 -0.00176164  -8.64758e-05 -0.000461353 -0.00176164  -1.1769e-05 -0.000446697 -0.00176164  -3.00593e-05 -0.000447056 -0.00176164  9.86033e-05 -0.000456878 -0.00176164  0.000332334 -0.000408409 -0.00176164  7.73585e-05 -0.00018939 -0.00176164  -4.61867e-05 -0.000133223 -0.00176164  -0.000362801 -0.000141257 -0.00176164  -0.000239293 -0.000238384 -0.00176164  -0.000121103 -0.000335802 -0.00176164  -3.97821e-05 -0.000351322 -0.00176164  -5.98334e-05 -0.000365322 -0.00176164  4.32485e-05 -0.00033945 -0.00176164  0.00035953 -0.000344875 -0.00176164  0.000213823 -0.000226597 -0.00176164  0.000144988 -0.000169418 -0.00176164  -0.000463344 -8.64797e-05 -0.00176164  -0.000336826 -0.000120875 -0.00176164  -0.000188979 -0.000188618 -0.00176164  -3.51706e-05 -0.000239185 -0.00176164  -3.50477e-05 -0.000245836 -0.00176164  4.14963e-05 -0.000230104 -0.00176164  0.000393684 -0.000230278 -0.00176164  0.000333007 -0.000198743 -0.00176164  0.000379645 -0.000215948 -0.00176164  -0.000448782 -1.13957e-05 -0.00176164  -0.000352442 -3.93714e-05 -0.00176164  -0.00023961 -3.4606e-05 -0.00176164  -7.05475e-05 -6.99336e-05 -0.00176164  -2.82997e-05 -5.92114e-05 -0.00176164  6.66804e-05 -6.97706e-05 -0.00176164  0.000377629 -5.38245e-05 -0.00176164  0.000330629 -5.19989e-05 -0.00176164  0.000432665 -6.05403e-05 -0.00176164  -0.000449158 -2.9567e-05 -0.00176164  -0.000366453 -5.92276e-05 -0.00176164  -0.000246312 -3.43175e-05 -0.00176164  -5.99139e-05 -2.74393e-05 -0.00176164  -4.38274e-05 -4.285e-05 -0.00176164  4.69325e-05 -3.82018e-05 -0.00176164  0.000377882 -3.98149e-05 -0.00176164  0.000337895 -1.87883e-05 -0.00176164  0.00040503 -6.36806e-05 -0.00176164  -0.000458884 9.88465e-05 -0.00176164  -0.000340578 4.36709e-05 -0.00176164  -0.000230535 4.19162e-05 -0.00176164  -7.04062e-05 6.71655e-05 -0.00176164  -3.90601e-05 4.76437e-05 -0.00176164  6.4081e-05 6.46155e-05 -0.00176164  0.000387331 2.26241e-05 -0.00176164  0.00033905 4.12546e-05 -0.00176164  0.000429643 -3.09115e-05 -0.00176164  -0.000410169 0.000331975 -0.00176164  -0.000345849 0.000359119 -0.00176164  -0.000230668 0.000393294 -0.00176164  -5.42861e-05 0.000377245 -0.00176164  -4.05369e-05 0.000377597 -0.00176164  2.21034e-05 0.000386937 -0.00176164  0.000333312 0.000332828 -0.00176164  0.00032347 0.000234568 -0.00176164  0.000438114 0.000179109 -0.00176164  -0.000191034 7.86299e-05 -0.00176164  -0.000227352 0.000214498 -0.00176164  -0.000199126 0.000333711 -0.00176164  -5.2422e-05 0.000331451 -0.00176164  -1.93003e-05 0.000338831 -0.00176164  4.09699e-05 0.000339916 -0.00176164  0.000235112 0.000324064 -0.00176164  0.000230933 0.00023155 -0.00176164  0.000338307 0.000149546 -0.00176164  -0.000134704 -4.34476e-05 -0.00176164  -0.000170104 0.000146914 -0.00176164  -0.000216291 0.000381564 -0.00176164  -6.07571e-05 0.000434834 -0.00176164  -6.42527e-05 0.00040741 -0.00176164  -3.14387e-05 0.000432103 -0.00176164  0.000179811 0.00044024 -0.00176164  0.000149744 0.000340276 -0.00176164  0.000198992 0.000199893 -0.00176164  
            </DataArray>
         </PointData> 
      </Piece>
   </UnstructuredGrid> 
</VTKFile>
