<?xml version="1.0"?>
<VTKFile type="UnstructuredGrid" version="0.1" byte_order="LittleEndian">
   <UnstructuredGrid>
      <Piece NumberOfPoints="81" NumberOfCells="0" > 
         <Points> 
            <DataArray type="Float64" Name="Position" NumberOfComponents="3" format="ascii"> 
               0  0  20  
               0.375  0  20  
               0.75  0  20  
               1.125  0  20  
               1.5  0  20  
               1.875  0  20  
               2.25  0  20  
               2.625  0  20  
               3  0  20  
               0  0.375  20  
               0.375  0.375  20  
               0.75  0.375  20  
               1.125  0.375  20  
               1.5  0.375  20  
               1.875  0.375  20  
               2.25  0.375  20  
               2.625  0.375  20  
               3  0.375  20  
               0  0.75  20  
               0.375  0.75  20  
               0.75  0.75  20  
               1.125  0.75  20  
               1.5  0.75  20  
               1.875  0.75  20  
               2.25  0.75  20  
               2.625  0.75  20  
               3  0.75  20  
               0  1.125  20  
               0.375  1.125  20  
               0.75  1.125  20  
               1.125  1.125  20  
               1.5  1.125  20  
               1.875  1.125  20  
               2.25  1.125  20  
               2.625  1.125  20  
               3  1.125  20  
               0  1.5  20  
               0.375  1.5  20  
               0.75  1.5  20  
               1.125  1.5  20  
               1.5  1.5  20  
               1.875  1.5  20  
               2.25  1.5  20  
               2.625  1.5  20  
               3  1.5  20  
               0  1.875  20  
               0.375  1.875  20  
               0.75  1.875  20  
               1.125  1.875  20  
               1.5  1.875  20  
               1.875  1.875  20  
               2.25  1.875  20  
               2.625  1.875  20  
               3  1.875  20  
               0  2.25  20  
               0.375  2.25  20  
               0.75  2.25  20  
               1.125  2.25  20  
               1.5  2.25  20  
               1.875  2.25  20  
               2.25  2.25  20  
               2.625  2.25  20  
               3  2.25  20  
               0  2.625  20  
               0.375  2.625  20  
               0.75  2.625  20  
               1.125  2.625  20  
               1.5  2.625  20  
               1.875  2.625  20  
               2.25  2.625  20  
               2.625  2.625  20  
               3  2.625  20  
               0  3  20  
               0.375  3  20  
               0.75  3  20  
               1.125  3  20  
               1.5  3  20  
               1.875  3  20  
               2.25  3  20  
               2.625  3  20  
               3  3  20  
            </DataArray>
         </Points> 

         <Cells>
            <DataArray type="Int32" Name="connectivity" NumberOfComponents="1" format="ascii">
               
            </DataArray> 
            <DataArray type="Int32" Name="offsets" NumberOfComponents="1" format="ascii">
               
            </DataArray>
            <DataArray type="UInt8"  Name="types" NumberOfComponents="1" format="ascii">
               
            </DataArray>
         </Cells>
         <PointData Scalars="Rank " Vectors="Displacement Velocity Traction ">
            <DataArray type="UInt32" Name="Rank" NumberOfComponents="1" format="ascii">
               0 0 0 0 0 0 0 0 0 0 0 0 0 0 0 0 0 0 0 0 0 0 0 0 0 0 0 0 0 0 0 0 0 0 0 0 0 0 0 0 0 0 0 0 0 0 0 0 0 0 0 0 0 0 0 0 0 0 0 0 0 0 0 0 0 0 0 0 0 0 0 0 0 0 0 0 0 0 0 0 0 
            </DataArray>
            <DataArray type="Float64" Name="Displacement" NumberOfComponents="3" format="ascii">
               1.88334e-05 1.87751e-05 -6.95912e-05  8.09696e-06 2.44304e-05 -7.20142e-05  3.04486e-06 2.96516e-05 -6.75436e-05  -2.62848e-08 2.9865e-05 -6.57087e-05  -1.93582e-06 2.99829e-05 -6.55029e-05  -5.6473e-06 3.10011e-05 -6.4029e-05  -1.0376e-05 2.85917e-05 -6.67556e-05  -7.51628e-06 1.97955e-05 -7.14089e-05  -1.2124e-05 2.07613e-05 -6.42171e-05  2.44884e-05 8.04773e-06 -7.20446e-05  1.18578e-05 1.18066e-05 -7.1068e-05  5.49202e-06 1.51187e-05 -6.48882e-05  1.76709e-06 1.5722e-05 -6.33049e-05  4.17441e-07 1.67097e-05 -6.31511e-05  -2.13766e-06 1.58898e-05 -6.21446e-05  -9.05097e-06 1.63804e-05 -6.51167e-05  -1.16612e-05 1.21874e-05 -7.31937e-05  -1.88105e-05 1.31376e-05 -7.00324e-05  2.97031e-05 2.99707e-06 -6.75558e-05  1.5157e-05 5.43557e-06 -6.48769e-05  7.74778e-06 7.69801e-06 -5.4843e-05  1.15981e-06 9.2523e-06 -5.20008e-05  -1.10059e-08 9.56251e-06 -5.20179e-05  -1.56486e-06 9.48762e-06 -5.16663e-05  -9.90706e-06 1.01943e-05 -5.48691e-05  -1.56301e-05 8.51068e-06 -6.5281e-05  -2.75983e-05 1.04325e-05 -6.61915e-05  2.99209e-05 -7.79275e-08 -6.57276e-05  1.57675e-05 1.70611e-06 -6.32978e-05  9.30267e-06 1.09784e-06 -5.20062e-05  2.75554e-06 2.69595e-06 -4.80377e-05  7.67624e-08 2.31327e-06 -4.80075e-05  -2.41366e-06 3.03046e-06 -4.80697e-05  -8.94813e-06 2.52661e-06 -5.18571e-05  -1.51102e-05 2.77985e-06 -6.25153e-05  -2.98438e-05 3.95254e-06 -6.39539e-05  3.00384e-05 -1.98705e-06 -6.55231e-05  1.67538e-05 3.59581e-07 -6.31428e-05  9.61503e-06 -7.25958e-08 -5.20227e-05  2.37602e-06 1.59492e-08 -4.80058e-05  5.87499e-07 5.20304e-07 -4.82367e-05  -1.20218e-06 5.3095e-07 -4.79911e-05  -8.39879e-06 1.11493e-06 -5.19432e-05  -1.49277e-05 5.72627e-07 -6.29926e-05  -2.77171e-05 3.26018e-06 -6.48347e-05  3.10625e-05 -5.71855e-06 -6.40469e-05  1.59372e-05 -2.20806e-06 -6.21344e-05  9.54021e-06 -1.6421e-06 -5.1671e-05  3.09279e-06 -2.48922e-06 -4.80684e-05  5.94953e-07 -1.2897e-06 -4.79902e-05  -2.08661e-06 -2.16676e-06 -4.79091e-05  -8.79567e-06 -1.00515e-07 -5.18453e-05  -1.49669e-05 -1.47796e-06 -6.2992e-05  -2.91592e-05 2.8505e-06 -6.4825e-05  2.86362e-05 -1.0454e-05 -6.67744e-05  1.6424e-05 -9.1196e-06 -6.51131e-05  1.02475e-05 -9.98383e-06 -5.48785e-05  2.58818e-06 -9.02193e-06 -5.18617e-05  1.18033e-06 -8.4821e-06 -5.195e-05  -1.56266e-08 -8.87598e-06 -5.18516e-05  -6.9823e-06 -7.05877e-06 -5.48246e-05  -1.43097e-05 -5.49018e-06 -6.49735e-05  -2.87911e-05 -2.7931e-06 -6.70915e-05  1.98389e-05 -7.59652e-06 -7.14094e-05  1.22298e-05 -1.17302e-05 -7.31792e-05  8.56363e-06 -1.57135e-05 -6.52768e-05  2.83863e-06 -1.51934e-05 -6.25039e-05  6.31678e-07 -1.50134e-05 -6.29842e-05  -1.40291e-06 -1.50548e-05 -6.29843e-05  -5.40923e-06 -1.43804e-05 -6.49614e-05  -1.12553e-05 -1.13372e-05 -7.12945e-05  -2.36047e-05 -8.32928e-06 -7.17366e-05  2.07952e-05 -1.22162e-05 -6.42464e-05  1.3177e-05 -1.88862e-05 -7.00522e-05  1.04956e-05 -2.76951e-05 -6.62327e-05  4.01871e-06 -2.99545e-05 -6.39933e-05  3.32526e-06 -2.78229e-05 -6.48784e-05  2.93182e-06 -2.92723e-05 -6.4866e-05  -2.72277e-06 -2.88865e-05 -6.71159e-05  -8.25204e-06 -2.36884e-05 -7.17785e-05  -1.87134e-05 -1.8808e-05 -6.89937e-05  
            </DataArray>
            <DataArray type="Float64" Name="Velocity" NumberOfComponents="3" format="ascii">
               2.40472e-05 2.40436e-05 -9.28154e-05  1.17049e-05 3.06819e-05 -9.69839e-05  5.04013e-06 3.74686e-05 -9.1434e-05  1.83175e-07 3.75658e-05 -8.93706e-05  -2.59166e-06 3.7807e-05 -8.91928e-05  -8.15316e-06 3.91335e-05 -8.6973e-05  -1.42913e-05 3.59528e-05 -9.06382e-05  -9.40479e-06 2.47181e-05 -9.62639e-05  -1.41318e-05 2.60654e-05 -8.48145e-05  3.08324e-05 1.17183e-05 -9.7087e-05  1.58244e-05 1.57318e-05 -9.73973e-05  7.92147e-06 1.98967e-05 -8.98425e-05  2.60259e-06 2.06368e-05 -8.80002e-05  5.96292e-07 2.21019e-05 -8.79201e-05  -3.25224e-06 2.08761e-05 -8.63541e-05  -1.30133e-05 2.15705e-05 -9.03171e-05  -1.57136e-05 1.63197e-05 -0.000100302  -2.34578e-05 1.71543e-05 -9.43925e-05  3.76083e-05 5.00306e-06 -9.15588e-05  1.9979e-05 7.8594e-06 -8.98526e-05  1.07006e-05 1.06432e-05 -7.76934e-05  1.72015e-06 1.26722e-05 -7.42352e-05  4.60352e-09 1.31753e-05 -7.44358e-05  -2.3451e-06 1.30508e-05 -7.37685e-05  -1.38706e-05 1.40579e-05 -7.78597e-05  -2.07792e-05 1.20467e-05 -9.05035e-05  -3.48263e-05 1.42381e-05 -8.9861e-05  3.77076e-05 7.46864e-08 -8.94701e-05  2.07161e-05 2.50081e-06 -8.79851e-05  1.27215e-05 1.61689e-06 -7.42134e-05  3.91825e-06 3.82584e-06 -6.92408e-05  3.36835e-08 3.38369e-06 -6.93603e-05  -3.57004e-06 4.36663e-06 -6.92985e-05  -1.24072e-05 3.67059e-06 -7.40928e-05  -1.99192e-05 4.04724e-06 -8.69056e-05  -3.76851e-05 5.69961e-06 -8.69032e-05  3.79453e-05 -2.70705e-06 -8.92949e-05  2.21832e-05 4.72009e-07 -8.79036e-05  1.32314e-05 -1.22292e-07 -7.44177e-05  3.48279e-06 -9.37994e-08 -6.93653e-05  8.18895e-07 6.79998e-07 -6.97813e-05  -1.88136e-06 7.1917e-07 -6.93335e-05  -1.16465e-05 1.47138e-06 -7.43154e-05  -1.97302e-05 7.34668e-07 -8.76999e-05  -3.48037e-05 4.29277e-06 -8.826e-05  3.92699e-05 -8.25328e-06 -8.70875e-05  2.09673e-05 -3.38015e-06 -8.63544e-05  1.31136e-05 -2.46208e-06 -7.37648e-05  4.47092e-06 -3.68661e-06 -6.93195e-05  8.5613e-07 -2.0229e-06 -6.93495e-05  -3.03184e-06 -3.15965e-06 -6.90734e-05  -1.20948e-05 -4.46225e-07 -7.39854e-05  -1.96644e-05 -2.30695e-06 -8.75257e-05  -3.66601e-05 3.57138e-06 -8.81168e-05  3.61069e-05 -1.44025e-05 -9.07366e-05  2.16826e-05 -1.31027e-05 -9.03039e-05  1.41423e-05 -1.3949e-05 -7.78352e-05  3.78512e-06 -1.24752e-05 -7.40811e-05  1.62314e-06 -1.17362e-05 -7.4307e-05  -2.81815e-07 -1.21724e-05 -7.39625e-05  -9.78672e-06 -9.88767e-06 -7.7675e-05  -1.88013e-05 -8.05932e-06 -8.99422e-05  -3.62704e-05 -4.82025e-06 -9.07606e-05  2.49021e-05 -9.62087e-06 -9.63529e-05  1.64441e-05 -1.58508e-05 -0.000100291  1.21541e-05 -2.09268e-05 -9.0493e-05  4.18977e-06 -2.00522e-05 -8.68961e-05  8.90369e-07 -1.98731e-05 -8.76918e-05  -2.14685e-06 -1.98027e-05 -8.75071e-05  -7.94354e-06 -1.89437e-05 -8.99439e-05  -1.50478e-05 -1.52194e-05 -9.76739e-05  -2.95886e-05 -1.21368e-05 -9.65667e-05  2.62252e-05 -1.44295e-05 -8.50622e-05  1.72996e-05 -2.3658e-05 -9.45198e-05  1.43704e-05 -3.5041e-05 -8.99993e-05  5.83405e-06 -3.78905e-05 -8.70521e-05  4.4717e-06 -3.50211e-05 -8.84275e-05  3.77234e-06 -3.6907e-05 -8.82724e-05  -4.73399e-06 -3.6515e-05 -9.09345e-05  -1.21208e-05 -2.98463e-05 -9.6734e-05  -2.40979e-05 -2.41486e-05 -9.20617e-05  
            </DataArray>
            <DataArray type="Float64" Name="Traction" NumberOfComponents="3" format="ascii">
               -0.000138787 -0.000138356 -0.00117361  -8.8562e-05 -0.000245207 -0.00117361  -5.24933e-05 -0.000310704 -0.00117361  -7.24778e-06 -0.000300947 -0.00117361  -1.74901e-05 -0.000301297 -0.00117361  6.05609e-05 -0.000307655 -0.00117361  0.000209136 -0.000277364 -0.00117361  5.5676e-05 -0.000136173 -0.00117361  -1.16154e-05 -0.000100719 -0.00117361  -0.000245618 -8.87903e-05 -0.00117361  -0.00015579 -0.00015592 -0.00117361  -7.52423e-05 -0.00022036 -0.00117361  -2.43073e-05 -0.00023008 -0.00117361  -3.62198e-05 -0.000238773 -0.00117361  2.66117e-05 -0.000222956 -0.00117361  0.000226823 -0.000226029 -0.00117361  0.000140131 -0.000148438 -0.00117361  0.000108028 -0.000113525 -0.00117361  -0.000311071 -5.27969e-05 -0.00117361  -0.000220179 -7.54363e-05 -0.00117361  -0.000119392 -0.000119532 -0.00117361  -2.17417e-05 -0.000151674 -0.00117361  -2.1423e-05 -0.000155789 -0.00117361  2.59195e-05 -0.000146213 -0.00117361  0.000252209 -0.000145933 -0.00117361  0.000217707 -0.000123964 -0.00117361  0.000258115 -0.000135852 -0.00117361  -0.000301405 -7.65032e-06 -0.00117361  -0.000229997 -2.46088e-05 -0.00117361  -0.000151558 -2.19396e-05 -0.00117361  -4.37256e-05 -4.39509e-05 -0.00117361  -1.75919e-05 -3.70768e-05 -0.00117361  4.17914e-05 -4.36769e-05 -0.00117361  0.00024382 -3.3693e-05 -0.00117361  0.000217222 -3.22111e-05 -0.00117361  0.000291713 -3.76767e-05 -0.00117361  -0.000301723 -1.80627e-05 -0.00117361  -0.000238621 -3.6719e-05 -0.00117361  -0.000155671 -2.17924e-05 -0.00117361  -3.68754e-05 -1.79645e-05 -0.00117361  -2.71072e-05 -2.74589e-05 -0.00117361  2.93494e-05 -2.42947e-05 -0.00117361  0.000243616 -2.54086e-05 -0.00117361  0.000221561 -1.18738e-05 -0.00117361  0.000274473 -4.08535e-05 -0.00117361  -0.000308161 6.0173e-05 -0.00117361  -0.000222847 2.6264e-05 -0.00117361  -0.000146077 2.56519e-05 -0.00117361  -4.34421e-05 4.15188e-05 -0.00117361  -2.38668e-05 2.91753e-05 -0.00117361  4.05695e-05 4.02541e-05 -0.00117361  0.00024989 1.3256e-05 -0.00117361  0.000222491 2.50021e-05 -0.00117361  0.000290007 -1.97512e-05 -0.00117361  -0.000277433 0.000208373 -0.00117361  -0.000225719 0.000226018 -0.00117361  -0.000145686 0.000251334 -0.00117361  -3.33633e-05 0.000242885 -0.00117361  -2.49636e-05 0.000242724 -0.00117361  1.3546e-05 0.000248977 -0.00117361  0.000214384 0.000213484 -0.00117361  0.000212828 0.000147295 -0.00117361  0.000296451 0.000109833 -0.00117361  -0.000136074 5.53924e-05 -0.00117361  -0.000148048 0.000139737 -0.00117361  -0.000123707 0.000217383 -0.00117361  -3.17903e-05 0.000216971 -0.00117361  -1.12768e-05 0.000221261 -0.00117361  2.54794e-05 0.000222199 -0.00117361  0.000148214 0.000212252 -0.00117361  0.000150945 0.000150504 -0.00117361  0.000230807 9.29675e-05 -0.00117361  -0.000100379 -1.13441e-05 -0.00117361  -0.000112908 0.000108128 -0.00117361  -0.000135523 0.000258456 -0.00117361  -3.72018e-05 0.000292373 -0.00117361  -4.02509e-05 0.000275032 -0.00117361  -1.94028e-05 0.000290578 -0.00117361  0.000110943 0.000296601 -0.00117361  9.34439e-05 0.000230892 -0.00117361  0.000134799 0.000135084 -0.00117361  
            </DataArray>
         </PointData> 
      </Piece>
   </UnstructuredGrid> 
</VTKFile>
