<?xml version="1.0"?>
<VTKFile type="UnstructuredGrid" version="0.1" byte_order="LittleEndian">
   <UnstructuredGrid>
      <Piece NumberOfPoints="81" NumberOfCells="0" > 
         <Points> 
            <DataArray type="Float64" Name="Position" NumberOfComponents="3" format="ascii"> 
               0  0  15  
               0.375  0  15  
               0.75  0  15  
               1.125  0  15  
               1.5  0  15  
               1.875  0  15  
               2.25  0  15  
               2.625  0  15  
               3  0  15  
               0  0.375  15  
               0.375  0.375  15  
               0.75  0.375  15  
               1.125  0.375  15  
               1.5  0.375  15  
               1.875  0.375  15  
               2.25  0.375  15  
               2.625  0.375  15  
               3  0.375  15  
               0  0.75  15  
               0.375  0.75  15  
               0.75  0.75  15  
               1.125  0.75  15  
               1.5  0.75  15  
               1.875  0.75  15  
               2.25  0.75  15  
               2.625  0.75  15  
               3  0.75  15  
               0  1.125  15  
               0.375  1.125  15  
               0.75  1.125  15  
               1.125  1.125  15  
               1.5  1.125  15  
               1.875  1.125  15  
               2.25  1.125  15  
               2.625  1.125  15  
               3  1.125  15  
               0  1.5  15  
               0.375  1.5  15  
               0.75  1.5  15  
               1.125  1.5  15  
               1.5  1.5  15  
               1.875  1.5  15  
               2.25  1.5  15  
               2.625  1.5  15  
               3  1.5  15  
               0  1.875  15  
               0.375  1.875  15  
               0.75  1.875  15  
               1.125  1.875  15  
               1.5  1.875  15  
               1.875  1.875  15  
               2.25  1.875  15  
               2.625  1.875  15  
               3  1.875  15  
               0  2.25  15  
               0.375  2.25  15  
               0.75  2.25  15  
               1.125  2.25  15  
               1.5  2.25  15  
               1.875  2.25  15  
               2.25  2.25  15  
               2.625  2.25  15  
               3  2.25  15  
               0  2.625  15  
               0.375  2.625  15  
               0.75  2.625  15  
               1.125  2.625  15  
               1.5  2.625  15  
               1.875  2.625  15  
               2.25  2.625  15  
               2.625  2.625  15  
               3  2.625  15  
               0  3  15  
               0.375  3  15  
               0.75  3  15  
               1.125  3  15  
               1.5  3  15  
               1.875  3  15  
               2.25  3  15  
               2.625  3  15  
               3  3  15  
            </DataArray>
         </Points> 

         <Cells>
            <DataArray type="Int32" Name="connectivity" NumberOfComponents="1" format="ascii">
               
            </DataArray> 
            <DataArray type="Int32" Name="offsets" NumberOfComponents="1" format="ascii">
               
            </DataArray>
            <DataArray type="UInt8"  Name="types" NumberOfComponents="1" format="ascii">
               
            </DataArray>
         </Cells>
         <PointData Scalars="Rank " Vectors="Displacement Velocity Traction ">
            <DataArray type="UInt32" Name="Rank" NumberOfComponents="1" format="ascii">
               0 0 0 0 0 0 0 0 0 0 0 0 0 0 0 0 0 0 0 0 0 0 0 0 0 0 0 0 0 0 0 0 0 0 0 0 0 0 0 0 0 0 0 0 0 0 0 0 0 0 0 0 0 0 0 0 0 0 0 0 0 0 0 0 0 0 0 0 0 0 0 0 0 0 0 0 0 0 0 0 0 
            </DataArray>
            <DataArray type="Float64" Name="Displacement" NumberOfComponents="3" format="ascii">
               0 0 0  0 0 0  0 0 0  0 0 0  0 0 0  0 0 0  0 0 0  0 0 0  0 0 0  0 0 0  0 0 0  0 0 0  0 0 0  0 0 0  0 0 0  0 0 0  0 0 0  0 0 0  0 0 0  0 0 0  0 0 0  0 0 0  0 0 0  0 0 0  0 0 0  0 0 0  0 0 0  0 0 0  0 0 0  0 0 0  0 0 0  0 0 0  0 0 0  0 0 0  0 0 0  0 0 0  0 0 0  0 0 0  0 0 0  0 0 0  0 0 0  0 0 0  0 0 0  0 0 0  0 0 0  0 0 0  0 0 0  0 0 0  0 0 0  0 0 0  0 0 0  0 0 0  0 0 0  0 0 0  0 0 0  0 0 0  0 0 0  0 0 0  0 0 0  0 0 0  0 0 0  0 0 0  0 0 0  0 0 0  0 0 0  0 0 0  0 0 0  0 0 0  0 0 0  0 0 0  0 0 0  0 0 0  0 0 0  0 0 0  0 0 0  0 0 0  0 0 0  0 0 0  0 0 0  0 0 0  0 0 0  
            </DataArray>
            <DataArray type="Float64" Name="Velocity" NumberOfComponents="3" format="ascii">
               0 0 0  0 0 0  0 0 0  0 0 0  0 0 0  0 0 0  0 0 0  0 0 0  0 0 0  0 0 0  0 0 0  0 0 0  0 0 0  0 0 0  0 0 0  0 0 0  0 0 0  0 0 0  0 0 0  0 0 0  0 0 0  0 0 0  0 0 0  0 0 0  0 0 0  0 0 0  0 0 0  0 0 0  0 0 0  0 0 0  0 0 0  0 0 0  0 0 0  0 0 0  0 0 0  0 0 0  0 0 0  0 0 0  0 0 0  0 0 0  0 0 0  0 0 0  0 0 0  0 0 0  0 0 0  0 0 0  0 0 0  0 0 0  0 0 0  0 0 0  0 0 0  0 0 0  0 0 0  0 0 0  0 0 0  0 0 0  0 0 0  0 0 0  0 0 0  0 0 0  0 0 0  0 0 0  0 0 0  0 0 0  0 0 0  0 0 0  0 0 0  0 0 0  0 0 0  0 0 0  0 0 0  0 0 0  0 0 0  0 0 0  0 0 0  0 0 0  0 0 0  0 0 0  0 0 0  0 0 0  0 0 0  
            </DataArray>
            <DataArray type="Float64" Name="Traction" NumberOfComponents="3" format="ascii">
               5.42771e-09 -2.91553e-09 -3.88926e-08  2.67381e-08 5.6275e-08 -3.88926e-08  -4.88674e-09 1.07798e-07 -3.88926e-08  -4.12867e-08 9.89147e-09 -3.88926e-08  -8.63128e-09 -8.44104e-08 -3.88926e-08  1.96434e-08 -4.78135e-08 -3.88926e-08  8.54842e-09 -9.68794e-09 -3.88926e-08  -1.26734e-09 -1.06388e-08 -3.88926e-08  1.7702e-08 -1.39631e-08 -3.88926e-08  -2.94612e-09 1.01806e-08 -3.88926e-08  7.87122e-10 -9.04197e-09 -3.88926e-08  1.03886e-09 -2.59212e-08 -3.88926e-08  7.67763e-10 1.63092e-09 -3.88926e-08  -1.68769e-09 2.99538e-08 -3.88926e-08  -3.68467e-09 1.4734e-08 -3.88926e-08  6.32439e-10 -2.08292e-09 -3.88926e-08  3.14023e-09 -1.18831e-10 -3.88926e-08  3.92857e-09 5.43098e-09 -3.88926e-08  6.06204e-09 -8.76827e-10 -3.88926e-08  -1.32731e-08 1.51901e-09 -3.88926e-08  4.02574e-09 4.47919e-09 -3.88926e-08  2.08358e-08 1.50908e-09 -3.88926e-08  1.90691e-09 -1.35019e-09 -3.88926e-08  -1.61504e-08 9.56803e-10 -3.88926e-08  -4.35305e-09 2.25416e-09 -3.88926e-08  6.33577e-09 -2.99381e-10 -3.88926e-08  -5.36959e-09 -2.97455e-09 -3.88926e-08  -1.50384e-08 -1.28685e-08 -3.88926e-08  -3.55719e-09 2.66151e-09 -3.88926e-08  3.88546e-09 1.1854e-08 -3.88926e-08  1.37964e-08 2.87168e-09 -3.88926e-08  9.56313e-11 -8.70776e-09 -3.88926e-08  -9.02762e-09 -1.71911e-09 -3.88926e-08  -2.89423e-09 7.19508e-09 -3.88926e-08  -1.31967e-09 1.35317e-09 -3.88926e-08  1.02024e-08 -8.75449e-09 -3.88926e-08  -3.41799e-08 1.96723e-09 -3.88926e-08  8.25111e-09 3.09438e-09 -3.88926e-08  1.41209e-09 3.11878e-09 -3.88926e-08  2.53458e-09 -1.43501e-09 -3.88926e-08  -2.53131e-09 -5.08831e-09 -3.88926e-08  4.77896e-10 -1.00049e-09 -3.88926e-08  -1.68622e-10 3.44171e-09 -3.88926e-08  -9.30978e-09 1.25593e-09 -3.88926e-08  2.4737e-08 -1.20349e-09 -3.88926e-08  -4.60133e-09 1.47474e-08 -3.88926e-08  2.10122e-09 3.95609e-09 -3.88926e-08  2.49133e-10 9.55209e-10 -3.88926e-08  -4.27128e-10 -3.79889e-09 -3.88926e-08  -3.3906e-10 -5.25627e-09 -3.88926e-08  4.12169e-09 -1.25794e-09 -3.88926e-08  -2.9783e-10 9.48505e-10 -3.88926e-08  -8.72127e-09 1.81231e-09 -3.88926e-08  1.61229e-08 4.49239e-09 -3.88926e-08  3.45682e-08 2.57994e-09 -3.88926e-08  -2.89458e-09 -4.37111e-09 -3.88926e-08  8.53435e-10 -3.55975e-09 -3.88926e-08  -5.18895e-09 -2.69633e-09 -3.88926e-08  1.54815e-09 -5.86914e-10 -3.88926e-08  8.23096e-09 -1.71904e-09 -3.88926e-08  1.68941e-09 -2.05141e-09 -3.88926e-08  -6.89605e-09 -1.01206e-09 -3.88926e-08  8.73182e-09 3.46237e-09 -3.88926e-08  5.34856e-08 1.27984e-09 -3.88926e-08  -6.27253e-10 4.59822e-09 -3.88926e-08  2.01046e-09 8.52223e-09 -3.88926e-08  -7.49653e-09 1.16491e-09 -3.88926e-08  2.91045e-10 -6.61051e-09 -3.88926e-08  8.60936e-09 -3.86781e-09 -3.88926e-08  8.0139e-10 5.2078e-10 -3.88926e-08  -1.10633e-09 4.05652e-09 -3.88926e-08  -1.94653e-08 1.4896e-08 -3.88926e-08  4.10728e-08 -3.09768e-08 -3.88926e-08  6.01352e-09 -4.05399e-08 -3.88926e-08  -3.03706e-09 -5.42657e-08 -3.88926e-08  -2.32408e-08 -4.26994e-09 -3.88926e-08  -2.5078e-09 4.55224e-08 -3.88926e-08  1.74907e-08 9.79848e-09 -3.88926e-08  5.0421e-09 -3.46799e-08 -3.88926e-08  7.05012e-09 -6.3556e-08 -3.88926e-08  -5.60691e-08 -5.53275e-08 -3.88926e-08  
            </DataArray>
         </PointData> 
      </Piece>
   </UnstructuredGrid> 
</VTKFile>
