<?xml version="1.0"?>
<VTKFile type="UnstructuredGrid" version="0.1" byte_order="LittleEndian">
   <UnstructuredGrid>
      <Piece NumberOfPoints="81" NumberOfCells="0" > 
         <Points> 
            <DataArray type="Float64" Name="Position" NumberOfComponents="3" format="ascii"> 
               0  0  15  
               0.375  0  15  
               0.75  0  15  
               1.125  0  15  
               1.5  0  15  
               1.875  0  15  
               2.25  0  15  
               2.625  0  15  
               3  0  15  
               0  0.375  15  
               0.375  0.375  15  
               0.75  0.375  15  
               1.125  0.375  15  
               1.5  0.375  15  
               1.875  0.375  15  
               2.25  0.375  15  
               2.625  0.375  15  
               3  0.375  15  
               0  0.75  15  
               0.375  0.75  15  
               0.75  0.75  15  
               1.125  0.75  15  
               1.5  0.75  15  
               1.875  0.75  15  
               2.25  0.75  15  
               2.625  0.75  15  
               3  0.75  15  
               0  1.125  15  
               0.375  1.125  15  
               0.75  1.125  15  
               1.125  1.125  15  
               1.5  1.125  15  
               1.875  1.125  15  
               2.25  1.125  15  
               2.625  1.125  15  
               3  1.125  15  
               0  1.5  15  
               0.375  1.5  15  
               0.75  1.5  15  
               1.125  1.5  15  
               1.5  1.5  15  
               1.875  1.5  15  
               2.25  1.5  15  
               2.625  1.5  15  
               3  1.5  15  
               0  1.875  15  
               0.375  1.875  15  
               0.75  1.875  15  
               1.125  1.875  15  
               1.5  1.875  15  
               1.875  1.875  15  
               2.25  1.875  15  
               2.625  1.875  15  
               3  1.875  15  
               0  2.25  15  
               0.375  2.25  15  
               0.75  2.25  15  
               1.125  2.25  15  
               1.5  2.25  15  
               1.875  2.25  15  
               2.25  2.25  15  
               2.625  2.25  15  
               3  2.25  15  
               0  2.625  15  
               0.375  2.625  15  
               0.75  2.625  15  
               1.125  2.625  15  
               1.5  2.625  15  
               1.875  2.625  15  
               2.25  2.625  15  
               2.625  2.625  15  
               3  2.625  15  
               0  3  15  
               0.375  3  15  
               0.75  3  15  
               1.125  3  15  
               1.5  3  15  
               1.875  3  15  
               2.25  3  15  
               2.625  3  15  
               3  3  15  
            </DataArray>
         </Points> 

         <Cells>
            <DataArray type="Int32" Name="connectivity" NumberOfComponents="1" format="ascii">
               
            </DataArray> 
            <DataArray type="Int32" Name="offsets" NumberOfComponents="1" format="ascii">
               
            </DataArray>
            <DataArray type="UInt8"  Name="types" NumberOfComponents="1" format="ascii">
               
            </DataArray>
         </Cells>
         <PointData Scalars="Rank " Vectors="Displacement Velocity Traction ">
            <DataArray type="UInt32" Name="Rank" NumberOfComponents="1" format="ascii">
               0 0 0 0 0 0 0 0 0 0 0 0 0 0 0 0 0 0 0 0 0 0 0 0 0 0 0 0 0 0 0 0 0 0 0 0 0 0 0 0 0 0 0 0 0 0 0 0 0 0 0 0 0 0 0 0 0 0 0 0 0 0 0 0 0 0 0 0 0 0 0 0 0 0 0 0 0 0 0 0 0 
            </DataArray>
            <DataArray type="Float64" Name="Displacement" NumberOfComponents="3" format="ascii">
               0 0 0  0 0 0  0 0 0  0 0 0  0 0 0  0 0 0  0 0 0  0 0 0  0 0 0  0 0 0  0 0 0  0 0 0  0 0 0  0 0 0  0 0 0  0 0 0  0 0 0  0 0 0  0 0 0  0 0 0  0 0 0  0 0 0  0 0 0  0 0 0  0 0 0  0 0 0  0 0 0  0 0 0  0 0 0  0 0 0  0 0 0  0 0 0  0 0 0  0 0 0  0 0 0  0 0 0  0 0 0  0 0 0  0 0 0  0 0 0  0 0 0  0 0 0  0 0 0  0 0 0  0 0 0  0 0 0  0 0 0  0 0 0  0 0 0  0 0 0  0 0 0  0 0 0  0 0 0  0 0 0  0 0 0  0 0 0  0 0 0  0 0 0  0 0 0  0 0 0  0 0 0  0 0 0  0 0 0  0 0 0  0 0 0  0 0 0  0 0 0  0 0 0  0 0 0  0 0 0  0 0 0  0 0 0  0 0 0  0 0 0  0 0 0  0 0 0  0 0 0  0 0 0  0 0 0  0 0 0  0 0 0  
            </DataArray>
            <DataArray type="Float64" Name="Velocity" NumberOfComponents="3" format="ascii">
               0 0 0  0 0 0  0 0 0  0 0 0  0 0 0  0 0 0  0 0 0  0 0 0  0 0 0  0 0 0  0 0 0  0 0 0  0 0 0  0 0 0  0 0 0  0 0 0  0 0 0  0 0 0  0 0 0  0 0 0  0 0 0  0 0 0  0 0 0  0 0 0  0 0 0  0 0 0  0 0 0  0 0 0  0 0 0  0 0 0  0 0 0  0 0 0  0 0 0  0 0 0  0 0 0  0 0 0  0 0 0  0 0 0  0 0 0  0 0 0  0 0 0  0 0 0  0 0 0  0 0 0  0 0 0  0 0 0  0 0 0  0 0 0  0 0 0  0 0 0  0 0 0  0 0 0  0 0 0  0 0 0  0 0 0  0 0 0  0 0 0  0 0 0  0 0 0  0 0 0  0 0 0  0 0 0  0 0 0  0 0 0  0 0 0  0 0 0  0 0 0  0 0 0  0 0 0  0 0 0  0 0 0  0 0 0  0 0 0  0 0 0  0 0 0  0 0 0  0 0 0  0 0 0  0 0 0  0 0 0  0 0 0  
            </DataArray>
            <DataArray type="Float64" Name="Traction" NumberOfComponents="3" format="ascii">
               4.88662e-06 4.78752e-06 -5.69964e-07  -9.19314e-07 2.50153e-06 -5.69964e-07  -8.10866e-08 2.06233e-07 -5.69964e-07  -1.58287e-07 -1.45644e-07 -5.69964e-07  -1.27018e-07 -1.00326e-06 -5.69964e-07  2.34408e-07 -8.2335e-07 -5.69964e-07  8.0899e-08 -3.73125e-07 -5.69964e-07  -2.71763e-07 -8.17454e-07 -5.69964e-07  1.19891e-06 -1.34983e-06 -5.69964e-07  2.52218e-06 -1.18462e-06 -5.69964e-07  -1.20784e-08 -2.61448e-07 -5.69964e-07  8.15888e-08 5.63417e-09 -5.69964e-07  -3.94355e-08 2.33674e-07 -5.69964e-07  -7.25291e-08 2.58371e-07 -5.69964e-07  -4.77813e-08 6.03721e-08 -5.69964e-07  2.70686e-08 -8.64036e-08 -5.69964e-07  1.8361e-08 -3.37078e-08 -5.69964e-07  8.619e-07 1.57459e-07 -5.69964e-07  -5.38604e-07 -1.62914e-07 -5.69964e-07  1.89324e-07 1.4116e-07 -5.69964e-07  3.48426e-09 2.51226e-10 -5.69964e-07  -6.6746e-08 1.53894e-07 -5.69964e-07  -1.86594e-07 1.93908e-07 -5.69964e-07  -2.49536e-07 1.03934e-07 -5.69964e-07  -3.57401e-08 5.00103e-08 -5.69964e-07  1.20424e-07 -1.79659e-08 -5.69964e-07  1.68859e-07 1.44389e-07 -5.69964e-07  -4.5237e-07 2.72096e-07 -5.69964e-07  1.00525e-08 1.11253e-08 -5.69964e-07  1.29876e-07 -1.79278e-07 -5.69964e-07  2.29546e-07 8.70662e-08 -5.69964e-07  -8.56034e-08 3.82799e-07 -5.69964e-07  -3.04818e-07 4.03689e-07 -5.69964e-07  -9.22421e-08 4.17392e-07 -5.69964e-07  3.73072e-08 2.7901e-07 -5.69964e-07  -7.73721e-07 4.06483e-07 -5.69964e-07  -1.49713e-07 1.25351e-07 -5.69964e-07  -1.40408e-07 5.71247e-09 -5.69964e-07  1.6926e-07 4.56134e-08 -5.69964e-07  5.19384e-07 3.17289e-08 -5.69964e-07  4.95995e-08 4.9533e-08 -5.69964e-07  -2.89021e-07 1.2925e-07 -5.69964e-07  -1.78944e-07 1.32344e-07 -5.69964e-07  -8.15095e-08 7.43835e-08 -5.69964e-07  -1.59079e-06 3.33029e-08 -5.69964e-07  5.29691e-07 8.38816e-08 -5.69964e-07  1.03247e-07 1.67674e-07 -5.69964e-07  1.33013e-07 3.96814e-07 -5.69964e-07  1.65745e-07 -7.05287e-09 -5.69964e-07  -7.04562e-09 -3.8522e-07 -5.69964e-07  -1.87082e-07 -2.95495e-07 -5.69964e-07  -1.54313e-07 -2.74957e-07 -5.69964e-07  -1.35677e-07 -2.15955e-07 -5.69964e-07  -3.98331e-07 -4.51938e-07 -5.69964e-07  9.60448e-07 -1.6011e-07 -5.69964e-07  2.69874e-07 -4.607e-08 -5.69964e-07  9.41581e-08 -6.18961e-09 -5.69964e-07  -2.01221e-07 -5.96269e-08 -5.69964e-07  -9.32109e-08 -1.14858e-07 -5.69964e-07  -9.14207e-08 -5.44943e-08 -5.69964e-07  -9.17975e-08 -1.73778e-08 -5.69964e-07  -1.60998e-07 -1.96104e-08 -5.69964e-07  7.7759e-07 -7.99484e-08 -5.69964e-07  4.09971e-07 -2.7392e-07 -5.69964e-07  2.03714e-07 -3.25331e-07 -5.69964e-07  1.37604e-07 -4.87315e-07 -5.69964e-07  3.38644e-08 -2.61191e-07 -5.69964e-07  1.09684e-08 -5.85069e-08 -5.69964e-07  -6.81653e-08 -5.08132e-08 -5.69964e-07  -1.09098e-07 1.93024e-08 -5.69964e-07  -1.96245e-07 2.44494e-08 -5.69964e-07  2.39765e-07 1.54467e-07 -5.69964e-07  -3.01899e-08 -1.29476e-08 -5.69964e-07  7.19501e-08 3.13531e-07 -5.69964e-07  2.29987e-07 6.1416e-07 -5.69964e-07  4.65381e-07 2.10766e-07 -5.69964e-07  2.33778e-07 -3.22398e-07 -5.69964e-07  -8.16575e-08 -3.13384e-07 -5.69964e-07  -2.04776e-07 -1.42252e-07 -5.69964e-07  -2.71118e-07 -1.02975e-07 -5.69964e-07  -3.99987e-07 -6.89943e-08 -5.69964e-07  
            </DataArray>
         </PointData> 
      </Piece>
   </UnstructuredGrid> 
</VTKFile>
