<?xml version="1.0"?>
<VTKFile type="UnstructuredGrid" version="0.1" byte_order="LittleEndian">
   <UnstructuredGrid>
      <Piece NumberOfPoints="81" NumberOfCells="0" > 
         <Points> 
            <DataArray type="Float64" Name="Position" NumberOfComponents="3" format="ascii"> 
               0  0  15  
               0.375  0  15  
               0.75  0  15  
               1.125  0  15  
               1.5  0  15  
               1.875  0  15  
               2.25  0  15  
               2.625  0  15  
               3  0  15  
               0  0.375  15  
               0.375  0.375  15  
               0.75  0.375  15  
               1.125  0.375  15  
               1.5  0.375  15  
               1.875  0.375  15  
               2.25  0.375  15  
               2.625  0.375  15  
               3  0.375  15  
               0  0.75  15  
               0.375  0.75  15  
               0.75  0.75  15  
               1.125  0.75  15  
               1.5  0.75  15  
               1.875  0.75  15  
               2.25  0.75  15  
               2.625  0.75  15  
               3  0.75  15  
               0  1.125  15  
               0.375  1.125  15  
               0.75  1.125  15  
               1.125  1.125  15  
               1.5  1.125  15  
               1.875  1.125  15  
               2.25  1.125  15  
               2.625  1.125  15  
               3  1.125  15  
               0  1.5  15  
               0.375  1.5  15  
               0.75  1.5  15  
               1.125  1.5  15  
               1.5  1.5  15  
               1.875  1.5  15  
               2.25  1.5  15  
               2.625  1.5  15  
               3  1.5  15  
               0  1.875  15  
               0.375  1.875  15  
               0.75  1.875  15  
               1.125  1.875  15  
               1.5  1.875  15  
               1.875  1.875  15  
               2.25  1.875  15  
               2.625  1.875  15  
               3  1.875  15  
               0  2.25  15  
               0.375  2.25  15  
               0.75  2.25  15  
               1.125  2.25  15  
               1.5  2.25  15  
               1.875  2.25  15  
               2.25  2.25  15  
               2.625  2.25  15  
               3  2.25  15  
               0  2.625  15  
               0.375  2.625  15  
               0.75  2.625  15  
               1.125  2.625  15  
               1.5  2.625  15  
               1.875  2.625  15  
               2.25  2.625  15  
               2.625  2.625  15  
               3  2.625  15  
               0  3  15  
               0.375  3  15  
               0.75  3  15  
               1.125  3  15  
               1.5  3  15  
               1.875  3  15  
               2.25  3  15  
               2.625  3  15  
               3  3  15  
            </DataArray>
         </Points> 

         <Cells>
            <DataArray type="Int32" Name="connectivity" NumberOfComponents="1" format="ascii">
               
            </DataArray> 
            <DataArray type="Int32" Name="offsets" NumberOfComponents="1" format="ascii">
               
            </DataArray>
            <DataArray type="UInt8"  Name="types" NumberOfComponents="1" format="ascii">
               
            </DataArray>
         </Cells>
         <PointData Scalars="Rank " Vectors="Displacement Velocity Traction ">
            <DataArray type="UInt32" Name="Rank" NumberOfComponents="1" format="ascii">
               0 0 0 0 0 0 0 0 0 0 0 0 0 0 0 0 0 0 0 0 0 0 0 0 0 0 0 0 0 0 0 0 0 0 0 0 0 0 0 0 0 0 0 0 0 0 0 0 0 0 0 0 0 0 0 0 0 0 0 0 0 0 0 0 0 0 0 0 0 0 0 0 0 0 0 0 0 0 0 0 0 
            </DataArray>
            <DataArray type="Float64" Name="Displacement" NumberOfComponents="3" format="ascii">
               0 0 0  0 0 0  0 0 0  0 0 0  0 0 0  0 0 0  0 0 0  0 0 0  0 0 0  0 0 0  0 0 0  0 0 0  0 0 0  0 0 0  0 0 0  0 0 0  0 0 0  0 0 0  0 0 0  0 0 0  0 0 0  0 0 0  0 0 0  0 0 0  0 0 0  0 0 0  0 0 0  0 0 0  0 0 0  0 0 0  0 0 0  0 0 0  0 0 0  0 0 0  0 0 0  0 0 0  0 0 0  0 0 0  0 0 0  0 0 0  0 0 0  0 0 0  0 0 0  0 0 0  0 0 0  0 0 0  0 0 0  0 0 0  0 0 0  0 0 0  0 0 0  0 0 0  0 0 0  0 0 0  0 0 0  0 0 0  0 0 0  0 0 0  0 0 0  0 0 0  0 0 0  0 0 0  0 0 0  0 0 0  0 0 0  0 0 0  0 0 0  0 0 0  0 0 0  0 0 0  0 0 0  0 0 0  0 0 0  0 0 0  0 0 0  0 0 0  0 0 0  0 0 0  0 0 0  0 0 0  0 0 0  
            </DataArray>
            <DataArray type="Float64" Name="Velocity" NumberOfComponents="3" format="ascii">
               0 0 0  0 0 0  0 0 0  0 0 0  0 0 0  0 0 0  0 0 0  0 0 0  0 0 0  0 0 0  0 0 0  0 0 0  0 0 0  0 0 0  0 0 0  0 0 0  0 0 0  0 0 0  0 0 0  0 0 0  0 0 0  0 0 0  0 0 0  0 0 0  0 0 0  0 0 0  0 0 0  0 0 0  0 0 0  0 0 0  0 0 0  0 0 0  0 0 0  0 0 0  0 0 0  0 0 0  0 0 0  0 0 0  0 0 0  0 0 0  0 0 0  0 0 0  0 0 0  0 0 0  0 0 0  0 0 0  0 0 0  0 0 0  0 0 0  0 0 0  0 0 0  0 0 0  0 0 0  0 0 0  0 0 0  0 0 0  0 0 0  0 0 0  0 0 0  0 0 0  0 0 0  0 0 0  0 0 0  0 0 0  0 0 0  0 0 0  0 0 0  0 0 0  0 0 0  0 0 0  0 0 0  0 0 0  0 0 0  0 0 0  0 0 0  0 0 0  0 0 0  0 0 0  0 0 0  0 0 0  0 0 0  
            </DataArray>
            <DataArray type="Float64" Name="Traction" NumberOfComponents="3" format="ascii">
               -6.26642e-10 -1.64829e-09 5.31607e-09  4.15097e-09 7.54541e-09 5.31607e-09  -8.49023e-10 1.66135e-08 5.31607e-09  -6.10924e-09 2.25192e-10 5.31607e-09  -1.1267e-09 -1.55616e-08 5.31607e-09  2.97124e-09 -9.11159e-09 5.31607e-09  1.29335e-09 -2.64867e-09 5.31607e-09  -1.24001e-10 -2.08198e-09 5.31607e-09  2.43314e-09 -1.9475e-09 5.31607e-09  -1.58164e-09 1.76626e-09 5.31607e-09  2.42383e-10 -2.10974e-09 5.31607e-09  -2.02453e-10 -5.68125e-09 5.31607e-09  -2.5989e-10 -2.41203e-10 5.31607e-09  -3.24136e-10 5.25323e-09 5.31607e-09  -3.49464e-10 2.43475e-09 5.31607e-09  3.83498e-10 -5.94118e-10 5.31607e-09  6.2575e-10 -1.02385e-10 5.31607e-09  9.67527e-10 6.49044e-10 5.31607e-09  -3.05717e-10 -3.47528e-10 5.31607e-09  -2.61793e-09 2.51479e-10 5.31607e-09  3.38122e-10 1.01535e-09 5.31607e-09  3.21626e-09 -2.52465e-10 5.31607e-09  3.28322e-10 -1.43262e-09 5.31607e-09  -2.37483e-09 -6.81992e-10 5.31607e-09  -3.30042e-10 -1.16623e-10 5.31607e-09  1.35364e-09 -4.05922e-10 5.31607e-09  1.54185e-10 -6.12808e-10 5.31607e-09  -3.67063e-09 -2.0153e-09 5.31607e-09  -7.70696e-10 2.86358e-10 5.31607e-09  3.10958e-11 1.71777e-09 5.31607e-09  1.76578e-09 1.5879e-10 5.31607e-09  2.05273e-11 -1.76998e-09 5.31607e-09  -1.04742e-09 -5.23087e-10 5.31607e-09  9.98902e-11 9.91325e-10 5.31607e-09  -4.69406e-11 5.33987e-11 5.31607e-09  3.22116e-09 -1.38703e-09 5.31607e-09  -6.35863e-09 3.02044e-10 5.31607e-09  1.2683e-09 4.75285e-10 5.31607e-09  -5.753e-10 4.1199e-10 5.31607e-09  -1.61977e-10 -2.63677e-10 5.31607e-09  -4.12981e-10 -8.20283e-10 5.31607e-09  5.86892e-10 -2.02005e-10 5.31607e-09  7.19521e-10 4.83397e-10 5.31607e-09  -1.46224e-09 1.27962e-10 5.31607e-09  6.15345e-09 -1.93648e-10 5.31607e-09  -1.57598e-09 2.55487e-09 5.31607e-09  -2.41407e-10 7.59277e-10 5.31607e-09  -4.83507e-10 2.56595e-11 5.31607e-09  -2.65781e-10 -3.74713e-10 5.31607e-09  -2.48311e-11 -3.1761e-10 5.31607e-09  9.58794e-10 1.51082e-10 5.31607e-09  5.37939e-10 3.77138e-10 5.31607e-09  -1.20624e-09 5.4647e-10 5.31607e-09  4.06079e-09 9.13453e-10 5.31607e-09  4.1847e-09 6.25143e-11 5.31607e-09  -1.60857e-09 -5.86708e-10 5.31607e-09  -7.38223e-11 -5.11435e-10 5.31607e-09  -7.2485e-10 4.03158e-11 5.31607e-09  3.42873e-10 7.27065e-10 5.31607e-09  1.40219e-09 2.66222e-10 5.31607e-09  6.12834e-10 -1.01966e-10 5.31607e-09  -8.11235e-10 -2.62482e-10 5.31607e-09  2.23166e-09 2.35772e-10 5.31607e-09  8.15916e-09 3.87479e-10 5.31607e-09  -9.28744e-10 1.59805e-09 5.31607e-09  3.68902e-10 2.84646e-09 5.31607e-09  -1.4625e-09 9.17882e-10 5.31607e-09  4.02833e-11 -1.0596e-09 5.31607e-09  1.5463e-09 -3.53257e-10 5.31607e-09  3.65584e-10 6.57362e-10 5.31607e-09  2.33701e-10 1.47746e-09 5.31607e-09  -2.39234e-09 2.85727e-09 5.31607e-09  6.34897e-09 -4.80798e-09 5.31607e-09  6.71367e-10 -6.5338e-09 5.31607e-09  -3.19573e-10 -8.57867e-09 5.31607e-09  -3.90745e-09 4.33966e-11 5.31607e-09  -4.89893e-10 8.8012e-09 5.31607e-09  2.65187e-09 2.82303e-09 5.31607e-09  1.05894e-10 -4.21885e-09 5.31607e-09  1.70327e-09 -9.66518e-09 5.31607e-09  -8.52451e-09 -8.80023e-09 5.31607e-09  
            </DataArray>
         </PointData> 
      </Piece>
   </UnstructuredGrid> 
</VTKFile>
