<?xml version="1.0"?>
<VTKFile type="UnstructuredGrid" version="0.1" byte_order="LittleEndian">
   <UnstructuredGrid>
      <Piece NumberOfPoints="81" NumberOfCells="0" > 
         <Points> 
            <DataArray type="Float64" Name="Position" NumberOfComponents="3" format="ascii"> 
               0  0  15  
               0.375  0  15  
               0.75  0  15  
               1.125  0  15  
               1.5  0  15  
               1.875  0  15  
               2.25  0  15  
               2.625  0  15  
               3  0  15  
               0  0.375  15  
               0.375  0.375  15  
               0.75  0.375  15  
               1.125  0.375  15  
               1.5  0.375  15  
               1.875  0.375  15  
               2.25  0.375  15  
               2.625  0.375  15  
               3  0.375  15  
               0  0.75  15  
               0.375  0.75  15  
               0.75  0.75  15  
               1.125  0.75  15  
               1.5  0.75  15  
               1.875  0.75  15  
               2.25  0.75  15  
               2.625  0.75  15  
               3  0.75  15  
               0  1.125  15  
               0.375  1.125  15  
               0.75  1.125  15  
               1.125  1.125  15  
               1.5  1.125  15  
               1.875  1.125  15  
               2.25  1.125  15  
               2.625  1.125  15  
               3  1.125  15  
               0  1.5  15  
               0.375  1.5  15  
               0.75  1.5  15  
               1.125  1.5  15  
               1.5  1.5  15  
               1.875  1.5  15  
               2.25  1.5  15  
               2.625  1.5  15  
               3  1.5  15  
               0  1.875  15  
               0.375  1.875  15  
               0.75  1.875  15  
               1.125  1.875  15  
               1.5  1.875  15  
               1.875  1.875  15  
               2.25  1.875  15  
               2.625  1.875  15  
               3  1.875  15  
               0  2.25  15  
               0.375  2.25  15  
               0.75  2.25  15  
               1.125  2.25  15  
               1.5  2.25  15  
               1.875  2.25  15  
               2.25  2.25  15  
               2.625  2.25  15  
               3  2.25  15  
               0  2.625  15  
               0.375  2.625  15  
               0.75  2.625  15  
               1.125  2.625  15  
               1.5  2.625  15  
               1.875  2.625  15  
               2.25  2.625  15  
               2.625  2.625  15  
               3  2.625  15  
               0  3  15  
               0.375  3  15  
               0.75  3  15  
               1.125  3  15  
               1.5  3  15  
               1.875  3  15  
               2.25  3  15  
               2.625  3  15  
               3  3  15  
            </DataArray>
         </Points> 

         <Cells>
            <DataArray type="Int32" Name="connectivity" NumberOfComponents="1" format="ascii">
               
            </DataArray> 
            <DataArray type="Int32" Name="offsets" NumberOfComponents="1" format="ascii">
               
            </DataArray>
            <DataArray type="UInt8"  Name="types" NumberOfComponents="1" format="ascii">
               
            </DataArray>
         </Cells>
         <PointData Scalars="Rank " Vectors="Displacement Velocity Traction ">
            <DataArray type="UInt32" Name="Rank" NumberOfComponents="1" format="ascii">
               0 0 0 0 0 0 0 0 0 0 0 0 0 0 0 0 0 0 0 0 0 0 0 0 0 0 0 0 0 0 0 0 0 0 0 0 0 0 0 0 0 0 0 0 0 0 0 0 0 0 0 0 0 0 0 0 0 0 0 0 0 0 0 0 0 0 0 0 0 0 0 0 0 0 0 0 0 0 0 0 0 
            </DataArray>
            <DataArray type="Float64" Name="Displacement" NumberOfComponents="3" format="ascii">
               0 0 0  0 0 0  0 0 0  0 0 0  0 0 0  0 0 0  0 0 0  0 0 0  0 0 0  0 0 0  0 0 0  0 0 0  0 0 0  0 0 0  0 0 0  0 0 0  0 0 0  0 0 0  0 0 0  0 0 0  0 0 0  0 0 0  0 0 0  0 0 0  0 0 0  0 0 0  0 0 0  0 0 0  0 0 0  0 0 0  0 0 0  0 0 0  0 0 0  0 0 0  0 0 0  0 0 0  0 0 0  0 0 0  0 0 0  0 0 0  0 0 0  0 0 0  0 0 0  0 0 0  0 0 0  0 0 0  0 0 0  0 0 0  0 0 0  0 0 0  0 0 0  0 0 0  0 0 0  0 0 0  0 0 0  0 0 0  0 0 0  0 0 0  0 0 0  0 0 0  0 0 0  0 0 0  0 0 0  0 0 0  0 0 0  0 0 0  0 0 0  0 0 0  0 0 0  0 0 0  0 0 0  0 0 0  0 0 0  0 0 0  0 0 0  0 0 0  0 0 0  0 0 0  0 0 0  0 0 0  0 0 0  
            </DataArray>
            <DataArray type="Float64" Name="Velocity" NumberOfComponents="3" format="ascii">
               0 0 0  0 0 0  0 0 0  0 0 0  0 0 0  0 0 0  0 0 0  0 0 0  0 0 0  0 0 0  0 0 0  0 0 0  0 0 0  0 0 0  0 0 0  0 0 0  0 0 0  0 0 0  0 0 0  0 0 0  0 0 0  0 0 0  0 0 0  0 0 0  0 0 0  0 0 0  0 0 0  0 0 0  0 0 0  0 0 0  0 0 0  0 0 0  0 0 0  0 0 0  0 0 0  0 0 0  0 0 0  0 0 0  0 0 0  0 0 0  0 0 0  0 0 0  0 0 0  0 0 0  0 0 0  0 0 0  0 0 0  0 0 0  0 0 0  0 0 0  0 0 0  0 0 0  0 0 0  0 0 0  0 0 0  0 0 0  0 0 0  0 0 0  0 0 0  0 0 0  0 0 0  0 0 0  0 0 0  0 0 0  0 0 0  0 0 0  0 0 0  0 0 0  0 0 0  0 0 0  0 0 0  0 0 0  0 0 0  0 0 0  0 0 0  0 0 0  0 0 0  0 0 0  0 0 0  0 0 0  0 0 0  
            </DataArray>
            <DataArray type="Float64" Name="Traction" NumberOfComponents="3" format="ascii">
               1.24982e-05 1.33076e-05 -5.96423e-06  2.10279e-06 9.81187e-06 -5.96423e-06  8.77416e-07 6.74295e-06 -5.96423e-06  -1.03415e-06 3.72298e-06 -5.96423e-06  -1.41467e-06 -1.9541e-06 -5.96423e-06  5.45964e-07 -2.63681e-06 -5.96423e-06  -1.28055e-07 2.62905e-07 -5.96423e-06  -2.51772e-06 1.52001e-06 -5.96423e-06  -5.44154e-06 1.63449e-06 -5.96423e-06  7.29312e-06 2.74965e-06 -5.96423e-06  2.5751e-06 2.66483e-06 -5.96423e-06  5.92434e-07 1.27166e-06 -5.96423e-06  -2.46583e-07 1.78001e-06 -5.96423e-06  -1.07617e-07 9.80198e-07 -5.96423e-06  -1.63849e-07 -2.12329e-07 -5.96423e-06  -1.00676e-06 6.45305e-09 -5.96423e-06  -2.26026e-06 1.79877e-07 -5.96423e-06  -4.02521e-06 -5.88028e-07 -5.96423e-06  3.63144e-06 2.21866e-06 -5.96423e-06  2.2638e-06 8.01826e-07 -5.96423e-06  1.50748e-07 2.14942e-07 -5.96423e-06  -9.99281e-07 8.42286e-07 -5.96423e-06  -9.63774e-07 9.28824e-07 -5.96423e-06  -6.03383e-07 5.56344e-07 -5.96423e-06  -6.40823e-07 6.10039e-07 -5.96423e-06  -1.52059e-06 2.22443e-07 -5.96423e-06  -3.88167e-06 1.19959e-07 -5.96423e-06  4.61316e-06 2.74933e-07 -5.96423e-06  3.14208e-06 -4.17879e-07 -5.96423e-06  9.4069e-07 -5.76734e-07 -5.96423e-06  6.95745e-08 8.88691e-07 -5.96423e-06  -7.05715e-07 2.25804e-06 -5.96423e-06  -7.58785e-07 2.44294e-06 -5.96423e-06  -6.26568e-07 2.43047e-06 -5.96423e-06  -1.5154e-06 1.60377e-06 -5.96423e-06  -8.40603e-06 2.32005e-06 -5.96423e-06  3.70483e-06 -1.11183e-06 -5.96423e-06  2.80385e-06 -1.16181e-07 -5.96423e-06  1.63928e-06 6.92853e-07 -5.96423e-06  1.65267e-06 1.09643e-06 -5.96423e-06  1.37284e-07 1.56441e-06 -5.96423e-06  -7.54014e-07 1.85436e-06 -5.96423e-06  -1.19281e-06 1.47451e-06 -5.96423e-06  -2.35061e-06 1.27145e-06 -5.96423e-06  -1.25262e-05 1.41769e-06 -5.96423e-06  6.31373e-06 3.54815e-07 -5.96423e-06  2.6689e-06 5.94964e-07 -5.96423e-06  1.50371e-06 1.62459e-06 -5.96423e-06  8.31803e-07 4.16067e-07 -5.96423e-06  3.33001e-08 -6.58689e-07 -5.96423e-06  -8.67992e-07 -5.54378e-07 -5.96423e-06  -1.64302e-06 -1.09331e-06 -5.96423e-06  -2.72296e-06 -2.98171e-07 -5.96423e-06  -5.4725e-06 -1.25263e-06 -5.96423e-06  9.15064e-06 -4.77398e-07 -5.96423e-06  2.80571e-06 -4.5304e-07 -5.96423e-06  1.23364e-06 -6.90851e-07 -5.96423e-06  -2.87855e-07 -9.91108e-07 -5.96423e-06  -3.15498e-07 -1.08516e-06 -5.96423e-06  -1.04195e-06 -8.36571e-07 -5.96423e-06  -1.83512e-06 -6.84037e-07 -5.96423e-06  -2.6852e-06 -1.64482e-07 -5.96423e-06  2.08111e-06 6.02295e-08 -5.96423e-06  6.44973e-06 -8.43471e-07 -5.96423e-06  2.45792e-06 -1.39446e-06 -5.96423e-06  1.69353e-06 -2.94609e-06 -5.96423e-06  8.4988e-07 -2.77113e-06 -5.96423e-06  3.23434e-07 -2.30701e-06 -5.96423e-06  -8.657e-07 -2.02669e-06 -5.96423e-06  -2.11321e-06 -1.1854e-06 -5.96423e-06  -2.94815e-06 -7.65667e-07 -5.96423e-06  -2.83477e-06 8.42468e-07 -5.96423e-06  4.79493e-06 -2.06978e-06 -5.96423e-06  2.46477e-06 -1.1497e-06 -5.96423e-06  2.84892e-06 -9.06047e-07 -5.96423e-06  2.88378e-06 -2.99076e-06 -5.96423e-06  1.23917e-06 -4.81808e-06 -5.96423e-06  -1.35662e-06 -3.30704e-06 -5.96423e-06  -2.54251e-06 -1.00077e-06 -5.96423e-06  -2.49997e-06 -3.53518e-06 -5.96423e-06  -8.13774e-06 -5.74144e-06 -5.96423e-06  
            </DataArray>
         </PointData> 
      </Piece>
   </UnstructuredGrid> 
</VTKFile>
