<?xml version="1.0"?>
<VTKFile type="UnstructuredGrid" version="0.1" byte_order="LittleEndian">
   <UnstructuredGrid>
      <Piece NumberOfPoints="81" NumberOfCells="0" > 
         <Points> 
            <DataArray type="Float64" Name="Position" NumberOfComponents="3" format="ascii"> 
               0  0  15  
               0.375  0  15  
               0.75  0  15  
               1.125  0  15  
               1.5  0  15  
               1.875  0  15  
               2.25  0  15  
               2.625  0  15  
               3  0  15  
               0  0.375  15  
               0.375  0.375  15  
               0.75  0.375  15  
               1.125  0.375  15  
               1.5  0.375  15  
               1.875  0.375  15  
               2.25  0.375  15  
               2.625  0.375  15  
               3  0.375  15  
               0  0.75  15  
               0.375  0.75  15  
               0.75  0.75  15  
               1.125  0.75  15  
               1.5  0.75  15  
               1.875  0.75  15  
               2.25  0.75  15  
               2.625  0.75  15  
               3  0.75  15  
               0  1.125  15  
               0.375  1.125  15  
               0.75  1.125  15  
               1.125  1.125  15  
               1.5  1.125  15  
               1.875  1.125  15  
               2.25  1.125  15  
               2.625  1.125  15  
               3  1.125  15  
               0  1.5  15  
               0.375  1.5  15  
               0.75  1.5  15  
               1.125  1.5  15  
               1.5  1.5  15  
               1.875  1.5  15  
               2.25  1.5  15  
               2.625  1.5  15  
               3  1.5  15  
               0  1.875  15  
               0.375  1.875  15  
               0.75  1.875  15  
               1.125  1.875  15  
               1.5  1.875  15  
               1.875  1.875  15  
               2.25  1.875  15  
               2.625  1.875  15  
               3  1.875  15  
               0  2.25  15  
               0.375  2.25  15  
               0.75  2.25  15  
               1.125  2.25  15  
               1.5  2.25  15  
               1.875  2.25  15  
               2.25  2.25  15  
               2.625  2.25  15  
               3  2.25  15  
               0  2.625  15  
               0.375  2.625  15  
               0.75  2.625  15  
               1.125  2.625  15  
               1.5  2.625  15  
               1.875  2.625  15  
               2.25  2.625  15  
               2.625  2.625  15  
               3  2.625  15  
               0  3  15  
               0.375  3  15  
               0.75  3  15  
               1.125  3  15  
               1.5  3  15  
               1.875  3  15  
               2.25  3  15  
               2.625  3  15  
               3  3  15  
            </DataArray>
         </Points> 

         <Cells>
            <DataArray type="Int32" Name="connectivity" NumberOfComponents="1" format="ascii">
               
            </DataArray> 
            <DataArray type="Int32" Name="offsets" NumberOfComponents="1" format="ascii">
               
            </DataArray>
            <DataArray type="UInt8"  Name="types" NumberOfComponents="1" format="ascii">
               
            </DataArray>
         </Cells>
         <PointData Scalars="Rank " Vectors="Displacement Velocity Traction ">
            <DataArray type="UInt32" Name="Rank" NumberOfComponents="1" format="ascii">
               0 0 0 0 0 0 0 0 0 0 0 0 0 0 0 0 0 0 0 0 0 0 0 0 0 0 0 0 0 0 0 0 0 0 0 0 0 0 0 0 0 0 0 0 0 0 0 0 0 0 0 0 0 0 0 0 0 0 0 0 0 0 0 0 0 0 0 0 0 0 0 0 0 0 0 0 0 0 0 0 0 
            </DataArray>
            <DataArray type="Float64" Name="Displacement" NumberOfComponents="3" format="ascii">
               0 0 0  0 0 0  0 0 0  0 0 0  0 0 0  0 0 0  0 0 0  0 0 0  0 0 0  0 0 0  0 0 0  0 0 0  0 0 0  0 0 0  0 0 0  0 0 0  0 0 0  0 0 0  0 0 0  0 0 0  0 0 0  0 0 0  0 0 0  0 0 0  0 0 0  0 0 0  0 0 0  0 0 0  0 0 0  0 0 0  0 0 0  0 0 0  0 0 0  0 0 0  0 0 0  0 0 0  0 0 0  0 0 0  0 0 0  0 0 0  0 0 0  0 0 0  0 0 0  0 0 0  0 0 0  0 0 0  0 0 0  0 0 0  0 0 0  0 0 0  0 0 0  0 0 0  0 0 0  0 0 0  0 0 0  0 0 0  0 0 0  0 0 0  0 0 0  0 0 0  0 0 0  0 0 0  0 0 0  0 0 0  0 0 0  0 0 0  0 0 0  0 0 0  0 0 0  0 0 0  0 0 0  0 0 0  0 0 0  0 0 0  0 0 0  0 0 0  0 0 0  0 0 0  0 0 0  0 0 0  0 0 0  
            </DataArray>
            <DataArray type="Float64" Name="Velocity" NumberOfComponents="3" format="ascii">
               0 0 0  0 0 0  0 0 0  0 0 0  0 0 0  0 0 0  0 0 0  0 0 0  0 0 0  0 0 0  0 0 0  0 0 0  0 0 0  0 0 0  0 0 0  0 0 0  0 0 0  0 0 0  0 0 0  0 0 0  0 0 0  0 0 0  0 0 0  0 0 0  0 0 0  0 0 0  0 0 0  0 0 0  0 0 0  0 0 0  0 0 0  0 0 0  0 0 0  0 0 0  0 0 0  0 0 0  0 0 0  0 0 0  0 0 0  0 0 0  0 0 0  0 0 0  0 0 0  0 0 0  0 0 0  0 0 0  0 0 0  0 0 0  0 0 0  0 0 0  0 0 0  0 0 0  0 0 0  0 0 0  0 0 0  0 0 0  0 0 0  0 0 0  0 0 0  0 0 0  0 0 0  0 0 0  0 0 0  0 0 0  0 0 0  0 0 0  0 0 0  0 0 0  0 0 0  0 0 0  0 0 0  0 0 0  0 0 0  0 0 0  0 0 0  0 0 0  0 0 0  0 0 0  0 0 0  0 0 0  0 0 0  
            </DataArray>
            <DataArray type="Float64" Name="Traction" NumberOfComponents="3" format="ascii">
               -9.7779e-12 -1.2316e-11 8.55302e-10  9.27368e-12 8.69202e-12 8.55302e-10  -3.382e-12 2.97692e-11 8.55302e-10  -1.23469e-11 -7.70366e-12 8.55302e-10  -2.02458e-12 -4.50761e-11 8.55302e-10  6.14779e-12 -2.79344e-11 8.55302e-10  2.35179e-12 -1.07949e-11 8.55302e-10  -2.12258e-13 -7.41573e-12 8.55302e-10  5.00634e-12 -4.18844e-12 8.55302e-10  -6.73775e-12 4.0737e-12 8.55302e-10  1.05234e-12 -6.40573e-12 8.55302e-10  -1.8013e-12 -1.68353e-11 8.55302e-10  -1.89953e-12 -1.02288e-12 8.55302e-10  -6.71257e-13 1.47912e-11 8.55302e-10  -6.41248e-14 6.34457e-12 8.55302e-10  1.41863e-12 -2.13129e-12 8.55302e-10  1.96204e-12 -5.5974e-13 8.55302e-10  4.60359e-12 1.04028e-12 8.55302e-10  -3.41401e-12 -2.4129e-12 8.55302e-10  -7.07255e-12 1.23631e-13 8.55302e-10  -2.08515e-13 2.70579e-12 8.55302e-10  8.26466e-12 -2.22385e-12 8.55302e-10  6.93148e-13 -7.12806e-12 8.55302e-10  -6.10146e-12 -4.57724e-12 8.55302e-10  4.94351e-13 -2.05428e-12 8.55302e-10  4.13488e-12 -1.79974e-12 8.55302e-10  4.37647e-12 -1.52131e-12 8.55302e-10  -1.32548e-11 -3.32934e-12 8.55302e-10  -1.7647e-12 2.5552e-13 8.55302e-10  -2.18303e-12 3.69528e-12 8.55302e-10  3.54064e-12 -5.3501e-13 8.55302e-10  3.57401e-13 -4.8258e-12 8.55302e-10  -2.23915e-12 -1.26578e-12 8.55302e-10  2.25206e-12 2.33028e-12 8.55302e-10  3.16377e-13 -1.34991e-13 8.55302e-10  1.29074e-11 -2.66546e-12 8.55302e-10  -2.292e-11 -3.36617e-14 8.55302e-10  3.55228e-12 5.41887e-13 8.55302e-10  -4.18915e-12 1.05728e-12 8.55302e-10  -1.24688e-12 -4.87189e-13 8.55302e-10  3.2025e-15 -2.02022e-12 8.55302e-10  1.67222e-12 -6.24607e-13 8.55302e-10  4.03165e-12 7.82158e-13 8.55302e-10  -3.50174e-12 -2.06307e-14 8.55302e-10  2.14311e-11 -8.01095e-13 8.55302e-10  -7.0518e-12 5.51361e-12 8.55302e-10  -1.62887e-12 2.42716e-12 8.55302e-10  -2.21037e-12 -4.74526e-13 8.55302e-10  -1.23569e-12 -4.19071e-13 8.55302e-10  5.875e-13 -2.89194e-13 8.55302e-10  2.58135e-12 7.18035e-13 8.55302e-10  3.33713e-12 1.69247e-12 8.55302e-10  -2.62734e-12 1.94695e-12 8.55302e-10  1.52074e-11 2.2107e-12 8.55302e-10  8.86077e-12 -7.58878e-13 8.55302e-10  -6.7798e-12 -1.35283e-12 8.55302e-10  -1.90669e-13 -1.89248e-12 8.55302e-10  -1.29335e-12 1.33453e-12 8.55302e-10  1.17123e-12 4.5759e-12 8.55302e-10  3.50611e-12 2.40123e-12 8.55302e-10  2.66191e-12 2.41209e-13 8.55302e-10  -1.73416e-12 -7.7821e-13 8.55302e-10  9.02414e-12 -1.64234e-12 8.55302e-10  1.23885e-11 1.91036e-12 8.55302e-10  -3.18755e-12 6.80384e-12 8.55302e-10  2.85453e-13 1.16756e-11 8.55302e-10  -4.90771e-12 4.20977e-12 8.55302e-10  4.13645e-14 -3.26862e-12 8.55302e-10  4.51889e-12 -2.74089e-13 8.55302e-10  5.30495e-13 2.77076e-12 8.55302e-10  1.77418e-12 5.18932e-12 8.55302e-10  -6.25122e-12 7.61992e-12 8.55302e-10  1.48085e-11 -1.32909e-11 8.55302e-10  6.15412e-13 -1.91993e-11 8.55302e-10  5.31985e-13 -2.50092e-11 8.55302e-10  -8.76215e-12 1.69492e-12 8.55302e-10  -1.13581e-12 2.8472e-11 8.55302e-10  5.67045e-12 1.1394e-11 8.55302e-10  -1.71107e-12 -5.79541e-12 8.55302e-10  5.35395e-12 -1.37538e-11 8.55302e-10  -2.16897e-11 -2.05662e-11 8.55302e-10  
            </DataArray>
         </PointData> 
      </Piece>
   </UnstructuredGrid> 
</VTKFile>
