<?xml version="1.0"?>
<VTKFile type="UnstructuredGrid" version="0.1" byte_order="LittleEndian">
   <UnstructuredGrid>
      <Piece NumberOfPoints="81" NumberOfCells="0" > 
         <Points> 
            <DataArray type="Float64" Name="Position" NumberOfComponents="3" format="ascii"> 
               0  0  20  
               0.375  0  20  
               0.75  0  20  
               1.125  0  20  
               1.5  0  20  
               1.875  0  20  
               2.25  0  20  
               2.625  0  20  
               3  0  20  
               0  0.375  20  
               0.375  0.375  20  
               0.75  0.375  20  
               1.125  0.375  20  
               1.5  0.375  20  
               1.875  0.375  20  
               2.25  0.375  20  
               2.625  0.375  20  
               3  0.375  20  
               0  0.75  20  
               0.375  0.75  20  
               0.75  0.75  20  
               1.125  0.75  20  
               1.5  0.75  20  
               1.875  0.75  20  
               2.25  0.75  20  
               2.625  0.75  20  
               3  0.75  20  
               0  1.125  20  
               0.375  1.125  20  
               0.75  1.125  20  
               1.125  1.125  20  
               1.5  1.125  20  
               1.875  1.125  20  
               2.25  1.125  20  
               2.625  1.125  20  
               3  1.125  20  
               0  1.5  20  
               0.375  1.5  20  
               0.75  1.5  20  
               1.125  1.5  20  
               1.5  1.5  20  
               1.875  1.5  20  
               2.25  1.5  20  
               2.625  1.5  20  
               3  1.5  20  
               0  1.875  20  
               0.375  1.875  20  
               0.75  1.875  20  
               1.125  1.875  20  
               1.5  1.875  20  
               1.875  1.875  20  
               2.25  1.875  20  
               2.625  1.875  20  
               3  1.875  20  
               0  2.25  20  
               0.375  2.25  20  
               0.75  2.25  20  
               1.125  2.25  20  
               1.5  2.25  20  
               1.875  2.25  20  
               2.25  2.25  20  
               2.625  2.25  20  
               3  2.25  20  
               0  2.625  20  
               0.375  2.625  20  
               0.75  2.625  20  
               1.125  2.625  20  
               1.5  2.625  20  
               1.875  2.625  20  
               2.25  2.625  20  
               2.625  2.625  20  
               3  2.625  20  
               0  3  20  
               0.375  3  20  
               0.75  3  20  
               1.125  3  20  
               1.5  3  20  
               1.875  3  20  
               2.25  3  20  
               2.625  3  20  
               3  3  20  
            </DataArray>
         </Points> 

         <Cells>
            <DataArray type="Int32" Name="connectivity" NumberOfComponents="1" format="ascii">
               
            </DataArray> 
            <DataArray type="Int32" Name="offsets" NumberOfComponents="1" format="ascii">
               
            </DataArray>
            <DataArray type="UInt8"  Name="types" NumberOfComponents="1" format="ascii">
               
            </DataArray>
         </Cells>
         <PointData Scalars="Rank " Vectors="Displacement Velocity Traction ">
            <DataArray type="UInt32" Name="Rank" NumberOfComponents="1" format="ascii">
               0 0 0 0 0 0 0 0 0 0 0 0 0 0 0 0 0 0 0 0 0 0 0 0 0 0 0 0 0 0 0 0 0 0 0 0 0 0 0 0 0 0 0 0 0 0 0 0 0 0 0 0 0 0 0 0 0 0 0 0 0 0 0 0 0 0 0 0 0 0 0 0 0 0 0 0 0 0 0 0 0 
            </DataArray>
            <DataArray type="Float64" Name="Displacement" NumberOfComponents="3" format="ascii">
               0 0 0  0 0 0  0 0 0  0 0 0  0 0 0  0 0 0  0 0 0  0 0 0  0 0 0  0 0 0  0 0 0  0 0 0  0 0 0  0 0 0  0 0 0  0 0 0  0 0 0  0 0 0  0 0 0  0 0 0  0 0 0  0 0 0  0 0 0  0 0 0  0 0 0  0 0 0  0 0 0  0 0 0  0 0 0  0 0 0  0 0 0  0 0 0  0 0 0  0 0 0  0 0 0  0 0 0  0 0 0  0 0 0  0 0 0  0 0 0  0 0 0  0 0 0  0 0 0  0 0 0  0 0 0  0 0 0  0 0 0  0 0 0  0 0 0  0 0 0  0 0 0  0 0 0  0 0 0  0 0 0  0 0 0  0 0 0  0 0 0  0 0 0  0 0 0  0 0 0  0 0 0  0 0 0  0 0 0  0 0 0  0 0 0  0 0 0  0 0 0  0 0 0  0 0 0  0 0 0  0 0 0  0 0 0  0 0 0  0 0 0  0 0 0  0 0 0  0 0 0  0 0 0  0 0 0  0 0 0  0 0 0  
            </DataArray>
            <DataArray type="Float64" Name="Velocity" NumberOfComponents="3" format="ascii">
               0 0 0  0 0 0  0 0 0  0 0 0  0 0 0  0 0 0  0 0 0  0 0 0  0 0 0  0 0 0  0 0 0  0 0 0  0 0 0  0 0 0  0 0 0  0 0 0  0 0 0  0 0 0  0 0 0  0 0 0  0 0 0  0 0 0  0 0 0  0 0 0  0 0 0  0 0 0  0 0 0  0 0 0  0 0 0  0 0 0  0 0 0  0 0 0  0 0 0  0 0 0  0 0 0  0 0 0  0 0 0  0 0 0  0 0 0  0 0 0  0 0 0  0 0 0  0 0 0  0 0 0  0 0 0  0 0 0  0 0 0  0 0 0  0 0 0  0 0 0  0 0 0  0 0 0  0 0 0  0 0 0  0 0 0  0 0 0  0 0 0  0 0 0  0 0 0  0 0 0  0 0 0  0 0 0  0 0 0  0 0 0  0 0 0  0 0 0  0 0 0  0 0 0  0 0 0  0 0 0  0 0 0  0 0 0  0 0 0  0 0 0  0 0 0  0 0 0  0 0 0  0 0 0  0 0 0  0 0 0  0 0 0  
            </DataArray>
            <DataArray type="Float64" Name="Traction" NumberOfComponents="3" format="ascii">
               -2.51375e-11 -2.72601e-11 -9.87619e-07  -1.80139e-11 -6.08667e-12 -9.87619e-07  -5.66191e-12 -8.17267e-12 -9.87619e-07  -1.95108e-12 -3.23871e-12 -9.87619e-07  -4.10841e-13 2.61086e-12 -9.87619e-07  3.46595e-13 -1.71956e-12 -9.87619e-07  -5.2799e-13 -9.45306e-13 -9.87619e-07  3.46267e-13 -2.46864e-13 -9.87619e-07  -2.92711e-13 -1.43443e-12 -9.87619e-07  -3.93359e-12 -2.21749e-11 -9.87619e-07  -6.35756e-12 -7.2108e-12 -9.87619e-07  -1.01256e-12 -4.06601e-12 -9.87619e-07  1.19007e-12 -4.1065e-12 -9.87619e-07  4.77664e-13 1.40119e-12 -9.87619e-07  -3.38934e-14 9.2897e-13 -9.87619e-07  3.12716e-12 -2.39336e-12 -9.87619e-07  5.01738e-12 4.02322e-13 -9.87619e-07  2.88727e-12 -1.52852e-13 -9.87619e-07  -4.24792e-12 -8.68005e-12 -9.87619e-07  -6.81516e-12 -1.89385e-12 -9.87619e-07  -2.27784e-12 9.42227e-13 -9.87619e-07  -1.20726e-12 -3.02396e-13 -9.87619e-07  -3.54675e-13 -1.18835e-12 -9.87619e-07  1.236e-12 -1.56279e-12 -9.87619e-07  2.22967e-12 -1.90478e-12 -9.87619e-07  3.60788e-12 -8.96296e-13 -9.87619e-07  2.42548e-12 -9.65121e-13 -9.87619e-07  -3.10553e-12 -2.16892e-12 -9.87619e-07  -6.17926e-12 9.06903e-13 -9.87619e-07  -1.1612e-12 -7.94775e-13 -9.87619e-07  1.76152e-13 -1.96817e-12 -9.87619e-07  -1.25768e-12 -1.3798e-12 -9.87619e-07  1.44909e-12 -5.24468e-12 -9.87619e-07  1.69658e-12 -2.14937e-12 -9.87619e-07  3.8081e-12 -3.35723e-12 -9.87619e-07  4.61024e-12 -3.56108e-12 -9.87619e-07  -2.91079e-12 -2.8064e-13 -9.87619e-07  -7.79883e-12 4.00553e-13 -9.87619e-07  -4.9331e-12 -8.17848e-13 -9.87619e-07  -6.22557e-13 -3.28321e-12 -9.87619e-07  -9.68389e-13 -1.31872e-12 -9.87619e-07  3.4042e-13 -1.22475e-12 -9.87619e-07  2.32869e-12 -4.05422e-13 -9.87619e-07  9.86292e-12 -8.19997e-13 -9.87619e-07  1.3182e-11 -1.51075e-13 -9.87619e-07  -4.49557e-12 -5.98005e-13 -9.87619e-07  -5.63903e-12 -9.47375e-13 -9.87619e-07  -4.26392e-12 -1.43909e-12 -9.87619e-07  -1.49185e-12 -7.553e-13 -9.87619e-07  8.65687e-13 -9.34524e-13 -9.87619e-07  1.57498e-12 9.05027e-13 -9.87619e-07  3.6345e-12 -1.60712e-14 -9.87619e-07  4.97136e-12 2.86363e-13 -9.87619e-07  2.32251e-12 1.36442e-12 -9.87619e-07  -7.86598e-12 -1.22273e-12 -9.87619e-07  -6.63864e-12 -5.04269e-13 -9.87619e-07  -2.02016e-12 2.59279e-13 -9.87619e-07  -1.42621e-12 2.73452e-12 -9.87619e-07  4.41893e-13 3.73818e-13 -9.87619e-07  9.23604e-13 2.72146e-12 -9.87619e-07  6.91882e-12 2.04896e-12 -9.87619e-07  9.46401e-12 1.23863e-12 -9.87619e-07  6.15579e-15 1.22088e-12 -9.87619e-07  -5.03012e-12 1.02519e-12 -9.87619e-07  -6.09768e-12 2.60028e-12 -9.87619e-07  -1.98862e-12 1.74466e-12 -9.87619e-07  -2.24686e-12 5.52038e-12 -9.87619e-07  -2.2435e-12 3.11288e-12 -9.87619e-07  1.82705e-12 4.0938e-12 -9.87619e-07  1.977e-12 3.52141e-12 -9.87619e-07  4.80407e-12 8.96283e-13 -9.87619e-07  4.00361e-12 7.14921e-12 -9.87619e-07  1.19448e-12 4.11596e-13 -9.87619e-07  -1.90771e-12 4.05179e-12 -9.87619e-07  -1.02555e-12 1.27052e-13 -9.87619e-07  7.37164e-14 3.64309e-12 -9.87619e-07  6.38064e-13 3.60637e-12 -9.87619e-07  5.4501e-12 1.037e-12 -9.87619e-07  2.53569e-12 2.31015e-13 -9.87619e-07  6.02215e-12 -2.48955e-12 -9.87619e-07  1.33577e-11 8.95156e-12 -9.87619e-07  
            </DataArray>
         </PointData> 
      </Piece>
   </UnstructuredGrid> 
</VTKFile>
