<?xml version="1.0"?>
<VTKFile type="UnstructuredGrid" version="0.1" byte_order="LittleEndian">
   <UnstructuredGrid>
      <Piece NumberOfPoints="81" NumberOfCells="0" > 
         <Points> 
            <DataArray type="Float64" Name="Position" NumberOfComponents="3" format="ascii"> 
               0  0  15  
               0.375  0  15  
               0.75  0  15  
               1.125  0  15  
               1.5  0  15  
               1.875  0  15  
               2.25  0  15  
               2.625  0  15  
               3  0  15  
               0  0.375  15  
               0.375  0.375  15  
               0.75  0.375  15  
               1.125  0.375  15  
               1.5  0.375  15  
               1.875  0.375  15  
               2.25  0.375  15  
               2.625  0.375  15  
               3  0.375  15  
               0  0.75  15  
               0.375  0.75  15  
               0.75  0.75  15  
               1.125  0.75  15  
               1.5  0.75  15  
               1.875  0.75  15  
               2.25  0.75  15  
               2.625  0.75  15  
               3  0.75  15  
               0  1.125  15  
               0.375  1.125  15  
               0.75  1.125  15  
               1.125  1.125  15  
               1.5  1.125  15  
               1.875  1.125  15  
               2.25  1.125  15  
               2.625  1.125  15  
               3  1.125  15  
               0  1.5  15  
               0.375  1.5  15  
               0.75  1.5  15  
               1.125  1.5  15  
               1.5  1.5  15  
               1.875  1.5  15  
               2.25  1.5  15  
               2.625  1.5  15  
               3  1.5  15  
               0  1.875  15  
               0.375  1.875  15  
               0.75  1.875  15  
               1.125  1.875  15  
               1.5  1.875  15  
               1.875  1.875  15  
               2.25  1.875  15  
               2.625  1.875  15  
               3  1.875  15  
               0  2.25  15  
               0.375  2.25  15  
               0.75  2.25  15  
               1.125  2.25  15  
               1.5  2.25  15  
               1.875  2.25  15  
               2.25  2.25  15  
               2.625  2.25  15  
               3  2.25  15  
               0  2.625  15  
               0.375  2.625  15  
               0.75  2.625  15  
               1.125  2.625  15  
               1.5  2.625  15  
               1.875  2.625  15  
               2.25  2.625  15  
               2.625  2.625  15  
               3  2.625  15  
               0  3  15  
               0.375  3  15  
               0.75  3  15  
               1.125  3  15  
               1.5  3  15  
               1.875  3  15  
               2.25  3  15  
               2.625  3  15  
               3  3  15  
            </DataArray>
         </Points> 

         <Cells>
            <DataArray type="Int32" Name="connectivity" NumberOfComponents="1" format="ascii">
               
            </DataArray> 
            <DataArray type="Int32" Name="offsets" NumberOfComponents="1" format="ascii">
               
            </DataArray>
            <DataArray type="UInt8"  Name="types" NumberOfComponents="1" format="ascii">
               
            </DataArray>
         </Cells>
         <PointData Scalars="Rank " Vectors="Displacement Velocity Traction ">
            <DataArray type="UInt32" Name="Rank" NumberOfComponents="1" format="ascii">
               0 0 0 0 0 0 0 0 0 0 0 0 0 0 0 0 0 0 0 0 0 0 0 0 0 0 0 0 0 0 0 0 0 0 0 0 0 0 0 0 0 0 0 0 0 0 0 0 0 0 0 0 0 0 0 0 0 0 0 0 0 0 0 0 0 0 0 0 0 0 0 0 0 0 0 0 0 0 0 0 0 
            </DataArray>
            <DataArray type="Float64" Name="Displacement" NumberOfComponents="3" format="ascii">
               0 0 0  0 0 0  0 0 0  0 0 0  0 0 0  0 0 0  0 0 0  0 0 0  0 0 0  0 0 0  0 0 0  0 0 0  0 0 0  0 0 0  0 0 0  0 0 0  0 0 0  0 0 0  0 0 0  0 0 0  0 0 0  0 0 0  0 0 0  0 0 0  0 0 0  0 0 0  0 0 0  0 0 0  0 0 0  0 0 0  0 0 0  0 0 0  0 0 0  0 0 0  0 0 0  0 0 0  0 0 0  0 0 0  0 0 0  0 0 0  0 0 0  0 0 0  0 0 0  0 0 0  0 0 0  0 0 0  0 0 0  0 0 0  0 0 0  0 0 0  0 0 0  0 0 0  0 0 0  0 0 0  0 0 0  0 0 0  0 0 0  0 0 0  0 0 0  0 0 0  0 0 0  0 0 0  0 0 0  0 0 0  0 0 0  0 0 0  0 0 0  0 0 0  0 0 0  0 0 0  0 0 0  0 0 0  0 0 0  0 0 0  0 0 0  0 0 0  0 0 0  0 0 0  0 0 0  0 0 0  0 0 0  
            </DataArray>
            <DataArray type="Float64" Name="Velocity" NumberOfComponents="3" format="ascii">
               0 0 0  0 0 0  0 0 0  0 0 0  0 0 0  0 0 0  0 0 0  0 0 0  0 0 0  0 0 0  0 0 0  0 0 0  0 0 0  0 0 0  0 0 0  0 0 0  0 0 0  0 0 0  0 0 0  0 0 0  0 0 0  0 0 0  0 0 0  0 0 0  0 0 0  0 0 0  0 0 0  0 0 0  0 0 0  0 0 0  0 0 0  0 0 0  0 0 0  0 0 0  0 0 0  0 0 0  0 0 0  0 0 0  0 0 0  0 0 0  0 0 0  0 0 0  0 0 0  0 0 0  0 0 0  0 0 0  0 0 0  0 0 0  0 0 0  0 0 0  0 0 0  0 0 0  0 0 0  0 0 0  0 0 0  0 0 0  0 0 0  0 0 0  0 0 0  0 0 0  0 0 0  0 0 0  0 0 0  0 0 0  0 0 0  0 0 0  0 0 0  0 0 0  0 0 0  0 0 0  0 0 0  0 0 0  0 0 0  0 0 0  0 0 0  0 0 0  0 0 0  0 0 0  0 0 0  0 0 0  0 0 0  
            </DataArray>
            <DataArray type="Float64" Name="Traction" NumberOfComponents="3" format="ascii">
               5.12644e-06 5.01819e-06 -8.42034e-07  -1.08178e-06 2.7004e-06 -8.42034e-07  5.15983e-08 6.83753e-07 -8.42034e-07  -2.67421e-07 1.85003e-07 -8.42034e-07  -2.54783e-07 -1.31213e-06 -8.42034e-07  3.2915e-07 -1.07532e-06 -8.42034e-07  1.04285e-07 -4.09031e-07 -8.42034e-07  -4.6014e-07 -7.35861e-07 -8.42034e-07  8.38636e-07 -1.21408e-06 -8.42034e-07  2.67281e-06 -1.42343e-06 -8.42034e-07  -1.20591e-07 -4.65051e-07 -8.42034e-07  6.65452e-08 4.58302e-08 -8.42034e-07  -5.32263e-08 3.58235e-07 -8.42034e-07  -1.19614e-07 2.94807e-07 -8.42034e-07  -6.71473e-08 3.53863e-08 -8.42034e-07  3.22253e-09 -1.17392e-07 -8.42034e-07  -1.10988e-07 7.26256e-09 -8.42034e-07  7.4135e-07 1.58628e-07 -8.42034e-07  -2.9306e-07 -7.85505e-08 -8.42034e-07  3.34586e-07 1.11667e-07 -8.42034e-07  -1.77225e-08 8.20134e-09 -8.42034e-07  -1.69606e-07 2.0326e-07 -8.42034e-07  -3.1191e-07 2.42983e-07 -8.42034e-07  -3.29772e-07 1.21466e-07 -8.42034e-07  -4.32535e-08 7.01046e-08 -8.42034e-07  1.00389e-07 -2.30975e-08 -8.42034e-07  1.04348e-07 1.60772e-07 -8.42034e-07  -1.82408e-07 2.19091e-07 -8.42034e-07  1.75933e-07 -1.72947e-08 -8.42034e-07  1.49866e-07 -2.51474e-07 -8.42034e-07  2.3284e-07 1.44199e-07 -8.42034e-07  -1.60351e-07 5.70389e-07 -8.42034e-07  -3.9695e-07 6.08781e-07 -8.42034e-07  -1.11391e-07 6.29344e-07 -8.42034e-07  -2.5063e-09 4.19229e-07 -8.42034e-07  -1.28348e-06 6.07531e-07 -8.42034e-07  -1.73239e-07 4.17406e-08 -8.42034e-07  -7.06737e-08 -3.66098e-08 -8.42034e-07  2.49418e-07 3.51577e-08 -8.42034e-07  6.77941e-07 7.08302e-08 -8.42034e-07  5.50107e-08 1.38719e-07 -8.42034e-07  -3.79068e-07 2.4546e-07 -8.42034e-07  -2.44717e-07 2.28733e-07 -8.42034e-07  -1.82236e-07 1.49502e-07 -8.42034e-07  -2.46068e-06 9.76375e-08 -8.42034e-07  9.06955e-07 1.79553e-07 -8.42034e-07  2.21469e-07 2.25913e-07 -8.42034e-07  2.13955e-07 5.26816e-07 -8.42034e-07  2.39406e-07 -6.15611e-09 -8.42034e-07  -1.54291e-08 -4.93709e-07 -8.42034e-07  -2.69994e-07 -3.85708e-07 -8.42034e-07  -2.34993e-07 -3.9952e-07 -8.42034e-07  -2.55764e-07 -2.89915e-07 -8.42034e-07  -7.15169e-07 -5.90317e-07 -8.42034e-07  1.61959e-06 -1.97443e-07 -8.42034e-07  4.11453e-07 -5.28567e-08 -8.42034e-07  1.51885e-07 -2.55286e-08 -8.42034e-07  -2.42313e-07 -1.05508e-07 -8.42034e-07  -1.3397e-07 -1.75372e-07 -8.42034e-07  -1.64733e-07 -8.37471e-08 -8.42034e-07  -1.70991e-07 -3.31732e-08 -8.42034e-07  -3.00164e-07 -1.83647e-08 -8.42034e-07  1.00264e-06 -4.14293e-08 -8.42034e-07  8.35966e-07 -3.51034e-07 -8.42034e-07  3.36277e-07 -4.66382e-07 -8.42034e-07  2.21499e-07 -7.27428e-07 -8.42034e-07  7.37079e-08 -4.63556e-07 -8.42034e-07  2.02968e-08 -2.12224e-07 -8.42034e-07  -1.12792e-07 -1.71223e-07 -8.42034e-07  -2.03337e-07 -1.92279e-08 -8.42034e-07  -4.05739e-07 -1.12641e-08 -8.42034e-07  1.58936e-08 2.23286e-07 -8.42034e-07  3.58937e-07 -2.28459e-07 -8.42034e-07  2.13115e-07 1.77333e-07 -8.42034e-07  3.97144e-07 5.21923e-07 -8.42034e-07  6.73606e-07 -9.33507e-08 -8.42034e-07  3.20395e-07 -8.03752e-07 -8.42034e-07  -1.6749e-07 -6.6901e-07 -8.42034e-07  -3.72855e-07 -2.55272e-07 -8.42034e-07  -4.65936e-07 -3.60463e-07 -8.42034e-07  -1.07841e-06 -5.88594e-07 -8.42034e-07  
            </DataArray>
         </PointData> 
      </Piece>
   </UnstructuredGrid> 
</VTKFile>
