<?xml version="1.0"?>
<VTKFile type="UnstructuredGrid" version="0.1" byte_order="LittleEndian">
   <UnstructuredGrid>
      <Piece NumberOfPoints="81" NumberOfCells="0" > 
         <Points> 
            <DataArray type="Float64" Name="Position" NumberOfComponents="3" format="ascii"> 
               0  0  15  
               0.375  0  15  
               0.75  0  15  
               1.125  0  15  
               1.5  0  15  
               1.875  0  15  
               2.25  0  15  
               2.625  0  15  
               3  0  15  
               0  0.375  15  
               0.375  0.375  15  
               0.75  0.375  15  
               1.125  0.375  15  
               1.5  0.375  15  
               1.875  0.375  15  
               2.25  0.375  15  
               2.625  0.375  15  
               3  0.375  15  
               0  0.75  15  
               0.375  0.75  15  
               0.75  0.75  15  
               1.125  0.75  15  
               1.5  0.75  15  
               1.875  0.75  15  
               2.25  0.75  15  
               2.625  0.75  15  
               3  0.75  15  
               0  1.125  15  
               0.375  1.125  15  
               0.75  1.125  15  
               1.125  1.125  15  
               1.5  1.125  15  
               1.875  1.125  15  
               2.25  1.125  15  
               2.625  1.125  15  
               3  1.125  15  
               0  1.5  15  
               0.375  1.5  15  
               0.75  1.5  15  
               1.125  1.5  15  
               1.5  1.5  15  
               1.875  1.5  15  
               2.25  1.5  15  
               2.625  1.5  15  
               3  1.5  15  
               0  1.875  15  
               0.375  1.875  15  
               0.75  1.875  15  
               1.125  1.875  15  
               1.5  1.875  15  
               1.875  1.875  15  
               2.25  1.875  15  
               2.625  1.875  15  
               3  1.875  15  
               0  2.25  15  
               0.375  2.25  15  
               0.75  2.25  15  
               1.125  2.25  15  
               1.5  2.25  15  
               1.875  2.25  15  
               2.25  2.25  15  
               2.625  2.25  15  
               3  2.25  15  
               0  2.625  15  
               0.375  2.625  15  
               0.75  2.625  15  
               1.125  2.625  15  
               1.5  2.625  15  
               1.875  2.625  15  
               2.25  2.625  15  
               2.625  2.625  15  
               3  2.625  15  
               0  3  15  
               0.375  3  15  
               0.75  3  15  
               1.125  3  15  
               1.5  3  15  
               1.875  3  15  
               2.25  3  15  
               2.625  3  15  
               3  3  15  
            </DataArray>
         </Points> 

         <Cells>
            <DataArray type="Int32" Name="connectivity" NumberOfComponents="1" format="ascii">
               
            </DataArray> 
            <DataArray type="Int32" Name="offsets" NumberOfComponents="1" format="ascii">
               
            </DataArray>
            <DataArray type="UInt8"  Name="types" NumberOfComponents="1" format="ascii">
               
            </DataArray>
         </Cells>
         <PointData Scalars="Rank " Vectors="Displacement Velocity Traction ">
            <DataArray type="UInt32" Name="Rank" NumberOfComponents="1" format="ascii">
               0 0 0 0 0 0 0 0 0 0 0 0 0 0 0 0 0 0 0 0 0 0 0 0 0 0 0 0 0 0 0 0 0 0 0 0 0 0 0 0 0 0 0 0 0 0 0 0 0 0 0 0 0 0 0 0 0 0 0 0 0 0 0 0 0 0 0 0 0 0 0 0 0 0 0 0 0 0 0 0 0 
            </DataArray>
            <DataArray type="Float64" Name="Displacement" NumberOfComponents="3" format="ascii">
               0 0 0  0 0 0  0 0 0  0 0 0  0 0 0  0 0 0  0 0 0  0 0 0  0 0 0  0 0 0  0 0 0  0 0 0  0 0 0  0 0 0  0 0 0  0 0 0  0 0 0  0 0 0  0 0 0  0 0 0  0 0 0  0 0 0  0 0 0  0 0 0  0 0 0  0 0 0  0 0 0  0 0 0  0 0 0  0 0 0  0 0 0  0 0 0  0 0 0  0 0 0  0 0 0  0 0 0  0 0 0  0 0 0  0 0 0  0 0 0  0 0 0  0 0 0  0 0 0  0 0 0  0 0 0  0 0 0  0 0 0  0 0 0  0 0 0  0 0 0  0 0 0  0 0 0  0 0 0  0 0 0  0 0 0  0 0 0  0 0 0  0 0 0  0 0 0  0 0 0  0 0 0  0 0 0  0 0 0  0 0 0  0 0 0  0 0 0  0 0 0  0 0 0  0 0 0  0 0 0  0 0 0  0 0 0  0 0 0  0 0 0  0 0 0  0 0 0  0 0 0  0 0 0  0 0 0  0 0 0  0 0 0  
            </DataArray>
            <DataArray type="Float64" Name="Velocity" NumberOfComponents="3" format="ascii">
               0 0 0  0 0 0  0 0 0  0 0 0  0 0 0  0 0 0  0 0 0  0 0 0  0 0 0  0 0 0  0 0 0  0 0 0  0 0 0  0 0 0  0 0 0  0 0 0  0 0 0  0 0 0  0 0 0  0 0 0  0 0 0  0 0 0  0 0 0  0 0 0  0 0 0  0 0 0  0 0 0  0 0 0  0 0 0  0 0 0  0 0 0  0 0 0  0 0 0  0 0 0  0 0 0  0 0 0  0 0 0  0 0 0  0 0 0  0 0 0  0 0 0  0 0 0  0 0 0  0 0 0  0 0 0  0 0 0  0 0 0  0 0 0  0 0 0  0 0 0  0 0 0  0 0 0  0 0 0  0 0 0  0 0 0  0 0 0  0 0 0  0 0 0  0 0 0  0 0 0  0 0 0  0 0 0  0 0 0  0 0 0  0 0 0  0 0 0  0 0 0  0 0 0  0 0 0  0 0 0  0 0 0  0 0 0  0 0 0  0 0 0  0 0 0  0 0 0  0 0 0  0 0 0  0 0 0  0 0 0  0 0 0  
            </DataArray>
            <DataArray type="Float64" Name="Traction" NumberOfComponents="3" format="ascii">
               3.98083e-06 3.90267e-06 -3.80801e-07  -6.09052e-07 1.98128e-06 -3.80801e-07  -1.47504e-07 -1.64197e-07 -3.80801e-07  -6.20087e-08 -2.63194e-07 -3.80801e-07  -4.96572e-08 -5.70866e-07 -3.80801e-07  1.28233e-07 -4.94315e-07 -3.80801e-07  3.86078e-08 -2.47792e-07 -3.80801e-07  -1.30163e-07 -6.61616e-07 -3.80801e-07  1.11308e-06 -1.10828e-06 -3.80801e-07  1.92898e-06 -7.48468e-07 -3.80801e-07  6.47138e-08 -4.28917e-08 -3.80801e-07  5.87807e-08 -2.6619e-08 -3.80801e-07  -2.21641e-08 1.34003e-07 -3.80801e-07  -2.15553e-08 1.92942e-07 -3.80801e-07  -2.39978e-08 7.14502e-08 -3.80801e-07  1.70852e-08 -3.00303e-08 -3.80801e-07  4.83035e-08 -3.17424e-08 -3.80801e-07  6.45593e-07 1.41996e-07 -3.80801e-07  -6.41432e-07 -1.24961e-07 -3.80801e-07  5.01802e-08 1.02767e-07 -3.80801e-07  1.41801e-08 -1.14131e-08 -3.80801e-07  1.92027e-08 8.86751e-08 -3.80801e-07  -6.92355e-08 1.20083e-07 -3.80801e-07  -1.43186e-07 7.4286e-08 -3.80801e-07  -3.65673e-08 3.78149e-08 -3.80801e-07  6.59646e-08 5.60967e-09 -3.80801e-07  8.51075e-08 1.04754e-07 -3.80801e-07  -3.79169e-07 2.58593e-07 -3.80801e-07  -3.50136e-08 1.76284e-08 -3.80801e-07  9.20974e-08 -8.97479e-08 -3.80801e-07  1.73245e-07 3.46465e-08 -3.80801e-07  -1.9472e-08 1.8298e-07 -3.80801e-07  -1.77862e-07 1.86856e-07 -3.80801e-07  -6.80391e-08 1.91325e-07 -3.80801e-07  2.75691e-08 1.26405e-07 -3.80801e-07  -3.75817e-07 1.90386e-07 -3.80801e-07  3.4652e-08 9.26533e-08 -3.80801e-07  -1.10183e-07 3.65592e-08 -3.80801e-07  9.5094e-08 5.11844e-08 -3.80801e-07  3.06822e-07 1.45786e-08 -3.80801e-07  3.73623e-08 8.58292e-10 -3.80801e-07  -1.70831e-07 4.38848e-08 -3.80801e-07  -1.11117e-07 5.33741e-08 -3.80801e-07  -2.77052e-08 1.85658e-08 -3.80801e-07  -8.04683e-07 -2.18788e-09 -3.80801e-07  2.588e-07 -1.32108e-10 -3.80801e-07  4.16138e-08 9.7135e-08 -3.80801e-07  6.81303e-08 2.41747e-07 -3.80801e-07  8.53858e-08 6.2994e-09 -3.80801e-07  1.6717e-09 -2.21869e-07 -3.80801e-07  -9.77156e-08 -1.61221e-07 -3.80801e-07  -8.53973e-08 -1.24797e-07 -3.80801e-07  -6.41174e-08 -1.0704e-07 -3.80801e-07  -1.9056e-07 -2.57924e-07 -3.80801e-07  4.3092e-07 -9.85933e-08 -3.80801e-07  1.63577e-07 -3.51635e-08 -3.80801e-07  4.893e-08 -6.93267e-09 -3.80801e-07  -1.32e-07 -3.65831e-08 -3.80801e-07  -4.50999e-08 -7.12079e-08 -3.80801e-07  -2.64353e-08 -4.06658e-08 -3.80801e-07  -4.12198e-08 -1.95376e-08 -3.80801e-07  -7.4117e-08 -1.70399e-08 -3.80801e-07  4.44428e-07 -8.59245e-08 -3.80801e-07  1.06955e-07 -1.72946e-07 -3.80801e-07  9.67109e-08 -1.76757e-07 -3.80801e-07  6.48299e-08 -2.70401e-07 -3.80801e-07  3.94681e-09 -1.20323e-07 -3.80801e-07  6.19443e-09 9.21665e-09 -3.80801e-07  -2.38667e-08 1.57771e-09 -3.80801e-07  -5.06458e-08 9.47605e-09 -3.80801e-07  -5.5825e-08 1.92859e-08 -3.80801e-07  3.02258e-07 6.68982e-08 -3.80801e-07  -2.48217e-07 1.21623e-07 -3.80801e-07  -2.00926e-08 3.30556e-07 -3.80801e-07  8.96488e-08 5.3765e-07 -3.80801e-07  2.47161e-07 3.35011e-07 -3.80801e-07  1.30099e-07 6.12222e-09 -3.80801e-07  -1.78831e-08 -4.73794e-08 -3.80801e-07  -6.9545e-08 -6.05952e-08 -3.80801e-07  -1.15186e-07 2.22971e-08 -3.80801e-07  5.79977e-08 2.19237e-07 -3.80801e-07  
            </DataArray>
         </PointData> 
      </Piece>
   </UnstructuredGrid> 
</VTKFile>
